<svg xmlns="http://www.w3.org/2000/svg" viewBox="0 0 108.86 86.53"><defs><style>.cls-1{fill:#00d6b9;}.cls-2{fill:#3370ff;}.cls-3{fill:#133c9a;}</style></defs><g id="Layer_2" data-name="Layer 2"><g id="Isolation_Mode" data-name="Isolation Mode"><path class="cls-1" d="M56.57,45.44l.27-.27c.17-.17.36-.36.55-.53l.37-.36,1.1-1.09,1.52-1.48,1.29-1.28,1.22-1.2L64.15,38l1.16-1.14,1.62-1.6c.31-.31.63-.6.95-.89.59-.54,1.2-1.06,1.81-1.56s1.16-.89,1.76-1.32c.84-.6,1.7-1.15,2.58-1.68s1.76-1,2.67-1.44,1.73-.8,2.62-1.14c.49-.2,1-.38,1.5-.55l.78-.25A63.93,63.93,0,0,0,69.52,2.17,5.87,5.87,0,0,0,65,0H18.3a.88.88,0,0,0-.88.88.86.86,0,0,0,.36.7,136.22,136.22,0,0,1,38.69,44Z"/><path class="cls-2" d="M38,86.52a64.1,64.1,0,0,0,56.06-33c.38-.69.75-1.38,1.11-2.09a25.14,25.14,0,0,1-1.83,3c-.24.33-.48.66-.74,1s-.64.8-1,1.19-.53.6-.81.89a23,23,0,0,1-1.76,1.67c-.34.29-.68.57-1,.84s-.84.62-1.26.9c-.27.19-.55.36-.83.54l-.88.51c-.6.34-1.22.66-1.85.94s-1.1.46-1.66.68-1.23.42-1.87.59a23.11,23.11,0,0,1-2.86.62c-.69.1-1.41.18-2.12.24s-1.5.06-2.26.06A24,24,0,0,1,69.92,65c-.63-.06-1.25-.16-1.88-.26s-1.09-.22-1.64-.35l-.86-.23c-.8-.21-1.6-.44-2.4-.66L62,63.15c-.6-.17-1.18-.36-1.77-.54l-1.44-.47c-.45-.15-.92-.29-1.37-.45l-.93-.32L55.31,61l-.8-.3c-.53-.18-1.07-.38-1.59-.58L52,59.74l-1.23-.48c-.43-.17-.87-.34-1.29-.52l-.84-.34-1-.43-.8-.33L46,57.28,45.27,57l-.66-.29L44,56.36,43.27,56l-.87-.4-.9-.43-1-.46-.81-.4A134.52,134.52,0,0,1,1.52,25.86a.89.89,0,0,0-1.24,0,.9.9,0,0,0-.28.64L0,67.65V71A5.81,5.81,0,0,0,2.6,75.83,63.41,63.41,0,0,0,38,86.52"/><path class="cls-3" d="M108.86,28.46a36.86,36.86,0,0,0-26.17-2.38l-1.09.32-.78.25c-.5.17-1,.36-1.5.55-.89.34-1.76.73-2.62,1.14s-1.8.92-2.67,1.43a30.67,30.67,0,0,0-2.58,1.67c-.6.43-1.19.87-1.76,1.32s-1.22,1-1.81,1.56l-.95.89-1.62,1.6L64.15,38l-1.26,1.25-1.22,1.2-1.29,1.27-1.5,1.5-1.11,1.09-.37.36c-.17.17-.36.36-.55.53l-.26.27-.42.38-.46.43a64.75,64.75,0,0,1-13.29,9.41l.86.4.68.32.67.31.65.29.72.32.82.36.8.33,1,.43.84.35c.43.17.87.34,1.29.52l1.23.48.92.34,1.58.59.8.29,1.13.4.94.32c.45.15.9.31,1.37.45l1.44.47,1.77.55,1.18.34,2.4.67.87.22c.54.14,1.09.24,1.63.35s1.26.2,1.88.27c.85.09,1.69.14,2.53.16s1.52,0,2.27-.07,1.42-.13,2.11-.24a28.75,28.75,0,0,0,2.87-.61c.62-.18,1.25-.37,1.86-.6s1.12-.43,1.67-.68,1.25-.6,1.85-.93c.29-.16.58-.34.88-.52s.55-.36.82-.54c.43-.29.85-.58,1.27-.9s.7-.55,1-.84c.59-.52,1.18-1.08,1.74-1.66.28-.3.55-.59.81-.9s.67-.78,1-1.18.5-.65.74-1a28.51,28.51,0,0,0,1.82-3l.63-1.24,5.56-11.09.07-.13a36.4,36.4,0,0,1,7.42-10.59"/></g></g></svg>