<?xml version="1.0" encoding="utf-8"?>
<!-- Generator: Adobe Illustrator 23.0.2, SVG Export Plug-In . SVG Version: 6.00 Build 0)  -->
<svg version="1.1" id="Layer_1" xmlns="http://www.w3.org/2000/svg" xmlns:xlink="http://www.w3.org/1999/xlink" x="0px" y="0px"
	 viewBox="0 0 512 512" style="enable-background:new 0 0 512 512;" xml:space="preserve">
<g>
	<path d="M511,291.6c0,24.4,0,48.9,0,73.3c-2.4,4.9-6.5,6.4-11.8,6.3c-10.3-0.2-20.5-0.1-30.8-0.1c-2.7,0-5.5,0-8.5,0
		c0,17.6,0.1,34.4,0,51.2c-0.2,16.7-11.7,30.6-28.2,32.9c-8.9,1.2-18.1,1.4-27,0.3c-17.9-2.1-29.7-16.2-29.8-34.3
		c-0.1-14.9,0-29.7,0-44.6c0-1.7-0.1-3.4-0.2-5.2c-14.2,0-28.1,0-42.3,0c0,7.8,0,15.2,0,22.6c0,7.9-3,11-10.9,11
		c-43.7,0-87.4,0-131.1,0c-8,0-10.9-3-11-10.9c0-7.6,0-15.1,0-22.8c-14.4,0-28.3,0-42.5,0c0,17.2,0.1,33.9,0,50.7
		c-0.2,16.9-11.8,30.9-28.6,33.1c-9,1.2-18.4,1.2-27.5,0.1c-15.3-1.9-26.3-13.5-28.5-28.6c-0.4-3-0.3-6-0.3-9c0-15.4,0-30.7,0-46.6
		c-13,0-25.5-0.2-38,0.1c-5.3,0.1-9.7-1-13-5.3c0-24.8,0-49.6,0-74.4c3.7-7.1,10.8-5,17-5.7c0-19.7,0-38.8,0-57.9
		c0-6.7,3-9.7,9.7-9.8c5.8-0.1,11.6,0,17.4,0c0.6-2,1.1-3.5,1.5-5C59,163.8,71.4,114.4,83.8,65.1c1.9-7.5,4-9.3,11.2-9.3
		c107.3,0,214.6,0,321.8,0c7,0,9.4,1.9,11.1,8.8c10,39.6,19.9,79.2,29.8,118.8c2.9,11.6,5.9,23.2,8.7,34.3c0.9,0.3,1.1,0.4,1.2,0.4
		c5.3,0,10.6,0.1,15.9,0.1c7.3,0.1,10.2,3,10.2,10.4c0,17.2,0,34.3,0,51.5c0,1.9,0,3.8,0,6C500.6,286.3,507.3,284.9,511,291.6z
		 M97.1,217.9c106.2,0,211.6,0,317.8,0c-9.9-37-19.6-73.6-29.4-110c-86.8,0-172.8,0-259.1,0C116.7,144.5,107,180.9,97.1,217.9z
		 M375.5,286c7.7-21.6,21-33.2,39.2-33.7c23.7-0.6,37.8,11.8,44.8,33.6c5.8,0,11.4,0,17.1,0c0-17,0-33.7,0-50.5
		c-147.3,0-294.2,0-441.3,0c0,16.9,0,33.6,0,50.5c8.8,0,17.2,0,25.6,0c8.7-22.7,21.7-33.4,40.8-33.8c20.6-0.4,33.1,9.4,43.4,33.7
		c5.6,0,11.2,0,17.4,0c0-8.5,0-16.7,0-24.8c6,0,11.4,0,17.2,0c0,8.5,0,16.6,0,24.7c5.8,0,11.2,0,17,0c0-8.5,0-16.6,0-24.7
		c5.8,0,11.2,0,17,0c0,8.5,0,16.5,0,24.7c5.8,0,11.2,0,17,0c0-8.5,0-16.5,0-24.7c5.8,0,11.2,0,17,0c0,8.4,0,16.5,0,24.8
		c5.8,0,11.2,0,17,0c0-8.4,0-16.5,0-24.8c5.8,0,11.2,0,17.2,0c0,8.5,0,16.7,0,24.8c5.9,0,11.1,0,17,0c0-8.5,0-16.8,0-24.8
		c5.9,0,11.1,0,17,0c0,8.5,0,16.7,0,24.9c5.9,0,11.1,0,17,0c0-8.5,0-16.7,0-24.9c5.9,0,11.1,0,17,0c0,8.5,0,16.7,0,25
		C358.6,286,366.9,286,375.5,286z M332.5,353.8c54.2,0,107.7,0,161.2,0c0-17,0-33.5,0-50.3c-11.7,0-23.1,0-34.4,0
		c-6.8,24.4-25.1,32.9-39.9,33.6c-8.7,0.4-16.8-1.8-24.3-6.4c-10.3-6.4-16.4-15.8-19.3-27.3c-77.2,0-154,0-230.9,0
		c-6,20.2-19,32.8-40.2,33.5c-22.9,0.7-37.1-12.1-43.6-33.4c-14.5,0-28.5,0-42.7,0c0,17,0,33.7,0,50.4c53.8,0,107.2,0,161.1,0
		c0-8,0-15.8,0-23.5c0.1-7.1,3-10.1,9.9-10.2c44.4,0,88.9,0,133.3,0c6.6,0,9.7,3.1,9.7,9.8C332.6,337.8,332.5,345.6,332.5,353.8z
		 M448.8,218c-0.4-2-0.6-3.4-0.9-4.8c-11.3-44.9-22.6-89.8-33.7-134.7c-1.2-4.8-3.2-5.8-7.9-5.8c-100.2,0.1-200.4,0.2-300.6,0
		c-5.1,0-6.9,1.5-8,6.3c-8.9,36.4-18.1,72.7-27.3,109c-2.5,9.9-4.9,19.8-7.4,30c5.8,0,10.9,0,16.2,0c0.5-1.5,1-3,1.4-4.5
		c9.9-37.2,19.9-74.4,29.8-111.7c2.7-10.3,3.8-11.1,14.6-11.1c87.6,0,175.2,0,262.9,0c9.4,0,11,1.2,13.3,10.1
		c6.5,24.4,13,48.9,19.5,73.3c3.9,14.7,7.9,29.3,11.8,44C438.1,218,443.2,218,448.8,218z M196.8,337.4c0,17.2,0,33.7,0,50.4
		c39.6,0,79,0,118.3,0c0-17,0-33.7,0-50.4C275.5,337.4,236.3,337.4,196.8,337.4z M69.1,371.4c0,17.8-0.3,35.3,0.1,52.7
		c0.2,8.3,7.8,14.6,16.6,14.9c5.8,0.2,11.7,0.3,17.5,0c9.6-0.4,16.4-7.5,16.7-17.1c0.1-4.1,0-8.1,0-12.2c0-12.7,0-25.4,0-38.3
		C102.9,371.4,86.4,371.4,69.1,371.4z M392,371.4c0,17.7-0.2,34.9,0.1,52c0.2,8.8,7.6,15.4,16.9,15.8c5.1,0.2,10.3,0.1,15.4,0
		c11.6-0.1,18.5-7,18.6-18.5c0.1-11,0-21.9,0-32.9c0-5.4,0-10.8,0-16.4C425.8,371.4,409.2,371.4,392,371.4z M102.8,269.2
		c-14,0.1-25.3,11.4-25.3,25.4c0,14.1,11.7,25.8,25.7,25.6c13.9-0.1,25.3-11.6,25.3-25.5C128.5,280.4,117.1,269.1,102.8,269.2z
		 M417.3,269.2c-14,0.1-25.2,11.4-25.2,25.4c0,14.1,11.7,25.7,25.7,25.6c13.9-0.2,25.2-11.7,25.3-25.5
		C443,280.4,431.6,269.1,417.3,269.2z"/>
</g>
</svg>
