<?xml version="1.0" encoding="utf-8"?>
<!-- Generator: Adobe Illustrator 23.0.2, SVG Export Plug-In . SVG Version: 6.00 Build 0)  -->
<svg version="1.1" id="Layer_1" xmlns="http://www.w3.org/2000/svg" xmlns:xlink="http://www.w3.org/1999/xlink" x="0px" y="0px"
	 viewBox="0 0 512 512" style="enable-background:new 0 0 512 512;" xml:space="preserve">
<g>
	<path d="M33.9,512c-4.2-2.7-5.3-6.6-5.3-11.5c0.1-152.2,0.1-304.3,0.1-456.5c0-9.2,2.2-11.4,11.5-11.4c6.3,0,12.7,0.2,19-0.1
		c1.6-0.1,4-1.5,4.7-2.9C72.3,10.8,86.5,0.1,107,0c20.7-0.1,35.3,10.4,43.3,29.5c1.5,3.5,3.8,3,6.4,3c59.5,0,119,0,178.5,0
		c16.7,0,33.3,0,50,0c8.5,0,10.9,2.5,10.9,11.1c0,121.8,0,243.7,0.1,365.5c0,4.5-1.3,7.8-4.5,11c-29.2,29-58.3,58.2-87.4,87.3
		c-1.6,1.6-3.5,3-5.2,4.5C210.6,512,122.3,512,33.9,512z M45.3,49c0,149,0,297.6,0,446.3c81.1,0,161.8,0,242.9,0c0-2.2,0-4,0-5.9
		c0-24.7,0-49.4,0-74c0-8.7,2.7-11.4,11.3-11.4c24.8,0,49.7,0,74.5,0c1.8,0,3.6,0,5.5,0c0-118.7,0-236.8,0-354.9
		c-75.4,0-150.5,0-225.9,0c0,2.3,0,4.3,0,6.3c0,16.7,0.2,33.3-0.1,50c-0.3,17.8-13.3,30.5-30.4,30.4c-16.6-0.1-29.3-13.3-29.4-30.8
		c-0.1-10-0.1-20,0-30c0-6.3,3.1-9.9,8.1-9.9c5,0,8.1,3.8,8.1,9.9c0,9.7,0,19.3,0,29c0,9.1,5.5,15.4,13.4,15.5
		c8.1,0.2,13.7-6.1,13.8-15.6c0.1-17.2,0-34.3,0-51.5c0-1.1-0.1-2.2-0.2-3.5C106.3,49,76,49,45.3,49z M366.2,420.9
		c-20.1,0-40.6,0-61.2,0c0,20.9,0,41.2,0,61.2C325.4,461.7,345.8,441.2,366.2,420.9z M133.4,32.3c-5.2-10.6-17.1-17.3-28.2-16.1
		C94,17.3,83.8,24.3,81.7,32.3C98.8,32.3,115.8,32.3,133.4,32.3z"/>
	<path d="M333,512c-0.3-0.4-0.5-0.8-0.9-1.1c-3.4-2.3-5-5.5-3.7-9.5c1.3-4.2,4.6-5.7,8.9-5.7c20.2,0.1,40.3,0,60.5,0
		c8.3,0,16.6,0,25.2,0c0-149.2,0-297.8,0-446.6c-1.5-0.2-3.1-0.2-4.4-0.6c-4.1-1.4-6.4-4.3-5.9-8.7c0.4-4.1,2.9-6.8,7.1-7.1
		c4.1-0.3,8.3-0.2,12.5,0c4,0.2,6.4,2.7,7.2,6.5c0.4,1.8,0.3,3.6,0.3,5.5c0,151.7,0,303.4,0.1,455.1c0,5.2-0.9,9.6-5.8,12.2
		C400.4,512,366.7,512,333,512z"/>
	<path d="M461.1,512c-5.6-5.4-6.7-10.3-2.4-13.9c2-1.7,5-2.2,8-3.5c0-148,0-296.6,0-445.2c-0.3-0.2-0.5-0.5-0.8-0.5
		c-6.6-0.7-10.2-3.8-9.8-8.8c0.4-4.9,3.9-7.5,10.5-7.5c16.2-0.2,16.7,0.3,16.7,16.3c0,150.4,0,300.8,0.1,451.1c0,5-0.8,9.1-5.3,12
		C472.4,512,466.7,512,461.1,512z"/>
	<path d="M212,180c-35.2,0-70.3,0-105.5,0c-1.7,0-3.3,0.1-5-0.1c-4.4-0.4-7.4-3.7-7.5-7.9c-0.1-4.1,3-7.6,7.3-8.1
		c1.3-0.2,2.7-0.1,4-0.1c71.3,0,142.6,0,213.9,0c1.5,0,3-0.1,4.5,0.1c4.2,0.6,7.4,4.4,7,8.4c-0.5,4.2-2.8,7.1-7.3,7.6
		c-1.6,0.2-3.3,0.1-5,0.1C283,180,247.5,180,212,180z"/>
	<path d="M212.4,212.9c35.5,0,71,0,106.5,0c1.5,0,3-0.1,4.5,0.1c4.2,0.5,7.4,4,7.4,8.1c0,4.1-3.1,7.5-7.4,8c-1.6,0.2-3.3,0.1-5,0.1
		c-70.6,0-141.3,0-211.9,0c-1.7,0-3.3,0.1-5-0.1c-4.4-0.5-7.4-3.8-7.4-8c0-4.1,3.1-7.6,7.4-8c1.5-0.2,3-0.1,4.5-0.1
		C141.4,212.9,176.9,212.9,212.4,212.9z"/>
	<path d="M212.3,278.2c-35.2,0-70.3,0-105.5,0c-1.8,0-3.7,0.1-5.5-0.1c-4.5-0.5-7-3.3-7.2-7.6c-0.2-4.4,2.3-7.2,6.5-8.3
		c1.1-0.3,2.3-0.2,3.5-0.2c72.1,0,144.3,0,216.4,0c1.3,0,2.7-0.1,4,0.3c4,1.1,6.4,3.9,6.2,8c-0.1,4.3-2.5,7.2-7,7.8
		c-1.8,0.2-3.7,0.2-5.5,0.2C282.9,278.2,247.6,278.2,212.3,278.2z"/>
	<path d="M212.5,327.2c-35.3,0-70.6,0-106,0c-1.7,0-3.3,0.1-5-0.1c-4.4-0.4-7.6-3.7-7.5-7.9c0.1-4.4,2.6-7.1,6.8-8.1
		c1.3-0.3,2.7-0.2,4-0.2c71.6,0,143.3,0,214.9,0c1.5,0,3.1-0.1,4.5,0.2c4.2,1.1,6.7,4,6.4,8.3c-0.3,4.2-2.7,7.1-7.2,7.6
		c-1.7,0.2-3.3,0.1-5,0.1C283.1,327.2,247.8,327.2,212.5,327.2z"/>
	<path d="M212.4,360c35.5,0,71,0,106.5,0c1.5,0,3-0.1,4.5,0.1c4.3,0.5,7.4,4.1,7.4,8.1c0,4.1-3,7.4-7.5,7.9c-1.6,0.2-3.3,0.2-5,0.2
		c-70.6,0-141.3,0-211.9,0c-1.7,0-3.3,0-5-0.2c-4.4-0.5-7.4-3.9-7.4-8c0-4.1,3.1-7.5,7.4-8.1c1.5-0.2,3-0.1,4.5-0.1
		C141.5,360,176.9,360,212.4,360z"/>
</g>
</svg>
