<svg version="1.1"  xmlns="http://www.w3.org/2000/svg" xmlns:xlink="http://www.w3.org/1999/xlink" x="0px" y="0px"
	 viewBox="0 0 512 512" style="enable-background:new 0 0 512 512;" xml:space="preserve">
	<g>
		<path d="M248,512c-17.8-5.8-31.5-18-45.5-29.6c-12.1-10.1-25.8-12.8-41-11.8c-10.5,0.7-20.9,1.2-31.5,0.5
			c-18.8-1.2-31.8-10.1-39.3-27.5c-5.2-12.1-7.8-25-11.6-37.6c-3.5-11.8-10-21.2-20.3-28c-9-5.9-18.1-11.9-26.8-18.2
			c-9.7-7.1-17.8-15.6-20.5-28c-2-9-0.7-17.9,2.1-26.6c2.7-8.2,5.3-16.5,8.7-24.4c7.2-16.7,7.1-33,0-49.8
			c-4.4-10.5-8.6-21.2-10.8-32.6c-3-15.7,1.2-28.9,12.8-39.9c6.8-6.5,14.3-12.1,22.5-16.5c20.4-10.8,32.5-27.3,36.3-50.1
			c0.9-5.4,2.9-10.6,4.6-15.8c8.6-25.7,22.1-35.7,49.2-35.7c12,0,24,0.6,36,0.7c10.1,0.1,18.8-3.6,26.7-9.7
			c7.4-5.7,14.7-11.5,21.9-17.3C229.5,7.9,238.6,3.7,248,0c4.7,0,9.3,0,14,0c17.6,4,30.8,15.5,43.9,26.9
			c13.2,11.4,27.9,15.9,45.1,14.6c12.9-1,25.9-2,38.9,0.5c8.9,1.7,16.7,5.7,22.7,12.6c3.5,4,3.5,8.5,0.1,11.5
			c-3.3,2.9-7.5,2.7-11-1.2c-5.3-5.8-12-8.2-19.5-8.9c-10.5-0.9-21-0.4-31.5,0.5c-20.3,1.6-38.1-3.9-53.5-17.3
			c-7.3-6.3-14.8-12.4-22.9-17.7c-12.3-8.2-24.4-8.3-36.8-0.1c-8.3,5.6-16.1,11.8-23.7,18.3c-15.3,13.1-32.8,18.3-52.7,16.8
			c-10.4-0.8-21-1.3-31.5-0.5c-11.5,0.8-19.7,6.2-24.6,16.8c-4.3,9.3-6.9,19.1-9.1,29c-4.9,22.1-16.8,38.7-36.4,50
			c-7.5,4.3-14.6,9.3-21.4,14.6c-11.6,9.1-15.1,20.4-10.9,34.5c2.8,9.4,6.3,18.6,9.9,27.7c7.3,18.4,7.3,36.5,0.1,54.9
			c-4.1,10.3-8.4,20.6-10.9,31.5c-2.5,11.1,0.2,20.3,8.6,28c7.4,6.8,15.8,12.3,24.4,17.3c19.7,11.5,31.8,28.1,36.6,50.4
			c2,9.4,4.7,18.7,8.5,27.6c4.9,11.5,13.5,17.2,25.9,17.9c10.3,0.6,20.7,0.2,31-0.6c19.5-1.4,36.8,3.6,51.8,16.4
			c7.7,6.6,15.6,13,24.1,18.7c12.5,8.4,24.7,8.3,37.2-0.2c8-5.4,15.6-11.4,22.9-17.8c15.3-13.3,33-18.7,53.1-17.1
			c10.3,0.8,20.6,1.2,31,0.6c11.9-0.8,20.4-6.3,25.3-17.3c4.1-9.2,6.8-18.8,8.9-28.5c4.8-21.9,16.6-38.4,36-49.7
			c7.5-4.3,14.6-9.3,21.4-14.6c11.8-9.1,15.6-20.5,11.2-34.9c-2.8-9.2-6.2-18.3-9.8-27.2c-7.5-18.7-7.5-37.1-0.1-55.9
			c4.1-10.2,8.2-20.3,10.7-31.1c2.5-11.1-0.2-20.3-8.6-28c-8.3-7.6-17.7-13.6-27.3-19.2c-22.5-12.9-31.1-34.1-35.9-57.7
			c-0.8-4.1,1.4-7.1,5.5-8.2c4.1-1.1,7.6,0.8,9,5.1c1.9,5.9,3.4,11.8,5.1,17.7c3.2,11.3,9.6,20.3,19.5,26.9
			c9.3,6.2,18.6,12.3,27.6,18.8c10.2,7.4,18.4,16.5,20.6,29.5c1.8,10.6-0.8,20.8-4.3,30.8c-3.2,9.1-6.6,18.1-9.8,27.2
			c-3.8,10.8-3.5,21.4,0,32.3c4,12.3,9.4,24.1,12.7,36.7c5,19.1,0.1,34.7-15,47.4c-8,6.6-16.6,12.4-25.4,17.6
			c-15.1,8.9-24.4,21.5-28.2,38.7c-2.2,10-5,20-8.9,29.6c-7.4,18.4-20.9,28.1-40.8,29c-10.2,0.5-20.4,0.2-30.5-0.6
			c-16.9-1.4-31.6,2.8-44.2,14.4c-1,0.9-2.1,1.7-3.1,2.5c-12.5,10.3-24.9,20.8-41.3,24.6C257.3,512,252.7,512,248,512z"/>
		<path d="M251.6,438.6c-45-0.6-87.5-17.8-123.2-52c-4.1-4-4.7-8.5-1.6-11.8c3.3-3.5,7.5-3.3,11.8,0.8
			c21.5,20.8,46.6,35,75.6,42.7c93.8,24.8,191.3-38.3,206.9-134c14.5-89.1-40.7-171.3-128.8-191.9C204.6,71.8,112.5,129.6,93,217.6
			C82.6,264.3,90.1,307.8,116,348c1.9,2.9,3.5,5.8,1.9,9.3c-1.2,2.6-3.3,4.2-6.2,4.5c-3.3,0.3-5.7-1.5-7.4-4.1
			c-8.9-13.3-16.1-27.6-21.2-42.8c-30.4-91,13.2-188.7,101.2-226.8C288,43.2,409.4,105,434,215.3c22.3,100.1-39.9,197.3-140.4,219.4
			C281.2,437.4,268.6,438.5,251.6,438.6z"/>
		<path d="M256,398.9c-78.7,0-143-64.4-142.9-143.1c0.1-78.7,64.5-142.9,143.2-142.8c78.5,0.1,142.6,64.3,142.6,142.8
			C399,334.6,334.7,398.9,256,398.9z M383.9,255.9c-0.1-70.3-57.5-127.7-127.8-127.8c-70.5-0.1-128.1,57.5-128.1,128
			c0,70.5,57.8,128,128.3,127.8C326.6,383.8,384,326.2,383.9,255.9z"/>
		<path d="M188.8,314.3c1.3-7.9,2.8-18,4.8-27.9c1.2-6-0.1-10.6-4.7-14.7c-6.3-5.7-12.3-11.8-18.3-17.7
			c-7.5-7.4-10.5-16.2-7-26.3c3.5-10.1,11-15.4,21.5-16.7c8.7-1.1,17.4-2.7,26.2-3.8c4.7-0.6,7.9-2.7,10-7.1
			c3.8-8.1,7.9-16.1,11.8-24.1c4.6-9.5,11.9-15.1,22.7-15.1c11,0,18.4,5.6,23.1,15.3c3.9,8.1,8,16,11.9,24.1c2,4.2,5.1,6.3,9.6,6.9
			c9.4,1.2,18.8,2.5,28.1,4.1c9.9,1.6,16.7,7.2,19.9,16.7c3.1,9.4,0.9,17.8-5.8,24.9c-6.6,6.8-13.4,13.4-20.4,19.9
			c-3.8,3.6-5,7.6-4.1,12.6c1.6,8.5,3.1,17,4.5,25.5c1.7,10.3-0.5,19.3-9.2,25.7c-8.8,6.5-18.2,6.4-27.7,1.4
			c-7.6-4-15.4-7.8-22.9-12.1c-4.9-2.8-9.2-2.6-14,0.1c-8.1,4.6-16.3,9-24.7,13C207.3,346.9,188.5,334.9,188.8,314.3z M203.8,315.2
			c-0.2,8.9,6.8,13.4,14.1,9.9c8.6-4.3,17.1-8.8,25.6-13.4c8.5-4.5,16.8-4.5,25.2,0.1c7.7,4.2,15.6,8.1,23.4,12.3
			c4.1,2.2,8,3.3,12.2,0.5c4.2-2.9,4.4-7.1,3.6-11.6c-1.5-8.5-2.9-17.1-4.5-25.6c-1.8-9.7,0.5-18.1,7.8-25
			c6.7-6.3,13.1-12.8,19.7-19.2c3-3,4.9-6.3,3.4-10.7c-1.5-4.3-4.6-6.2-8.9-6.8c-8.6-1.1-17.1-2.8-25.7-3.7
			c-10.5-1.2-18-6.1-22.6-15.7c-3.6-7.5-7.4-14.9-11-22.4c-2.1-4.4-4.4-8.3-10-8.3c-5.6-0.1-8.1,3.7-10.2,8.1
			c-3.6,7.7-7.5,15.2-11.2,22.8c-4.4,9.2-11.6,14.1-21.7,15.4c-8.7,1.1-17.4,2.6-26.2,3.8c-4.6,0.6-7.8,2.5-9.3,7
			c-1.4,4.5,0.6,7.7,3.6,10.6c6.5,6.2,12.8,12.6,19.4,18.8c7.4,7,9.8,15.5,7.9,25.4C206.8,297.2,205.3,306.7,203.8,315.2z"/>
		</g>
</svg>
