<?xml version="1.0" encoding="utf-8"?>
<!-- Generator: Adobe Illustrator 23.0.2, SVG Export Plug-In . SVG Version: 6.00 Build 0)  -->
<svg version="1.1" id="Layer_1" xmlns="http://www.w3.org/2000/svg" xmlns:xlink="http://www.w3.org/1999/xlink" x="0px" y="0px"
	 viewBox="0 0 512 512" style="enable-background:new 0 0 512 512;" xml:space="preserve">
<g>
	<path d="M479.2,460.7c-1.8-3.3-2.5-5.9-4.2-7.6c-19.3-19.5-38.6-38.8-58.1-58c-1.4-1.4-3.9-2.4-5.9-2.5c-8.5-0.3-17.1-0.2-25.6-0.1
		c-6.9,0.1-10,3.2-10,10.2c-0.1,10.1,0,20.3,0,30.4c0,6.7-3.3,10.6-8.6,10.5c-5.3-0.1-8.4-4-8.4-10.7c0-10.5-0.1-21,0-31.5
		c0.2-14.9,11-25.9,26-26c20.4-0.1,40.9,0,61.3,0c1.9,0,3.9,0,6.2,0c0-31.3,0-62.3,0-93.5c-23.5,0-46.8,0-70.1,0
		c-2.8,8-5.2,16.2-8.5,24c-6.8,16.3-16.8,30.4-29.8,42.4c-23.8,22.1-47.7,44.2-71.6,66.2c-5.3,4.9-9.1,4.9-14.4,0
		c-23.7-21.8-47.7-43.2-70.7-65.6c-9.1-8.8-16-19.8-24.1-29.6c-1.3-1.5-3.4-3.4-5.1-3.4c-34.8-0.2-69.7-0.1-104.5-0.1
		c-0.3,0-0.7,0.2-1.4,0.3c0,13.8,0,27.7,0,42.3c2,0,3.9,0,5.8,0c28.4,0,56.9,0,85.3,0c17.4,0,28,10.4,28,27.8c0,21.3,0,42.7,0,64
		c0,17.1-10.6,27.6-27.6,27.7c-7.6,0-15.2,0-23.2,0c0,5.7,0,11.1,0,17.1c5.1,0,10.2-0.1,15.3,0c6.2,0.1,10,3.6,9.9,8.8
		c-0.1,5-3.9,8.3-9.8,8.3c-33.2,0-66.5,0-99.7,0c-6.1,0-10-3.6-9.8-8.8c0.2-5,3.9-8.2,9.8-8.2c5-0.1,9.9,0,15.3,0c0-5.6,0-11,0-17.1
		c-7.5,0-15.1,0-22.6,0c-17.7,0-28.1-10.4-28.1-28.2c0-21,0-41.9,0-62.9c0-18.1,10.3-28.3,28.5-28.4c1.6,0,3.2,0,5.6,0
		c0-1.8,0-3.5,0-5.2c0-13.9,0-27.7,0-41.6c0-10.6,2.2-12.9,12.7-12.9c33.2,0,66.5,0,99.7,0c1.9,0,3.8,0,6.6,0
		c-10.3-25-7.8-50.8-8.1-76.8c-3.4,0-6.4,0-9.3,0c-18.8,0-37.7,0-56.5,0c-8,0-10.9-2.9-10.9-11c0-24.5,0-49,0-74.3
		c-5.1,0-10,0.1-14.9,0c-8.7-0.2-17.5,0.4-26-1c-16.1-2.7-27-16.5-27.3-32.8c-0.3-16.3,0.7-17.4,16.7-17.4c37.9,0,75.7,0,113.6,0
		c1.9,0,3.9,0,7.3,0c-1.5-3.1-2-5.7-3.6-7.4C114.7,58.5,95.2,39,75.6,19.6c-1.3-1.3-3.6-2.3-5.5-2.4C61.4,17,52.7,17.1,44,17.2
		c-6.6,0.1-9.8,3.2-9.8,9.9c-0.1,10.3,0,20.6,0,30.9c0,6.4-3.2,10.2-8.3,10.3c-5.3,0.2-8.7-3.8-8.7-10.4c0-10.7-0.1-21.3,0-32
		C17.3,11.3,28.2,0.2,42.8,0.1C71,0,99.3,0,127.6,0.1c15,0.1,25.9,11,26,26c0.1,19.5,0,39.1,0,59.3c3.1,0,5.8-0.1,8.6,0
		c4.5,0.2,7.7,2.6,8.2,7c1.5,14.9-1,28.4-14.2,37.8c-6.1,4.4-13,6.3-20.5,6.3c-16.5,0-33,0-49.9,0c0,22.7,0,45.1,0,67.9
		c19.6,0,39.2,0,59.3,0c0-7.8,0-15.4,0-23c0-7.8,2.9-10.7,10.5-10.8c38-0.8,71.5-13.6,100.5-38.1c7.4-6.2,9.2-5.7,17.1-0.2
		c11.9,8.3,24.3,15.8,36.6,23.6c1.6,1,3.5,1.5,5.9,2.5c0-2.7,0-4.6,0-6.5c0-26.8,0-53.7,0-80.5c0-9,2.7-11.7,11.8-11.7
		c25.2,0,50.5,0,75.7,0c1.9,0,3.8,0,6.3,0c0-8,0-15.6,0-23.2c0-17.4,10.5-28,27.7-28c10.5,0,21-0.1,31.5,0c15,0.1,26,11,26.1,25.9
		c0.1,22.6,0.1,45.1,0,67.7c-0.1,14.6-11.1,25.6-25.7,25.7c-11.4,0.1-22.7,0.2-34.1,0c-14.3-0.2-25.2-11.2-25.4-25.5
		c-0.1-8.3,0-16.7,0-25.3c-25.6,0-50.9,0-76.8,0c0,1.5,0,2.9,0,4.2c0,26.1,0.1,52.2-0.1,78.4c0,3.7,0.8,5.6,4.6,6.1
		c11.9,1.5,23.9,3.4,35.8,4.7c6.8,0.7,10.7,3.2,10.8,8.5c0.1,5.5-4,8.8-11,8.6c-38.5-0.8-73.1-13-103.7-36.4
		c-1.1-0.9-2.2-1.8-3.3-2.6c-0.3-0.2-0.6-0.3-1.5-0.7c-29.4,23.9-63.5,37.2-102.2,39.6c0,2,0,3.7,0,5.5c0,20.3-0.1,40.5,0,60.8
		c0.2,32.2,11.7,59.7,35.1,81.8c22.1,20.9,44.6,41.3,67.3,62.3c8.6-7.9,17.1-15.7,25.5-23.5c13.4-12.4,26.9-24.8,40.3-37.3
		c24.3-22.7,36.4-50.7,36.5-83.9c0-12.6,0-25.2,0-37.9c0-6.7,3.2-10.6,8.6-10.6c5.3,0,8.5,3.9,8.5,10.7c0,16.1,0,32.3,0,49
		c2.1,0,4,0,5.9,0c22.7,0,45.5,0,68.2,0c8.4,0,11.2,2.8,11.2,11.2c0,31.1,0,62.2,0,93.3c0,1.9,0,3.9,0,6
		c12.9,1.5,21.8,7.7,24.9,20.6c0.6,2.5,0.7,5.3,0.7,7.9c0.1,18.8,0,37.6,0,57.2c3,0,5.8-0.1,8.6,0c4.2,0.2,7.6,2.4,8.1,6.5
		c1.7,14-0.2,27-11.9,36.8c-6.2,5.2-13.5,7.9-21.6,7.9c-34.3,0-68.6,0.2-102.9,0c-18.9-0.1-33.5-15-33.8-34.1
		c-0.3-15.9,0.8-17,16.5-17c37.8,0,75.7,0,113.5,0C473.3,460.7,475.2,460.7,479.2,460.7z M85,460.7c19,0,38,0,57,0
		c1.9,0,4,0,5.8-0.5c5-1.6,5.7-4.6,2-8.3c-24.6-24.6-49.2-49.2-73.9-73.7c-1.5-1.5-4.2-2.6-6.4-2.7c-13.8-0.2-27.7-0.1-41.5-0.1
		c-7.9,0-10.8,2.9-10.8,11c0,21.1,0,42.2,0,63.4c0,8,2.9,10.9,10.9,10.9C47,460.8,66,460.7,85,460.7z M426.6,68.3
		c0,10.8-0.1,21.7,0,32.5c0,7,3.1,10.1,10.1,10.1c10.3,0.1,20.6,0.1,30.9,0c7,0,10.1-3.2,10.1-10.1c0.1-21.7,0.1-43.4,0-65
		c0-7-3.2-10.1-10.1-10.1c-10.3-0.1-20.6-0.1-30.9,0c-7,0-10.1,3.1-10.1,10.1C426.5,46.7,426.6,57.5,426.6,68.3z M17.4,102.6
		c-0.3,10.4,9.4,17,16.8,16.9c11.2-0.2,22.4,0,33.6,0c22.7,0,45.5,0.1,68.2,0c10.3,0,17.6-7.4,17-16.9
		C107.9,102.6,62.8,102.6,17.4,102.6z M358.5,478c0.8,10.1,7.3,16.7,16.9,16.9c11.2,0.2,22.4,0,33.6,0c22.7,0,45.5,0.1,68.2,0
		c10.3,0,17.6-7.4,17-16.9C449.1,478,404,478,358.5,478z M99.2,375.4c18.2,18.2,36.2,36.3,54.3,54.4c0-15.4,0.2-31.1-0.1-46.8
		c-0.1-4.8-3.7-7.6-8.7-7.6C129.5,375.4,114.3,375.4,99.2,375.4z M136.5,55.8c0-10.8,0.2-20.7-0.1-30.6c-0.1-4.9-3.7-7.8-8.9-8
		c-5.9-0.1-11.7,0-17.6,0c-3.7,0-7.5,0-12,0C111,30.3,123.3,42.6,136.5,55.8z M477.7,431.1c0-10.8,0.2-20.7-0.1-30.6
		c-0.1-4.9-3.7-7.8-9-7.9c-5.3-0.1-10.7,0-16,0c-4.3,0-8.5,0-13.5,0C452.3,405.7,464.6,418,477.7,431.1z M68.7,478
		c0,5.8,0,11.2,0,16.4c11.4,0,22.5,0,33.5,0c0-5.7,0-10.9,0-16.4C90.9,478,80,478,68.7,478z"/>
	<path d="M264.5,351.8c16.5-15.5,32.9-30,48.2-45.5c13.1-13.3,19.2-30.1,19.9-48.7c0.4-12.1,0-24.2,0.2-36.2c0-3.1-1.1-4.2-4-4.9
		c-21.6-4.9-41.9-13.2-60.8-24.7c-2.5-1.6-4.3-1.4-6.7,0.1c-21.3,13-44.2,21.7-68.7,26.4c-1,0.2-2.1,0.5-3.1,0.6
		c-5.4,0.5-9.4-2.3-10.1-7.2c-0.7-4.4,2.3-8.4,7.3-9.6c7.2-1.8,14.6-3.1,21.7-5.2c17.3-5,33.6-12.4,48.6-22.5
		c5.3-3.5,9.7-3.8,15.1-0.2c20.7,13.6,43.4,22.5,67.6,27.4c8.6,1.7,10.2,3.8,10.1,12.7c-0.2,17.6,0.3,35.2-1.1,52.7
		c-1.7,21.3-11.2,39.6-26.5,54.4c-16.6,16.1-33.7,31.5-50.8,47.2c-4.9,4.5-9,4.4-14-0.2c-16.1-14.8-32.3-29.4-48.2-44.4
		c-21.7-20.5-31.2-46-30.1-75.7c0.2-5.4,3.7-9,8.5-9c4.8,0,7.9,3.6,8.5,9.1c1.2,10.5,1.3,21.5,4.5,31.4c3.1,9.3,8.2,18.9,15,26
		C231,321.4,247.8,336,264.5,351.8z"/>
	<path d="M255.2,277.7c11.7-14.1,23.1-27.7,34.5-41.3c1-1.2,2-2.6,3.2-3.6c3.6-3.1,7.5-3.3,11.1-0.3c3.6,3,4.2,6.9,1.8,11
		c-0.9,1.5-2.1,2.8-3.3,4.2c-12.7,15.3-25.4,30.6-38.2,45.8c-5.7,6.8-10.1,7-16.4,0.7c-7.4-7.4-14.9-14.8-22.2-22.2
		c-4.5-4.6-5-9.3-1.4-13.1c3.8-4,8.7-3.6,13.5,1.1C243.6,265.7,249.2,271.6,255.2,277.7z"/>
	<path d="M452.2,76.9c4.6,0,8.5,3.9,8.4,8.5c0,4.6-3.9,8.5-8.5,8.4c-4.6,0-8.5-3.9-8.4-8.5C443.7,80.7,447.6,76.9,452.2,76.9z"/>
</g>
</svg>
