<?xml version="1.0" encoding="utf-8"?>
<!-- Generator: Adobe Illustrator 23.0.2, SVG Export Plug-In . SVG Version: 6.00 Build 0)  -->
<svg version="1.1" id="Layer_1" xmlns="http://www.w3.org/2000/svg" xmlns:xlink="http://www.w3.org/1999/xlink" x="0px" y="0px"
	 viewBox="0 0 512 512" style="enable-background:new 0 0 512 512;" xml:space="preserve">
<g>
	<path d="M0,261c0-3.3,0-6.7,0-10c0.3-0.4,0.7-0.8,0.8-1.2c3.3-11.2,10.7-18,22.4-19.1c11.5-1.1,19.7,4.3,25.5,14.1
		c0.8,1.4,3.3,2.5,5.1,2.5c14.8,0.2,29.7,0.1,44.5,0.1c1.3,0,2.5-0.3,3.8-0.5c0-11.3,0-22.2,0-33.7c-2.1,0-3.9,0-5.7,0
		c-14.7,0-29.3,0.1-44,0c-6.8,0-10.7-4.6-9.3-10.5c0.9-4.2,4.4-6.5,10-6.5c13.8-0.1,27.7,0,41.5,0c2.4,0,4.9,0,7.5,0
		c0-11.6,0-22.7,0-34.1c-2.2,0-4,0-5.8,0c-17.5,0-35,0.1-52.5,0c-10.9,0-17.7-6.8-18-17.7c-0.1-4.5-0.2-9,0-13.5
		c0.2-3.1-1-4.6-3.7-6.1c-10.9-6-15.8-17.9-12.5-29.3c3.2-11,13-18.5,24.5-18.5c11.4,0,21.5,7.5,24.7,18.3
		c3.2,11.2-1.4,22.7-11.4,29c-1.7,1.1-4.2,2.5-4.3,4c-0.5,5.4-0.2,10.9-0.2,16.5c20.1,0,39.6,0,59.6,0c-0.8-12.3,1.1-23.6,10.2-32.5
		c9-8.9,20.3-10.6,32.2-9.8c0-20.3,0-39.7,0-59.7c-3.4,0-6.5,0.3-9.6-0.1c-5.6-0.7-9.2,0.8-12.3,6.2c-5.5,9.3-17.3,12.9-27.6,9.9
		c-10.3-3-17.9-12.6-18.3-23.2C76.5,24,83,14,93.5,10.2c10.1-3.8,22.7-1.3,28.2,7.9c4.5,7.5,10,8.3,17.2,7.6c1.7-0.1,3.3,0,5,0
		c11.6,0.2,18.2,6.9,18.3,18.5c0,17.5,0,35,0,52.5c0,1.8,0,3.5,0,5.4c11.6,0,22.6,0,33.8,0c0.1-1.5,0.3-2.8,0.3-4.1c0-15,0-30,0-45
		c0-6.5,3.2-10.1,8.5-10.2c5.4,0,8.5,3.5,8.5,10c0.1,9.7,0,19.3,0,29c0,6.6,0,13.3,0,20.2c11.6,0,22.7,0,33.9,0
		c0.1-1.8,0.3-3.3,0.3-4.7c0-14.3-0.1-28.7,0.1-43c0-3.3-1-4.9-3.9-6.5c-9-5.1-13.7-13.1-13.1-23.5c0.7-11,6.6-18.6,16.9-22.7
		c1.2-0.5,2.4-1,3.6-1.5c3.3,0,6.7,0,10,0c0.4,0.3,0.8,0.7,1.2,0.8c11.3,3.3,18,10.7,19.1,22.4c1.2,11.5-4.3,19.7-14.2,25.4
		c-1.3,0.8-2.5,3-2.5,4.6c-0.2,15.2-0.1,30.3-0.1,45.5c0,1.1,0.3,2.2,0.5,3.3c11.2,0,22.2,0,33.6,0c0-2.1,0-3.9,0-5.7
		c0-14.5,0-29,0-43.5c0-6.5,3.1-10,8.5-10c5.3,0,8.5,3.7,8.5,10.2c0.1,13.2,0,26.3,0,39.5c0,3.1,0,6.2,0,9.4c11.6,0,22.7,0,34.1,0
		c0-2.2,0-4,0-5.8c0-17.5,0-35,0-52.5c0-10.9,6.8-17.7,17.8-17.9c4.5-0.1,9-0.2,13.5,0c3.1,0.2,4.6-0.9,6.1-3.7
		c5.8-10.8,17.8-15.8,29.3-12.5c11.2,3.2,18.6,13.2,18.5,25c-0.1,11.3-8,21.4-18.8,24.3c-11.3,3-22.7-1.9-28.8-11.9
		c-1-1.6-2.7-3.8-4.2-4c-5.2-0.5-10.6-0.2-16.1-0.2c0,20.1,0,39.6,0,59.7c12.3-0.8,23.6,1.1,32.5,10.1c8.9,9,10.5,20.3,9.9,32.2
		c20.2,0,39.7,0,59.6,0c0-3.4-0.3-6.5,0.1-9.6c0.7-5.6-0.8-9.2-6.2-12.3c-9.3-5.5-12.9-17.2-9.9-27.6c3-10.3,12.6-17.9,23.2-18.3
		C488,76.5,498,83,501.8,93.5c3.8,10.2,1.3,22.6-7.9,28.2c-7.5,4.5-8.2,10-7.6,17.2c0.1,1.7,0,3.3,0,5c-0.2,11.6-6.9,18.2-18.5,18.3
		c-17.5,0-35,0-52.5,0c-1.8,0-3.5,0-5.4,0c0,11.6,0,22.6,0,34.1c2,0,3.8,0,5.6,0c14.5,0,29,0,43.5,0c6.5,0,10.1,3.2,10.1,8.5
		c0,5.4-3.5,8.5-10,8.5c-13.7,0.1-27.3,0-41,0c-2.6,0-5.2,0-8.1,0c0,11.6,0,22.7,0,33.9c1.8,0.1,3.3,0.2,4.8,0.2
		c14.3,0,28.7-0.1,43,0.1c3.2,0,4.9-1,6.5-3.9c5.1-9,13.1-13.7,23.5-13.1c10.8,0.7,18.3,6.3,22.5,16.4c0.6,1.4,1.2,2.7,1.7,4
		c0,3.3,0,6.7,0,10c-0.3,0.4-0.7,0.8-0.8,1.2c-3.4,11.5-11,18.2-22.9,19.2c-11.3,0.9-19.4-4.4-24.9-14.2c-0.7-1.3-3-2.5-4.6-2.5
		c-15-0.2-30-0.1-45-0.1c-1.3,0-2.5,0.3-3.8,0.5c0,11.3,0,22.2,0,33.7c2.1,0,3.9,0,5.7,0c14.7,0,29.3-0.1,44,0
		c6.8,0,10.8,4.6,9.3,10.5c-1.3,5-5.2,6.6-9.9,6.6c-13.2,0-26.3,0-39.5,0c-3.1,0-6.2,0-9.4,0c0,11.6,0,22.7,0,34.1c2.2,0,4,0,5.8,0
		c17.5,0,35-0.1,52.5,0c10.9,0,17.7,6.8,17.9,17.8c0.1,4.5,0.2,9,0,13.5c-0.2,3.1,0.9,4.6,3.7,6.1c10.9,5.8,15.8,17.8,12.5,29.3
		c-3.3,11.2-13.3,18.6-25,18.5c-11.3-0.1-21.4-8-24.3-18.8c-3-11.3,1.9-22.8,11.9-28.8c1.6-0.9,3.8-2.3,3.9-3.7
		c0.5-5.4,0.2-10.9,0.2-16.5c-20.1,0-39.6,0-59.7,0c0.8,12.3-1.1,23.6-10.2,32.5c-9,8.9-20.3,10.5-32.2,9.9c0,20.2,0,39.7,0,59.6
		c3.9,0,7.5-0.3,11.1,0.1c4.7,0.4,7.6-0.8,10.2-5.4c5.4-9.6,17-13.6,27.7-10.8c10.3,2.7,18.2,12.4,18.8,22.8
		c0.6,11.5-5.7,21.6-16.1,25.7c-10.2,4-23.1,1.6-28.6-7.7c-4.5-7.6-10.1-8.2-17.2-7.6c-1.7,0.1-3.3,0-5,0
		c-11.6-0.2-18.2-6.9-18.3-18.5c0-17.5,0-35,0-52.5c0-1.8,0-3.5,0-5.4c-11.6,0-22.6,0-34.1,0c0,2,0,3.8,0,5.6c0,14.5,0,29,0,43.5
		c0,6.4-3.2,10.1-8.5,10.2c-5.4,0-8.5-3.5-8.5-10c-0.1-13.7,0-27.3,0-41c0-2.6,0-5.2,0-8.1c-11.6,0-22.7,0-34.2,0
		c0,17-0.1,33.6,0.1,50.3c0,1.2,1.9,2.8,3.3,3.6c10.6,6.1,15.6,17.4,12.8,28.9c-2.8,11.2-13.4,19.3-25,19.2
		c-11.4-0.1-21.8-8.2-24.6-19.2c-2.9-11.5,2.1-23,12.8-28.7c2.9-1.6,3.5-3.4,3.5-6.3c-0.1-14.3,0-28.7-0.1-43c0-1.6-0.2-3.2-0.3-4.9
		c-11.4,0-22.3,0-33.9,0c0,2.1,0,3.9,0,5.7c0,14.5,0,29,0,43.5c0,6.5-3.1,10.1-8.5,10.1c-5.3,0-8.5-3.7-8.6-10.1
		c-0.1-12.5,0-25,0-37.5c0-3.8,0-7.6,0-11.5c-11.6,0-22.6,0-34.1,0c0,2.2,0,4,0,5.8c0,17.5,0,35,0,52.5c0,10.9-6.8,17.7-17.7,18
		c-3.8,0.1-7.7,0.3-11.5,0c-4.2-0.3-6.7,0.9-9,4.9c-6.5,11.4-20.4,15.3-32.2,9.9c-11.9-5.5-17.9-19.1-13.5-31.4
		c3.7-10.4,11.4-16.4,22.4-17.2c10.6-0.8,18.5,4.1,24.1,13.1c0.9,1.5,2.5,3.5,3.9,3.6c5.3,0.4,10.6,0.2,16.1,0.2
		c0-20.1,0-39.6,0-59.7c-12.3,0.8-23.5-1.1-32.5-10.1c-8.9-9-10.5-20.3-9.9-32.2c-20.2,0-39.7,0-59.6,0c0,3.9,0.3,7.5-0.1,11.1
		c-0.5,4.7,0.7,7.6,5.3,10.2c9.6,5.4,13.6,17,10.8,27.7c-2.7,10.3-12.3,18.2-22.8,18.8c-11.5,0.6-21.6-5.7-25.7-16.1
		c-4-10.2-1.6-23.1,7.7-28.6c7.6-4.5,8.2-10.1,7.6-17.2c-0.1-1.7,0-3.3,0-5c0.2-11.6,6.8-18.2,18.4-18.3c17.5,0,35,0,52.5,0
		c1.8,0,3.5,0,5.3,0c0-11.7,0-22.8,0-34.1c-2.3,0-4.1,0-5.9,0c-14.3,0-28.7,0-43,0c-6.5,0-10.1-3.2-10.2-8.5
		c-0.1-5.4,3.5-8.5,10-8.5c12.7-0.1,25.3,0,38,0c3.6,0,7.3,0,11.2,0c0-11.6,0-22.6,0-34.2c-2.1,0-3.9,0-5.7,0
		c-13.5,0-27,0.2-40.5-0.1c-4.1-0.1-6.4,1-8.6,4.7c-5.1,8.8-13.2,13-23.4,12.2c-10.6-0.8-17.9-6.5-22-16.4
		C1.2,263.7,0.6,262.4,0,261z M256,392.6c38.2,0,76.3,0,114.5,0c16.2,0,22.1-5.8,22.1-21.9c0-57,0-114,0-171c0-20.3,0-40.7,0-61
		c0-5.7-1.3-10.9-5.7-14.9c-4.3-3.9-9.4-4.5-14.9-4.5c-77.2,0-154.3,0-231.5,0c-15,0-21.1,6.1-21.1,21.3c0,76.8,0,153.6,0,230.5
		c0,15.4,6.1,21.3,21.6,21.3C179.4,392.6,217.7,392.6,256,392.6z M256,17.1c-4.7,0-8.5,3.9-8.4,8.7c0.1,4.8,4,8.4,8.7,8.3
		c4.5-0.1,8.1-3.8,8.2-8.4C264.5,21,260.6,17.1,256,17.1z M102.4,25.8c-4.8,0-8.5,3.7-8.4,8.5c0.1,4.5,3.7,8.2,8.2,8.4
		c4.6,0.1,8.7-3.8,8.8-8.4C111,29.6,107.2,25.7,102.4,25.8z M409.4,42.7c4.6,0.1,8.6-3.8,8.7-8.4c0-4.6-3.4-8.2-8-8.5
		c-4.8-0.2-8.8,3.3-9,8C400.9,38.4,404.7,42.5,409.4,42.7z M33.9,94c-4.8,0.1-8.3,3.9-8.1,8.8c0.2,4.6,3.9,8.2,8.4,8.1
		c4.6,0,8.6-4,8.5-8.6C42.6,97.6,38.6,93.8,33.9,94z M477.9,94c-4.7,0-8.6,3.9-8.5,8.5c0.1,4.6,4.1,8.5,8.8,8.4
		c4.5-0.1,8.1-3.8,8.2-8.4C486.3,97.7,482.7,94,477.9,94z M25.7,264.4c4.8-0.1,8.4-3.9,8.3-8.7c-0.1-4.6-3.8-8.1-8.3-8.2
		c-4.7-0.1-8.6,3.8-8.6,8.5C17.1,260.7,21,264.5,25.7,264.4z M486.5,247.5c-4.7,0-8.5,3.7-8.5,8.5c0,4.6,3.6,8.2,8.1,8.4
		c4.7,0.2,8.7-3.5,8.8-8.2C495,251.5,491.2,247.6,486.5,247.5z M42.7,409.6c0-4.6-4-8.6-8.6-8.5c-4.5,0-8.2,3.6-8.3,8.2
		c-0.1,4.9,3.4,8.6,8.2,8.7C38.7,418.1,42.6,414.3,42.7,409.6z M477.7,401.1c-4.6,0.1-8.5,4.2-8.3,8.8c0.2,4.7,4.2,8.4,8.9,8.2
		c4.6-0.2,8-3.8,8-8.5C486.2,404.8,482.4,401,477.7,401.1z M102.2,486.2c4.8,0.1,8.7-3.6,8.7-8.3c0.1-4.6-3.9-8.6-8.5-8.6
		c-4.5,0-8.2,3.7-8.4,8.2C93.8,482.3,97.3,486.1,102.2,486.2z M418,477.7c-0.1-4.7-4.1-8.5-8.7-8.4c-4.5,0.2-8.2,4-8.2,8.4
		c-0.1,4.7,3.8,8.5,8.5,8.5C414.4,486.2,418.1,482.5,418,477.7z M264.4,486.5c0.1-4.7-3.7-8.6-8.5-8.5c-4.6,0-8.2,3.5-8.4,8.1
		c-0.2,4.7,3.5,8.7,8.2,8.9C260.4,495.1,264.4,491.2,264.4,486.5z"/>
	<path d="M220.6,281.7c-9.9,0-19.7-0.1-29.5,0.2c-1.1,0-2.6,2.2-3,3.6c-2.8,12-5.4,24-8.1,36c-0.3,1.3-0.6,2.6-0.9,3.9
		c-1.5,5.4-5.6,8.3-10.2,7.2c-5-1.2-7.6-5.5-6.3-11.2c6.3-28.4,12.6-56.8,18.9-85.2c3.4-15.1,6.6-30.2,10.1-45.3
		c2.2-9.4,9.7-13.9,17.8-10.9c5,1.9,7.5,5.7,8.6,10.8c8.6,39,17.3,77.9,26,116.8c1,4.4,2.1,8.7,2.9,13.1c1.2,6.3-1.1,10.5-6.3,11.7
		c-4.9,1.1-9.1-2-10.5-8.2c-3-13.3-5.9-26.6-8.9-39.9C221.1,283.7,220.9,282.9,220.6,281.7z M192.8,264.1c8.3,0,15.9,0,24,0
		c-3.9-17.5-7.7-34.6-11.5-51.6c-0.3,0-0.7,0.1-1,0.1C200.5,229.8,196.7,246.9,192.8,264.1z"/>
	<path d="M307.5,315.8c5.4,0,10.5-0.1,15.6,0c5.9,0.1,9.7,3.4,9.8,8.4c0,4.9-3.8,8.6-9.7,8.6c-16.3,0.1-32.6,0.1-49,0
		c-6,0-9.5-3.5-9.5-8.6c0-5.1,3.6-8.3,9.7-8.4c4.8-0.1,9.7-0.1,14.5-0.2c0.1,0,0.3-0.1,0.8-0.4c0-39.3,0-78.9,0-119.1
		c-5,0-10.1,0.1-15.2,0c-6.1-0.1-9.7-3.1-9.8-8.3c-0.1-5.3,3.6-8.7,9.9-8.8c16-0.1,32-0.1,48,0c6.2,0,10.2,3.4,10.3,8.5
		c0.1,5.1-3.9,8.4-10.2,8.5c-4.7,0.1-9.3,0.1-14,0.1c-0.3,0-0.6,0.2-1.2,0.5C307.5,236.2,307.5,275.7,307.5,315.8z"/>
</g>
</svg>
