<svg version="1.1" id="Layer_3" xmlns="http://www.w3.org/2000/svg" xmlns:xlink="http://www.w3.org/1999/xlink" x="0px" y="0px"
	viewBox="0 0 512 512" style="enable-background:new 0 0 512 512;" xml:space="preserve">
	<g>
		<path d="M512,241c-2.1,5-6.1,6.5-11.2,6.5c-26.7-0.1-53.3,0-80-0.1c-8.3,0-11.1-2.8-11.1-11.1c-0.1-21-0.1-42,0-63
			c0-8.4,3-11.2,11.6-11.2c10.1,0,20.2,0,30.6,0c0-11.4,0-22.4,0-33.7c-39.5,0-79,0-118.8,0c0,11.1,0,22,0,33.4
			c1.4,0.1,2.9,0.3,4.3,0.3c9.2,0,18.3-0.1,27.5,0c7.1,0.1,10.4,3,10.5,9.9c0.1,22,0.1,44,0,66c0,6.2-3.1,9.4-9.2,9.4
			c-27.8,0.1-55.7,0.1-83.5,0c-6.4,0-9.5-3.3-9.6-9.7c-0.1-21.8-0.1-43.7,0-65.5c0-6.8,3.4-10,10.3-10.1c9-0.1,18,0,27,0
			c1.6,0,3.2,0,5.2,0c0-11.4,0-22.4,0-33.7c-39.6,0-79.1,0-119,0c0,11.1,0,22.1,0,33.7c10.2,0,20.2,0,30.1,0
			c9.5,0,12.3,2.8,12.3,12.1c0,20.5,0,41,0,61.5c0,8.9-2.8,11.7-11.6,11.7c-26.5,0-53,0-79.5,0c-8.6,0-11.3-2.8-11.3-11.5
			c-0.1-20.8-0.1-41.7,0-62.5c0-8.5,3-11.3,11.5-11.4c10.1,0,20.3,0,30.7,0c0-11.4,0-22.5,0-33.8c-39.6,0-79,0-118.7,0
			c0,11.2,0,22.3,0,33.8c10.4,0,20.5,0,30.6,0c8.8,0,11.6,2.9,11.6,11.7c0,20.7,0,41.3,0,62c0,9-2.7,11.6-11.6,11.6
			c-10.1,0-20.3,0-30.6,0c0,8.7,0,16.8,0,25.6c2,0,3.9,0,5.9,0c61.8,0,123.6,0,185.5,0c10.8,0,13.2,2.4,13.2,13.2
			c0,6.7,0,13.3,0,20.6c1.8,0.1,3.4,0.2,5,0.2c8.8,0,17.7,0,26.5,0c8,0.1,11,3,11.1,10.8c0,21.3,0,42.7,0,64
			c0,7.6-2.9,10.5-10.6,10.6c-5.2,0.1-10.3,0-15.5,0c-5.2,0-10.3,0-15.9,0c0,11.3,0,22.4,0,34.2c6.3,0,12.5,0,18.8,0
			c4.7,0,9.3-0.1,14,0.1c6.1,0.2,9.2,3.2,9.3,9.4c0.1,8,0,16,0,24.3c34.1,0,67.8,0,102.1,0c0.1-1.2,0.4-2.6,0.4-4
			c0-5.8,0-11.7,0-17.5c0-9.7,2.4-12.2,12-12.2c8.5,0,17,0,25.5,0c17.8,0,35.7,0.1,53.5-0.1c5.2,0,9.1,1.4,11.3,6.3
			c0,26.3,0,52.7,0,79c-32,0-64,0-96,0c-4.9-2.2-6.5-6.1-6.4-11.3c0.2-7.4,0-14.9,0-22.4c-34.5,0-68.3,0-102.5,0
			c0,7.7-0.2,15,0.1,22.3c0.2,5.2-1.6,9-6.2,11.4c-30,0-60,0-90,0c-4.6-2.4-6.2-6.2-6.2-11.5c0.2-21,0.1-42,0.1-63
			c0-7.9,2.9-10.8,10.9-10.8c9.2-0.1,18.3,0.1,27.5-0.1c1.4,0,3.9-1.4,3.9-2.2c0.3-10.4,0.2-20.9,0.2-31.9c-10.9,0-21.2,0.1-31.4,0
			c-8.3-0.1-11-2.9-11-11.2c0-20.5,0-41,0-61.5c0-10.2,2.5-12.7,12.7-12.7c9.8,0,19.6,0,29.5,0c0-5.9,0-11.3,0-16.8
			c-62.5,0-124.6,0-186.9,0c0,5.6,0,11,0,16.8c10.3,0,20.3,0,30.2,0c9.1,0,11.9,2.8,12,11.9c0,19.2,0,38.3,0,57.5
			c0,15.1-0.9,16-16.3,16c-8.6,0-17.2,0-25.8,0c0,11.7,0,22.8,0,34.2c10.6,0,20.7,0,30.8,0c8.4,0,11.2,2.7,11.2,11
			c0.1,21-0.1,42,0.1,63c0,5.2-1.5,9.1-6.4,11.3c-30,0-60,0-90,0c-3.5-2.3-6-5-6-9.6c0.1-22,0-44,0.1-66c0-6.4,3.2-9.5,9.6-9.6
			c9.2-0.2,18.3,0,27.5-0.1c1.8,0,3.5-0.2,5.3-0.3c0-11.5,0-22.4,0-33.9c-2.1,0-3.9,0-5.7,0c-8.8,0-17.7,0.1-26.5-0.1
			c-7-0.1-10.1-3.3-10.1-10.2c-0.1-21.7-0.1-43.3,0-65c0-6.8,3.3-10.1,10.2-10.2c9-0.1,18,0,27-0.1c1.7,0,3.5-0.2,5.2-0.3
			c0-20,0-39.4,0-59.4c-2.1,0-3.9,0-5.7,0c-9,0-18,0.1-27-0.1c-6.5-0.1-9.6-3.3-9.7-9.6c-0.1-22-0.1-44,0-66c0-6.4,3.4-9.6,10.1-9.7
			c9.2-0.1,18.3,0,27.5,0c1.6,0,3.2-0.2,4.6-0.3c0.2-0.8,0.4-1.2,0.4-1.5c0-12.7,0-25.3,0.1-38c0-8.6,2.8-11.3,11.4-11.3
			c19.8,0,39.7,0,59.5,0c1.8,0,3.6,0,5.4,0c0-11.7,0-22.7,0-34.1c-16.1,0-31.7,0-47.3,0c-9.1,0-11.8-2.8-11.9-12
			c0-17.8,0.1-35.7-0.1-53.5C59.7,6.2,61.3,2.4,66,0c41.3,0,82.7,0,124,0c4.7,2.3,6.3,6.2,6.3,11.4c-0.2,18-0.1,36-0.1,54
			c0,8.5-2.9,11.5-11.4,11.5c-14.2,0-28.3,0-42.5,0c-1.8,0-3.6,0-5.3,0c0,11.7,0,22.7,0,34.1c2.6,0,4.7,0,6.9,0
			c103.7,0,207.3,0,311,0c1.5,0,3,0,4.5,0c6.7,0.2,9.8,3.1,9.9,9.8c0.1,10.7,0,21.3,0,32c0,2.9,0,5.9,0,9.3c10.6,0,20.6,0.2,30.5-0.1
			c5.3-0.1,9.4,1.4,12.2,6C512,192.3,512,216.7,512,241z M77.3,17.2c0,14.4,0,28.3,0,42.2c34.1,0,67.8,0,101.4,0
			c0-14.3,0-28.2,0-42.2C144.8,17.2,111.2,17.2,77.3,17.2z M17.3,179.4c0,17,0,33.7,0,50.7c22.6,0,45,0,67.6,0c0-17,0-33.7,0-50.7
			C62.4,179.4,40.2,179.4,17.3,179.4z M154,230c22.6,0,45,0,67.5,0c0-17.1,0-33.9,0-50.7c-22.7,0-44.9,0-67.5,0
			C154,196.4,154,213,154,230z M290.5,179.3c0,17.3,0,34,0,50.6c22.8,0,45.1,0,67.4,0c0-17.1,0-33.8,0-50.6
			C335.2,179.3,313,179.3,290.5,179.3z M427.1,179.4c0,17,0,33.7,0,50.6c22.7,0,45,0,67.6,0c0-17,0-33.7,0-50.6
			C472,179.4,449.7,179.4,427.1,179.4z M17.3,375.1c22.8,0,45.1,0,67.6,0c0-17,0-33.7,0-50.6c-22.7,0-45.1,0-67.6,0
			C17.3,341.4,17.3,358,17.3,375.1z M289.9,324.6c-22.9,0-45.2,0-67.6,0c0,17.1,0,33.8,0,50.5c22.7,0,45,0,67.6,0
			C289.9,358.1,289.9,341.5,289.9,324.6z M85,444.2c-23,0-45.3,0-67.6,0c0,17.1,0,33.8,0,50.4c22.8,0,45.2,0,67.6,0
			C85,477.6,85,461,85,444.2z M222.3,444c0,17.3,0,34,0,50.6c22.7,0,45.1,0,67.4,0c0-17.1,0-33.8,0-50.6
			C267.1,444,244.9,444,222.3,444z M494.8,444.1c-22.8,0-45.2,0-67.7,0c0,17,0,33.7,0,50.5c22.7,0,45.1,0,67.7,0
			C494.8,477.8,494.8,461.2,494.8,444.1z"/>
	</g>
</svg>
