<?xml version="1.0" encoding="utf-8"?>
<!-- Generator: Adobe Illustrator 23.0.2, SVG Export Plug-In . SVG Version: 6.00 Build 0)  -->
<svg version="1.1" id="Layer_1" xmlns="http://www.w3.org/2000/svg" xmlns:xlink="http://www.w3.org/1999/xlink" x="0px" y="0px"
	 viewBox="0 0 512 512" style="enable-background:new 0 0 512 512;" xml:space="preserve">
<g>
	<path d="M412.4,511c-137.1,0-274.2,0-411.3,0C1,341,1,171,1,1.1c111.9,0,223.7,0,335.6-0.1c3.6,0,6.1,1,8.7,3.6
		c21.1,21.3,42.4,42.6,63.7,63.7c2.5,2.4,3.3,4.9,3.3,8.3c-0.1,55.1-0.1,110.2-0.1,165.3c0,1.9,0,3.8,0,6c2.6,0,4.5,0,6.3,0
		c21.6,0,43.2,0,64.7,0c18,0,27.7,9.7,27.7,27.7c0,52.8,0,105.6,0,158.3c0,17.9-9.7,27.7-27.7,27.7c-21.6,0-43.2,0-64.7,0
		c-1.9,0-3.9,0-6.2,0C412.4,478.5,412.4,494.8,412.4,511z M17.8,494.2c126.1,0,251.8,0,377.7,0c0-10.9,0-21.4,0-32.5
		c-2.4,0-4.5,0-6.6,0c-54.3,0-108.5,0-162.8,0c-17.9,0-27.7-9.9-27.7-27.8c0-52.6,0.3-105.2-0.2-157.8
		c-0.1-15.9,10.4-28.5,28.5-28.3c54.3,0.6,108.5,0.2,162.8,0.2c1.9,0,3.9,0,5.9,0c0-55.2,0-109.6,0-164.1c-5.5,0-10.5,0-16,0
		c0,21.9,0,43.4,0,65c-60.6,0-120.6,0-180.7,0c0-38.4,0-76.4,0-114.9c43.8,0,87.4,0,131,0c0-5.6,0-10.7,0-16
		c-104.1,0-207.8,0-311.9,0C17.8,176.7,17.8,335.1,17.8,494.2z M354.5,445.2c43,0,86,0,129,0c8.4,0,11.1-2.6,11.1-11
		c0-52.9,0-105.9,0-158.8c0-8.6-2.6-11.2-11.4-11.2c-85.6,0-171.3,0-256.9,0c-8.7,0-11.2,2.6-11.2,11.3c0,52.8,0,105.6,0,158.3
		c0,9,2.4,11.4,11.5,11.4C269.2,445.2,311.8,445.2,354.5,445.2z M362.6,83.2c-11.1,0-21.7,0-32.9,0c0-11.2,0-21.8,0-32.4
		c-38.6,0-76.5,0-114.4,0c0,27.4,0,54.5,0,81.5c49.3,0,98.1,0,147.2,0C362.6,116.1,362.6,100.1,362.6,83.2z M346.7,66.6
		c12.4,0,24.3,0,35.3,0c-11.6-11.7-23.5-23.6-35.3-35.5C346.7,42.5,346.7,54.4,346.7,66.6z"/>
	<path d="M214.6,231.1c-60.3,0-120.2,0-180.8,0c0.7-12.3-1.7-24.6,2.1-36.5c4.4-13.7,13.8-22.8,27.5-27.1c8.1-2.5,16.2-4.6,24.3-7.1
		c1.4-0.4,3.3-1.5,3.5-2.6c0.3-1.2-0.8-3.2-1.9-4c-16.2-13-23.2-30-22.8-50.6c0.2-12,0-23.9,5.1-35.1c11.3-24.6,37.3-38.1,63.9-33
		c25.9,5,45.2,27.8,46.2,55.1c0.3,9.3,0.3,18.7-1,27.8c-2,14.3-9.6,25.9-20.8,35.2c-1.3,1.1-2.5,3.1-2.6,4.7c0,0.8,2.4,2.2,3.9,2.6
		c7.6,2.4,15.3,4.4,22.9,6.7c17.6,5.4,28,17.4,30,35.7C215.4,212,214.6,221.3,214.6,231.1z M82.9,99.4c0.2,0,0.4,0,0.6,0
		c0,3.6-0.2,7.3,0,10.9c1.1,21,17.4,37.1,39,38.7c19.4,1.4,38.3-12.7,41.8-32.4c1.5-8.4,1.2-17.2,1.1-25.8
		c-0.2-20.4-15.8-37.8-35.3-40c-21.8-2.4-40.7,10.4-45.5,31.3C83.3,87.7,83.4,93.6,82.9,99.4z M124.7,201.6c-0.7-0.4-0.9-0.4-1-0.6
		c-7.9-7.8-15.7-15.8-23.7-23.4c-1.4-1.3-4.1-2.1-5.9-1.7c-8.7,2.1-17.3,4.6-25.8,7.3c-13.6,4.2-20.7,17.3-17.1,31.4
		c48.9,0,97.9,0,146.8,0c1.8-18.6-4.2-27.6-21.8-32.7c-6.8-2-13.7-3.8-20.5-6c-3.1-1-5.1-0.5-7.4,1.9
		C140.6,185.8,132.7,193.6,124.7,201.6z M124.4,177.1c3.9-4,8.4-8.5,12.1-12.3c-7.7,0-16.4,0-24.9,0
		C115.8,168.9,120.3,173.2,124.4,177.1z"/>
	<path d="M34.1,477.8c0-38.4,0-76.3,0-115c2.1,0,4,0,6,0c32.8,0,65.7-0.1,98.5,0.1c3.5,0,5.8-1,8-3.7c9.5-11.5,19.2-22.8,29.1-34.5
		c4.2,3.6,8.2,6.9,12.5,10.6c-6.8,8-13.5,15.8-19.9,23.8c-1.6,2-2.7,4.9-2.8,7.4c-0.2,35-0.1,70-0.1,105c0,2,0,3.9,0,6.2
		C121.6,477.8,78.1,477.8,34.1,477.8z M93,448c-10.5-10.5-20.6-20.6-30.4-30.4c3.1-3.2,6.6-6.8,10.7-11c5.8,6,11.6,12.1,17.7,18.3
		c12.9-15.2,25.3-29.9,38.1-45.1c-26.8,0-52.6,0-78.3,0c0,27.3,0,54.3,0,81.4c32.9,0,65.4,0,98,0c0-26.3,0-52.1,0-79.1
		C129.5,404.9,111,426.7,93,448z"/>
	<path d="M231.5,198c0-5.2,0-10.2,0-15.6c49.2,0,98.2,0,147.5,0c0,5.1,0,10.1,0,15.6C330,198,280.9,198,231.5,198z"/>
	<path d="M231.5,230.9c0-5.2,0-10.1,0-15.5c49.2,0,98.2,0,147.6,0c0,5.1,0,10.1,0,15.5C330,230.9,281,230.9,231.5,230.9z"/>
	<path d="M181.8,248.3c0,5.2,0,10.1,0,15.5c-49.2,0-98.2,0-147.6,0c0-4.9,0-10,0-15.5C83.2,248.3,132.2,248.3,181.8,248.3z"/>
	<path d="M181.8,281.2c0,5.3,0,10.2,0,15.5c-49.2,0-98.2,0-147.6,0c0-5,0-10,0-15.5C83.2,281.2,132.3,281.2,181.8,281.2z"/>
	<path d="M34.1,329.6c0-5.4,0-10.3,0-15.6c32.7,0,65.3,0,98.2,0c0,5.1,0,10.1,0,15.6C99.7,329.6,67.1,329.6,34.1,329.6z"/>
	<path d="M305,362.8c-18.4,0-36.8,0-55.3,0c-12,0-18.4-6.5-18.5-18.5c0-15.1-0.1-30.2,0-45.3c0-11.7,6.5-18.2,18.2-18.2
		c37.3,0,74.7,0,112,0c11.3,0,17.9,6.6,17.9,17.9c0.1,15.4,0.1,30.9,0,46.3c-0.1,11.1-6.6,17.7-17.6,17.7
		C342.8,362.9,323.9,362.8,305,362.8z M362.5,346.3c0-16.4,0-32.6,0-48.9c-38.3,0-76.3,0-114.3,0c0,16.5,0,32.7,0,48.9
		C286.5,346.3,324.4,346.3,362.5,346.3z"/>
	<path d="M444.9,429.5c-5.5-1.7-10.9-4.5-16.5-4.6c-5.4-0.2-10.8,3.3-16.2,3.6c-13.2,0.6-25.6-7.7-30.4-20.1
		c-5.1-13.1-2.7-25.2,6.9-35.4c9.1-9.7,23.4-12.6,35.7-7.3c3,1.3,5.3,1.3,8.3,0.1c12.3-5.3,26.6-2.4,35.7,7.3
		c9.6,10.2,12.1,22.2,7,35.4C470.6,420.7,458.5,428.7,444.9,429.5z M461.5,396c0.1-9.2-7.2-16.6-16.3-16.5c-9,0-16.6,7.6-16.5,16.5
		c0.1,8.7,7.5,16.2,16.2,16.4C453.9,412.5,461.4,405.1,461.5,396z M416.2,380.3c-7.8-1.7-14.1,0.8-17.9,7c-3.7,5.9-3.2,13.6,1.3,19
		c4.2,5.1,10.6,7.1,16.6,4.9C410.9,400.9,411.2,390.5,416.2,380.3z"/>
	<path d="M362.5,428.4c-43.7,0-87.1,0-130.8,0c0-5.2,0-10.2,0-15.7c43.5,0,87,0,130.8,0C362.5,417.7,362.5,422.8,362.5,428.4z"/>
	<path d="M396,296.7c0-5.3,0-10.2,0-15.5c27.3,0,54.3,0,81.8,0c0,5,0,10,0,15.5C450.7,296.7,423.6,296.7,396,296.7z"/>
	<path d="M396.1,314c27.3,0,54.4,0,81.8,0c0,5.3,0,10.3,0,15.7c-27.3,0-54.4,0-81.8,0C396.1,324.4,396.1,319.3,396.1,314z"/>
	<path d="M231.9,379.7c10.5,0,21,0,31.9,0c0,5.2,0,10.4,0,15.8c-10.6,0-20.9,0-31.9,0C231.9,390.5,231.9,385.4,231.9,379.7z"/>
	<path d="M281,379.7c11,0,21.5,0,32.3,0c0,5.3,0,10.3,0,15.7c-10.8,0-21.4,0-32.3,0C281,390.2,281,385.2,281,379.7z"/>
	<path d="M362.6,379.7c0,5.5,0,10.4,0,15.7c-10.9,0-21.5,0-32.4,0c0-5.4,0-10.4,0-15.7C341.1,379.7,351.6,379.7,362.6,379.7z"/>
</g>
</svg>
