<?xml version="1.0" encoding="utf-8"?>
<!-- Generator: Adobe Illustrator 23.0.2, SVG Export Plug-In . SVG Version: 6.00 Build 0)  -->
<svg version="1.1" id="Layer_1" xmlns="http://www.w3.org/2000/svg" xmlns:xlink="http://www.w3.org/1999/xlink" x="0px" y="0px"
	 viewBox="0 0 512 512" style="enable-background:new 0 0 512 512;" xml:space="preserve">
<g>
	<path d="M87,512c-12-4.1-16.3-12.5-16.1-24.9c0.4-41.7,0.1-83.3,0.1-125c0-1.8,0-3.6,0-6.1c-6.6,0-12.8,0-19.1,0
		c-13.6,0-21.8-8.2-21.9-21.7c0-12.2,0-24.3,0-36.5c0-7.2,4-11.8,10-11.8c6,0,9.9,4.6,9.9,11.9c0,12.5,0,24.9,0,37.7
		c7,0,13.7,0,20.7,0c0-53,0-106,0-159.3c-6.7,0-13.4,0-20.7,0c0,3.9,0,7.8,0,11.7c0,9.3,0.1,18.7-0.1,28c-0.1,5.7-4.6,9.8-9.9,9.8
		c-5.4,0-9.8-4.1-9.9-9.8c-0.2-13.8-0.3-27.7,0.1-41.5c0.3-10.3,8.9-18.3,19.3-18.6c7-0.2,13.9,0,21.6,0c0-2.3,0-4.2,0-6.1
		c0-42.3,0-84.7,0-127c0-15,7.8-22.9,22.7-22.9c38,0,76,0,114,0c1.5,0,3-0.1,4.5,0.1c5.1,0.7,8.8,4.9,8.8,9.9c0,5-3.8,9.2-8.9,9.8
		c-1.6,0.2-3.3,0.1-5,0.1c-36.7,0-73.3,0-110,0c-1.8,0-3.6,0-5.8,0c0,45.3,0,90.4,0,136c1.9,0,3.6,0,5.4,0c18.8,0,37.7,0,56.5,0
		c8.1,0,12.8,3.8,12.7,10.1c-0.1,6.3-4.7,9.9-12.9,9.9c-18.7,0-37.3,0-56,0c-1.8,0-3.6,0-5.7,0c0,53.4,0,106.4,0,160
		c2.1,0,4.1,0,6,0c18.8,0,37.7,0,56.5,0c7.6,0,12.3,4,12.1,10.2c-0.1,6-4.7,9.8-12,9.8c-19,0-38,0-57,0c-1.8,0-3.6,0-5.7,0
		c0,45.3,0,90.3,0,135.6c109.6,0,219.3,0,329.3,0c0-44.9,0-90,0-135.6c-2.2,0-4.3,0-6.4,0c-19,0-38,0-57,0
		c-6.8,0-11.3-4.1-11.2-10.1c0-5.9,4.5-9.8,11.4-9.9c1.2,0,2.3,0,3.5,0c18,0,36,0,54,0c1.8,0,3.6,0,5.7,0c0-53.4,0-106.4,0-160
		c-1.9,0-3.7,0-5.4,0c-18.5,0-37,0-55.5,0c-9,0-13.8-3.6-13.7-10.1c0.1-6.5,4.7-9.9,13.4-9.9c18.5,0,37,0,55.5,0c1.8,0,3.6,0,5.7,0
		c0-45.4,0-90.5,0-136c-2,0-3.7,0-5.5,0c-36.8,0-73.7,0-110.5,0c-1.7,0-3.3,0.1-5-0.1c-5.4-0.6-9.1-4.9-8.9-10.2
		c0.1-5.1,3.8-9.2,9-9.6c3.5-0.3,7-0.1,10.5-0.1c36.2,0,72.3,0,108.5,0C433,0.1,441,8.1,441,22.4c0,42.3,0,84.7,0,127c0,2,0,4,0,6.6
		c6.5,0,12.8,0,19,0c13.8,0,21.9,8.2,22,22.1c0,12,0,24,0,36c0,7.3-3.9,11.8-10,11.8c-6.1,0-10-4.6-10-11.8c0-12.5,0-25,0-37.8
		c-7,0-13.7,0-20.7,0c0,53,0,105.9,0,159.2c6.6,0,13.3,0,20.7,0c0-1.8,0-3.7,0-5.7c0-11-0.1-22,0-33c0.1-6.5,4.2-10.9,9.9-10.9
		c5.7,0,10,4.3,10,10.7c0.1,13.2,0.2,26.3,0,39.5c-0.2,11.1-8.7,19.4-19.8,19.7c-6.8,0.1-13.6,0-21.1,0c0,2.2,0,4.1,0,6.1
		c0,41.7-0.2,83.3,0.1,125c0.1,12.4-4.2,20.9-16.1,24.9C312.3,512,199.7,512,87,512z"/>
	<path d="M256.1,57c40.3,0,80.6,0,120.9,0c1.7,0,3.3-0.1,5,0.1c5.1,0.6,8.9,4.7,9,9.7c0.1,5.2-3.8,9.5-9.1,10.1
		c-1.6,0.2-3.3,0.1-5,0.1c-80.6,0-161.2,0-241.8,0c-9.2,0-13.9-3.3-14-9.8c-0.1-6.7,4.7-10.2,14.1-10.2C175.5,57,215.8,57,256.1,57z
		"/>
	<path d="M256.5,435c40.1,0,80.3,0,120.4,0c1.7,0,3.3-0.1,5,0.1c5.1,0.6,8.9,4.7,9.1,9.7c0.1,5.2-3.7,9.6-9.1,10.2
		c-1.6,0.2-3.3,0.1-5,0.1c-80.6,0-161.2,0-241.8,0c-9.2,0-13.9-3.2-14-9.8c-0.2-6.7,4.7-10.2,14.1-10.2
		C175.6,435,216.1,435,256.5,435z"/>
	<path d="M122.9,256c0-24.9,20.2-45.1,45.1-45c24.6,0.1,44.8,20.4,44.8,45c0,24.8-20.5,45.1-45.3,45
		C142.9,300.9,122.9,280.7,122.9,256z M167.6,231c-13.8,0-24.9,11.3-24.8,25.2c0.1,13.7,11.1,24.7,24.7,24.8
		c13.7,0.1,25.2-11.3,25.2-25C192.8,242.3,181.4,231,167.6,231z"/>
	<path d="M370.5,265.9c5.3,6.1,10.3,11.7,15.2,17.3c4.5,5.2,4.6,11.2,0.3,15.1c-4.5,4.2-10.4,3.5-15.3-1.9
		c-5.1-5.7-10.1-11.5-15.2-17.2c-1-1.2-2.1-2.4-4.2-3c0,4.6,0.1,9.2,0,13.8c-0.2,6.7-3.9,10.9-9.7,11.1c-5.9,0.1-10.2-4.3-10.2-11.1
		c-0.1-22.6-0.1-45.3,0-67.9c0-7.3,4-10.9,11.3-11c5.5-0.1,11,0,16.5,0c14.5,0.1,25.9,8.6,29.2,21.8c3.2,12.6-2.9,24.8-15.8,31.8
		C372.1,264.9,371.6,265.2,370.5,265.9z M351.9,231.1c0,5.7,0,10.7,0,16.1c5.9-0.3,12.1,1.9,15.8-4c1.2-1.9,1.3-5.8,0.2-7.8
		C364.3,229.2,357.8,231.3,351.9,231.1z"/>
	<path d="M233.7,253.3c0.4-14.7,8.1-28.3,23.5-36.7c15-8.2,30.4-7.6,45.1,1.2c6.8,4.1,7.8,12.1,2.3,16.7c-4.4,3.7-8.8,2.6-13.4,0
		c-11.1-6.2-23.2-4.2-31.3,5c-6.6,7.4-8.1,18.6-3.7,27.5c4.5,9.2,14.6,15.2,24.6,13.6c4.1-0.7,8.4-3.1,11.7-5.7
		c5.5-4.4,10.8-5.2,15.1-0.9c4.2,4.2,3.9,10-0.8,15.1c-15.3,16.5-43.6,15.6-60.4-1.8C238,278.7,233.7,268.3,233.7,253.3z"/>
	<path d="M255.9,99c23.8,0,47.6,0,71.4,0c1.7,0,3.3-0.1,5,0.1c5.1,0.7,8.7,5.1,8.6,10c-0.1,4.8-3.7,8.9-8.5,9.7
		c-1.3,0.2-2.7,0.2-4,0.2c-48.3,0-96.5,0-144.8,0c-0.7,0-1.3,0-2,0c-6.4-0.2-10.7-4.4-10.6-10.2c0.1-5.5,4.4-9.6,10.5-9.8
		c3.2-0.1,6.3,0,9.5,0C212.7,99,234.3,99,255.9,99z"/>
	<path d="M256,393c24.3,0,48.6-0.1,72.9,0.2c3.2,0,7.3,1.3,9.2,3.5c1.9,2.2,2.9,6.8,1.9,9.4c-1.1,2.8-4.8,4.8-7.7,6.8
		c-1,0.7-2.9,0.2-4.4,0.2c-47.9,0-95.9,0-143.8,0c-1,0-2,0-3,0c-6-0.4-10.2-4.7-10.1-10.2c0.1-5.4,4.3-9.5,10-9.7
		c6.3-0.2,12.6-0.1,19-0.1C218.7,393,237.4,393,256,393z"/>
	<path d="M266,10.2c-0.1,5.5-4.9,10-10.4,9.8c-5.3-0.2-9.6-4.8-9.6-10.1c0.1-5.5,4.9-10,10.4-9.8C261.7,0.3,266.1,4.9,266,10.2z"/>
</g>
</svg>
