<?xml version="1.0" encoding="utf-8"?>
<!-- Generator: Adobe Illustrator 23.0.2, SVG Export Plug-In . SVG Version: 6.00 Build 0)  -->
<svg version="1.1" id="Layer_1" xmlns="http://www.w3.org/2000/svg" xmlns:xlink="http://www.w3.org/1999/xlink" x="0px" y="0px"
	 viewBox="0 0 512 512" style="enable-background:new 0 0 512 512;" xml:space="preserve">
<path d="M256,230.4c-1.2,0-2.5-0.3-3.6-0.8l-145.1-68.3c-3-1.4-4.9-4.4-4.9-7.7c0-3.3,1.9-6.3,4.9-7.7l145.1-68.3
	c2.3-1.1,5-1.1,7.3,0l145.1,68.3c3,1.4,4.9,4.4,4.9,7.7c0,3.3-1.9,6.3-4.9,7.7l-145.1,68.3C258.5,230.1,257.2,230.4,256,230.4
	L256,230.4z M131,153.6l125,58.8l125-58.8L256,94.8L131,153.6z"/>
<path d="M256,298.7c-1.3,0-2.6-0.3-3.8-0.9l-102.4-51.2c-2.9-1.5-4.7-4.4-4.7-7.6v-65.3c0-2.9,1.5-5.6,4-7.2
	c2.5-1.6,5.6-1.7,8.2-0.5l98.8,46.5l98.8-46.5c2.6-1.2,5.7-1,8.2,0.5c2.5,1.6,4,4.3,4,7.2v65.3c0,3.2-1.8,6.2-4.7,7.6l-102.4,51.2
	C258.6,298.4,257.3,298.7,256,298.7L256,298.7z M162.1,233.7l93.9,46.9l93.9-46.9v-46.5l-90.2,42.5c-2.3,1.1-5,1.1-7.3,0l-90.2-42.5
	V233.7z"/>
<path d="M401.1,162.1H256c-4.7,0-8.5-3.8-8.5-8.5c0-4.7,3.8-8.5,8.5-8.5h145.1c4.7,0,8.5,3.8,8.5,8.5
	C409.6,158.3,405.8,162.1,401.1,162.1z"/>
<path d="M401.1,238.9c-4.7,0-8.5-3.8-8.5-8.5v-76.8c0-4.7,3.8-8.5,8.5-8.5s8.5,3.8,8.5,8.5v76.8
	C409.6,235.1,405.8,238.9,401.1,238.9z"/>
<path d="M256,179.2c-4.7,0-8.5-3.8-8.5-8.5v-34.1c0-4.7,3.8-8.5,8.5-8.5c4.7,0,8.5,3.8,8.5,8.5v34.1
	C264.5,175.4,260.7,179.2,256,179.2z"/>
<path d="M384,264.5c-1.6,0-3.3-0.5-4.7-1.4c-3.9-2.6-5-7.9-2.4-11.8l17.1-25.6c2.6-3.9,7.9-5,11.8-2.4c3.9,2.6,5,7.9,2.4,11.8
	l-17.1,25.6C389.5,263.2,386.7,264.5,384,264.5z"/>
<path d="M418.1,264.5c-2.8,0-5.5-1.3-7.1-3.8L394,235.1c-2.6-3.9-1.6-9.2,2.4-11.8c3.9-2.6,9.2-1.6,11.8,2.4l17.1,25.6
	c2.6,3.9,1.6,9.2-2.4,11.8C421.4,264.1,419.8,264.5,418.1,264.5z"/>
<path d="M256,256c-4.7,0-8.5-3.8-8.5-8.5v-25.6c0-4.7,3.8-8.5,8.5-8.5c4.7,0,8.5,3.8,8.5,8.5v25.6C264.5,252.2,260.7,256,256,256z"
	/>
<path d="M503.5,332.8H8.5c-4.7,0-8.5-3.8-8.5-8.5V42.7C0,23.9,15.3,8.5,34.1,8.5h443.7c18.8,0,34.1,15.3,34.1,34.1v281.6
	C512,329,508.2,332.8,503.5,332.8z M17.1,315.7h477.9V42.7c0-9.4-7.7-17.1-17.1-17.1H34.1c-9.4,0-17.1,7.7-17.1,17.1L17.1,315.7z"/>
<path d="M477.9,401.1H34.1C15.3,401.1,0,385.7,0,366.9v-42.7c0-4.7,3.8-8.5,8.5-8.5h494.9c4.7,0,8.5,3.8,8.5,8.5v42.7
	C512,385.7,496.7,401.1,477.9,401.1z M17.1,332.8v34.1c0,9.4,7.7,17.1,17.1,17.1h443.7c9.4,0,17.1-7.7,17.1-17.1v-34.1H17.1z"/>
<path d="M281.6,366.9h-51.2c-4.7,0-8.5-3.8-8.5-8.5c0-4.7,3.8-8.5,8.5-8.5h51.2c4.7,0,8.5,3.8,8.5,8.5
	C290.1,363.1,286.3,366.9,281.6,366.9z"/>
<path d="M469.3,332.8H42.7c-4.7,0-8.5-3.8-8.5-8.5V51.2c0-4.7,3.8-8.5,8.5-8.5h426.7c4.7,0,8.5,3.8,8.5,8.5v273.1
	C477.9,329,474,332.8,469.3,332.8z M51.2,315.7h409.6v-256H51.2V315.7z"/>
<path d="M366.9,503.5H145.1c-14.1,0-25.6-11.5-25.6-25.6c0-14.1,11.5-25.6,25.6-25.6h221.9c14.1,0,25.6,11.5,25.6,25.6
	C392.5,492,381,503.5,366.9,503.5z M145.1,469.3c-4.7,0-8.5,3.8-8.5,8.5c0,4.7,3.8,8.5,8.5,8.5h221.9c4.7,0,8.5-3.8,8.5-8.5
	c0-4.7-3.8-8.5-8.5-8.5H145.1z"/>
<path d="M349.9,469.3H162.1c-4.7,0-8.5-3.8-8.5-8.5s3.8-8.5,8.5-8.5c28.3,0,42.7-20.1,42.7-59.7c0-4.7,3.8-8.5,8.5-8.5h85.3
	c4.7,0,8.5,3.8,8.5,8.5c0,39.6,14.4,59.7,42.7,59.7c4.7,0,8.5,3.8,8.5,8.5S354.6,469.3,349.9,469.3z M203.7,452.3h104.6
	c-10.5-11.6-16.7-29-17.9-51.2h-68.7C220.4,423.3,214.2,440.6,203.7,452.3z"/>
</svg>
