<?xml version="1.0" encoding="utf-8"?>
<!-- Generator: Adobe Illustrator 23.0.2, SVG Export Plug-In . SVG Version: 6.00 Build 0)  -->
<svg version="1.1" id="Layer_1" xmlns="http://www.w3.org/2000/svg" xmlns:xlink="http://www.w3.org/1999/xlink" x="0px" y="0px"
	 viewBox="0 0 512 512" style="enable-background:new 0 0 512 512;" xml:space="preserve">
<g>
	<path d="M406.4,511c-8.1-6.2-8.7-10.2-2.7-18.7c23.5-33.1,46.9-66.4,70.7-99.4c11.4-15.8,16.9-33,16.8-52.5
		c-0.3-49.5-0.1-98.9-0.1-148.4c0-9.7-6.4-16.1-14.9-15.1c-7,0.9-11.8,6.1-11.9,13.7c-0.1,10.1,0,20.3,0,30.4
		c0,29.7-0.2,59.4,0.1,89.1c0.1,19.7-6.2,36.8-19.6,51.1c-15.4,16.5-30.9,32.9-46.4,49.3c-4.7,4.9-10.7,5.4-15,1.4
		c-4.3-4-4.2-10,0.5-15c15.2-16.3,30.5-32.4,45.7-48.7c6.2-6.7,7.1-14.9,2.5-21.8c-4.3-6.5-12.8-9.3-19.2-5.1
		c-19.8,13.2-41,24.7-57.8,42.1c-18.9,19.6-29.3,43.4-34.3,70c-4.3,22.6-9.1,45.2-14.2,67.6c-0.8,3.6-4.3,6.6-6.6,9.8c-2,0-4,0-6,0
		c-6.4-3.8-8.2-6.5-6.9-12.7c6-28.9,11.4-57.9,18.7-86.5c9-35.3,30-62.7,60.2-83.1c10.3-7,20.6-13.9,31-20.8
		c16.6-11.2,30.6-10.8,47.5,1.9c0-2.3,0-4,0-5.7c0-37.8-0.1-75.7,0-113.5c0.1-23.2,21.8-39.1,43.6-32.1c13.8,4.4,23,17,23,32.1
		c0.1,31,0,62.1,0,93.1c0,19.6-0.1,39.2,0,58.8c0.1,21.9-6.1,41.8-18.9,59.6c-24.3,34.2-48.6,68.5-73,102.6
		c-1.8,2.5-4.5,4.2-6.8,6.3C410.4,511,408.4,511,406.4,511z"/>
	<path d="M212.2,511c-4.2-2.8-6.2-6.7-7.2-11.7c-5-24.7-10.2-49.3-15.5-73.9c-7.2-33.7-25.3-60.2-53.6-79.7
		c-10.9-7.5-22-14.9-33-22.2c-8.1-5.4-16.1-4.8-21.5,1.5c-5.8,6.7-5.5,16.1,0.9,23c14.9,16,30,31.9,44.9,48c2,2.2,3.8,5.1,4.4,8
		c1,4.1-1.1,7.5-4.8,9.5c-3.7,2-7.4,1.8-10.8-0.7c-1.2-0.9-2.2-2-3.2-3.1c-14.6-15.5-29-31-43.7-46.4c-14.3-15-21.5-32.6-21.3-53.5
		c0.3-38.5,0.1-77,0.1-115.5c0-1.7,0.1-3.3-0.1-5c-0.7-7.3-6.6-12.6-13.7-12.4c-7.1,0.2-12.9,5.7-13,13.1
		c-0.2,12.3-0.1,24.6-0.1,36.8c0,38.5,0.1,77,0,115.5c-0.1,18,4.9,34.3,15.6,48.9c5.3,7.2,10.4,14.6,15.5,21.9
		c4.2,6,3.5,11.8-1.7,15.3c-4.8,3.3-10.6,1.9-14.5-3.8c-7.8-11.3-15.9-22.5-23.1-34.2c-6.1-10-9.3-21.2-10.7-32.8
		c-0.2-1.3-0.6-2.5-0.9-3.8c0-56.4,0-112.9,0-169.3c0.4-0.9,0.8-1.7,1.1-2.6c5-16.8,19.9-26.6,37.3-24.3
		c16.2,2.1,28.2,16.1,28.3,33.3c0.1,37.7,0,75.3,0,113c0,1.8,0,3.5,0,6.2c7.7-6.5,15.7-10.6,25-9.9c5.6,0.5,12,1.3,16.6,4.3
		c17.3,11.1,34.8,22.1,50.7,35c27.6,22.3,43.3,52.2,50.2,86.9c4.6,23.2,9.7,46.4,14.5,69.6c1.7,8.1,0.5,11.1-6.5,15.2
		C216.1,511,214.2,511,212.2,511z"/>
	<path d="M99.6,511c-2.8-2.7-5.8-5.2-8.2-8.3c-4.2-5.3-8-10.9-11.8-16.5c-3.6-5.2-2.6-11.2,2.1-14.4c4.5-3.1,10.2-2.1,13.9,2.9
		c4.4,5.8,8.5,11.8,12.7,17.7c5.9,8.3,5.3,12.5-2.7,18.6C103.6,511,101.6,511,99.6,511z"/>
	<path d="M362.4,266.2c0,12,0,23.8,0,35.5c0,10.4-3.3,13.8-13.6,13.8c-17.9,0-35.8,0-53.8,0c-2.1,0-4.3-0.1-6.4-0.7
		c-4.6-1.3-7.2-5.3-6.9-10.2c0.3-4.7,3.8-8.4,8.6-8.8c3.9-0.3,7.9-0.1,12.5-0.1c0-6.6,0-12.7,0-18.8c0-7.3,3.8-11.8,9.8-11.9
		c6.2-0.1,10.1,4.5,10.1,12.1c0,5.9,0,11.9,0,18.1c6.6,0,12.8,0,19.9,0c-0.7-13.1,1.9-26.3-2.4-39c-4.4-12.9-13.3-21.8-26.3-25.9
		c-9.8-3-19.9-5-30.3-7.5c-2.5,5.6-4.9,11-7.3,16.4c-3.6,8.2-7.2,16.4-10.8,24.6c-1.8,4-4.7,6.4-9.2,6.5c-4.7,0.1-7.8-2.3-9.6-6.5
		c-5.9-13.5-11.9-26.9-18.2-41.2c-11.9,3.3-24.1,5.5-35.3,10.1c-14.4,6-22.2,18.3-23.4,33.8c-0.7,9.4-0.1,18.9-0.1,28.8
		c6.5,0,12.8,0,19.6,0c0-6.3,0-12.4,0-18.5c0.1-7.2,4-11.7,10-11.7c6,0,9.8,4.6,9.9,11.9c0,6,0,11.9,0,18.8c3.5,0,6.7-0.1,9.9,0
		c6,0.2,9.9,3.9,10.2,9.4c0.2,5.7-3.6,10.3-9.7,10.3c-19.9,0.2-39.8,0.2-59.7,0c-6.5-0.1-10.1-4.3-10.2-11.1c-0.1-11,0-21.9,0-32.9
		c0-1.6,0-3.2,0-5.4c-2.2,0-4,0-5.7,0c-12.9,0-25.9,0.1-38.8,0c-6.2,0-10.6-3.1-10.7-8.8c-0.1-10.2-0.6-20.8,1.4-30.7
		c3.6-17.7,15.4-28.9,32.7-34.1c5.4-1.6,10.9-2.8,16.4-4c3.9-0.9,3.8-3,1.2-5.1c-13.5-10.8-18.3-25.1-17.4-41.9
		c0.3-7-0.4-14,0.4-20.9c4.1-34.9,42-51.5,70.8-31.3c0.7,0.5,1.3,0.9,2.3,1.5C213.1,68.2,230.7,55,256.1,55c25.2,0,42.8,13,54,35.7
		c1.3-0.8,2.4-1.6,3.6-2.4c14.6-9.4,29.9-10.8,45.3-2.9c15.6,7.9,23.8,21.3,24.4,38.8c0.3,10.3,0.3,20.6-0.7,30.8
		c-1,11-6.8,19.9-15.2,27.2c-1.3,1.1-2,2.8-3,4.1c1.6,0.9,3.1,2.1,4.8,2.6c4.3,1.2,8.7,2.1,13,3.2c21.3,5.7,35,22.8,35.7,44.8
		c0.2,6,0.2,12,0,17.9c-0.2,7.5-4,11.2-11.6,11.2c-12.9,0.1-25.9,0-38.8,0C366.1,266,364.5,266.1,362.4,266.2z M218,134.9
		c0,4-0.1,7.6,0,11.3c0.6,19.3,15.4,35.1,34.4,37c19.2,1.8,37.4-11.1,40.9-30.2c1.3-7.2,2.3-15.4,0.1-22.1
		c-1.3-4.1-8.8-6.2-13.6-9.2c-0.7-0.4-1.5-0.7-2.1-1.3c-2.6-2.1-4.6-2-7.3,0.3c-8.6,7.1-18.5,11.7-29.7,12.8
		C233.4,134.4,226,134.5,218,134.9z M333.5,192.5c0.1,5.6-1.3,10.4-6.8,12.3c-4.6,1.6-9.5,2.5-14.8,3.8c1,0.6,1.5,1,2.1,1.2
		c19.6,4.7,33.9,16,42.7,34.2c0.5,1,1.9,2,2.9,2c12.7,0.1,25.4,0.1,38.1,0.1c2.8-18.8-5.3-31.1-22.7-35.4
		c-5.8-1.4-11.5-3.2-17.4-4.2c-8.1-1.4-14-4.4-13-14C340.7,192.5,337.4,192.5,333.5,192.5z M167.8,192.5
		c-0.9,9.8-2.5,11.4-11.8,13.7c-7.2,1.7-14.5,3.3-21.7,5.2c-15,4-23.8,19.4-19.5,34.7c12.3,0,24.8,0.1,37.2-0.1c1.3,0,3-1.7,3.7-3
		c8.8-17,22.3-28.1,40.9-32.8c1.1-0.3,2.1-0.8,3.6-1.3c-8.9-3.9-22.4-0.8-21.6-16.3C174.7,192.5,171.4,192.5,167.8,192.5z
		 M293.6,106.6c-3.7-21-23.4-35-43.3-31.5c-19.9,3.5-34.7,21.7-31.8,39c17.6,1.9,33.6-0.8,46-15c3.8-4.3,7.9-4.6,13-1.8
		C282.8,100.3,287.9,103.3,293.6,106.6z M148.5,143.3c0,2.6-0.1,4.5,0,6.3c0.9,11.8,10.1,21.6,21.4,22.8
		c12.4,1.3,23.8-5.7,26.7-17.4c1.4-5.8,1.2-12,1.8-19C181.8,142.9,165.5,143.7,148.5,143.3z M314.8,137.2
		c-2.3,15.1,1.4,25.9,11.4,31.7c9,5.2,18.1,5.1,26.7-0.8c8.5-5.8,11.6-14.3,10.5-24.5c-8.5-0.4-16.6-0.3-24.6-1.4
		C330.8,141.3,323,139,314.8,137.2z M195.4,115.2c-4.3-10.8-15.8-16.7-27.3-14.4c-10.8,2.2-19.3,12.2-18.9,22.4
		C165.2,124,180.9,123.2,195.4,115.2z M316.7,115.2c14.6,7.9,30.4,8.9,46.6,7.9c-1.2-11.9-9.6-21-20.3-22.5
		C331.4,99,320.8,104.8,316.7,115.2z M268,202.7c-8.3,0-15.7,0-24,0c0.4,11.9,7.9,21.1,12.1,31.8C260,223.9,267.7,214.8,268,202.7z
		 M205.9,178.8c0.4-0.5,0.8-1,1.2-1.5c-2.5,2.2-5,4.2-7.4,6.5c-1.8,1.8-1.8,3.6,1,4.4c7.5,1.9,15,3.7,19.4,4.8
		C216.7,189.4,211.3,184.1,205.9,178.8z M290.2,195.2c-0.5-0.5-1-1-1.5-1.5c6-1.5,12.1-2.9,18.1-4.6c2.3-0.6,4.4-1.7,6.6-2.6
		c-1.4-1.8-2.8-3.8-4.3-5.5c-1.3-1.4-2.8-2.6-4.2-3.9c0.4,0.6,0.8,1.3,1.3,1.9C300.9,184.5,295.5,189.9,290.2,195.2z"/>
	<path d="M265.9,18.6c0,2.7,0.2,5.3,0,8c-0.5,5.4-4.8,9.2-10,9.2c-5.1-0.1-9.5-4-9.7-9.4c-0.3-5.3-0.3-10.6,0-15.9
		c0.3-5.4,4.5-9.3,9.7-9.4c5.1-0.1,9.5,3.8,10,9.2C266.1,13,265.9,15.8,265.9,18.6z"/>
	<path d="M191.2,28.9c1.7-2.2,3.3-5.3,5.8-7.3c3.1-2.4,7.2-2.2,10.2,0.4c4.7,4.1,9.2,8.5,13.3,13.3c3,3.6,2.1,8.9-1.2,12.2
		c-3.3,3.3-8.6,4.3-12.2,1.3c-4.9-4.1-9.3-8.9-13.6-13.6C192.3,33.9,192.2,31.8,191.2,28.9z"/>
	<path d="M289.7,40.7c0-6.3,14.1-20.3,20.4-20.2c7.5,0.1,12.7,8.6,8.3,14.5c-4,5.4-8.9,10.4-14.4,14.3
		C298,53.6,289.7,48.2,289.7,40.7z"/>
	<path d="M256,295.6c5.5,0,9.9,4.3,9.9,9.7c0,5.5-4.7,10.2-10.2,10c-5.3-0.2-9.7-4.8-9.6-10.1C246.1,299.9,250.5,295.6,256,295.6z"
		/>
	<path d="M66.8,441c5.6,0.1,10.1,4.7,9.8,10.3c-0.2,5.3-4.9,9.7-10.1,9.6c-5.6-0.2-10-4.8-9.8-10.4C56.9,445,61.3,440.9,66.8,441z"
		/>
</g>
</svg>
