<svg version="1.1" xmlns="http://www.w3.org/2000/svg" xmlns:xlink="http://www.w3.org/1999/xlink" x="0px" y="0px"
	 viewBox="0 0 512 512" style="enable-background:new 0 0 512 512;" xml:space="preserve">
	<g>
		<path d="M0.5,104c6.7-34.8,33-51.6,61.6-65.8c31.9-15.9,66.1-24.3,101.1-29.9c34.9-5.7,70.2-7.9,105.6-7.1
			c52.2,1.2,103.6,7.6,153.2,25c25,8.7,48.8,19.8,68.4,38.2c14.8,13.9,22.3,30.5,22.2,51.4c-0.4,98.3-0.4,196.6,0,295
			c0.1,19.6-6.6,35.6-20.2,49.3c-12.2,12.3-26.9,21.1-43,29.6c0-2.6,0-4.5,0-6.4c0-38.5-0.1-77,0.1-115.5c0-4.6-1.2-7-5.6-9
			c-31.1-14.3-64-22.2-97.7-27.6c-3.5-0.6-6.9-1-10.4-1.5c-0.6-0.1-1.3-0.4-2.5-0.7c0.6-4.6,1.1-9.3,1.7-14.4
			c5.4,0.7,10.3,1.3,15.9,2c0-46.1,0-91.8,0-138c11.2,0,21.8,0,33.1,0c0-36.9,0-73.3,0-110.1c29,0,57.4,0,85.9,0
			c0.2-0.3,0.3-0.7,0.5-1c-1.9-1.4-3.7-2.9-5.6-4.2c-24-15.7-50.6-25.1-78.2-32c-52-13-104.8-16.8-158.2-14.3
			c-42.6,2-84.5,7.9-125.2,21.1c-24.3,7.9-47.8,17.8-67.4,34.9c-4.1,3.6-7.9,7.7-11.2,12.1c-11.9,15.9-11.7,32.5,0.4,48.3
			c8.4,11.1,19.3,19.4,31.5,25.7c6,3.1,7.7,6.8,7.4,13.2c-0.5,11.4-0.2,22.9-0.2,35.2c9.5-6.2,19.1-9.4,30.3-7.4
			c0.5-1.7,1-3.5,1.5-5.1c5.2-17,22.5-28.5,39.6-26.3c18.9,2.4,33,16.7,33.5,35.2c0.5,21.3,0.5,42.7,0.1,64
			c-0.3,15.9-10.4,28.8-25.8,33.9c-3,1-4.3,2.2-4.1,5.5c0.3,4.3,0.1,8.6,0.1,13.6c13.1-2.2,25.8-4.2,39-6.4c0.7,5.1,1.3,9.7,2,14.9
			c-6.4,1-12.6,2-18.8,3c-31.3,5.3-61.8,13.2-90.9,26.2c-4.9,2.2-6.7,4.8-6.7,10.4c0.3,38,0.2,76,0.2,114c0,2,0,4,0,5.8
			c-0.6,0.3-1,0.6-1.1,0.5c-16.7-8.5-32.6-18.2-45.2-32.4C9.1,447,3,436.4,1.3,423.7c-0.1-0.6-0.5-1.2-0.8-1.8
			C0.5,316,0.5,210,0.5,104z M449,193.5c-27.8,0-55.1,0-82.5,0c-0.1,1.2-0.3,2-0.3,2.9c0,39.6,0,79.3-0.1,118.9
			c0,3.2,1.2,4.1,4.2,4.8c18.5,4.8,37,9.7,55.3,15c7.9,2.3,15.4,5.9,23.4,9.1C449,293.8,449,243.9,449,193.5z M15.7,147.9
			c0,1.2,0,3,0,4.8c0,86.3,0.3,172.6-0.2,258.9c-0.1,24.7,14.5,38.6,33.2,52.1c0-3,0-4.9,0-6.9c0-61,0-121.9,0-182.9
			c0-32.5,0-65-0.1-97.4c0-1.9-0.8-4.4-2.1-5.5C36.5,163.1,26.1,155.6,15.7,147.9z M497.3,146.3c-1.5,1.3-2.1,1.9-2.9,2.5
			c-8.6,6.8-16.9,14-25.8,20.4c-3.3,2.4-4.5,4.5-4.5,8.4c0.1,93.3,0.1,186.6,0.1,279.8c0,1.7,0.2,3.5,0.3,6.5
			c6.1-5.1,11.5-9.3,16.4-13.9c11.2-10.6,16.5-23.4,16.5-39.2c-0.3-86-0.1-171.9-0.1-257.9C497.3,151.1,497.3,149.1,497.3,146.3z
			M399.4,177.8c16.8,0,33.1,0,49.8,0c0-2.6,0.3-4.9-0.1-7.2c-0.8-5.5,1.4-8.5,6.4-11.2c13.3-7.1,25.4-15.9,34.1-28.6
			c9.9-14.5,10-29.2,0.4-43.9c-1.8-2.8-3.7-4-7.2-4c-26.2,0.2-52.3,0.1-78.5,0.1c-1.6,0-3.2,0-5,0C399.4,115,399.4,146.2,399.4,177.8
			z M153.8,235.6c0-9.6,0.1-19.3,0-28.9c-0.2-13.6-9.8-23.6-22.5-23.5c-12.5,0.1-22.3,9.9-22.4,23.2c-0.2,19.5-0.2,38.9,0,58.4
			c0.1,13.7,9.8,23.4,22.6,23.4c12.9,0,22.2-9.7,22.3-23.6C153.9,254.9,153.8,245.3,153.8,235.6z M93.8,215.6
			c-14.6-4.8-28.6,5.7-29,21.5c-0.3,13-0.1,26,0,39c0,2.1,0.3,4.4,0.9,6.4c2.5,8.8,8.3,14.5,17.2,16.2c8.1,1.6,15.4-0.6,21.3-7.2
			c-8.2-8.8-10.7-19.2-10.4-30.6c0.2-6.2,0-12.3,0-18.5C93.8,233.4,93.8,224.4,93.8,215.6z M94.8,332.2c9.3-2.6,18.1-4.9,26.8-7.5
			c1-0.3,2-2.1,2.1-3.3c0.2-5.3,0.2-10.6,0-16c0-1.2-1-3-1.9-3.3c-2-0.6-5.2-1.3-6.2-0.3c-5.3,5.3-11.3,9.1-18.5,11.3
			c-0.9,0.3-2.1,1.8-2.1,2.7C94.7,321.1,94.8,326.4,94.8,332.2z M64,344.4c5-2.1,9.4-3.7,13.5-5.7c1-0.5,2.1-2.2,2.1-3.3
			c0.2-6.5,0.2-13,0-19.5c0-0.9-0.7-2.4-1.5-2.7c-4.6-2.1-9.3-4-14.2-6.1C64,319.3,64,331.5,64,344.4z"/>
		<path d="M374.5,513c-0.1-4.5-0.3-9-0.3-13.5c0-20,0-40,0-59.9c-0.1-18.7-10.1-30.8-28.7-34.7c-18.1-3.8-36.1-7.8-54.1-11.5
			c-3.1-0.6-6.3-0.9-9.4-1c-6.7-0.1-13.3,0.3-20-0.1c-24.7-1.5-48.7,1.8-72.6,7.9c-7.4,1.9-14.9,3.3-22.4,4.8
			c-18,3.7-28.1,16.1-28.2,34.6c-0.1,22.5,0,45,0,67.4c0,2-0.2,4-0.3,6c-5,0-10,0-15,0c0.1-21.2,0.1-42.3,0.4-63.5
			c0.1-7.8-0.1-15.8,1.6-23.3c4.4-18.6,16.6-30.5,35.1-35.1c17.3-4.2,34.8-7.6,52.2-11.1c3.7-0.7,5.4-2,5.1-6.1
			c-0.4-6.5,0.2-13-0.3-19.5c-0.1-2.3-1.4-5.1-3.2-6.5c-15.4-12.9-24.6-29-25.3-49.1c-0.6-17.5-0.9-35,0.2-52.5
			c2.2-34.3,32.4-61.3,67.2-61.2c34.6,0.1,64.8,27.1,66.7,61.2c1.1,20.4,0.7,41-1,61.3c-1.4,16-10.5,29-23,39.1
			c-3.4,2.7-4.6,5.5-4.4,9.7c0.3,7.3,0.1,14.6,0.1,22.3c14.6,3.1,28.9,6.2,43.1,9.3c4.1,0.9,8.1,1.7,12.2,2.6
			c24,5.6,38.6,23.7,38.8,48.4c0.1,22.7,0,45.3,0,68c0,2,0.2,4,0.3,6C384.5,513,379.5,513,374.5,513z M309.1,255.8c0-0.8,0-1.7,0-2.5
			c-0.9-23.2-11.5-40.3-33-49c-20.8-8.4-40-4.2-56.3,11.2c-14,13.2-17.1,30.1-15.5,48.6c2.6,29.9,31.7,52.1,61.3,46.5
			C292.1,305.4,309.1,284.1,309.1,255.8z M204.9,302.8c3.8,26.8,27.3,45.6,55,44.3c24-1.1,46.8-21.9,47.9-43.9
			C279.5,334.2,233.1,333.7,204.9,302.8z M279.7,377.1c0-6.5,0-12.4,0-18.7c-15.7,5.3-31,5-46.4,0.1c0,6.6,0,12.5,0,18.7
			C248.9,377.1,264.1,377.1,279.7,377.1z"/>
		<path d="M173.5,513c0.1-17.9,0.2-35.9,0.4-53.8c0-2,0-3.9,0-6c5.2,0,9.8,0,14.8,0c0.1,2,0.2,3.7,0.2,5.5
			c-0.1,18.1-0.2,36.2-0.4,54.3C183.5,513,178.5,513,173.5,513z"/>
		<path d="M324.5,513c-0.1-13.6-0.3-27.2-0.4-40.8c0-6.1,0-12.3,0-18.8c5,0,9.7,0,15,0c0,2,0,3.9,0,5.8c0.1,17.9,0.2,35.9,0.4,53.8
			C334.5,513,329.5,513,324.5,513z"/>
		<path d="M140.8,141.1c-10.7,0-21.3,0.1-32,0c-14.2-0.2-24.6-6.8-30.2-19.8c-5.5-12.6-3.3-24.7,6.1-34.7
			c9.7-10.3,21.7-12.8,35.2-8.5c1.9,0.6,4.1,0.3,6.1,0.1c5.2-0.5,10.5-1.8,15.7-1.6c3.4,0.1,5.8,0,8.5-2.2
			c12.5-10.1,29.5-11,42.9-2.7c13.5,8.4,20.4,24.3,17.1,39.6c-3.3,15.5-15.8,27.2-31.5,29.5c-2.3,0.3-4.6,0.3-7,0.3
			C161.4,141.1,151.1,141.1,140.8,141.1z M151.4,96c-2.7-1.3-4.7-2.9-6.9-3.2c-4.3-0.6-9.8-2.2-12.9-0.3c-6.5,4.1-11.2,3.4-17.6-0.1
			c-6.3-3.5-13.1-1.1-18.2,4.1c-5.1,5.3-6.4,11.6-3.6,18.5c2.6,6.6,7.7,10.8,14.8,10.9c22.8,0.3,45.6,0.4,68.4,0
			c13.1-0.3,22.3-13,20.1-26.4c-2-12.2-14.6-20.5-26.8-17.9C160.5,83.4,155.6,89.1,151.4,96z"/>
		<path d="M301.7,128.1c-18,0.1-32.4-14.2-32.6-32.2c-0.2-18.1,14.5-32.9,32.5-32.8c17.8,0.1,32.4,14.7,32.4,32.5
			C334.1,113.4,319.5,128,301.7,128.1z M301.6,113.1c9.7,0,17.5-7.9,17.4-17.5c-0.1-9.6-8-17.5-17.6-17.5c-9.6,0-17.4,7.9-17.4,17.6
			C284.1,105.4,291.9,113.1,301.6,113.1z"/>
		<path d="M272.7,134.7c-3.3,3.2-6.7,6.5-10.1,9.7c-3.3-3.2-6.7-6.5-10.4-10.1c3.5-3.2,7-6.4,10.4-9.5
			C265.8,127.9,269.2,131.3,272.7,134.7z"/>
		<path d="M239.3,88.2c5,0,9.5,0,14.3,0c0,4.9,0,9.6,0,14.6c-4.8,0-9.4,0-14.3,0C239.3,98,239.3,93.3,239.3,88.2z"/>
		<path d="M272.2,57.2c-3,2.9-6.3,6.1-10,9.6c-2.8-3.3-5.9-7-9.1-10.7c2.7-2.6,6-5.9,9.2-9.1C265.5,50.3,268.7,53.6,272.2,57.2z"/>
		<path d="M340.1,66.7c-3.2-3.2-6.4-6.4-9.8-9.8c3.5-3.3,6.9-6.5,10.5-10c2.9,3,6.2,6.5,9.6,10C347.2,60,343.8,63.2,340.1,66.7z"/>
		<path d="M340.5,124.6c3.3,3.4,6.5,6.8,9.9,10.3c-3.2,3-6.5,6.2-10,9.6c-3-3.3-6.3-6.9-9.7-10.7C333.5,131.1,336.9,128,340.5,124.6z
			"/>
		<path d="M308.8,33.3c0,5,0,9.6,0,14.5c-4.8,0-9.4,0-14.4,0c0-4.8,0-9.5,0-14.5C299.2,33.3,303.8,33.3,308.8,33.3z"/>
		<path d="M349.3,102.7c0-4.8,0-9.3,0-14.2c4.8,0,9.5,0,14.5,0c0,4.6,0,9.2,0,14.2C359.1,102.7,354.5,102.7,349.3,102.7z"/>
		<path d="M308.4,157.9c-4.6,0-9.1,0-14,0c0-4.8,0-9.5,0-14.5c4.5,0,8.9,0,14,0C308.4,148,308.4,152.7,308.4,157.9z"/>
		<path d="M386.8,214.4c5.1,0,9.6,0,14.5,0c0,4.9,0,9.5,0,14.4c-4.8,0-9.5,0-14.5,0C386.8,224,386.8,219.5,386.8,214.4z"/>
		<path d="M431.3,214.4c0,5,0,9.5,0,14.4c-4.8,0-9.4,0-14.4,0c0-4.7,0-9.4,0-14.4C421.6,214.4,426.2,214.4,431.3,214.4z"/>
		<path d="M386.8,268.9c0-4.9,0-9.5,0-14.4c4.8,0,9.4,0,14.4,0c0,4.7,0,9.4,0,14.4C396.5,268.9,391.9,268.9,386.8,268.9z"/>
		<path d="M431.2,268.9c-4.8,0-9.4,0-14.3,0c0-4.7,0-9.3,0-14.3c4.6,0,9.3,0,14.3,0C431.2,259.2,431.2,263.8,431.2,268.9z"/>
		<path d="M387,294.4c4.8,0,9.3,0,14.2,0c0,4.8,0,9.5,0,14.5c-4.6,0-9.2,0-14.2,0C387,304.3,387,299.6,387,294.4z"/>
		<path d="M416.9,294.5c4.8,0,9.4,0,14.3,0c0,4.7,0,9.3,0,14.3c-4.6,0-9.3,0-14.3,0C416.9,304.3,416.9,299.7,416.9,294.5z"/>
		<path d="M433.3,103.4c0,4.7,0,9.3,0,14.3c-4.6,0-9.3,0-14.4,0c0-4.6,0-9.3,0-14.3C423.7,103.4,428.4,103.4,433.3,103.4z"/>
		<path d="M449,103.2c4.8,0,9.3,0,14.2,0c0,4.8,0,9.5,0,14.5c-4.6,0-9.2,0-14.2,0C449,113.2,449,108.5,449,103.2z"/>
		<path d="M419,143.3c4.8,0,9.3,0,14.2,0c0,4.8,0,9.5,0,14.5c-4.6,0-9.2,0-14.2,0C419,153.2,419,148.5,419,143.3z"/>
	</g>
</svg>
