<?xml version="1.0" encoding="utf-8"?>
<!-- Generator: Adobe Illustrator 23.0.2, SVG Export Plug-In . SVG Version: 6.00 Build 0)  -->
<svg version="1.1" id="Layer_1" xmlns="http://www.w3.org/2000/svg" xmlns:xlink="http://www.w3.org/1999/xlink" x="0px" y="0px"
	 viewBox="0 0 512 512" style="enable-background:new 0 0 512 512;" xml:space="preserve">
<g>
	<path d="M1,285.7c1.2-3.6,2.2-7.4,3.7-10.9c4.9-11.6,12.9-20.3,24.5-25.2c4.4-1.8,5.8-4,5.9-8.8c0.3-48.8,15.1-93,44.6-131.8
		c34.5-45.4,80.2-73.4,136.2-84.4c1-0.2,2.1-0.3,3.2-0.4c6.1-0.5,10.5,2.5,11.4,7.8c1,5.7-2,10.5-8.2,11.6
		c-20.1,3.8-39.6,9.5-57.7,19.2c-60.1,31.9-96.1,81.5-107.4,148.6c-1.7,9.9-1.7,20.1-2.4,30.1c-0.1,1,0.2,2.1,0.4,3.4
		c6.3,0,12.4,0,19.1,0c1.3-63.6,26.7-115,78.9-151.9c33.3-23.5,71-34,111.7-31.8c48.5,2.6,89.7,21.7,123,57
		c33.3,35.4,49.1,77.9,49.4,126.7c6.6,0,12.9,0,19.5,0c0.7-14.5-0.4-28.6-3.7-42.3c-20.4-85.3-73.4-138.1-159-157.9
		c-9.2-2.1-13.3-9.5-8.5-16.1c2.7-3.7,6.5-4.8,10.8-3.8c90.3,20.4,148.6,75,173.9,164.1c5,17.6,6.7,35.8,6.7,54.1
		c0,1.8,1.3,4.5,2.8,5.2c16.4,7,26.5,18.9,30.2,36.4c0.1,0.5,0.6,0.9,0.8,1.3c0,27.3,0,54.5,0,81.8c-1.7,4.8-2.9,9.8-5.3,14.3
		c-8.3,16-21.5,25-39.6,26.3c-7.4,0.5-14.9,0.4-22.3,0.2c-3.4-0.1-4.8,1-4.6,4.5c0.2,4.6,0.1,9.2,0,13.8
		c-0.6,24.1-17.1,40.4-41.2,40.6c-28,0.1-55.9,0.1-83.9-0.1c-4.1,0-6,1.2-7.9,4.9c-6,12.1-16.1,18.6-29.7,18.8
		c-13.6,0.2-27.3,0.2-40.9,0c-18.2-0.2-32.5-14.4-33.2-32.7c-0.7-17.8,12.6-33.5,30.5-34.5c15.2-0.9,30.5-0.8,45.6-0.1
		c15,0.7,24.5,9.8,30.1,23.6c13.6,0,27.2,0,40.8,0c16.1,0,32.2,0,48.3,0c14.9-0.1,23.3-10.1,21.1-24.8c-4.9,0-9.9,0.7-14.6-0.1
		c-14.3-2.3-24.3-14.1-24.9-28.9c-0.3-7.4-0.2-14.9,0-22.3c0.1-6.6,4.1-10.9,9.8-11c6-0.1,10,4.3,10.1,11.2c0.1,6.5,0,13.1,0,19.7
		c0,7.5,3.7,11.8,9.9,11.8c6.2,0,10.1-4.3,10.1-11.8c0.1-34.2,0-68.3,0-102.5c0-8.7,0.1-17.4,0-26c-0.1-7.4-3.9-11.8-10-11.9
		c-6.1,0-9.9,4.4-10,11.8c0,7.3,0.1,14.5,0,21.8c-0.1,6.6-3.9,10.9-9.7,11.1c-5.9,0.2-10.1-4.2-10.3-11.1c-0.1-7.6-0.1-15.2,0-22.8
		c0.3-19.7,15.6-32.8,35.2-30.2c0.5,0.1,1,0,2.5,0c-5.2-53.8-29.1-96.7-74.9-125c-57.3-35.4-116.4-35.2-173.4,0.6
		c-45.2,28.3-68.9,71-74,124.7c9.3-1.8,17.2-0.6,24.2,4.2c8.9,6,13.4,14.6,13.4,25.2c0.1,43.9,0.1,87.8,0,131.7
		c0,13.4-7.9,24.2-20,28.5c-12.1,4.3-24.5,0.6-33.5-9.7c-1.4-1.6-4-2.8-6.1-2.9c-8.3-0.4-16.6,0.1-25-0.3c-23.3-1-40.8-15.6-46-38.3
		c-0.2-0.8-0.7-1.6-1-2.3C1,340.2,1,313,1,285.7z M72.3,264.5c-10.4,0.5-20.8,0-30.7,1.7c-11.9,2.1-20.3,13.3-20.5,25.3
		c-0.2,23.5-0.3,47.1,0,70.6c0.2,12.3,9.6,23.8,21.8,25.3c9.5,1.2,19.3,0.2,29.4,0.2C72.3,347.2,72.3,306.4,72.3,264.5z
		 M439.6,387.8c9.9,0,19.7,1,29.2-0.2c12.4-1.6,21.9-13.1,22-25.7c0.3-23.5,0.3-47.1,0-70.6c-0.2-12.3-9.7-23.9-21.8-25.4
		c-9.5-1.2-19.3-0.2-29.4-0.2C439.6,306.3,439.6,347.1,439.6,387.8z M112.6,326.8c0-21.8,0-43.6,0-65.3c0-6.6-4.1-10.8-9.9-10.8
		c-5.8,0-10.1,4.1-10.1,10.7c-0.1,43.6-0.1,87.1,0,130.7c0,4.6,1.9,8.3,6.3,10.2c7,2.9,13.6-2.2,13.7-10.5
		C112.6,370,112.6,348.4,112.6,326.8z M256,471C256,471,256,471,256,471c6.5,0,13.1,0.2,19.6-0.1c8.5-0.3,14.3-6.1,14.3-13.9
		c0-7.7-6-13.7-14.4-13.9c-12.9-0.2-25.8-0.2-38.7,0c-8.4,0.1-14.5,6.1-14.6,13.7c-0.2,7.9,5.9,13.8,14.7,14.1
		C243.3,471.2,249.7,471,256,471z"/>
	<path d="M256.4,196.3c18.4,0,36.8,0,55.2,0c28.5,0.1,47.6,19,47.9,47.5c0.2,18.2,0.2,36.5,0,54.7c-0.4,28.1-19.6,47.1-47.7,47.3
		c-5.5,0-11,0.5-16.5-0.1c-6.4-0.7-10.5,1.8-14.2,6.8c-5.1,7-10.9,13.5-16.5,20.1c-5.7,6.7-12.2,6.6-17.8-0.3
		c-6-7.4-12.1-14.8-17.9-22.4c-2.2-3-4.6-4.2-8.4-4.2c-9.4,0.1-18.8,0.3-28.1-0.5c-21.2-2-38.9-19.8-39.7-41.1
		c-0.8-22.1-0.9-44.3,0-66.4c0.9-22.7,20.6-40.7,43.4-41.4c0.7,0,1.4-0.1,2.1-0.1C217.8,196.3,237.1,196.3,256.4,196.3z M256,351.9
		c5.8-7,11.3-13.2,16.3-19.8c3.5-4.5,7.6-6.3,13.2-6.1c9,0.3,18,0.2,27.1,0.1c15.8-0.1,26.9-10.9,27-26.6c0.2-18.9,0.2-37.9,0-56.8
		c-0.2-15.1-10.5-26.1-25.6-26.3c-38.7-0.3-77.5-0.3-116.3,0c-15.1,0.1-25.5,11.1-25.6,26.2c-0.2,18.9-0.2,37.9,0,56.8
		c0.1,15.7,11.2,26.5,27,26.7c9.2,0.1,18.4,0.3,27.6-0.1c6.2-0.3,10.4,2,14,6.8C245.5,339.1,250.6,345.1,256,351.9z"/>
	<path d="M389.2,316.7c5.2-0.1,9.9,4.2,10.1,9.5c0.3,5.5-4.2,10.3-9.7,10.4c-5.4,0.2-10.2-4.5-10.2-9.9
		C379.5,321.5,384.1,316.9,389.2,316.7z"/>
	<path d="M266.7,30.9c0,5.6-4.4,9.9-10.2,9.9c-5.8,0-10.2-4.1-10.3-9.7c-0.1-5.9,4.2-10.1,10.4-10.1
		C262.4,21.1,266.7,25.3,266.7,30.9z"/>
	<path d="M265.9,276.1c0,5.5-4.2,9.7-9.7,9.7c-5.7,0-10-4.4-9.9-10.1c0.2-5.5,4.5-9.6,10-9.5C261.8,266.3,266,270.6,265.9,276.1z"/>
	<path d="M300.2,266.2c5.4,0.1,9.8,4.6,9.7,9.9c-0.1,5.6-4.8,9.9-10.5,9.7c-5.4-0.2-9.6-4.8-9.4-10.2
		C290.3,270.3,294.8,266.1,300.2,266.2z"/>
	<path d="M212.1,285.8c-5.5-0.1-9.7-4.3-9.7-9.8c0-5.7,4.5-10,10.2-9.8c5.5,0.2,9.5,4.6,9.4,10.1C222,281.8,217.6,285.9,212.1,285.8
		z"/>
</g>
</svg>
