<svg version="1.1" xmlns="http://www.w3.org/2000/svg" xmlns:xlink="http://www.w3.org/1999/xlink" x="0px" y="0px"
	 viewBox="0 0 512 512" style="enable-background:new 0 0 512 512;" xml:space="preserve">
<g>
	<path d="M511,200.8c0,91.7,0,183.5,0,275.2c-2.8,10.8-7.3,20.8-17,26.9c-5.5,3.5-12,5.5-18.1,8.1c-58.8,0-117.6,0-176.4,0
		c-22.6-4.9-35.9-21.7-35.5-49.6c0.9-68.8,0.3-137.6,0.3-206.5c0-2.2,0-4.5,0-7.2c-3,0-5.2,0-7.5,0c-83,0-166,0-248.9,0
		c-2.3,0-4.6-0.1-6.9-0.2C1,165.4,1,83.3,1,1c159,0,318,0,477.1,0c0,55,0,110,0,165.2c11.9,3,21.4,9.3,27.2,19.9
		C507.8,190.6,509.1,195.8,511,200.8z M264,211.4c-21.8,5.8-42.9,4.4-63.2-5.3c-20.5-9.8-35.3-25.2-44.4-46
		c-15.6-35.8-6.2-77.3,23.4-103.6c28.9-25.7,71.7-29.9,105.3-10.2c16.8,9.9,29.4,23.8,37.2,41.7c11.2,25.8,10,51.6-1.9,77.4
		c47.4,0,94,0,140.9,0c0-49.3,0-98.4,0-147.6c-148,0-295.6,0-443.3,0c0,71.4,0,142.4,0,213.4c82.3,0,164,0,246.1,0
		C264,224.5,264,218.2,264,211.4z M494.6,338.9c0-43.2,0-86.4,0-129.6c0-17.4-10-27.4-27.3-27.5c-53.1,0-106.2,0-159.3,0
		c-17.2,0-27.4,10.2-27.4,27.4c0,86,0,172,0,258.1c0,16.8,9.9,27.1,26.5,27.1c53.6,0.1,107.3,0.2,160.9-0.1c5.1,0,10.6-1.6,15.1-4
		c8.9-5,11.5-13.6,11.5-23.5C494.5,424.2,494.6,381.6,494.6,338.9z M238.1,50.2c-3.8,0.5-8.9,0.9-13.9,1.8
		c-41.1,8.1-67.2,50.9-56.1,91.8c11,40.7,54.9,64.4,94.2,50.6c2.3-0.8,4.7-3,5.8-5.2c6-11.8,15.2-19.5,28-22.4
		c3.5-0.8,5.6-2.4,7.2-5.3c13.5-24.6,14.2-49.5,0.2-73.8C289.6,63.2,267.6,51.2,238.1,50.2z"/>
	<path d="M1,495.1c5.3-0.3,10.5-0.6,16.4-0.9c0-54.6,0-109.1,0-163.8c16.7,0,32.7,0,49.3,0c0,54.6,0,109,0,163.8
		c11.2,0,21.9,0,33.1,0c0-38.3,0-76.3,0-114.6c16.5,0,32.5,0,49,0c0,38.1,0,76.1,0,114.5c11.2,0,21.9,0,33.1,0
		c0-49.2,0-98.1,0-147.4c16.6,0,32.6,0,49.3,0c0,49.1,0,98.2,0,147.7c5.6,0,10.5,0,16.2,0c0,5.8,0,11.2,0,16.6
		c-82.2,0-164.3,0-246.5,0C1,505.7,1,500.4,1,495.1z M50.1,346.8c-5.7,0-10.7,0-15.9,0c0,49.3,0,98.3,0,147.3c5.4,0,10.6,0,15.9,0
		C50.1,444.8,50.1,396,50.1,346.8z M214.3,494.2c0-43.9,0-87.4,0-130.8c-5.5,0-10.5,0-15.5,0c0,43.8,0,87.2,0,130.8
		C204.2,494.2,209.3,494.2,214.3,494.2z M116.4,396.2c0,33,0,65.3,0,98c5.5,0,10.7,0,16,0c0-32.8,0-65.3,0-98
		C126.9,396.2,121.9,396.2,116.4,396.2z"/>
	<path d="M57.9,308c-9.4,6.6-19.1,7.7-28.9,1.7c-10-6.2-14.1-18.9-9.8-29.8c4.3-10.9,15.7-17.3,27.4-15.3
		c11.3,1.9,20.4,12.3,20.1,24c-0.1,4.6,1.6,6.6,5.1,8.6c11.2,6.5,22.2,13.1,33.2,19.9c2.5,1.5,4.3,1.8,7.1,0.1
		c9.2-5.6,19.5-4.9,27.6,2c2.9,2.4,4.9,2.2,7.9,0.9c9.8-4.1,19.6-8.1,29.5-11.8c3.4-1.3,4.8-3,5.4-6.7c1.8-12.4,12.1-21.1,24.2-21.1
		c12.1,0,22.2,8.7,24.4,21c1.7,9.6-3.1,19.7-11.7,24.8c-8.9,5.3-19.7,4.8-27.7-1.9c-2.7-2.3-4.8-2.6-7.9-1.2
		c-10.1,4.3-20.3,8.3-30.5,12.3c-2.7,1.1-4.1,2.3-4.5,5.5c-1.3,13-12.9,22.7-25.6,21.8c-13.4-1-23.5-11.5-23.2-24.9
		c0.1-3.8-1.1-5.6-4.2-7.4C83,323.1,70.5,315.5,57.9,308z M132.6,338.5c0.1-4.4-3.4-8.1-7.9-8.3c-4.6-0.2-8.2,3.1-8.5,7.6
		c-0.3,4.6,3.4,8.6,8.1,8.6C128.8,346.4,132.5,342.9,132.6,338.5z M50.2,288.8c0-4.4-3.7-8.1-8-8.2c-4.4,0-8.1,3.7-8.2,8.1
		c-0.1,4.6,3.8,8.5,8.4,8.4C46.7,297,50.2,293.3,50.2,288.8z M214.7,305.5c0.1-4.6-3.3-8.1-7.8-8.2c-4.6-0.1-8.2,3.2-8.3,7.7
		c-0.2,4.7,3.4,8.5,8.1,8.5C211.1,313.5,214.7,310,214.7,305.5z"/>
	<path d="M50.3,50.2c0,11.4,0,21.7,0,32.5c-5.4,0-10.5,0-15.9,0c0-16,0-32.1,0-48.5c15.9,0,31.9,0,48.4,0c0,5.1,0,10.2,0,16
		C72.1,50.2,61.6,50.2,50.3,50.2z"/>
	<path d="M444.7,82.9c-5.4,0-10.3,0-15.8,0c0-10.8,0-21.3,0-32.4c-11.1,0-21.7,0-32.6,0c0-5.7,0-10.7,0-16.2c15.9,0,31.9,0,48.4,0
		C444.7,50.3,444.7,66.4,444.7,82.9z"/>
	<path d="M50.2,198.6c11.5,0,21.9,0,32.6,0c0,5.4,0,10.4,0,15.8c-16.1,0-32,0-48.5,0c0-16,0-32.1,0-48.5c5.1,0,10.1,0,15.9,0
		C50.2,176.6,50.2,187.3,50.2,198.6z"/>
	<path d="M297.4,280.2c0-27.2,0-54,0-81.3c60,0,119.9,0,180.3,0c0,26.9,0,53.9,0,81.3C417.9,280.2,358,280.2,297.4,280.2z
		 M313.8,264c49.2,0,98.2,0,147.5,0c0-16.3,0-32.5,0-48.8c-49.3,0-98.4,0-147.5,0C313.8,231.7,313.8,247.7,313.8,264z"/>
	<path d="M477.8,477.9c-16.3,0-32.2,0-48.5,0c0-38.1,0-76,0-114.4c16,0,32.1,0,48.5,0C477.8,401.5,477.8,439.5,477.8,477.9z
		 M445.6,379.5c0,27.6,0,54.7,0,81.8c5.4,0,10.5,0,15.7,0c0-27.5,0-54.6,0-81.8C455.9,379.5,451,379.5,445.6,379.5z"/>
	<path d="M346.2,363.4c0,16.4,0,32.2,0,48.5c-16.2,0-32.3,0-48.7,0c0-16.2,0-32.2,0-48.5C313.7,363.4,329.7,363.4,346.2,363.4z
		 M329.8,395.6c0-5.7,0-10.7,0-16c-5.5,0-10.6,0-15.9,0c0,5.5,0,10.6,0,16C319.3,395.6,324.3,395.6,329.8,395.6z"/>
	<path d="M412.1,297.6c0,16.3,0,32.2,0,48.4c-16.2,0-32.3,0-48.7,0c0-16.1,0-32.1,0-48.4C379.5,297.6,395.5,297.6,412.1,297.6z
		 M379.6,329.7c5.4,0,10.6,0,15.9,0c0-5.6,0-10.7,0-15.8c-5.6,0-10.8,0-15.9,0C379.6,319.4,379.6,324.5,379.6,329.7z"/>
	<path d="M477.8,297.6c0,16.3,0,32.3,0,48.5c-16.3,0-32.3,0-48.6,0c0-16.2,0-32.2,0-48.5C445.2,297.6,461.3,297.6,477.8,297.6z
		 M461.4,314c-5.7,0-10.9,0-16,0c0,5.5,0,10.5,0,15.8c5.4,0,10.6,0,16,0C461.4,324.3,461.4,319.3,461.4,314z"/>
	<path d="M346.2,429.2c0,16.2,0,32.1,0,48.4c-16.1,0-32.2,0-48.7,0c0-16,0-32,0-48.4C313.7,429.2,329.6,429.2,346.2,429.2z
		 M329.9,445.5c-5.7,0-10.9,0-16.2,0c0,5.4,0,10.4,0,15.6c5.5,0,10.8,0,16.2,0C329.9,455.7,329.9,450.9,329.9,445.5z"/>
	<path d="M411.9,477.9c-16.3,0-32.2,0-48.5,0c0-16.1,0-32.1,0-48.6c16,0,32.1,0,48.5,0C411.9,445.4,411.9,461.4,411.9,477.9z
		 M395.4,461.4c0-5.7,0-10.9,0-16c-5.5,0-10.5,0-15.8,0c0,5.4,0,10.6,0,16C385,461.4,390,461.4,395.4,461.4z"/>
	<path d="M363.3,411.9c0-16.2,0-32.2,0-48.5c16.3,0,32.3,0,48.6,0c0,16.2,0,32.2,0,48.5C395.9,411.9,379.9,411.9,363.3,411.9z
		 M379.6,395.9c4.8,0,9.2,0.1,13.5-0.1c1-0.1,2.6-1.4,2.6-2.3c0.3-4.6,0.1-9.3,0.1-13.9c-6,0-11,0-16.3,0
		C379.6,385,379.6,390,379.6,395.9z"/>
	<path d="M297.6,297.5c1.2-0.1,2.1-0.2,2.9-0.2c15,0,30,0,45.5,0c0,16.3,0,32.5,0,48.9c-16.1,0-32.1,0-48.4,0
		C297.6,330,297.6,314,297.6,297.5z M313.8,329.7c5.7,0,10.8,0,16.1,0c0-5.5,0-10.5,0-15.8c-5.5,0-10.6,0-16.1,0
		C313.8,319.2,313.8,324.3,313.8,329.7z"/>
	<path d="M247.7,181.6c-5.8,0-10.7,0-16.3,0c0-4.8,0.3-9.3-0.1-13.8c-0.2-1.8-1.6-4.2-3.1-5.1c-8-4.8-12.6-11.5-13.2-21.7
		c5,0,9.7-0.1,14.4,0.1c0.9,0.1,1.9,1.6,2.5,2.7c2.1,4.3,5.5,6,10,4.8c4-1.1,6.1-4.2,5.7-8.5c-0.5-4.8-3.5-7-8.2-7.5
		c-12.8-1.3-21.4-8.3-23.8-19.1C213,102.1,217.5,93,229,85.7c1.3-0.8,2.2-3,2.3-4.6c0.3-4.5,0.1-9.1,0.1-14c5.5,0,10.5,0,16.3,0
		c0,4.2,0.2,8.4-0.1,12.6c-0.2,3.3,0.7,5.3,4,7c8.1,4.3,12.4,12.1,12.2,21.3c-4.5,0-9.1,0.1-13.6-0.1c-1-0.1-2.2-1.4-2.7-2.4
		c-2-4.5-5.4-6.7-10.2-5.3c-4,1.1-6.2,4.2-5.7,8.5c0.5,5.1,3.8,7,8.6,7.6c13.1,1.5,21.3,8.6,23.5,20c2,10.2-2.4,20.5-11.8,25.6
		c-3.6,2-4.6,4.1-4.3,7.9C247.9,173.5,247.7,177.4,247.7,181.6z"/>
	<path d="M296.9,132.4c-5.4,0-10.5,0-15.9,0c0-5.3,0-10.4,0-16c5.3,0,10.4,0,15.9,0C296.9,121.8,296.9,126.8,296.9,132.4z"/>
	<path d="M198.1,132.4c-5.5,0-10.5,0-15.9,0c0-5.3,0-10.3,0-15.8c5.2,0,10.3,0,15.9,0C198.1,121.7,198.1,126.8,198.1,132.4z"/>
</g>
</svg>
