<svg version="1.1" xmlns="http://www.w3.org/2000/svg" xmlns:xlink="http://www.w3.org/1999/xlink" x="0px" y="0px"
	 viewBox="0 0 512 512" style="enable-background:new 0 0 512 512;" xml:space="preserve">
	<g>
		<path d="M1,196.5c2.7-4.3,6.6-5.5,11.6-5.6c11.3-0.3,21.8,1.8,31.4,9.1c3.6-17.4,12.9-30.1,27.2-37.4c-3.4-8.3-8.5-16.1-9.6-24.4
			C60.1,127,60,115,62.2,103.9c3.9-20.5,23.7-33.4,45.3-31.7c19.7,1.5,36.5,18.7,37.8,38.9c0.5,7.9,0.5,15.9,0,23.9
			c-0.8,12.6-6.5,21.8-19.5,32.5c1.4,1.3,2.8,2.6,4.2,3.9c9.6,9.5,15.2,21,15.4,34.5c0.4,25.3,0.1,50.6,0.1,75.9
			c0,0.7-0.2,1.4-0.3,2.4c-5.3,0-10.6,0-16.7,0c0-1.8,0-3.7,0-5.5c0-23.4,0.1-46.7,0-70.1c-0.1-12.5-5.4-22.2-16.9-29.9
			c0,30.1,0,59.2,0,88.5c-5.8,0-11.1,0-16.9,0c0-30.9,0-61.8,0-92.6c-16.9-1.7-33.6,13.4-34,31.2c-0.5,26-0.2,52-0.1,78.1
			c0,5.9,3.6,9,10,9.1c10.1,0.1,20.2,0,30.3,0c26.7,0.1,44.6,18,44.6,44.7c0,31.3,0,62.7,0,94c0,1.7,0,3.4,0,5.5c-5.8,0-11,0-16.9,0
			c0-30.9,0-61.8,0-92.9c-2.3-0.1-4.1-0.3-5.8-0.3c-19.8,0-39.7,0.1-59.5-0.1c-4.1,0-5.8,1.3-7.1,5.1c-9.4,28.7-19,57.3-28.6,86
			c-0.5,1.5-1,3-1.7,5c-5.3-1.7-10.4-3.4-16-5.3c10.2-30.5,20.2-60.6,30.2-90.9c-15.3-3.8-23-13.2-24.8-28.4
			C11.2,280,6.6,244.6,2.1,209.1c-0.2-1.7-0.7-3.4-1.1-5.1C1,201.5,1,199,1,196.5z M19.2,208.6c4.4,35.3,8.7,70.2,13.2,105.2
			c1.3,10.5,4.9,13.3,15.4,13.3c24.4,0,48.9,0,73.3,0c1.7,0,3.3-0.2,5.1-0.3c-3-9.6-11.5-16.2-21.5-16.5c-11.1-0.3-22.3-0.1-33.5-0.2
			c-17.2-0.1-27.7-10.6-27.7-27.9c0-16.3,0.1-32.6-0.1-48.9C43.3,219.4,32.1,207.9,19.2,208.6z M128.5,123.2
			C128.5,123.2,128.5,123.2,128.5,123.2c0-3.5,0.2-7.1-0.1-10.6c-0.9-13.5-12.2-23.8-25.9-23.6c-13.3,0.2-24.4,10.7-24.9,24
			c-0.3,6.5-0.3,13.1,0,19.6c0.5,13.4,12,24.2,25.4,24.3c13.4,0,24.8-10.7,25.5-24.2C128.6,129.6,128.5,126.4,128.5,123.2z"/>
		<path d="M511,204c-1.4,10-3,19.9-4.2,29.9c-3.6,28.6-6.9,57.3-10.9,85.8c-1.9,13.4-10.8,21-24.1,24.1c5.1,15.3,10,30.3,15,45.4
			c5,15,10.1,30.1,15.2,45.5c-5.6,1.9-10.5,3.6-15.9,5.4c-0.7-1.9-1.3-3.5-1.9-5.1c-9.6-28.7-19.2-57.3-28.6-86
			c-1.2-3.8-2.9-5.2-7-5.1c-19.8,0.2-39.7,0.1-59.5,0.1c-1.7,0-3.4,0.1-5.6,0.2c0,31,0,61.8,0,92.9c-5.8,0-11.2,0-17.1,0
			c0-1.9,0-3.6,0-5.4c0-31.3,0-62.7,0-94c0-26.7,17.9-44.6,44.6-44.7c9.9-0.1,19.8,0,29.7,0c7.6-0.1,10.6-3.1,10.7-10.7
			c0-24.8,0.1-49.6,0-74.4c-0.1-16.3-10.9-29.7-26.8-33.2c-2.2-0.5-4.5-0.5-7.1-0.7c0,31.3,0,62,0,93.1c-5.8,0-11.1,0-16.9,0
			c0-29.2,0-58.2,0-88c-1.8,1-3,1.4-4,2.2c-8.9,7.1-13.1,16.4-13.1,27.7c0,23,0,46,0,69c0,1.9,0,3.8,0,6.1c-5.7,0-10.9,0-17,0
			c0-1.8,0-3.7,0-5.5c0-21.2,0.4-42.5-0.1-63.7c-0.5-18.8,4.7-34.9,19.9-47.3c-1.1-0.9-1.9-1.7-2.9-2.4c-9.3-7.1-15.4-16.5-16.4-28.1
			c-0.8-10.2-1-20.6,0.5-30.7c3.4-21.9,23.2-36.1,45.9-34.2c20.5,1.6,37.4,19.9,37.9,41.1c0.2,6.2,0.1,12.4,0,18.6
			c-0.1,11.3-4.5,20.9-12.4,29.7c15.5,8.3,25.2,20.6,28.8,38.3c1.7-1,3.1-1.9,4.5-2.8c9.8-6.2,20.7-6.8,31.8-5.7
			c2.5,0.3,4.6,3.3,6.9,5.1C511,199,511,201.5,511,204z M492.9,208c-2.4,0.4-4.1,0.5-5.7,0.9c-11.1,3.1-18.5,12.6-18.7,24.3
			c-0.2,15.8,0,31.5,0,47.3c0,19.8-9.9,29.5-29.8,29.6c-10.4,0-20.9-0.2-31.3,0.2c-10.4,0.3-19.9,8-21.3,16.8
			c27.3,0,54.5,0.1,81.8-0.1c6.6,0,10.6-4.1,11.4-11C483.8,280.3,488.3,244.7,492.9,208z M434.5,123.2c0-3.4,0.1-6.7,0-10.1
			c-0.7-13.6-11.8-24.1-25.4-24.1c-13.6,0-24.9,10.5-25.4,24.1c-0.3,6.5-0.3,13.1,0,19.6c0.6,13.5,12,24.2,25.4,24.2
			c13.4,0,24.8-10.8,25.5-24.2C434.6,129.6,434.5,126.4,434.5,123.2z"/>
		<path d="M264.5,233.3c-5.9,0-11.1,0-17,0c0-19.7,0-39.2,0-58.6c-23.2-4.1-35.5,12-34.2,28.7c0.7,9.8,0.1,19.7,0.1,29.9
			c-5.8,0-11,0-17,0c0-3.9,0-7.7,0-11.5c0-7.8-0.3-15.6,0.1-23.4c0.9-18.4,10.5-31,27.1-38.6c-2.3-4-5.3-7.7-6.7-11.9
			c-5.5-16.6-6-33.6,0-49.9c6.8-18.5,27.4-29,46.5-25.3c19.9,3.9,34.3,20.6,34.9,40.6c0.1,4.2-0.1,8.5,0.1,12.7
			c0.6,12.3-2.2,23.5-10.7,33.4c1.3,0.7,2.2,1.4,3.2,1.9c15.8,8,24,21,24.4,38.6c0.3,11,0,21.9,0,33.3c-5.6,0-11,0-17,0
			c0-9.8-0.6-19.5,0.1-29.1c1.4-17.4-10.7-33.2-34.1-29.5C264.5,193.9,264.5,213.5,264.5,233.3z M282,123.2c-0.2,0-0.3,0-0.5,0
			c0-3.4,0.1-6.7,0-10.1c-0.7-13.6-11.8-24.1-25.5-24c-13.6,0-24.9,10.5-25.4,24.1c-0.3,6.5-0.3,13.1,0,19.6
			c0.5,12.7,10.4,22.7,23.3,24.1c11.6,1.3,23.5-6.7,26.4-18.5C281.6,133.5,281.5,128.3,282,123.2z"/>
		<path d="M264.7,437.3c-6.1,0-11.3,0-17,0c0-56.4,0-112.6,0-169.5c-28.5,0-56.5,0-84.9,0c0-5.9,0-11.1,0-16.8
			c61.9,0,123.9,0,186.3,0c0,5.2,0,10.4,0,16.3c-27.9,0-56,0-84.5,0C264.7,324.2,264.7,380.4,264.7,437.3z"/>
		<path d="M162.5,335.8c5.9,0,11.1,0,16.8,0c0,28.1,0,56,0,84.4c8.8,0,17.2,0,26.1,0c-0.7-1.4-1.1-2.7-2-3.7
			c-5.8-6.7-7.3-14.3-7-23.1c0.5-18.8,0.2-37.5,0.1-56.3c0-16.4-10.5-26.9-26.8-27.1c-4.9,0-9.9,0-15.2,0c0-5.7,0-11,0-17.5
			c9.2,0.6,18.5,0.2,27.3,2.1c18.4,3.9,31.5,21.1,31.7,40.2c0.2,20.4-0.1,40.7,0.2,61.1c0,3.1,1.3,6.5,2.9,9.2
			c3.6,6.1,7.8,11.8,11.7,17.7c4.9,7.6,1.4,14.5-7.5,14.6c-16.1,0.2-32.2,0.1-48.3,0c-5.9,0-9.7-3-9.7-8.3
			C162.5,398.3,162.5,367.3,162.5,335.8z"/>
		<path d="M357.8,293.1c0,5.9,0,11.1,0,17c-5.5,0-10.7-0.1-16,0c-15.6,0.2-26.2,10.8-26.2,26.5c-0.1,19.8-0.2,39.7,0.1,59.5
			c0.1,6.9-1,12.9-5.6,18.2c-1.3,1.6-2.3,3.5-3.9,5.9c9.1,0,17.4,0,26.2,0c0-28,0-55.8,0-84.1c5.8,0,11.2,0,16.9,0
			c0.1,1.5,0.3,3,0.3,4.6c0,28.5,0,57,0,85.5c0,8.6-2.8,11.5-11.5,11.5c-15,0-30.1,0-45.1,0c-4.3,0-8.1-0.6-10.4-4.8
			c-2.2-4.1-0.6-7.7,2-10.7c12-13.5,15.9-29,14.2-46.9c-1.2-12.8-0.3-25.8-0.2-38.7c0.2-24.7,18.1-42.9,42.8-43.3
			C346.6,293,351.9,293.1,357.8,293.1z"/>
	</g>
</svg>
