<svg version="1.1" id="Isolation_Mode" xmlns="http://www.w3.org/2000/svg" xmlns:xlink="http://www.w3.org/1999/xlink" x="0px"
	 y="0px" viewBox="0 0 512 512" style="enable-background:new 0 0 512 512;" xml:space="preserve">
	<g>
		<path d="M270,0c11.8,1.7,23.8,2.9,35.5,5.1c32.6,6,62.7,18.7,90.5,36.7c4.7,3.1,6,7.5,3.5,11.5c-2.5,4.1-7.1,5-12.2,1.8
			c-17.8-11.2-36.4-20.8-56.6-27C260.5,6.3,193.2,13.2,130.5,51.8C71.2,88.3,34.4,141.6,20.6,210C-4.9,336.3,77.1,461.9,202.9,490
			c127.1,28.4,253.4-47.8,285.2-174.4c21.7-86.5,0.1-163.1-61.2-228.1c-1.3-1.3-2.6-2.6-3.9-3.9c-4.6-4.7-5.1-9-1.6-12.7
			c3.4-3.6,8.4-3.3,12.7,1.3c8.4,9,17.1,17.8,24.6,27.6c29.8,38.4,46.8,82.1,52.1,130.4c0.4,3.6,0.8,7.2,1.2,10.8c0,10,0,20,0,30
			c-0.3,1.8-0.7,3.5-0.9,5.3c-1.2,9.2-1.9,18.6-3.7,27.7c-9.7,51-32.9,95-69.4,131.9c-38.3,38.6-84.2,62.9-137.9,72.2
			c-9.6,1.7-19.4,2.6-29.1,3.9c-10,0-20,0-30,0c-6.8-0.8-13.5-1.5-20.3-2.4c-50.5-7.1-95.1-27.3-133.3-61
			c-45-39.7-73.1-89.2-83.5-148.5C2.3,290.4,1.3,280.7,0,271c0-10,0-20,0-30c0.3-1.8,0.7-3.5,0.9-5.3c1.2-9.2,1.9-18.6,3.7-27.7
			c9.7-51,32.9-95,69.4-131.9c38.3-38.6,84.2-62.9,137.9-72.2c9.6-1.7,19.4-2.6,29.1-3.9C250.7,0,260.3,0,270,0z"/>
		<path d="M367.5,254c7.5-19.7,14.4-38.2,21.4-56.7c0.4-1.1,0.8-2.2,1.2-3.3c1.5-3.5,4-5.8,8-5.7c4,0.1,6.6,2.5,7.6,6.2
			c3.6,12.8,8.1,25.4,10.1,38.5c6,38.8-1.7,75.2-22.6,108.5c-22.9,36.5-55.4,60.3-97,71.3c-62.7,16.5-130.3-7-169-59
			c-33-44.4-41.2-93.6-25.5-146.7c1.3-4.5,2.8-8.8,8.5-9c5.4-0.2,7.2,3.8,8.9,8c23.6,58.6,47.4,117.2,70.9,175.9
			c1.7,4.3,4.1,7,9.1,7.9c4.9-13.3,10-26.6,14.8-40c0.5-1.3-0.1-3.3-0.7-4.7c-20.7-51.6-41.5-103.1-62.2-154.6
			c-1-2.5-2.3-3.6-5.1-3.5c-7.2,0.2-14.3,0.1-21.5,0.1c-8.4-0.1-12-6.3-7.7-13.5c26.5-43.1,64.6-69.6,114.6-77.3
			c51.3-7.9,96.5,6.6,135.1,41.4c6.6,5.9,5.1,12.8-3.5,15.3c-10.9,3.1-18.8,9.3-21.2,20.8c-0.7,3.3-0.7,7.1,0.1,10.3
			C347.6,207.9,357.6,230.2,367.5,254z M222.8,325.8c1.1-2.8,1.7-4.3,2.3-5.8c5.8-15.6,11.6-31.2,17.5-46.7c1.2-3.2,1.1-5.8-0.2-9
			c-9.5-23.2-19-46.5-28.1-69.9c-1.9-4.9-3.7-8.2-10-7.6c-4.2,0.4-7-2.7-7.3-7.3c-0.3-4.3,2.4-7.6,6.9-8.3c1.1-0.2,2.3-0.2,3.5-0.2
			c26.8,0,53.7,0,80.5,0c1.2,0,2.4,0,3.5,0.2c4.2,1,6.8,3.5,6.7,8c-0.1,4.5-2.8,7-7.1,7.6c-2.1,0.3-4.3,0.1-7.2,0.1
			c18.8,46.5,37.3,92.4,56.4,139.7c6-16,11.3-30.6,17.1-44.9c1.9-4.6,1.5-8.3-0.4-12.7c-11.2-25.6-22.6-51.1-29.8-78.3
			c-5.1-19.2,1.1-35.9,17.4-47.1c0.8-0.5,1.7-0.8,3.2-1.6c-41.3-30.4-85.2-39.6-133-25.8c-31.6,9.1-57,27.4-77,54.7
			c2.9,0,4.5,0,6.2,0c8.8,0,17.7-0.1,26.5,0.1c4.9,0.1,8,3.3,8.1,7.8c0.1,4.3-2.7,7.4-7.2,8.1c-1.2,0.2-2.5,0.3-4.1,0.4
			C185.5,233.4,203.9,279,222.8,325.8z M228.4,187c27.6,68.5,54.9,136.1,82.2,203.8c4.9-0.8,7.6-3,9.1-7.6c3.2-10.1,7.2-20,10.5-30.1
			c0.8-2.4,0.7-5.6-0.2-7.9c-9.6-24.3-19.4-48.5-29.2-72.7c-10.9-27.1-21.9-54.3-33-81.4c-0.7-1.6-2.7-3.7-4.1-3.8
			C252.4,186.9,240.9,187,228.4,187z M295.6,396.3c-14.1-34.9-28-69.4-42.5-105.4c-13.3,35.7-26.1,70.1-39,104.7
			C241.2,403.6,268,404,295.6,396.3z M396.8,221.7c-19,50.8-38,101.7-57.3,153.5C387.7,342,412.3,280.2,396.8,221.7z M112.5,232.6
			c-10.8,54,16.7,112.3,56.2,139.3C150,325.4,131.4,279.4,112.5,232.6z"/>
		<path d="M255.9,68.4C317,70,367.1,94,404.8,142.4c25.9,33.2,38.6,71.3,38.6,113.2c0,47.3-15.9,89.1-47.3,124.6
			c-27.4,31-61.4,51.2-101.8,59.2c-56.1,11.2-107.4-0.5-153.2-35.2c-4.4-3.4-5.4-7.9-2.8-11.7c2.8-4,7.5-4.7,12.3-1
			c13.9,10.5,28.8,19.3,45.2,25.2c38.3,13.9,77,14.8,115.5,1.4c47.5-16.5,81.5-48.2,101.9-94.1c13.3-29.7,17-61.1,12.2-93.3
			c-6.4-42.8-26.6-78.2-59.4-106.1c-25.4-21.5-54.8-34.3-87.9-38.6c-73.2-9.5-145,28.6-176.2,95.5c-29.4,63.2-22.2,123.5,18.9,179.8
			c1.6,2.2,3.3,4.2,4.8,6.4c2.4,3.9,1.7,8.1-1.6,10.7c-3.2,2.5-7.9,2.2-10.8-1.1c-3.6-4.1-7.1-8.5-10.2-13
			c-20.9-30.1-32.8-63.4-34.2-100.2c-2.1-54.7,16.2-101.9,54.6-140.6c33.9-34.2,75.6-52.6,124-54.8C250.3,68.8,253.1,68.6,255.9,68.4
			z"/>
	</g>
</svg>
