<?xml version="1.0" encoding="utf-8"?>
<!-- Generator: Adobe Illustrator 23.0.2, SVG Export Plug-In . SVG Version: 6.00 Build 0)  -->
<svg version="1.1" id="Layer_1" xmlns="http://www.w3.org/2000/svg" xmlns:xlink="http://www.w3.org/1999/xlink" x="0px" y="0px"
	 viewBox="0 0 512 512" style="enable-background:new 0 0 512 512;" xml:space="preserve">
<g>
	<path d="M317.8,396.4c3.2,8,5.9,15.2,9,22.3c0.5,1.2,2.7,2.4,4.2,2.4c7.4,0.2,14.8,0.1,22.2,0.1c7.1,0,10.1,2.9,10.1,10
		c0.1,4.8,0,9.5,0,14.8c2.3,0,4.2,0,6,0c19.3,0,38.5,0,57.8,0c6.6,0,10.3,3,10.4,8.1c0.1,5.3-3.8,8.4-10.6,8.4
		c-114.1,0-228.1,0-342.2,0c-6.6,0-10.3-3-10.5-8.1c-0.1-5.3,3.8-8.4,10.6-8.4c21,0,41.9,0,63.7,0c0-5.2-0.1-10.1,0-15
		c0.1-6.7,3-9.7,9.8-9.8c7.6-0.1,15.1,0.1,22.7-0.1c1.4,0,3.4-1,3.9-2.1c3.2-7.2,6-14.6,9.2-22.6c-2.4,0-4.2,0-6,0
		c-50.7,0-101.5,0-152.2,0c-22.3,0-36-13.7-36-36C0,268.7,0,177,0,85.3c0-22,13.7-35.7,35.7-35.7c146.9,0,293.8,0,440.7,0
		c21.7,0,35.5,13.8,35.6,35.4c0,92,0,184.1,0,276.1c0,21.6-13.9,35.3-35.6,35.3c-50.6,0-101.1,0-151.7,0
		C322.6,396.4,320.5,396.4,317.8,396.4z M495.5,338.4c0-2.1,0-3.8,0-5.5c0-82.4,0-164.8,0-247.2c0-13.4-6.2-19.6-19.5-19.6
		c-146.6,0-293.1,0-439.7,0c-13.6,0-19.8,6.2-19.8,19.9c0,82.2,0,164.4,0,246.7c0,1.8,0,3.7,0,5.7
		C176.3,338.4,335.5,338.4,495.5,338.4z M495.8,355.5c-160.3,0-319.7,0-479,0c-2.4,16.6,5.9,24.7,22,24.6
		c145.2-0.3,290.3-0.2,435.5-0.2c1.9,0,3.8,0.1,5.7-0.1c7-0.5,13-5,14.6-11.8C495.6,364.1,495.4,359.9,495.8,355.5z M309.8,421
		c-3.1-7.8-5.8-15-8.9-22c-0.5-1.2-2.4-2.5-3.6-2.5c-27.5-0.1-55-0.1-82.5,0c-1.1,0-2.9,0.7-3.2,1.6c-3.2,7.5-6.2,15.1-9.3,23
		C238.3,421,273.7,421,309.8,421z M346.5,445.7c0-2.7,0-5.2,0-7.6c-60.6,0-120.8,0-181.1,0c0,2.7,0,5,0,7.6
		C225.9,445.7,286.1,445.7,346.5,445.7z"/>
	<path d="M300.2,303.6c-5,3-9.4,5.5-13.8,8.3c-3.7,2.4-7.2,2.4-11.1,0.1c-12.9-7.9-25.9-15.6-38.9-23.3c-3.6-2.1-5.3-5.1-5.3-9.3
		c0.1-15.5,0.1-31,0-46.4c0-4.5,1.8-7.4,5.6-9.6c12.9-7.6,25.7-15.3,38.4-23.1c3.8-2.3,7.3-2.4,11.1-0.1
		c12.9,7.9,25.9,15.6,38.9,23.3c3.6,2.1,5.2,5.1,5.2,9.3c-0.1,15.5-0.1,31,0,46.4c0,4.2-1.5,7.3-5.2,9.4c-3.3,1.9-6.5,3.9-10.3,6.2
		c6.2,6.2,12.1,12.3,18.2,18.1c1,1,3.2,0.9,4.8,0.9c13.2,0.1,26.5,0,39.7,0c6.6,0,10.3,3,10.5,8.1c0.1,5.3-3.8,8.4-10.6,8.4
		c-14.8,0-29.6-0.1-44.4,0.1c-4.5,0.1-7.8-1.5-10.9-4.7C315.1,318.3,307.7,311.1,300.2,303.6z M302.4,283c3.4-2,6.2-3.4,8.6-5.3
		c1.3-1.1,2.7-3.1,2.7-4.8c0.2-11.3,0.2-22.7,0-34c0-1.5-1.2-3.6-2.5-4.4c-9.2-5.7-18.4-11.3-27.8-16.6c-1.4-0.8-4-0.7-5.5,0.1
		c-9.2,5.3-18.4,10.7-27.4,16.4c-1.4,0.9-2.6,3.1-2.7,4.8c-0.2,11.2-0.3,22.3,0,33.5c0,1.8,1.4,4.2,2.9,5.1c7.8,5,16,9.4,23.7,14.5
		c4.9,3.3,8.9,3.7,13.7-1.6c-3.9-3.6-8-7.2-11.9-11c-4.6-4.5-4.9-9.5-1.1-13.1c3.6-3.5,8.3-3.1,12.7,1.3
		C292.7,272.7,297.4,277.7,302.4,283z"/>
	<path d="M188.7,118.3c-6.3-8.8-12.1-17.1-18.2-25.2c-1-1.3-3.4-2.1-5.2-2.1c-10.5-0.2-21-0.1-31.5-0.1c-6.2,0-9.8-3-10-8
		c-0.1-5.2,3.7-8.4,10-8.5c12.6,0,25.1,0.1,37.7-0.1c4.2,0,7.2,1.5,9.6,4.9c7.1,10.1,14.4,20.1,21.8,30.5c4.8-2.8,9.4-5.4,13.8-8.3
		c4.3-2.9,8.1-2.6,12.4,0c12.4,7.6,25,15.1,37.6,22.6c3.9,2.3,5.8,5.4,5.8,10.1c-0.1,15.3-0.1,30.6,0,45.9c0,4.4-1.7,7.5-5.5,9.7
		c-12.9,7.6-25.7,15.3-38.5,23.1c-4,2.5-7.6,2.3-11.5-0.2c-12.6-7.7-25.3-15.3-38-22.8c-4-2.3-5.7-5.5-5.7-10.1
		c0.1-14.6,0.3-29.2-0.1-43.9c-0.1-6.2,2-10.2,7.4-12.8C183.3,121.8,185.7,120.1,188.7,118.3z M212.8,123.5
		c2.7,3.8,5.3,7.2,7.7,10.8c3.5,5.1,3.1,9.8-1,12.7c-4.1,3-8.7,1.9-12.4-3c-2.9-4-5.8-8-8.6-11.8c-6.5,2.1-9.4,5.5-8.8,12.5
		c0.8,9.6,0.1,19.2,0.3,28.9c0.1,1.8,1.4,4.2,2.9,5.1c8.7,5.5,17.7,10.6,26.4,16.1c2.8,1.7,4.8,1.5,7.5-0.1
		c8.6-5.4,17.4-10.3,25.9-15.8c1.6-1,3-3.6,3.1-5.5c0.3-11,0.3-22,0-33c0-1.8-1.4-4.2-2.9-5.1c-6.9-4.5-14.1-8.6-21.1-12.9
		C222.4,116.5,222.4,116.5,212.8,123.5z"/>
	<path d="M379.9,157c0,7.7-0.1,15.5,0,23.2c0.1,4.2-1.7,7.2-5.3,9.3c-13,7.7-26,15.5-38.9,23.3c-3.8,2.3-7.3,2.2-11.1-0.1
		c-12.8-7.8-25.6-15.5-38.4-23.1c-3.8-2.2-5.6-5.2-5.5-9.7c0.1-15.5,0.1-30.9,0-46.4c0-4.2,1.7-7.1,5.3-9.3
		c13-7.7,26-15.5,38.9-23.3c3.8-2.3,7.3-2.2,11.1,0.1c12.8,7.8,25.6,15.4,38.4,23c4,2.4,5.6,5.6,5.5,10.2
		C379.7,141.9,379.9,149.4,379.9,157z M362.9,156.7c0.2,0,0.3,0,0.5,0c0-5.3-0.2-10.7,0.1-16c0.1-3-1-4.6-3.5-6.1
		c-6-3.4-12.3-6.4-17.6-10.7c-8.4-6.8-15.9-7.1-23.9,0.1c-1.1,1-2.6,1.6-3.9,2.4c-5.6,3.4-13.3,5.6-16.1,10.5
		c-2.9,5.1-1,13-1.1,19.7c0,6.7-2.1,14.7,0.8,19.7c3,5.2,10.9,7.7,16.8,11.2c5.1,3.1,10.4,8.1,15.6,8.1c5,0.1,10.1-5.1,15.1-8.1
		c5.8-3.4,13.8-5.7,16.5-10.8C365.1,171.5,362.9,163.5,362.9,156.7z"/>
	<path d="M223,256.1c0,7.6-0.1,15.1,0,22.7c0.1,4.4-1.5,7.6-5.3,9.8c-13,7.7-26,15.5-38.9,23.3c-3.8,2.3-7.3,2.2-11.1-0.1
		c-12.8-7.8-25.6-15.5-38.4-23.1c-3.8-2.2-5.5-5.2-5.5-9.7c0.1-15.5,0.1-30.9,0-46.4c0-4.2,1.7-7.1,5.3-9.3
		c13-7.7,26-15.5,38.9-23.3c3.8-2.3,7.3-2.2,11.1,0.1c12.8,7.8,25.6,15.4,38.4,23c3.8,2.2,5.6,5.3,5.5,9.7
		C222.9,240.7,223,248.4,223,256.1z M206.4,255.8c0-5.7,0.2-11.4-0.1-17c-0.1-1.5-1.2-3.6-2.5-4.4c-9.2-5.7-18.4-11.3-27.9-16.6
		c-1.4-0.8-4-0.7-5.5,0.2c-9.2,5.3-18.4,10.7-27.4,16.4c-1.4,0.9-2.6,3.1-2.7,4.8c-0.2,11.2-0.3,22.3,0,33.5c0,1.8,1.4,4.2,2.9,5.1
		c8.8,5.6,17.8,11.1,26.9,16.2c1.6,0.9,4.7,0.8,6.4-0.1c9-5,17.8-10.4,26.5-15.9c1.6-1,2.9-3.6,3.1-5.6
		C206.7,266.9,206.5,261.3,206.4,255.8z"/>
	<path d="M78,90.8c-8.9,0-17.9,0-26.8,0c-6.1,0-9.8-3.2-9.8-8.2c0-5,3.6-8.3,9.7-8.3c18.2-0.1,36.5,0,54.7,0c6.1,0,9.8,3.2,9.8,8.2
		c0,5-3.7,8.3-9.7,8.3C96.6,90.9,87.3,90.8,78,90.8z"/>
	<path d="M78,115.6c-8.9,0-17.9,0-26.8,0c-6.1,0-9.8-3.1-9.9-8.1c-0.1-5,3.6-8.3,9.7-8.3c18.2-0.1,36.5,0,54.7,0
		c6.1,0,9.8,3.1,9.9,8.1c0.1,5.1-3.7,8.3-10.2,8.4C96.3,115.6,87.2,115.6,78,115.6z"/>
	<path d="M78,140.4c-8.9,0-17.9,0-26.8,0c-6.1,0-9.8-3.1-9.9-8.1c-0.1-5,3.6-8.3,9.7-8.3c18.2-0.1,36.5,0,54.7,0
		c6.1,0,9.8,3.1,9.9,8.1c0.1,5.1-3.7,8.3-10.2,8.4C96.3,140.4,87.2,140.4,78,140.4z"/>
	<path d="M434.1,264.3c8.9,0,17.9,0,26.8,0c6.1,0,9.8,3.2,9.8,8.2c0,5-3.7,8.2-9.8,8.2c-18.2,0-36.5,0-54.7,0
		c-6.1,0-9.8-3.2-9.8-8.2c0-5,3.7-8.2,9.8-8.2C415.5,264.2,424.8,264.3,434.1,264.3z"/>
	<path d="M433.5,305.5c-9.1,0-18.2,0-27.3,0c-6.1,0-9.8-3.2-9.8-8.2c0-5,3.7-8.2,9.8-8.2c18.2,0,36.5,0,54.7,0
		c6.1,0,9.8,3.2,9.8,8.2c0,5-3.7,8.2-9.8,8.3C451.8,305.6,442.7,305.5,433.5,305.5z"/>
	<path d="M417.2,313.8c4,0,7.9-0.1,11.9,0c5.2,0.2,8.7,3.7,8.5,8.4c-0.1,4.5-3.5,7.9-8.4,8c-8.1,0.2-16.2,0.2-24.2,0
		c-5.2-0.1-8.7-3.7-8.5-8.4c0.1-4.5,3.5-7.8,8.4-8C409,313.7,413.1,313.8,417.2,313.8z"/>
	<path d="M458,330.3c-1.5,0-3.1,0.2-4.6,0c-4.5-0.7-7.1-3.4-7.4-8c-0.3-4.3,3-7.9,7.5-8.3c2.7-0.3,5.5-0.2,8.2-0.1
		c5.3,0.2,8.8,3.4,8.9,8c0.1,4.8-3.5,8.2-9.1,8.5C460.4,330.4,459.2,330.3,458,330.3C458,330.3,458,330.3,458,330.3z"/>
</g>
</svg>
