<svg version="1.1" xmlns="http://www.w3.org/2000/svg" xmlns:xlink="http://www.w3.org/1999/xlink" x="0px"
	 y="0px" viewBox="0 0 512 512" style="enable-background:new 0 0 512 512;" xml:space="preserve">
	<path d="M513,386c-4.2,11.5-11.8,18.2-24.5,18.1c-0.9,0-2,1.3-2.6,2.3c-0.9,1.6-1.1,3.5-2,5.1c-3.6,6.3-4.8,11.5,1.1,18.2
		c6.2,7.1,4.3,18.6-2.2,25.8c-4.7,5.2-9.6,10.2-14.8,14.9c-8.8,8-21.7,7.9-30.3-0.3c-2.7-2.5-4.8-3-7.6-1c-0.1,0.1-0.3,0.1-0.5,0.2
		c-8.3,2.5-14.3,5.8-15.3,16.4c-0.8,9.1-10.8,15.1-20.3,15.3c-6.2,0.2-12.3,0.1-18.5,0c-12.5-0.2-21.9-8.7-22.7-21.3
		c-0.3-4.3-2-5.7-5.6-7.2c-7.4-3.1-13.5-6.4-21.5,0.9c-6.6,6-17.9,3.5-24.8-2.8c-5.2-4.7-10.2-9.6-14.9-14.8
		c-8.1-8.9-7.9-21.6,0.4-30.3c2.6-2.7,2.9-4.7,1-7.7c-1.2-2-1.9-4.2-2.8-6.4c-2.9-7.4-2.9-7.4-11.1-7.4c-25,0-50,0-75,0
		c-6.6,0-10.8-3.4-11.4-8.8c-0.7-6.6,3.7-11.2,10.9-11.2c17.2-0.1,34.3,0,51.5,0c1.8,0,3.6,0,6,0c0-6.4,0-12.4,0-18.3
		c0.1-15.2,8.1-23.7,23.2-25.1c1.5-0.1,3.5-1.6,4.2-3c2.3-4.8,4.1-9.8,6.2-15c-1.1-1.2-2.3-2.5-3.5-3.8c-7.6-8.9-7.5-21.5,0.5-30.1
		c4.3-4.6,8.8-9.1,13.4-13.5c9.2-8.9,22.1-9.2,31.5-0.5c2.6,2.4,4.5,2.9,7.3,0.9c0.9-0.7,2.1-1.2,3.2-1.4c7.2-1.8,11.4-5.1,12.1-13.8
		c0.7-9,9.2-15.6,18.3-16.4c7.1-0.6,14.3-0.6,21.5-0.3c12.9,0.5,21.4,8.8,22.3,21.7c0.2,3.4,1.2,4.9,4.5,5.9c4,1.2,7.6,3.3,11.5,4.7
		c1.4,0.5,3.7,0.4,4.6-0.5c5.5-5.4,11.9-7.7,19.9-7.3c0-33.7,0-67.3,0-101.2c-144.7,0-289.5,0-434.8,0c0,1.9,0,3.7,0,5.5
		c0,58.2-0.1,116.3,0.2,174.5c0,6.3,1.2,13.1,3.6,18.9c4.8,12,13.9,18.5,27.5,18.3c17.7-0.3,35.3-0.1,53-0.1
		c7.7,0,12.2,3.8,12.2,10.1c-0.1,6.2-4.7,10-12.4,10c-17.2,0-34.4-0.6-51.5,0.1C23,405.5,5.7,382,2,360.3c-0.2-1.1-0.6-2.2-1-3.3
		c0-99,0-198,0-297c0.3-1.3,0.8-2.5,1-3.8C6.6,30.6,26,13,50,13c125.9,0,251.9,0,377.8,0c13.1,0,24,4.7,33,14.1
		c11.8,12.3,15.8,27.3,15.8,43.9c-0.1,68.1,0,136.3-0.1,204.4c0,4.8,1.2,8.3,4.7,11.8c9.5,9.4,9.6,22.3,0.6,32.2
		c-0.9,1-1.7,2-2.4,2.8c2.1,5.2,3.9,10.2,6.3,15c0.7,1.5,2.9,3.2,4.4,3.3c5.7,0.4,11.1,1.6,15,5.8c3.2,3.4,5.3,7.8,7.9,11.8
		C513,367.3,513,376.7,513,386z M456.3,146c0-5.5,0-10.5,0-15.5c-0.1-22.2,0.3-44.3-0.3-66.5c-0.6-19.3-13.4-30.9-32.5-30.9
		c-52.8,0-105.7,0-158.5,0c-71.2,0-142.3,0.1-213.5-0.1c-11.6,0-20.2,5-25.1,15c-3,6.1-4.9,13.3-5.1,20c-0.6,24.8-0.2,49.7-0.2,74.5
		c0,1.1,0.2,2.2,0.4,3.5C166.4,146,311,146,456.3,146z M312.7,320.2c-1.5,3.3-2.6,5.7-3.6,8.1c-3.1,7.3-6.5,14.5-9,22.1
		c-2.7,8-5.1,10.4-13.4,10.4c-11.1,0.1-11.1,0.1-11.1,11.2c0,11.8,0,11.8,12,11.9c7.5,0.1,10,2.4,12.4,9.6c2.7,7.8,5.8,15.5,9.5,23
		c3.6,7.3,3.5,10.5-2.3,16.4c-7.9,8-7.9,8,0.2,16c8.1,8.1,8.1,8.1,16.4,0c5.7-5.6,8.8-5.6,16-2.1c7.1,3.5,14.5,6.7,22,9.2
		c8.9,2.9,10.9,5,10.9,14.6c0.1,11.6-1.2,10.3,10.5,10.3c14.4-0.1,12.4,1.9,12.6-12.3c0.1-7.3,2.4-9.6,9.4-12.1
		c8-2.8,15.9-6,23.4-9.7c7.3-3.6,10.3-3.6,16,2.1c8.3,8.2,8.3,8.2,16.4,0c8.1-8.1,8.1-8.1-0.1-16.4c-5.6-5.6-5.6-8.8-2-16
		c3.5-7.1,6.7-14.5,9.2-22c2.9-8.7,4.8-10.6,14.2-10.6c11.6,0,10.5,1,10.6-10.4c0-12.4,0-12.4-12.1-12.7c-7.1-0.2-9.8-2.7-12.2-9.5
		c-2.7-7.8-5.8-15.6-9.4-23c-4-8.1-4-10.8,2.3-17.2c8.8-9,8.7-6.4-0.1-15.3c-8.4-8.5-8.4-8.4-17.1-0.1c-5.2,5-8.7,5.2-15.2,2
		c-7.6-3.7-15.4-7.1-23.4-9.7c-8-2.7-10.3-5-10.4-13.5c-0.1-10.8-0.1-10.8-10.9-10.8c-12,0-12,0-12.2,12.1c-0.1,7.2-2.5,9.8-9.4,12.2
		c-8,2.8-15.8,6-23.4,9.8c-6.9,3.4-10.3,3.4-15.7-1.8c-8.6-8.3-8.6-8.3-17.2,0.3c-7.5,7.5-7.4,7.4-0.2,15
		C308.9,313.9,310.7,317.2,312.7,320.2z"/>
	<path d="M226.5,275.1c-8-9-15.6-17.5-23.2-26.1c-5-5.6-5.1-11.8-0.3-15.8c4.6-3.9,10.4-3,15.3,2.4c8.7,9.6,17.3,19.3,25.9,29.1
		c6.2,7.1,6.2,13.8,0,20.9c-8.7,9.9-17.4,19.7-26.2,29.5c-4.7,5.2-11,5.8-15.4,1.7c-4.3-4-4.2-10,0.3-15.1
		C210.7,292.9,218.4,284.2,226.5,275.1z"/>
	<path d="M80.4,275.1c7.7,8.7,15.1,16.9,22.5,25.3c1.5,1.7,3.1,3.6,3.9,5.7c1.7,4.3-0.2,9.3-4.1,11.8c-4,2.5-9.2,1.9-12.8-1.8
		c-5.2-5.6-10.3-11.4-15.3-17.1c-4.2-4.7-8.5-9.4-12.6-14.2c-5.2-6.2-5.4-13-0.2-19c9.1-10.4,18.3-20.7,27.6-31
		c4.3-4.8,10.4-5.2,14.6-1.4c4.3,3.8,4.5,9.9,0.4,14.7c-3.9,4.6-8,9-12,13.4C88.6,265.9,84.7,270.2,80.4,275.1z"/>
	<path d="M173.4,234.8c-1.9,8-4.1,17.3-6.3,26.5c-4.4,18.6-8.8,37.2-13.3,55.8c-0.2,0.6-0.4,1.3-0.6,1.9c-1.8,5.9-6.8,9-12.1,7.7
		c-5.4-1.3-8.7-6.4-7.3-12.3c4.1-18,8.5-36,12.8-53.9c2.4-10,4.7-20.1,7.3-30.1c1.4-5.2,6.3-8,11.1-7.2
		C170.1,224.2,173.5,228.4,173.4,234.8z"/>
	<path d="M152.3,383.9c5.8,0,10.2,4.4,10.2,10c0,5.7-4.6,10.1-10.3,10c-5.3-0.1-9.9-4.6-10-9.9C142,388.5,146.6,383.9,152.3,383.9z"
		/>
	<path d="M345.8,123.9c-15.3,0-30.7,0.3-46-0.1c-17-0.4-30.4-13.2-32.6-30.2c-2-15.9,8.7-31.6,24.7-36c2.7-0.7,5.6-1.3,8.4-1.3
		c30.3-0.1,60.6-0.3,91,0.1c16.1,0.2,28.6,11.1,32.1,26.5c3.3,14.3-3.2,29.6-16.5,36.4c-5.3,2.7-11.7,4.2-17.6,4.5
		C374.8,124.4,360.3,124,345.8,123.9C345.8,123.9,345.8,123.9,345.8,123.9z M345.9,76.5c-14.8,0-29.6-0.2-44.5,0.1
		c-8.4,0.1-14.3,6.1-14.2,13.7c0.1,7.4,5.8,13.4,13.9,13.5c29.6,0.2,59.3,0.1,88.9,0c5.8,0,10.3-2.8,12.7-8.2
		c4.2-9.3-2.4-18.9-13.4-19C374.9,76.3,360.4,76.4,345.9,76.5z"/>
	<path d="M216,90.2c0,18.5-15.2,33.7-33.6,33.7c-18.6,0.1-34.1-15.3-34-33.9c0.1-18.5,15.3-33.7,33.7-33.8
		C200.7,56.1,216.1,71.5,216,90.2z M182.2,76.5c-7.6,0-13.6,6.1-13.5,13.7c0.1,7.4,6,13.4,13.3,13.5c7.4,0.1,13.8-6.1,13.9-13.5
		C196,82.7,189.8,76.5,182.2,76.5z"/>
	<path d="M128.3,89.9c0.1,18.8-15.1,34-33.8,34c-18.5,0-33.6-15.1-33.6-33.7c-0.1-18.8,15.2-34.1,33.8-34
		C113.2,56.3,128.2,71.4,128.3,89.9z M81,90c-0.1,7.5,6.2,13.8,13.6,13.8c7.4,0,13.6-6.3,13.6-13.8c0-7.4-5.9-13.3-13.3-13.5
		C87.3,76.4,81,82.4,81,90z"/>
	<path d="M322.6,372.3c0-34,27.6-61.6,61.6-61.5c34,0.1,61.7,27.8,61.6,61.7c-0.1,33.6-27.9,61.3-61.5,61.4
		C350.4,434,322.6,406.2,322.6,372.3z M342.8,372c-0.1,23,18.6,41.8,41.5,41.7c22.7-0.1,41.3-18.8,41.3-41.4
		c0-22.8-18.5-41.3-41.3-41.3C361.4,330.9,342.9,349.1,342.8,372z"/>
</svg>
