<svg version="1.1" xmlns="http://www.w3.org/2000/svg" xmlns:xlink="http://www.w3.org/1999/xlink" x="0px"
	 y="0px" viewBox="0 0 512 512" style="enable-background:new 0 0 512 512;" xml:space="preserve">
	<g>
		<path d="M512,359c-2.8,4.1-6.7,5.1-11.6,5.1c-37.6-0.2-75.3-0.1-112.9-0.1c-9.2,0-11.5-2.3-11.5-11.5c0-35.2,0-70.3,0-105.5
			c0-8.5,2.5-11,11-11c37.8,0,75.6,0.1,113.4-0.1c4.9,0,8.8,1,11.6,5.1C512,280.4,512,319.7,512,359z M495.9,276.3
			c-34.8,0-69.2,0-103.5,0c0,24,0,47.7,0,71.3c34.7,0,69.1,0,103.5,0C495.9,323.7,495.9,300.3,495.9,276.3z M392.2,259.7
			c34.8,0,69.2,0,103.6,0c0-2.6,0-4.9,0-7.4c-34.6,0-69,0-103.6,0C392.2,254.8,392.2,257.1,392.2,259.7z"/>
		<path d="M0,257c2.8-4.1,6.7-5.1,11.6-5.1c37.6,0.2,75.3,0.1,112.9,0.1c9.2,0,11.5,2.3,11.5,11.5c0,29.6,0,59.3,0,88.9
			c0,9.1-2.5,11.6-11.5,11.6c-37.6,0-75.3-0.1-112.9,0.1c-4.9,0-8.8-1-11.6-5.1C0,325,0,291,0,257z M119.7,268.4
			c-34.7,0-69.1,0-103.4,0c0,26.7,0,53.1,0,79.1c8.1,2.3,13.5-0.2,17.7-7.2c4.2-6.9,9.6-13.2,14.6-19.6c4.6-6,10-6,14.8,0
			c2.5,3.2,5,6.5,7.8,10.1c5.7-8.6,11.1-16.6,16.4-24.6c5.6-8.4,11.1-8.3,16.8,0.2c4.9,7.3,9.7,14.5,15.2,22.8
			C119.7,308.1,119.7,288.4,119.7,268.4z M79.1,347.8c11.6,0,22.2,0,33.7,0c-5.7-8.6-11.1-16.6-16.8-25.3
			C90.3,331.1,84.9,339.1,79.1,347.8z M56.5,336.7c-3.3,4.5-5.6,7.5-8.4,11.3c2.1,0,3.2,0.1,4.1,0c2.9-0.5,5.8-1.2,8.7-1.8
			C59.6,343.4,58.3,340.6,56.5,336.7z"/>
		<path d="M208,404.1c0-6.7,0.1-12.7-0.1-18.6c-0.1-1.3-1.2-3.1-2.3-3.9c-30.5-21.5-42.9-43.4-45.8-81.3c-6.7-1.1-8-5.9-7.9-12
			c0.2-13.8,0.1-27.7,0.1-41.5c0-7,1.1-8.6,6.9-10.8c1.4-9.9,1.7-19.7,4.1-28.9c9-34.5,40.3-58.6,76-59c21-0.2,42-0.1,63,0
			c7.2,0,10,2.8,10,10c0,7.5,0,15,0,22.7c13,2.7,23.4,9,31,19.6c7.6,10.5,9.8,22.4,8.8,35.4c7,1.3,8.3,6,8.2,12.2
			c-0.3,13.8-0.1,27.7-0.1,41.5c0,7-1.1,8.6-7.9,11.1c-0.4,14.4-3.3,28.3-9.8,41.3c-7.9,16.1-19.3,29.1-34.4,38.7c-3.1,2-4.2,4-4,7.6
			c0.3,5.1,0.1,10.3,0.1,15.9c7.3,0,14.3,0,21.2,0c34.8,0.1,58.7,24,58.8,58.7c0,6.7,0.1,13.3,0,20c-0.1,5.8-3.3,9.4-8.2,9.2
			c-4.7-0.1-7.6-3.6-7.8-9.2c-0.3-10.1,0.4-20.4-1.1-30.4c-2.7-18.3-18.9-31.7-37.3-32.3c-9.2-0.3-18.3-0.2-27.5,0
			c-1.6,0-3.5,0.9-4.7,2c-3.7,3.3-7.1,7-10.7,10.5c-3.1,3.1-6.7,4.5-10.9,2.4c-13.3-6.8-26.6-6.7-39.9,0c-4.2,2.1-8.2,0.9-10.7-2.6
			c-7.9-11.1-18.5-14.4-31.5-12.5c-6.7,1-13.8,0.1-20.3,1.8c-17.6,4.4-29.2,20-29.4,38.2c-0.1,7.5,0,15,0,22.5c0,5.9-3.1,9.5-7.9,9.6
			c-4.9,0.1-8.2-3.5-8-9.4c0.4-12.1-0.4-24.5,2.1-36.2c5.1-24.5,27.3-41.6,52.3-42.3C190.7,403.9,199,404.1,208,404.1z M176.7,298.9
			c-2,24,11.7,53.4,36.1,68.3c29,17.7,58.4,17.5,87.2-0.6c24.1-15.1,37.3-44.5,35.3-66.7c-0.6,0.7-1.1,1-1.4,1.5
			c-5.1,10.5-13.5,14.7-25,14.7c-35.6-0.2-71.3-0.1-106.9-0.1c-2.3,0-4.7-0.1-6.9-0.6C186.4,313.6,180.9,307.9,176.7,298.9z
			M176.7,236.2c9.6-14.5,12.9-16.2,30.3-16.2c33.3,0,66.6,0.3,100-0.1c12.6-0.1,22,3.9,27.6,15.6c0.1,0.1,0.6,0.1,1.4,0.2
			c0-2,0-3.9,0-5.8c-0.1-19.4-12.2-32.4-31.3-33.9c-5.9-0.4-8.6-3.3-8.6-9.4c-0.1-7.4,0-14.9,0-22.7c-18.9,0-37.2,0-55.5,0
			c-12.6,0-24.3,3.4-35,10.2C185,187.1,172.6,213.3,176.7,236.2z M256.1,300c18,0,36,0,53.9,0c7.1,0,9.9-2.8,9.9-10
			c0-14.8,0-29.6,0-44.4c0-6.6-2.9-9.5-9.4-9.5c-36.3,0-72.6,0-108.9,0c-6.8,0-9.6,2.9-9.7,9.8c0,14.6,0,29.3,0,43.9
			c0,7.6,2.7,10.3,10.2,10.3C220.2,300,238.1,300,256.1,300z M224.1,391c0.2,9-2.7,18.2,6.6,24.7c2.9,2,4.9,3.3,8.2,1.6
			c11.2-5.7,22.6-6,33.8-0.1c3.7,1.9,6.5,1.2,8.9-2.1c2-2.7,5.4-5.1,6-8.1c1-5.1,0.3-10.5,0.3-15.9C250,399.5,246.2,395.8,224.1,391z
			M168.4,252.1c0,10.6,0,21.1,0,31.6c2.6,0,5,0,7.2,0c0-10.7,0-21.1,0-31.6C173.1,252.1,170.9,252.1,168.4,252.1z M343.6,283.8
			c0-10.9,0-21.3,0-31.5c-2.7,0-4.9,0-7.3,0c0,10.7,0,21,0,31.5C338.9,283.8,341.2,283.8,343.6,283.8z"/>
		<path d="M176,116c0.1,43.7-35.7,79.9-79.2,80C52.3,196.2,16,160.2,16,116c0-44,35.8-79.9,79.7-80C139.9,35.9,175.9,71.8,176,116z
			M76.8,176.5c19.4,8.5,47.6,1.6,64.6-15.4c18.3-18.3,22.2-45.8,15.8-61.1c-15.1,0-30.2,0.1-45.4,0c-11.1-0.1-20.2-7.4-23-18
			c-2.8-10.6,1.8-21.2,11.5-26.8c1-0.6,2-1.2,2.9-1.9c-22.3-2.7-41,4.2-55.5,20.9C33.3,90.9,28.9,110.2,34.1,132c5.4,0,10.4,0,15.4,0
			c5,0,10-0.1,15,0c9.9,0.3,18.4,6.3,21.9,15.5c3.5,9.2,1.2,19.1-6.3,26C79.1,174.6,77.9,175.5,76.8,176.5z M150.3,84
			c0.3-0.4,0.5-0.8,0.8-1.3c-3.8-4.4-7.4-8.8-11.3-13.1c-0.8-0.9-2.3-1.5-3.4-1.5c-8.3-0.1-16.6-0.2-24.9,0.1
			c-4.4,0.1-7.4,3.8-7.4,7.9c0,4.2,3.1,7.8,7.5,7.8C124.4,84.1,137.4,84,150.3,84z M41.7,148c2.9,10.4,11.8,16.7,22.1,16
			c4.7-0.4,8-3.5,8.1-7.8c0.1-4.5-3.3-8-8.3-8.1C56.4,147.9,49.1,148,41.7,148z"/>
		<path d="M375.5,116c-12.5,0-25,0-37.5,0c-7.2,0-10-2.8-10-10c0-25.3,0-50.7,0-76c0-7.2,2.8-10,10-10c25.3,0,50.7,0,76,0
			c7.2,0,10,2.8,10,10c0,25.3,0,50.7,0,76c0,7.2-2.8,10-10,10C401.2,116.1,388.3,116,375.5,116z M407.6,99.8c0-21.4,0-42.5,0-63.4
			c-21.4,0-42.4,0-63.4,0c0,21.3,0,42.2,0,63.4C365.4,99.8,386.4,99.8,407.6,99.8z"/>
		<path d="M392,159.5c0-6.2-0.1-12.3,0-18.5c0.1-5.9,3-8.9,9-9c12.7-0.1,25.3-0.1,38,0c5.9,0,8.9,3.1,9,9c0.1,12.7,0.1,25.3,0,38
			c0,5.9-3.1,8.9-9,9c-12.7,0.1-25.3,0.1-38,0c-5.9,0-8.9-3-9-9C391.9,172.5,392,166,392,159.5z M408.2,171.8c8.2,0,15.7,0,23.5,0
			c0-8,0-15.7,0-23.4c-8,0-15.7,0-23.5,0C408.2,156.3,408.2,163.9,408.2,171.8z"/>
		<path d="M304,76.5c0,5,0.1,10,0,15c-0.2,5.3-3.1,8.4-8.4,8.5c-10.3,0.1-20.7,0.1-31,0c-5.3-0.1-8.4-3.1-8.5-8.4
			c-0.1-10.3-0.1-20.7,0-31c0.1-5.3,3.1-8.4,8.4-8.5c10.3-0.1,20.7-0.1,31,0c5.3,0.1,8.3,3.1,8.5,8.4C304.1,65.8,304,71.2,304,76.5z
			M287.8,83.8c0-5.5,0-10.4,0-15.5c-5.3,0-10.3,0-15.4,0c0,5.3,0,10.4,0,15.5C277.6,83.8,282.5,83.8,287.8,83.8z"/>
		<path d="M444.1,308c-8.6,0-17.3,0-25.9,0c-6,0-9.3-3-9.3-8c0-5,3.4-8,9.3-8c17.5,0,34.9,0,52.4,0c5.9,0,9.4,3.2,9.4,8
			c0,4.8-3.6,7.9-9.4,8C461.7,308.1,452.9,308,444.1,308z"/>
		<path d="M432.2,332c-5,0-10,0.1-14.9,0c-5.2-0.1-8.4-3.2-8.4-7.9c0-4.7,3.1-8,8.2-8c10.1-0.1,20.3-0.1,30.4,0
			c5.1,0.1,8.5,3.4,8.5,7.9c0.1,4.7-3.4,8-8.8,8.1C442.2,332.1,437.2,332,432.2,332z"/>
		<path d="M48.1,292.2c-0.1,4.4-3.6,7.8-7.9,7.8c-4.2,0-7.9-3.7-8-7.9c-0.1-4.4,3.9-8.2,8.3-8C44.9,284.2,48.2,287.8,48.1,292.2z"/>
		<path d="M255.9,276c-12.7,0-25.3,0-38,0c-6.3,0-9.9-3-9.9-8c0-5,3.7-7.9,10-7.9c25.3,0,50.7,0,76,0c6.3,0,9.9,3.1,9.9,8.1
			c0,5-3.7,7.9-10,7.9C281.3,276,268.6,276,255.9,276z"/>
	</g>
</svg>
