<svg version="1.1" xmlns="http://www.w3.org/2000/svg" xmlns:xlink="http://www.w3.org/1999/xlink" x="0px" y="0px"
	 viewBox="0 0 512 512" style="enable-background:new 0 0 512 512;" xml:space="preserve">
	<g>
		<path d="M339.2,0c0.6,0.3,1.2,0.8,1.8,1c11.6,4.6,17.5,12.7,17.6,25.2c0.1,33.6,0.2,67.2,0,100.8c-0.1,16.2-10.5,26.6-26.8,26.8
			c-15.6,0.2-31.2,0-47.9,0c1.6,8.1,3,15.6,4.7,23.1c0.2,0.9,2,1.7,3.1,1.9c2.1,0.3,4.2,0.1,6.7,0.1c0,5.8,0,11.2,0,17.1
			c-28.2,0-56.5,0-85.1,0c0-5.5,0-10.9,0-16.3c0.3-0.2,0.6-0.6,0.9-0.6c9.1-0.8,9.1-0.8,10.8-10c0.9-4.8,1.8-9.7,2.8-15.3
			c-4.2,0-7.9,0-11.5,0c-11.7,0-23.5,0.1-35.2,0c-17.5-0.1-27.8-10.4-27.8-27.9c-0.1-31.6,0.4-63.3-0.2-94.9
			c-0.3-15.2,5.2-25.7,19.6-31.1C228.3,0,283.7,0,339.2,0z M341.1,101.9c0-2.2,0-3.8,0-5.4c0-22.4,0-44.8,0-67.1
			c0-9.5-2.5-12-12.1-12c-48.7,0-97.3,0-146,0c-9.6,0-12.1,2.5-12.1,12c0,22.4,0,44.8,0,67.1c0,1.7,0.2,3.4,0.3,5.4
			C227.9,101.9,284.1,101.9,341.1,101.9z M340.5,120.1c-56.5,0-112.7,0-168.9,0c-2.2,12.3,1,16.2,12.8,16.2c47.8,0,95.5,0,143.3,0
			C339.4,136.3,342.6,132.4,340.5,120.1z M270.6,178.7c-1.5-7.8-2.8-15-4.4-22.2c-0.2-1.1-2.1-2.4-3.2-2.5c-4.6-0.3-9.2-0.3-13.8,0
			c-1.2,0.1-3.1,1.3-3.3,2.4c-1.7,7.3-3,14.7-4.5,22.4C251.3,178.7,260.5,178.7,270.6,178.7z"/>
		<path d="M0,334.9c0.3-0.6,0.8-1.2,1-1.8c4.4-11.6,12.9-17.6,25.2-17.6c50.8-0.1,101.6-0.1,152.5,0c15.6,0.1,26.2,10.6,26.2,26.1
			c0.2,33.9,0.2,67.9,0,101.8c-0.1,15.5-10.7,25.8-26.3,26.1c-13.9,0.2-27.7,0.1-41.6,0.1c-1.9,0-3.9,0-6.6,0
			c1.6,7.9,2.9,15.3,4.6,22.7c0.2,1,2.1,2.1,3.4,2.3c2,0.4,4.2,0.1,6.7,0.1c0,6.1,0,11.7,0,17.3c-28.4,0-56.9,0-85.3,0
			c0-5.6,0-11.2,0-17.3c2.5,0,4.6,0.3,6.7-0.1c1.3-0.2,3.2-1.3,3.4-2.3c1.7-7.3,3-14.7,4.6-22.7c-2.7,0-4.7,0-6.6,0
			c-13.7,0-27.3-0.1-41,0c-8.1,0.1-15.2-2.4-20.4-8.6c-2.7-3.2-4.3-7.2-6.4-10.9C0,411.7,0,373.3,0,334.9z M17.3,417.5
			c57.2,0,113.4,0,170.2,0c0-2.1,0-3.8,0-5.6c0-22.2,0-44.4,0-66.6c0-9.9-2.4-12.3-12.3-12.3c-48.5,0-97,0-145.5,0
			c-9.9,0-12.3,2.4-12.3,12.3c0,22.2,0,44.4,0,66.6C17.3,413.7,17.3,415.4,17.3,417.5z M186.8,435.8c-56.5,0-112.7,0-168.9,0
			c-2.1,12.3,1,16.2,12.8,16.2c47.8,0,95.5,0,143.3,0C185.8,452,189,448.1,186.8,435.8z M116.9,494.4c-0.6-3.6-1.1-6.8-1.7-10.1
			c-2.8-15.1-2.8-15.1-18.3-14.8c-0.5,0-1.2-0.2-1.6,0.1c-1.1,0.6-2.7,1.3-3,2.2c-1.7,7.3-3,14.8-4.6,22.5
			C97.7,494.4,107.1,494.4,116.9,494.4z"/>
		<path d="M366.9,512c0-5.5,0-11,0-16.4c0.3-0.3,0.6-0.7,0.9-0.7c9.3-0.9,9.2-0.9,11-10.4c0.8-4.7,1.8-9.3,2.8-14.9
			c-2.2,0-3.9,0-5.6,0c-13.7,0-27.4,0.1-41,0c-17.8-0.1-28-10.4-28-28.2c-0.1-32.5-0.1-65,0-97.6c0-18.1,10.2-28.3,28.4-28.3
			c48.5,0,97,0.3,145.5-0.2c15.2-0.1,25.7,5.2,31.1,19.6c0,38.4,0,76.8,0,115.2c-5.4,14.4-15.9,20.3-31,19.6
			c-12.6-0.6-25.2-0.1-37.8-0.1c-1.7,0-3.3,0-5.5,0c1.1,5.6,2,10.3,2.8,14.9c1.7,9.4,1.7,9.4,11,10.4c0.3,0,0.5,0.4,0.8,0.7
			c0,5.4,0,10.9,0,16.4C423.8,512,395.4,512,366.9,512z M494.7,417.6c0-2.2,0-3.7,0-5.3c0-22.4,0-44.8,0-67.1c0-9.6-2.5-12-12-12
			c-48.7,0-97.3,0-146,0c-9.6,0-12.1,2.5-12.1,11.9c0,22.4,0,44.8,0,67.1c0,1.7,0.2,3.4,0.3,5.4C381.5,417.6,437.7,417.6,494.7,417.6
			z M494,435.8c-56.5,0-112.8,0-168.9,0c-2.1,12.4,1,16.2,12.8,16.2c47.8,0,95.5,0,143.3,0C493,452,496.2,448.1,494,435.8z
				M424.1,494.4c-0.6-3.6-1.1-6.8-1.7-10.1c-2.9-15.1-2.9-15.1-18.3-14.8c-0.4,0-0.8-0.1-1,0c-1.3,0.9-3.4,1.6-3.6,2.8
			c-1.7,7.2-2.9,14.4-4.4,22C404.9,494.4,414.2,494.4,424.1,494.4z"/>
		<path d="M418.4,298.6c-6,0-11.4,0-17.4,0c0-11.1,0-22,0-33.4c-99.5,0-198.4,0-298.1,0c0,10.9,0,22,0,33.3c-6.2,0-11.6,0-17.5,0
			c-0.1-1.7-0.3-3.4-0.3-5.1c0-10.8,0-21.7,0-32.5c0-11.8,1.8-13.7,13.5-13.7c47.1,0,94.2,0,141.3,0c2.1,0,4.2,0,7.1,0
			c0-11.4,0-22.4,0-33.8c6.2,0,11.6,0,17.6,0c0,11,0,22,0,33.8c2.6,0,4.6,0,6.7,0c44.6,0,89.2,0,133.8,0c11.3,0,13.3,2,13.3,13.4
			C418.4,273.2,418.4,285.8,418.4,298.6z"/>
		<path d="M221.9,409.5c0-5.8,0-11.2,0-16.9c22.7,0,45.2,0,68,0c0,5.5,0,11,0,16.9C267.4,409.5,245,409.5,221.9,409.5z"/>
	</g>
</svg>
