<?xml version="1.0" encoding="utf-8"?>
<!-- Generator: Adobe Illustrator 23.0.2, SVG Export Plug-In . SVG Version: 6.00 Build 0)  -->
<svg version="1.0" id="Layer_1" xmlns="http://www.w3.org/2000/svg" xmlns:xlink="http://www.w3.org/1999/xlink" x="0px" y="0px"
	 viewBox="0 0 512 512" style="enable-background:new 0 0 512 512;" xml:space="preserve">
<style type="text/css">
	.st0{fill:#040404;}
</style>
<g>
	<path class="st0" d="M0,340.9c2.7-7.1,2.7-14.8,4.8-22.1c2.8-9.8,6.1-19.3,10.6-28.4c3.6-7.2,9-9.8,14.6-7.2
		c5.7,2.7,6.8,8.5,3.5,15.9c-20,43.3-19,86.1,5.5,127c26.9,44.9,67.8,67,120,65.3c51.6-1.7,89.7-26.9,114.5-72.2
		c0.6-1,1-2.1,1.5-3.1c0.1-0.3,0.1-0.6,0.1-1.1c-1.4-0.7-2.8,0.1-4.2,0.1c-4.6,0-8.6-2.7-9.7-7.1c-1.2-4.6-0.2-9,4.3-11.2
		c8.4-4.1,16.9-7.8,25.5-11.3c4.6-1.8,8.9,0.2,11,4.4c4,8,7.6,16.2,11,24.5c1.9,4.7-0.2,9.7-4.4,12.1c-4.7,2.7-9.2,1.4-14-3.9
		c-1.4,0.8-1.6,2.4-2.3,3.7c-24.4,47.6-63.4,74.8-115.8,83.6c-3.1,0.5-6.5-0.1-9.4,1.8c-10,0-20,0-30,0c-3-2-6.5-1.6-9.8-2.2
		c-61.3-10.7-110-57.4-123.4-118.1c-1.3-5.9-1.2-12-3.8-17.6C0,362.9,0,351.9,0,340.9z"/>
	<path class="st0" d="M237.2,96.7c0.2,0.1,0.3,0.2,0.5,0.2c8.6-0.4,12.2,1.6,13.6,7.5c1.3,5.6-1.3,9.3-9.1,12.8
		c-6.1,2.7-12.1,5.5-18.2,8c-7,2.9-11.8,1-15-6c-3-6.5-5.8-13-8.7-19.6c-2.8-6.5-1.7-11.6,3.2-14.5c4.6-2.8,9.5-1.5,14,3.7
		c1.7-0.3,1.7-1.9,2.2-3C248.8,27.6,307.2-5,372,0.7c66.4,5.9,119.5,50.6,135.3,115.4c21.9,89.9-34.8,172.2-117,188.3
		c-53.2,10.4-100.8-2.1-140.2-40.5c-29.8-29.1-65.3-42.7-106.9-39.8c-17.3,1.2-33.6,6-49.1,13.8c-4,2-8,2.2-11.7-0.8
		c-3.4-2.7-4.2-6.3-3.3-10.3c0.9-4,4-5.9,7.4-7.5c55-24.8,107.6-20.5,157.6,13.3c7.1,4.8,13.4,10.5,19.4,16.5
		c29.8,29.5,66,42,107.3,37.9c52.4-5.1,90.4-32.4,110.6-80.7c34-81.6-15.4-168.2-97.8-184C325,11,265.8,39.6,238.8,92.6
		C238.1,93.9,237.1,95.1,237.2,96.7z"/>
	<path class="st0" d="M291.4,81.7c4.4,0.6,9.2,3.5,14.1,5.8c3.4,1.6,6.2,2.1,9-0.7c0.2-0.2,0.5-0.5,0.8-0.6
		c10.7-2.9,12.2-11.2,12.6-20.6c0.4-8.9,3.9-11.7,12.6-11.7c12,0,24,0,36,0c7.3,0,10.7,3.1,11.6,10.2c0.1,0.5,0.1,1,0.2,1.5
		c1.1,5-0.7,11.3,2.7,14.8c3.3,3.5,8.9,4.9,13.1,8c1.7,1.2,3.1,0.5,4.6-0.2c4.2-1.9,8.5-3.8,12.8-5.5c5.9-2.4,10.3-1,13.6,4.5
		c6.5,11,12.9,22.1,19.2,33.3c3.3,5.8,2.1,10.3-3.1,14.4c-0.4,0.3-0.8,0.7-1.2,0.9c-11.3,4.8-13.6,13.9-12.2,25c0.2,1.9,0.9,3,2.3,4
		c3.8,2.7,7.6,5.4,11.3,8.3c5,3.9,6.2,8.6,3.1,14c-6.4,11.3-12.9,22.5-19.5,33.7c-3.1,5.2-7.6,6.6-13.2,4.5
		c-0.5-0.2-0.9-0.3-1.4-0.5c-4.9-2-9.9-5.8-14.7-5.6c-4.6,0.2-8.9,4.7-13.4,7.1c-1.7,0.9-2.3,2-2.5,3.8c-0.4,4.6-1.1,9.3-1.6,13.9
		c-0.8,6.6-4.3,10-10.8,10c-12.8,0.1-25.7,0.1-38.5,0c-6.4,0-10.1-3.6-10.8-10c-0.1-0.7-0.1-1.3-0.2-2c-1.6-15.4-2.1-16-16-22.8
		c-1.6-0.8-2.8-0.3-4.2,0.3c-4.3,1.9-8.5,3.8-12.8,5.5c-5.9,2.4-10.6,1.1-13.7-4.3c-6.6-11.2-13.1-22.4-19.4-33.7
		c-3.1-5.6-2-10,3.1-14c0.3-0.2,0.5-0.4,0.8-0.6c11.2-4.9,14.3-13.7,12.7-25.2c-0.3-2.1-0.8-3.3-2.4-4.4c-3.7-2.6-7.3-5.2-10.9-8
		c-5.4-4.1-6.5-8.5-3.2-14.4c6.4-11.3,12.9-22.5,19.4-33.7C283.2,83.4,286.2,81.6,291.4,81.7z M357.8,233.6c3.6,0,8.3,1.4,10.7-0.4
		c2.5-1.8,1.3-6.8,1.8-10.4c0.1-0.5,0.2-1,0.3-1.5c0.2-6.2,3.5-9.6,9.2-11.5c5.4-1.8,10.5-4.4,14.7-8.3c5.7-5.3,11.3-5.6,18.1-2.2
		c9.2,4.5,9.4,4.2,14.4-4.6c1.9-3.3,5.6-6.9,5.1-9.9c-0.5-3.4-5.5-5.2-8.8-7.4c-5.7-3.7-7.3-8.6-5.9-15c1.1-4.9,1.4-10.1,0.2-14.9
		c-2.1-8.6,0.7-14.2,8-18.8c7.6-4.8,7.4-5.3,2.8-12.9c-2.2-3.7-3.3-9.3-6.9-10.5c-3.6-1.2-7.8,2.7-11.7,4.4
		c-4.9,2.2-9.3,1.8-13.4-1.8c-4.4-3.9-9.2-7.3-14.8-9c-8.2-2.4-11.2-7.7-11.6-15.8c-0.5-9.2-0.8-9.2-10.1-9.1
		c-4.1,0-9.4-1.3-12.1,0.7c-2.8,2.1-1.7,7.7-2,11.8c-0.5,6-3.5,9.7-9.2,11.6c-5.9,1.9-11.3,5-15.9,9.1c-4.9,4.3-9.7,4.7-15.5,2
		c-10.7-5-10.8-4.8-16.6,5.2c-5.3,9.1-5.5,9.4,3.2,15.2c6.5,4.3,8.7,9.6,6.9,17c-1,4.4-1.3,9.1-0.2,13.4c2.4,9-0.7,14.8-8.4,19.6
		c-7.1,4.4-6.8,4.9-2.6,12.2c2.2,3.7,3.6,9.1,6.9,10.6c3.7,1.7,8.1-2.6,12.1-4.3c4.8-2,8.9-1.7,13,1.7c4.9,4.3,10.4,7.9,16.6,9.8
		c6.8,2.1,9.3,6.6,9.9,13.3C346.7,234,346.9,234,357.8,233.6z"/>
	<path class="st0" d="M221.4,430.1c-4.8-0.5-9.7-3.6-14.8-5.9c-3.4-1.6-6.1-1.9-9,0.8c-0.9,0.9-2.2,1.7-3.4,2.1
		c-7.6,2.1-9.5,7.6-9.3,14.6c0.1,2.5-0.5,5-0.9,7.4c-0.8,5.3-4.5,8.7-9.9,8.8c-13.3,0.2-26.7,0.1-40,0c-5.3-0.1-9-3.5-10-8.7
		c-0.1-0.7-0.1-1.3-0.2-2c-1.6-16.3-1.6-16.2-15.8-23.9c-1.8-1-3.1-0.4-4.6,0.3c-4.3,1.9-8.5,3.8-12.8,5.5
		c-5.9,2.4-10.4,0.9-13.6-4.6c-6.5-11-12.9-22.1-19.2-33.3c-3.3-5.8-2.2-10.2,3.1-14.4c0.1-0.1,0.3-0.2,0.4-0.3
		c11.4-4.9,14.5-14,13-25.6c-0.3-1.9-0.8-3-2.3-4c-3.8-2.7-7.6-5.4-11.3-8.3c-5.2-4-6.3-8.4-3.1-14c6.3-11.3,12.8-22.5,19.4-33.7
		c3.2-5.4,7.7-6.7,13.7-4.3c4.2,1.7,8.3,3.4,12.3,5.4c2.4,1.2,4.3,1.1,6.3-0.7c0.6-0.6,1.3-1.2,2.1-1.4c10.6-2.8,11.9-11,12.4-20.2
		c0.5-9.3,3.8-12,12.9-12c12,0,24,0,36,0c7,0,10.4,3,11.3,9.9c0.1,0.5,0.1,1,0.2,1.5c0.7,5.1-0.1,11.3,2.6,15c2.7,3.6,8.8,4.9,13,8
		c1.6,1.2,3,0.8,4.6,0.1c4.4-2,8.8-4,13.2-5.7c5.6-2.2,10.2-0.8,13.3,4.4c6.6,11.2,13.1,22.4,19.5,33.7c3.1,5.5,1.9,10.1-3,14.1
		c-0.4,0.3-0.8,0.7-1.2,0.9c-10.7,4.8-14.1,13.2-12.4,24.4c0.3,2.2,0.7,3.7,2.5,4.9c3.7,2.6,7.3,5.2,10.9,8
		c5.3,4.1,6.4,8.7,3.1,14.4c-6.3,11.1-12.8,22.2-19.2,33.3C229.2,428,226.4,430,221.4,430.1z M228.8,327.3c-1.5-2.7-2.9-5.1-4.3-7.6
		c-2.1-3.6-3.5-8.7-6.6-10.2c-3.5-1.7-7.8,2.3-11.6,4c-5.4,2.4-9.8,1.9-14.2-2c-4.3-3.8-9-7.1-14.4-8.7c-7.9-2.3-11-7.4-11.5-15.3
		c-0.7-9.6-1-9.6-10.7-9.6c-4,0-9.1-1.2-11.6,0.7c-2.6,2-1.7,7.4-1.9,11.3c-0.4,5.9-3.1,10-8.9,11.9c-5.4,1.8-10.6,4.3-14.7,8.2
		c-6,5.6-11.8,6-19,2.3c-8.6-4.5-8.9-4.1-13.7,4.4c-2,3.5-5.6,7.2-5.2,10.4c0.4,3.4,5.5,5.2,8.8,7.4c5.3,3.5,7.1,8,5.9,14.1
		c-1.1,5.4-1.5,11-0.3,16.4c1.8,7.9-0.6,13.3-7.4,17.7c-8.2,5.3-8,5.7-3.1,14c2,3.4,3.4,8.5,6.4,9.7c3.4,1.4,7.5-2.3,11.2-4
		c5.5-2.6,10.2-2,14.7,2c4.4,3.9,9.3,7.1,14.9,8.8c7.5,2.3,10.4,7.3,10.7,14.8c0.4,9.9,0.7,10,10.4,9.9c4.1,0,9.5,1.7,12-0.7
		c2.3-2.2,1.8-7.5,2-11.5c0.3-6.3,3.4-10,9.4-11.9c4.9-1.6,9.8-3.8,13.4-7.4c6.5-6.4,12.9-6.5,20.8-2.5c7.6,4,7.9,3.5,12.2-4
		c2.2-3.7,6.4-7.9,5.8-11.1c-0.6-3.2-6.1-5.6-9.6-8c-4.5-3.1-6.3-7.1-5.3-12.4c1.3-6.9,1.3-13.9,0-20.8c-0.9-5.1,0.7-9.1,5-12.1
		c2.9-2,5.6-4.1,8.4-6.2C227.4,328.6,228.1,327.9,228.8,327.3z"/>
	<path class="st0" d="M62.1,255.8c0,5.4-4.2,9.9-9.6,10.1c-5.5,0.2-10.3-4.5-10.4-9.9c0-5.5,4.7-10.1,10.2-10
		C57.8,246,62,250.3,62.1,255.8z"/>
	<path class="st0" d="M358.2,188.9c-19,0.1-35-15.5-35.2-34.2c-0.2-20.1,15.1-35.7,35.1-35.6c19.9,0,34.9,15.2,34.9,35.3
		C393,173.2,377.2,188.9,358.2,188.9z M358,139c-8.1,0-15,6.9-15,14.9c0,8.3,6.5,14.9,14.8,15c8.5,0.1,15.2-6.5,15.2-15.1
		C372.9,145.6,366.2,138.9,358,139z"/>
	<path class="st0" d="M189.1,357.8c-0.2,20-15.5,35.1-35.3,34.9c-19.8-0.3-34.9-15.7-34.7-35.5c0.2-19,16.2-34.4,35.6-34.2
		C173.7,323.1,189.2,338.9,189.1,357.8z M169,357.8c0-8.4-6.4-14.8-14.8-14.9c-8.5-0.1-15.3,6.7-15.1,15.1c0.1,8,7.2,14.8,15.2,14.8
		C162.4,372.8,169.1,366,169,357.8z"/>
</g>
</svg>
