<?xml version="1.0" encoding="UTF-8"?><svg id="Layer_2" xmlns="http://www.w3.org/2000/svg" viewBox="0 0 94.02 46.94"><defs><style>.cls-1{fill:#ed2d24;}</style></defs><g id="Isolation_Mode"><path class="cls-1" d="m92.46,44.49c2.38-2.87,1.98-7.14-.89-9.53L51.33,1.56c-1.25-1.04-2.79-1.56-4.32-1.56s-3.07.52-4.32,1.56L2.44,34.96c-2.87,2.38-3.27,6.65-.88,9.52,1.15,1.39,2.78,2.25,4.58,2.42,1.79.17,3.55-.38,4.94-1.53h0s27.14-22.39,27.14-22.39c5.08-4.22,12.48-4.22,17.57,0l27.13,22.38c1.24,1.03,2.73,1.57,4.32,1.57,2.02,0,3.92-.89,5.21-2.44Z"/></g></svg>