<?xml version="1.0" standalone="no"?>
<!DOCTYPE svg PUBLIC "-//W3C//DTD SVG 20010904//EN"
 "http://www.w3.org/TR/2001/REC-SVG-20010904/DTD/svg10.dtd">
<svg version="1.0" xmlns="http://www.w3.org/2000/svg"
 width="1400.000000pt" height="1055.000000pt" viewBox="0 0 1400.000000 1055.000000"
 preserveAspectRatio="xMidYMid meet">
<metadata>
Created by potrace 1.16, written by Peter Selinger 2001-2019
</metadata>
<g transform="translate(0.000000,1055.000000) scale(0.100000,-0.100000)"
fill="#ffffff" stroke="none">
<path d="M5275 8209 c-169 -12 -334 -94 -470 -233 -44 -45 -89 -100 -100 -121
-11 -22 -22 -42 -25 -45 -15 -15 -61 -135 -74 -195 -46 -202 7 -468 122 -610
129 -160 252 -249 417 -298 108 -33 299 -31 435 6 63 17 180 74 180 88 0 5 6
9 14 9 25 0 170 137 204 193 9 15 20 27 24 27 4 0 8 6 8 13 0 7 11 29 25 49
14 20 25 42 25 48 0 7 6 26 14 43 23 50 46 187 46 268 0 117 -38 277 -82 341
-10 14 -18 31 -18 36 0 6 -6 17 -12 24 -7 7 -26 31 -42 53 -46 63 -155 162
-227 205 -134 80 -286 112 -464 99z"/>
<path d="M2870 6565 c-35 -13 -38 -16 -111 -166 -9 -20 -29 -67 -44 -105 -15
-38 -47 -110 -71 -160 -24 -50 -44 -94 -44 -98 0 -7 -18 -48 -66 -153 -34 -74
-74 -164 -84 -188 -5 -11 -19 -45 -33 -75 -67 -150 -89 -196 -97 -212 -6 -10
-10 -22 -10 -28 0 -6 -22 -58 -50 -116 -27 -58 -50 -108 -50 -111 0 -6 -10
-29 -104 -235 -13 -29 -38 -84 -55 -123 -18 -38 -36 -78 -41 -87 -6 -10 -10
-22 -10 -28 0 -6 -22 -58 -50 -116 -27 -58 -50 -108 -50 -111 0 -6 -41 -98
-104 -235 -14 -29 -37 -82 -51 -117 -14 -35 -35 -80 -46 -100 -10 -19 -19 -43
-19 -53 0 -9 -4 -19 -9 -22 -5 -4 -23 -41 -41 -84 -30 -74 -56 -132 -105 -237
-13 -27 -32 -71 -43 -96 -11 -25 -27 -51 -36 -58 -9 -8 -16 -19 -16 -26 0 -17
-125 -192 -160 -224 -34 -32 -87 -71 -96 -71 -3 0 -18 -8 -32 -18 -27 -19 -60
-30 -182 -59 -72 -17 -110 -45 -110 -80 l0 -23 690 0 c676 0 690 0 690 19 0
11 -4 31 -9 44 -8 21 -19 25 -103 37 -51 7 -122 20 -158 30 -55 14 -70 24
-105 64 l-40 48 0 107 c1 88 4 113 22 149 12 24 25 57 29 75 3 17 10 38 15 47
4 8 21 47 37 85 16 39 42 100 58 138 l28 67 552 0 c595 0 565 3 580 -54 4 -16
13 -41 20 -55 8 -14 14 -31 14 -37 0 -6 8 -26 17 -45 17 -32 30 -66 67 -169 9
-25 21 -54 26 -65 5 -11 12 -36 15 -55 4 -19 12 -49 18 -67 8 -24 7 -45 -3
-88 -11 -45 -22 -64 -56 -94 -45 -39 -84 -51 -284 -82 -41 -7 -78 -15 -82 -18
-3 -3 -10 -23 -13 -43 l-7 -38 2666 0 c2629 0 2666 0 2666 19 0 51 -17 69 -77
81 -32 7 -89 18 -128 26 -72 15 -167 56 -196 83 -32 31 -67 110 -83 186 -13
65 -16 158 -16 587 l0 511 98 -6 c88 -5 148 -19 206 -49 12 -5 50 -40 86 -77
61 -63 78 -91 162 -266 8 -16 19 -39 25 -50 7 -11 25 -47 40 -80 16 -33 34
-69 40 -80 6 -11 43 -87 83 -170 40 -82 77 -159 83 -170 6 -11 17 -33 25 -50
9 -16 20 -39 25 -50 29 -56 61 -124 127 -260 40 -82 75 -157 80 -165 6 -13
109 -15 816 -18 445 -1 814 0 820 2 7 3 9 18 5 42 l-6 39 -85 12 c-218 33
-271 57 -305 138 -19 46 -23 182 -6 214 6 11 11 27 11 36 0 17 45 128 80 200
11 22 20 44 20 48 0 5 6 23 14 40 7 18 22 55 32 82 l20 50 555 3 555 2 22 -48
c12 -27 22 -52 22 -56 0 -4 9 -27 20 -52 11 -24 34 -81 51 -126 16 -45 36 -96
44 -113 25 -56 45 -143 45 -199 0 -134 -64 -174 -343 -217 -83 -13 -97 -23
-97 -73 l0 -26 1065 0 c725 0 1065 3 1065 10 0 18 -29 80 -37 80 -8 0 -85 17
-183 40 -44 10 -151 55 -179 75 -34 24 -131 128 -131 140 0 7 -6 15 -14 18
-16 7 -117 210 -146 297 -12 36 -30 82 -41 103 -10 22 -19 44 -19 51 0 7 -11
34 -24 62 -13 27 -34 78 -46 114 -12 36 -33 87 -46 114 -13 28 -24 56 -24 63
0 7 -9 27 -20 45 -11 18 -20 40 -20 48 0 8 -7 28 -15 44 -8 15 -15 33 -15 38
0 6 -7 24 -15 41 -25 55 -75 179 -104 257 -15 41 -37 96 -49 122 -12 26 -22
52 -22 58 0 5 -4 18 -9 28 -21 39 -41 91 -41 105 0 9 -4 19 -10 22 -5 3 -10
14 -10 23 0 9 -11 39 -25 66 -14 27 -25 54 -25 59 0 6 -11 33 -23 61 -30 64
-59 135 -104 256 -19 52 -39 99 -44 105 -5 5 -9 16 -9 25 0 8 -11 37 -25 64
-14 27 -25 54 -25 59 0 5 -6 23 -14 40 -8 18 -19 46 -24 62 -12 34 -66 164
-86 210 -8 17 -23 58 -34 92 -11 33 -26 72 -33 85 -7 12 -21 43 -30 68 -9 25
-36 92 -59 150 -23 58 -50 125 -60 149 -26 66 -67 84 -184 79 -130 -5 -149
-17 -194 -128 -19 -45 -73 -164 -86 -190 -8 -14 -26 -56 -41 -95 -15 -38 -47
-110 -71 -159 -24 -49 -44 -93 -44 -98 0 -9 -24 -67 -60 -143 -31 -68 -80
-177 -120 -270 -12 -27 -36 -79 -52 -115 -56 -120 -75 -165 -98 -220 -12 -30
-33 -79 -46 -107 -33 -73 -74 -164 -84 -188 -13 -32 -55 -124 -89 -197 -17
-37 -31 -72 -31 -78 0 -5 -4 -18 -10 -28 -15 -28 -110 -233 -110 -239 0 -5
-13 -35 -55 -128 -68 -150 -83 -184 -100 -225 -22 -58 -42 -100 -104 -231 -28
-59 -51 -110 -51 -115 0 -4 -14 -36 -31 -71 -29 -59 -49 -80 -49 -50 0 6 -14
32 -31 57 -16 25 -41 65 -55 90 -13 25 -38 65 -54 90 -17 25 -35 57 -41 73 -6
15 -15 27 -20 27 -5 0 -9 5 -9 11 0 7 -24 51 -54 98 -30 47 -65 106 -79 131
-13 25 -56 97 -95 160 -40 63 -78 129 -85 145 -8 17 -21 36 -30 44 -10 7 -17
18 -17 23 0 6 -20 43 -45 82 -25 40 -45 79 -45 87 0 15 34 33 85 45 30 7 187
76 215 95 8 5 29 18 45 28 91 58 214 181 253 253 15 29 34 62 40 73 86 147
107 535 37 689 -14 30 -25 57 -25 60 0 3 -19 35 -42 73 -39 62 -215 253 -234
253 -4 0 -19 11 -33 24 -15 13 -52 38 -83 55 -31 17 -65 35 -75 40 -72 39
-187 81 -263 96 -19 4 -55 14 -80 22 -41 13 -134 28 -340 55 -117 15 -696 21
-798 9 -153 -19 -597 -24 -872 -10 -140 7 -352 13 -470 14 l-215 0 -14 -30
c-33 -69 -18 -180 26 -203 10 -5 50 -12 88 -16 97 -10 225 -54 290 -101 67
-49 102 -115 115 -217 13 -101 13 -2427 0 -2541 -16 -137 -68 -215 -175 -261
-22 -10 -47 -21 -56 -26 -9 -5 -34 -11 -55 -15 -22 -3 -55 -11 -75 -16 -66
-20 -184 37 -235 114 -26 40 -33 61 -54 167 -13 64 -12 2325 1 2480 16 205 37
613 32 627 -16 42 -139 54 -349 34 -75 -8 -106 -16 -175 -49 -96 -46 -154 -72
-163 -72 -3 0 -30 -11 -60 -25 -30 -14 -60 -25 -65 -25 -6 0 -19 -4 -29 -9
-34 -19 -90 -41 -101 -41 -6 0 -19 -4 -29 -10 -26 -14 -196 -60 -250 -66 -26
-4 -72 -13 -102 -21 -30 -8 -104 -21 -165 -29 -168 -24 -295 -42 -347 -50 -70
-10 -89 -36 -90 -118 0 -77 17 -111 60 -121 15 -3 102 -12 193 -20 236 -22
320 -33 355 -50 45 -21 84 -86 95 -159 13 -89 12 -2191 -1 -2295 -12 -95 -53
-180 -97 -200 -64 -29 -211 98 -287 249 -18 36 -37 74 -43 85 -13 24 -43 99
-90 225 -19 52 -39 99 -44 104 -5 6 -9 17 -9 25 0 7 -11 37 -23 65 -30 64 -59
135 -104 256 -19 52 -39 99 -44 104 -5 6 -9 17 -9 25 0 9 -11 38 -25 65 -14
27 -25 54 -25 60 0 6 -6 23 -14 38 -8 15 -17 42 -21 60 -4 18 -15 44 -25 58
-10 14 -21 41 -25 60 -4 19 -11 40 -15 45 -4 6 -23 53 -43 105 -20 52 -52 133
-72 180 -20 47 -41 99 -47 115 -5 17 -16 44 -24 62 -8 17 -14 36 -14 42 0 6
-9 26 -20 46 -11 20 -20 41 -20 48 0 7 -6 24 -14 38 -7 15 -33 77 -56 139 -23
62 -49 124 -56 139 -8 14 -14 31 -14 37 0 6 -11 33 -25 60 -14 27 -25 54 -25
60 0 6 -6 24 -14 40 -16 31 -77 188 -106 269 -9 28 -27 68 -39 90 -11 22 -21
47 -21 57 0 9 -4 20 -10 23 -5 3 -10 14 -10 23 0 9 -11 39 -25 66 -14 27 -25
54 -25 59 0 9 -23 65 -40 97 -4 9 -11 30 -14 47 -8 37 -29 56 -75 72 -44 14
-176 12 -221 -4z m5345 -355 c39 -13 81 -30 95 -39 50 -32 65 -41 85 -52 11
-6 34 -28 50 -50 17 -22 35 -45 40 -52 18 -22 64 -121 71 -152 3 -16 16 -59
28 -95 19 -59 21 -88 21 -300 0 -222 -10 -329 -35 -365 -4 -5 -11 -28 -15 -50
-3 -21 -15 -51 -25 -65 -9 -14 -21 -35 -24 -47 -4 -13 -12 -23 -17 -23 -5 0
-9 -6 -9 -14 0 -8 -21 -32 -47 -53 -27 -21 -50 -41 -53 -44 -3 -3 -18 -12 -35
-20 -16 -9 -39 -20 -50 -26 -78 -44 -330 -73 -495 -57 l-95 9 -3 625 c-2 545
0 635 14 705 22 110 49 141 149 177 72 26 253 19 350 -12z m-5615 -1010 c0 -9
4 -20 9 -25 4 -6 16 -32 26 -60 9 -27 25 -68 35 -90 10 -22 29 -71 41 -110 13
-38 30 -84 40 -101 9 -17 20 -45 24 -64 4 -19 15 -48 25 -65 10 -17 21 -47 25
-66 4 -19 15 -48 25 -65 10 -17 21 -46 25 -63 4 -18 13 -44 21 -59 8 -15 14
-32 14 -39 0 -7 11 -37 25 -67 14 -30 25 -59 25 -64 0 -5 12 -35 26 -66 14
-31 23 -60 19 -66 -4 -6 -160 -10 -446 -10 -506 0 -462 -12 -410 108 16 37 36
90 46 117 10 28 28 72 41 99 13 28 24 55 24 61 0 7 11 34 25 61 14 27 25 57
25 66 0 9 5 20 10 23 6 3 10 14 10 23 0 9 6 29 14 44 8 14 23 50 34 80 12 29
37 91 56 138 20 46 36 88 36 92 0 4 11 32 25 62 14 30 25 59 25 63 0 5 12 33
27 63 l27 54 12 -29 c7 -17 13 -37 14 -45z m8185 40 c3 -16 15 -47 26 -70 11
-22 22 -54 26 -70 3 -17 10 -33 14 -36 5 -3 9 -12 9 -21 0 -8 7 -30 15 -49 8
-19 22 -49 30 -68 8 -19 15 -40 15 -48 0 -8 4 -18 9 -24 4 -5 16 -31 26 -59
23 -67 25 -73 46 -125 52 -134 74 -194 104 -276 18 -50 38 -101 45 -114 14
-27 49 -131 50 -147 0 -10 -95 -13 -443 -13 -244 0 -446 3 -450 6 -3 3 3 20
13 38 9 18 21 48 25 67 4 19 15 45 25 59 10 14 21 40 25 58 4 18 13 45 21 60
8 15 14 34 14 43 0 8 4 19 9 25 10 9 63 132 83 189 5 17 18 48 27 70 10 22 28
67 40 100 13 33 31 80 41 105 11 25 32 77 48 115 16 39 42 103 57 143 15 39
30 72 35 72 5 0 11 -13 15 -30z"/>
<path d="M1027 2716 c-101 -62 -122 -105 -122 -246 0 -121 18 -175 79 -228 42
-37 84 -46 176 -40 80 6 116 29 149 94 29 56 27 80 -4 87 -22 4 -28 -1 -45
-39 -21 -44 -61 -80 -95 -84 -70 -8 -101 1 -141 38 -36 33 -42 45 -54 109 -26
141 31 253 136 269 67 10 134 -33 157 -100 6 -18 57 4 57 24 0 34 -41 90 -85
115 -58 34 -153 35 -208 1z"/>
<path d="M1549 2713 c-6 -15 -16 -41 -24 -58 -7 -16 -16 -41 -20 -55 -3 -14
-10 -34 -15 -45 -4 -11 -15 -41 -24 -67 -9 -27 -23 -69 -32 -95 -9 -27 -27
-73 -40 -104 -32 -76 -31 -89 6 -89 27 0 33 6 50 45 10 24 22 60 26 80 l6 35
107 0 107 0 16 -33 c8 -17 19 -48 23 -67 10 -47 22 -60 57 -60 29 0 30 1 24
34 -4 19 -14 49 -23 67 -10 19 -32 75 -49 124 -18 50 -43 119 -57 155 -67 175
-59 160 -95 160 -26 0 -34 -5 -43 -27z m119 -265 l12 -28 -85 0 c-101 0 -101
0 -58 85 6 12 14 36 18 54 4 19 14 50 22 70 l16 36 32 -95 c18 -52 37 -107 43
-122z"/>
<path d="M1880 2469 l0 -270 33 3 32 3 2 95 c1 52 2 100 2 106 1 7 38 13 104
16 59 3 114 11 131 19 99 48 101 209 4 272 -40 26 -47 27 -175 27 l-133 0 0
-271z m270 186 c21 -11 30 -24 35 -53 9 -53 -8 -90 -50 -107 -36 -15 -185 -21
-185 -7 -1 15 -2 167 -1 175 2 14 171 8 201 -8z"/>
<path d="M2350 2470 l0 -270 35 0 35 0 0 270 0 270 -35 0 -35 0 0 -270z"/>
<path d="M2494 2726 c-3 -8 -4 -23 -2 -33 3 -15 15 -18 80 -21 l78 -3 2 -232
3 -232 33 -3 32 -3 0 235 0 236 80 0 80 0 0 35 0 35 -190 0 c-157 0 -192 -3
-196 -14z"/>
<path d="M3085 2708 c-4 -18 -11 -37 -15 -43 -4 -5 -22 -55 -40 -110 -18 -55
-41 -119 -51 -142 -11 -24 -19 -48 -19 -54 0 -11 -22 -67 -41 -101 -5 -10 -9
-27 -9 -38 0 -15 7 -20 30 -20 23 0 32 6 44 33 8 17 18 48 21 67 12 57 18 60
130 60 116 0 109 5 141 -102 16 -56 18 -58 50 -58 19 0 34 3 34 6 0 17 -26 93
-41 121 -10 17 -21 48 -25 67 -3 20 -10 39 -15 42 -5 3 -9 12 -9 21 0 8 -6 29
-14 46 -7 18 -21 48 -30 69 -9 20 -16 41 -16 47 0 6 -4 19 -9 29 -5 9 -17 34
-26 55 -14 32 -20 37 -50 37 -30 0 -34 -4 -40 -32z m59 -90 c8 -18 17 -44 21
-58 6 -26 21 -62 36 -92 22 -42 13 -48 -71 -48 -44 0 -80 3 -80 6 0 11 72 224
76 224 2 0 10 -15 18 -32z"/>
<path d="M3420 2470 l0 -271 153 3 152 3 0 25 0 25 -122 3 -123 3 0 239 0 240
-30 0 -30 0 0 -270z"/>
<path d="M4040 2470 l0 -270 30 0 29 0 3 108 3 107 113 7 c141 8 175 25 193
102 16 68 -2 148 -39 174 -54 36 -82 42 -207 42 l-125 0 0 -270z m284 175 c21
-19 26 -33 26 -69 0 -39 -4 -48 -32 -68 -27 -19 -49 -24 -117 -27 -62 -2 -86
0 -92 10 -10 16 -12 163 -2 172 3 4 48 7 98 7 84 0 94 -2 119 -25z"/>
<path d="M4504 2726 c-12 -31 0 -404 14 -418 6 -6 12 -19 12 -28 0 -9 14 -29
31 -46 28 -27 37 -29 115 -33 100 -4 128 6 169 57 l30 37 3 223 3 223 -28 -3
-28 -3 -5 -200 c-3 -129 -9 -207 -17 -221 -21 -36 -59 -54 -116 -54 -46 0 -57
4 -83 31 l-29 30 -5 207 -5 207 -28 3 c-18 2 -29 -2 -33 -12z"/>
<path d="M5000 2470 l0 -270 119 0 c149 0 171 5 215 45 34 31 36 36 36 100 0
77 -9 99 -51 121 l-31 16 24 26 c54 60 58 95 19 159 -35 57 -84 73 -216 73
l-115 0 0 -270z m244 189 c37 -17 51 -67 31 -107 -19 -37 -48 -45 -145 -40
l-65 3 -3 64 c-2 35 -1 70 2 77 7 18 144 19 180 3z m41 -245 c36 -39 33 -82
-8 -122 -34 -33 -34 -33 -123 -30 l-89 3 -3 74 c-2 41 -1 80 2 88 4 10 30 13
101 13 91 0 97 -1 120 -26z"/>
<path d="M5470 2471 l0 -271 150 0 150 0 0 30 0 30 -120 0 -120 0 -2 238 -3
237 -27 3 -28 3 0 -270z"/>
<path d="M5860 2736 c-3 -2 -4 -124 -2 -271 l3 -266 32 3 32 3 0 265 0 265
-30 3 c-17 2 -33 1 -35 -2z"/>
<path d="M6140 2713 c-48 -28 -61 -43 -99 -107 -20 -35 -24 -55 -24 -133 0
-81 3 -98 28 -148 35 -68 82 -112 130 -121 65 -12 171 0 195 21 34 30 78 98
82 125 3 22 -1 25 -29 28 -28 3 -32 -1 -42 -31 -23 -67 -74 -94 -172 -88 -29
1 -95 60 -110 98 -5 13 -9 63 -9 110 0 100 16 141 68 181 29 22 46 27 93 27
53 -1 61 -4 93 -37 20 -21 36 -45 36 -54 0 -13 6 -15 32 -10 17 3 34 9 37 12
13 13 -47 99 -88 125 -38 24 -55 29 -110 29 -54 0 -75 -5 -111 -27z"/>
<path d="M6872 2709 c-31 -19 -64 -48 -80 -73 -26 -39 -27 -48 -27 -161 0
-139 17 -188 82 -240 37 -29 42 -30 138 -30 100 0 100 0 134 33 40 39 86 121
74 132 -4 5 -19 10 -33 12 -20 2 -28 -4 -42 -31 -9 -18 -29 -47 -44 -62 -25
-26 -34 -29 -90 -29 -57 0 -66 3 -98 33 -68 63 -87 194 -41 290 27 59 62 84
127 93 56 7 107 -20 131 -69 17 -36 30 -43 61 -31 36 14 -1 93 -63 134 -38 26
-54 30 -110 30 -55 0 -75 -5 -119 -31z"/>
<path d="M7379 2711 c-89 -57 -124 -129 -123 -251 0 -95 33 -170 96 -221 42
-33 45 -34 138 -34 94 0 96 1 139 35 23 19 55 55 70 80 24 41 26 54 25 145 0
86 -3 105 -24 140 -34 58 -50 75 -99 107 -38 23 -55 28 -111 28 -56 0 -73 -5
-111 -29z m200 -61 c101 -71 101 -299 2 -369 -49 -35 -139 -33 -183 4 -56 47
-62 63 -66 167 -4 84 -2 102 18 141 41 83 154 111 229 57z"/>
<path d="M7810 2470 l0 -270 35 0 35 0 0 210 c0 196 9 260 24 173 4 -21 11
-49 16 -63 4 -14 23 -72 41 -130 61 -202 53 -185 90 -185 32 0 34 3 52 60 11
33 28 83 38 110 10 28 22 66 25 85 4 19 10 40 14 45 4 6 11 29 15 53 15 90 25
34 27 -155 l3 -198 33 -3 32 -3 0 270 0 271 -44 0 c-43 0 -44 0 -59 -47 -8
-27 -18 -64 -22 -83 -4 -19 -11 -41 -15 -50 -16 -32 -29 -67 -39 -105 -16 -65
-49 -149 -58 -152 -5 -2 -14 18 -20 44 -5 27 -17 68 -26 93 -33 93 -59 177
-72 227 -18 71 -20 73 -76 73 l-49 0 0 -270z"/>
<path d="M8392 2473 l3 -268 30 0 30 0 5 105 5 105 101 6 c157 10 199 42 199
153 0 77 -16 110 -71 142 -37 22 -51 24 -173 24 l-131 0 2 -267z m268 182 c21
-11 30 -24 35 -53 14 -87 -35 -125 -158 -120 l-72 3 -3 93 -3 92 86 0 c56 0
96 -5 115 -15z"/>
<path d="M8980 2713 c-6 -15 -14 -37 -19 -48 -9 -19 -19 -49 -57 -162 -8 -27
-19 -55 -23 -63 -5 -9 -12 -31 -16 -50 -4 -18 -15 -47 -25 -64 -9 -17 -20 -44
-24 -61 -4 -16 -9 -38 -12 -47 -4 -15 1 -18 30 -18 29 0 36 4 36 19 0 11 4 22
9 25 4 3 11 25 15 48 11 65 16 68 131 68 l103 0 20 -43 c11 -24 24 -60 27 -81
7 -35 9 -37 44 -34 41 3 42 13 11 83 -10 22 -29 72 -41 110 -13 39 -30 84 -39
100 -9 17 -20 44 -24 60 -3 17 -15 48 -26 70 -11 22 -23 56 -28 75 -7 31 -12
35 -45 38 -33 3 -38 0 -47 -25z m64 -115 c15 -29 29 -70 33 -91 3 -20 10 -40
14 -43 5 -3 9 -14 9 -25 0 -18 -6 -20 -77 -17 -90 3 -88 -1 -48 108 13 36 26
77 30 93 3 15 7 27 9 27 2 0 16 -24 30 -52z"/>
<path d="M9315 2727 c-3 -7 -4 -127 -3 -267 l3 -255 33 -3 32 -3 0 195 c0 108
3 196 8 196 8 0 26 -26 55 -80 10 -19 26 -46 35 -60 9 -14 46 -74 83 -135 63
-105 67 -110 102 -113 l37 -3 0 270 0 271 -30 0 -30 0 0 -205 c0 -113 -4 -205
-9 -205 -5 0 -25 31 -45 69 -19 37 -42 74 -51 81 -8 7 -15 18 -15 25 0 8 -10
26 -23 42 -13 15 -36 52 -51 82 -45 87 -66 111 -98 111 -16 0 -31 -6 -33 -13z"/>
<path d="M9770 2726 c0 -8 6 -21 13 -28 7 -7 22 -29 32 -48 11 -19 27 -44 36
-55 9 -11 27 -40 40 -65 13 -25 32 -55 42 -67 17 -19 20 -39 21 -140 l1 -118
33 -3 32 -3 0 110 0 110 38 59 c20 32 53 85 72 116 19 32 45 73 58 92 29 46
28 54 -10 54 -35 0 -30 7 -152 -200 -28 -47 -31 -49 -48 -33 -10 9 -18 21 -18
26 0 5 -17 37 -37 71 -21 34 -47 78 -57 99 -17 33 -23 37 -58 37 -26 0 -38 -4
-38 -14z"/>
<path d="M10520 2470 l0 -270 150 0 150 0 0 30 0 30 -120 0 -120 0 0 240 0
240 -30 0 -30 0 0 -270z"/>
<path d="M10910 2470 l0 -270 30 0 30 0 0 270 0 270 -30 0 -30 0 0 -270z"/>
<path d="M11090 2471 l0 -271 30 0 30 0 0 210 c0 116 3 210 8 210 7 0 23 -48
93 -275 45 -146 44 -145 77 -145 27 0 31 5 50 58 11 31 30 91 42 132 12 41 34
109 49 150 l26 75 3 -208 2 -208 33 3 32 3 0 265 0 265 -40 3 c-37 3 -41 0
-53 -30 -8 -18 -18 -42 -22 -53 -5 -11 -12 -36 -16 -55 -3 -19 -10 -39 -14
-45 -4 -5 -10 -27 -14 -48 -4 -21 -16 -58 -27 -83 -10 -25 -22 -63 -25 -85
-10 -61 -34 -47 -52 31 -13 56 -35 131 -56 190 -8 25 -24 74 -34 110 l-19 65
-52 3 -51 3 0 -270z"/>
<path d="M11670 2470 l0 -270 35 0 35 0 0 270 0 270 -35 0 -35 0 0 -270z"/>
<path d="M11820 2705 l0 -35 80 0 80 0 0 -235 0 -235 35 0 35 0 0 235 0 235
80 0 80 0 0 35 0 35 -195 0 -195 0 0 -35z"/>
<path d="M12280 2470 l0 -270 185 0 185 0 0 30 0 30 -150 0 -150 0 0 90 0 90
134 0 134 0 6 25 c4 14 4 30 1 35 -4 6 -66 10 -141 10 l-134 0 0 80 0 80 145
0 145 0 0 35 0 35 -180 0 -180 0 0 -270z"/>
<path d="M12750 2469 l0 -271 133 4 c154 4 179 14 232 97 28 44 29 51 30 162
0 82 -4 124 -14 145 -54 108 -105 134 -266 134 l-115 0 0 -271z m244 187 c46
-19 71 -55 86 -126 10 -49 11 -72 1 -118 -20 -90 -20 -92 -69 -123 -41 -26
-55 -29 -124 -29 l-78 0 0 205 0 205 75 0 c42 0 90 -6 109 -14z"/>
</g>
</svg>
