<?xml version="1.0" standalone="no"?>
<!DOCTYPE svg PUBLIC "-//W3C//DTD SVG 20010904//EN"
 "http://www.w3.org/TR/2001/REC-SVG-20010904/DTD/svg10.dtd">
<svg version="1.0" xmlns="http://www.w3.org/2000/svg"
 width="512.000000pt" height="512.000000pt" viewBox="0 0 512.000000 512.000000"
 preserveAspectRatio="xMidYMid meet">
<metadata>
Created by potrace 1.16, written by Peter Selinger 2001-2019
</metadata>
<g transform="translate(0.000000,512.000000) scale(0.100000,-0.100000)"
fill="#ffffff" stroke="none">
<path d="M2488 4128 c-20 -18 -179 -202 -354 -408 -186 -220 -324 -374 -333
-374 -9 1 -60 13 -113 27 -216 57 -407 56 -570 -3 -327 -119 -490 -436 -361
-700 127 -261 506 -317 803 -119 90 60 247 209 352 335 55 66 66 74 88 68 123
-32 273 -55 390 -60 203 -8 180 18 180 -200 l0 -186 29 -29 29 -29 129 0 c188
1 183 -7 183 282 l0 213 83 28 c45 16 124 48 176 73 51 24 95 44 97 44 2 0 4
-163 4 -362 l-1 -363 -144 -99 c-149 -101 -200 -148 -211 -191 -18 -70 36
-146 136 -194 49 -23 67 -26 170 -26 106 0 119 2 170 28 134 69 221 207 236
378 l7 67 151 100 c181 119 254 176 364 285 161 158 227 290 227 452 0 80 -3
95 -27 136 -15 25 -46 59 -69 75 -38 26 -50 29 -124 29 -72 0 -86 -3 -123 -27
-63 -42 -97 -108 -97 -188 0 -64 11 -93 67 -171 25 -35 -112 -201 -273 -330
-48 -38 -90 -69 -93 -69 -3 0 -6 162 -6 360 0 242 -4 367 -11 383 -20 43 -45
49 -200 45 l-144 -3 -135 -67 c-74 -37 -156 -76 -182 -87 l-48 -20 0 440 0
440 -25 24 c-24 25 -26 25 -208 25 l-184 0 -35 -32z m82 -709 l0 -251 -87 6
c-109 9 -265 34 -277 46 -4 4 75 107 175 228 101 121 185 221 187 221 1 1 2
-112 2 -250z m-1125 -289 c92 -14 145 -28 145 -41 0 -20 -285 -310 -342 -348
-73 -50 -134 -61 -179 -35 -49 29 -72 67 -77 128 -11 129 106 256 268 292 69
16 98 16 185 4z"/>
<path d="M3392 4102 c-109 -39 -177 -138 -176 -257 1 -156 110 -264 267 -265
80 0 120 15 177 67 82 73 111 188 75 294 -46 136 -205 210 -343 161z"/>
<path d="M2278 1527 c-98 -28 -155 -103 -165 -217 -11 -116 32 -208 120 -256
43 -23 64 -28 122 -28 86 -1 136 16 186 61 49 44 74 110 74 193 -1 111 -43
188 -127 231 -50 25 -149 33 -210 16z m131 -82 c55 -28 85 -146 61 -234 -13
-51 -67 -111 -99 -111 -67 0 -111 59 -119 161 -6 88 16 152 62 180 37 23 58
24 95 4z"/>
<path d="M3452 1522 c-106 -38 -154 -113 -154 -241 0 -88 14 -130 61 -183 53
-61 157 -89 253 -69 115 25 178 101 186 225 5 85 -8 139 -47 193 -58 80 -191
113 -299 75z m147 -78 c86 -60 80 -283 -9 -329 -53 -28 -104 -4 -141 65 -19
37 -17 167 4 207 35 66 97 91 146 57z"/>
<path d="M4395 1531 c-77 -20 -142 -78 -166 -148 -19 -55 -17 -159 4 -215 21
-55 78 -110 133 -129 22 -7 71 -13 109 -13 116 1 201 59 230 158 41 136 -6
276 -108 325 -48 23 -154 35 -202 22z m116 -87 c93 -47 91 -281 -2 -329 -43
-23 -68 -18 -104 18 -74 74 -73 232 2 297 38 34 61 37 104 14z"/>
<path d="M803 1426 c-82 -97 -90 -103 -113 -94 -14 5 -57 10 -97 10 -153 0
-283 -107 -283 -234 0 -35 6 -50 26 -69 23 -21 35 -24 102 -24 101 0 170 33
260 123 l64 64 35 -34 c19 -18 49 -57 65 -85 l30 -53 64 0 64 0 0 250 0 250
-65 0 -64 0 -88 -104z m-159 -162 c36 -14 -145 -184 -195 -184 -52 0 -31 96
31 140 56 40 126 59 164 44z"/>
<path d="M1120 1296 c0 -130 -4 -246 -10 -261 -5 -14 -21 -30 -35 -35 -29 -11
-29 -11 -13 -45 22 -48 109 -23 161 46 30 41 36 96 37 322 l0 207 -70 0 -70 0
0 -234z"/>
<path d="M1360 1280 l0 -250 65 0 65 0 0 250 0 250 -65 0 -65 0 0 -250z"/>
<path d="M1590 1280 l0 -250 50 0 49 0 3 150 3 150 134 -150 c129 -145 135
-150 172 -150 l39 0 0 250 0 250 -50 0 -49 0 -3 -133 -3 -134 -120 133 -120
133 -52 0 -53 1 0 -250z"/>
<path d="M2726 1498 c-18 -112 -66 -445 -66 -456 0 -20 104 -12 107 8 1 8 5
63 8 123 4 59 10 107 14 107 5 0 34 -56 66 -125 49 -104 62 -125 80 -125 19 0
32 21 81 125 32 69 61 125 65 125 4 0 10 -56 14 -125 l7 -125 75 0 76 0 -7 33
c-8 41 -66 438 -66 455 0 7 -15 12 -40 12 l-40 0 -73 -146 -73 -146 -68 146
-69 146 -43 0 c-41 0 -43 -2 -48 -32z"/>
<path d="M3810 1479 l0 -51 65 7 65 7 0 -206 0 -206 65 0 65 0 0 206 0 205 70
-7 70 -7 0 52 0 51 -200 0 -200 0 0 -51z"/>
</g>
</svg>
