<?xml version="1.0" standalone="no"?>
<!DOCTYPE svg PUBLIC "-//W3C//DTD SVG 20010904//EN"
 "http://www.w3.org/TR/2001/REC-SVG-20010904/DTD/svg10.dtd">
<svg version="1.0" xmlns="http://www.w3.org/2000/svg"
 width="626.000000pt" height="626.000000pt" viewBox="0 0 626.000000 626.000000"
 preserveAspectRatio="xMidYMid meet">
<metadata>
Created by potrace 1.16, written by Peter Selinger 2001-2019
</metadata>
<g transform="translate(0.000000,626.000000) scale(0.100000,-0.100000)"
fill="#ffffff" stroke="none">
<path d="M1455 5151 c-174 -50 -304 -183 -349 -357 -14 -55 -16 -234 -16
-1660 0 -1740 -2 -1661 56 -1776 51 -101 160 -195 280 -240 l59 -23 1613 -3
c1766 -3 1676 -5 1802 55 71 35 178 142 213 213 60 126 58 36 55 1802 l-3
1613 -23 59 c-45 120 -139 229 -240 280 -115 58 -35 56 -1782 55 -1489 0
-1609 -2 -1665 -18z m3362 -97 c110 -45 197 -134 240 -244 17 -42 18 -139 21
-1644 1 -1030 -1 -1619 -8 -1653 -29 -159 -164 -294 -323 -324 -34 -6 -637 -8
-1653 -7 -1505 3 -1602 4 -1644 21 -113 45 -209 142 -247 250 -17 49 -18 139
-18 1687 l0 1635 32 65 c17 36 47 83 66 105 42 48 132 104 195 121 37 10 389
12 1667 11 l1620 -2 52 -21z"/>
<path d="M3230 4779 c-111 -25 -232 -61 -225 -67 2 -3 49 -24 103 -47 104 -44
197 -96 271 -152 l44 -33 22 20 c29 27 71 105 80 148 4 19 4 49 1 68 -7 32
-10 35 -89 59 -97 29 -96 29 -207 4z"/>
<path d="M2691 4720 c-124 -60 -197 -115 -205 -152 -7 -35 -8 -108 -2 -108 3
0 40 25 83 56 72 53 323 184 350 184 6 0 14 4 17 9 7 10 -105 51 -139 51 -12
0 -59 -18 -104 -40z"/>
<path d="M3580 4668 c0 -55 -36 -144 -80 -199 l-21 -25 168 -168 167 -169 40
44 c58 66 96 152 96 220 l0 56 -79 81 c-73 74 -181 156 -258 196 l-33 17 0
-53z"/>
<path d="M2844 4646 c-101 -49 -248 -141 -319 -199 l-29 -25 27 -36 c52 -68
193 -126 306 -126 l40 0 6 48 c13 94 35 209 59 297 13 50 23 91 22 93 -2 1
-52 -22 -112 -52z"/>
<path d="M2952 4568 c-12 -73 -24 -162 -27 -198 -3 -36 -8 -76 -11 -89 -5 -23
-4 -23 51 -16 84 10 191 42 270 80 76 37 155 90 155 105 0 21 -377 250 -412
250 -3 0 -15 -60 -26 -132z"/>
<path d="M2375 4488 c-68 -76 -117 -148 -167 -248 -38 -75 -43 -101 -32 -159
7 -32 7 -31 51 51 47 88 102 165 168 237 39 42 40 46 40 112 0 38 -1 69 -2 69
-1 0 -27 -28 -58 -62z"/>
<path d="M3400 4380 c-81 -70 -289 -154 -411 -167 -31 -3 -63 -9 -69 -13 -15
-9 -18 -312 -6 -418 7 -53 10 -61 22 -51 8 7 54 18 102 26 237 38 562 170 693
283 l29 25 -46 55 c-67 80 -264 290 -272 290 -4 -1 -23 -14 -42 -30z"/>
<path d="M2404 4328 c-58 -65 -147 -199 -179 -272 l-24 -54 28 -43 c62 -96
134 -143 286 -187 108 -31 216 -51 204 -38 -4 4 -68 24 -143 45 -75 21 -139
41 -142 44 -3 3 -3 15 1 28 7 20 11 21 81 15 92 -8 210 -38 281 -70 l53 -25 0
123 c0 68 3 163 6 212 l7 89 -102 16 c-125 20 -213 61 -269 125 l-40 44 -48
-52z"/>
<path d="M4040 4247 c0 -43 -44 -119 -105 -185 l-55 -60 44 -72 c38 -60 104
-200 131 -275 6 -18 12 -14 56 34 l49 55 0 77 c0 128 -43 310 -98 414 -20 39
-21 39 -22 12z"/>
<path d="M3750 3909 c-210 -142 -573 -274 -772 -281 -46 -1 -46 -2 -42 -32 13
-107 37 -257 46 -294 l11 -43 61 6 c144 14 236 27 314 45 58 14 89 17 101 10
16 -8 25 0 60 55 60 93 151 179 226 215 103 49 183 52 227 8 l21 -21 -6 34
c-7 34 -133 298 -159 331 -12 16 -19 14 -88 -33z"/>
<path d="M2169 3888 c-8 -35 -14 -116 -14 -183 0 -146 18 -210 72 -254 60 -49
199 -111 317 -141 99 -25 351 -59 361 -48 2 2 -2 42 -11 88 -8 46 -17 114 -20
151 -9 88 -14 96 -49 73 -19 -12 -53 -19 -111 -22 -97 -5 -163 13 -272 76 -52
30 -61 40 -56 57 9 29 7 29 76 7 85 -28 181 -52 208 -52 38 0 12 16 -47 29
-74 17 -216 61 -223 70 -3 4 -27 21 -55 38 -57 36 -114 92 -143 141 l-19 33
-14 -63z"/>
<path d="M3996 3469 c-35 -122 -160 -264 -261 -295 -46 -15 -62 -16 -108 -5
-30 6 -69 23 -88 36 -38 29 -48 30 -63 11 -20 -25 -218 -62 -422 -78 l-32 -3
28 -80 c15 -44 40 -106 56 -137 27 -56 29 -58 69 -58 218 0 644 151 740 262
20 24 57 74 82 111 l46 69 -5 92 c-3 51 -10 101 -15 111 -9 15 -13 10 -27 -36z"/>
<path d="M2240 3284 c0 -18 86 -131 153 -201 84 -87 123 -111 262 -156 108
-36 210 -56 318 -64 l90 -6 -27 46 c-15 26 -43 88 -61 139 l-33 93 -118 6
c-205 11 -394 54 -526 120 -32 15 -58 26 -58 23z"/>
<path d="M3697 2949 c-122 -63 -367 -129 -478 -129 -45 0 -48 -8 -13 -34 21
-15 36 -17 80 -11 129 16 289 77 412 157 34 22 62 42 62 44 0 6 1 6 -63 -27z"/>
<path d="M2702 2861 c102 -55 353 -112 439 -99 l24 3 -30 22 c-23 16 -56 24
-140 32 -92 9 -249 41 -330 66 -11 3 6 -8 37 -24z"/>
<path d="M2402 2568 c-12 -16 -242 -545 -242 -559 0 -6 31 -9 82 -7 l82 3 37
85 36 85 118 0 118 0 36 -85 37 -85 82 -3 c50 -2 82 1 82 7 0 13 -230 543
-242 559 -7 8 -43 12 -113 12 -70 0 -106 -4 -113 -12z"/>
<path d="M2940 2290 l0 -291 78 3 77 3 3 103 3 102 137 0 c181 1 228 20 267
113 43 104 -8 218 -113 247 -20 5 -130 10 -244 10 l-208 0 0 -290z m410 140
c18 -33 8 -73 -20 -87 -15 -8 -65 -13 -127 -13 l-103 0 0 60 0 60 120 0 c110
0 120 -2 130 -20z"/>
<path d="M3600 2290 l0 -290 74 0 c58 0 75 3 80 16 3 9 6 56 6 105 l0 88 148
3 147 3 3 48 c5 75 0 77 -159 77 l-139 0 0 55 0 55 188 2 187 3 3 63 3 62
-271 0 -270 0 0 -290z"/>
<path d="M2266 1830 c-64 -20 -96 -73 -96 -162 0 -76 21 -117 73 -141 40 -19
138 -23 186 -6 l31 11 0 79 0 79 -65 0 c-58 0 -65 -2 -65 -20 0 -16 7 -20 36
-20 35 0 35 -1 32 -37 -3 -36 -5 -38 -42 -41 -74 -6 -116 30 -116 98 0 79 52
117 147 105 l53 -6 0 29 c0 25 -5 30 -31 36 -42 8 -107 6 -143 -4z"/>
<path d="M3054 1822 c-51 -25 -74 -70 -74 -149 0 -109 52 -163 158 -163 108 0
152 41 159 149 5 75 -13 120 -59 155 -40 28 -131 32 -184 8z m141 -67 c34 -33
36 -127 3 -162 -23 -25 -74 -31 -108 -13 -25 13 -43 80 -34 125 13 70 92 98
139 50z"/>
<path d="M2590 1670 l0 -160 40 0 40 0 0 55 c0 50 2 55 23 55 33 0 44 -11 67
-63 20 -44 23 -47 60 -47 l39 0 -21 48 c-11 26 -24 52 -29 58 -5 6 3 21 21 39
34 33 40 86 15 134 -19 38 -30 41 -151 41 l-104 0 0 -160z"/>
<path d="M3432 1705 l3 -125 33 -32 c31 -32 35 -33 112 -33 77 0 81 1 112 33
l33 32 4 125 3 125 -41 0 -41 0 0 -114 c0 -107 -1 -116 -22 -130 -32 -23 -81
-20 -104 5 -15 17 -19 40 -22 130 l-4 109 -35 0 -35 0 4 -125z"/>
<path d="M3870 1670 l0 -160 35 0 35 0 0 50 0 50 66 0 c62 0 68 2 101 35 33
33 35 38 31 87 -4 40 -11 57 -32 75 -25 21 -37 23 -132 23 l-104 0 0 -160z"/>
</g>
</svg>
