 <svg  version="1.0" xmlns="http://www.w3.org/2000/svg"  width="1350.000000pt" height="900.000000pt" viewBox="0 0 1350.000000 900.000000"  preserveAspectRatio="xMidYMid meet">  <g transform="translate(0.000000,900.000000) scale(0.100000,-0.100000)" fill="#ffffff" stroke="none"> <path d="M6646 8518 c-3 -13 -6 -42 -6 -65 0 -23 -4 -45 -10 -48 -5 -3 -10 -16 -10 -28 0 -25 -25 -109 -46 -150 -8 -16 -14 -35 -14 -42 0 -8 -7 -31 -16 -52 -32 -76 -42 -99 -59 -143 -22 -56 -44 -107 -62 -142 -7 -14 -13 -33 -13 -41 0 -9 -6 -28 -14 -44 -18 -37 -36 -90 -45 -133 -4 -19 -13 -45 -19 -57 -7 -12 -12 -35 -12 -52 0 -16 -5 -42 -11 -58 -7 -15 -15 -59 -19 -98 -31 -271 -32 -299 -20 -385 7 -47 16 -114 20 -150 5 -36 13 -78 18 -95 6 -16 18 -57 27 -90 40 -138 61 -202 91 -273 8 -18 14 -39 14 -46 0 -8 7 -19 15 -26 8 -7 15 -19 15 -28 0 -8 14 -44 30 -79 17 -34 30 -72 30 -83 0 -13 7 -20 19 -20 14 0 34 31 80 122 64 125 70 160 35 189 -8 6 -14 18 -14 26 0 8 -6 27 -14 41 -7 15 -22 45 -31 67 -10 22 -24 53 -31 68 -8 16 -14 35 -14 43 0 9 -6 25 -12 37 -35 63 -68 218 -84 402 -16 177 -6 405 21 522 8 34 15 71 15 83 0 12 6 43 14 69 8 25 22 73 31 106 9 33 23 75 31 93 8 18 14 41 14 52 0 11 6 34 14 52 7 18 21 60 30 93 10 33 25 84 34 114 23 76 24 264 1 269 -10 2 -19 -6 -23 -20z m-232 -1712 c-3 -9 -10 -16 -15 -16 -11 0 -12 43 -2 54 10 10 24 -20 17 -38z m116 -436 c0 -11 -4 -20 -10 -20 -5 0 -10 9 -10 20 0 11 5 20 10 20 6 0 10 -9 10 -20z"/> <path d="M6856 8074 c-4 -15 -4 -68 -1 -118 4 -56 2 -116 -5 -156 -7 -36 -14 -78 -16 -95 -8 -51 -58 -220 -81 -275 -17 -41 -50 -108 -63 -130 -5 -8 -11 -22 -14 -30 -4 -8 -15 -28 -25 -45 -11 -16 -30 -50 -42 -75 -13 -25 -29 -51 -36 -58 -7 -7 -13 -18 -13 -24 0 -6 -7 -19 -16 -29 -16 -18 -15 -31 16 -189 19 -99 20 -100 40 -100 13 0 20 7 20 19 0 10 7 24 15 31 8 7 15 20 15 30 0 10 7 23 15 30 8 7 15 20 15 30 0 10 7 23 15 30 8 7 15 17 15 23 0 5 12 35 26 66 77 165 113 257 123 316 4 23 11 47 16 55 6 8 13 42 17 75 3 33 11 84 18 113 11 53 9 363 -3 412 -3 14 -9 46 -12 73 -7 52 -29 64 -39 21z m-234 -1079 c0 -5 -5 -11 -11 -13 -6 -2 -11 4 -11 13 0 9 5 15 11 13 6 -2 11 -8 11 -13z"/> <path d="M6619 7838 c-25 -46 -12 -364 17 -436 17 -42 32 -38 51 13 25 68 26 85 8 143 -9 32 -21 71 -26 87 -5 17 -12 70 -15 118 -4 48 -11 90 -15 93 -4 2 -14 -6 -20 -18z"/> <path d="M6987 7813 c-10 -9 -8 -48 2 -58 26 -27 55 -362 41 -475 -22 -187 -23 -214 -3 -237 10 -12 40 -54 66 -93 27 -39 54 -69 60 -67 15 5 10 401 -5 462 -5 22 -13 65 -18 96 -4 30 -12 65 -19 77 -6 11 -11 34 -11 49 0 16 -4 33 -9 39 -5 5 -18 41 -30 81 -12 39 -29 77 -37 84 -8 6 -14 20 -14 30 0 19 -11 25 -23 12z"/> <path d="M6196 7445 c-4 -19 -11 -35 -15 -35 -5 0 -12 -16 -16 -36 -7 -37 -9 -44 -38 -102 -9 -19 -17 -40 -17 -47 0 -7 -7 -27 -15 -44 -8 -17 -22 -45 -30 -62 -8 -17 -15 -38 -15 -47 0 -9 -7 -26 -15 -36 -8 -11 -15 -28 -15 -37 0 -10 -6 -30 -14 -46 -19 -39 -37 -93 -43 -128 -3 -16 -9 -35 -14 -41 -5 -6 -13 -31 -18 -55 -14 -64 -31 -127 -47 -179 -8 -25 -14 -58 -14 -73 0 -15 -7 -44 -15 -64 -16 -38 -20 -83 -7 -83 10 0 52 45 74 78 8 12 31 39 49 60 84 91 109 129 109 163 0 19 7 56 15 83 8 27 15 70 15 95 0 25 7 68 15 95 8 27 15 67 15 89 0 21 7 71 15 111 9 39 23 105 32 146 8 41 22 98 30 126 16 55 15 95 -3 101 -7 2 -15 -12 -18 -32z"/> <path d="M7200 7403 c0 -11 16 -67 36 -124 19 -57 39 -120 44 -139 7 -33 12 -48 41 -132 6 -18 14 -51 18 -73 4 -23 11 -47 16 -55 5 -8 12 -35 16 -60 4 -25 12 -63 18 -85 35 -138 54 -464 31 -528 -6 -18 -14 -72 -16 -122 -3 -49 -12 -110 -19 -135 -12 -40 -19 -98 -16 -138 1 -16 48 -9 94 13 15 8 48 17 73 21 24 3 54 14 67 24 21 16 22 25 22 126 -2 187 -16 407 -31 461 -8 28 -14 65 -14 82 0 18 -7 48 -15 68 -8 19 -15 44 -15 55 0 11 -6 34 -14 51 -8 18 -16 43 -19 57 -6 30 -24 82 -45 130 -8 19 -20 49 -27 65 -40 94 -203 413 -222 434 -22 22 -23 23 -23 4z m305 -943 c4 -6 2 -17 -4 -24 -8 -10 -7 -32 5 -82 21 -91 20 -108 -5 -135 l-21 -23 1 137 c0 125 6 156 24 127z m45 -303 c0 -24 5 -48 11 -54 14 -14 2 -111 -16 -136 -9 -12 -23 -17 -42 -15 -37 4 -43 35 -12 59 23 17 23 18 6 54 -23 48 -22 81 3 88 12 3 20 14 20 26 0 12 6 21 15 21 11 0 15 -11 15 -43z"/> <path d="M6866 7148 c-13 -44 -40 -118 -54 -146 -14 -26 -14 -36 -4 -50 6 -9 17 -26 22 -37 6 -11 19 -33 30 -50 11 -16 24 -41 30 -54 6 -13 21 -38 33 -55 12 -17 27 -38 32 -48 6 -9 51 -76 100 -148 50 -73 95 -139 100 -149 6 -10 19 -26 29 -36 10 -11 32 -41 48 -67 16 -26 34 -48 39 -48 5 0 9 -7 9 -15 0 -8 3 -15 8 -15 4 0 15 -14 24 -31 18 -30 54 -38 52 -11 -1 6 -2 85 -2 175 -2 142 -4 166 -20 183 -40 43 -120 133 -162 184 -25 29 -50 58 -55 64 -26 26 -101 126 -133 176 -50 75 -57 88 -84 143 -23 47 -36 58 -42 35z m369 -609 c-8 -12 -35 -12 -35 0 0 11 22 20 33 14 4 -2 5 -9 2 -14z"/> <path d="M5903 6934 c-6 -17 -64 -109 -80 -129 -5 -5 -38 -47 -73 -93 -129 -166 -161 -207 -169 -212 -14 -10 -100 -127 -172 -236 -99 -147 -98 -147 -105 -164 -3 -8 -10 -22 -15 -30 -5 -8 -12 -22 -15 -30 -3 -8 -10 -22 -15 -30 -5 -8 -12 -22 -15 -30 -3 -8 -12 -28 -20 -43 -7 -16 -14 -35 -14 -42 0 -7 -6 -26 -14 -42 -21 -42 -37 -93 -46 -143 -5 -25 -13 -58 -19 -73 -6 -16 -11 -45 -11 -66 0 -20 -7 -61 -16 -90 -8 -29 -13 -55 -10 -58 11 -12 36 8 63 49 15 24 48 70 72 103 25 33 49 65 53 70 4 6 22 28 41 50 43 50 53 70 61 120 8 47 32 119 52 157 8 14 14 33 14 41 0 8 7 20 15 27 8 7 15 23 15 35 0 12 7 28 15 35 8 7 15 20 15 30 0 10 7 23 15 30 8 7 15 21 15 31 0 10 5 21 11 24 5 4 14 17 20 28 5 12 15 31 21 42 13 19 52 82 73 117 18 31 88 132 132 192 24 32 43 68 43 80 0 11 7 30 15 40 8 11 15 28 15 39 0 10 6 31 13 45 8 15 21 42 30 60 9 19 17 42 17 52 0 26 -19 35 -27 14z"/> <path d="M7580 6809 c0 -12 13 -38 28 -58 26 -32 91 -127 117 -169 6 -9 28 -43 50 -77 23 -33 51 -81 64 -105 12 -25 31 -58 42 -75 10 -16 21 -37 25 -45 3 -8 10 -22 15 -30 5 -8 12 -22 15 -30 10 -26 36 -84 51 -112 7 -14 13 -33 13 -42 0 -9 6 -16 13 -16 15 0 117 94 117 108 0 5 -16 30 -35 55 -19 25 -35 49 -35 52 0 5 -46 71 -78 110 -4 6 -37 48 -72 95 -35 47 -67 87 -70 90 -4 3 -44 48 -89 100 -141 161 -149 170 -160 170 -6 0 -11 -9 -11 -21z"/> <path d="M6226 6683 c-5 -18 -26 -53 -36 -63 -3 -3 -18 -23 -33 -46 -15 -22 -35 -49 -45 -60 -9 -11 -35 -40 -56 -64 -39 -44 -276 -295 -388 -411 -32 -33 -58 -66 -58 -73 0 -13 167 -106 189 -106 5 0 27 24 49 53 22 28 82 95 133 147 52 52 149 158 217 235 122 138 123 140 117 180 -3 21 -10 44 -14 50 -7 8 -41 152 -41 171 0 13 -29 1 -34 -13z m4 -198 c0 -5 -45 -75 -60 -92 -12 -15 -40 -17 -40 -5 0 5 9 17 20 27 11 10 20 24 20 30 0 7 10 20 23 28 22 16 37 21 37 12z m-115 -96 c14 -22 -5 -76 -31 -88 -29 -13 -52 -5 -35 12 6 6 11 20 11 31 0 20 26 56 41 56 4 0 11 -5 14 -11z m-81 -132 c9 -15 1 -27 -50 -75 -33 -32 -70 -79 -83 -105 -15 -30 -29 -47 -41 -47 -10 0 -21 -7 -24 -16 -10 -27 -28 -3 -22 29 7 34 61 97 83 97 8 0 19 14 25 30 5 17 23 37 39 46 16 8 29 23 29 33 0 35 24 39 44 8z m-254 -283 c0 -8 -4 -14 -10 -14 -5 0 -10 9 -10 21 0 11 5 17 10 14 6 -3 10 -13 10 -21z"/> <path d="M6897 6653 c-4 -3 -7 -16 -7 -28 0 -12 -7 -30 -15 -41 -8 -10 -15 -29 -15 -40 0 -12 -7 -27 -15 -34 -8 -7 -15 -18 -15 -25 0 -8 -6 -26 -14 -42 -8 -15 -21 -44 -30 -63 -38 -88 -110 -236 -117 -240 -4 -3 -13 -17 -19 -30 -5 -14 -19 -38 -30 -55 -11 -16 -23 -37 -27 -45 -4 -8 -13 -21 -20 -28 -7 -7 -13 -19 -13 -27 0 -7 -7 -15 -15 -19 -8 -3 -15 -10 -15 -16 0 -5 -27 -46 -60 -91 -33 -44 -60 -85 -60 -90 0 -5 59 -10 130 -11 72 -1 137 -2 146 -2 9 -1 26 17 38 38 11 22 25 44 29 50 33 42 123 199 141 246 3 8 10 22 15 30 5 8 17 33 26 55 10 22 24 52 32 67 7 14 13 34 13 45 0 10 7 27 15 37 8 11 15 29 15 40 0 12 7 30 15 40 19 25 20 90 2 108 -7 7 -32 45 -56 85 -45 75 -63 97 -74 86z m43 -260 c-1 -10 -7 -29 -15 -43 -8 -14 -14 -35 -15 -47 0 -12 -18 -57 -40 -99 -22 -43 -40 -84 -40 -92 0 -8 -11 -36 -25 -64 -14 -27 -25 -56 -25 -64 0 -28 -30 -73 -44 -68 -9 4 -16 -6 -20 -30 -8 -42 -47 -76 -88 -76 -29 0 -30 1 -23 37 4 21 15 43 26 51 10 7 19 23 19 35 0 11 12 33 26 48 20 21 27 39 28 75 2 38 7 50 29 66 15 11 27 28 27 38 0 10 7 31 15 46 8 16 15 36 15 44 0 20 32 48 48 42 7 -2 12 3 12 12 0 10 8 16 21 16 18 0 20 4 14 30 -8 35 7 60 36 60 12 0 19 -7 19 -17z"/> <path d="M7685 6193 c4 -16 9 -99 12 -187 l5 -159 35 -46 c20 -25 39 -48 43 -51 4 -3 42 -52 84 -110 43 -58 84 -114 93 -124 9 -11 24 -34 35 -53 11 -18 28 -33 37 -33 14 0 17 14 19 98 1 53 5 124 8 158 5 48 3 64 -10 77 -9 8 -16 19 -16 23 0 4 -7 14 -15 23 -16 18 -213 280 -258 345 -48 68 -85 88 -72 39z m224 -403 c26 -33 29 -41 17 -46 -27 -10 -46 4 -46 34 0 15 -5 33 -12 40 -7 7 -8 12 -2 12 6 0 25 -18 43 -40z"/> <path d="M8152 6081 c-17 -21 -58 -58 -91 -82 -33 -24 -61 -48 -61 -53 0 -15 74 -124 90 -131 8 -3 19 0 25 8 5 8 42 38 80 67 98 74 98 74 66 142 -49 102 -62 108 -109 49z"/> <path d="M6026 6020 c-37 -52 -55 -74 -139 -167 -44 -50 -47 -57 -41 -91 4 -20 11 -47 15 -60 5 -13 9 -47 9 -76 0 -30 7 -73 15 -96 8 -23 15 -59 15 -79 0 -21 7 -46 15 -57 8 -10 15 -33 15 -50 0 -18 7 -45 15 -60 8 -16 15 -39 15 -51 0 -40 25 -25 78 50 28 39 68 90 87 111 36 40 42 63 26 94 -9 18 -27 131 -42 262 -4 41 -13 91 -19 110 -6 19 -10 70 -9 113 1 43 -3 83 -8 88 -7 7 -22 -7 -47 -41z m-18 -282 c12 -16 22 -65 29 -138 4 -47 1 -58 -16 -74 -20 -18 -21 -18 -30 8 -6 14 -8 33 -4 42 3 9 2 19 -4 23 -5 3 -14 30 -21 59 -9 41 -9 57 1 72 14 23 30 26 45 8z"/> <path d="M6894 5923 c-11 -36 -39 -89 -66 -124 -15 -20 -28 -40 -28 -45 0 -4 -7 -15 -16 -25 -14 -16 -14 -20 8 -51 12 -18 26 -34 31 -36 4 -2 7 -8 7 -13 0 -11 42 -72 53 -77 4 -2 7 -8 7 -13 0 -5 20 -38 45 -75 25 -36 45 -68 45 -71 0 -3 12 -22 28 -42 36 -48 51 -72 58 -93 4 -10 10 -18 14 -18 5 0 13 -13 19 -30 16 -47 47 -40 59 13 14 58 43 138 74 200 6 13 -5 36 -45 95 -29 43 -56 84 -60 92 -4 8 -16 29 -27 45 -11 17 -24 39 -30 50 -12 23 -25 44 -61 100 -14 22 -29 47 -32 55 -32 69 -71 100 -83 63z m64 -272 c5 -32 -5 -52 -23 -45 -16 6 -19 31 -9 59 9 22 28 13 32 -14z m90 -34 c10 -12 3 -37 -27 -96 -11 -21 -26 -9 -23 19 1 14 2 36 2 49 0 41 25 56 48 28z m72 -162 c0 -14 -4 -25 -10 -25 -5 0 -10 11 -10 25 0 14 5 25 10 25 6 0 10 -11 10 -25z"/> <path d="M5486 5918 c-2 -7 -13 -44 -25 -82 -17 -53 -19 -71 -10 -82 12 -14 42 -31 169 -94 36 -18 72 -36 80 -41 8 -4 33 -17 54 -29 52 -29 62 -16 42 53 -9 30 -16 68 -16 84 0 41 -11 73 -24 73 -14 0 -195 91 -229 115 -26 18 -36 19 -41 3z"/> <path d="M8323 5854 c4 -22 7 -55 7 -75 0 -25 10 -49 33 -79 90 -119 116 -156 116 -167 1 -7 7 -13 15 -13 29 0 26 35 -9 103 -19 39 -35 76 -35 84 0 7 -4 13 -10 13 -5 0 -13 12 -16 28 -4 15 -11 33 -17 40 -5 7 -20 31 -32 55 -13 23 -31 44 -40 46 -16 3 -17 -2 -12 -35z"/> <path d="M8181 5795 l-64 -63 6 -48 c3 -27 1 -78 -4 -114 -6 -36 -16 -108 -23 -160 -8 -52 -19 -111 -25 -130 -6 -19 -11 -50 -11 -68 0 -18 -6 -47 -14 -65 -7 -18 -16 -54 -20 -81 -8 -48 -7 -49 18 -42 14 3 45 19 68 35 24 15 59 36 79 45 39 18 40 20 74 206 8 41 19 95 24 120 13 59 13 169 1 288 -14 126 -18 142 -33 141 -6 -1 -41 -30 -76 -64z m8 -456 c10 -23 11 -37 2 -55 -17 -39 -28 -28 -28 31 0 30 3 55 6 55 3 0 12 -14 20 -31z"/> <path d="M7606 5791 c-3 -5 -23 -12 -43 -16 -21 -4 -42 -10 -48 -15 -10 -8 -80 -23 -185 -40 -48 -8 -116 -23 -158 -36 -10 -3 -9 -9 5 -28 10 -13 25 -34 33 -46 8 -12 20 -28 26 -34 6 -7 14 -21 18 -33 4 -11 15 -28 26 -38 17 -16 25 -17 58 -7 20 7 60 16 87 21 81 16 147 31 179 40 28 8 133 38 164 47 23 6 12 39 -26 75 -20 21 -48 55 -62 78 -24 39 -60 55 -74 32z m-16 -126 c0 -20 -32 -35 -93 -42 -29 -3 -65 -12 -81 -18 -21 -9 -38 -10 -59 -2 l-30 10 49 19 c126 50 214 63 214 33z"/> <path d="M6195 5691 c-3 -5 2 -40 11 -78 9 -37 19 -88 22 -113 l7 -45 75 -5 c41 -3 81 -9 88 -14 19 -11 465 -26 476 -16 4 5 -12 35 -36 67 -25 32 -61 84 -82 117 -35 55 -39 58 -69 53 -36 -7 -253 8 -337 22 -102 17 -149 21 -155 12z m369 -106 c37 -1 81 -9 97 -16 l31 -12 -28 -22 c-25 -20 -37 -21 -152 -19 -97 2 -133 6 -163 21 -21 10 -39 21 -39 24 0 24 77 40 152 32 20 -3 66 -6 102 -8z"/> <path d="M5378 5653 c-14 -21 -57 -74 -95 -118 -37 -44 -84 -100 -103 -125 -19 -25 -39 -47 -43 -49 -5 -2 -13 -13 -18 -25 -5 -11 -18 -34 -28 -51 -11 -16 -20 -37 -20 -45 -1 -18 109 -130 127 -130 6 0 19 15 28 33 15 28 128 184 143 197 4 3 19 21 35 40 84 104 104 128 138 163 41 44 40 60 -5 78 -18 7 -53 26 -78 41 -25 15 -48 28 -51 28 -3 0 -17 -17 -30 -37z m5 -115 c2 -7 0 -24 -5 -37 -11 -32 -28 -15 -21 22 6 28 18 35 26 15z m-69 -100 c4 -22 1 -37 -10 -50 -25 -27 -32 -22 -32 20 0 62 31 85 42 30z"/> <path d="M8511 5476 c-12 -15 -43 -145 -44 -186 0 -14 9 -59 20 -100 11 -41 23 -87 27 -102 3 -16 11 -28 16 -28 13 0 14 417 1 424 -5 3 -14 0 -20 -8z"/> <path d="M7519 5467 c-14 -8 -45 -17 -70 -21 -24 -4 -57 -11 -74 -16 -16 -5 -42 -12 -57 -15 -23 -4 -29 -12 -34 -45 -4 -22 -11 -43 -15 -46 -5 -3 -9 -12 -9 -20 0 -17 -24 -72 -86 -199 -24 -50 -44 -95 -44 -101 0 -7 -7 -17 -15 -24 -8 -7 -15 -20 -15 -30 0 -10 -7 -23 -15 -30 -8 -7 -15 -19 -15 -27 0 -8 -11 -29 -25 -47 -44 -57 -41 -58 123 -51 139 6 192 16 192 38 0 9 15 45 45 112 8 17 23 53 35 80 11 28 27 62 35 77 8 14 15 34 15 45 0 10 7 27 15 37 8 11 15 29 15 40 0 12 7 30 15 40 8 11 15 31 15 45 1 14 7 37 15 51 8 14 14 36 15 51 0 14 5 30 11 36 29 29 -25 44 -72 20z m-49 -114 c2 -2 -1 -13 -8 -23 -6 -11 -14 -38 -18 -62 -3 -24 -9 -52 -13 -63 -26 -67 -34 -94 -39 -130 -2 -22 -10 -49 -17 -60 -7 -11 -15 -32 -19 -46 -9 -42 -46 -81 -69 -75 -12 3 -32 -3 -48 -15 -37 -26 -49 -24 -51 9 -2 46 2 65 19 84 8 9 19 34 24 55 4 21 19 72 34 113 14 41 31 91 37 110 6 19 25 54 42 77 30 42 32 42 76 36 25 -3 47 -7 50 -10z"/> <path d="M4947 5393 c-4 -3 -7 -61 -7 -128 0 -210 28 -266 233 -455 73 -68 86 -59 52 38 -14 39 -25 83 -25 96 0 14 -4 28 -10 31 -5 3 -10 17 -10 30 0 16 -19 40 -65 80 -82 72 -110 123 -119 211 -4 38 -10 77 -12 87 -5 17 -25 23 -37 10z"/> <path d="M8337 5393 c-4 -3 -7 -31 -7 -62 0 -55 -24 -179 -41 -213 -5 -11 -5 -25 0 -35 13 -27 32 -84 42 -128 5 -22 13 -49 19 -60 5 -11 11 -45 14 -75 2 -30 10 -88 16 -128 8 -54 8 -95 -1 -165 -22 -174 -22 -177 -8 -177 14 0 59 87 59 114 0 8 5 18 10 21 6 3 10 16 10 28 0 12 7 35 15 51 8 15 15 40 15 55 0 14 7 48 15 75 17 57 20 202 4 243 -6 15 -14 48 -19 73 -4 25 -14 61 -20 80 -7 19 -18 51 -25 70 -7 19 -18 51 -25 70 -6 19 -14 46 -17 60 -3 14 -11 39 -19 57 -8 17 -14 36 -14 42 0 12 -13 15 -23 4z"/> <path d="M6190 5370 c-11 -11 -20 -23 -20 -27 0 -5 -14 -23 -30 -42 -17 -18 -30 -37 -30 -40 0 -3 -12 -19 -27 -36 -16 -16 -79 -97 -141 -179 -92 -122 -111 -152 -100 -162 7 -7 47 -19 88 -28 41 -8 95 -20 119 -26 51 -13 58 -8 97 58 15 26 31 51 36 57 4 5 58 78 119 160 62 83 117 155 123 160 25 22 66 82 59 88 -3 4 -28 7 -54 7 -26 0 -70 4 -96 9 -115 23 -121 23 -143 1z m98 -93 c2 -10 -3 -27 -12 -36 -9 -10 -14 -25 -10 -35 3 -9 1 -16 -5 -16 -6 0 -11 -7 -11 -15 0 -8 -8 -22 -19 -32 -10 -10 -23 -33 -29 -51 -7 -19 -25 -49 -42 -68 -16 -19 -30 -41 -30 -48 0 -18 -83 -58 -111 -54 -12 2 -27 11 -33 20 -8 14 -5 23 16 45 37 40 141 195 143 213 2 28 20 48 65 74 50 29 73 29 78 3z"/> <path d="M5387 5255 c-10 -7 -28 -31 -40 -52 -11 -21 -31 -56 -44 -78 -54 -94 -58 -105 -45 -125 7 -11 12 -31 12 -44 0 -13 7 -48 16 -77 8 -30 22 -79 31 -109 21 -76 35 -114 88 -235 43 -100 90 -188 103 -192 18 -8 32 14 32 52 1 31 27 113 48 152 16 29 15 65 -3 89 -8 10 -15 25 -15 32 0 8 -6 28 -14 45 -8 18 -22 57 -31 87 -9 30 -21 69 -27 85 -5 17 -13 46 -17 65 -4 19 -13 45 -19 57 -7 12 -12 34 -12 50 -1 15 -7 39 -15 53 -8 14 -14 52 -15 87 0 68 -6 78 -33 58z m63 -561 c0 -8 -4 -14 -10 -14 -5 0 -10 9 -10 21 0 11 5 17 10 14 6 -3 10 -13 10 -21z"/> <path d="M7506 5013 c-17 -58 -33 -95 -68 -164 -10 -20 -18 -43 -18 -50 0 -11 43 -82 60 -99 18 -18 138 -211 169 -272 17 -34 38 -36 50 -5 5 12 21 39 35 60 14 21 26 40 26 43 0 6 20 31 43 52 21 20 22 58 2 66 -8 3 -15 12 -15 20 0 8 -6 21 -13 28 -7 7 -18 24 -24 38 -20 41 -56 101 -98 165 -49 75 -62 95 -74 120 -15 30 -37 55 -48 55 -5 0 -17 -26 -27 -57z m125 -215 c22 -27 23 -38 7 -72 -9 -21 -16 -24 -37 -19 -35 8 -39 13 -18 24 21 12 23 49 2 49 -8 0 -15 9 -15 20 0 28 37 26 61 -2z m72 -143 c1 -5 -6 -11 -15 -13 -11 -2 -18 3 -18 13 0 17 30 18 33 0z"/> <path d="M6250 4919 c-44 -67 -80 -130 -80 -139 0 -10 7 -23 15 -30 8 -7 15 -16 15 -21 0 -5 20 -38 45 -75 25 -36 45 -67 45 -69 0 -2 14 -24 30 -48 17 -25 30 -47 30 -50 0 -14 194 -292 205 -295 7 -2 32 30 55 70 24 40 56 89 72 109 33 43 33 43 11 68 -31 33 -43 50 -43 57 0 3 -13 23 -30 44 -16 21 -30 40 -30 43 0 3 -13 25 -29 49 -16 24 -39 63 -52 86 -13 24 -38 69 -56 100 -39 71 -65 124 -89 180 -10 23 -21 42 -26 42 -4 0 -44 -55 -88 -121z m111 -143 c-10 -27 -41 -27 -51 0 -7 18 -4 20 25 21 30 1 33 -1 26 -21z m59 -61 c19 -23 23 -120 5 -135 -8 -7 -21 -10 -29 -7 -20 8 -31 70 -16 96 9 17 8 22 -6 28 -9 3 -20 0 -25 -8 -10 -17 -42 -1 -47 25 -3 13 6 16 51 16 36 0 59 -5 67 -15z m79 -132 c6 -11 6 -24 0 -36 -16 -29 -6 -49 31 -61 36 -11 49 -38 31 -66 -15 -22 -59 6 -80 50 -10 23 -23 35 -36 35 -30 0 -33 42 -3 47 15 2 24 11 26 26 4 26 17 29 31 5z"/> <path d="M8144 5002 c-90 -46 -125 -62 -140 -62 -7 0 -42 -13 -79 -30 -37 -16 -73 -30 -81 -30 -22 0 -74 -29 -74 -40 0 -6 17 -36 39 -68 21 -31 42 -67 45 -79 10 -32 31 -46 53 -35 20 10 59 28 148 67 33 15 69 31 80 36 11 5 34 18 50 29 17 11 39 24 50 29 43 19 47 35 30 98 -9 32 -20 71 -24 87 -3 16 -11 31 -16 32 -6 1 -42 -14 -81 -34z m26 -106 c0 -15 -37 -32 -48 -22 -6 6 27 35 41 36 4 0 7 -6 7 -14z m-85 -36 c9 -15 -31 -48 -74 -60 -22 -6 -43 -15 -46 -20 -7 -12 -45 -13 -45 -2 0 10 39 46 60 56 8 4 26 13 40 21 29 17 56 19 65 5z"/> <path d="M4940 4916 c0 -13 7 -40 15 -59 8 -20 15 -57 15 -82 0 -25 7 -62 15 -82 8 -19 15 -48 15 -62 0 -15 7 -36 15 -47 8 -10 15 -27 15 -37 0 -9 4 -25 10 -35 5 -9 25 -51 44 -93 38 -80 79 -129 91 -109 4 7 3 22 -3 33 -39 86 -55 172 -56 304 -1 127 -2 136 -21 143 -19 7 -54 44 -115 119 -29 37 -40 39 -40 7z"/> <path d="M5570 4869 c0 -6 6 -23 13 -37 26 -51 45 -97 63 -152 10 -30 22 -60 27 -67 4 -6 38 -21 75 -33 61 -19 94 -29 251 -74 29 -9 66 -16 81 -16 15 0 62 -9 105 -20 113 -29 120 -18 47 79 -66 88 -77 105 -97 147 -19 42 -31 50 -100 62 -72 12 -169 36 -210 50 -16 6 -57 18 -90 27 -33 10 -73 23 -88 31 -34 17 -77 18 -77 3z m255 -150 c33 -4 77 -13 98 -19 22 -6 41 -9 44 -7 5 6 87 -33 118 -56 16 -13 17 -17 6 -31 -15 -17 -71 -22 -71 -6 0 6 -15 10 -33 10 -85 0 -239 52 -262 89 -10 17 7 42 24 35 9 -4 43 -10 76 -15z"/> <path d="M7337 4734 c-5 -5 -350 -21 -625 -28 -56 -2 -105 -6 -109 -9 -3 -4 19 -39 48 -79 30 -40 67 -92 82 -115 l27 -43 173 1 c94 0 222 5 282 10 61 5 152 12 203 15 63 5 95 11 99 20 4 10 -42 79 -106 160 -4 5 -14 20 -20 32 -12 23 -45 45 -54 36z m1 -107 c45 -41 22 -57 -83 -57 -33 0 -87 -4 -120 -10 -33 -5 -94 -12 -135 -15 -41 -3 -94 -7 -117 -10 -37 -4 -46 0 -73 26 -46 47 -40 56 38 58 37 1 92 5 123 9 30 5 68 5 84 0 15 -4 33 -4 39 0 12 7 100 17 176 18 32 1 51 -4 68 -19z"/> <path d="M8054 4651 c-43 -22 -100 -49 -127 -60 -30 -14 -57 -36 -75 -61 -15 -22 -47 -69 -72 -105 -25 -36 -60 -82 -77 -103 -18 -20 -33 -43 -33 -49 0 -7 -3 -13 -8 -13 -4 0 -31 -30 -59 -67 -29 -38 -64 -83 -79 -101 -15 -18 -24 -35 -21 -39 4 -3 44 5 89 20 46 14 100 28 120 32 30 5 45 16 73 53 19 26 39 52 44 58 35 42 141 183 141 187 0 3 20 35 45 71 25 37 45 68 45 71 0 3 15 27 33 53 28 39 52 92 43 92 -2 0 -38 -18 -82 -39z"/> <path d="M5647 4523 c-3 -5 -8 -24 -12 -43 -4 -19 -11 -41 -16 -50 -16 -29 -49 -109 -49 -119 0 -5 -6 -22 -14 -38 -17 -35 -36 -94 -36 -115 0 -16 57 -42 118 -54 18 -4 35 -11 38 -15 3 -5 16 -9 29 -9 26 0 30 8 40 83 3 26 13 59 21 75 7 15 14 32 14 39 0 13 20 54 70 147 24 45 19 54 -36 62 -21 3 -63 15 -92 25 -58 21 -69 23 -75 12z m74 -145 c6 -23 2 -32 -23 -53 -39 -33 -48 -32 -48 10 0 24 5 35 15 35 9 0 15 9 15 21 0 30 32 20 41 -13z m-47 -96 c3 -5 3 -25 -1 -45 -4 -28 -10 -37 -25 -37 -15 0 -17 3 -8 19 5 11 10 31 10 45 0 25 13 35 24 18z"/> <path d="M8300 4490 c0 -49 -145 -216 -259 -299 -19 -14 -25 -31 -34 -104 -5 -48 -7 -90 -4 -93 19 -20 256 216 275 272 53 160 62 222 35 232 -7 2 -13 -2 -13 -8z"/> <path d="M6930 4384 c-58 -7 -112 -11 -121 -8 -28 8 -45 -5 -90 -74 -24 -37 -83 -120 -131 -184 -48 -64 -88 -122 -88 -128 0 -9 14 -14 33 -11 5 1 25 -3 45 -8 20 -5 67 -12 103 -15 l66 -6 24 34 c14 19 51 64 84 101 80 90 234 298 229 307 -6 10 -19 9 -154 -8z m-42 -107 c2 -11 -5 -29 -16 -40 -12 -12 -29 -42 -40 -67 -11 -25 -31 -56 -46 -69 -14 -14 -26 -31 -26 -39 0 -10 -7 -13 -21 -9 -15 4 -19 2 -15 -8 6 -16 -19 -39 -32 -31 -32 20 -15 113 27 148 12 10 21 24 21 32 0 7 7 26 15 42 28 54 125 84 133 41z"/> <path d="M7893 4203 c-29 -43 -64 -91 -78 -107 -19 -23 -25 -40 -25 -79 0 -64 -24 -139 -82 -260 -38 -79 -45 -90 -87 -137 -44 -49 -51 -70 -23 -70 31 0 202 157 223 205 5 11 18 34 28 50 48 75 91 190 91 245 0 19 7 67 15 105 31 148 14 161 -62 48z"/> <path d="M5177 4247 c-7 -17 101 -136 172 -191 31 -24 83 -57 116 -74 58 -29 74 -36 175 -80 89 -39 166 -74 197 -90 18 -9 35 -13 39 -9 7 7 -31 62 -79 112 -15 17 -35 42 -44 57 -11 17 -28 29 -52 33 -20 4 -40 10 -46 15 -5 4 -23 10 -39 14 -39 10 -221 97 -269 130 -21 14 -40 26 -42 26 -3 0 -25 16 -51 35 -49 37 -69 43 -77 22z"/> <path d="M5829 4223 c-5 -15 -12 -47 -15 -72 -3 -25 -10 -62 -16 -83 -10 -33 -8 -40 23 -84 42 -59 44 -63 70 -94 12 -14 33 -43 47 -65 14 -22 36 -51 48 -65 13 -14 50 -54 82 -88 l59 -64 56 58 c32 31 57 60 57 64 0 4 -26 39 -57 77 -97 115 -127 155 -147 187 -10 17 -26 38 -35 47 -25 24 -131 183 -131 197 0 23 -31 12 -41 -15z"/> <path d="M6888 4028 c-18 -24 -43 -54 -56 -68 -43 -47 -43 -52 1 -102 23 -25 59 -66 79 -89 21 -24 61 -70 91 -103 l53 -58 67 57 c37 32 67 65 67 74 0 9 -14 30 -32 46 -39 38 -208 261 -208 275 0 23 -30 7 -62 -32z"/> <path d="M7663 4025 c-30 -13 -85 -23 -233 -45 -30 -4 -73 -12 -95 -18 -22 -6 -70 -14 -107 -17 -36 -4 -74 -12 -84 -20 -17 -12 -16 -16 22 -57 23 -25 49 -57 59 -71 20 -31 46 -34 102 -12 21 8 63 19 93 25 30 6 73 15 95 19 62 12 148 42 166 58 20 17 53 118 45 138 -7 18 -21 18 -63 0z"/> <path d="M6140 3964 c0 -8 22 -39 48 -67 27 -29 54 -59 60 -67 63 -82 54 -78 282 -111 41 -5 116 -17 166 -25 99 -15 214 -19 214 -6 0 5 -17 24 -39 43 -21 19 -60 59 -85 89 -52 61 -25 52 -276 94 -47 8 -103 19 -125 25 -22 6 -61 11 -86 11 -26 0 -66 7 -89 15 -54 19 -70 19 -70 -1z"/> <path d="M5550 3870 c0 -5 5 -10 10 -10 6 0 10 -4 10 -10 0 -16 169 -178 230 -221 19 -13 37 -26 40 -29 20 -21 119 -80 133 -80 32 0 17 27 -58 101 -41 41 -82 89 -92 107 -12 22 -33 40 -63 53 -72 32 -112 53 -148 77 -37 23 -62 28 -62 12z"/> <path d="M7450 3760 c-8 -6 -33 -15 -55 -20 -22 -6 -49 -15 -60 -20 -11 -5 -36 -11 -56 -14 -23 -4 -48 -20 -75 -47 -48 -50 -168 -142 -251 -194 -64 -39 -74 -51 -49 -61 28 -11 170 21 216 47 8 5 22 12 30 16 14 6 98 70 110 83 3 3 27 24 55 45 58 47 93 76 109 90 6 6 28 23 48 39 21 16 35 32 32 37 -7 12 -35 11 -54 -1z"/> <path d="M6230 3621 c-36 -33 -80 -68 -97 -78 -69 -37 -23 -73 95 -73 62 0 66 1 131 52 36 29 72 59 80 66 8 7 24 20 37 29 13 8 24 24 24 34 0 16 -8 19 -44 19 -23 0 -70 3 -102 6 l-59 6 -65 -61z"/> <path d="M7350 3554 c-19 -20 -47 -42 -61 -49 -28 -15 -43 -40 -34 -56 4 -5 13 -5 23 0 36 20 119 43 172 50 50 5 55 8 55 31 0 21 -6 26 -38 31 -21 3 -43 11 -50 18 -17 17 -29 13 -67 -25z"/> <path d="M6449 3524 c-18 -20 -47 -42 -62 -50 -43 -23 -28 -38 44 -45 35 -4 106 -12 157 -19 135 -17 161 -1 70 45 -29 15 -76 44 -105 66 -29 21 -56 39 -61 39 -4 0 -24 -16 -43 -36z"/> <path d="M3557 2951 c-18 -6 -27 -22 -27 -51 0 -14 -7 -34 -15 -44 -8 -11 -15 -32 -15 -47 0 -14 -7 -32 -15 -39 -8 -7 -15 -22 -15 -34 0 -12 -7 -31 -15 -42 -8 -10 -15 -28 -15 -39 0 -11 -7 -29 -15 -39 -8 -11 -15 -30 -15 -42 0 -12 -7 -27 -15 -34 -8 -7 -15 -21 -15 -30 0 -10 -6 -31 -14 -47 -18 -35 -45 -97 -94 -213 -8 -19 -21 -47 -29 -62 -7 -14 -13 -33 -13 -41 0 -8 -7 -20 -15 -27 -8 -7 -15 -20 -15 -30 0 -10 -7 -23 -15 -30 -8 -7 -15 -19 -15 -27 0 -7 -9 -27 -21 -42 -26 -35 -23 -77 6 -73 11 1 55 4 97 6 43 1 81 6 85 9 9 10 34 76 40 110 3 15 14 32 24 37 11 6 94 8 218 4 152 -5 201 -4 201 5 0 7 -11 36 -24 64 -13 29 -26 60 -30 71 -6 17 -15 18 -134 11 -71 -3 -137 -7 -148 -8 -15 -2 -19 4 -18 30 1 18 9 40 18 48 9 9 16 25 16 35 0 10 6 31 14 47 8 15 22 48 31 73 9 25 23 60 31 78 8 18 14 41 14 52 0 10 4 21 9 24 5 4 12 29 16 56 5 38 11 50 24 50 25 0 41 -20 41 -53 0 -16 6 -41 14 -55 18 -36 37 -91 43 -124 3 -15 11 -33 19 -39 8 -6 14 -21 14 -33 0 -12 7 -31 15 -42 8 -10 15 -29 15 -40 0 -12 7 -27 15 -34 8 -7 15 -20 15 -29 0 -10 7 -26 15 -37 8 -10 15 -28 15 -40 0 -11 7 -29 15 -40 8 -10 15 -28 15 -39 0 -11 6 -29 14 -40 7 -11 16 -31 19 -45 3 -14 12 -43 20 -65 15 -39 17 -40 59 -38 24 1 67 -3 97 -8 41 -7 57 -6 63 3 8 13 1 49 -12 58 -4 3 -24 41 -44 85 -21 44 -44 92 -52 107 -8 14 -14 33 -14 41 0 8 -7 20 -15 27 -8 7 -15 23 -15 35 0 12 -7 28 -15 35 -8 7 -15 23 -15 35 0 12 -7 28 -15 35 -8 7 -15 23 -15 35 0 12 -7 28 -15 35 -8 7 -15 22 -15 34 0 11 -7 30 -15 40 -8 11 -15 30 -15 42 0 12 -7 27 -15 34 -8 7 -15 22 -15 34 0 12 -7 31 -15 42 -8 10 -15 28 -15 39 0 11 -7 29 -15 39 -8 11 -15 29 -15 41 0 12 -7 30 -15 41 -8 10 -15 33 -15 49 -1 57 -20 68 -115 69 -47 1 -91 -1 -98 -3z m-169 -763 c2 -9 -6 -18 -18 -21 -11 -3 -20 -13 -20 -25 0 -23 -25 -48 -34 -33 -8 12 11 61 32 83 20 19 36 18 40 -4z"/> <path d="M4313 2942 c-3 -7 0 -39 7 -70 19 -85 25 -577 10 -748 -7 -76 -13 -152 -14 -169 l-1 -30 100 0 100 0 1 432 c0 238 2 435 5 437 2 2 53 0 114 -4 l110 -8 37 -43 c42 -49 54 -105 43 -196 -13 -109 -58 -151 -166 -155 l-74 -3 0 -75 0 -75 106 2 c89 1 113 6 150 25 54 28 118 92 143 144 11 21 25 51 33 66 19 37 17 206 -2 232 -8 11 -15 28 -15 39 0 32 -106 156 -134 157 -5 0 -17 6 -25 13 -29 25 -125 37 -325 40 -158 2 -199 0 -203 -11z"/> <path d="M5183 2947 c-2 -4 1 -40 9 -80 18 -97 18 -776 1 -860 -7 -31 -10 -63 -8 -70 4 -9 83 -12 345 -12 365 0 362 0 325 49 -8 11 -15 34 -15 52 0 65 -10 68 -242 61 -155 -4 -208 -2 -209 6 -2 48 0 279 3 281 2 2 89 -1 193 -4 105 -4 193 -5 198 -3 13 8 8 160 -5 165 -14 5 -294 -8 -346 -16 -44 -7 -48 8 -44 162 3 122 4 124 25 119 12 -3 105 -7 206 -9 l184 -3 19 45 c11 25 20 62 21 83 l2 38 -328 2 c-181 1 -331 -2 -334 -6z m170 -449 c6 -18 -11 -48 -27 -48 -14 0 -29 38 -20 52 8 13 42 9 47 -4z m-17 -83 c4 -8 3 -23 -1 -32 -6 -17 -7 -17 -20 0 -14 19 -10 47 6 47 5 0 12 -7 15 -15z"/> <path d="M6390 2945 c-14 -8 -37 -14 -52 -15 -15 0 -29 -4 -32 -9 -4 -5 -25 -19 -49 -30 -41 -20 -137 -103 -150 -132 -4 -7 -16 -27 -27 -44 -11 -16 -22 -37 -26 -45 -3 -8 -11 -28 -19 -45 -13 -29 -28 -131 -28 -190 0 -62 16 -161 29 -182 8 -12 14 -31 14 -41 0 -11 7 -25 15 -32 8 -7 15 -17 15 -22 0 -25 105 -137 154 -164 61 -34 104 -54 118 -54 9 0 32 -7 51 -15 44 -18 202 -20 244 -4 15 6 44 15 63 19 91 21 160 61 142 82 -13 16 -42 97 -42 119 0 8 -6 23 -13 33 -12 16 -15 15 -47 -14 -62 -55 -114 -72 -217 -72 -112 0 -162 20 -238 97 -80 79 -98 126 -98 255 -1 85 3 114 16 134 9 14 17 30 17 36 0 13 15 32 61 79 80 80 119 95 242 95 109 0 128 -6 208 -66 20 -16 41 -28 46 -28 5 0 17 28 27 63 10 34 24 72 32 83 11 18 10 25 -2 43 -8 11 -24 21 -34 21 -10 0 -31 6 -47 14 -70 34 -132 46 -239 46 -76 -1 -117 -5 -134 -15z"/> <path d="M9155 2943 c-64 -20 -124 -48 -151 -71 -18 -14 -22 -31 -27 -104 -5 -87 -4 -88 18 -88 15 0 26 8 30 20 7 22 76 80 96 80 8 0 23 7 33 15 47 36 152 3 203 -63 26 -34 28 -44 28 -122 -1 -87 -12 -121 -66 -205 -10 -16 -22 -37 -26 -45 -3 -8 -19 -31 -35 -51 -15 -20 -28 -42 -28 -48 0 -7 -7 -14 -15 -17 -8 -4 -15 -12 -15 -19 0 -7 -3 -15 -7 -17 -5 -1 -19 -19 -33 -39 -33 -48 -93 -120 -158 -190 -39 -42 -49 -59 -40 -65 7 -5 158 -8 336 -6 l323 3 -3 72 -3 72 -140 0 c-77 0 -164 -3 -192 -7 -48 -6 -53 -5 -53 13 0 10 20 38 44 62 54 53 156 190 186 251 12 25 26 48 31 52 5 3 9 15 9 28 0 12 7 31 15 42 10 14 14 48 15 129 0 116 -8 147 -58 209 -29 37 -107 96 -127 96 -9 0 -24 4 -33 9 -35 19 -107 21 -157 4z"/> <path d="M7425 2937 c-50 -17 -109 -46 -133 -65 -18 -14 -24 -30 -27 -72 -1 -30 -6 -71 -10 -91 -4 -22 -3 -39 3 -43 6 -3 34 18 64 48 86 87 179 116 249 79 35 -19 69 -49 69 -60 0 -3 8 -15 17 -26 14 -15 18 -36 17 -99 -1 -74 -10 -106 -46 -168 -4 -8 -11 -22 -15 -30 -3 -8 -19 -31 -35 -51 -15 -20 -28 -40 -28 -43 0 -15 -240 -324 -274 -354 -46 -40 -43 -68 5 -58 18 3 166 6 330 6 l298 0 -2 73 -2 72 -145 -1 c-80 0 -167 -3 -193 -7 -70 -10 -70 9 2 84 34 35 61 67 61 71 0 4 15 25 33 45 35 42 52 67 66 100 6 11 15 24 20 28 6 3 11 14 11 24 0 10 7 24 15 31 8 7 15 22 15 34 0 12 7 31 15 42 10 14 14 47 15 118 0 120 -17 164 -95 242 -39 39 -64 55 -107 68 -62 18 -147 19 -193 3z"/> <path d="M8325 2938 c-36 -9 -94 -34 -146 -64 -26 -15 -109 -104 -120 -129 -5 -11 -21 -40 -34 -64 -14 -24 -25 -54 -25 -65 0 -12 -7 -39 -15 -61 -19 -54 -19 -210 0 -265 8 -23 15 -55 15 -70 0 -15 7 -33 15 -40 8 -7 15 -20 15 -30 0 -10 7 -23 15 -30 8 -7 15 -18 15 -26 0 -25 107 -119 174 -153 65 -33 70 -34 191 -34 124 -1 143 4 215 44 8 5 24 13 36 18 25 11 134 130 134 146 0 6 5 16 12 23 62 62 84 398 33 502 -7 14 -23 48 -36 75 -28 62 -129 165 -189 192 -91 42 -211 54 -305 31z m216 -150 c113 -59 179 -193 179 -363 0 -139 -35 -238 -111 -314 -50 -50 -96 -71 -175 -78 -73 -7 -167 40 -218 108 -20 26 -36 56 -36 64 0 9 -7 27 -17 41 -13 21 -16 53 -17 174 0 150 3 165 45 240 5 8 13 24 18 35 11 24 65 69 112 94 51 28 166 27 220 -1z"/> <path d="M9885 2935 c-53 -15 -105 -40 -131 -62 -18 -15 -22 -32 -27 -110 -5 -76 -3 -93 8 -93 8 0 20 7 27 16 35 43 93 94 107 94 9 0 25 7 35 15 47 36 152 3 203 -63 26 -34 28 -44 28 -122 0 -87 -10 -119 -66 -205 -10 -16 -22 -37 -26 -45 -8 -18 -94 -143 -102 -150 -3 -3 -19 -23 -34 -46 -15 -22 -35 -49 -45 -60 -9 -11 -42 -49 -72 -84 -30 -36 -61 -70 -69 -76 -22 -17 -6 -48 22 -40 12 3 158 6 325 6 l302 0 0 77 0 76 -172 -6 c-95 -4 -183 -10 -194 -13 -42 -11 -35 23 15 73 73 74 201 251 201 277 0 8 7 19 15 26 8 7 15 22 15 34 0 11 7 30 15 40 23 31 21 230 -3 276 -33 64 -55 91 -101 123 -77 54 -184 70 -276 42z"/> <path d="M4337 1571 c-7 -63 -6 -64 112 -60 l105 4 -3 -257 -3 -258 61 0 c42 0 61 4 61 13 1 6 1 123 0 259 l-1 246 108 -1 108 -2 0 45 0 45 -272 1 -271 2 -5 -37z"/> <path d="M5004 1305 l0 -306 60 3 60 3 0 124 1 124 130 1 130 1 0 45 0 45 -133 -2 -134 -2 3 132 3 132 -60 3 -60 3 0 -306z"/> <path d="M5429 1603 c0 -5 -1 -141 -1 -303 l-1 -295 57 0 57 0 2 303 2 302 -57 0 c-32 0 -58 -3 -59 -7z"/> <path d="M5885 1580 c-8 -16 -15 -39 -15 -52 0 -13 -7 -32 -15 -42 -8 -11 -15 -30 -15 -42 0 -12 -7 -27 -15 -34 -8 -7 -15 -21 -15 -32 0 -11 -6 -32 -13 -46 -13 -25 -25 -51 -62 -137 -22 -50 -56 -119 -73 -147 -24 -39 -3 -56 62 -50 47 4 48 5 69 54 l21 50 115 -3 c103 -4 116 -2 119 13 2 9 -6 30 -18 46 -21 28 -23 29 -99 24 -43 -2 -81 0 -84 5 -3 5 5 31 18 59 32 68 65 164 65 191 0 49 46 19 60 -39 11 -45 29 -92 61 -165 16 -34 31 -73 35 -87 3 -15 10 -29 15 -32 5 -3 9 -16 9 -30 0 -14 7 -38 15 -54 13 -26 22 -30 60 -31 25 -1 51 -2 57 -3 18 -1 22 33 6 52 -18 23 -61 115 -126 272 -8 19 -21 48 -28 63 -8 16 -14 36 -14 46 0 9 -5 22 -11 28 -6 6 -14 26 -19 44 -5 19 -15 51 -22 72 -13 37 -13 37 -70 37 -54 0 -59 -2 -73 -30z"/> <path d="M6380 1603 c-1 -8 -1 -580 0 -596 0 -4 26 -7 58 -5 l57 3 3 303 2 302 -60 0 c-33 0 -60 -3 -60 -7z"/> <path d="M6650 1603 c-1 -7 0 -576 0 -595 0 -5 87 -8 194 -8 214 0 220 2 214 62 l-3 33 -137 1 c-76 0 -141 4 -145 7 -4 4 -6 120 -4 257 l3 250 -61 0 c-34 0 -61 -3 -61 -7z"/> <path d="M7327 1572 c-9 -21 -17 -47 -17 -58 0 -10 -7 -28 -15 -38 -8 -11 -15 -30 -15 -42 0 -12 -7 -27 -15 -34 -8 -7 -15 -21 -15 -30 0 -10 -6 -31 -14 -47 -7 -15 -20 -44 -28 -63 -27 -65 -45 -105 -77 -168 -43 -87 -42 -92 23 -92 59 0 67 6 87 64 l14 38 115 -3 c110 -4 115 -3 118 17 2 11 -6 32 -17 46 -19 24 -24 25 -94 20 -46 -3 -77 0 -81 6 -3 6 3 32 15 59 33 77 50 126 58 163 5 29 11 35 31 35 20 0 26 -6 31 -35 4 -19 17 -60 29 -90 12 -30 24 -65 27 -77 3 -12 11 -28 19 -34 8 -6 14 -19 14 -28 0 -9 7 -29 15 -45 8 -15 15 -37 15 -47 0 -10 7 -34 16 -53 15 -31 21 -35 68 -38 57 -5 83 12 65 41 -47 77 -58 98 -59 112 0 9 -7 22 -15 29 -8 7 -15 21 -15 30 0 10 -6 31 -14 47 -8 15 -21 44 -29 63 -18 44 -39 94 -61 143 -9 21 -16 43 -16 50 0 6 -7 31 -16 54 l-17 43 -56 0 c-57 0 -57 0 -74 -38z"/> <path d="M7825 1600 c-3 -5 -1 -28 5 -51 14 -52 14 -457 0 -495 -17 -44 -7 -54 54 -54 30 0 57 3 59 8 3 4 2 93 -2 197 -7 187 -5 225 8 225 4 0 29 -30 56 -67 27 -37 65 -86 85 -109 19 -22 53 -63 75 -89 22 -27 47 -55 56 -64 8 -9 30 -35 48 -59 33 -42 35 -43 85 -40 l51 3 -5 60 c-3 33 -5 125 -5 205 0 80 2 188 5 240 l5 95 -60 0 -60 0 1 -30 c0 -16 4 -110 8 -207 5 -124 4 -178 -3 -178 -15 0 -35 22 -108 117 -34 44 -76 96 -93 114 -18 19 -53 61 -78 94 -72 92 -76 95 -131 95 -28 0 -53 -4 -56 -10z"/> <path d="M8575 1305 l-1 -306 56 3 55 3 3 258 2 258 78 -6 c130 -11 183 -35 228 -106 30 -49 34 -151 6 -202 -23 -42 -54 -77 -68 -77 -6 0 -17 -7 -24 -15 -8 -10 -37 -15 -93 -17 l-82 -3 -6 -38 c-9 -55 5 -61 111 -53 106 8 162 30 218 86 64 64 82 111 82 211 0 86 -8 112 -54 181 -21 31 -109 98 -130 98 -7 0 -30 7 -49 15 -27 11 -75 15 -184 15 l-148 0 0 -305z"/> </g> </svg> 