<?xml version="1.0" standalone="no"?>
<!DOCTYPE svg PUBLIC "-//W3C//DTD SVG 20010904//EN"
 "http://www.w3.org/TR/2001/REC-SVG-20010904/DTD/svg10.dtd">
<svg version="1.0" xmlns="http://www.w3.org/2000/svg"
 width="537.000000pt" height="188.000000pt" viewBox="0 0 537.000000 188.000000"
 preserveAspectRatio="xMidYMid meet">
<metadata>
Created by potrace 1.16, written by Peter Selinger 2001-2019
</metadata>
<g transform="translate(0.000000,188.000000) scale(0.100000,-0.100000)"
fill="#ffffff" stroke="none">
<path d="M616 1546 c-12 -30 -56 -86 -137 -173 -83 -89 -129 -148 -152 -193
-31 -62 -32 -69 -32 -185 0 -118 1 -121 34 -183 40 -74 85 -116 161 -151 110
-50 301 -37 408 29 30 18 32 23 32 75 0 30 -3 55 -8 55 -4 0 -16 -19 -27 -42
-14 -29 -34 -49 -65 -66 -91 -48 -255 -13 -325 70 -64 75 -86 171 -61 267 34
134 118 201 248 201 74 0 134 -24 167 -66 35 -45 25 -73 -34 -95 -77 -29 -93
-63 -53 -114 l21 -27 19 35 c10 20 38 50 63 67 53 36 65 56 65 105 0 58 -23
88 -115 150 -48 32 -96 71 -107 86 l-21 29 -36 -41 c-19 -23 -65 -61 -101 -84
-127 -81 -182 -163 -199 -290 l-8 -70 -1 55 c-2 119 60 222 194 321 114 83
144 119 144 171 0 39 -32 108 -49 108 -5 0 -16 -20 -25 -44z"/>
<path d="M2560 1243 c0 -21 -3 -62 -6 -90 -6 -49 -5 -53 14 -53 14 0 22 8 27
30 3 16 15 41 26 55 18 22 27 25 90 25 l69 0 0 -237 c0 -269 -3 -282 -63 -296
-21 -5 -37 -15 -37 -23 0 -11 27 -14 140 -14 114 0 140 3 140 14 0 8 -14 17
-32 21 -59 13 -58 6 -58 281 l0 254 65 0 c73 0 100 -18 111 -77 5 -24 11 -33
27 -33 19 0 20 4 14 86 -3 48 -8 89 -11 92 -3 2 -21 -3 -40 -12 -48 -23 -386
-24 -430 -1 -41 22 -46 19 -46 -22z"/>
<path d="M3439 1258 c-9 -7 -56 -114 -104 -238 -122 -314 -129 -326 -170 -340
-19 -6 -35 -18 -35 -26 0 -11 22 -14 110 -14 88 0 110 3 110 14 0 8 -14 17
-31 21 -17 4 -33 13 -36 21 -3 7 6 46 19 86 l25 73 95 3 95 3 27 -71 c32 -88
33 -108 4 -112 -13 -2 -24 -11 -26 -20 -3 -16 8 -18 117 -18 102 0 121 2 121
15 0 9 -13 18 -31 22 -17 3 -38 17 -47 31 -9 14 -60 145 -113 291 -53 146
-101 267 -106 268 -5 2 -16 -2 -24 -9z m19 -220 c51 -143 55 -128 -33 -128
-58 0 -76 3 -73 13 3 6 20 54 38 105 18 50 34 92 35 92 2 0 16 -37 33 -82z"/>
<path d="M4788 1258 c-8 -7 -61 -129 -118 -270 -56 -142 -111 -269 -121 -282
-10 -13 -30 -27 -44 -30 -14 -4 -25 -13 -25 -21 0 -12 19 -15 105 -15 83 0
105 3 105 14 0 8 -13 19 -30 25 -37 12 -38 32 -7 116 l22 60 96 3 96 3 27 -73
c14 -40 26 -79 26 -86 0 -7 -13 -18 -30 -23 -16 -6 -30 -17 -30 -25 0 -11 24
-14 120 -14 99 0 120 3 120 15 0 8 -11 17 -24 21 -14 3 -31 13 -40 23 -12 13
-216 550 -216 568 0 7 -17 2 -32 -9z m21 -229 c16 -46 32 -92 36 -101 6 -16 0
-18 -69 -18 -42 0 -76 3 -76 7 0 12 73 203 77 200 2 -2 16 -42 32 -88z"/>
<path d="M1110 1237 c0 -8 17 -18 37 -23 27 -6 39 -16 44 -34 4 -14 7 -119 8
-235 1 -238 -3 -254 -62 -268 -21 -5 -37 -15 -37 -23 0 -12 40 -14 234 -14
l234 0 16 69 c20 88 20 91 -2 91 -12 0 -25 -14 -37 -41 -30 -65 -55 -79 -146
-79 -107 0 -109 3 -109 141 l0 109 74 0 c76 0 90 -7 98 -45 2 -12 13 -21 26
-23 21 -3 22 -1 22 93 0 94 -1 96 -22 93 -14 -2 -24 -11 -26 -23 -6 -34 -32
-45 -104 -45 l-68 0 0 115 0 115 85 0 c95 0 120 -14 132 -70 4 -21 11 -30 24
-30 17 0 19 8 19 70 l0 70 -220 0 c-176 0 -220 -3 -220 -13z"/>
<path d="M1750 1235 c0 -9 12 -18 30 -22 17 -3 40 -17 51 -32 20 -25 21 -36
17 -247 -3 -239 -5 -247 -59 -259 -16 -4 -29 -13 -29 -21 0 -11 22 -14 115
-14 93 0 115 3 115 14 0 8 -14 17 -30 21 -56 12 -61 32 -58 239 l3 186 191
-233 c123 -150 198 -233 211 -235 21 -3 22 -2 25 271 3 297 4 300 59 312 16 4
29 13 29 21 0 11 -23 14 -120 14 -96 0 -120 -3 -120 -14 0 -8 15 -17 35 -20
61 -12 66 -29 63 -234 l-3 -180 -188 224 -188 224 -74 0 c-61 0 -75 -3 -75
-15z"/>
<path d="M3860 1236 c0 -8 14 -17 30 -21 17 -4 35 -15 40 -25 13 -24 13 -450
1 -483 -7 -17 -20 -26 -45 -31 -22 -4 -36 -13 -36 -21 0 -12 23 -15 130 -15
104 0 130 3 130 14 0 8 -12 17 -27 21 -49 12 -53 21 -53 127 l0 99 38 -3 c35
-3 41 -9 97 -95 96 -145 130 -173 215 -173 33 0 40 3 40 20 0 11 -6 20 -14 20
-38 0 -226 258 -196 268 8 3 32 22 54 43 41 37 41 38 41 112 0 66 -3 79 -25
102 -44 48 -75 55 -255 55 -136 0 -165 -3 -165 -14z m315 -56 c34 -32 49 -89
35 -138 -16 -63 -73 -102 -146 -102 l-34 0 0 128 c0 71 3 132 8 136 4 4 31 6
60 4 37 -3 59 -11 77 -28z"/>
</g>
</svg>
