<?xml version="1.0" standalone="no"?>
<!DOCTYPE svg PUBLIC "-//W3C//DTD SVG 20010904//EN"
 "http://www.w3.org/TR/2001/REC-SVG-20010904/DTD/svg10.dtd">
<svg version="1.0" xmlns="http://www.w3.org/2000/svg"
 width="595.000000pt" height="595.000000pt" viewBox="0 0 595.000000 595.000000"
 preserveAspectRatio="xMidYMid meet">
<metadata>
Created by potrace 1.16, written by Peter Selinger 2001-2019
</metadata>
<g transform="translate(0.000000,595.000000) scale(0.100000,-0.100000)"
fill="#ffffff" stroke="none">
<path d="M687 4909 c-87 -21 -163 -82 -208 -169 l-24 -45 0 -1720 c0 -1671 1
-1721 19 -1770 25 -65 94 -137 159 -166 l52 -24 2295 0 c2238 0 2296 0 2345
19 65 25 137 94 166 159 l24 52 0 1715 c0 1666 -1 1716 -19 1765 -25 65 -94
137 -159 166 l-52 24 -2280 2 c-1308 0 -2296 -3 -2318 -8z m1294 -466 c-80
-41 -153 -119 -197 -209 -35 -70 -39 -86 -42 -173 -3 -79 0 -107 18 -160 42
-124 118 -214 230 -271 217 -109 478 -30 605 184 39 66 44 57 25 -45 -33 -174
-159 -347 -309 -423 -25 -13 -79 -34 -120 -46 -63 -19 -88 -22 -184 -17 -129
6 -204 28 -294 86 -174 113 -276 295 -277 496 -1 108 14 175 62 275 83 178
306 327 492 329 l44 1 -53 -27z m1389 -333 l12 -50 61 -18 62 -18 -59 -20
c-59 -20 -60 -21 -80 -80 l-20 -59 -18 61 c-18 60 -19 62 -65 74 -27 7 -51 16
-56 20 -4 3 17 14 47 24 54 16 56 18 72 71 10 30 21 52 25 50 4 -3 12 -27 19
-55z m-356 -472 l25 -83 85 -25 c47 -13 82 -27 78 -31 -4 -3 -42 -16 -85 -29
l-78 -24 -25 -83 c-15 -46 -28 -83 -30 -83 -2 0 -15 38 -29 84 l-25 83 -78 23
c-42 12 -81 26 -85 29 -4 4 31 18 77 31 l85 24 21 71 c27 92 29 95 34 95 3 0
16 -37 30 -82z m-1651 -805 c4 -2 7 -37 7 -76 l0 -72 -88 -1 c-148 -1 -195
-39 -195 -156 0 -104 45 -139 191 -146 l92 -4 0 -73 0 -74 -56 -7 c-126 -15
-254 13 -323 73 -64 54 -84 102 -89 209 -9 201 74 309 259 333 59 8 184 4 202
-6z m479 1 c75 -21 137 -75 169 -146 19 -44 23 -70 24 -153 0 -112 -16 -162
-73 -227 -52 -58 -120 -82 -232 -82 -101 0 -146 13 -205 58 -101 77 -130 299
-56 430 64 115 216 164 373 120z m438 -191 c0 -159 3 -193 18 -223 31 -62 102
-66 146 -7 19 26 21 44 24 223 l4 194 89 0 89 0 0 -187 c0 -230 -12 -286 -76
-350 -98 -98 -307 -97 -406 1 -58 59 -63 82 -66 319 l-3 217 90 0 91 0 0 -187z
m743 27 l82 -154 3 157 3 157 79 0 80 0 0 -300 0 -301 -97 3 -98 3 -90 168
-90 167 -5 -167 -5 -168 -82 -3 -83 -3 0 301 0 301 111 -3 111 -3 81 -155z
m877 90 l0 -70 -90 0 -90 0 -2 -227 -3 -228 -92 -3 -93 -3 0 231 0 230 -90 0
-90 0 0 70 0 70 275 0 275 0 0 -70z m540 0 l0 -70 -140 0 -140 0 0 -45 0 -45
140 0 140 0 0 -70 0 -70 -140 0 -140 0 0 -40 0 -40 140 0 140 0 0 -75 0 -75
-235 0 -235 0 0 300 0 300 235 0 235 0 0 -70z m488 55 c56 -24 80 -52 93 -109
16 -72 0 -124 -51 -170 -39 -35 -39 -36 -19 -48 30 -19 54 -63 89 -160 16 -48
30 -89 30 -93 0 -3 -46 -4 -101 -3 l-101 3 -29 80 c-31 89 -63 125 -110 125
l-29 0 0 -105 0 -105 -90 0 -90 0 0 300 0 300 185 0 c145 0 194 -3 223 -15z
m-3663 -755 c110 -16 105 -12 105 -89 l0 -68 -47 8 c-68 11 -177 11 -207 -1
-16 -6 -26 -17 -26 -29 0 -16 18 -25 99 -50 140 -44 191 -92 191 -181 0 -85
-57 -155 -149 -181 -51 -15 -210 -18 -283 -6 l-48 8 0 68 0 68 104 -5 c121 -5
171 2 181 26 10 25 -25 47 -105 67 -124 30 -180 87 -180 182 0 102 48 155 160
179 70 15 117 16 205 4z m2604 4 l31 -6 0 -74 0 -74 -87 0 c-146 -1 -203 -42
-203 -145 0 -111 43 -146 193 -153 l97 -5 0 -68 c0 -37 -4 -71 -10 -74 -5 -3
-41 -9 -78 -12 -124 -10 -263 28 -319 89 -62 66 -88 205 -59 317 27 106 88
166 196 195 57 15 185 21 239 10z m-1949 -74 l0 -69 -142 -3 -143 -3 -3 -42
-3 -43 145 0 146 0 0 -70 0 -70 -145 0 -145 0 0 -45 0 -45 145 0 145 0 0 -70
0 -70 -235 0 -235 0 0 300 0 300 235 0 235 0 0 -70z m494 45 c53 -27 78 -63
84 -123 6 -67 -11 -114 -58 -156 -35 -31 -37 -36 -20 -41 25 -8 60 -68 99
-170 17 -44 31 -81 31 -82 0 -2 -46 -3 -102 -3 l-103 0 -30 82 c-31 84 -55
111 -107 124 l-28 6 0 -106 0 -106 -95 0 -95 0 0 301 0 301 193 -4 c168 -3
197 -5 231 -23z m322 -82 c70 -201 82 -229 88 -213 4 9 30 83 59 165 l53 150
98 3 c77 2 97 0 93 -10 -3 -7 -56 -143 -118 -301 l-112 -288 -80 3 -80 3 -113
290 c-63 160 -114 293 -114 298 0 4 42 7 94 7 l94 0 38 -107z m624 -193 l0
-300 -90 0 -90 0 0 300 0 300 90 0 90 0 0 -300z m1710 280 c0 -19 -8 -20 -312
-22 l-313 -3 -3 -22 -3 -23 315 0 316 0 0 -25 0 -25 -455 0 -455 0 0 -45 0
-45 140 0 c133 0 140 1 140 20 0 20 7 20 315 20 308 0 315 0 315 -20 0 -20 -7
-20 -315 -20 l-315 0 0 -25 0 -25 315 0 c308 0 315 0 315 -20 0 -20 -7 -20
-315 -20 l-315 0 0 -25 0 -25 315 0 315 0 0 -25 0 -25 -315 0 -315 0 0 25 0
25 -140 0 -140 0 0 -43 0 -44 218 -6 c119 -4 324 -7 455 -7 230 0 237 -1 237
-20 0 -20 -7 -20 -315 -20 l-315 0 0 -25 0 -25 315 0 c308 0 315 0 315 -20 0
-20 -7 -20 -550 -20 l-550 0 0 300 0 300 550 0 c542 0 550 0 550 -20z"/>
<path d="M1672 2694 c-40 -28 -56 -73 -56 -159 0 -119 37 -175 115 -175 48 0
95 38 109 88 25 93 3 215 -45 246 -31 20 -94 20 -123 0z"/>
<path d="M4700 2631 l0 -61 43 0 c55 0 91 19 95 50 5 43 -19 63 -82 68 l-56 4
0 -61z"/>
</g>
</svg>
