<?xml version="1.0" standalone="no"?>
<!DOCTYPE svg PUBLIC "-//W3C//DTD SVG 20010904//EN"
 "http://www.w3.org/TR/2001/REC-SVG-20010904/DTD/svg10.dtd">
<svg version="1.0" xmlns="http://www.w3.org/2000/svg"
 width="999.000000pt" height="999.000000pt" viewBox="0 0 999.000000 999.000000"
 preserveAspectRatio="xMidYMid meet">
<metadata>
Created by potrace 1.16, written by Peter Selinger 2001-2019
</metadata>
<g transform="translate(0.000000,999.000000) scale(0.100000,-0.100000)"
fill="#ffffff" stroke="none">
<path d="M1760 6465 l0 -2095 652 0 652 0 -74 67 c-604 542 -919 1181 -971
1972 -50 744 185 1445 672 2013 40 45 75 85 78 88 3 3 15 15 25 28 l19 22
-526 0 -527 0 0 -2095z"/>
<path d="M4692 8549 c-443 -34 -852 -220 -1187 -541 -339 -324 -528 -687 -591
-1135 -20 -149 -15 -532 9 -661 78 -409 243 -718 547 -1023 411 -412 886 -597
1485 -576 259 9 464 49 671 132 563 225 1029 747 1179 1321 40 154 56 265 62
441 5 137 8 163 22 167 9 3 189 7 401 11 212 3 402 8 423 11 l37 6 0 -129 c-1
-602 -175 -1155 -513 -1627 -113 -158 -158 -209 -354 -403 l-173 -173 650 0
650 0 -2 2093 -3 2092 -1605 1 c-883 1 -1651 -2 -1708 -7z"/>
<path d="M2645 3920 c-213 -45 -390 -144 -555 -310 -144 -144 -239 -308 -292
-503 -19 -71 -23 -107 -23 -267 0 -163 3 -196 24 -275 66 -251 209 -464 416
-618 416 -311 1031 -279 1408 72 26 24 47 51 47 60 0 15 -45 62 -166 175 l-42
38 -85 -65 c-95 -73 -199 -126 -297 -153 -91 -26 -319 -26 -410 -1 -207 57
-398 213 -499 407 -59 114 -82 210 -83 350 -1 236 71 408 239 572 159 155 322
219 552 219 198 0 365 -60 512 -183 l71 -60 96 93 c54 51 105 101 116 110 17
16 15 20 -64 87 -153 130 -324 215 -505 253 -122 25 -336 25 -460 -1z"/>
<path d="M6839 3925 c-150 -28 -317 -102 -441 -195 -97 -73 -245 -235 -302
-328 -154 -258 -195 -563 -115 -869 75 -288 315 -570 593 -698 437 -203 977
-95 1302 258 36 40 76 90 90 113 l24 41 -2 374 -3 374 -482 3 -483 2 0 -160 0
-160 325 0 325 0 0 -173 0 -173 -67 -66 c-166 -162 -339 -226 -588 -215 -203
8 -356 72 -501 210 -177 167 -254 344 -254 580 1 201 68 374 203 522 158 173
341 255 572 256 238 1 430 -82 602 -259 l72 -74 125 88 c69 48 126 91 126 94
0 4 -29 41 -64 82 -146 171 -349 297 -584 360 -101 27 -360 34 -473 13z"/>
<path d="M4030 2835 l0 -1055 160 0 160 0 0 451 0 451 203 -4 c321 -7 335 -16
564 -369 84 -129 194 -299 246 -379 l95 -145 191 -3 c105 -1 191 0 191 2 0 4
-319 494 -485 747 -35 52 -84 118 -109 146 l-46 51 34 12 c57 18 156 88 217
152 139 145 190 344 139 542 -26 102 -69 176 -150 256 -78 77 -165 130 -275
168 l-80 27 -527 3 -528 3 0 -1056z m970 735 c114 -19 221 -87 267 -172 24
-46 25 -170 0 -219 -28 -57 -85 -109 -157 -143 l-65 -31 -347 -3 -348 -3 0
291 0 290 293 0 c160 0 321 -5 357 -10z"/>
<path d="M1838 1504 c-37 -20 -58 -63 -58 -120 0 -39 5 -51 34 -80 31 -31 39
-34 96 -34 58 0 61 1 58 22 -3 20 -8 23 -38 20 -55 -5 -90 28 -90 82 0 55 25
80 83 81 35 1 43 4 45 23 3 20 -1 22 -50 22 -29 -1 -65 -7 -80 -16z"/>
<path d="M2050 1395 l0 -125 80 0 c79 0 80 0 80 25 0 24 -3 25 -55 25 -52 0
-55 1 -55 24 0 23 5 25 48 28 40 3 47 6 50 26 3 20 0 22 -47 22 -48 0 -51 2
-51 25 0 23 3 25 50 25 47 0 50 2 50 25 0 24 -2 25 -75 25 l-75 0 0 -125z"/>
<path d="M2280 1395 l0 -125 31 0 30 0 -3 85 c-2 47 -2 85 -1 85 1 0 22 -38
48 -85 42 -77 49 -85 76 -85 l29 0 0 125 0 125 -25 0 c-25 0 -25 -1 -25 -82
l-1 -83 -25 50 c-53 104 -63 115 -100 115 l-34 0 0 -125z"/>
<path d="M2560 1495 c0 -22 4 -25 35 -25 l35 0 0 -100 0 -100 30 0 30 0 0 100
0 100 30 0 c25 0 30 4 30 25 0 25 0 25 -95 25 -95 0 -95 0 -95 -25z"/>
<path d="M2820 1395 l0 -125 30 0 c29 0 30 1 30 50 0 37 4 50 15 50 17 0 40
-34 49 -72 5 -23 12 -28 37 -28 27 0 30 3 24 23 -4 12 -9 31 -12 42 -3 11 -12
27 -19 36 -12 14 -11 18 6 34 20 18 26 60 12 81 -15 23 -52 34 -111 34 l-61 0
0 -125z"/>
<path d="M3107 1401 c-20 -65 -37 -121 -37 -125 0 -3 13 -6 29 -6 24 0 30 5
35 30 5 27 9 30 45 30 36 0 40 -3 46 -30 5 -25 11 -30 36 -30 16 0 29 3 29 8
0 4 -16 60 -37 125 l-36 117 -37 0 -37 0 -36 -119z"/>
<path d="M3370 1395 l0 -125 75 0 c73 0 75 1 75 25 0 23 -3 25 -50 25 l-50 0
0 100 0 100 -25 0 -25 0 0 -125z"/>
<path d="M3710 1395 l0 -125 25 0 c23 0 25 4 25 45 0 76 48 72 67 -5 7 -28 15
-36 37 -38 28 -4 28 -3 22 35 -4 21 -13 47 -21 58 -11 18 -10 24 6 44 26 31
24 57 -6 86 -21 22 -33 25 -90 25 l-65 0 0 -125z"/>
<path d="M3970 1395 l0 -125 81 0 c78 0 80 1 77 23 -3 19 -10 22 -55 25 -48 3
-53 5 -53 27 0 21 5 24 48 27 40 3 47 6 50 26 3 20 0 22 -47 22 -48 0 -51 2
-51 25 0 23 3 25 50 25 47 0 50 2 50 25 0 24 -2 25 -75 25 l-75 0 0 -125z"/>
<path d="M4227 1500 c-48 -38 -33 -98 32 -123 47 -19 57 -33 40 -53 -10 -12
-23 -14 -57 -9 -41 6 -43 5 -40 -17 3 -20 9 -23 56 -26 63 -4 96 13 106 53 9
37 -17 74 -65 93 -64 25 -47 69 22 55 28 -5 30 -4 27 18 -3 21 -9 24 -49 27
-34 2 -52 -2 -72 -18z"/>
<path d="M4420 1495 c0 -22 4 -25 35 -25 l35 0 0 -100 0 -100 30 0 30 0 0 100
0 100 35 0 c31 0 35 3 35 25 l0 25 -100 0 -100 0 0 -25z"/>
<path d="M4717 1513 c-3 -5 -19 -55 -37 -112 -17 -57 -34 -110 -37 -118 -4 -9
4 -13 26 -13 27 0 32 4 38 30 5 27 9 30 43 30 33 0 39 -4 49 -30 8 -24 16 -30
40 -30 28 0 29 2 21 28 -71 233 -66 222 -106 222 -18 0 -35 -3 -37 -7z"/>
<path d="M4930 1428 c0 -55 6 -103 13 -118 18 -36 76 -53 124 -37 51 17 63 44
63 155 0 92 0 92 -25 92 -25 0 -25 -2 -25 -77 0 -91 -15 -128 -50 -128 -35 0
-50 37 -50 128 0 75 0 77 -25 77 -25 0 -25 0 -25 -92z"/>
<path d="M5220 1395 l0 -125 30 0 c29 0 30 1 30 50 0 37 4 50 15 50 17 0 40
-34 49 -72 5 -23 12 -28 36 -28 l29 0 -14 45 c-7 25 -18 52 -24 59 -8 10 -6
18 9 31 29 26 26 69 -6 94 -21 16 -41 21 -90 21 l-64 0 0 -125z"/>
<path d="M5511 1423 c-48 -157 -47 -153 -17 -153 21 0 29 7 37 30 10 26 16 30
49 30 34 0 38 -3 44 -30 5 -26 10 -30 37 -30 25 0 30 4 26 18 -2 9 -20 65 -38
124 l-34 108 -37 0 -37 0 -30 -97z"/>
<path d="M5760 1395 l0 -125 30 0 30 0 0 83 0 82 46 -82 c41 -75 48 -83 75
-83 l29 0 0 125 0 125 -25 0 c-25 0 -25 -1 -25 -82 l0 -81 -36 69 c-48 91 -51
94 -90 94 l-34 0 0 -125z"/>
<path d="M6040 1495 c0 -22 4 -25 35 -25 l35 0 0 -100 0 -100 30 0 30 0 0 100
0 100 30 0 c25 0 30 4 30 25 0 25 0 25 -95 25 -95 0 -95 0 -95 -25z"/>
<path d="M6315 1495 c-43 -42 -26 -88 45 -120 31 -14 40 -23 38 -39 -3 -18 -9
-21 -50 -19 -33 1 -48 -3 -52 -14 -10 -26 3 -33 63 -33 47 0 61 4 79 23 42 44
28 89 -39 123 -27 13 -49 28 -49 33 0 19 30 33 58 26 22 -4 31 -2 36 10 10 27
-2 35 -55 35 -40 0 -55 -5 -74 -25z"/>
<path d="M6700 1498 c-62 -42 -78 -113 -40 -176 24 -39 54 -52 120 -52 77 0
80 3 80 76 l0 64 -45 0 c-38 0 -45 -3 -45 -20 0 -14 7 -20 21 -20 16 0 20 -5
17 -27 -8 -68 -108 -21 -108 50 0 53 20 71 87 77 50 4 58 8 58 25 0 17 -8 20
-55 23 -45 2 -63 -2 -90 -20z"/>
<path d="M6948 1514 c-5 -4 -8 -61 -8 -126 l0 -118 30 0 c29 0 30 1 30 50 0
37 4 50 14 50 23 0 43 -26 50 -65 6 -31 10 -35 37 -35 27 0 29 2 23 28 -4 15
-13 42 -20 60 -12 29 -12 36 1 49 19 18 19 63 1 88 -11 15 -29 20 -82 23 -38
2 -72 0 -76 -4z"/>
<path d="M7253 1510 c-40 -16 -65 -68 -60 -128 4 -61 31 -97 84 -111 74 -21
142 26 150 103 10 86 -36 147 -111 145 -22 0 -51 -4 -63 -9z m96 -56 c28 -35
28 -97 1 -124 -44 -44 -100 -6 -100 68 0 35 34 82 60 82 10 0 28 -12 39 -26z"/>
<path d="M7510 1424 c0 -52 5 -104 11 -116 18 -33 73 -50 119 -38 56 15 70 47
70 160 l0 90 -30 0 -30 0 0 -93 c0 -96 -8 -117 -41 -117 -34 0 -49 39 -49 127
0 82 0 83 -25 83 -25 0 -25 0 -25 -96z"/>
<path d="M7800 1395 l0 -125 25 0 c23 0 25 4 25 45 0 43 1 45 30 45 71 0 114
51 94 109 -13 35 -48 51 -116 51 l-58 0 0 -125z"/>
</g>
</svg>
