<?xml version="1.0" standalone="no"?>
<!DOCTYPE svg PUBLIC "-//W3C//DTD SVG 20010904//EN"
 "http://www.w3.org/TR/2001/REC-SVG-20010904/DTD/svg10.dtd">
<svg version="1.0" xmlns="http://www.w3.org/2000/svg"
 width="300.000000pt" height="145.000000pt" viewBox="0 0 300.000000 145.000000"
 preserveAspectRatio="xMidYMid meet">

<g transform="translate(0.000000,145.000000) scale(0.100000,-0.100000)"
fill="#ffffff" stroke="none">
<path d="M290 1228 c0 -2 -43 -235 -95 -517 -52 -283 -93 -517 -91 -519 2 -2
71 21 153 51 81 29 240 82 353 116 343 104 747 238 900 300 337 135 571 275
780 467 66 61 70 64 40 24 -64 -82 -140 -158 -239 -240 l-98 -81 -18 -105
c-18 -104 -28 -130 -39 -96 -3 10 -25 36 -49 59 l-42 42 -105 -60 c-58 -32
-109 -61 -115 -63 -6 -2 -5 -9 3 -17 19 -20 14 -73 -10 -104 -30 -39 -77 -55
-158 -55 -68 0 -70 1 -70 25 0 14 -2 25 -6 25 -8 0 -328 -142 -340 -152 -6 -4
-14 -28 -17 -53 -4 -25 -9 -56 -13 -70 l-6 -25 285 0 c172 0 307 4 339 11 75
16 145 51 208 105 51 43 55 45 58 25 2 -12 -1 -44 -7 -72 -6 -27 -11 -54 -11
-59 0 -16 326 -12 425 5 379 66 617 323 603 650 -3 79 -8 98 -38 153 -56 106
-154 176 -296 212 -65 17 -111 20 -290 20 -241 0 -216 11 -230 -98 -4 -29 -10
-55 -14 -57 -5 -3 -24 17 -44 45 -23 32 -54 59 -88 77 l-53 28 -326 3 -325 3
-30 -161 c-16 -88 -33 -162 -37 -163 -4 -1 -19 25 -32 57 -32 78 -68 122 -144
173 -112 76 -161 86 -433 91 -131 2 -238 2 -238 0z m386 -223 c115 -34 160
-150 119 -310 -24 -92 -77 -163 -153 -202 -47 -24 -77 -33 -113 -33 -27 0 -49
2 -49 4 0 2 23 125 50 275 28 150 50 274 50 276 0 10 48 5 96 -10z m1814 -10
c37 -19 76 -67 90 -111 28 -84 -6 -244 -69 -323 -42 -53 -138 -101 -203 -101
-26 0 -48 2 -48 4 0 2 23 125 50 274 28 149 50 274 50 278 0 10 100 -5 130
-21z m-805 -25 c35 -33 34 -88 -2 -122 -44 -41 -67 -48 -148 -48 -75 0 -77 1
-72 23 3 12 11 51 17 87 17 99 10 93 100 88 66 -4 84 -9 105 -28z"/>
</g>
</svg>
