<?xml version="1.0" standalone="no"?>
<!DOCTYPE svg PUBLIC "-//W3C//DTD SVG 20010904//EN"
 "http://www.w3.org/TR/2001/REC-SVG-20010904/DTD/svg10.dtd">
<svg version="1.0" xmlns="http://www.w3.org/2000/svg"
 width="4503.000000pt" height="2251.000000pt" viewBox="0 0 4503.000000 2251.000000"
 preserveAspectRatio="xMidYMid meet">

<g transform="translate(0.000000,2251.000000) scale(0.100000,-0.100000)"
fill="#ffffff" stroke="none">
<path d="M22925 17774 c-930 -41 -1669 -229 -2320 -593 -1184 -662 -1870
-1805 -2030 -3381 -22 -213 -31 -768 -16 -1000 68 -1073 386 -1964 957 -2680
138 -173 401 -436 573 -573 460 -367 998 -626 1616 -780 271 -68 499 -106 830
-139 203 -20 933 -17 1155 5 500 51 872 126 1292 263 511 167 1123 450 1468
679 346 230 473 411 526 751 15 95 17 227 21 1044 5 1028 0 1213 -42 1394 -65
287 -235 486 -485 569 -107 36 -298 66 -495 77 -226 13 -2221 13 -2345 0 -299
-32 -502 -157 -611 -375 -55 -111 -72 -202 -66 -345 13 -296 137 -454 432
-549 203 -65 195 -65 1123 -69 l842 -3 -2 -722 -3 -722 -100 -52 c-461 -242
-1018 -441 -1435 -512 -258 -44 -394 -55 -705 -55 -319 -1 -423 7 -649 51
-1091 209 -1811 1024 -2020 2286 -45 270 -58 425 -63 784 -10 615 47 1035 202
1499 149 446 360 790 667 1089 258 252 538 423 876 535 314 104 518 134 912
135 291 0 365 -6 580 -47 380 -72 790 -302 1026 -576 107 -124 295 -380 450
-613 83 -125 167 -240 201 -274 101 -101 213 -167 360 -212 77 -23 105 -26
228 -27 150 0 224 13 340 61 95 39 216 126 298 212 267 285 277 686 30 1190
-209 425 -600 833 -1055 1103 -525 311 -1167 503 -1858 557 -139 11 -580 20
-705 15z"/>
<path d="M31440 17773 c-176 -13 -355 -61 -488 -133 -258 -140 -440 -359 -613
-740 -28 -63 -111 -268 -184 -455 -73 -187 -671 -1708 -1328 -3380 -658 -1672
-1216 -3100 -1241 -3174 -26 -74 -56 -180 -67 -235 -26 -129 -28 -312 -5 -411
61 -257 295 -500 574 -596 96 -33 100 -34 272 -34 153 0 185 3 255 23 226 65
321 166 491 517 102 213 178 403 445 1125 117 316 217 581 222 588 8 9 379 12
1797 12 1418 0 1790 -3 1797 -12 5 -7 103 -260 218 -563 296 -783 468 -1182
590 -1364 95 -144 260 -264 420 -307 94 -25 314 -30 416 -9 172 34 319 116
450 252 189 194 267 408 239 649 -24 199 -102 453 -257 839 -47 116 -585 1445
-1195 2955 -611 1510 -1147 2842 -1193 2960 -252 656 -348 855 -514 1063 -154
194 -395 346 -628 397 -148 32 -321 44 -473 33z m795 -3767 c355 -973 645
-1773 645 -1778 0 -4 -592 -8 -1316 -8 l-1316 0 4 23 c4 18 1252 3509 1288
3602 l12 30 19 -50 c10 -27 309 -846 664 -1819z"/>
<path d="M10310 17609 c-615 -72 -892 -347 -940 -934 -13 -165 -13 -6633 0
-6855 22 -362 79 -569 197 -715 159 -196 411 -300 813 -335 154 -13 3155 -13
3435 0 665 32 1140 110 1586 260 579 196 1033 480 1457 914 179 184 290 320
430 531 382 572 588 1203 679 2075 22 213 25 1027 5 1245 -96 1023 -397 1805
-947 2460 -239 285 -606 595 -935 792 -544 325 -1068 468 -2035 555 -158 14
-3629 21 -3745 7z m3075 -1428 c615 -57 1027 -147 1299 -283 200 -101 347
-211 527 -394 271 -278 442 -573 554 -955 91 -313 140 -655 154 -1089 41
-1236 -230 -2121 -822 -2686 -272 -261 -536 -402 -927 -498 -338 -82 -491 -90
-1730 -91 l-1025 0 -3 3008 -2 3009 927 -5 c567 -3 975 -9 1048 -16z"/>
</g>
</svg>
