<?xml version="1.0" standalone="no"?>
<!DOCTYPE svg PUBLIC "-//W3C//DTD SVG 20010904//EN"
 "http://www.w3.org/TR/2001/REC-SVG-20010904/DTD/svg10.dtd">
<svg version="1.0" xmlns="http://www.w3.org/2000/svg"
 width="1200.000000pt" height="529.000000pt" viewBox="0 0 1200.000000 529.000000"
 preserveAspectRatio="xMidYMid meet">
<metadata>
Created by potrace 1.16, written by Peter Selinger 2001-2019
</metadata>
<g transform="translate(0.000000,529.000000) scale(0.100000,-0.100000)"
fill="#ffffff" stroke="none">
<path d="M0 4840 l0 -450 1360 0 1360 0 2 272 3 272 534 -824 534 -825 -18
-30 c-9 -16 -249 -386 -533 -822 l-517 -792 -3 330 -2 329 -1360 0 -1360 0 0
-445 0 -445 1879 0 1879 0 307 483 c169 265 308 483 309 483 0 1 141 -216 311
-482 l310 -483 1113 -1 1112 0 0 1940 0 1940 -1059 0 -1059 0 -353 -545 c-326
-501 -355 -543 -369 -527 -8 10 -170 255 -360 545 l-345 526 -1837 1 -1838 0
0 -450z m6078 -2345 l-3 -844 -540 821 c-297 451 -544 828 -549 838 -6 14 111
204 540 875 l549 857 3 -852 c1 -468 1 -1231 0 -1695z"/>
<path d="M7420 3350 l0 -1940 515 0 515 0 0 1505 0 1505 370 0 370 0 0 -1505
0 -1505 515 0 515 0 0 1505 0 1505 375 0 375 0 0 -1505 0 -1505 515 0 515 0 0
1940 0 1940 -2290 0 -2290 0 0 -1940z"/>
<path d="M0 3320 l0 -450 1280 0 1280 0 0 450 0 450 -1280 0 -1280 0 0 -450z"/>
<path d="M0 1030 l0 -60 180 0 180 0 0 -485 0 -485 70 0 70 0 0 485 0 485 180
0 180 0 0 60 0 60 -430 0 -430 0 0 -60z"/>
<path d="M990 545 l0 -545 70 0 70 0 0 245 0 245 285 0 285 0 0 -245 0 -245
70 0 70 0 0 545 0 545 -70 0 -70 0 0 -235 0 -235 -285 0 -285 0 0 235 0 235
-70 0 -70 0 0 -545z"/>
<path d="M2355 1078 c-3 -7 -92 -253 -198 -545 l-194 -533 77 0 77 0 59 165
59 165 209 -2 208 -3 56 -162 56 -163 78 0 c43 0 78 3 78 7 0 4 -84 249 -187
545 l-188 538 -93 0 c-65 0 -94 -4 -97 -12z m180 -403 l72 -230 -160 -3 c-88
-1 -162 -1 -164 2 -3 2 35 113 83 246 49 134 90 236 93 229 3 -8 37 -117 76
-244z"/>
<path d="M3080 545 l0 -545 70 0 70 0 0 545 0 545 -70 0 -70 0 0 -545z"/>
<path d="M3450 545 l0 -545 340 0 340 0 0 60 0 60 -270 0 -270 0 0 485 0 485
-70 0 -70 0 0 -545z"/>
<path d="M4407 622 c-93 -257 -182 -502 -197 -544 l-29 -78 77 0 77 0 60 165
60 165 209 -2 209 -3 55 -162 54 -163 80 0 c60 0 79 3 76 12 -3 7 -87 253
-189 545 l-184 533 -95 0 -95 0 -168 -468z m342 62 c40 -129 71 -237 68 -240
-2 -2 -76 -3 -164 -2 l-159 3 85 237 c47 131 89 238 92 238 3 0 38 -106 78
-236z"/>
<path d="M5260 545 l0 -545 65 0 65 0 0 442 0 441 282 -441 281 -442 84 0 83
0 0 545 0 545 -70 0 -70 0 -2 -445 -3 -445 -279 445 -279 445 -78 0 -79 0 0
-545z"/>
<path d="M6340 545 l0 -545 282 0 c327 0 328 0 429 101 116 116 150 205 156
414 8 232 -30 351 -147 459 -110 101 -172 116 -492 116 l-228 0 0 -545z m556
388 c129 -69 198 -249 175 -456 -17 -144 -48 -229 -112 -302 -47 -54 -101 -65
-306 -65 l-173 0 0 426 0 426 188 -4 c170 -3 191 -5 228 -25z"/>
</g>
</svg>
