<?xml version="1.0" standalone="no"?>
<!DOCTYPE svg PUBLIC "-//W3C//DTD SVG 20010904//EN"
 "http://www.w3.org/TR/2001/REC-SVG-20010904/DTD/svg10.dtd">
<svg version="1.0" xmlns="http://www.w3.org/2000/svg"
 width="707.000000pt" height="353.000000pt" viewBox="0 0 707.000000 353.000000"
 preserveAspectRatio="xMidYMid meet">
<metadata>
Created by potrace 1.16, written by Peter Selinger 2001-2019
</metadata>
<g transform="translate(0.000000,353.000000) scale(0.100000,-0.100000)"
fill="#ffffff" stroke="none">
<path d="M4685 2696 c-45 -20 -84 -52 -74 -59 57 -39 82 -66 108 -118 17 -34
31 -68 31 -76 0 -26 15 -12 33 32 25 60 71 122 108 144 l30 18 -33 28 c-70 59
-125 68 -203 31z"/>
<path d="M1365 2646 c-9 -18 -27 -44 -41 -57 -34 -32 -90 -30 -208 4 -189 56
-333 57 -480 3 -174 -63 -331 -235 -403 -441 -26 -74 -28 -91 -28 -235 0 -118
5 -172 19 -225 70 -268 251 -433 528 -481 122 -21 209 -14 346 31 145 47 172
46 213 -4 54 -68 58 -56 61 190 3 242 4 245 69 258 28 6 34 12 34 31 l0 25
-270 0 -270 0 0 -25 c0 -23 5 -26 58 -32 72 -9 125 -40 143 -84 16 -39 18
-124 4 -173 -21 -76 -106 -128 -220 -138 -171 -14 -363 87 -442 233 -15 27
-39 90 -54 139 -24 79 -27 108 -28 235 -1 123 2 157 22 224 33 113 96 230 162
297 173 177 455 183 625 14 77 -78 117 -167 151 -342 5 -29 39 -31 54 -4 11
21 15 547 4 575 -10 26 -32 18 -49 -18z"/>
<path d="M4490 2556 c-24 -13 -45 -27 -47 -32 -5 -17 86 -54 130 -54 48 0 107
17 107 31 0 4 -14 24 -31 44 -26 29 -38 35 -73 35 -24 0 -59 -10 -86 -24z"/>
<path d="M4874 2544 c-40 -42 -42 -52 -11 -63 65 -25 107 -24 162 5 30 15 55
30 55 34 0 16 -100 60 -135 60 -30 0 -44 -7 -71 -36z"/>
<path d="M4355 2458 c-48 -26 -82 -69 -99 -124 -6 -21 -6 -21 46 -8 29 8 66
14 83 14 50 1 155 56 155 82 0 16 -84 48 -125 47 -22 0 -49 -5 -60 -11z"/>
<path d="M5028 2448 c-27 -11 -48 -24 -48 -29 0 -16 67 -58 110 -69 95 -23
180 -36 180 -28 0 16 -32 72 -54 96 -50 56 -110 65 -188 30z"/>
<path d="M4510 2352 c-19 -9 -36 -25 -38 -34 -3 -15 4 -18 43 -18 59 0 101
-20 150 -70 22 -22 42 -40 47 -40 15 0 -22 94 -49 123 -27 29 -79 57 -105 57
-7 0 -29 -8 -48 -18z"/>
<path d="M4880 2334 c-37 -31 -70 -93 -70 -129 l0 -27 27 33 c46 54 110 89
165 89 54 0 64 18 26 44 -37 26 -111 21 -148 -10z"/>
<path d="M3356 1718 c-88 -211 -170 -400 -183 -421 -14 -22 -37 -43 -54 -49
-56 -20 -28 -28 96 -28 104 0 125 2 125 15 0 10 -10 15 -29 15 -40 0 -63 24
-54 58 3 15 27 79 52 142 l47 115 116 3 116 3 47 -123 c65 -169 84 -211 98
-220 7 -4 97 -8 200 -8 142 0 188 3 185 12 -3 7 -17 15 -32 19 -56 15 -56 17
-56 215 l0 184 83 0 c109 0 152 -13 165 -48 6 -15 13 -86 15 -158 6 -148 21
-198 63 -214 35 -14 554 -9 554 5 0 6 -13 13 -30 18 -60 15 -60 17 -60 403 0
322 1 352 18 367 9 8 28 17 42 19 14 1 24 8 23 13 -4 16 -315 13 -320 -2 -3
-9 6 -13 25 -13 63 0 62 5 62 -391 0 -215 -4 -368 -10 -378 -12 -23 -63 -33
-110 -23 -23 5 -42 19 -57 41 -20 30 -23 47 -23 132 0 136 -14 195 -57 238
-20 20 -30 37 -25 39 24 8 63 46 79 75 21 41 21 142 0 184 -21 40 -67 78 -114
95 -46 16 -555 19 -563 3 -3 -5 11 -12 30 -16 61 -13 60 -9 60 -388 0 -190 -4
-341 -8 -335 -5 5 -82 183 -172 397 -90 213 -168 387 -175 387 -6 0 -82 -172
-169 -382z m899 273 c43 -24 67 -76 61 -129 -13 -99 -62 -133 -198 -140 l-88
-4 0 145 c0 143 0 146 23 150 43 9 172 -5 202 -22z m-731 -259 c20 -50 36 -94
36 -97 0 -3 -39 -5 -86 -5 -78 0 -86 2 -80 18 30 80 81 190 87 184 3 -4 22
-49 43 -100z"/>
<path d="M1490 2055 c0 -9 9 -15 25 -15 14 0 34 -9 45 -20 19 -19 20 -33 20
-373 0 -390 0 -393 -62 -399 -17 -2 -33 -9 -36 -15 -3 -10 35 -13 167 -13 145
0 171 2 171 15 0 9 -9 15 -23 15 -12 0 -33 7 -45 16 l-22 15 0 368 c0 272 3
370 12 379 7 7 25 12 40 12 18 0 28 5 28 15 0 13 -24 15 -160 15 -136 0 -160
-2 -160 -15z"/>
<path d="M1860 2055 c0 -9 9 -15 25 -15 14 0 34 -9 45 -20 19 -19 20 -33 20
-373 0 -390 0 -393 -62 -399 -17 -2 -33 -9 -36 -15 -3 -10 35 -13 167 -13 145
0 171 2 171 15 0 9 -9 15 -24 15 -13 0 -34 9 -47 19 -24 19 -24 21 -24 218 l0
198 45 3 c59 5 144 -14 164 -37 9 -10 20 -38 24 -62 6 -35 12 -45 30 -47 l22
-3 0 176 0 176 -22 -3 c-19 -2 -24 -11 -30 -53 -5 -32 -14 -56 -28 -67 -21
-17 -122 -32 -175 -26 l-30 3 0 122 c0 87 4 126 13 135 9 9 45 13 120 12 124
0 184 -20 222 -73 28 -40 50 -112 50 -162 0 -40 17 -61 31 -38 10 16 12 289 3
313 -5 14 -45 16 -340 16 -290 0 -334 -2 -334 -15z"/>
<path d="M2595 2060 c-6 -10 0 -14 48 -24 17 -4 31 -16 37 -32 6 -14 10 -170
10 -362 0 -355 -4 -384 -45 -390 -49 -7 -65 -13 -60 -22 9 -15 348 -13 343 1
-2 7 -19 17 -38 23 -56 18 -60 38 -57 246 l2 185 70 0 c112 0 151 -25 164
-105 5 -26 12 -36 29 -38 l22 -3 0 176 0 176 -22 -3 c-16 -2 -24 -11 -26 -28
-6 -51 -23 -87 -47 -100 -13 -7 -60 -13 -107 -14 l-83 -1 -3 120 c-1 66 2 127
8 135 7 12 33 15 122 15 98 0 119 -3 161 -24 61 -29 95 -86 111 -184 7 -39 17
-71 22 -69 5 1 9 72 9 165 l0 162 -332 3 c-218 1 -334 -1 -338 -8z"/>
<path d="M5000 2057 c0 -9 15 -17 39 -21 38 -6 40 -8 46 -49 3 -23 5 -190 3
-370 l-3 -329 -24 -19 c-13 -10 -34 -19 -47 -19 -15 0 -24 -6 -24 -15 0 -13
21 -15 130 -15 109 0 130 2 130 15 0 9 -9 15 -24 15 -13 0 -34 9 -47 19 l-24
19 -3 328 c-2 266 0 325 10 316 7 -6 139 -173 293 -371 219 -281 285 -360 303
-361 l22 0 0 398 c0 228 4 403 10 412 5 8 23 19 39 25 61 20 32 30 -86 30 -78
0 -118 -4 -120 -11 -2 -7 12 -15 31 -18 20 -4 40 -15 46 -26 6 -12 9 -98 8
-226 l-3 -207 -200 244 -201 244 -152 3 c-125 2 -152 0 -152 -11z"/>
<path d="M5890 2055 c0 -9 9 -15 25 -15 14 0 34 -9 45 -20 19 -19 20 -33 20
-378 0 -397 2 -386 -64 -394 -16 -1 -31 -9 -34 -16 -3 -10 67 -12 340 -10
l343 3 3 154 c2 100 -1 158 -8 165 -15 15 -30 -10 -30 -51 0 -48 -36 -136 -69
-167 -15 -15 -50 -34 -76 -42 -48 -14 -209 -20 -239 -8 -14 5 -16 32 -16 195
l0 189 53 0 c84 0 147 -55 147 -130 0 -13 7 -20 20 -20 20 0 20 5 18 177 -2
130 -6 177 -15 181 -7 2 -15 -2 -17 -10 -34 -116 -58 -138 -151 -138 l-56 0 3
142 3 143 64 8 c88 11 193 -5 241 -37 46 -30 77 -91 88 -174 9 -66 15 -78 31
-67 16 9 15 307 -1 323 -9 9 -98 12 -340 12 -285 0 -328 -2 -328 -15z"/>
</g>
</svg>
