<?xml version="1.0" standalone="no"?>
<!DOCTYPE svg PUBLIC "-//W3C//DTD SVG 20010904//EN"
 "http://www.w3.org/TR/2001/REC-SVG-20010904/DTD/svg10.dtd">
<svg version="1.0" xmlns="http://www.w3.org/2000/svg"
 width="61.000000pt" height="50.000000pt" viewBox="0 0 61.000000 50.000000"
 preserveAspectRatio="xMidYMid meet">
<metadata>
Created by potrace 1.16, written by Peter Selinger 2001-2019
</metadata>
<g transform="translate(0.000000,50.000000) scale(0.100000,-0.100000)"
fill="#ffffff" stroke="none">
<path d="M0 320 l0 -180 35 0 c34 0 35 1 35 38 0 31 7 45 43 80 l43 43 68 -81
68 -80 98 0 c112 0 142 8 188 53 39 37 41 60 6 76 -23 10 -30 8 -60 -19 -49
-43 -95 -41 -140 4 -45 45 -47 92 -5 138 25 28 36 33 75 33 36 0 51 -6 75 -29
28 -26 33 -28 57 -17 15 6 24 14 21 17 -3 3 -15 0 -28 -6 -18 -10 -23 -9 -31
4 -5 9 -22 23 -38 31 -82 42 -170 -15 -170 -111 0 -28 8 -44 34 -70 29 -29 41
-34 80 -34 36 0 52 6 78 29 26 22 38 27 51 20 25 -14 21 -34 -13 -63 -116 -97
-283 -21 -283 129 0 87 63 163 137 166 18 1 24 3 13 6 -74 19 -178 -99 -165
-187 3 -16 4 -30 3 -30 -1 0 -16 18 -35 41 l-33 41 62 62 c33 34 61 65 61 69
0 4 -21 7 -47 7 -47 0 -49 -1 -130 -87 l-82 -88 -1 88 0 87 -35 0 -35 0 0
-180z"/>
<path d="M153 82 c-7 -4 -44 -7 -83 -5 l-70 4 0 -41 c0 -22 5 -40 10 -40 6 0
10 4 10 9 0 5 9 11 20 14 13 3 20 0 20 -9 0 -8 7 -14 15 -14 8 0 15 6 15 13 0
8 3 9 8 1 10 -15 92 -17 108 -3 10 9 14 9 14 0 0 -6 7 -11 15 -11 8 0 15 5 15
10 0 6 6 10 14 10 8 0 17 6 19 13 3 6 6 2 6 -11 1 -21 5 -22 65 -21 49 1 63 5
59 15 -2 7 0 21 6 31 9 15 10 13 11 -14 0 -23 5 -33 15 -33 10 0 15 10 15 30
0 41 28 41 37 0 6 -31 33 -43 33 -15 0 9 7 27 16 41 20 30 11 44 -13 22 -14
-12 -21 -13 -29 -5 -6 8 -36 11 -82 9 l-72 -4 0 -34 c0 -26 -3 -32 -16 -27
-13 5 -13 7 -2 14 11 7 10 11 -2 19 -10 6 -11 10 -2 10 6 0 12 5 12 10 0 15
-47 12 -53 -2 -4 -10 -6 -10 -6 0 -1 15 -61 17 -61 1 0 -5 -10 -3 -22 5 -26
18 -28 19 -45 8z"/>
</g>
</svg>
