<?xml version="1.0" standalone="no"?>
<!DOCTYPE svg PUBLIC "-//W3C//DTD SVG 20010904//EN"
 "http://www.w3.org/TR/2001/REC-SVG-20010904/DTD/svg10.dtd">
<svg version="1.0" xmlns="http://www.w3.org/2000/svg"
 width="225.000000pt" height="225.000000pt" viewBox="0 0 225.000000 225.000000"
 preserveAspectRatio="xMidYMid meet">
<metadata>
Created by potrace 1.16, written by Peter Selinger 2001-2019
</metadata>
<g transform="translate(0.000000,225.000000) scale(0.100000,-0.100000)"
fill="#ffffff" stroke="none">
<path d="M160 1106 c0 -168 2 -196 15 -196 15 0 20 40 16 121 -2 20 2 39 6 42
5 3 45 -32 88 -79 56 -60 86 -84 103 -84 13 0 22 4 20 10 -1 5 -42 50 -90 99
-49 49 -88 95 -88 102 0 8 36 47 80 88 44 41 80 78 80 82 0 25 -43 2 -109 -58
-41 -38 -76 -67 -80 -66 -3 2 -8 31 -11 65 -3 36 -10 63 -17 66 -10 3 -13 -40
-13 -192z"/>
<path d="M830 1105 l0 -196 118 3 c96 2 117 6 117 18 0 12 -19 16 -97 18 l-98
3 -2 172 c-3 154 -5 172 -20 175 -17 3 -18 -11 -18 -193z"/>
<path d="M1292 1288 c-7 -7 -12 -15 -12 -20 0 -7 -75 -169 -131 -282 -34 -69
-35 -76 -11 -76 13 0 35 33 79 123 33 67 63 132 67 145 4 12 11 22 16 22 9 0
120 -221 134 -268 5 -15 15 -22 32 -22 13 0 24 1 24 3 0 2 -17 39 -39 82 -21
44 -60 127 -86 185 -57 123 -57 124 -73 108z"/>
<path d="M1540 1108 c0 -191 1 -198 20 -198 19 0 20 7 20 143 l1 142 37 -40
c37 -41 132 -148 186 -211 16 -19 31 -34 35 -34 3 0 5 87 4 192 -2 164 -5 193
-18 196 -13 3 -15 -14 -16 -115 -3 -188 -2 -185 -45 -133 -16 19 -36 42 -44
50 -21 23 -138 155 -160 182 -19 23 -19 20 -20 -174z"/>
<path d="M1890 1105 l0 -197 108 3 c100 4 112 6 144 31 48 36 68 83 68 156 0
140 -56 190 -222 199 l-98 6 0 -198z m197 135 c57 -26 83 -69 83 -141 0 -104
-52 -147 -177 -148 l-63 -1 0 155 0 155 58 0 c34 0 74 -8 99 -20z"/>
</g>
</svg>
