<?xml version="1.0" standalone="no"?>
<!DOCTYPE svg PUBLIC "-//W3C//DTD SVG 20010904//EN"
 "http://www.w3.org/TR/2001/REC-SVG-20010904/DTD/svg10.dtd">
<svg version="1.0" xmlns="http://www.w3.org/2000/svg"
 width="548.000000pt" height="92.000000pt" viewBox="0 0 548.000000 92.000000"
 preserveAspectRatio="xMidYMid meet">
<metadata>
Created by potrace 1.16, written by Peter Selinger 2001-2019
</metadata>
<g transform="translate(0.000000,92.000000) scale(0.100000,-0.100000)"
fill="#ffffff" stroke="none">
<path d="M10 460 l0 -440 2730 0 2730 0 0 440 0 440 -2730 0 -2730 0 0 -440z
m644 310 c118 -45 206 -166 206 -284 0 -34 -5 -78 -10 -98 -12 -40 -49 -93
-50 -69 0 8 -15 -3 -34 -25 -37 -43 -111 -88 -166 -99 -19 -4 -38 -12 -42 -18
-11 -17 -88 -8 -144 17 -64 30 -123 87 -155 152 -32 67 -34 188 -3 255 72 155
242 227 398 169z m2181 -114 c68 -29 83 -116 28 -170 l-27 -27 22 -21 21 -21
-6 22 c-5 20 -3 22 28 19 33 -3 34 -4 37 -53 3 -39 9 -57 33 -81 l29 -30 -20
-19 c-20 -18 -21 -18 -47 7 l-26 26 -27 -20 c-37 -27 -97 -34 -143 -15 -39 17
-77 68 -77 105 0 29 25 78 46 90 14 8 13 12 -5 43 -12 19 -21 42 -21 52 0 33
31 78 63 92 41 18 50 18 92 1z m-1725 -161 l0 -165 85 0 85 0 0 -35 0 -35
-115 0 -115 0 0 200 0 200 30 0 30 0 0 -165z m508 -23 c39 -103 72 -193 72
-199 0 -8 -13 -13 -30 -13 -26 0 -31 5 -47 50 l-18 50 -77 0 -77 0 -12 -40
c-7 -22 -18 -45 -25 -51 -18 -15 -60 -7 -56 11 2 8 35 97 75 197 67 169 74
183 97 183 23 0 30 -14 98 -188z m285 47 l107 -142 0 142 0 141 35 0 35 0 -2
-197 -3 -198 -26 -3 c-23 -3 -39 14 -133 137 -59 78 -108 141 -109 141 -1 0
-2 -62 -2 -137 l0 -138 -30 0 -30 0 -3 198 -2 197 28 0 c24 0 42 -19 135 -141z
m441 129 c86 -26 158 -138 140 -216 -25 -107 -118 -171 -249 -172 -90 0 -85
-13 -85 206 l0 194 76 0 c42 0 95 -6 118 -12z m906 -68 l0 -80 85 0 85 0 0 80
0 80 35 0 35 0 -2 -197 -3 -198 -30 0 -30 0 -3 88 -3 87 -84 0 -84 0 -3 -87
-3 -88 -30 0 -30 0 -3 198 -2 197 35 0 35 0 0 -80z m589 61 c51 -26 99 -83
107 -126 12 -66 -1 -133 -33 -173 -82 -103 -224 -107 -310 -9 -61 70 -66 157
-14 240 52 80 165 111 250 68z m251 -121 c0 -136 1 -142 25 -165 34 -35 78
-33 116 4 l29 29 0 136 0 136 30 0 30 0 0 -149 c0 -137 -2 -150 -23 -182 -29
-44 -100 -74 -150 -65 -45 8 -95 50 -113 93 -10 22 -14 76 -14 168 l0 135 35
0 35 0 0 -140z m501 111 c16 -16 29 -36 29 -44 0 -9 3 -22 6 -31 5 -13 -1 -16
-30 -16 -28 0 -36 4 -36 18 0 24 -19 42 -45 42 -43 0 -60 -44 -27 -72 9 -8 38
-22 63 -32 58 -21 79 -44 86 -94 7 -49 -16 -96 -60 -122 -74 -46 -161 -4 -181
88 -7 31 -7 32 27 32 30 0 35 -4 41 -30 11 -58 92 -59 111 -1 10 32 -10 57
-62 76 -73 27 -103 60 -103 113 0 63 40 102 105 102 38 0 52 -5 76 -29z m359
-1 l0 -30 -90 0 -90 0 0 -50 0 -50 85 0 85 0 0 -30 0 -29 -82 -3 -83 -3 -3
-52 -3 -53 96 0 96 0 -3 -32 -3 -33 -120 0 -120 0 -3 198 -2 197 120 0 120 0
0 -30z m239 14 c21 -15 51 -70 51 -94 0 -5 -16 -10 -35 -10 -27 0 -35 4 -35
18 0 45 -63 59 -82 17 -9 -20 -8 -28 6 -44 9 -10 29 -21 44 -24 43 -10 92 -45
103 -75 18 -45 4 -103 -30 -134 -79 -70 -180 -34 -206 75 -7 26 -5 27 28 27
29 0 36 -4 39 -21 2 -12 15 -31 30 -42 25 -19 28 -19 52 -4 55 36 42 85 -31
112 -73 27 -103 60 -103 113 0 62 40 102 102 102 24 0 54 -7 67 -16z"/>
<path d="M467 746 c-90 -25 -178 -118 -197 -211 -21 -99 19 -208 101 -279 57
-48 113 -62 191 -46 121 23 190 74 230 169 11 26 24 56 30 68 23 47 -19 180
-71 227 -31 28 -34 15 -6 -24 14 -19 25 -42 25 -51 0 -9 -24 -38 -52 -64 l-53
-48 -6 29 c-12 53 -9 99 7 122 8 12 11 22 5 22 -25 0 -34 -44 -26 -129 14
-155 13 -172 -14 -189 -23 -16 -23 -15 -17 6 4 13 5 41 1 62 -5 30 -11 40 -26
40 -16 0 -19 -7 -19 -44 0 -47 -17 -70 -47 -64 -14 2 -19 16 -24 61 -9 77 -14
79 -15 3 0 -60 0 -62 33 -79 38 -19 85 -22 115 -6 25 14 33 6 19 -19 -14 -26
-74 -46 -108 -37 -15 3 -38 15 -53 25 -21 15 -29 16 -48 6 -12 -7 -19 -15 -16
-19 14 -14 -42 -7 -64 8 -38 27 -73 100 -79 164 -15 157 105 290 262 291 42 0
56 3 45 10 -20 13 -65 11 -123 -4z"/>
<path d="M2210 465 l0 -135 58 0 c39 0 66 6 86 19 124 82 59 251 -96 251 l-48
0 0 -135z"/>
<path d="M3664 557 c-89 -81 -34 -227 86 -227 63 0 110 32 130 88 31 89 -32
172 -132 172 -41 0 -54 -5 -84 -33z"/>
</g>
</svg>
