<?xml version="1.0" standalone="no"?>
<!DOCTYPE svg PUBLIC "-//W3C//DTD SVG 20010904//EN"
 "http://www.w3.org/TR/2001/REC-SVG-20010904/DTD/svg10.dtd">
<svg version="1.0" xmlns="http://www.w3.org/2000/svg"
 width="2392.000000pt" height="2048.000000pt" viewBox="0 0 2392.000000 2048.000000"
 preserveAspectRatio="xMidYMid meet">
<metadata>
Created by potrace 1.16, written by Peter Selinger 2001-2019
</metadata>
<g transform="translate(0.000000,2048.000000) scale(0.100000,-0.100000)"
fill="#ffffff" stroke="none">
<path d="M0 10240 l0 -10240 11960 0 11960 0 0 10240 0 10240 -11960 0 -11960
0 0 -10240z m12575 10154 c362 -23 903 -83 1115 -124 25 -5 77 -14 115 -21 64
-11 168 -31 475 -95 165 -34 614 -150 750 -194 36 -11 94 -29 130 -40 36 -11
119 -37 185 -60 66 -22 140 -46 165 -54 71 -21 169 -57 225 -81 17 -7 75 -30
130 -51 55 -20 128 -50 162 -66 34 -15 65 -28 68 -28 5 0 47 -18 165 -73 36
-16 85 -39 110 -50 25 -12 50 -21 55 -22 6 -1 26 -11 45 -23 19 -12 39 -22 43
-22 5 0 41 -16 80 -35 39 -19 77 -35 84 -35 7 0 13 -4 13 -10 0 -5 15 -16 33
-24 129 -58 156 -72 168 -90 4 -5 14 -6 23 -3 9 4 16 2 16 -4 0 -5 10 -14 23
-19 12 -5 40 -21 62 -35 42 -26 81 -45 94 -45 4 0 16 -9 26 -20 10 -11 26 -20
37 -20 10 0 18 -4 18 -9 0 -5 21 -19 48 -31 26 -12 64 -35 84 -51 20 -16 43
-29 51 -29 8 0 20 -7 27 -15 7 -8 19 -15 26 -15 8 0 29 -14 46 -31 20 -18 39
-28 50 -26 10 3 21 0 26 -7 13 -21 88 -75 114 -81 14 -4 41 -22 59 -41 18 -19
39 -34 47 -34 14 0 80 -46 98 -69 6 -8 16 -11 21 -8 6 4 16 0 23 -8 7 -8 18
-15 25 -15 7 0 15 -8 17 -18 3 -9 22 -26 44 -37 39 -20 85 -52 115 -80 9 -8
19 -15 24 -15 16 0 94 -65 95 -78 0 -8 6 -12 12 -10 14 5 28 -4 60 -39 12 -13
29 -23 38 -23 9 0 25 -9 35 -20 10 -11 22 -20 27 -20 5 0 26 -16 46 -35 39
-37 138 -115 146 -115 3 0 16 -10 30 -22 13 -13 42 -36 65 -53 22 -16 38 -35
36 -41 -2 -7 4 -10 16 -7 12 3 19 0 19 -9 0 -7 15 -22 33 -33 36 -21 57 -40
58 -52 0 -10 95 -84 132 -102 16 -8 31 -22 34 -30 6 -18 75 -86 84 -84 3 1 21
-14 39 -32 19 -19 40 -35 47 -35 7 0 13 -7 13 -16 0 -18 53 -74 69 -74 10 0
83 -71 249 -243 39 -41 72 -82 72 -92 0 -9 13 -21 30 -26 22 -8 30 -17 30 -35
0 -17 12 -31 40 -49 22 -14 40 -29 40 -34 0 -5 6 -16 13 -23 8 -7 20 -27 28
-43 11 -22 20 -29 37 -27 20 3 23 0 20 -25 -3 -24 0 -28 20 -26 17 2 22 -2 22
-20 0 -14 19 -44 45 -73 25 -27 43 -54 41 -61 -3 -6 2 -14 9 -17 8 -3 23 -22
34 -43 11 -21 33 -53 50 -71 17 -18 31 -44 31 -57 0 -15 7 -26 19 -30 11 -3
24 -19 29 -34 6 -16 26 -40 45 -55 20 -15 37 -39 40 -55 3 -15 17 -39 31 -52
14 -13 26 -28 26 -32 0 -5 7 -15 15 -23 8 -9 15 -24 15 -34 0 -10 9 -21 19
-25 11 -3 23 -16 27 -28 4 -12 18 -39 32 -59 19 -30 28 -36 38 -27 11 9 14 5
14 -26 0 -28 5 -38 19 -42 11 -3 25 -18 31 -33 6 -15 20 -37 31 -49 11 -12 22
-30 24 -41 2 -10 12 -32 23 -47 10 -15 28 -41 38 -57 10 -16 27 -40 36 -54
l17 -25 7 27 c9 38 24 14 24 -39 0 -30 5 -44 20 -53 12 -7 18 -17 15 -22 -3
-5 -1 -11 5 -15 5 -3 10 -14 10 -25 0 -10 11 -28 25 -41 16 -15 25 -35 25 -55
0 -37 7 -46 29 -34 27 14 45 -4 38 -38 -3 -16 -2 -33 2 -38 5 -5 14 -26 21
-46 6 -21 15 -38 19 -38 5 0 11 -17 15 -39 4 -27 12 -40 26 -44 13 -3 20 -14
20 -30 0 -14 5 -27 10 -29 6 -2 12 -18 15 -36 2 -18 9 -39 15 -46 5 -8 7 -21
4 -30 -4 -10 2 -25 17 -39 17 -15 23 -31 21 -49 -3 -23 1 -28 17 -28 14 0 21
-6 21 -18 0 -10 14 -34 30 -52 33 -37 37 -50 15 -50 -8 0 -15 -5 -15 -10 0 -6
7 -13 15 -16 8 -4 15 -13 15 -21 0 -10 6 -13 15 -9 20 7 32 -21 16 -37 -6 -6
-11 -28 -11 -48 0 -28 4 -36 16 -35 11 0 21 -12 29 -33 6 -19 17 -37 23 -39 7
-2 12 -14 12 -27 0 -15 7 -25 21 -28 12 -3 18 -10 15 -16 -4 -6 2 -16 13 -23
16 -10 18 -15 8 -27 -9 -11 -9 -15 1 -18 6 -3 12 -10 12 -15 0 -19 33 -88 43
-88 4 0 5 -5 2 -10 -8 -13 14 -42 25 -35 4 3 13 -22 18 -55 8 -41 19 -68 37
-86 14 -14 23 -29 20 -34 -3 -5 8 -31 24 -59 20 -33 26 -51 18 -54 -8 -3 -4
-12 11 -26 13 -13 22 -34 22 -52 0 -21 10 -40 30 -61 17 -16 28 -34 25 -39 -3
-4 2 -23 12 -41 17 -33 19 -39 22 -58 0 -5 8 -10 17 -10 8 0 13 4 10 9 -4 5
-2 19 2 32 8 19 10 16 21 -27 7 -27 17 -57 22 -66 5 -10 9 -25 9 -33 0 -9 7
-18 15 -21 11 -5 13 -17 8 -52 -3 -26 -10 -50 -15 -53 -6 -4 1 -27 15 -53 26
-49 38 -48 51 7 5 23 3 27 -14 27 -13 0 -20 7 -20 20 0 23 10 26 29 8 21 -21
8 73 -18 122 -11 22 -21 49 -21 59 0 11 -9 40 -20 66 -11 26 -20 57 -20 69 0
12 -6 31 -14 42 -8 11 -24 49 -36 85 -12 35 -25 69 -30 74 -4 6 -15 35 -25 65
-10 30 -28 75 -41 100 -28 56 -47 108 -43 114 2 2 -3 12 -12 22 -8 11 -22 39
-29 64 -7 25 -20 52 -27 61 -7 8 -13 20 -13 25 0 5 -9 27 -20 49 -11 22 -20
46 -20 55 0 9 -9 23 -20 33 -11 9 -20 23 -20 31 0 7 -7 19 -15 26 -8 7 -15 24
-15 37 0 35 21 17 46 -39 10 -24 29 -58 42 -77 12 -19 25 -46 29 -60 3 -14 16
-40 29 -58 13 -17 24 -35 24 -40 0 -4 23 -60 51 -123 28 -63 57 -128 64 -145
18 -41 52 -118 87 -195 17 -36 41 -94 55 -130 14 -36 36 -89 49 -118 13 -29
24 -56 24 -60 0 -8 53 -150 69 -187 5 -11 17 -45 26 -75 10 -30 23 -69 31 -87
7 -18 32 -88 55 -155 22 -68 45 -124 50 -126 5 -2 9 -9 9 -16 0 -18 117 -76
154 -76 19 0 39 -6 45 -14 6 -7 22 -11 36 -8 14 2 40 -3 57 -11 18 -9 71 -21
118 -27 46 -6 88 -14 92 -16 4 -3 47 -12 95 -20 48 -9 92 -19 98 -23 5 -5 30
-11 55 -15 25 -4 58 -13 74 -21 16 -8 40 -15 54 -15 24 0 48 -6 127 -31 17 -6
104 -25 195 -44 170 -35 232 -53 252 -73 7 -7 17 -12 23 -12 7 0 20 -9 30 -20
10 -11 25 -20 32 -20 8 0 13 -6 10 -12 -2 -7 2 -21 10 -30 8 -9 17 -39 19 -65
3 -45 11 -84 32 -174 14 -57 -1 -608 -17 -652 -6 -16 -11 -71 -11 -123 0 -70
-3 -96 -13 -100 -10 -4 -13 -23 -12 -67 1 -34 -2 -82 -7 -107 -5 -25 -11 -98
-12 -164 -2 -87 -7 -121 -17 -128 -11 -7 -11 -11 -1 -15 6 -2 12 -9 12 -14 0
-6 -4 -7 -10 -4 -14 9 -13 -8 2 -23 9 -9 9 -12 0 -12 -7 0 -12 -7 -12 -15 0
-8 5 -15 11 -15 8 0 8 -5 -1 -15 -10 -12 -10 -15 1 -15 12 0 12 -2 1 -9 -9 -5
-15 -37 -17 -95 -2 -47 -8 -92 -12 -99 -4 -6 -8 -34 -9 -62 -4 -154 -11 -215
-29 -235 -10 -11 -15 -23 -12 -26 3 -4 0 -13 -8 -21 -8 -8 -16 -24 -16 -36 -1
-12 -2 -33 -3 -47 -1 -14 -3 -41 -4 -61 -2 -29 -7 -38 -24 -43 -18 -4 -20 -8
-11 -17 10 -10 10 -16 1 -26 -6 -8 -13 -29 -15 -46 -2 -18 -8 -33 -13 -35 -6
-2 -10 -9 -10 -17 0 -7 -7 -18 -15 -25 -9 -8 -15 -8 -15 -2 0 6 5 13 10 15 6
3 5 4 -2 3 -7 -1 -14 -18 -15 -37 -4 -60 -14 -99 -24 -99 -6 0 -7 -5 -3 -12 4
-6 3 -8 -4 -5 -13 9 -42 -2 -42 -15 0 -6 8 -7 18 -4 9 4 -4 -13 -29 -36 -26
-24 -64 -63 -85 -88 -20 -25 -35 -37 -31 -27 3 9 2 17 -4 17 -5 0 -12 -6 -15
-14 -3 -8 -19 -18 -35 -21 -23 -5 -29 -12 -29 -33 0 -19 -3 -23 -9 -13 -11 16
-34 4 -27 -14 6 -18 -35 -55 -62 -55 -24 0 -30 15 -9 24 6 3 3 4 -8 3 -11 -2
-19 -8 -18 -14 1 -6 -10 -14 -25 -18 -36 -9 -52 -23 -52 -46 0 -23 -18 -24
-42 -2 -17 15 -18 15 -18 -3 -1 -17 -2 -18 -13 -2 -14 18 -47 7 -47 -16 0 -7
-11 -19 -25 -26 -29 -15 -33 -28 -8 -26 10 0 19 -7 21 -16 2 -10 -2 -18 -9
-18 -15 0 -79 -65 -79 -80 0 -5 -4 -10 -10 -10 -5 0 -7 7 -4 15 9 23 -10 18
-36 -10 -20 -21 -21 -25 -6 -25 15 0 16 -2 2 -15 -8 -8 -22 -15 -31 -15 -9 0
-19 -9 -22 -21 -3 -12 -11 -18 -19 -15 -18 7 -18 1 2 -19 15 -14 13 -15 -23
-12 -21 3 -30 2 -20 0 19 -5 20 -8 11 -41 -4 -12 -12 -22 -19 -22 -8 0 -11 -8
-8 -20 4 -14 1 -19 -8 -15 -18 6 -48 -17 -46 -36 2 -8 10 -25 19 -38 16 -23
14 -56 -3 -45 -5 3 -9 0 -9 -5 0 -6 5 -11 11 -11 5 0 8 -4 4 -9 -3 -6 -13 -10
-23 -10 -66 -1 -67 -2 -68 -63 0 -41 3 -55 12 -51 8 3 14 -10 19 -37 7 -44 3
-56 -15 -45 -9 6 -9 10 1 16 11 7 11 9 1 9 -19 0 -24 -23 -13 -53 8 -21 7 -25
-4 -20 -17 6 -20 -13 -4 -23 6 -4 29 -7 50 -7 34 0 39 -3 39 -23 0 -17 4 -22
15 -18 9 4 15 0 15 -10 0 -9 8 -16 20 -16 24 0 26 -22 5 -40 -23 -19 -7 -31
31 -24 30 5 34 4 34 -15 0 -20 14 -29 23 -13 2 4 2 1 0 -6 -5 -22 7 -34 23
-21 10 8 17 7 29 -5 9 -9 24 -17 33 -17 9 -1 24 -3 32 -4 8 -1 22 -3 30 -4 12
-1 13 -3 1 -10 -21 -13 5 -24 28 -11 15 8 22 7 29 -5 4 -9 19 -17 33 -17 13
-1 30 -6 37 -12 19 -14 54 -16 70 -4 8 7 12 7 12 0 0 -6 14 -10 30 -10 22 1
30 6 30 19 0 10 5 21 10 24 6 3 10 -3 10 -14 0 -18 6 -21 38 -21 41 0 56 -7
64 -31 5 -13 20 -17 70 -17 35 0 68 -1 73 -3 18 -4 40 -6 78 -8 22 0 36 -5 32
-11 -3 -6 1 -7 9 -4 10 4 16 1 16 -9 0 -9 9 -18 19 -22 11 -3 26 -19 33 -35
10 -23 17 -28 35 -24 23 6 32 -9 13 -21 -5 -3 -10 -12 -10 -18 0 -7 5 -4 11 6
22 38 44 13 68 -78 6 -22 11 -43 11 -47 0 -15 -33 -38 -55 -38 -12 0 -36 -7
-51 -15 -16 -8 -45 -15 -64 -15 -19 0 -91 -7 -160 -15 -125 -15 -255 -24 -405
-31 -44 -1 -127 -5 -185 -8 -58 -3 -260 -8 -450 -11 -190 -3 -391 -8 -445 -10
-279 -11 -1185 -26 -2735 -45 -437 -5 -838 -12 -890 -15 -52 -2 -284 -7 -515
-10 -231 -3 -487 -7 -570 -10 -82 -3 -294 -7 -470 -10 -176 -3 -408 -7 -515
-10 -187 -5 -446 -9 -1340 -20 -223 -3 -533 -8 -690 -10 -764 -14 -2343 -25
-2815 -20 -291 3 -780 7 -1085 10 -1490 14 -3555 51 -4720 85 -190 5 -529 15
-755 21 -225 6 -705 12 -1065 14 -587 2 -1176 19 -1725 49 -44 3 -143 8 -220
11 -77 4 -194 11 -260 17 -66 5 -127 10 -135 10 -8 0 -80 4 -160 9 -148 8
-212 20 -177 34 20 8 23 23 5 22 -37 -1 -49 4 -46 20 2 12 15 17 43 19 22 1
48 2 58 3 9 0 17 8 17 16 0 9 7 18 15 21 8 4 15 13 15 21 0 10 6 12 19 8 13
-4 29 4 50 25 17 18 31 36 31 42 0 7 5 6 14 -1 7 -6 20 -9 29 -5 8 3 18 1 22
-5 12 -20 45 -12 57 14 9 19 19 25 45 25 18 0 33 5 33 10 0 12 37 14 43 2 8
-12 227 -8 235 5 5 8 47 13 117 14 116 1 145 5 145 19 0 4 -9 6 -20 3 -11 -3
-20 0 -20 6 0 18 38 13 50 -7 8 -12 13 -13 16 -4 6 13 30 16 37 5 2 -5 2 -2 1
4 -2 7 5 13 16 13 14 0 19 -6 17 -22 -1 -18 4 -23 23 -25 54 -4 102 9 110 31
7 17 9 18 9 4 1 -13 9 -18 29 -18 26 1 27 1 7 16 -19 15 -18 16 15 9 19 -4 42
-14 50 -24 11 -13 30 -17 70 -17 48 1 55 4 55 21 0 14 8 20 28 22 15 1 27 -3
27 -10 0 -9 2 -9 8 0 11 17 428 21 425 4 -4 -14 14 -15 22 -1 10 15 35 12 35
-5 0 -17 35 -21 45 -5 3 5 -2 10 -11 10 -10 0 -15 3 -11 6 10 11 300 5 311 -6
7 -7 4 -10 -9 -10 -13 0 -16 -3 -8 -11 14 -14 85 -8 90 8 2 6 -8 13 -24 16
-15 2 -3 4 28 3 38 0 55 -4 52 -12 -2 -6 3 -14 11 -17 11 -5 16 0 16 13 0 16
7 20 38 20 47 0 69 16 76 55 6 30 6 30 -6 -2 -18 -53 -38 -42 -37 20 1 38 3
45 8 27 l7 -25 17 30 c12 22 16 25 17 12 0 -23 24 -17 28 8 2 10 0 15 -6 11
-7 -4 -7 5 0 30 5 20 7 38 4 42 -3 3 -6 -2 -6 -12 0 -9 -4 -14 -10 -11 -13 8
-13 65 0 65 6 0 10 7 10 15 0 8 -4 15 -10 15 -5 0 -10 -7 -10 -15 0 -9 -9 -15
-25 -15 -14 0 -25 5 -25 10 0 6 9 10 20 10 12 0 20 7 20 16 0 12 -3 14 -13 6
-10 -9 -17 -6 -30 8 -9 11 -17 25 -17 30 0 6 -9 10 -20 10 -11 0 -20 -7 -20
-15 0 -18 -12 -19 -28 -3 -9 9 -12 9 -12 -1 0 -11 -3 -11 -15 -1 -12 10 -18
10 -30 0 -12 -10 -15 -10 -15 0 0 10 -3 10 -15 0 -12 -10 -15 -10 -15 0 0 10
-3 10 -15 0 -10 -9 -15 -9 -15 -1 0 6 -7 11 -15 11 -8 0 -15 9 -15 20 0 15 7
20 25 20 18 0 25 5 25 20 0 13 -7 20 -19 20 -23 0 -37 18 -33 41 2 12 -4 15
-28 11 -16 -2 -27 -8 -24 -13 3 -5 -2 -9 -10 -9 -9 0 -16 5 -16 10 0 20 -27 9
-38 -15 -13 -28 -39 -33 -48 -10 -4 8 -11 12 -17 8 -6 -3 -7 -1 -3 5 8 13 -19
46 -44 55 -15 6 37 11 78 7 13 -1 28 3 35 8 7 5 21 12 32 15 11 2 -86 6 -215
8 -241 3 -293 4 -321 7 -45 5 -94 91 -84 145 5 25 3 37 -4 37 -6 0 -10 8 -9
18 1 9 0 46 -1 82 -1 46 -4 61 -11 50 -5 -8 -10 -27 -10 -42 0 -16 -4 -28 -10
-28 -5 0 -9 6 -7 12 3 19 -38 21 -53 3 -13 -15 -41 -21 -39 -7 3 19 -2 48 -11
62 -9 13 -11 13 -19 1 -8 -12 -12 -12 -25 -2 -12 10 -19 11 -30 2 -8 -6 -33
-10 -55 -9 -34 2 -41 6 -37 21 2 10 -1 17 -10 17 -8 0 -14 4 -14 9 0 5 -9 11
-20 14 -10 3 -27 21 -36 40 -9 20 -22 33 -29 31 -7 -3 -19 2 -28 10 -9 9 -26
17 -39 18 -20 3 -23 -1 -21 -27 1 -16 0 -25 -3 -18 -3 7 -18 9 -40 6 -19 -3
-34 -1 -34 4 0 6 11 8 25 5 19 -3 25 0 25 12 0 10 -5 14 -11 11 -18 -12 -78 5
-99 27 -17 19 -20 19 -26 5 -3 -9 -11 -14 -16 -11 -6 4 -5 10 3 15 10 6 8 9
-8 9 -13 0 -23 -4 -23 -10 0 -20 -18 -9 -24 14 -4 17 -17 27 -50 36 -25 7 -47
19 -50 27 -4 10 -15 12 -41 7 -34 -6 -41 -1 -36 28 0 4 -7 4 -16 1 -13 -5 -15
-2 -10 12 9 21 -9 45 -34 45 -10 0 -21 5 -25 12 -4 7 -3 8 4 4 7 -4 12 -1 12
7 0 9 -10 15 -25 15 -15 0 -25 -6 -25 -14 0 -9 -11 -14 -32 -13 l-33 1 30 7
c28 7 29 7 8 15 -13 4 -27 4 -33 1 -6 -4 -10 6 -10 24 0 20 -9 37 -30 54 -16
14 -30 29 -30 32 0 12 -29 35 -45 35 -8 0 -18 7 -21 15 -4 8 -10 13 -14 10 -4
-3 -13 2 -20 10 -10 12 -9 15 6 16 11 0 1 6 -21 13 -22 7 -44 11 -49 8 -4 -2
-5 5 -2 16 4 13 1 22 -8 25 -8 3 -16 18 -18 34 -2 20 -10 29 -28 33 -20 5 -26
13 -28 44 -3 31 -6 35 -18 25 -11 -9 -14 -8 -14 10 0 14 -6 21 -18 21 -15 0
-17 6 -14 35 4 34 3 36 -22 29 -21 -5 -26 -3 -26 14 0 12 -9 22 -23 26 -18 5
-19 8 -7 16 12 7 12 12 2 22 -10 10 -14 10 -21 -1 -14 -22 -22 4 -19 61 3 51
2 52 -28 61 -27 8 -54 45 -59 82 0 6 -6 19 -12 30 -6 11 -16 43 -23 72 -6 29
-18 57 -25 63 -14 11 -28 85 -29 155 -1 28 -6 41 -17 43 -12 2 -16 -4 -16 -23
0 -28 -18 -53 -29 -42 -4 3 -7 55 -8 114 l-2 107 -27 7 c-16 4 -34 12 -41 18
-7 6 -17 7 -21 3 -5 -4 -6 0 -2 9 3 9 -1 29 -9 44 -8 15 -14 34 -14 41 0 8 -7
14 -15 14 -8 0 -25 22 -38 50 -22 45 -22 50 -8 65 15 15 14 17 -1 29 -10 7
-18 25 -18 39 0 14 -5 29 -10 32 -6 4 -9 14 -8 23 2 10 -3 16 -11 14 -8 -2
-11 3 -8 11 3 8 1 19 -5 25 -6 6 -11 48 -12 95 0 46 -6 90 -12 98 -14 17 -26
79 -16 79 4 0 7 43 7 96 0 65 4 99 12 106 18 15 17 58 -2 58 -8 0 -15 -4 -15
-10 0 -5 5 -10 10 -10 14 0 12 -17 -3 -23 -9 -3 -12 4 -11 22 2 40 3 41 19 35
18 -7 21 22 3 29 -10 4 -10 7 -1 14 9 6 12 47 11 138 -1 169 11 376 23 391 6
7 5 23 -2 43 -8 23 -8 39 -1 54 6 12 13 36 16 53 7 45 45 104 72 115 13 4 24
15 24 24 0 8 9 15 19 15 11 0 23 5 26 10 3 6 15 10 26 10 11 0 22 6 25 14 3 7
17 13 32 13 30 1 124 24 217 53 33 10 113 29 178 41 64 13 117 27 117 31 0 4
17 8 38 8 20 0 53 5 72 10 19 6 62 15 95 20 33 5 101 17 150 25 95 17 184 32
249 42 22 3 49 14 60 25 11 10 31 21 43 24 23 6 32 24 13 24 -16 0 -12 41 11
100 11 30 24 69 29 85 10 39 87 266 143 425 50 141 195 504 238 595 15 33 42
92 59 130 28 60 84 178 167 350 11 22 40 78 65 125 25 47 59 110 75 140 52 97
129 232 187 329 31 51 56 96 56 98 0 3 13 23 29 46 15 23 59 92 96 152 87 142
138 219 147 223 4 2 21 27 37 56 17 29 40 61 51 71 11 10 20 22 20 27 0 9 117
179 130 188 4 3 37 46 73 95 119 161 175 232 258 322 16 18 29 36 29 40 1 5
19 26 40 48 22 22 40 45 40 50 0 6 20 28 45 50 25 22 45 45 45 52 0 7 4 13 9
13 5 0 38 35 73 77 69 84 621 643 635 643 4 0 14 9 21 20 7 11 17 20 23 20 5
0 34 24 63 53 29 28 75 71 102 95 27 24 63 57 81 73 17 17 35 31 40 32 4 1 17
11 28 22 11 12 63 56 115 98 52 43 111 93 130 112 19 19 40 35 46 35 6 0 22
12 35 28 13 15 42 39 64 53 22 15 59 41 81 60 23 19 52 41 64 49 25 16 119 95
135 114 6 6 26 20 45 30 19 11 55 37 79 58 24 21 48 38 54 38 5 0 29 16 53 35
23 19 49 35 57 35 7 0 22 9 32 20 10 11 22 20 26 20 4 0 45 27 91 60 118 86
169 121 192 131 28 13 52 28 106 65 25 17 65 41 89 54 25 12 51 29 59 36 7 8
19 14 26 14 8 0 19 7 26 15 7 8 21 15 31 15 11 0 19 4 19 9 0 5 8 11 18 15 24
8 80 41 101 60 10 9 25 16 34 16 9 0 18 4 22 9 8 13 185 111 201 111 7 0 14 4
16 8 3 8 333 173 443 222 28 12 91 41 140 65 50 23 176 77 280 120 105 43 199
81 210 86 161 68 531 196 765 265 85 25 166 49 180 55 14 5 52 15 85 23 33 9
141 36 240 60 360 91 822 176 1190 220 455 53 614 65 1005 72 151 3 280 7 285
9 20 7 477 -7 710 -21z m-8984 -12629 c102 -36 231 -163 289 -285 71 -149 84
-174 112 -223 16 -26 28 -54 28 -62 0 -8 8 -19 18 -24 10 -5 24 -27 30 -49 7
-22 24 -51 39 -66 21 -21 24 -29 14 -36 -8 -4 -10 -13 -6 -19 5 -9 10 -9 21 0
11 9 14 8 14 -3 0 -8 9 -23 20 -33 11 -10 20 -29 20 -42 0 -12 4 -23 10 -23
15 0 51 -93 45 -117 -4 -18 -2 -21 12 -16 10 3 15 2 11 -2 -5 -5 1 -14 12 -22
33 -24 25 -43 -15 -36 -39 6 -40 5 -23 -32 7 -16 19 -25 35 -25 24 0 33 -25
12 -32 -20 -7 2 -101 26 -113 12 -6 19 -18 17 -30 -1 -11 6 -29 16 -41 10 -11
22 -32 26 -47 3 -15 11 -27 16 -27 5 0 14 -18 20 -40 8 -29 18 -44 36 -50 18
-7 24 -17 24 -39 0 -15 7 -34 15 -41 8 -7 15 -19 15 -26 0 -8 5 -14 11 -14 5
0 21 -25 35 -55 14 -30 30 -55 34 -55 5 0 17 -14 26 -31 11 -23 19 -28 27 -20
8 8 8 14 -1 23 -7 7 -12 22 -12 34 0 15 -8 24 -25 28 -20 5 -25 13 -25 39 0
18 -8 44 -17 57 -10 14 -17 26 -15 28 6 6 -21 92 -29 92 -17 0 -9 42 13 72 12
17 21 43 21 59 0 25 3 27 33 25 18 -2 44 -11 58 -20 14 -9 29 -16 34 -16 5 0
16 -9 23 -21 13 -19 55 -33 137 -44 13 -2 29 -9 37 -15 12 -10 15 -10 15 -1 0
23 45 6 58 -21 7 -16 20 -28 29 -28 23 0 53 -30 53 -52 0 -11 11 -23 25 -28
14 -5 25 -16 25 -25 0 -8 16 -32 35 -54 19 -21 35 -46 35 -54 0 -9 6 -20 13
-24 8 -4 24 -22 37 -40 13 -18 28 -29 33 -26 6 4 7 -4 3 -20 -6 -26 8 -47 17
-25 3 8 6 5 6 -6 1 -10 16 -36 34 -57 17 -21 46 -56 62 -79 30 -40 70 -94 111
-147 12 -16 24 -38 28 -50 4 -14 15 -23 27 -23 10 0 19 -7 19 -15 0 -8 18 -33
40 -56 21 -23 38 -44 37 -48 -4 -11 95 -128 253 -301 48 -52 109 -119 135
-148 26 -28 53 -52 60 -52 7 0 16 -11 19 -25 4 -14 10 -25 15 -25 9 0 85 -73
122 -117 8 -10 30 -29 47 -42 18 -13 32 -28 32 -33 0 -11 89 -98 100 -98 4 0
104 -94 221 -210 118 -115 220 -210 226 -210 7 0 15 -11 19 -24 3 -13 21 -32
40 -42 19 -10 34 -24 34 -31 0 -7 13 -19 30 -28 16 -8 40 -29 52 -45 17 -23
24 -27 35 -18 7 6 15 9 16 7 1 -2 9 -16 16 -31 8 -15 22 -30 32 -33 9 -3 33
-21 54 -40 26 -25 46 -35 68 -35 22 0 28 -3 18 -9 -17 -11 -6 -31 17 -31 9 -1
28 -7 42 -15 19 -11 21 -14 8 -15 -22 0 -24 -20 -3 -20 24 0 95 -39 102 -56 3
-8 23 -33 45 -55 30 -30 43 -37 53 -29 9 8 17 7 27 -3 7 -7 26 -17 41 -21 19
-4 27 -12 25 -24 -2 -10 4 -17 14 -17 10 0 40 -17 67 -38 28 -20 55 -37 61
-37 5 0 10 -3 10 -8 0 -4 17 -16 38 -27 20 -10 56 -31 79 -46 25 -16 50 -25
62 -22 22 6 57 -38 45 -58 -5 -8 -3 -9 5 -4 7 4 30 -1 52 -10 32 -15 38 -22
33 -41 -5 -18 -1 -23 17 -26 41 -6 32 -26 -13 -30 -29 -3 -53 1 -76 14 -18 10
-47 19 -65 19 -18 1 -24 3 -14 6 9 2 17 9 17 15 0 5 -7 8 -15 5 -8 -4 -17 -2
-21 4 -3 6 -12 8 -19 5 -7 -2 -25 2 -40 10 -15 8 -33 14 -39 14 -7 0 -18 11
-26 24 -7 14 -24 27 -37 31 -19 4 -24 11 -20 25 3 11 2 18 -2 16 -4 -3 -28 0
-54 6 -35 7 -47 14 -45 26 2 11 -5 16 -22 17 -16 0 -24 5 -22 14 2 9 -4 12
-18 8 -11 -3 -23 -1 -26 4 -3 5 -16 9 -29 9 -15 0 -31 10 -41 25 -9 14 -22 25
-29 25 -7 0 -18 7 -25 15 -7 8 -23 15 -37 15 -13 0 -26 6 -29 14 -3 8 -23 17
-45 21 -21 4 -39 11 -39 16 0 12 -38 49 -50 49 -6 0 -22 11 -35 24 -16 16 -40
26 -77 30 -45 6 -61 13 -87 42 -18 19 -44 37 -57 40 -13 3 -24 12 -24 19 0 6
-18 17 -39 24 -21 6 -42 18 -45 26 -3 8 -12 15 -20 15 -7 0 -16 6 -19 13 -5
15 -101 67 -122 67 -8 0 -20 7 -29 15 -8 9 -40 29 -71 45 -31 16 -63 36 -72
45 -8 9 -28 19 -44 22 -16 3 -29 9 -29 14 0 5 -15 15 -32 22 -18 8 -41 24 -51
35 -11 12 -25 18 -34 15 -9 -4 -21 1 -27 9 -13 18 -82 42 -96 33 -17 -10 -12
-35 6 -28 10 4 14 1 13 -8 -2 -8 5 -35 15 -61 13 -33 25 -48 40 -50 12 -2 22
-11 24 -24 2 -12 16 -27 35 -35 18 -8 36 -24 42 -36 5 -13 15 -23 22 -23 7 0
17 -9 23 -21 7 -11 17 -18 25 -16 9 4 11 -1 8 -14 -4 -13 0 -19 11 -19 9 0 33
-16 54 -35 22 -19 42 -32 45 -29 3 4 21 -9 40 -27 40 -41 186 -153 201 -155 6
-1 17 -2 24 -3 6 0 12 -8 12 -16 0 -8 12 -22 28 -32 15 -10 35 -28 45 -40 10
-13 25 -23 33 -23 8 0 31 -16 53 -35 21 -19 45 -35 53 -35 8 0 23 -9 34 -21
10 -11 32 -27 49 -35 62 -31 118 -64 135 -79 22 -20 74 -51 113 -68 15 -6 27
-15 27 -19 0 -4 6 -8 14 -8 7 0 20 -8 27 -17 8 -9 46 -31 86 -50 39 -18 92
-49 117 -68 26 -19 64 -43 86 -53 22 -9 40 -20 40 -24 0 -5 5 -8 12 -8 6 0 77
-32 157 -71 80 -39 157 -76 171 -81 14 -6 32 -14 40 -19 8 -5 40 -21 70 -35
30 -14 78 -36 105 -49 28 -13 60 -26 72 -30 11 -3 27 -12 33 -20 7 -8 23 -15
36 -15 12 0 26 -4 29 -10 3 -6 17 -10 29 -10 13 0 50 -13 82 -30 32 -16 67
-30 77 -30 9 0 25 -4 35 -9 57 -29 115 -51 132 -51 11 0 20 -5 20 -11 0 -5 4
-7 10 -4 5 3 20 -1 32 -9 12 -9 31 -16 40 -16 10 0 26 -4 36 -9 63 -32 116
-50 177 -60 39 -7 84 -19 100 -27 17 -7 66 -22 110 -33 119 -29 198 -51 220
-61 11 -5 43 -11 70 -14 28 -2 73 -13 100 -23 32 -12 74 -18 118 -17 45 1 71
-3 78 -13 6 -7 26 -13 43 -13 17 0 38 -4 46 -10 9 -5 19 -5 26 1 15 12 65 4
75 -13 5 -8 34 -14 76 -15 128 -4 189 -9 201 -17 7 -4 12 -3 12 3 0 12 108 5
125 -8 18 -15 47 -8 71 16 25 25 32 39 14 28 -14 -9 -91 26 -87 39 5 14 -65
45 -95 43 -13 0 -26 -6 -30 -11 -4 -6 -14 -4 -26 7 -10 9 -33 20 -50 23 -23 5
-34 14 -38 30 -3 13 -9 24 -13 25 -3 1 -19 3 -36 5 -53 6 -65 10 -77 27 -7 9
-34 19 -61 22 -30 4 -57 16 -74 31 -14 13 -38 24 -54 24 -15 0 -30 4 -34 9 -3
5 -34 12 -68 16 -51 6 -65 11 -73 28 -6 16 -19 23 -46 25 -21 2 -38 7 -38 11
0 4 -22 14 -50 21 -53 14 -57 19 -38 38 7 7 8 12 4 12 -5 0 -3 7 4 15 8 9 22
13 39 10 14 -3 20 -2 14 1 -7 3 -13 12 -13 19 0 10 13 12 58 8 31 -3 63 -10
69 -15 7 -6 40 -12 74 -13 33 -2 64 -6 67 -9 3 -3 24 -6 46 -6 23 -1 61 -5 86
-11 81 -18 143 -29 238 -41 50 -6 92 -15 92 -20 0 -4 23 -8 52 -8 28 0 77 -5
108 -12 31 -6 63 -9 71 -6 19 7 35 5 31 -5 -1 -4 17 -7 40 -6 24 1 88 -3 143
-9 370 -40 733 -55 1185 -49 424 6 605 19 1075 77 156 19 481 81 735 139 143
33 161 37 280 69 173 47 427 129 603 194 86 32 165 58 175 58 10 0 22 4 28 9
5 5 63 32 130 59 67 28 154 66 195 85 41 19 94 43 118 53 76 32 469 233 522
267 13 8 52 30 85 48 161 89 615 380 670 430 11 11 48 38 82 62 298 206 769
620 1056 927 192 206 290 316 316 354 8 13 27 35 43 50 15 15 45 50 67 79 22
29 65 84 96 122 77 98 133 172 169 225 32 47 58 80 87 111 9 9 19 26 23 38 3
11 23 42 44 68 59 75 131 182 141 209 5 13 14 24 20 24 5 0 10 6 10 13 0 7 16
28 35 47 19 19 35 41 35 49 0 8 17 37 38 65 42 56 66 96 57 96 -4 0 -3 5 1 11
4 8 9 7 16 -2 5 -9 6 -4 2 15 -6 26 -5 28 16 21 14 -4 20 -3 16 3 -3 5 1 15
10 22 8 7 13 19 10 26 -3 8 6 26 19 40 19 20 30 25 50 20 29 -7 30 -14 10 -52
-8 -16 -15 -43 -15 -61 0 -17 -4 -34 -9 -38 -5 -3 -13 -30 -16 -60 -4 -31 -11
-58 -16 -61 -5 -3 -6 -16 -3 -28 3 -13 -2 -40 -10 -61 -17 -39 -22 -105 -8
-105 14 0 80 37 97 54 9 9 28 16 42 16 24 0 82 -27 94 -44 10 -13 30 3 27 22
-2 12 4 17 21 17 18 0 27 8 34 29 9 28 15 37 57 84 11 12 20 24 20 26 0 2 24
41 54 85 30 44 57 89 60 99 4 11 15 27 26 37 11 10 20 24 20 32 0 13 67 165
92 208 6 11 18 34 26 50 9 17 21 41 29 55 7 14 40 81 74 150 34 69 76 154 93
190 92 186 232 359 332 410 64 32 150 37 235 15 35 -10 82 -21 104 -25 22 -5
74 -15 115 -24 41 -8 246 -49 455 -90 209 -42 432 -87 495 -101 114 -26 240
-49 334 -60 59 -8 59 0 -12 -205 -84 -242 -102 -291 -148 -406 -24 -61 -44
-115 -44 -121 0 -6 -7 -16 -15 -23 -8 -7 -15 -20 -15 -29 0 -10 -11 -39 -24
-67 -12 -27 -31 -70 -41 -96 -9 -26 -26 -56 -37 -68 -11 -12 -17 -24 -14 -27
3 -4 -5 -21 -19 -39 -14 -18 -25 -42 -25 -53 0 -12 -4 -21 -9 -21 -5 0 -15
-16 -21 -35 -6 -19 -20 -40 -30 -45 -11 -6 -21 -26 -25 -50 -4 -22 -10 -40
-15 -40 -4 0 -13 -14 -19 -30 -6 -17 -19 -43 -31 -57 -11 -14 -20 -36 -20 -48
0 -12 -9 -30 -20 -40 -11 -10 -20 -26 -20 -37 0 -10 -7 -18 -15 -18 -8 0 -15
-9 -15 -20 0 -11 -4 -28 -10 -38 -5 -9 -22 -44 -38 -77 -16 -33 -39 -78 -52
-100 -13 -22 -50 -92 -82 -155 -33 -63 -65 -121 -73 -130 -7 -8 -28 -44 -46
-80 -18 -36 -44 -83 -59 -105 -15 -22 -44 -71 -65 -110 -22 -38 -45 -76 -52
-83 -7 -7 -13 -20 -13 -28 0 -8 -6 -17 -14 -20 -8 -3 -21 -22 -29 -42 -9 -20
-25 -47 -36 -59 -12 -12 -21 -26 -21 -30 0 -4 -14 -26 -30 -47 -17 -22 -30
-46 -30 -54 0 -8 -17 -35 -38 -61 -40 -50 -51 -67 -81 -121 -10 -19 -28 -44
-40 -54 -12 -11 -21 -23 -21 -29 0 -5 -13 -26 -29 -46 -16 -20 -30 -45 -33
-56 -2 -13 -10 -19 -23 -17 -15 3 -17 1 -7 -10 9 -12 6 -20 -18 -43 -17 -16
-30 -34 -30 -41 0 -6 -7 -14 -15 -18 -8 -3 -15 -11 -15 -17 0 -11 -41 -66 -97
-130 -13 -14 -49 -59 -80 -101 -71 -93 -154 -190 -170 -201 -7 -4 -13 -12 -13
-17 0 -6 -8 -19 -18 -29 -9 -11 -30 -37 -47 -57 -69 -85 -181 -204 -197 -210
-10 -3 -18 -11 -18 -18 0 -9 -127 -147 -257 -279 -63 -63 -215 -207 -220 -207
-3 0 -31 -27 -62 -60 -31 -33 -61 -60 -65 -60 -5 0 -25 -17 -45 -37 -33 -35
-99 -92 -163 -143 -15 -11 -31 -20 -37 -20 -6 0 -11 -6 -11 -13 0 -13 -31 -44
-61 -62 -10 -5 -38 -29 -63 -53 -24 -23 -48 -42 -52 -42 -3 0 -21 -12 -38 -27
-98 -85 -257 -203 -273 -203 -7 0 -13 -7 -13 -15 0 -8 -15 -21 -34 -30 -19 -9
-45 -29 -60 -45 -14 -16 -40 -37 -58 -46 -18 -9 -49 -30 -69 -45 -20 -16 -41
-29 -47 -29 -5 0 -29 -17 -53 -39 -24 -21 -70 -53 -102 -72 -32 -19 -69 -41
-81 -49 -13 -8 -43 -28 -67 -44 -24 -16 -46 -32 -49 -35 -7 -8 -39 -28 -70
-44 -14 -6 -29 -15 -35 -20 -19 -15 -127 -77 -135 -77 -4 0 -20 -11 -36 -25
-16 -14 -45 -32 -64 -41 -19 -9 -43 -23 -53 -32 -9 -8 -17 -11 -17 -6 0 5 -6
2 -13 -6 -15 -18 -52 -40 -67 -40 -6 0 -16 -5 -23 -10 -30 -26 -137 -85 -317
-174 -107 -54 -202 -102 -210 -107 -8 -5 -34 -18 -58 -29 -23 -11 -75 -35
-115 -53 -40 -19 -88 -40 -107 -48 -19 -7 -55 -24 -79 -37 -23 -13 -52 -22
-62 -19 -10 3 -17 1 -14 -3 4 -7 -92 -50 -112 -50 -4 0 -26 -10 -51 -21 -24
-12 -54 -21 -67 -21 -13 0 -26 -6 -29 -13 -2 -7 -22 -16 -43 -20 -21 -3 -51
-13 -68 -20 -41 -18 -115 -28 -115 -15 0 5 6 10 12 10 7 0 35 11 63 25 27 13
66 31 85 40 19 9 53 27 75 40 74 45 90 52 126 59 21 4 42 13 49 21 7 8 19 15
26 15 8 0 22 9 31 20 10 11 21 20 25 20 4 0 26 13 50 29 24 16 58 32 76 36 18
4 38 15 45 26 6 10 19 19 27 19 9 0 23 9 32 19 9 11 39 28 67 38 28 10 51 23
51 30 0 6 12 21 27 32 24 17 26 22 13 31 -22 15 -31 12 -37 -10 -3 -11 -12
-20 -19 -20 -8 0 -14 -5 -14 -11 0 -8 -5 -8 -15 1 -12 10 -15 10 -15 -3 0 -13
-11 -16 -62 -15 -87 3 -175 -10 -193 -28 -13 -14 -15 -14 -15 0 0 23 -14 20
-25 -6 -11 -24 -40 -33 -131 -42 -28 -3 -64 -8 -80 -12 -16 -4 -42 -8 -59 -8
-16 0 -36 -6 -43 -13 -8 -7 -39 -14 -70 -15 -31 -1 -66 -2 -77 -2 -11 -1 -25
-4 -32 -9 -6 -4 -29 -9 -51 -11 -22 -2 -44 -6 -51 -10 -6 -4 -11 -2 -11 4 0
11 -57 9 -78 -4 -7 -4 -12 -2 -12 6 0 10 -2 10 -9 -1 -5 -7 -13 -11 -19 -7 -6
3 -13 2 -17 -4 -3 -5 -14 -10 -24 -10 -10 0 -32 -7 -47 -15 -36 -19 -54 -19
-54 -1 0 18 -35 27 -49 13 -15 -15 -62 -15 -68 0 -4 9 -11 9 -29 -4 -13 -8
-33 -13 -44 -10 -11 3 -23 1 -26 -4 -3 -6 -12 -5 -21 3 -17 14 -93 18 -93 6 0
-5 -7 -8 -15 -8 -9 0 -15 -9 -16 -22 l0 -23 -9 23 c-6 13 -15 22 -22 20 -20
-4 -88 33 -88 47 0 13 -36 31 -52 27 -5 -1 -8 5 -8 13 0 8 -7 15 -15 15 -9 0
-15 9 -15 25 0 26 -15 34 -23 13 -3 -8 -6 -5 -6 6 -1 15 -4 16 -15 7 -10 -9
-16 -9 -21 -1 -5 8 -14 6 -31 -5 -13 -8 -24 -11 -24 -5 0 5 -7 10 -15 10 -17
0 -21 25 -5 35 5 3 25 6 45 7 43 2 46 16 5 25 -16 3 -30 12 -30 19 0 8 -9 14
-20 14 -12 0 -20 -6 -19 -12 5 -38 -2 -48 -28 -47 -19 1 -22 3 -10 6 18 5 17
6 -3 28 -17 18 -20 27 -11 42 9 16 10 14 11 -11 0 -16 3 -26 7 -22 11 11 13
39 3 51 -6 7 -2 17 10 28 21 18 26 37 10 37 -5 0 -14 -8 -20 -18 -9 -15 -12
-14 -35 13 -14 17 -25 24 -25 16 0 -8 7 -23 17 -33 15 -17 15 -18 -10 -18 -21
0 -25 4 -23 23 1 13 6 29 10 36 5 7 5 16 0 20 -5 3 -10 14 -12 23 -5 29 25 10
43 -28 19 -40 30 -45 21 -9 -5 18 -2 25 9 25 8 0 15 5 15 10 0 6 -8 10 -19 10
-25 0 -43 23 -35 46 6 15 0 13 -23 -8 -29 -28 -53 -36 -53 -18 0 5 -7 7 -15 4
-10 -4 -15 0 -15 10 0 9 7 19 15 22 8 4 15 12 15 20 0 8 -7 14 -15 14 -8 0
-15 7 -15 16 0 23 -33 61 -49 56 -8 -3 -12 2 -9 14 2 11 9 18 15 17 6 -1 9 10
7 26 -3 27 -1 29 38 29 47 1 78 -12 78 -33 0 -9 6 -12 15 -9 9 4 15 19 15 38
0 39 -12 58 -32 51 -9 -4 -18 1 -22 11 -4 9 -5 18 -4 18 2 1 17 8 33 15 28 12
28 14 10 21 -14 6 -24 3 -33 -9 -10 -12 -25 -15 -63 -13 -27 2 -49 0 -48 -5 1
-4 -3 -19 -9 -33 -9 -21 -11 -22 -11 -5 -1 13 -4 16 -11 9 -8 -8 -26 -7 -60 2
-38 10 -63 10 -102 2 -29 -6 -79 -12 -112 -13 -32 -2 -62 -8 -65 -14 -4 -6
-64 -16 -137 -21 -80 -7 -137 -16 -151 -25 -13 -9 -47 -15 -85 -15 -35 0 -83
-5 -108 -11 -56 -13 -202 -39 -253 -45 -21 -3 -49 -9 -62 -14 -12 -5 -83 -12
-156 -16 -74 -3 -139 -11 -146 -16 -7 -5 -63 -11 -125 -13 -129 -4 -363 -23
-424 -34 -23 -5 -48 -5 -55 0 -8 4 -32 4 -54 0 -41 -7 -471 -5 -580 3 -33 3
-143 9 -245 15 -239 14 -419 28 -489 40 -31 5 -83 12 -116 16 -124 13 -325 45
-675 110 -201 37 -598 132 -770 185 -36 11 -119 36 -185 55 -66 20 -136 42
-155 50 -19 7 -60 21 -90 30 -86 27 -344 120 -416 151 -16 7 -91 37 -165 67
-73 30 -157 66 -186 81 -29 14 -57 26 -62 26 -6 0 -63 25 -126 55 -64 30 -121
55 -127 55 -6 0 -26 11 -44 25 -18 14 -39 25 -47 25 -8 0 -25 8 -38 18 -13 11
-46 27 -74 37 -27 10 -58 25 -67 33 -10 8 -24 12 -33 8 -9 -3 -18 1 -22 10 -3
8 -33 28 -67 45 -33 16 -69 34 -78 39 -10 6 -26 14 -35 20 -10 5 -42 21 -71
36 -28 14 -58 31 -65 37 -6 7 -23 18 -37 25 -46 22 -135 74 -150 86 -8 7 -31
19 -50 26 -19 7 -46 23 -60 35 -14 12 -40 28 -57 35 -18 7 -33 16 -33 21 0 8
-40 32 -140 84 -22 11 -49 31 -60 43 -12 12 -35 29 -53 37 -36 17 -64 35 -127
82 -24 18 -49 33 -55 33 -7 0 -20 11 -29 25 -9 14 -23 25 -31 25 -8 0 -28 12
-44 27 -40 38 -155 123 -167 123 -5 0 -25 16 -44 35 -19 19 -38 35 -43 35 -5
0 -25 17 -46 38 -21 20 -56 48 -79 62 -23 14 -42 31 -42 38 0 6 -6 12 -13 12
-8 0 -34 18 -58 40 -59 55 -74 67 -98 80 -12 6 -21 17 -21 26 0 8 -10 19 -22
25 -74 34 -134 79 -154 115 -11 19 -39 36 -81 49 -33 9 -31 -28 2 -43 14 -6
25 -18 25 -27 0 -8 14 -28 30 -43 17 -16 30 -34 30 -40 0 -5 7 -12 15 -16 8
-3 15 -12 15 -20 0 -8 5 -27 12 -43 6 -15 10 -34 9 -40 -1 -7 7 -13 17 -13 21
0 32 -18 32 -50 0 -10 8 -25 18 -32 10 -7 27 -32 38 -55 10 -23 29 -47 42 -54
12 -7 22 -20 22 -30 0 -10 9 -20 19 -24 10 -3 21 -13 25 -23 10 -31 45 -86 60
-94 7 -4 17 -24 20 -43 4 -20 11 -33 17 -30 5 4 9 1 9 -5 0 -6 14 -24 30 -40
17 -16 30 -34 30 -41 0 -13 40 -48 56 -49 14 0 44 -44 44 -63 0 -20 47 -60 60
-52 13 8 59 -40 60 -62 0 -6 14 -21 30 -33 19 -14 30 -30 30 -46 0 -20 5 -24
30 -24 19 0 34 -7 42 -21 7 -11 34 -33 60 -49 29 -18 50 -39 54 -54 6 -27 65
-77 99 -86 11 -3 20 -12 21 -20 2 -34 5 -38 28 -44 14 -3 26 -13 28 -22 2 -9
19 -22 38 -28 24 -7 36 -18 38 -33 2 -12 20 -34 40 -50 20 -15 49 -40 64 -55
15 -16 37 -28 49 -28 18 0 19 -3 9 -14 -10 -13 -7 -15 17 -13 20 1 30 -4 38
-20 5 -13 15 -23 22 -23 7 0 23 -11 35 -25 12 -14 30 -25 40 -25 10 0 18 -6
18 -13 0 -14 35 -47 50 -47 5 0 17 -11 26 -24 11 -18 32 -29 70 -37 30 -7 54
-16 54 -21 0 -4 7 -8 15 -8 9 0 18 -7 21 -15 4 -8 12 -15 20 -15 7 0 29 -16
48 -35 20 -19 38 -35 41 -35 3 0 16 -11 29 -25 13 -14 30 -25 38 -25 9 0 21
-7 28 -15 7 -8 21 -15 32 -15 11 0 26 -6 34 -14 7 -8 23 -12 34 -9 11 3 20 0
20 -6 0 -6 14 -11 30 -11 18 0 30 -5 30 -13 0 -7 10 -13 21 -14 12 -1 22 -3
24 -5 1 -2 16 -23 34 -47 17 -24 31 -39 31 -33 0 7 5 12 11 12 6 0 9 -6 6 -13
-3 -9 3 -12 22 -10 18 3 35 -4 55 -23 16 -15 45 -30 65 -33 24 -4 39 -13 46
-29 9 -21 57 -42 98 -42 9 0 17 -5 17 -11 0 -15 26 -39 43 -39 34 0 77 -23 77
-41 0 -12 7 -19 18 -19 10 0 29 -8 42 -17 14 -10 33 -16 43 -15 12 2 19 -5 23
-27 5 -22 12 -31 26 -31 10 0 17 -4 13 -9 -3 -5 5 -13 17 -17 12 -3 28 -13 36
-20 18 -19 32 -18 32 2 0 14 8 16 52 10 30 -4 58 -15 67 -25 19 -21 49 -32 92
-33 22 -1 33 -7 37 -20 3 -11 10 -17 18 -14 8 3 14 -1 14 -9 0 -15 8 -16 92
-19 35 -1 77 -34 78 -61 0 -25 45 -48 90 -48 25 0 50 -4 57 -9 7 -5 16 -7 21
-4 6 3 15 -1 22 -10 7 -8 19 -13 27 -10 7 3 13 -1 13 -11 0 -13 3 -13 15 -3
12 10 15 10 15 -4 0 -22 20 -21 21 2 0 12 3 10 10 -8 7 -17 12 -21 18 -12 6
10 11 9 21 -3 7 -9 19 -14 25 -11 15 5 27 -3 41 -29 6 -11 20 -20 30 -21 41
-2 84 -17 84 -30 0 -19 29 -32 81 -37 39 -3 44 -7 47 -30 2 -14 10 -31 18 -37
8 -7 14 -20 14 -28 0 -12 3 -13 12 -4 9 9 14 8 22 -2 18 -22 56 -30 56 -12 0
19 17 20 53 4 17 -9 27 -21 27 -35 0 -13 5 -23 10 -23 6 0 10 5 10 10 0 6 5
10 11 10 6 0 9 -7 5 -15 -5 -14 10 -19 52 -18 8 1 10 -6 7 -18 -6 -17 -3 -19
22 -14 26 6 27 5 10 -9 -18 -14 -17 -15 10 -32 15 -10 31 -24 35 -30 4 -6 24
-11 44 -12 46 -2 74 -11 74 -23 0 -13 20 -33 42 -42 13 -4 16 -2 11 11 -3 9 4
2 16 -16 12 -18 26 -30 31 -27 6 3 10 2 10 -4 0 -5 -6 -12 -12 -14 -8 -3 -6
-6 5 -6 9 -1 17 -8 17 -16 0 -9 -6 -15 -12 -14 -20 3 -49 -12 -42 -22 3 -5 -6
-9 -20 -9 -26 0 -36 -15 -16 -22 7 -2 4 -11 -5 -23 -16 -20 -16 -20 -13 0 3
21 -17 47 -45 58 -15 5 -17 -1 -16 -46 2 -68 7 -87 25 -87 8 0 14 -7 14 -15 0
-9 -6 -12 -15 -9 -9 4 -15 0 -15 -9 0 -9 -3 -22 -6 -31 -3 -9 4 -25 20 -39 14
-13 26 -32 26 -41 0 -9 7 -16 15 -16 8 0 15 -4 15 -9 0 -6 8 -9 18 -9 9 1 35
-2 57 -6 l39 -8 -23 -17 c-16 -12 -20 -21 -12 -25 25 -16 7 -23 -56 -21 -38 1
-82 5 -99 9 -17 4 -55 9 -85 11 -30 2 -81 9 -114 15 -33 6 -91 15 -130 20 -38
6 -92 15 -120 21 -27 5 -63 12 -80 15 -87 14 -151 28 -160 34 -13 10 -72 23
-115 26 -19 1 -51 7 -70 13 -19 5 -80 21 -135 36 -55 14 -113 30 -130 35 -16
5 -50 14 -75 21 -25 7 -49 15 -55 18 -5 3 -25 7 -44 8 -19 1 -39 7 -45 13 -5
5 -18 10 -28 10 -10 0 -26 4 -36 9 -9 5 -55 22 -102 36 -92 29 -128 42 -380
136 -91 34 -183 68 -205 76 -41 15 -146 59 -224 94 -24 11 -64 28 -90 39 -25
10 -83 36 -128 59 -44 22 -84 41 -88 41 -11 0 -422 205 -520 259 -49 28 -116
64 -148 80 -31 17 -86 49 -121 71 -35 22 -68 40 -75 40 -6 0 -11 4 -11 9 0 5
-10 11 -23 15 -12 3 -32 14 -44 26 -12 11 -27 20 -34 20 -6 0 -28 13 -48 29
-20 15 -49 36 -66 45 -37 20 -52 30 -141 88 -39 27 -74 48 -78 48 -8 0 -61 37
-90 62 -11 10 -25 18 -31 18 -6 0 -25 14 -43 30 -18 17 -37 30 -41 30 -6 0
-96 65 -138 100 -7 5 -15 10 -19 10 -6 0 -18 10 -108 83 -18 15 -38 27 -44 27
-5 0 -12 7 -16 15 -3 8 -25 27 -48 43 -42 26 -54 36 -123 95 -18 15 -37 27
-42 27 -5 0 -23 16 -39 35 -16 19 -33 35 -39 35 -5 1 -21 14 -35 30 -13 17
-29 30 -35 30 -6 0 -25 14 -43 30 -18 17 -37 30 -43 30 -5 0 -9 5 -9 12 0 13
-47 58 -60 58 -4 0 -10 9 -13 20 -3 12 -11 18 -19 15 -9 -4 -20 5 -28 20 -7
14 -17 25 -22 25 -4 0 -30 21 -57 48 -26 26 -113 108 -192 182 -79 74 -158
151 -176 170 -34 36 -63 65 -136 135 -23 23 -62 63 -87 91 -103 114 -228 250
-267 291 -24 24 -43 47 -43 51 0 4 -9 15 -20 25 -11 9 -20 24 -20 32 0 8 -4
15 -10 15 -11 0 -120 111 -120 123 0 9 -54 81 -85 113 -20 20 -27 30 -66 92
-12 18 -30 37 -40 43 -11 5 -19 14 -19 20 0 12 -35 63 -69 101 -13 15 -29 36
-35 46 -6 11 -25 40 -43 65 -17 25 -34 55 -38 67 -4 11 -18 25 -31 30 -13 5
-24 16 -24 25 0 8 -4 15 -10 15 -5 0 -10 7 -10 15 0 8 -13 30 -30 48 -16 19
-30 39 -30 45 0 6 -6 17 -12 24 -20 21 -38 56 -38 72 0 8 -13 24 -30 36 -16
12 -30 29 -30 38 -1 25 -27 67 -42 67 -7 0 -13 7 -14 15 0 25 -20 64 -42 83
-11 10 -23 29 -26 43 -4 13 -11 24 -16 24 -6 0 -10 5 -10 11 0 6 -9 22 -20 36
-11 14 -20 34 -20 45 0 10 -7 21 -15 24 -8 4 -15 9 -15 13 0 4 -22 49 -50 101
-27 52 -50 100 -50 107 0 8 -6 16 -14 19 -8 3 -17 20 -20 39 -4 18 -18 49 -31
70 -14 20 -31 51 -39 69 -8 19 -19 37 -25 40 -6 4 -11 18 -11 32 0 24 -35 104
-50 114 -4 3 -13 31 -20 62 -9 37 -19 60 -30 63 -17 5 -60 122 -60 161 0 12
-7 27 -15 34 -8 7 -15 21 -15 31 0 11 -5 19 -10 19 -6 0 -13 8 -17 18 -3 9
-14 28 -23 42 -9 14 -20 48 -24 75 -3 28 -13 55 -22 62 -9 6 -13 16 -10 21 10
16 -18 84 -41 99 -17 11 -23 25 -23 52 0 20 -8 53 -19 73 -15 30 -16 38 -5 42
16 6 10 27 -22 74 -18 26 -23 29 -26 15 -3 -10 -3 19 -2 63 2 72 1 83 -15 87
-10 2 -32 31 -48 63 -21 41 -37 60 -51 62 -20 3 -22 10 -22 63 0 32 4 59 9 59
11 0 21 91 14 134 -5 31 -10 36 -40 42 -21 4 -42 17 -55 35 -20 26 -22 27 -34
11 -8 -10 -9 -21 -3 -26 12 -13 12 -63 -1 -71 -6 -4 -10 8 -10 28 0 30 -4 35
-27 40 -23 5 -33 17 -57 71 -15 36 -32 66 -37 66 -5 0 -9 11 -9 25 0 13 -8 28
-17 34 -25 14 0 39 46 46 104 15 180 30 316 62 83 19 179 41 215 48 36 7 119
25 185 40 66 14 167 35 225 45 58 11 121 24 140 30 19 5 98 21 175 35 77 14
172 34 210 45 86 23 120 24 176 5z m3534 -367 c39 0 117 1 174 1 74 1 107 -2
112 -11 6 -10 15 -10 40 -1 19 8 38 9 48 4 9 -5 46 -6 83 -2 52 5 69 4 73 -6
3 -10 15 -12 39 -8 52 10 257 12 290 3 16 -4 34 -4 40 0 6 4 83 4 171 0 88 -5
189 -8 225 -7 228 3 345 2 420 -4 47 -4 162 -10 255 -12 94 -3 184 -7 202 -9
17 -3 78 0 135 4 144 13 197 13 246 2 38 -8 42 -7 42 9 0 23 18 24 49 3 20
-14 60 -17 255 -20 127 -2 247 -6 266 -8 19 -2 40 0 47 5 7 7 30 7 62 1 32 -6
54 -6 57 0 6 10 189 2 206 -8 5 -3 14 -1 21 4 14 11 589 16 1449 12 200 -1
344 3 355 8 11 6 22 6 33 0 11 -7 29 -6 60 5 32 11 49 12 58 5 9 -8 24 -8 51
1 45 13 191 15 191 2 0 -5 21 -9 48 -8 26 0 83 0 127 -1 168 -1 185 0 190 9 4
5 11 9 16 9 6 0 8 -4 5 -9 -7 -10 24 -25 33 -16 3 3 0 10 -8 14 -7 5 35 9 93
10 57 1 107 -2 110 -7 7 -11 587 -13 601 -2 6 5 448 7 983 7 534 -1 972 1 972
4 0 3 50 5 111 3 61 -2 116 -1 123 3 6 4 148 9 316 11 334 4 330 4 608 -1 106
-2 195 0 198 5 6 10 68 11 78 1 4 -4 36 -6 70 -5 47 3 65 0 69 -10 4 -11 21
-12 88 -6 151 14 258 9 286 -14 8 -7 35 -6 78 1 76 13 273 13 281 0 3 -5 24
-8 47 -8 93 4 586 -2 639 -8 41 -4 55 -9 51 -18 -3 -8 5 -15 19 -17 22 -4 22
-5 -5 -16 -16 -7 -49 -12 -75 -12 -26 0 -80 -5 -120 -10 -74 -10 -316 -25
-537 -35 -66 -2 -156 -7 -200 -10 -884 -60 -3757 -106 -6595 -104 -663 0
-1342 2 -1510 4 -168 2 -548 6 -845 9 -297 4 -623 8 -725 11 -102 3 -446 10
-765 15 -548 10 -1033 23 -1280 35 -377 19 -516 26 -645 34 -80 5 -149 7 -153
4 -4 -3 -54 0 -110 6 -56 5 -144 13 -194 16 -129 8 -245 23 -256 34 -6 6 14
12 49 16 33 3 66 9 74 13 8 3 42 7 75 8 85 4 423 14 605 18 85 3 182 9 215 15
33 6 108 11 166 10 71 0 115 4 132 13 21 10 91 12 334 10 169 -2 340 -4 378
-4z m11519 -1320 c-4 -7 -41 -62 -83 -123 -42 -60 -83 -119 -91 -132 -84 -125
-392 -508 -539 -668 -123 -134 -499 -512 -471 -473 3 4 93 96 200 205 294 298
418 440 671 768 64 83 151 202 194 265 43 63 87 127 98 143 21 28 34 37 21 15z
m-12078 -1474 c99 -91 146 -132 218 -189 22 -16 44 -35 51 -42 40 -38 287
-229 422 -326 309 -221 588 -394 908 -562 61 -32 115 -62 120 -67 27 -27 -417
213 -485 262 -16 11 -31 20 -34 20 -3 0 -56 32 -118 71 -441 279 -823 575
-1198 927 -3 3 0 3 6 1 7 -2 56 -45 110 -95z m10817 2 c-247 -232 -609 -515
-938 -733 -99 -65 -196 -128 -215 -139 -19 -12 -52 -31 -72 -43 -64 -38 -42
-16 30 30 37 24 72 46 77 48 22 9 340 224 343 232 2 5 8 9 13 9 17 0 405 297
539 413 14 12 57 49 95 81 39 33 96 84 127 113 31 29 59 53 62 53 4 0 -24 -29
-61 -64z m-9153 -1358 c10 1 11 -1 3 -4 -18 -8 -16 -24 2 -24 8 0 15 -8 15
-17 0 -15 2 -16 10 -3 8 13 15 10 40 -17 16 -18 30 -37 30 -42 0 -13 40 -14
59 -2 18 12 41 3 41 -15 0 -8 9 -14 20 -14 12 0 20 -7 20 -17 0 -15 2 -16 10
-3 9 13 11 13 20 0 19 -29 7 -43 -40 -44 -36 -1 -50 4 -74 26 -16 16 -37 28
-47 28 -11 0 -19 6 -19 13 0 8 -2 9 -8 1 -4 -7 -15 -8 -27 -3 -19 8 -19 8 3
15 12 3 22 10 22 15 0 13 -34 11 -47 -2 -8 -8 -28 -9 -58 -5 -43 7 -45 9 -28
22 17 14 17 15 -3 9 -17 -4 -23 0 -28 17 -17 67 3 98 49 74 11 -6 27 -9 35 -8z"/>
<path d="M11645 18560 c-450 -26 -1023 -105 -1350 -188 -22 -6 -74 -18 -115
-27 -41 -9 -97 -23 -125 -30 -27 -8 -79 -21 -115 -30 -36 -8 -94 -24 -130 -35
-36 -11 -92 -27 -125 -36 -33 -8 -67 -19 -76 -24 -8 -4 -49 -16 -90 -25 -40
-10 -79 -22 -84 -26 -6 -4 -49 -20 -95 -34 -104 -32 -240 -85 -259 -99 -14
-11 -102 -39 -171 -56 -30 -6 -31 -8 -10 -10 20 -1 15 -5 -20 -15 -98 -29
-125 -43 -128 -64 -4 -25 6 -26 55 -6 19 8 44 15 55 15 10 0 21 7 24 15 5 12
10 13 20 4 8 -6 14 -8 14 -3 0 5 15 10 33 10 40 2 189 42 201 55 6 5 25 9 43
9 19 0 51 9 73 20 22 11 48 20 60 20 11 0 28 4 38 9 9 5 45 14 80 20 34 7 83
21 107 31 25 11 76 22 113 26 37 3 86 12 108 20 23 7 59 15 80 18 22 3 73 12
114 21 86 18 98 20 239 35 57 6 111 15 120 19 9 5 48 11 86 14 39 3 99 10 135
16 145 23 253 31 267 19 10 -8 38 -7 111 5 123 21 667 37 987 30 339 -8 565
-21 594 -32 14 -6 78 -13 141 -16 63 -3 144 -10 180 -15 36 -5 112 -14 170
-20 58 -5 125 -14 150 -20 25 -5 61 -9 81 -10 20 0 63 -8 95 -19 33 -10 92
-21 132 -25 40 -4 92 -16 115 -26 23 -11 55 -20 70 -20 15 0 85 -13 154 -30
69 -16 135 -30 147 -30 13 0 25 -3 29 -6 12 -12 142 -52 192 -59 28 -4 52 -11
55 -15 3 -5 55 -23 115 -40 61 -18 117 -38 125 -45 8 -7 35 -15 60 -19 24 -4
49 -11 55 -15 5 -5 50 -21 99 -36 49 -15 103 -35 120 -45 17 -9 54 -20 81 -24
28 -4 59 -16 70 -25 11 -10 49 -26 84 -35 35 -10 77 -26 95 -37 17 -10 38 -19
47 -19 9 0 38 -12 65 -26 27 -15 72 -33 99 -41 28 -8 66 -23 85 -33 51 -26
175 -80 184 -80 7 0 167 -78 206 -100 35 -19 128 -60 138 -60 7 0 12 -4 12 -9
0 -5 18 -16 40 -25 22 -9 40 -19 40 -24 0 -4 29 -17 64 -30 35 -13 72 -32 81
-43 10 -10 24 -19 30 -19 7 0 18 -7 26 -16 7 -8 45 -32 86 -51 40 -20 73 -40
73 -45 0 -4 6 -8 14 -8 8 0 27 -11 43 -24 15 -13 47 -33 70 -45 23 -11 46 -27
50 -34 4 -7 19 -18 33 -25 14 -7 48 -26 75 -42 28 -17 56 -33 63 -37 8 -3 26
-17 40 -30 46 -42 56 -49 99 -71 43 -22 55 -31 113 -83 17 -16 36 -29 41 -29
6 0 22 -11 36 -24 14 -13 37 -30 52 -37 14 -7 40 -26 56 -42 94 -89 161 -147
171 -147 7 0 43 -29 80 -65 38 -35 74 -65 80 -65 7 0 24 -16 38 -35 35 -46 78
-85 92 -85 7 0 20 -13 31 -29 10 -16 42 -48 70 -71 29 -23 60 -57 69 -76 9
-19 23 -34 30 -34 8 0 14 -5 14 -10 0 -6 11 -15 24 -20 13 -5 27 -18 31 -29 3
-12 10 -21 15 -21 5 0 31 -23 57 -51 26 -28 74 -79 107 -113 32 -33 65 -76 72
-93 8 -18 25 -39 37 -48 13 -8 34 -36 46 -61 13 -25 33 -49 46 -54 12 -5 27
-21 33 -37 6 -15 27 -46 47 -68 19 -22 38 -50 41 -62 4 -13 10 -23 16 -23 5 0
14 -13 19 -30 6 -16 19 -32 29 -35 11 -3 32 -32 47 -63 15 -31 34 -64 43 -72
8 -9 26 -36 39 -60 13 -25 31 -51 40 -58 15 -12 33 -41 65 -107 8 -16 23 -39
33 -50 10 -11 27 -39 37 -62 10 -23 26 -50 35 -60 9 -10 25 -36 36 -58 11 -22
32 -55 48 -73 15 -18 27 -38 27 -44 0 -6 8 -20 17 -31 17 -18 55 -88 149 -272
53 -105 66 -128 81 -146 6 -8 13 -30 17 -49 3 -19 13 -48 21 -63 21 -42 45
-124 37 -132 -4 -4 -5 -33 -4 -66 3 -39 0 -59 -7 -59 -7 0 -14 6 -17 14 -3 8
-23 33 -45 57 -22 23 -51 67 -65 96 -15 29 -30 56 -35 59 -5 3 -18 25 -29 50
-11 24 -25 44 -30 44 -6 0 -10 7 -10 16 0 16 -38 76 -52 82 -4 2 -8 9 -8 16 0
7 -29 57 -65 112 -36 54 -65 107 -65 117 0 9 -7 17 -15 17 -8 0 -15 4 -15 9 0
15 -73 135 -87 144 -7 4 -13 15 -13 23 0 8 -7 17 -15 20 -8 4 -15 12 -15 19 0
7 -16 30 -35 51 -19 21 -35 44 -35 51 0 7 -4 13 -10 13 -5 0 -10 4 -10 10 0 8
-87 128 -148 205 -4 6 -33 44 -64 85 -31 41 -78 100 -105 130 -26 31 -59 71
-73 89 -14 19 -47 59 -75 91 -27 31 -72 83 -100 115 -190 220 -588 608 -801
781 -22 18 -68 56 -104 85 -83 69 -197 160 -225 179 -25 17 -97 70 -139 102
-55 43 -355 248 -362 248 -3 0 -32 18 -64 40 -32 22 -61 40 -64 40 -3 0 -38
21 -78 48 -90 59 -90 59 -108 66 -8 3 -37 19 -65 36 -27 16 -88 50 -135 75
-47 24 -96 51 -110 59 -32 20 -416 206 -424 206 -3 0 -29 11 -58 24 -140 64
-387 162 -558 221 -154 53 -372 123 -415 134 -22 5 -95 25 -162 45 -239 68
-646 152 -948 196 -1098 157 -2182 101 -3230 -167 -235 -59 -707 -207 -830
-258 -16 -7 -73 -29 -125 -50 -231 -92 -510 -216 -671 -300 -26 -13 -98 -50
-160 -83 -560 -290 -1139 -698 -1674 -1180 -221 -199 -588 -586 -775 -817 -36
-44 -67 -82 -71 -85 -23 -21 -230 -301 -344 -467 -191 -278 -314 -477 -471
-768 -26 -49 -63 -117 -81 -150 -18 -33 -38 -72 -45 -87 -7 -16 -16 -28 -21
-28 -4 0 -17 -19 -27 -42 -15 -34 -20 -39 -26 -25 -3 10 -12 16 -20 13 -12 -5
-28 9 -49 44 -5 9 -18 29 -29 43 -29 42 -61 188 -46 215 5 9 12 38 15 64 3 26
10 50 16 53 5 4 9 14 9 24 0 10 12 28 26 42 14 13 35 44 46 69 51 115 61 136
69 150 5 8 14 26 20 40 7 14 33 70 60 125 27 55 55 116 63 136 7 20 41 84 75
142 34 58 61 111 61 116 0 6 4 11 8 11 5 0 16 18 25 39 10 22 36 66 57 98 22
32 40 63 40 70 0 6 7 19 16 27 24 25 84 117 84 130 0 7 11 22 25 34 14 12 25
27 25 32 0 6 9 20 20 32 11 12 33 49 49 82 27 56 53 89 95 124 9 7 16 21 16
30 0 17 20 42 82 99 19 17 43 52 52 77 10 25 22 46 27 46 14 0 89 63 89 75 1
17 48 65 75 75 14 5 25 15 25 22 1 15 31 53 47 59 17 6 93 78 93 88 0 9 49 54
86 79 36 24 39 27 50 47 6 11 28 29 50 40 21 11 77 57 124 102 112 109 114
110 154 127 23 10 35 22 38 38 2 16 10 24 29 26 15 2 31 13 38 26 13 23 69 63
84 58 4 -1 7 5 7 13 0 9 12 21 27 28 15 6 50 35 78 63 27 29 60 55 73 59 12 3
22 12 22 20 0 7 18 30 40 51 22 21 40 44 40 50 0 7 15 17 33 23 22 7 44 26 60
52 34 52 34 59 -4 59 -27 0 -30 -2 -19 -15 17 -20 5 -32 -15 -15 -8 7 -15 8
-15 3 0 -4 -17 -17 -37 -28 -21 -11 -42 -25 -48 -31 -5 -6 -30 -22 -54 -35
-47 -25 -62 -36 -123 -93 -21 -18 -44 -36 -52 -39 -21 -8 -134 -97 -177 -139
-21 -21 -42 -38 -46 -38 -5 0 -33 -25 -63 -55 -30 -30 -60 -55 -67 -55 -6 0
-21 -16 -33 -35 -12 -19 -26 -35 -32 -35 -12 0 -198 -187 -198 -200 0 -5 -13
-16 -30 -25 -16 -9 -30 -22 -30 -30 0 -8 -13 -24 -30 -37 -16 -12 -30 -27 -30
-33 0 -6 -14 -16 -31 -22 -19 -8 -34 -23 -42 -42 -6 -17 -19 -34 -29 -37 -9
-3 -27 -22 -39 -42 -13 -20 -53 -66 -91 -101 -37 -35 -68 -70 -68 -77 0 -7
-13 -20 -30 -29 -16 -8 -49 -41 -72 -73 -24 -31 -46 -58 -50 -60 -4 -2 -24
-21 -45 -43 -21 -22 -54 -57 -74 -77 -20 -20 -38 -42 -40 -49 -6 -16 -88 -103
-99 -103 -5 0 -16 -15 -25 -33 -8 -18 -29 -41 -45 -50 -16 -10 -33 -29 -36
-43 -3 -13 -10 -24 -14 -24 -4 0 -20 -19 -36 -42 -16 -24 -36 -48 -45 -55 -8
-6 -28 -31 -45 -55 -16 -23 -41 -53 -56 -66 -16 -13 -28 -29 -28 -36 0 -7 -13
-25 -30 -41 -16 -16 -30 -34 -30 -40 0 -6 -8 -18 -17 -27 -10 -9 -30 -33 -45
-54 -15 -22 -54 -76 -87 -122 -34 -45 -61 -84 -61 -87 0 -2 -13 -24 -30 -48
-16 -25 -30 -49 -30 -53 0 -4 -10 -24 -23 -43 -13 -20 -39 -61 -59 -91 -20
-30 -48 -80 -63 -110 -15 -30 -31 -62 -35 -70 -9 -14 -64 -127 -134 -275 -30
-61 -54 -117 -111 -250 -7 -16 -18 -46 -25 -65 -7 -19 -21 -53 -31 -76 -11
-22 -19 -49 -19 -60 0 -11 -4 -24 -9 -29 -5 -6 -16 -37 -26 -70 -9 -33 -31
-91 -49 -128 -33 -73 -72 -110 -165 -157 -51 -26 -144 -30 -416 -17 -152 7
-173 6 -203 -10 -25 -14 -36 -15 -51 -6 -11 7 -22 8 -27 3 -20 -20 -202 -38
-362 -35 -89 1 -162 -2 -162 -7 0 -4 11 -8 24 -8 14 0 27 -4 30 -8 3 -5 -73
-8 -169 -8 -153 1 -199 -4 -184 -18 8 -8 363 -12 444 -6 43 4 81 12 82 17 4
11 52 5 69 -8 6 -5 55 -6 110 -3 54 2 270 6 479 8 409 3 842 26 995 53 52 9
107 16 123 17 44 2 39 19 -18 61 -22 17 -44 36 -48 42 -4 7 -16 13 -27 13 -12
0 -21 10 -25 31 -4 17 -13 33 -21 36 -18 7 -37 74 -24 87 6 6 10 13 10 17 0
12 -111 2 -124 -11 -12 -12 -36 -13 -36 -2 0 12 62 32 98 32 17 0 34 5 37 10
3 6 22 10 42 10 19 0 52 8 72 19 46 23 73 35 141 62 67 26 258 41 810 63 2544
104 6017 155 8225 121 1458 -22 2827 -51 3745 -80 85 -3 234 -7 330 -10 315
-10 875 -33 1330 -55 286 -14 332 -22 438 -76 48 -24 94 -53 104 -64 9 -11 20
-20 26 -20 5 0 21 -17 36 -39 15 -21 54 -59 87 -85 47 -37 58 -51 55 -69 -3
-12 -8 -36 -11 -53 -8 -38 -10 -37 120 -58 128 -21 326 -26 499 -11 82 7 156
11 163 8 7 -3 13 2 13 10 0 21 -30 26 -92 15 -91 -17 -168 -5 -245 38 -79 43
-168 108 -200 144 -12 14 -24 41 -28 60 -6 31 -22 75 -112 310 -40 104 -73
180 -155 360 -56 124 -186 377 -262 511 -113 199 -287 472 -404 631 -42 57
-206 271 -220 288 -7 8 -41 49 -75 91 -70 86 -159 191 -168 199 -3 3 -50 56
-104 119 -250 290 -602 637 -925 912 -73 63 -361 294 -404 324 -15 11 -47 34
-70 51 -22 17 -79 57 -126 89 -47 33 -89 63 -95 67 -5 5 -67 46 -136 91 -70
45 -133 87 -141 92 -71 48 -117 78 -207 132 -58 35 -106 63 -108 63 -2 0 -21
11 -41 25 -20 14 -43 25 -51 25 -8 0 -22 7 -32 16 -26 23 -113 70 -349 186
-289 142 -311 152 -495 228 -44 18 -89 37 -100 41 -57 25 -251 99 -258 99 -5
0 -23 6 -40 14 -18 8 -41 16 -52 19 -11 3 -60 20 -110 37 -80 28 -181 59 -395
122 -178 51 -497 128 -705 168 -287 55 -363 67 -615 95 -30 3 -94 10 -142 15
-325 36 -946 56 -1233 40z m1955 -776 c380 -76 754 -178 1130 -309 130 -46
403 -153 490 -193 36 -16 99 -44 140 -62 102 -44 466 -228 565 -285 44 -26
105 -60 135 -77 334 -187 839 -546 1144 -813 156 -137 169 -148 251 -225 449
-419 868 -915 1196 -1415 104 -158 259 -412 259 -424 0 -4 9 -20 21 -35 29
-37 301 -577 294 -584 -6 -6 -897 18 -904 24 -8 7 217 4 540 -7 174 -6 324 -9
333 -7 14 2 -3 43 -88 213 -146 292 -230 446 -248 453 -4 2 -8 8 -8 14 0 29
-429 686 -469 718 -3 3 -25 30 -48 60 -22 30 -52 68 -65 84 -12 16 -52 65 -87
110 -36 45 -92 113 -125 151 -34 39 -78 91 -99 117 -51 64 -456 471 -589 592
-94 86 -273 236 -427 358 -29 24 -59 48 -65 53 -6 6 -27 22 -46 35 -19 13 -37
27 -40 30 -3 4 -27 22 -54 41 -27 19 -76 54 -110 77 -148 106 -595 392 -612
392 -2 0 -52 28 -112 62 -139 80 -572 292 -732 358 -69 28 -139 58 -157 66
-17 8 -37 14 -45 14 -8 0 -18 4 -24 9 -14 13 -352 133 -499 176 -49 15 -99 31
-110 35 -26 11 -247 71 -400 108 -66 17 -217 48 -335 71 -118 23 -233 46 -255
51 -103 24 93 -4 255 -36z m-3874 -163 c-3 -5 -21 -12 -39 -15 -52 -10 -404
-127 -582 -194 -349 -131 -802 -341 -1060 -493 -49 -29 -103 -60 -120 -68 -43
-24 -228 -134 -240 -144 -5 -4 -39 -26 -75 -49 -84 -53 -142 -91 -155 -101 -5
-5 -54 -39 -108 -77 -116 -81 -145 -102 -161 -115 -6 -5 -29 -22 -52 -38 -22
-15 -49 -35 -60 -45 -10 -9 -39 -33 -64 -52 -25 -19 -47 -37 -50 -40 -3 -3
-52 -43 -110 -89 -58 -46 -109 -89 -115 -96 -5 -6 -46 -42 -90 -80 -133 -114
-182 -162 -360 -341 -167 -169 -296 -305 -351 -374 -16 -19 -48 -55 -71 -80
-24 -25 -43 -51 -43 -57 0 -7 -4 -13 -9 -13 -5 0 -37 -37 -72 -82 -35 -46 -68
-87 -74 -93 -6 -5 -24 -28 -40 -50 -16 -22 -32 -42 -35 -45 -4 -3 -45 -59 -93
-125 -47 -66 -91 -126 -97 -132 -32 -37 -380 -584 -380 -598 0 -2 -14 -28 -31
-57 -51 -85 -87 -152 -181 -338 l-89 -175 37 -3 c20 -2 202 4 404 12 201 9
411 15 466 15 54 -1 -88 -10 -316 -20 -595 -25 -610 -26 -610 -20 0 6 173 349
213 421 127 233 208 366 390 640 92 139 291 409 431 585 214 268 689 759 956
989 134 115 361 297 475 381 44 32 112 82 150 110 39 29 142 99 230 157 601
393 1188 676 1870 903 301 99 323 106 311 86z m4504 -4120 c894 -18 2069 -46
2590 -61 190 -6 527 -15 750 -21 223 -6 479 -14 570 -18 163 -8 163 -8 50 -9
-63 -1 -324 5 -580 13 -810 25 -2252 61 -3075 75 -2184 39 -3020 39 -5315 1
-322 -6 -769 -15 -995 -21 -732 -19 -1794 -50 -2040 -60 -249 -10 -441 -13
-434 -6 2 2 155 9 339 15 184 6 454 16 600 21 146 6 443 15 660 20 217 6 571
15 785 20 594 15 1441 31 2030 40 696 10 3409 4 4065 -9z"/>
<path d="M2434 14183 c-4 -16 -26 -68 -49 -118 -23 -49 -46 -101 -50 -115 -7
-26 -42 -109 -80 -195 -13 -27 -30 -73 -38 -102 -9 -28 -21 -62 -28 -75 -26
-48 -169 -490 -182 -565 l-6 -31 67 -6 c114 -10 545 -15 470 -6 -37 5 -71 11
-77 14 -10 6 9 56 21 56 4 0 5 6 2 14 -8 22 24 46 62 46 19 0 34 4 34 10 0 5
-6 7 -12 5 -25 -8 -82 30 -102 67 -11 22 -28 38 -40 40 -13 2 -22 12 -24 26
-2 13 -14 28 -28 34 -13 6 -24 15 -24 20 0 4 -9 17 -20 28 -16 16 -18 24 -8
39 14 23 4 51 -19 51 -14 0 -18 9 -20 45 -1 25 2 45 7 45 13 0 13 37 0 45 -7
4 -6 13 1 27 6 11 9 34 6 51 -2 16 3 43 11 59 8 16 11 32 8 35 -3 3 1 11 9 17
9 7 21 46 29 101 8 50 26 117 40 150 14 33 26 67 26 75 0 8 9 39 20 68 22 59
24 72 10 72 -5 0 -13 -12 -16 -27z"/>
<path d="M6302 11620 c-12 -5 -26 -18 -30 -29 -4 -11 -5 -621 -2 -1356 l5
-1337 24 -19 c22 -18 43 -19 350 -19 186 0 341 4 362 10 30 8 38 17 48 50 16
53 15 2631 -1 2666 -6 12 -21 27 -35 33 -30 14 -687 14 -721 1z"/>
<path d="M2529 11588 l-24 -23 5 -1348 c5 -1320 5 -1349 24 -1363 16 -11 77
-14 327 -14 294 0 307 1 332 21 15 11 31 38 38 61 13 51 2 1843 -12 1898 -11
42 -12 110 -1 110 4 0 28 -35 53 -78 25 -42 75 -124 111 -182 36 -58 147 -238
248 -400 100 -162 218 -353 262 -425 44 -71 90 -146 102 -165 13 -19 47 -73
76 -120 29 -47 62 -101 75 -120 12 -19 62 -100 110 -180 219 -358 246 -387
386 -410 38 -6 275 -10 587 -10 510 0 522 0 542 20 20 20 20 29 18 1366 -3
1319 -3 1346 -22 1360 -16 11 -79 14 -337 14 -287 0 -319 -2 -338 -17 l-22
-18 1 -1007 c0 -555 -3 -1008 -7 -1008 -5 0 -44 56 -88 125 -44 69 -115 180
-157 246 -43 66 -78 122 -78 125 0 2 -15 26 -33 52 -18 26 -64 97 -101 157
-38 61 -97 153 -130 205 -34 52 -125 195 -201 318 -360 572 -385 612 -432 674
-53 70 -94 102 -165 131 -51 20 -69 21 -589 25 l-536 3 -24 -23z"/>
<path d="M8345 11594 c-22 -2 -76 -9 -120 -15 -305 -40 -508 -192 -596 -446
-64 -184 -66 -582 -4 -764 70 -208 248 -336 554 -398 73 -15 454 -54 1046
-106 437 -39 464 -42 489 -59 49 -31 60 -62 64 -170 5 -118 -6 -141 -73 -156
-23 -6 -470 -10 -1061 -10 -809 0 -1024 -3 -1038 -13 -15 -11 -17 -36 -14
-294 3 -260 4 -283 22 -302 l19 -21 1086 0 c1138 0 1216 3 1382 45 232 60 379
212 438 455 40 163 37 518 -6 683 -53 210 -188 352 -406 429 -179 64 -319 84
-1012 148 -121 11 -256 25 -300 30 -44 5 -138 14 -210 21 -155 14 -186 24
-208 72 -17 36 -23 136 -11 196 13 65 -47 62 1040 66 930 4 989 6 1006 22 15
16 17 44 18 273 1 140 1 263 0 272 0 10 -9 22 -21 28 -14 8 -316 12 -1032 15
-557 2 -1030 1 -1052 -1z"/>
<path d="M18166 11573 c-31 -3 -54 -11 -63 -21 -16 -22 -19 -2662 -3 -2693 10
-18 25 -19 335 -19 310 0 325 1 335 19 7 13 10 354 10 1035 0 862 2 1016 14
1016 8 0 16 -6 19 -14 3 -8 75 -125 159 -260 84 -136 158 -254 163 -264 13
-22 170 -276 200 -322 12 -19 95 -154 185 -300 90 -146 179 -291 199 -323 20
-31 65 -105 101 -163 202 -328 228 -359 319 -396 56 -23 60 -23 611 -26 517
-3 555 -2 567 14 10 14 13 289 13 1355 0 1233 -1 1338 -17 1350 -13 11 -76 14
-327 12 -306 -2 -311 -2 -328 -24 -17 -20 -18 -84 -18 -1045 0 -611 -4 -1024
-9 -1024 -5 0 -80 114 -167 253 -87 138 -239 380 -337 537 -99 157 -209 332
-245 390 -36 58 -79 128 -97 155 -18 28 -94 149 -170 270 -176 280 -217 342
-256 383 -99 105 -151 112 -719 110 -234 -1 -447 -3 -474 -5z"/>
<path d="M11575 11554 c-333 -52 -527 -226 -590 -529 -36 -174 -28 -525 14
-648 63 -183 182 -289 407 -363 127 -41 270 -60 814 -109 96 -8 245 -22 330
-30 85 -8 236 -22 335 -30 197 -17 213 -23 250 -86 16 -28 20 -52 20 -135 -1
-112 -14 -146 -63 -165 -18 -7 -361 -10 -1069 -7 -573 1 -1045 -1 -1050 -5
-13 -13 -16 -526 -3 -569 9 -33 15 -37 53 -43 23 -4 539 -5 1147 -2 1206 4
1168 3 1355 64 233 75 357 247 400 553 27 194 14 435 -31 578 -77 240 -261
383 -579 447 -118 24 -282 43 -675 80 -85 8 -218 22 -295 30 -77 8 -189 19
-250 25 -294 28 -322 36 -345 99 -14 39 -15 167 -1 203 23 59 -45 55 1038 60
785 4 996 8 1008 18 13 11 15 50 13 284 l-3 270 -25 13 c-38 19 -2078 16
-2205 -3z"/>
<path d="M15510 11560 c-201 -7 -224 -14 -265 -83 -27 -48 -113 -240 -315
-707 -72 -168 -172 -397 -222 -510 -50 -113 -113 -257 -140 -320 -28 -63 -93
-212 -145 -330 -82 -184 -133 -297 -288 -635 -34 -73 -38 -97 -21 -120 14 -19
24 -20 393 -17 268 3 382 7 392 15 12 10 35 56 73 147 5 14 43 104 83 200 l73
175 773 0 773 0 42 -105 c24 -58 49 -121 58 -140 8 -19 26 -64 41 -100 45
-112 72 -165 90 -180 15 -13 78 -15 379 -16 387 -1 426 1 426 22 0 15 -44 129
-83 214 -14 30 -60 134 -102 230 -42 96 -96 219 -121 272 -24 54 -44 99 -44
102 0 2 -19 44 -41 93 -23 48 -56 122 -74 163 -32 76 -136 308 -182 410 -22
48 -277 625 -353 800 -16 36 -50 115 -75 177 -61 147 -94 196 -148 218 -71 29
-527 41 -977 25z m509 -609 c20 -11 18 -7 145 -328 53 -132 134 -334 181 -449
47 -114 84 -208 83 -210 -5 -5 -123 -6 -590 -5 -345 1 -458 4 -458 13 0 10 72
188 195 483 25 61 78 189 117 285 39 96 80 185 91 198 19 20 29 22 119 22 55
0 107 -4 117 -9z"/>
</g>
</svg>
