<?xml version="1.0" standalone="no"?>
<!DOCTYPE svg PUBLIC "-//W3C//DTD SVG 20010904//EN"
 "http://www.w3.org/TR/2001/REC-SVG-20010904/DTD/svg10.dtd">
<svg version="1.0" xmlns="http://www.w3.org/2000/svg"
 width="600.000000pt" height="600.000000pt" viewBox="0 0 600.000000 600.000000"
 preserveAspectRatio="xMidYMid meet">
<metadata>
Created by potrace 1.16, written by Peter Selinger 2001-2019
</metadata>
<g transform="translate(0.000000,600.000000) scale(0.100000,-0.100000)"
fill="#ffffff" stroke="none">
<path d="M3495 4633 c-26 -14 -714 -422 -951 -564 -44 -27 -89 -57 -98 -68
-44 -49 -45 -63 -46 -743 0 -357 3 -648 7 -648 4 0 76 41 160 91 l153 91 0
504 0 504 28 29 c23 24 430 274 530 325 l32 17 0 -173 c0 -145 -3 -179 -18
-207 -21 -42 -16 -39 -289 -201 l-223 -132 0 -150 c0 -130 2 -149 15 -144 52
20 707 421 728 445 51 61 52 72 52 564 0 396 -2 459 -15 467 -20 13 -30 12
-65 -7z"/>
<path d="M3821 1299 c-98 -19 -168 -106 -158 -195 8 -72 43 -107 171 -168 127
-61 172 -101 161 -145 -20 -85 -180 -104 -251 -30 -15 16 -32 29 -37 29 -12 0
-77 -51 -77 -60 0 -4 18 -26 41 -48 54 -55 119 -76 213 -70 129 9 205 71 214
174 8 102 -32 149 -195 226 -116 55 -133 68 -133 108 0 44 49 80 110 80 40 0
55 -5 83 -30 19 -16 38 -30 41 -30 12 0 66 43 66 53 0 5 -9 22 -21 38 -40 57
-138 86 -228 68z"/>
<path d="M4451 1289 c-5 -13 -75 -166 -155 -339 -80 -173 -146 -318 -146 -322
0 -4 24 -8 53 -8 l54 0 23 50 23 50 162 0 162 0 21 -50 21 -50 55 0 c31 0 56
2 56 4 0 5 -311 680 -316 685 -2 2 -8 -7 -13 -20z m79 -358 c28 -61 50 -113
50 -116 0 -3 -52 -5 -115 -5 -63 0 -115 4 -115 9 0 5 16 44 36 87 20 44 45 99
56 124 23 52 17 59 88 -99z"/>
<path d="M1220 955 l0 -335 50 0 50 0 0 114 0 113 95 6 c81 5 104 10 148 35
125 70 152 221 59 324 -61 67 -95 78 -259 78 l-143 0 0 -335z m316 193 c26
-29 34 -46 34 -76 0 -78 -51 -112 -170 -112 l-80 0 0 116 0 116 91 -4 c90 -3
91 -3 125 -40z"/>
<path d="M1780 956 l0 -336 60 0 60 0 0 285 0 285 70 0 c106 0 163 -31 175
-96 3 -16 0 -40 -7 -54 -18 -33 -75 -70 -109 -70 -29 0 -29 -1 -29 -60 0 -58
2 -64 77 -175 l76 -115 69 0 c37 0 68 2 68 5 0 3 -26 45 -58 93 -33 48 -71
106 -85 129 l-27 42 35 17 c77 36 126 136 105 213 -15 57 -50 102 -104 136
-49 30 -51 30 -213 33 l-163 3 0 -335z"/>
<path d="M2392 1038 c3 -286 7 -301 88 -370 105 -90 283 -73 361 35 52 71 59
117 59 364 l0 223 -55 0 -55 0 0 -234 c0 -225 -1 -234 -22 -266 -37 -54 -73
-75 -127 -74 -60 1 -106 32 -132 88 -16 36 -19 68 -19 264 l0 222 -51 0 -50 0
3 -252z"/>
<path d="M3080 955 l0 -335 55 0 55 0 0 93 c0 87 2 95 28 126 l27 33 95 -126
95 -125 63 -1 c34 0 62 2 62 4 0 2 -56 77 -125 166 -69 90 -125 167 -125 171
0 5 52 81 115 169 l115 160 -63 0 -62 -1 -110 -155 -110 -154 -3 155 -3 155
-54 0 -55 0 0 -335z"/>
</g>
</svg>
