<?xml version="1.0" standalone="no"?>
<!DOCTYPE svg PUBLIC "-//W3C//DTD SVG 20010904//EN"
 "http://www.w3.org/TR/2001/REC-SVG-20010904/DTD/svg10.dtd">
<svg version="1.0" xmlns="http://www.w3.org/2000/svg"
 width="600.000000pt" height="600.000000pt" viewBox="0 0 600.000000 600.000000"
 preserveAspectRatio="xMidYMid meet">
<metadata>
Created by potrace 1.16, written by Peter Selinger 2001-2019
</metadata>
<g transform="translate(0.000000,600.000000) scale(0.100000,-0.100000)"
fill="#ffffff" stroke="none">
<path d="M1704 3033 c2 -10 12 -82 22 -160 10 -79 19 -142 20 -140 3 3 44 290
44 307 0 5 -21 10 -46 10 -38 0 -45 -3 -40 -17z"/>
<path d="M1583 3029 c-18 -5 -33 -12 -33 -14 0 -8 102 -280 108 -285 5 -6 -6
217 -14 273 -6 39 -10 41 -61 26z"/>
<path d="M1322 2903 l-31 -28 110 -114 110 -114 -70 142 c-39 77 -75 141 -79
141 -4 0 -22 -12 -40 -27z"/>
<path d="M3515 2739 c-64 -18 -108 -96 -91 -163 10 -39 55 -85 94 -96 46 -12
96 0 101 25 2 14 -1 16 -15 10 -59 -24 -112 -7 -140 47 -44 85 40 183 129 149
23 -9 27 -8 27 8 0 13 -10 20 -31 25 -36 7 -34 7 -74 -5z"/>
<path d="M3955 2647 c-77 -165 -78 -167 -60 -167 8 0 23 16 32 35 16 34 18 35
75 35 57 0 59 -1 75 -35 15 -31 43 -49 43 -27 0 5 -26 65 -59 135 l-58 127
-48 -103z"/>
<path d="M2860 2611 c0 -110 2 -131 15 -131 12 0 15 13 15 55 0 30 4 55 8 55
5 0 26 -25 47 -55 24 -35 45 -55 57 -55 17 0 15 6 -16 49 -20 27 -36 51 -36
54 0 4 11 17 25 31 28 28 33 71 11 101 -9 13 -30 20 -70 23 l-56 4 0 -131z"/>
<path d="M3092 2628 c-67 -149 -67 -148 -50 -148 8 0 22 16 31 35 16 34 18 35
77 35 59 0 60 -1 74 -35 9 -20 22 -35 31 -35 9 0 15 4 13 9 -16 44 -114 251
-119 251 -3 0 -28 -51 -57 -112z"/>
<path d="M3667 2733 c-2 -5 -3 -62 -3 -128 1 -106 3 -120 19 -123 15 -3 17 5
17 62 l0 66 60 0 60 0 0 -65 c0 -51 3 -65 15 -65 13 0 15 21 15 130 0 109 -2
130 -15 130 -12 0 -15 -13 -15 -55 l0 -55 -60 0 -60 0 0 55 c0 41 -4 55 -14
55 -8 0 -17 -3 -19 -7z"/>
<path d="M4150 2610 l0 -130 49 0 c87 0 133 68 81 120 -16 16 -18 25 -10 40
16 29 12 49 -15 75 -18 18 -35 25 -65 25 l-40 0 0 -130z"/>
<path d="M4340 2645 c0 -110 14 -147 59 -163 44 -16 97 2 116 38 21 41 21 220
0 220 -12 0 -15 -17 -15 -91 0 -96 -8 -122 -41 -140 -28 -14 -75 5 -83 34 -3
12 -6 61 -6 110 0 71 -3 87 -15 87 -12 0 -15 -17 -15 -95z"/>
<path d="M4580 2610 c0 -109 2 -130 15 -130 12 0 15 13 15 55 0 30 4 55 8 55
5 0 26 -25 47 -55 24 -36 44 -55 57 -55 15 0 18 4 11 13 -5 6 -23 30 -41 53
l-31 41 29 22 c23 16 30 30 30 56 0 46 -37 75 -96 75 l-44 0 0 -130z"/>
<path d="M2303 2557 c-72 -45 -130 -83 -129 -84 2 -2 265 71 293 81 9 4 8 15
-4 45 -9 23 -19 41 -22 40 -3 0 -65 -37 -138 -82z"/>
<path d="M1529 2541 c20 -20 21 -31 21 -240 0 -206 -1 -220 -21 -245 l-20 -26
105 0 105 0 -24 25 c-23 23 -25 31 -25 130 0 95 2 105 18 105 12 0 37 -27 68
-72 27 -40 68 -98 91 -130 l43 -58 72 0 72 0 -26 28 c-14 15 -60 74 -102 132
l-76 105 47 21 c59 26 82 51 89 96 8 49 -17 93 -69 120 -38 21 -58 23 -215 26
l-174 4 21 -21z m283 -20 c31 -28 33 -33 33 -96 0 -63 -2 -68 -33 -96 -27 -25
-41 -29 -87 -29 l-55 0 0 113 c0 75 4 117 12 125 7 7 31 12 55 12 33 0 50 -7
75 -29z"/>
<path d="M1990 2450 c0 -92 -2 -110 -15 -110 -9 0 -39 -13 -68 -30 l-52 -30
68 0 67 0 0 -86 c0 -71 4 -91 21 -115 11 -16 25 -29 30 -29 5 0 9 104 9 255
l0 255 -30 0 -30 0 0 -110z"/>
<path d="M2347 2443 c-81 -31 -146 -57 -145 -58 6 -5 307 21 313 27 5 5 -12
89 -18 88 -1 -1 -69 -26 -150 -57z"/>
<path d="M2345 2325 c-77 -12 -138 -23 -135 -24 5 -1 313 -41 318 -41 1 0 2
20 2 45 0 54 13 52 -185 20z"/>
<path d="M2349 2159 c84 -28 157 -47 161 -42 4 4 10 25 13 46 l6 37 -58 0
c-32 0 -107 2 -167 5 l-109 5 154 -51z"/>
<path d="M1260 2194 c-8 -1 -68 -6 -133 -9 l-118 -7 6 -42 c4 -22 9 -43 11
-45 3 -3 295 98 303 105 5 5 -47 3 -69 -2z"/>
<path d="M2857 2142 c-3 -4 -4 -54 -4 -111 2 -73 6 -106 15 -108 9 -3 12 11
12 51 l0 56 55 0 55 0 0 -55 c0 -42 3 -55 15 -55 12 0 15 19 15 115 0 96 -3
115 -15 115 -11 0 -15 -12 -15 -45 l0 -45 -55 0 -55 0 0 45 c0 40 -11 58 -23
37z"/>
<path d="M3084 2116 c-29 -29 -34 -41 -34 -81 0 -40 5 -52 34 -81 28 -28 42
-34 76 -34 103 0 153 83 107 178 -15 32 -57 52 -108 52 -33 0 -47 -6 -75 -34z
m155 -22 c18 -22 22 -35 18 -67 -7 -48 -30 -75 -72 -83 -72 -13 -128 53 -104
123 21 66 110 81 158 27z"/>
<path d="M3430 2035 l0 -115 43 0 c62 0 109 29 126 77 29 82 -30 153 -126 153
l-43 0 0 -115z m133 54 c38 -47 4 -139 -52 -139 -11 0 -26 -3 -35 -6 -14 -5
-16 6 -16 83 0 49 2 92 6 95 11 11 80 -12 97 -33z"/>
<path d="M3710 2038 c0 -72 4 -118 10 -118 6 0 10 36 10 88 l1 87 83 -87 c46
-49 86 -88 89 -88 3 0 5 50 4 112 -2 79 -6 113 -14 115 -10 4 -13 -16 -13 -76
0 -45 -3 -81 -7 -81 -5 0 -43 37 -85 82 l-77 83 -1 -117z"/>
<path d="M3992 2137 c-103 -58 -62 -217 57 -217 48 0 96 38 107 83 6 26 5 27
-40 27 -25 0 -46 -4 -46 -10 0 -5 14 -10 30 -10 29 0 30 -1 19 -22 -42 -80
-143 -54 -156 39 -5 37 -2 45 25 73 35 34 69 39 113 13 36 -21 52 -8 20 18
-27 22 -94 25 -129 6z"/>
<path d="M4290 2036 c0 -96 3 -116 15 -116 11 0 15 12 15 50 0 48 1 50 28 50
36 0 62 28 62 67 0 39 -19 54 -75 61 l-45 5 0 -117z"/>
<path d="M1191 2071 c-74 -21 -136 -42 -138 -47 -2 -6 4 -27 12 -48 15 -36 17
-37 38 -23 12 7 69 42 127 77 58 35 109 67 115 71 15 14 -12 9 -154 -30z"/>
<path d="M2145 2042 c6 -5 62 -53 125 -107 l114 -97 23 28 c13 16 23 34 23 39
0 6 -61 40 -137 75 -153 73 -162 77 -148 62z"/>
<path d="M1267 1971 c-70 -38 -133 -73 -139 -79 -12 -12 19 -72 37 -72 5 1 62
50 125 110 63 60 113 109 110 109 -3 0 -63 -31 -133 -68z"/>
<path d="M1327 1873 l-128 -106 27 -29 c15 -15 31 -28 34 -28 4 0 32 35 62 78
31 42 75 103 98 135 22 31 40 57 38 57 -2 -1 -61 -49 -131 -107z"/>
<path d="M2120 1949 c0 -7 37 -61 83 -121 l82 -109 28 33 c15 18 26 36 25 40
-6 15 -218 168 -218 157z"/>
<path d="M2085 1783 c43 -84 81 -153 84 -153 9 1 61 48 61 56 0 5 -145 168
-208 234 -8 8 20 -54 63 -137z"/>
<path d="M1425 1801 c-55 -66 -100 -125 -100 -131 0 -6 15 -20 32 -31 l33 -21
9 24 c5 12 36 80 70 151 33 70 59 127 58 127 -1 0 -47 -54 -102 -119z"/>
<path d="M1954 1835 c8 -28 28 -97 45 -153 16 -57 32 -106 35 -109 7 -7 64 16
72 29 5 7 -132 244 -158 273 -4 5 -2 -13 6 -40z"/>
<path d="M1864 1800 c3 -30 8 -103 12 -162 8 -118 8 -119 72 -102 29 8 29 8
-38 185 -48 126 -50 131 -46 79z"/>
<path d="M1767 1820 c-6 -21 -37 -272 -37 -293 0 -4 22 -7 50 -7 49 0 49 0 44
28 -3 15 -15 88 -28 162 -16 92 -25 127 -29 110z"/>
</g>
</svg>
