<?xml version="1.0" standalone="no"?>
<!DOCTYPE svg PUBLIC "-//W3C//DTD SVG 20010904//EN"
 "http://www.w3.org/TR/2001/REC-SVG-20010904/DTD/svg10.dtd">
<svg version="1.0" xmlns="http://www.w3.org/2000/svg"
 width="1000.000000pt" height="1000.000000pt" viewBox="0 0 1000.000000 1000.000000"
 preserveAspectRatio="xMidYMid meet">
<metadata>
Created by potrace 1.16, written by Peter Selinger 2001-2019
</metadata>
<g transform="translate(0.000000,1000.000000) scale(0.100000,-0.100000)"
fill="#ffffff" stroke="none">
<path d="M0 5000 l0 -5000 5000 0 5000 0 0 5000 0 5000 -5000 0 -5000 0 0
-5000z m5064 4824 c17 -15 65 -58 107 -98 41 -39 133 -123 205 -186 71 -63
163 -147 204 -185 41 -39 95 -88 120 -109 25 -22 74 -67 110 -100 36 -34 117
-106 180 -162 63 -55 122 -109 130 -119 8 -10 42 -41 75 -68 33 -27 94 -82
136 -121 42 -39 134 -123 204 -186 71 -63 165 -149 210 -190 44 -42 123 -113
175 -159 52 -46 102 -91 110 -100 9 -9 51 -47 95 -85 44 -39 116 -104 161
-145 44 -42 141 -130 214 -196 74 -66 168 -151 210 -190 98 -90 303 -274 500
-451 359 -322 358 -321 386 -489 3 -16 9 -39 14 -50 5 -11 11 -33 15 -50 22
-104 24 -114 60 -240 22 -79 46 -177 62 -260 3 -16 9 -34 13 -40 4 -5 15 -46
24 -90 10 -44 22 -88 27 -97 5 -10 9 -31 9 -47 0 -17 4 -32 9 -35 5 -3 11 -23
15 -43 14 -94 19 -119 27 -128 8 -11 27 -80 35 -130 3 -16 9 -39 14 -50 5 -11
11 -33 14 -50 9 -54 17 -90 26 -110 5 -11 11 -33 13 -50 3 -16 12 -55 21 -85
9 -30 19 -72 23 -93 3 -21 10 -40 14 -43 5 -3 9 -20 9 -39 0 -19 5 -37 10 -40
6 -3 10 -24 10 -45 0 -21 5 -42 10 -45 6 -3 10 -21 10 -39 0 -17 4 -36 10 -42
5 -5 11 -26 14 -47 3 -21 9 -44 14 -50 5 -7 12 -29 16 -49 15 -94 19 -109 27
-114 5 -3 9 -17 9 -31 0 -15 4 -40 9 -57 5 -17 15 -51 21 -76 6 -25 16 -58 22
-75 5 -16 14 -48 19 -70 7 -37 13 -60 40 -167 5 -24 13 -56 15 -73 3 -16 9
-39 15 -50 10 -23 28 -95 36 -143 3 -18 9 -35 14 -38 5 -3 9 -23 9 -44 0 -21
5 -42 10 -45 6 -3 10 -21 10 -40 0 -19 4 -36 9 -39 5 -3 11 -20 14 -38 3 -18
13 -60 22 -93 9 -33 21 -78 26 -100 6 -22 14 -57 19 -77 21 -82 31 -125 39
-163 5 -22 14 -53 19 -70 6 -16 16 -50 22 -75 6 -25 16 -59 21 -76 5 -17 9
-42 9 -57 0 -14 5 -29 10 -32 6 -3 10 -21 10 -40 0 -19 5 -37 10 -40 6 -3 10
-20 10 -36 0 -17 5 -40 12 -52 6 -12 15 -40 20 -62 5 -22 13 -57 18 -77 20
-78 31 -124 40 -163 5 -22 14 -58 20 -80 6 -22 15 -56 19 -75 4 -19 12 -51 18
-70 6 -19 16 -51 22 -71 6 -19 11 -47 11 -62 0 -14 5 -29 10 -32 6 -3 10 -18
10 -32 0 -15 4 -40 9 -57 5 -17 17 -57 27 -88 14 -45 15 -59 5 -72 -11 -14
-92 -55 -241 -124 -36 -17 -114 -54 -175 -82 -60 -29 -144 -68 -185 -87 -41
-20 -118 -56 -170 -81 -52 -24 -126 -59 -165 -77 -38 -18 -101 -47 -140 -65
-38 -18 -148 -70 -243 -116 -95 -46 -175 -84 -177 -84 -3 0 -69 -31 -147 -68
-79 -38 -161 -77 -183 -87 -22 -10 -101 -47 -175 -83 -126 -60 -168 -80 -352
-166 -40 -18 -93 -43 -118 -55 l-46 -21 -994 2 -995 3 -3 889 c-1 514 2 894 7
899 5 5 33 -4 67 -21 89 -45 214 -102 225 -102 5 0 17 -4 27 -9 25 -13 59 -26
142 -57 41 -15 79 -31 85 -36 5 -4 19 -8 31 -8 13 0 26 -4 29 -10 3 -5 17 -10
31 -10 13 0 32 -4 42 -9 9 -5 37 -14 62 -21 25 -7 56 -17 70 -22 26 -11 83
-26 135 -34 17 -3 39 -9 50 -14 11 -5 38 -11 60 -15 22 -3 67 -10 100 -15 33
-5 103 -14 155 -20 52 -6 106 -14 120 -20 32 -12 267 -12 300 0 14 5 61 14
105 19 103 13 145 20 170 30 11 5 52 19 90 31 113 36 268 129 369 220 103 93
214 260 273 413 9 23 20 46 25 51 4 6 8 20 8 32 0 13 4 25 9 28 5 3 11 20 14
38 3 18 11 53 17 78 6 25 15 71 20 103 6 32 14 67 20 77 5 10 10 52 10 94 0
41 5 78 10 81 13 8 14 557 0 571 -5 5 -10 54 -11 109 -1 55 -5 107 -10 116 -4
9 -13 60 -19 115 -7 54 -16 126 -21 159 -6 33 -12 80 -15 105 -3 25 -9 54 -14
65 -5 11 -11 38 -14 60 -12 96 -31 183 -57 271 -5 17 -9 42 -9 57 0 14 -4 29
-10 32 -5 3 -10 17 -10 30 0 13 -4 34 -9 47 -5 13 -15 43 -22 68 -7 25 -18 56
-25 70 -7 14 -22 54 -34 90 -28 86 -39 114 -88 220 -17 36 -44 97 -60 135 -30
68 -91 189 -146 287 -130 234 -183 324 -280 473 -113 172 -162 245 -214 316
-26 36 -63 88 -82 115 -44 63 -115 155 -210 273 -41 51 -86 108 -100 126 -14
18 -70 86 -125 150 -55 65 -125 148 -156 184 -31 37 -184 195 -340 352 -248
248 -363 353 -573 524 -117 95 -310 234 -381 275 -172 99 -177 101 -205 95
-16 -3 -34 -13 -41 -21 -6 -8 -15 -14 -20 -14 -19 0 -219 -129 -352 -227 -124
-92 -347 -282 -526 -448 -147 -136 -459 -460 -554 -574 -21 -25 -51 -60 -67
-77 -32 -35 -169 -199 -240 -289 -25 -32 -57 -72 -72 -89 -25 -30 -172 -226
-218 -291 -12 -16 -51 -72 -88 -124 -37 -51 -71 -101 -77 -110 -5 -9 -20 -30
-32 -48 -13 -17 -23 -34 -23 -37 0 -2 -34 -55 -75 -117 -41 -61 -75 -113 -75
-115 0 -2 -22 -41 -48 -86 -27 -46 -62 -108 -78 -138 -16 -30 -32 -57 -35 -60
-7 -6 -178 -354 -204 -415 -9 -22 -26 -58 -36 -81 -10 -22 -19 -43 -19 -47 0
-4 -9 -26 -19 -50 -10 -23 -21 -51 -24 -62 -9 -35 -47 -139 -57 -157 -6 -10
-10 -29 -10 -42 0 -14 -5 -28 -10 -31 -6 -3 -10 -19 -10 -35 0 -16 -4 -31 -9
-34 -5 -3 -11 -23 -14 -43 -3 -21 -10 -58 -15 -83 -6 -25 -15 -72 -22 -105 -6
-33 -16 -64 -21 -70 -5 -5 -9 -30 -9 -55 0 -25 -4 -50 -9 -55 -5 -6 -12 -35
-15 -65 -3 -30 -9 -82 -15 -115 -5 -33 -14 -96 -20 -140 -6 -44 -15 -107 -21
-140 -5 -33 -10 -88 -10 -122 0 -34 -4 -65 -10 -68 -13 -8 -14 -607 -1 -649 5
-17 14 -67 20 -111 7 -44 16 -102 22 -130 5 -27 13 -65 16 -83 3 -18 9 -35 14
-38 5 -3 9 -15 9 -27 0 -48 100 -282 153 -359 57 -83 110 -147 163 -198 62
-58 138 -120 149 -120 4 0 25 -13 48 -28 35 -24 95 -51 202 -92 52 -19 94 -30
121 -30 17 0 34 -4 39 -9 28 -26 421 -51 485 -32 19 6 76 16 125 21 138 16
236 34 430 78 22 5 51 14 65 19 25 10 51 18 140 43 25 6 53 16 62 21 10 5 26
9 36 9 10 0 22 4 27 8 6 5 44 21 85 36 86 32 98 36 162 65 26 12 51 21 54 21
8 0 143 63 195 91 20 10 42 19 48 19 8 0 10 -241 9 -897 l-3 -898 -998 -3
-997 -2 -103 49 c-56 27 -138 65 -182 86 -44 21 -134 63 -200 95 -66 32 -151
72 -190 90 -38 17 -110 51 -160 75 -49 23 -115 54 -145 68 -30 14 -118 55
-195 92 -77 37 -162 77 -190 90 -160 74 -289 135 -480 225 -71 34 -155 73
-185 87 -138 63 -184 84 -315 148 -77 37 -147 70 -155 75 -17 8 -21 51 -7 95
5 17 13 47 18 68 5 20 14 56 20 80 5 23 14 60 19 82 5 22 13 56 19 75 27 94
44 158 48 193 3 20 9 40 14 43 5 3 9 18 9 34 0 16 4 32 10 35 5 3 10 24 10 45
0 21 4 41 9 44 5 3 11 23 14 43 7 52 26 125 36 138 5 5 11 26 14 45 14 81 19
106 27 125 4 11 15 52 24 90 26 113 38 159 47 180 4 11 10 34 14 50 3 17 11
50 16 75 6 25 13 60 16 78 3 18 9 35 14 38 5 3 9 16 9 30 0 14 5 35 12 47 6
12 13 37 15 56 2 19 8 40 12 46 5 5 11 26 14 45 14 82 19 106 27 125 5 11 11
34 13 50 3 17 12 55 21 85 21 69 36 126 42 165 3 17 9 39 14 50 5 11 11 34 15
50 3 17 10 48 14 70 5 22 16 65 25 95 9 30 19 70 22 88 4 18 11 35 15 38 5 3
9 23 9 44 0 21 5 42 10 45 6 3 10 21 10 40 0 19 4 36 9 39 5 3 11 23 14 43 2
21 12 63 22 93 9 30 19 72 22 93 3 20 9 40 14 43 5 3 9 20 9 39 0 19 4 36 9
39 5 3 11 23 14 43 7 48 23 111 62 248 10 33 20 77 22 98 3 20 9 40 14 43 5 3
9 20 9 39 0 19 4 36 9 39 5 3 11 23 14 43 9 60 23 116 35 140 7 12 12 35 12
52 0 16 5 33 10 36 6 3 10 21 10 40 0 19 4 36 9 39 5 3 11 23 14 43 7 46 35
160 68 273 6 19 14 53 19 75 5 22 13 58 19 80 6 22 13 54 16 70 4 17 10 39 14
50 14 33 33 108 38 148 3 20 9 40 14 43 5 3 9 20 9 39 0 19 5 37 10 40 6 3 10
18 10 32 0 15 4 40 9 57 19 62 41 142 46 171 4 18 26 49 54 75 52 50 199 184
276 251 28 24 82 74 120 110 39 37 86 79 105 95 19 15 69 60 110 98 41 39 135
125 209 191 73 66 168 152 210 191 42 39 99 91 126 114 28 23 82 72 120 109
39 36 107 97 150 136 44 38 109 97 145 131 36 34 88 81 115 104 28 23 84 75
126 114 42 39 129 118 194 176 66 58 155 139 200 180 44 42 100 93 125 114 25
22 77 69 115 105 39 36 104 95 145 131 41 35 107 94 145 131 39 36 90 84 115
105 25 21 81 72 125 114 45 41 137 125 205 185 68 61 161 145 206 188 46 42
90 77 99 77 10 0 31 -12 49 -26z"/>
</g>
</svg>
