<?xml version="1.0" standalone="no"?>
<!DOCTYPE svg PUBLIC "-//W3C//DTD SVG 20010904//EN"
 "http://www.w3.org/TR/2001/REC-SVG-20010904/DTD/svg10.dtd">
<svg version="1.0" xmlns="http://www.w3.org/2000/svg"
 width="595.000000pt" height="595.000000pt" viewBox="0 0 595.000000 595.000000"
 preserveAspectRatio="xMidYMid meet">
<metadata>
Created by potrace 1.16, written by Peter Selinger 2001-2019
</metadata>
<g transform="translate(0.000000,595.000000) scale(0.100000,-0.100000)"
fill="#ffffff" stroke="none">
<path d="M780 3719 c-212 -121 -385 -221 -386 -222 -1 -1 39 -111 89 -244 50
-133 92 -241 92 -240 8 10 584 905 589 915 4 6 6 12 4 12 -2 0 -176 -100 -388
-221z"/>
<path d="M1306 3928 c6 -10 582 -905 589 -915 1 -2 32 79 70 180 37 100 78
209 91 243 l23 61 -357 204 c-426 244 -426 245 -416 227z"/>
<path d="M2370 2960 l0 -980 30 0 30 0 0 980 0 980 -30 0 -30 0 0 -980z"/>
<path d="M918 3440 l-317 -490 310 -472 c171 -260 314 -477 319 -481 4 -5 150
208 323 472 l317 481 -312 483 c-171 265 -314 485 -317 489 -4 4 -149 -213
-323 -482z m405 -96 c104 -24 166 -54 224 -111 76 -74 93 -116 104 -247 4 -61
9 -118 10 -126 1 -8 1 -26 1 -39 -2 -20 -5 -22 -14 -13 -7 7 -15 52 -18 105
l-6 92 -13 -45 c-8 -25 -13 -73 -12 -107 0 -34 -4 -65 -9 -68 -6 -3 -10 -11
-10 -18 0 -6 7 -2 15 9 15 18 15 16 8 -26 -4 -25 -7 -61 -6 -81 1 -45 -21 -59
-87 -56 l-45 2 3 77 c3 76 3 76 -41 140 l-43 63 -60 3 c-32 1 -73 6 -91 11
-29 8 -33 7 -41 -17 -23 -63 -24 -67 -7 -42 15 25 16 24 13 -22 -3 -41 0 -48
19 -57 13 -6 23 -15 23 -21 0 -20 -21 -51 -30 -45 -6 4 -7 -1 -3 -11 5 -14 2
-16 -20 -12 -34 7 -35 0 -1 -12 19 -7 25 -16 22 -33 -3 -20 -9 -22 -60 -24
l-58 -1 0 59 c0 38 4 58 10 54 6 -3 10 -4 10 -1 0 3 -13 12 -29 21 -39 20 -44
39 -32 135 10 76 9 84 -10 112 -18 24 -19 31 -8 46 13 16 12 16 -6 1 -11 -9
-28 -19 -38 -22 -9 -4 -22 -18 -27 -32 -11 -29 -30 -33 -30 -7 0 20 -18 42
-34 42 -5 0 -2 -6 9 -13 16 -13 17 -25 13 -130 -4 -89 -2 -121 8 -134 14 -19
14 -20 17 37 2 18 9 26 25 28 20 3 22 -1 22 -42 0 -109 -116 -118 -140 -11
-16 68 -12 146 8 162 15 13 15 13 -5 4 -47 -23 -51 -10 -9 32 23 23 30 32 16
21 -14 -12 -41 -25 -60 -29 l-35 -7 28 25 c26 25 27 30 27 125 0 119 19 186
59 207 15 7 33 21 40 29 10 12 34 16 95 17 44 0 99 4 121 8 64 14 111 12 188
-5z"/>
<path d="M2944 3486 c-222 -51 -336 -246 -240 -411 38 -64 86 -99 226 -166
185 -89 189 -91 221 -127 69 -78 16 -154 -118 -168 -75 -8 -157 13 -263 66
l-80 40 0 -99 0 -100 43 -25 c83 -48 163 -68 277 -67 262 1 429 116 430 295 0
159 -76 237 -344 352 -152 64 -202 135 -140 197 59 59 227 47 407 -28 15 -7
17 2 17 94 0 101 0 101 -27 112 -112 42 -304 59 -409 35z"/>
<path d="M4085 3491 c-209 -34 -382 -145 -463 -298 -106 -200 -68 -458 87
-607 111 -105 263 -157 461 -158 113 0 192 16 286 57 l54 24 0 92 c0 69 -3 90
-12 86 -143 -63 -235 -83 -339 -73 -105 10 -175 40 -240 105 -70 71 -93 132
-93 246 1 166 96 288 259 331 103 28 238 15 349 -34 27 -12 52 -22 57 -22 5 0
9 45 9 99 l0 99 -42 16 c-106 38 -266 54 -373 37z"/>
<path d="M5150 3489 c-102 -12 -222 -51 -299 -96 -349 -208 -346 -701 6 -886
117 -61 204 -80 373 -80 152 0 243 14 370 56 l65 22 3 228 2 227 -125 0 -125
0 0 -165 0 -164 -37 -8 c-21 -4 -90 -8 -153 -8 -107 1 -119 3 -180 31 -89 42
-124 74 -160 147 -76 154 -34 345 95 438 124 89 350 103 550 34 39 -14 75 -25
78 -25 4 0 7 45 7 100 l0 99 -52 15 c-123 35 -298 49 -418 35z"/>
<path d="M2035 3218 c-49 -133 -92 -248 -94 -256 -1 -8 39 -123 90 -255 l94
-241 3 253 c1 139 1 362 0 496 l-3 243 -90 -240z"/>
<path d="M340 2961 c0 -272 2 -492 4 -490 9 8 186 467 186 480 0 13 -166 463
-181 489 -5 8 -9 -207 -9 -479z"/>
<path d="M570 2889 c0 -3 -40 -109 -90 -235 -49 -125 -86 -231 -82 -235 14
-13 765 -439 768 -436 2 1 -46 77 -106 167 -60 91 -194 296 -299 455 -105 160
-191 287 -191 284z"/>
<path d="M1598 2436 c-163 -248 -295 -452 -294 -454 3 -3 756 425 769 437 6 6
-148 416 -171 457 -4 7 -127 -171 -304 -440z"/>
</g>
</svg>
