<?xml version="1.0" standalone="no"?>
<!DOCTYPE svg PUBLIC "-//W3C//DTD SVG 20010904//EN"
 "http://www.w3.org/TR/2001/REC-SVG-20010904/DTD/svg10.dtd">
<svg version="1.0" xmlns="http://www.w3.org/2000/svg"
 width="758.000000pt" height="892.000000pt" viewBox="0 0 758.000000 892.000000"
 preserveAspectRatio="xMidYMid meet">
<metadata>
Created by potrace 1.16, written by Peter Selinger 2001-2019
</metadata>
<g transform="translate(0.000000,892.000000) scale(0.100000,-0.100000)"
fill="#ffffff" stroke="none">
<path d="M3765 8428 c-22 -5 -105 -25 -185 -44 -554 -132 -1318 -405 -1649
-588 -168 -93 -271 -212 -271 -311 0 -63 29 -151 71 -217 98 -152 333 -275
618 -323 178 -30 718 -75 1066 -90 204 -8 457 -27 478 -34 12 -5 -35 -19 -125
-40 -390 -90 -495 -116 -843 -212 -174 -48 -218 -62 -165 -53 19 3 42 7 50 7
8 1 17 4 20 7 7 8 110 33 149 36 18 2 38 8 45 13 7 6 21 10 31 10 38 0 115 14
115 20 0 4 10 7 23 8 73 1 91 4 80 11 -8 5 8 8 36 8 27 0 56 6 65 13 8 7 20
10 25 7 12 -8 94 4 86 13 -7 6 134 33 178 34 20 0 24 2 15 8 -9 6 -5 9 12 9
27 0 223 35 280 50 57 15 261 61 314 70 26 5 69 16 95 23 25 8 66 20 91 27 25
7 56 16 70 21 14 4 54 15 90 24 36 9 101 26 145 39 44 13 107 32 140 41 33 9
94 28 135 41 41 13 84 26 95 29 45 10 247 65 254 70 18 11 260 45 319 45 39 0
62 4 62 11 0 8 13 9 38 4 22 -4 33 -3 27 3 -5 5 -300 21 -655 36 -1091 46
-2393 124 -2596 155 l-49 7 60 18 c201 61 627 163 1000 242 211 44 236 54 234
93 0 11 -2 12 -6 4 -2 -7 -18 -13 -33 -13 -16 0 -50 -7 -76 -16 -26 -9 -55
-13 -65 -11 -11 3 -16 1 -13 -5 4 -7 -5 -8 -27 -3 -26 5 -31 4 -19 -5 12 -9 7
-10 -19 -5 -21 5 -31 4 -27 -3 3 -5 -4 -10 -17 -9 -12 0 -35 -3 -52 -6 -16 -4
-52 -11 -80 -17 -49 -9 -133 -28 -250 -56 -33 -8 -82 -18 -108 -24 -27 -5 -54
-13 -60 -17 -6 -4 -36 -11 -67 -16 -80 -12 -91 -15 -135 -31 -22 -8 -47 -15
-55 -16 -8 0 -28 -7 -45 -16 -16 -9 -46 -18 -65 -19 -19 -2 -44 -6 -55 -9 -11
-3 -56 -15 -100 -26 -44 -12 -94 -25 -112 -29 -61 -16 -187 -64 -217 -82 -17
-11 -37 -19 -45 -19 -8 0 -24 -8 -35 -18 -12 -10 -40 -25 -63 -32 -24 -7 -43
-16 -43 -20 0 -9 -47 -30 -67 -30 -9 0 -22 8 -30 18 -13 16 -13 15 -7 -7 4
-16 3 -21 -5 -17 -6 4 -11 14 -11 22 0 8 -16 46 -35 83 -30 60 -35 80 -36 148
-2 51 2 87 11 103 8 14 13 31 11 39 -1 7 2 11 7 8 9 -7 35 19 45 46 3 9 11 17
17 17 6 0 8 -5 4 -12 -5 -7 -3 -8 5 -4 7 5 10 11 7 14 -8 7 24 42 38 42 5 0
19 11 31 25 11 13 50 40 87 59 37 18 65 36 62 39 -3 2 2 7 11 11 11 4 14 2 9
-7 -4 -6 2 -4 14 6 12 11 26 16 33 11 8 -4 10 -3 5 4 -4 8 0 12 12 12 10 0 28
9 41 21 13 12 30 19 42 16 10 -3 22 0 26 5 4 7 1 8 -7 3 -9 -5 -11 -4 -6 4 4
6 11 9 16 6 4 -3 32 7 62 21 68 34 83 40 138 60 156 56 206 72 214 67 5 -4 6
-2 3 4 -4 6 12 16 35 22 23 7 53 18 67 24 14 5 29 10 33 9 4 -1 33 8 63 19 31
12 59 19 61 16 3 -3 24 3 47 13 71 30 81 33 102 36 46 6 133 26 175 41 25 8
58 17 74 20 16 3 39 9 52 13 12 5 49 12 83 16 37 4 58 10 54 17 -3 5 -1 7 4 4
10 -6 151 19 223 40 31 8 50 27 50 47 0 18 1 18 -55 4z m-780 -1228 c146 -7
274 -10 460 -11 39 0 72 -4 73 -9 2 -6 30 -10 63 -10 35 0 59 -4 59 -11 0 -6
27 -10 68 -10 98 0 170 -9 182 -23 8 -10 -1 -12 -40 -8 -38 3 -54 1 -63 -10
-22 -28 -177 -43 -185 -18 -2 5 -24 10 -48 10 -28 0 -43 -4 -39 -10 4 -6 -10
-10 -35 -10 -25 0 -39 4 -35 10 4 6 -15 10 -49 10 -31 0 -56 5 -56 10 0 6 -4
10 -10 10 -5 0 -10 -9 -10 -19 0 -16 8 -20 43 -23 23 -2 -32 -3 -122 -3 -120
-1 -166 -4 -169 -13 -4 -14 -32 -16 -32 -2 0 16 -46 12 -60 -5 -10 -12 -10
-15 1 -16 8 0 5 -4 -6 -8 -11 -5 -54 -9 -95 -10 -41 -1 -76 -5 -78 -10 -1 -4
-85 -6 -185 -4 -134 4 -188 8 -204 19 -12 8 -42 14 -67 14 -25 0 -48 5 -51 10
-4 6 -10 8 -15 5 -11 -7 -22 24 -15 46 7 20 55 27 55 9 0 -5 9 -10 20 -10 13
0 20 7 20 20 0 13 7 20 20 20 11 0 23 1 28 2 10 2 42 44 42 56 0 6 6 13 13 16
13 6 259 0 522 -14z"/>
<path d="M5980 7122 c-8 -3 -21 -12 -30 -20 -8 -9 -34 -28 -57 -42 -23 -15
-40 -30 -36 -34 3 -3 -3 -6 -14 -6 -12 0 -23 -3 -25 -7 -8 -20 -197 -93 -430
-169 -43 -14 -78 -29 -78 -34 0 -6 -7 -10 -15 -10 -8 0 -15 -3 -15 -8 0 -4
-15 -15 -32 -24 -77 -38 -205 -96 -228 -103 -14 -4 -54 -19 -90 -35 -103 -44
-328 -113 -341 -104 -7 4 -10 3 -6 -3 6 -9 -47 -26 -128 -39 -22 -4 -48 -11
-57 -16 -10 -5 -39 -13 -65 -18 -27 -6 -59 -13 -73 -16 -14 -2 -57 -14 -97
-25 -39 -11 -101 -22 -138 -26 -44 -4 -62 -9 -53 -15 9 -6 0 -8 -24 -6 -21 2
-39 0 -41 -5 -1 -4 -28 -11 -59 -14 -35 -3 -55 -10 -51 -16 3 -6 1 -7 -6 -3
-6 4 -35 3 -64 -3 -101 -20 -112 -22 -155 -28 -24 -3 -39 -9 -34 -12 24 -15
-363 -21 -456 -7 -48 7 -54 6 -58 -12 -5 -15 -17 -21 -58 -26 -60 -7 -170 -43
-210 -70 -15 -9 -52 -20 -82 -23 -30 -3 -57 -10 -60 -14 -3 -5 -17 -9 -32 -9
-28 -1 -115 -28 -142 -45 -8 -5 -32 -12 -55 -16 -22 -4 -74 -15 -115 -25 -41
-9 -88 -18 -105 -20 -16 -2 -70 -10 -120 -19 -243 -42 -269 -46 -296 -36 -15
5 -30 7 -33 4 -3 -4 -6 -1 -6 7 0 7 -15 30 -34 51 -24 26 -33 44 -29 58 7 27
77 87 119 103 19 6 34 16 34 20 0 4 6 8 13 8 7 0 22 7 33 15 18 14 17 15 -8 6
-64 -23 -133 -65 -180 -111 -49 -48 -51 -50 -45 -95 8 -78 79 -137 203 -169
120 -31 347 -58 764 -91 122 -10 650 -73 1010 -121 454 -60 1070 -166 1230
-212 l65 -19 -50 -11 c-65 -14 -333 -63 -555 -101 -219 -38 -639 -99 -743
-107 -71 -6 -80 -10 -90 -31 -9 -19 -8 -26 4 -34 15 -11 78 -6 349 27 69 8
161 21 205 29 44 8 112 18 150 24 39 5 117 17 175 27 58 9 141 22 185 29 136
21 350 67 353 77 2 4 7 6 11 4 4 -3 34 0 67 5 32 6 78 12 102 14 23 2 48 7 55
13 7 5 48 12 92 16 44 3 103 12 132 20 28 8 54 11 57 8 3 -3 6 0 6 6 0 7 15
12 35 12 19 0 76 11 127 24 119 30 153 30 167 -1 7 -14 16 -21 26 -17 8 3 15
2 16 -2 0 -5 2 -18 5 -29 2 -11 6 -54 8 -96 4 -68 2 -81 -20 -112 -26 -39 -30
-52 -12 -41 6 4 8 3 5 -4 -4 -5 -15 -8 -25 -6 -11 3 -26 -9 -46 -36 -15 -23
-31 -39 -33 -36 -3 3 -18 -3 -33 -14 -16 -11 -32 -20 -37 -20 -6 0 -18 -9 -28
-20 -10 -11 -24 -20 -32 -20 -8 0 -11 -5 -7 -12 5 -8 2 -9 -9 -5 -10 3 -17 2
-17 -3 0 -6 -9 -10 -19 -10 -11 0 -23 -5 -26 -10 -3 -6 -26 -15 -50 -21 -27
-7 -42 -16 -38 -22 3 -6 1 -7 -5 -3 -6 3 -30 -2 -54 -13 -24 -10 -79 -31 -123
-46 -44 -15 -86 -31 -93 -37 -7 -6 -31 -12 -55 -14 -23 -2 -59 -10 -78 -18
-20 -8 -39 -12 -43 -9 -3 4 -6 1 -6 -6 0 -8 -7 -11 -15 -7 -19 7 -115 -14
-115 -25 0 -5 -6 -6 -14 -3 -8 3 -17 1 -20 -4 -3 -6 -15 -8 -26 -5 -11 3 -20
1 -20 -3 0 -5 -10 -10 -22 -11 -48 -3 -95 -10 -104 -16 -5 -3 -33 -8 -62 -11
-29 -3 -62 -11 -72 -16 -11 -6 -32 -10 -47 -9 -39 1 -210 -18 -221 -25 -5 -3
-24 -8 -43 -11 -136 -20 -325 -47 -384 -54 -38 -5 -102 -16 -142 -26 -40 -9
-87 -15 -105 -13 -35 3 -46 -14 -29 -42 12 -18 36 -17 291 21 535 78 977 166
1212 243 111 37 401 149 517 200 173 77 295 169 332 251 51 112 -10 275 -154
412 -126 119 -246 176 -546 257 -272 74 -552 122 -1026 176 -267 30 -811 98
-830 104 -15 4 276 73 940 221 722 161 1221 276 1315 304 182 52 318 122 389
199 76 81 142 251 91 234z m-2667 -1034 c100 -12 205 -22 234 -22 28 -1 46 -4
40 -8 -7 -4 1 -8 18 -9 17 0 41 -2 55 -3 134 -13 217 -19 229 -17 7 1 20 -1
30 -4 9 -4 39 -8 66 -10 146 -10 533 -65 575 -82 8 -4 26 -8 40 -9 40 -5 110
-26 116 -35 3 -5 21 -9 41 -9 20 0 46 -9 60 -20 14 -11 36 -20 48 -20 12 0 34
-11 49 -25 15 -14 34 -25 42 -25 7 0 14 -6 14 -14 0 -8 6 -16 13 -19 6 -2 -5
-9 -27 -15 -21 -6 -47 -19 -57 -28 -11 -10 -19 -12 -19 -6 0 7 -9 12 -20 12
-11 0 -20 -5 -20 -10 0 -6 -22 -8 -57 -4 -32 3 -72 7 -89 8 -16 2 -48 9 -70
16 -81 25 -101 30 -118 30 -9 0 -27 5 -39 12 -12 6 -35 12 -52 14 -39 3 -147
33 -160 45 -5 5 -19 9 -32 9 -13 0 -58 9 -101 20 -42 11 -97 22 -122 24 -76 7
-130 18 -130 27 0 5 -14 9 -31 9 -17 0 -39 4 -49 10 -10 5 -62 15 -116 21 -55
6 -126 18 -159 26 -118 29 -192 38 -328 37 -108 0 -141 -4 -148 -15 -8 -12
-10 -12 -19 1 -8 12 -12 13 -19 1 -6 -10 -13 -11 -29 -2 -11 6 -55 11 -96 11
-49 0 -76 4 -76 11 0 7 -10 9 -25 7 -14 -3 -28 -1 -31 3 -3 5 3 9 13 9 11 0
23 4 28 9 6 4 53 18 105 29 52 12 104 23 115 25 45 10 135 6 308 -15z"/>
<path d="M5515 3990 c-108 -24 -179 -65 -257 -147 -80 -86 -118 -187 -118
-313 0 -273 194 -460 476 -460 113 0 220 33 326 102 l48 30 0 199 0 199 -195
0 -195 0 0 -85 0 -85 100 0 101 0 -3 -62 -3 -62 -48 -25 c-64 -32 -171 -35
-237 -4 -179 82 -214 330 -67 465 59 54 113 72 192 65 65 -6 149 -41 174 -71
8 -9 19 -16 25 -16 9 1 114 128 124 150 6 14 -107 82 -168 101 -72 22 -216 32
-275 19z"/>
<path d="M1787 3971 c-69 -28 -109 -62 -139 -117 -71 -131 -35 -277 84 -347
24 -14 95 -39 158 -57 191 -53 239 -101 166 -169 -54 -51 -186 -34 -303 39
l-62 39 -55 -68 c-31 -38 -56 -72 -56 -77 0 -17 119 -86 188 -110 238 -83 473
-1 511 177 15 68 14 100 -5 156 -33 98 -108 145 -322 204 -101 27 -148 63
-138 105 12 46 44 63 116 64 52 0 78 -6 130 -31 36 -17 72 -37 81 -45 14 -12
21 -6 67 61 29 42 52 79 52 83 0 11 -80 58 -140 83 -80 32 -264 38 -333 10z"/>
<path d="M2350 3530 l0 -450 100 0 100 0 0 135 0 135 94 0 c209 0 332 57 389
180 17 35 21 65 22 140 0 82 -3 102 -25 144 -34 66 -98 120 -173 145 -54 19
-85 21 -284 21 l-223 0 0 -450z m436 249 c34 -16 46 -29 60 -65 16 -43 16 -47
-2 -92 -29 -69 -65 -86 -191 -90 l-103 -4 0 136 0 136 97 0 c77 0 105 -4 139
-21z"/>
<path d="M3130 3531 l0 -451 100 0 100 0 0 145 0 145 75 0 75 0 80 -121 c44
-66 88 -131 97 -144 17 -23 23 -24 129 -25 61 0 113 3 116 6 3 3 -31 58 -76
122 -82 118 -126 185 -126 194 0 3 13 11 29 17 38 16 94 76 123 131 19 37 23
60 23 130 -1 138 -41 207 -155 266 l-55 29 -267 3 -268 3 0 -450z m464 255
c101 -42 103 -188 3 -225 -16 -6 -82 -11 -148 -11 l-119 0 0 125 0 125 115 0
c76 0 127 -5 149 -14z"/>
<path d="M3960 3530 l0 -450 100 0 100 0 0 450 0 450 -100 0 -100 0 0 -450z"/>
<path d="M4270 3530 l0 -450 100 0 100 0 2 281 3 280 85 -112 c47 -61 143
-187 214 -280 l129 -169 83 0 84 0 0 450 0 450 -100 0 -100 0 -2 -265 -3 -266
-160 211 c-88 116 -178 236 -200 265 l-40 54 -97 1 -98 0 0 -450z"/>
<path d="M5503 2832 c-143 -51 -217 -181 -184 -326 23 -101 87 -151 261 -201
132 -38 185 -62 200 -91 30 -56 -30 -114 -117 -114 -56 0 -152 31 -205 67 -23
16 -48 32 -54 36 -15 9 -126 -126 -119 -144 8 -20 127 -89 193 -112 77 -27
266 -29 331 -4 117 45 173 123 179 248 3 66 1 82 -21 125 -14 27 -35 57 -46
66 -38 32 -116 66 -226 98 -133 39 -163 53 -176 86 -20 53 30 104 103 104 51
0 152 -33 199 -66 22 -15 41 -25 43 -23 19 23 96 146 96 154 -1 14 -77 59
-146 85 -83 31 -239 37 -311 12z"/>
<path d="M1580 2385 l0 -455 100 0 100 0 0 282 0 281 55 -69 c93 -118 322
-420 347 -458 l23 -36 88 0 87 0 0 455 0 455 -100 0 -100 0 -2 -270 -3 -270
-60 80 c-33 45 -102 136 -154 203 -52 67 -116 152 -143 190 l-50 67 -94 0 -94
0 0 -455z"/>
<path d="M2820 2385 l0 -455 345 0 345 0 0 90 0 90 -245 0 -245 0 0 95 0 95
210 0 210 0 0 90 0 90 -210 0 -210 0 0 90 0 90 240 0 240 0 0 90 0 90 -340 0
-340 0 0 -455z"/>
<path d="M3850 2830 c0 -6 50 -210 111 -455 l111 -445 108 0 108 0 63 255 c35
140 66 255 69 255 3 0 34 -115 69 -255 l63 -255 108 0 108 0 111 445 c61 245
111 449 111 455 0 6 -39 10 -98 10 l-98 0 -64 -260 c-35 -143 -67 -260 -70
-260 -3 0 -35 117 -70 260 l-64 260 -106 0 -106 0 -64 -260 c-35 -143 -67
-260 -70 -260 -3 0 -35 117 -70 260 l-64 260 -98 0 c-59 0 -98 -4 -98 -10z"/>
<path d="M4787 1727 c-1 -5 -18 -11 -37 -12 -19 -2 -35 -5 -35 -6 0 -2 -34 -9
-75 -13 -44 -5 -130 -47 -130 -63 0 -7 -7 -13 -15 -13 -18 0 -72 -26 -91 -44
-7 -6 -26 -21 -43 -34 -16 -13 -33 -32 -36 -43 -4 -10 -12 -19 -19 -19 -7 0
-25 -18 -40 -40 -14 -22 -43 -56 -64 -76 -24 -23 -33 -37 -24 -41 16 -6 15
-48 -1 -65 -17 -16 -42 -88 -38 -106 1 -8 -2 -19 -8 -25 -17 -21 -23 -204 -9
-284 12 -72 13 -74 57 -100 26 -14 49 -31 53 -37 3 -6 20 -26 37 -44 17 -17
31 -36 31 -42 0 -5 7 -10 15 -10 8 0 26 -20 41 -45 21 -36 42 -54 101 -87 42
-23 95 -58 120 -80 24 -21 56 -41 71 -45 15 -3 43 -16 62 -28 39 -24 104 -55
115 -55 4 0 44 -17 88 -39 174 -82 214 -99 267 -111 30 -6 93 -23 140 -37 47
-14 101 -29 120 -34 48 -13 190 -24 278 -22 40 1 72 -2 72 -7 0 -6 12 -10 26
-10 17 0 23 4 18 13 -4 6 2 4 13 -6 15 -13 37 -17 91 -17 39 0 73 4 76 9 3 5
17 9 31 9 14 0 22 -5 18 -11 -4 -7 0 -8 13 -2 10 4 33 7 49 5 46 -4 97 -1 133
6 22 4 32 2 32 -6 0 -8 27 -11 98 -9 78 2 103 6 126 22 16 11 61 28 100 38
120 29 220 59 241 71 11 6 29 12 40 14 24 2 156 54 169 65 6 5 18 9 28 9 10 0
18 4 18 9 0 5 13 14 29 21 16 6 38 20 49 30 10 10 37 27 59 38 33 17 72 55
111 107 4 6 20 26 34 46 19 24 29 53 34 92 4 31 10 57 15 57 15 0 19 56 8 140
-13 114 -14 119 -22 126 -4 4 -7 19 -7 33 0 23 -4 21 -30 -22 -18 -28 -30 -61
-30 -80 1 -68 -1 -77 -10 -77 -6 0 -9 3 -9 8 1 4 0 10 -1 15 -4 12 -7 27 -9
40 -1 6 -7 3 -14 -8 -14 -24 -14 -25 -16 -74 -1 -23 -7 -41 -15 -44 -12 -5
-13 2 -9 31 6 34 5 36 -10 23 -10 -7 -17 -22 -17 -32 0 -10 -4 -20 -9 -24 -6
-3 -8 -14 -6 -25 2 -12 0 -18 -6 -14 -6 3 -8 18 -5 33 6 24 5 25 -8 8 -8 -10
-18 -19 -23 -19 -16 -2 -53 -31 -53 -42 0 -7 -10 -22 -23 -34 -24 -23 -43 -30
-32 -12 3 6 4 10 0 10 -8 0 -29 -53 -26 -67 1 -7 -2 -13 -7 -13 -12 0 -11 34
2 42 6 4 8 10 5 13 -8 7 -71 -26 -82 -43 -4 -6 -15 -12 -22 -12 -8 0 -15 -7
-15 -15 0 -9 -6 -15 -12 -13 -7 1 -23 -3 -35 -10 -12 -7 -28 -9 -36 -6 -8 3
-17 -2 -21 -12 -5 -13 -9 -14 -20 -5 -11 10 -16 9 -23 -3 -5 -8 -25 -16 -46
-18 -20 -1 -37 -5 -37 -9 0 -19 -425 -38 -444 -19 -5 5 -29 10 -52 10 -24 0
-46 5 -49 10 -3 6 -17 10 -31 10 -13 0 -24 5 -24 10 0 6 -13 10 -29 10 -17 0
-32 4 -35 9 -3 5 -18 12 -33 16 -33 8 -96 36 -103 46 -3 3 -23 12 -44 20 -21
8 -57 31 -79 52 -22 20 -44 37 -49 37 -14 0 -202 191 -223 228 -11 18 -23 32
-27 32 -4 0 -8 8 -8 18 0 10 -9 24 -20 32 -11 8 -20 21 -20 30 0 8 -9 26 -20
40 -11 14 -20 33 -20 42 0 9 -4 20 -10 23 -5 3 -10 22 -10 41 0 31 14 49 148
182 81 81 163 165 182 187 20 22 38 42 41 44 27 17 157 147 150 149 -6 2 -2
11 7 21 9 10 22 16 28 14 7 -3 15 1 20 8 4 7 3 10 -2 6 -5 -3 -28 -2 -51 3
-30 5 -46 4 -53 -5 -5 -6 -8 -14 -5 -17 3 -2 -2 -5 -10 -5 -11 0 -12 4 -5 11
15 15 12 22 -10 23 -11 1 -20 -4 -20 -11 0 -13 -34 -15 -46 -3 -12 12 -56 8
-49 -4 5 -7 -7 -9 -36 -5 -63 8 -311 19 -401 18 -47 -1 -78 3 -78 9 0 13 -399
8 -403 -4z m-454 -990 c9 -4 17 -14 17 -22 0 -10 5 -13 12 -9 8 5 9 2 5 -10
-6 -14 -3 -17 10 -12 10 4 14 4 10 0 -11 -12 31 -61 59 -68 17 -5 24 -12 20
-21 -3 -8 0 -12 7 -10 20 8 62 -20 62 -40 0 -11 5 -18 10 -17 6 2 9 8 8 13 -2
5 2 9 8 9 5 0 15 -13 20 -30 9 -25 14 -28 29 -20 13 7 21 7 25 0 3 -5 -2 -10
-12 -11 -11 0 -13 -3 -5 -6 6 -2 10 -9 6 -14 -3 -5 7 -4 21 3 21 9 28 9 34 -1
5 -7 11 -12 15 -10 12 4 76 -24 76 -33 0 -4 3 -7 8 -7 4 1 14 1 22 0 13 -1 13
-2 0 -12 -12 -8 -10 -10 10 -8 42 2 50 0 50 -16 0 -8 2 -15 4 -15 2 0 13 -3
23 -7 16 -6 17 -5 3 13 -15 18 -14 18 10 3 14 -9 23 -20 20 -25 -6 -11 -54 -6
-58 7 -2 5 -17 9 -32 9 -16 0 -32 5 -35 10 -4 6 -10 8 -15 5 -5 -3 -12 0 -16
6 -5 8 -3 9 7 4 8 -5 11 -4 6 0 -4 5 -20 9 -35 10 -18 0 -27 5 -26 15 1 9 -8
17 -20 18 -17 1 -18 -1 -6 -8 8 -5 10 -10 4 -10 -6 0 -14 3 -18 7 -4 5 -11 8
-14 8 -25 2 -62 17 -57 24 3 5 -7 14 -23 20 -33 12 -112 81 -94 81 7 0 10 5 7
10 -5 8 -11 7 -20 0 -18 -15 -38 -3 -31 17 3 8 2 12 -3 8 -5 -3 -20 7 -33 23
-25 29 -28 32 -55 33 -15 0 -15 2 2 9 11 5 15 9 9 9 -5 1 -15 13 -20 29 -8 23
-11 24 -17 9 -4 -11 -3 -16 3 -12 6 3 10 -1 10 -11 0 -13 -3 -14 -14 -5 -8 7
-13 21 -11 32 2 12 -4 24 -16 32 -10 6 -19 19 -19 27 0 11 5 10 18 -6 9 -12
25 -24 35 -27z m2917 -305 c0 -11 -63 -47 -75 -43 -5 1 -7 -1 -3 -4 4 -4 3
-16 -3 -27 -13 -24 -55 -21 -51 4 2 13 -2 16 -13 12 -14 -6 -14 -8 0 -24 18
-20 8 -35 -12 -18 -7 6 -16 8 -20 4 -3 -3 -1 -6 5 -6 7 0 12 -4 12 -9 0 -12
-49 -20 -56 -9 -3 5 -13 0 -21 -11 -8 -12 -23 -21 -34 -21 -10 0 -19 -4 -19
-10 0 -5 -3 -9 -7 -8 -5 1 -21 -6 -36 -16 -32 -22 -49 -12 -37 20 7 18 16 21
45 19 26 -1 35 2 31 11 -3 7 7 20 21 29 17 12 23 13 17 4 -6 -12 -5 -12 9 0 9
7 17 10 17 5 0 -5 6 -2 13 6 18 22 110 68 125 63 7 -3 11 1 10 7 -5 20 20 23
25 3 4 -14 5 -13 6 5 1 17 7 22 26 22 14 0 25 -4 25 -8z"/>
</g>
</svg>
