<?xml version="1.0" standalone="no"?>
<!DOCTYPE svg PUBLIC "-//W3C//DTD SVG 20010904//EN"
 "http://www.w3.org/TR/2001/REC-SVG-20010904/DTD/svg10.dtd">
<svg version="1.0" xmlns="http://www.w3.org/2000/svg"
 width="300.000000pt" height="95.000000pt" viewBox="0 0 300.000000 95.000000"
 preserveAspectRatio="xMidYMid meet">
<metadata>
Created by potrace 1.16, written by Peter Selinger 2001-2019
</metadata>
<g transform="translate(0.000000,95.000000) scale(0.100000,-0.100000)"
fill="#ffffff" stroke="none">
<path d="M1385 928 c-30 -6 -271 -12 -609 -15 -381 -2 -564 -7 -573 -15 -19
-15 -16 -56 5 -62 9 -3 105 -13 212 -21 107 -9 202 -21 212 -26 34 -18 45 -62
57 -224 6 -88 11 -172 11 -187 0 -27 1 -28 58 -28 l58 0 16 194 c9 107 21 204
28 215 14 27 49 41 101 41 l40 0 -29 -37 c-56 -73 -64 -131 -28 -208 45 -98
155 -171 316 -211 58 -14 112 -19 240 -19 128 0 182 5 240 19 213 53 340 159
340 283 0 58 -18 102 -58 146 l-26 27 55 0 c98 0 113 -26 123 -215 4 -60 9
-138 12 -172 l6 -63 54 0 c63 0 56 -19 74 219 13 164 22 206 50 221 9 5 111
16 225 25 114 8 212 18 216 21 13 8 11 48 -3 62 -9 9 -142 12 -538 12 -309 0
-541 5 -565 10 -60 15 -263 20 -320 8z m278 -104 c278 -72 305 -268 50 -361
-176 -64 -427 -31 -539 70 -41 38 -47 48 -51 94 -5 49 -4 53 36 96 46 50 86
72 176 98 79 23 246 25 328 3z"/>
<path d="M1340 147 c-16 -8 -26 -23 -28 -40 -3 -23 2 -30 32 -42 49 -21 105
-19 144 5 41 25 42 54 2 75 -35 18 -116 19 -150 2z"/>
<path d="M2810 105 l0 -55 59 0 c82 0 111 33 81 91 -9 16 -22 19 -75 19 l-65
0 0 -55z"/>
</g>
</svg>
