<?xml version="1.0" standalone="no"?>
<!DOCTYPE svg PUBLIC "-//W3C//DTD SVG 20010904//EN"
 "http://www.w3.org/TR/2001/REC-SVG-20010904/DTD/svg10.dtd">
<svg version="1.0" xmlns="http://www.w3.org/2000/svg"
 width="3840.000000pt" height="2160.000000pt" viewBox="0 0 3840.000000 2160.000000"
 preserveAspectRatio="xMidYMid meet">
<metadata>
Created by potrace 1.16, written by Peter Selinger 2001-2019
</metadata>
<g transform="translate(0.000000,2160.000000) scale(0.100000,-0.100000)"
fill="#ffffff" stroke="none">
<path d="M4680 13909 c-745 -40 -1456 -191 -2105 -446 -185 -72 -586 -271
-755 -373 -417 -252 -780 -567 -1031 -895 -154 -201 -315 -499 -388 -721 -87
-264 -124 -551 -103 -811 23 -290 89 -528 221 -799 263 -536 737 -1010 1386
-1384 154 -89 504 -258 670 -323 968 -382 2081 -529 3195 -421 1808 174 3313
1016 3856 2159 417 877 206 1847 -568 2616 -420 418 -983 761 -1663 1012 -801
296 -1787 436 -2715 386z m830 -369 c857 -52 1593 -242 2009 -517 123 -81 240
-202 286 -295 198 -401 -269 -794 -1215 -1022 -208 -50 -421 -86 -425 -72 -2
6 -11 56 -20 111 -24 143 -71 351 -110 490 -354 1255 -1064 1610 -1598 800
-195 -296 -356 -745 -446 -1248 -16 -87 -31 -160 -33 -162 -7 -7 -319 56 -498
100 -604 152 -1017 388 -1144 655 -28 59 -31 74 -31 165 0 97 2 104 39 180 81
166 286 327 576 456 426 188 1036 317 1700 358 187 12 722 12 910 1z m-313
-825 c67 -34 164 -127 222 -215 121 -186 231 -498 289 -822 l19 -107 -61 -6
c-160 -17 -390 -23 -696 -20 -277 4 -555 17 -566 28 -7 6 49 275 80 388 64
234 133 396 232 545 142 216 314 290 481 209z m3604 -555 c154 -228 281 -512
338 -757 66 -281 71 -613 15 -893 -163 -806 -806 -1533 -1766 -1995 -444 -213
-925 -359 -1448 -439 -164 -25 -458 -56 -533 -56 l-39 0 58 43 c224 165 447
558 593 1043 132 440 211 1018 211 1552 0 111 4 182 10 182 29 0 398 75 535
109 552 137 1033 347 1366 597 114 86 245 214 317 310 102 134 192 353 192
468 l1 41 29 -35 c17 -19 71 -96 121 -170z m-7318 125 c8 -84 53 -214 106
-307 213 -372 729 -711 1416 -931 232 -74 575 -156 821 -197 l71 -11 6 -302
c22 -1152 346 -2134 822 -2496 l30 -22 -105 6 c-549 31 -1205 184 -1700 395
-531 227 -950 506 -1300 867 -287 294 -489 617 -604 964 -213 637 -122 1288
262 1884 58 90 152 215 161 215 5 0 11 -29 14 -65z m3202 -1526 c230 -13 722
-7 949 11 76 6 140 9 143 7 6 -7 -16 -339 -32 -477 -80 -662 -295 -1162 -554
-1283 -204 -96 -402 32 -565 365 -151 310 -243 740 -272 1277 l-7 124 64 -6
c35 -4 159 -12 274 -18z"/>
<path d="M17499 13180 c-834 -60 -1581 -561 -1953 -1310 -172 -346 -248 -670
-248 -1055 0 -283 34 -503 118 -754 116 -348 315 -670 575 -930 373 -372 837
-601 1374 -677 141 -20 444 -22 580 -5 542 70 1029 306 1405 681 372 373 603
841 677 1375 9 68 15 184 15 305 0 212 -13 340 -57 534 -179 800 -785 1463
-1571 1722 -287 94 -614 135 -915 114z m394 -886 c336 -63 653 -288 859 -610
105 -164 195 -410 229 -629 17 -103 17 -387 0 -490 -57 -363 -215 -674 -458
-906 -244 -233 -534 -353 -853 -352 -342 0 -651 138 -902 402 -565 593 -565
1609 0 2202 222 234 495 370 807 403 64 6 233 -4 318 -20z"/>
<path d="M26905 13183 c-721 -45 -1357 -385 -1781 -953 -238 -319 -389 -683
-450 -1085 -25 -166 -25 -503 0 -670 164 -1079 1000 -1893 2081 -2026 145 -17
436 -15 580 5 524 74 971 290 1344 651 404 391 654 905 712 1464 17 165 7 483
-21 641 -197 1122 -1148 1945 -2280 1973 -74 2 -157 2 -185 0z m348 -889 c483
-91 897 -503 1041 -1037 78 -287 78 -607 0 -894 -110 -408 -383 -756 -730
-931 -258 -130 -562 -161 -844 -87 -120 32 -312 125 -415 202 -375 278 -604
755 -605 1260 -1 703 430 1316 1037 1473 159 41 344 46 516 14z"/>
<path d="M11240 12610 l0 -410 700 0 700 0 0 -1830 0 -1830 500 0 500 0 0
1830 0 1830 700 0 700 0 0 410 0 410 -1900 0 -1900 0 0 -410z"/>
<path d="M20109 13003 c5 -10 397 -634 870 -1388 l861 -1369 0 -853 0 -853
508 2 507 3 3 853 2 852 856 1363 c471 749 863 1372 872 1385 l14 22 -584 0
-585 0 -532 -924 c-293 -508 -537 -931 -544 -939 -10 -13 -104 144 -552 924
l-540 939 -583 0 c-552 0 -582 -1 -573 -17z"/>
<path d="M29700 12610 l0 -410 700 0 700 0 0 -1830 0 -1830 500 0 500 0 0
1830 0 1830 700 0 700 0 0 410 0 410 -1900 0 -1900 0 0 -410z"/>
<path d="M34685 12248 c-175 -425 -425 -1032 -556 -1348 -638 -1547 -969
-2351 -969 -2355 0 -3 262 -5 583 -5 l582 0 191 503 191 502 920 3 919 2 154
-402 c84 -222 171 -449 193 -505 l39 -103 583 0 584 0 -83 203 c-46 111 -264
641 -486 1177 -221 536 -551 1335 -732 1775 -182 440 -379 917 -438 1060
l-107 260 -625 3 -624 2 -319 -772z m1259 -1116 c168 -442 306 -809 306 -815
0 -9 -158 -12 -625 -12 -344 0 -625 2 -625 5 0 20 625 1639 631 1633 4 -5 145
-370 313 -811z"/>
</g>
</svg>
