<?xml version="1.0" standalone="no"?>
<!DOCTYPE svg PUBLIC "-//W3C//DTD SVG 20010904//EN"
 "http://www.w3.org/TR/2001/REC-SVG-20010904/DTD/svg10.dtd">
<svg version="1.0" xmlns="http://www.w3.org/2000/svg"
 width="619.000000pt" height="600.000000pt" viewBox="0 0 619.000000 600.000000"
 preserveAspectRatio="xMidYMid meet">
<metadata>
Created by potrace 1.16, written by Peter Selinger 2001-2019
</metadata>
<g transform="translate(0.000000,600.000000) scale(0.100000,-0.100000)"
fill="#ffffff" stroke="none">
<path d="M3725 5941 c-16 -4 31 -5 106 -3 108 4 147 1 194 -13 160 -46 268
-133 480 -385 127 -151 231 -248 322 -302 87 -52 456 -216 428 -190 -5 5 -77
37 -160 72 -308 131 -365 171 -564 405 -297 348 -421 426 -665 424 -61 -1
-124 -4 -141 -8z"/>
<path d="M2250 5934 c-174 -34 -290 -120 -520 -384 -224 -258 -298 -312 -598
-435 -253 -103 -368 -170 -451 -261 -104 -113 -149 -251 -175 -529 -40 -420
-58 -478 -244 -782 -271 -441 -276 -597 -31 -1009 208 -350 233 -422 259 -759
27 -351 65 -478 184 -603 95 -100 169 -144 466 -272 288 -124 349 -170 564
-419 160 -185 231 -255 320 -312 163 -106 319 -114 666 -34 370 86 440 85 800
-1 223 -54 362 -71 457 -55 167 27 299 118 492 341 67 76 127 142 134 147 12
7 -39 -54 -174 -206 -126 -144 -256 -240 -373 -277 -23 -7 -32 -13 -21 -13 29
-1 151 59 210 104 76 57 135 117 265 265 240 276 277 302 636 454 254 107 366
178 448 283 48 60 91 142 101 188 3 17 -4 5 -16 -25 -34 -86 -105 -186 -170
-239 -90 -72 -167 -114 -364 -197 -298 -126 -347 -155 -462 -268 -40 -39 -73
-66 -73 -60 0 5 21 30 47 56 118 113 199 160 488 282 216 91 319 152 401 238
117 121 168 278 189 573 24 336 60 450 234 734 44 71 89 147 100 170 12 23 26
39 31 36 11 -7 51 78 79 169 26 84 28 220 5 310 -22 86 -85 215 -198 405 -159
266 -183 331 -212 596 l-13 120 5 -100 c7 -139 36 -280 78 -375 19 -45 80
-157 135 -249 172 -286 211 -389 211 -551 0 -75 -5 -108 -29 -179 -30 -88 -61
-156 -61 -133 0 7 9 30 20 51 35 70 60 181 60 269 0 153 -39 254 -210 541
-172 288 -195 363 -225 711 -29 340 -68 467 -179 587 -92 100 -175 148 -474
277 -187 80 -291 140 -372 213 -28 25 -120 126 -205 223 -163 188 -225 248
-321 305 -166 100 -306 101 -724 5 -260 -59 -385 -60 -625 -4 -264 61 -336 74
-435 78 -58 3 -116 2 -130 0z m1145 -269 c437 -51 829 -193 1183 -428 882
-589 1335 -1629 1162 -2670 -95 -569 -359 -1072 -776 -1477 -221 -215 -412
-349 -689 -485 -744 -367 -1593 -367 -2340 -1 -1159 568 -1750 1871 -1410
3111 48 173 95 297 180 470 262 533 687 958 1220 1220 291 143 560 223 880
260 155 18 435 18 590 0z"/>
<path d="M2915 5600 c-523 -46 -988 -223 -1389 -528 -132 -101 -338 -301 -441
-430 -321 -400 -502 -837 -566 -1364 -16 -132 -6 -530 16 -668 167 -1045 942
-1886 1962 -2131 231 -55 314 -64 608 -64 208 0 295 4 377 17 575 93 1056 337
1458 738 396 394 650 900 734 1460 23 149 31 429 17 590 -53 633 -311 1184
-765 1635 -414 411 -935 663 -1511 731 -159 19 -376 25 -500 14z m-31 -277 c4
-54 9 -112 11 -129 l5 -30 85 4 c80 4 85 3 85 -15 0 -18 -9 -21 -96 -27 -64
-5 -100 -4 -109 4 -8 7 -15 51 -20 133 -3 67 -9 130 -11 140 -4 13 1 17 19 17
25 0 25 -2 31 -97z m627 71 c47 -24 62 -70 49 -151 -6 -37 -16 -73 -21 -79 -5
-7 -7 -23 -4 -37 7 -28 -7 -42 -33 -32 -9 4 -45 8 -80 9 -59 1 -66 4 -94 35
-30 33 -30 36 -24 103 7 78 23 117 62 147 32 26 101 28 145 5z m-854 -36 c41
-47 171 -236 166 -242 -15 -15 -44 -3 -68 28 l-25 33 -61 -12 c-70 -15 -71
-15 -84 -63 -8 -27 -17 -38 -33 -40 -12 -2 -22 -2 -22 0 0 7 61 283 66 301 7
24 37 21 61 -5z m1033 -7 c0 -4 -11 -45 -25 -92 -41 -139 -33 -167 48 -176 57
-7 77 17 111 131 14 49 27 91 29 93 7 7 37 -9 37 -19 0 -18 -41 -151 -57 -185
-10 -21 -30 -40 -58 -53 -38 -19 -49 -20 -87 -10 -87 23 -111 75 -83 176 39
139 45 152 65 147 11 -3 20 -8 20 -12z m-1233 -161 c66 -183 62 -187 -97 -85
-63 40 -116 72 -118 70 -1 -1 13 -46 33 -100 19 -54 34 -99 33 -101 -2 -1 -12
-4 -22 -6 -16 -2 -27 17 -67 127 -26 72 -48 135 -48 141 -2 31 42 16 143 -48
60 -38 110 -67 112 -65 2 2 -11 45 -29 96 -28 79 -30 93 -17 101 8 5 18 10 21
10 3 0 29 -63 56 -140z m1641 18 c8 -8 12 -61 12 -170 0 -156 0 -158 -20 -148
-15 8 -20 21 -20 53 l0 43 -66 28 -65 29 -29 -28 c-20 -20 -34 -25 -50 -20
-11 4 -20 11 -18 15 5 14 222 209 234 209 5 1 15 -4 22 -11z m-1986 -47 c39
-31 80 -116 80 -165 0 -55 -23 -91 -73 -117 -79 -40 -126 -17 -175 84 -37 76
-39 108 -8 154 38 59 128 81 176 44z m2150 -171 c-34 -55 -62 -104 -62 -109 0
-5 31 -28 70 -51 62 -37 68 -44 59 -62 -10 -19 -11 -19 -37 -2 -15 10 -53 33
-84 52 -41 24 -58 40 -58 55 0 19 68 141 123 220 18 26 21 27 35 13 14 -13 9
-25 -46 -116z m-822 -35 c1141 -204 1865 -1332 1573 -2450 -208 -798 -892
-1381 -1720 -1466 -159 -17 -400 -5 -558 26 -757 149 -1357 713 -1544 1451
-231 910 203 1851 1043 2264 192 94 383 153 606 185 128 19 470 13 600 -10z
m-1690 -13 c20 -17 21 -19 5 -32 -13 -11 -21 -11 -36 -2 -28 18 -41 15 -81
-18 -42 -35 -55 -64 -38 -85 11 -13 25 -8 95 30 92 50 114 50 154 -1 47 -59
13 -128 -94 -191 -11 -7 -30 -12 -43 -13 -32 0 -82 27 -82 46 0 19 28 30 43
15 19 -19 59 -12 99 15 52 36 65 93 26 117 -12 8 -32 1 -88 -31 -40 -23 -83
-42 -96 -42 -34 0 -64 34 -64 73 0 40 20 69 73 108 46 34 94 38 127 11z m2980
-141 c56 -51 63 -61 51 -75 -12 -14 -21 -9 -85 49 l-73 65 -27 -29 -28 -29 47
-43 c25 -23 54 -48 63 -55 15 -12 16 -14 1 -29 -14 -14 -21 -10 -76 40 l-61
55 -47 -52 c-42 -47 -47 -50 -62 -35 -14 14 -7 25 82 126 l98 110 26 -19 c14
-11 55 -46 91 -79z m-3235 -76 c17 -14 18 -17 4 -31 -13 -12 -20 -13 -43 -3
-24 11 -29 10 -62 -22 -20 -19 -40 -43 -44 -54 -8 -20 4 -55 19 -55 5 0 36 22
70 50 35 27 71 52 82 55 30 10 78 -14 94 -46 28 -52 17 -88 -43 -151 -48 -50
-89 -64 -136 -44 -39 16 -44 27 -21 46 12 10 19 10 27 2 24 -24 65 -13 102 28
37 42 47 85 24 108 -21 21 -41 13 -107 -38 -74 -58 -108 -64 -140 -24 -36 46
-22 94 48 157 45 41 90 48 126 22z m3472 -178 c65 -36 93 -130 54 -178 -20
-24 -20 -24 -35 -4 -13 18 -13 22 1 37 32 36 -21 118 -76 118 -44 0 -135 -76
-138 -116 -5 -55 57 -103 110 -85 30 11 46 3 47 -21 0 -14 -39 -28 -75 -28
-28 0 -45 8 -76 38 -77 73 -71 137 22 206 50 38 68 46 102 46 23 -1 52 -6 64
-13z m-3731 -41 c3 -9 -18 -47 -50 -90 l-55 -75 31 -25 32 -25 50 69 c39 55
52 67 63 59 19 -16 18 -21 -33 -89 -25 -34 -44 -63 -42 -64 2 -1 16 -12 32
-24 16 -12 32 -22 36 -22 6 0 97 117 116 148 6 10 34 -13 30 -25 -16 -40 -122
-173 -139 -173 -14 0 -179 110 -235 155 -7 6 134 194 146 194 7 1 15 -5 18
-13z m-176 -267 c0 -5 -20 -47 -45 -92 l-45 -83 36 -18 c20 -9 38 -16 39 -14
1 2 17 32 35 68 39 79 34 73 60 65 20 -6 20 -9 -20 -82 -23 -41 -40 -76 -38
-78 2 -1 27 -14 56 -29 49 -25 65 -47 42 -61 -12 -8 -260 122 -260 136 0 9 66
136 96 186 13 21 44 22 44 2z m4129 -8 c11 -20 9 -23 -118 -204 -43 -60 -57
-74 -68 -66 -18 15 -16 29 7 59 26 34 25 43 -12 105 -32 54 -32 54 -74 48 -36
-5 -44 -2 -53 16 -7 11 -10 21 -9 22 2 0 71 8 153 19 83 10 153 18 157 19 4 1
12 -8 17 -18z m145 -284 c41 -99 42 -103 21 -111 -11 -4 -21 6 -32 32 -10 20
-18 38 -19 40 0 1 -53 -20 -118 -47 -109 -46 -117 -48 -126 -31 -12 22 -14 21
115 75 50 21 94 42 99 47 6 5 3 21 -7 43 -15 32 -15 35 1 44 22 13 24 11 66
-92z m-4293 -30 c82 -39 109 -102 75 -180 -33 -79 -98 -92 -201 -42 -79 40
-104 85 -86 154 27 103 93 124 212 68z m-158 -277 c13 -11 28 -31 31 -44 l6
-25 66 25 c37 14 70 23 74 22 4 -2 4 -13 0 -24 -6 -15 -31 -30 -79 -49 -78
-30 -76 -28 -85 -71 -7 -30 -7 -30 56 -45 53 -13 62 -18 60 -34 -2 -11 -5 -21
-6 -22 -4 -4 -271 60 -279 66 -4 4 0 43 10 87 26 120 82 164 146 114z m4537
-7 c18 -16 37 -48 45 -75 12 -41 12 -50 -3 -79 -23 -45 -67 -68 -144 -76 -105
-9 -160 36 -162 134 -2 76 63 119 186 122 39 1 53 -4 78 -26z m83 -283 c4 -15
-18 -42 -96 -116 l-102 -96 70 7 c39 3 87 8 108 11 35 5 37 4 37 -20 0 -20 -5
-26 -22 -27 -13 0 -76 -6 -141 -12 -165 -17 -167 -11 -37 117 l99 98 -87 -7
c-48 -4 -94 -9 -103 -11 -19 -5 -34 35 -16 42 7 2 68 10 137 18 69 7 130 14
136 15 7 0 14 -8 17 -19z m-4663 -17 c20 -25 22 -36 17 -100 -6 -80 -4 -83 81
-83 38 0 42 -2 42 -25 0 -14 -4 -25 -9 -25 -23 0 -285 31 -288 34 -2 2 1 44 8
92 13 106 32 134 90 134 29 0 43 -6 59 -27z m106 -498 c14 -9 31 -31 39 -48
17 -43 27 -139 15 -157 -9 -15 -269 -53 -282 -41 -10 9 -22 165 -14 195 3 14
18 33 32 43 53 35 163 39 210 8z m4426 -98 c71 -13 131 -27 135 -31 16 -15
-17 -41 -130 -101 l-119 -62 49 -7 c26 -4 74 -12 106 -19 50 -10 57 -14 57
-35 0 -20 -4 -23 -22 -19 -13 3 -80 16 -151 28 -120 21 -127 23 -121 43 4 12
7 21 8 22 0 0 51 27 113 60 62 32 109 61 105 65 -4 3 -41 11 -82 18 -103 17
-110 20 -110 42 0 24 6 24 162 -4z m-4347 -176 c4 -14 -16 -48 -75 -124 -44
-58 -80 -107 -80 -110 0 -2 44 8 98 23 53 15 100 25 105 23 4 -2 7 -12 7 -22
0 -14 -26 -25 -134 -54 -73 -21 -139 -37 -145 -37 -28 0 -5 50 69 146 44 57
76 104 72 104 -4 0 -49 -11 -101 -25 -75 -20 -96 -23 -103 -13 -4 7 -6 17 -5
23 3 7 246 81 279 84 4 1 9 -8 13 -18z m4235 -131 c0 -15 -7 -20 -26 -20 -43
0 -63 -18 -79 -72 -18 -63 -5 -101 37 -106 24 -3 30 4 70 80 33 64 48 84 67
86 44 7 72 -7 87 -44 13 -32 13 -42 0 -88 -23 -78 -49 -106 -97 -106 -32 0
-40 3 -37 16 2 9 18 22 37 28 26 8 38 20 47 46 17 48 17 85 -1 100 -21 17 -31
7 -70 -70 -48 -96 -83 -117 -144 -86 -53 28 -63 83 -30 171 24 64 49 85 101
85 31 0 38 -4 38 -20z m-4156 -147 c4 -11 -4 -27 -23 -47 l-30 -31 28 -65 c28
-65 28 -65 72 -68 40 -3 58 -14 59 -34 0 -5 -74 -8 -165 -8 l-165 0 0 28 c0
20 24 53 101 135 55 59 104 107 109 107 4 0 11 -8 14 -17z m4042 -223 c59 -27
110 -50 115 -50 4 0 13 16 20 35 13 35 32 45 45 24 6 -11 -74 -199 -85 -199
-3 0 -13 4 -21 10 -12 8 -12 14 3 45 9 20 17 37 17 39 0 2 -51 27 -114 55 -95
44 -113 56 -109 72 3 10 9 19 14 19 4 0 56 -22 115 -50z m-3873 -130 c30 -50
46 -87 42 -98 -8 -25 -234 -157 -247 -144 -20 20 0 39 99 97 54 31 100 58 101
60 2 2 -15 35 -38 74 -40 66 -44 91 -17 91 7 0 34 -36 60 -80z m3705 -179
l102 -69 22 31 c12 18 22 33 23 35 4 5 35 -11 35 -18 0 -6 -95 -152 -117 -179
-2 -3 -11 2 -20 11 -14 15 -14 19 6 44 11 14 21 30 21 34 0 4 -45 38 -100 75
-93 64 -110 82 -93 98 11 12 16 9 121 -62z m-3566 -97 l-20 -39 47 -52 46 -52
43 12 c36 10 45 9 52 -3 6 -8 10 -17 10 -20 0 -10 -291 -92 -306 -86 -24 9
-16 41 48 180 61 132 63 135 81 117 18 -18 18 -19 -1 -57z m3404 -4 c7 0 52
-34 99 -76 69 -61 83 -79 74 -90 -6 -8 -14 -14 -18 -14 -3 0 -42 32 -86 70
-93 81 -119 87 -159 39 -14 -17 -26 -39 -26 -50 0 -25 26 -75 44 -86 7 -4 37
-30 66 -56 49 -44 52 -49 37 -64 -14 -15 -22 -10 -92 53 -80 71 -95 94 -95
145 0 70 75 148 128 133 8 -2 20 -4 28 -4z m-3178 -183 c9 -10 1 -25 -33 -64
l-44 -51 58 -50 58 -51 46 52 c41 47 47 51 61 37 14 -14 7 -26 -80 -125 -52
-61 -99 -111 -103 -113 -4 -1 -14 4 -21 13 -11 14 -8 21 23 53 21 21 37 43 37
49 0 6 -24 32 -52 58 l-53 46 -41 -45 c-36 -41 -42 -45 -59 -32 -17 12 -12 21
80 125 54 61 101 111 105 111 4 0 12 -6 18 -13z m2934 -94 c24 -26 62 -68 85
-93 l42 -45 30 29 c28 27 51 28 51 2 0 -13 -145 -146 -160 -146 -23 0 -17 33
11 58 l30 27 -85 96 c-63 72 -82 99 -73 108 17 17 24 14 69 -36z m-79 -182
c43 -63 76 -116 73 -118 -2 -2 -46 -33 -97 -69 -84 -58 -95 -63 -109 -49 -10
11 -12 18 -4 23 6 4 43 29 82 56 l72 49 -20 31 c-11 17 -25 30 -32 28 -6 -2
-37 -21 -69 -44 -55 -38 -79 -42 -79 -14 0 8 29 33 65 56 36 23 65 44 65 47 0
2 -12 20 -26 39 l-26 34 -81 -56 c-60 -41 -82 -52 -88 -42 -5 7 -9 16 -9 20 0
12 175 128 190 126 8 -2 50 -54 93 -117z m-2565 43 c2 -1 -28 -50 -67 -108
l-71 -106 35 -22 c39 -26 41 -30 20 -48 -11 -10 -30 -1 -99 47 -47 32 -86 60
-86 63 0 3 4 11 9 19 7 11 15 10 46 -9 23 -14 40 -19 44 -13 3 6 35 53 71 106
54 78 68 93 80 84 8 -6 16 -12 18 -13z m562 -314 c0 -48 2 -50 39 -70 57 -29
58 -38 7 -61 -39 -17 -46 -25 -52 -57 -11 -64 -17 -67 -53 -26 -32 36 -34 36
-87 31 -30 -3 -54 -4 -54 -1 0 2 12 23 26 46 l26 42 -20 48 -21 49 57 -6 c54
-6 58 -5 86 24 17 17 33 31 38 31 4 0 8 -22 8 -50z m1279 17 c31 -33 34 -34
76 -24 25 6 48 8 51 5 3 -4 -3 -26 -14 -50 l-19 -44 23 -34 c35 -53 32 -59
-30 -53 -52 5 -54 5 -81 -31 -15 -20 -31 -36 -35 -36 -5 0 -11 22 -15 48 -6
46 -9 50 -57 74 l-52 25 45 24 c41 22 45 28 53 77 5 28 12 52 15 52 4 0 22
-15 40 -33z m-619 -122 c9 -23 45 -35 101 -35 16 0 29 -3 29 -7 0 -4 -19 -26
-41 -49 l-41 -42 10 -59 c5 -32 8 -60 5 -63 -2 -2 -28 8 -57 24 l-52 28 -53
-27 c-29 -14 -55 -25 -57 -23 -2 2 1 29 5 59 l9 54 -44 46 c-47 48 -48 59 -4
59 69 0 86 10 114 67 l27 56 21 -33 c11 -18 24 -43 28 -55z"/>
<path d="M3398 5359 c-25 -14 -38 -42 -48 -107 -12 -69 3 -98 54 -108 47 -8
60 1 41 30 -14 21 -14 25 1 37 14 11 19 10 34 -9 17 -20 19 -21 24 -5 11 39
18 112 12 131 -11 33 -83 52 -118 31z"/>
<path d="M2008 5124 c-52 -28 -60 -70 -27 -137 40 -79 68 -93 128 -62 49 25
54 68 15 141 -39 75 -63 87 -116 58z"/>
<path d="M2882 4894 c-355 -43 -701 -189 -972 -409 -77 -63 -231 -218 -293
-295 -207 -258 -349 -591 -398 -935 -17 -116 -17 -384 0 -500 49 -342 184
-662 393 -930 58 -73 212 -229 293 -295 250 -203 534 -334 865 -397 77 -15
143 -18 345 -17 234 0 258 2 373 28 758 168 1321 735 1477 1488 45 216 45 539
0 755 -120 578 -498 1065 -1028 1327 -321 158 -700 223 -1055 180z m420 -65
c704 -74 1316 -569 1542 -1249 173 -519 95 -1114 -204 -1570 -279 -424 -690
-702 -1195 -806 -114 -24 -154 -27 -330 -28 -220 -1 -326 13 -510 65 -497 139
-924 496 -1151 964 -188 388 -233 830 -128 1247 131 522 495 968 980 1204 310
150 650 210 996 173z"/>
<path d="M2066 4203 c444 -543 797 -926 944 -1022 56 -37 70 -42 104 -38 21 3
62 21 90 41 152 105 528 507 935 1001 41 50 81 98 90 109 9 10 -27 -7 -78 -39
-372 -225 -884 -498 -994 -530 -50 -14 -58 -14 -103 0 -128 42 -553 272 -933
503 -74 45 -136 82 -138 82 -3 0 35 -48 83 -107z"/>
<path d="M3025 4294 c-99 -51 -140 -162 -96 -259 66 -146 282 -153 350 -13 49
102 12 221 -81 267 -53 25 -130 28 -173 5z"/>
<path d="M1903 4140 c3 -8 44 -115 91 -237 184 -478 296 -818 296 -901 0 -18
-9 -50 -19 -70 -42 -82 -219 -294 -448 -536 -57 -60 -102 -111 -100 -113 2 -1
78 28 168 66 484 202 814 371 922 473 45 43 48 79 12 156 -75 160 -394 577
-778 1012 -132 149 -152 170 -144 150z"/>
<path d="M4151 3964 c-540 -609 -825 -1002 -796 -1093 10 -32 102 -109 200
-166 137 -81 466 -241 706 -343 119 -51 219 -92 223 -92 5 0 -38 49 -95 108
-216 225 -431 489 -466 570 -11 28 -12 44 -3 90 24 119 173 545 312 891 81
203 88 221 85 221 -1 0 -76 -84 -166 -186z"/>
<path d="M1832 3224 c-180 -90 -116 -363 86 -364 120 0 198 84 190 205 -5 80
-35 126 -102 160 -64 32 -109 32 -174 -1z"/>
<path d="M4203 3221 c-52 -24 -100 -88 -108 -145 -23 -154 131 -272 270 -207
76 35 115 95 115 176 0 55 -14 92 -48 129 -59 63 -151 82 -229 47z"/>
<path d="M2261 2347 c-20 -20 -11 -32 59 -76 38 -23 72 -46 75 -51 3 -5 -52
-97 -121 -206 -69 -108 -128 -203 -130 -209 -3 -6 19 -26 47 -44 43 -26 54
-30 64 -19 7 7 67 100 135 206 67 105 126 192 131 192 5 0 41 -21 80 -47 68
-45 72 -46 85 -28 8 10 13 19 11 20 -1 2 -97 63 -214 138 -151 96 -214 132
-222 124z"/>
<path d="M3838 2301 l-47 -38 166 -216 167 -215 53 40 53 40 -28 37 c-16 20
-90 116 -166 214 -76 97 -141 177 -144 177 -4 -1 -28 -18 -54 -39z"/>
<path d="M3495 2107 c-71 -24 -120 -54 -163 -100 -76 -83 -95 -165 -63 -268
47 -150 196 -227 356 -185 47 12 70 13 99 5 43 -12 95 -5 141 18 38 19 105 83
105 100 0 17 0 17 -65 -17 -53 -28 -94 -37 -107 -24 -3 3 9 27 27 55 54 79 60
195 16 280 -31 60 -58 87 -116 117 -60 30 -168 39 -230 19z m116 -70 c99 -67
160 -263 113 -363 -33 -69 -133 -96 -201 -54 -102 62 -171 273 -120 368 38 71
140 95 208 49z"/>
<path d="M2766 2043 c-3 -10 -12 -58 -20 -108 -8 -49 -27 -155 -40 -235 -14
-80 -26 -152 -26 -161 0 -12 13 -19 48 -23 26 -4 54 -9 63 -12 12 -3 19 17 35
113 l20 118 34 -5 c83 -12 169 -5 197 16 46 35 65 68 65 117 2 93 -57 138
-229 172 -143 29 -140 29 -147 8z m202 -80 c47 -29 52 -105 11 -157 -17 -22
-29 -26 -70 -26 -58 0 -57 -2 -32 126 16 82 17 84 42 78 14 -4 36 -13 49 -21z"/>
<path d="M886 3878 c-24 -34 -20 -90 7 -116 25 -24 97 -52 133 -52 27 0 64 50
64 85 0 33 -29 65 -77 86 -61 26 -108 25 -127 -3z"/>
<path d="M5277 3605 c-61 -17 -77 -31 -77 -66 0 -42 19 -76 51 -89 35 -15 134
5 162 33 40 40 -8 138 -66 136 -12 0 -44 -7 -70 -14z"/>
<path d="M791 2800 c-18 -4 -38 -14 -43 -22 -7 -10 -3 -138 5 -144 2 -1 197
23 205 25 1 1 2 13 2 29 0 46 -20 101 -40 112 -22 12 -80 12 -129 0z"/>
<path d="M2078 5892 c-106 -58 -187 -133 -359 -329 -88 -100 -188 -204 -222
-232 -71 -59 -205 -130 -357 -191 -259 -104 -408 -195 -498 -305 -82 -101
-136 -258 -147 -425 -4 -75 -4 -74 9 20 21 147 35 198 77 288 30 66 54 99 111
156 87 87 173 138 362 218 347 145 446 209 593 378 135 155 285 310 344 356
32 24 86 58 121 74 35 17 56 30 48 30 -8 0 -45 -17 -82 -38z"/>
</g>
</svg>
