<?xml version="1.0" standalone="no"?>
<!DOCTYPE svg PUBLIC "-//W3C//DTD SVG 20010904//EN"
 "http://www.w3.org/TR/2001/REC-SVG-20010904/DTD/svg10.dtd">
<svg version="1.0" xmlns="http://www.w3.org/2000/svg"
 width="300.000000pt" height="300.000000pt" viewBox="0 0 300.000000 300.000000"
 preserveAspectRatio="xMidYMid meet">
<metadata>
Created by potrace 1.16, written by Peter Selinger 2001-2019
</metadata>
<g transform="translate(0.000000,300.000000) scale(0.100000,-0.100000)"
fill="#ffffff" stroke="none">
<path d="M958 2122 c-62 -94 -91 -196 -91 -322 0 -159 62 -299 181 -411 282
-265 733 -185 906 161 71 143 83 282 37 430 -21 68 -78 171 -97 177 -8 3 -13
-35 -16 -119 -9 -207 -75 -370 -203 -499 -35 -36 -84 -72 -122 -91 -56 -27
-70 -30 -127 -26 -86 7 -152 45 -232 132 -118 127 -183 295 -189 486 -2 63 -8
116 -13 118 -5 1 -20 -15 -34 -36z"/>
<path d="M1059 993 c-23 -4 -31 -16 -64 -106 -44 -115 -33 -118 -89 31 -26 67
-30 72 -57 72 -16 0 -29 -4 -29 -9 0 -5 25 -70 56 -145 49 -118 59 -136 79
-136 19 0 30 18 79 138 31 75 59 143 63 150 3 6 1 11 -3 11 -5 -1 -21 -4 -35
-6z"/>
<path d="M2709 986 c-35 -20 -53 -64 -40 -99 11 -29 59 -63 102 -72 33 -8 43
-29 23 -50 -20 -19 -58 -19 -78 0 -13 13 -19 13 -36 3 -68 -43 62 -93 139 -53
33 16 41 33 41 79 0 40 -21 61 -83 82 -51 17 -64 36 -41 59 19 19 44 19 71 0
18 -13 22 -12 39 6 16 18 16 21 2 36 -23 22 -106 27 -139 9z"/>
<path d="M140 878 c0 -92 4 -117 18 -134 24 -30 55 -44 97 -44 90 0 125 56
125 200 l0 90 -30 0 -30 0 0 -100 c0 -87 -3 -103 -20 -120 -23 -23 -58 -26
-86 -6 -16 12 -19 29 -22 120 -4 104 -4 106 -28 106 -24 0 -24 0 -24 -112z"/>
<path d="M420 845 l0 -145 30 0 30 0 0 107 0 106 73 -104 c64 -92 76 -104 105
-107 l32 -3 0 145 0 146 -30 0 -29 0 -3 -96 -3 -95 -68 95 c-63 90 -70 96
-102 96 l-35 0 0 -145z"/>
<path d="M740 845 l0 -145 30 0 30 0 0 145 0 145 -30 0 -30 0 0 -145z"/>
<path d="M1110 845 l0 -145 105 0 105 0 0 30 0 30 -78 0 -79 0 5 30 c4 30 5
30 68 30 l64 0 0 30 0 30 -67 0 -68 0 0 30 0 30 73 0 c70 0 72 1 72 25 l0 25
-100 0 -100 0 0 -145z"/>
<path d="M1350 846 l0 -146 30 0 30 0 0 107 0 106 73 -104 c64 -92 76 -104
105 -107 l32 -3 0 145 0 146 -30 0 -29 0 -3 -96 -3 -96 -65 94 c-61 86 -68 93
-103 96 l-37 3 0 -145z"/>
<path d="M1640 965 c0 -23 3 -25 48 -25 l47 0 -3 -120 -3 -120 30 0 31 0 0
120 0 120 45 0 c41 0 45 2 45 25 l0 25 -120 0 -120 0 0 -25z"/>
<path d="M1902 874 l3 -116 33 -29 c26 -24 41 -29 82 -29 41 0 56 5 82 29 l33
29 3 116 4 116 -31 0 -31 0 0 -103 c0 -114 -10 -137 -62 -137 -47 0 -58 26
-58 138 l0 102 -31 0 -31 0 4 -116z"/>
<path d="M2190 845 l0 -145 31 0 31 0 -4 60 c-4 80 17 81 64 3 29 -49 39 -58
66 -61 18 -2 32 1 32 6 0 5 -18 34 -40 65 -22 32 -36 57 -31 57 4 0 20 11 35
25 34 32 35 77 1 110 -22 22 -32 25 -105 25 l-80 0 0 -145z"/>
<path d="M2430 845 l0 -145 105 0 105 0 0 30 0 30 -75 0 -75 0 0 30 0 30 70 0
70 0 0 30 0 30 -70 0 -70 0 0 30 0 30 75 0 c73 0 75 1 75 25 l0 25 -105 0
-105 0 0 -145z"/>
</g>
</svg>
