<?xml version="1.0" standalone="no"?>
<!DOCTYPE svg PUBLIC "-//W3C//DTD SVG 20010904//EN"
 "http://www.w3.org/TR/2001/REC-SVG-20010904/DTD/svg10.dtd">
<svg version="1.0" xmlns="http://www.w3.org/2000/svg"
 width="512.000000pt" height="512.000000pt" viewBox="0 0 512.000000 512.000000"
 preserveAspectRatio="xMidYMid meet">
<metadata>
Created by potrace 1.16, written by Peter Selinger 2001-2019
</metadata>
<g transform="translate(0.000000,512.000000) scale(0.100000,-0.100000)"
fill="#ffffff" stroke="none">
<path d="M2430 4744 c-14 -2 -65 -9 -115 -15 -355 -44 -732 -208 -1035 -449
-110 -88 -288 -271 -371 -382 -578 -775 -571 -1820 18 -2590 197 -257 453
-464 758 -613 330 -161 618 -223 995 -212 333 9 597 74 885 217 646 320 1086
942 1175 1660 15 126 12 412 -6 542 -134 977 -912 1731 -1896 1837 -90 10
-351 13 -408 5z m531 -142 c411 -75 778 -264 1068 -551 333 -328 535 -740 592
-1204 19 -161 7 -473 -26 -627 -181 -866 -870 -1501 -1745 -1610 -122 -15
-361 -12 -493 5 -294 39 -585 145 -826 302 -128 83 -195 136 -310 248 -324
312 -519 685 -598 1140 -23 139 -24 481 0 620 77 449 275 828 593 1135 325
314 723 504 1174 559 119 15 448 5 571 -17z"/>
<path d="M2380 4570 c-371 -52 -719 -200 -1000 -427 -101 -82 -263 -250 -337
-350 -357 -481 -479 -1085 -334 -1654 198 -783 838 -1357 1641 -1475 171 -25
490 -15 655 20 819 173 1433 820 1561 1646 23 145 23 421 0 565 -134 852 -772
1507 -1616 1660 -110 20 -466 29 -570 15z m570 -45 c606 -110 1124 -495 1397
-1039 98 -196 154 -368 189 -586 22 -140 22 -427 0 -570 -125 -807 -731 -1448
-1531 -1616 -151 -32 -456 -44 -623 -24 -740 86 -1383 618 -1611 1334 -192
599 -78 1260 302 1761 314 413 779 681 1307 755 104 14 460 5 570 -15z"/>
<path d="M2376 4388 c-4 -29 -9 -72 -12 -95 -6 -39 -4 -43 14 -43 14 0 22 8
24 23 4 30 44 36 53 8 6 -19 45 -31 45 -14 0 4 -14 44 -31 90 -29 76 -34 83
-59 83 -26 0 -28 -4 -34 -52z"/>
<path d="M2838 4350 c-8 -50 -12 -92 -10 -95 3 -3 14 -5 24 -5 12 0 18 7 18
24 0 38 10 56 32 56 19 0 20 -4 14 -46 -5 -43 -5 -45 16 -42 20 3 24 13 35 73
16 97 16 105 -6 105 -13 0 -20 -9 -24 -30 -5 -23 -12 -30 -30 -30 -20 0 -22 4
-19 40 4 34 1 40 -15 40 -17 0 -22 -12 -35 -90z"/>
<path d="M2287 4422 c-13 -3 -16 -10 -11 -30 11 -44 10 -46 -14 -50 -18 -3
-23 2 -28 27 -8 36 -15 43 -34 31 -11 -7 -11 -22 5 -94 15 -73 21 -86 37 -86
18 0 20 5 14 45 -7 43 -6 45 18 45 19 0 26 -5 26 -19 0 -33 11 -51 31 -51 10
0 19 2 19 4 0 14 -33 163 -39 171 -3 6 -14 9 -24 7z"/>
<path d="M3006 4318 c-39 -73 -43 -84 -28 -89 11 -5 23 1 33 14 21 26 49 16
49 -18 0 -18 5 -25 19 -25 18 0 20 9 23 88 2 48 1 90 -2 93 -3 4 -15 10 -27
13 -19 6 -27 -3 -67 -76z"/>
<path d="M3140 4279 c-25 -65 -29 -84 -18 -90 22 -14 26 -11 47 49 l21 57 -6
-67 c-8 -85 6 -89 55 -18 19 28 35 50 37 50 1 0 -8 -26 -21 -57 -20 -50 -21
-59 -8 -67 8 -4 18 -4 22 0 12 13 61 142 61 159 0 24 -49 31 -65 9 -45 -63
-46 -63 -39 -8 6 48 5 52 -17 57 -13 4 -27 7 -31 7 -3 0 -21 -37 -38 -81z"/>
<path d="M3329 4199 c-22 -45 -39 -82 -37 -84 14 -12 71 -35 87 -35 23 0 56
43 48 63 -3 8 3 21 14 30 20 17 24 43 11 63 -7 11 -65 44 -76 44 -3 0 -24 -36
-47 -81z"/>
<path d="M1761 4241 c-12 -8 -12 -14 -2 -39 21 -51 -18 -77 -41 -27 -11 25
-32 33 -43 15 -3 -5 13 -45 35 -90 37 -73 42 -79 60 -70 20 11 20 11 0 49 -17
34 -18 40 -4 45 26 10 31 7 44 -24 13 -32 37 -40 46 -16 4 11 -71 167 -79 166
-1 0 -8 -4 -16 -9z"/>
<path d="M2395 4115 c-332 -52 -621 -201 -855 -438 -209 -212 -347 -470 -412
-771 -32 -147 -32 -436 0 -583 67 -310 203 -564 417 -778 173 -172 372 -296
595 -369 167 -55 239 -67 430 -73 202 -6 344 13 510 67 388 127 713 407 897
773 245 488 198 1094 -119 1542 -76 108 -236 272 -338 347 -203 150 -434 246
-683 282 -123 19 -329 19 -442 1z m545 -48 c419 -100 762 -354 974 -722 239
-415 253 -962 37 -1392 -164 -327 -461 -597 -801 -728 -164 -64 -281 -86 -480
-92 -214 -7 -340 10 -513 68 -515 170 -880 578 -999 1117 -18 81 -22 129 -22
297 0 184 2 210 28 320 140 603 617 1052 1221 1150 142 23 420 14 555 -18z"/>
<path d="M2383 4010 c-67 -14 -115 -44 -307 -189 -283 -214 -367 -265 -510
-311 l-66 -22 0 -81 c1 -445 137 -969 351 -1350 191 -340 399 -574 730 -820
l36 -27 100 74 c463 345 802 887 944 1506 44 194 62 347 63 533 l1 167 -81 29
c-135 46 -222 101 -515 325 -79 60 -170 121 -202 137 -112 53 -206 47 -276
-17 l-39 -34 -16 25 c-32 49 -126 73 -213 55z m108 -90 c-21 -76 56 -134 107
-80 l19 20 18 -20 c24 -26 69 -26 96 1 17 17 20 29 15 60 l-6 39 53 0 c76 0
123 -27 348 -197 217 -164 339 -241 448 -281 l73 -27 -6 -140 c-25 -571 -235
-1139 -577 -1562 -90 -111 -258 -277 -368 -361 l-94 -72 -36 27 c-147 109
-338 295 -448 435 -272 344 -458 786 -527 1253 -18 118 -39 402 -31 415 3 5
22 14 43 21 116 37 263 129 512 319 178 136 245 172 315 168 39 -2 49 -6 46
-18z"/>
<path d="M2349 3897 c-44 -22 -153 -100 -359 -257 -112 -85 -249 -165 -343
-201 l-58 -22 6 -101 c37 -596 213 -1091 538 -1521 123 -162 455 -476 490
-462 33 12 183 141 287 246 293 295 501 658 624 1089 58 202 107 519 106 687
l-1 60 -137 67 c-115 56 -172 94 -352 229 -226 170 -291 209 -353 209 -34 0
-37 -2 -32 -22 14 -60 -68 -118 -120 -84 -23 15 -28 15 -55 1 -40 -21 -54 -19
-89 11 -24 19 -31 34 -31 60 0 33 -1 34 -38 34 -21 0 -59 -10 -83 -23z m559
-39 c20 -12 118 -84 217 -159 203 -153 280 -204 378 -249 37 -18 67 -34 67
-37 0 -2 -25 -40 -56 -83 l-56 -78 -79 62 c-141 112 -300 190 -482 239 l-87
23 54 66 55 66 -110 18 c-119 20 -138 35 -76 64 21 10 39 30 52 58 19 41 22
43 53 38 18 -2 50 -15 70 -28z m-123 -148 c103 -19 100 -17 62 -59 -79 -87
-151 -212 -187 -324 l-21 -66 -67 55 c-82 68 -276 165 -387 194 -44 11 -117
24 -162 27 -46 3 -83 9 -83 13 0 14 174 97 255 123 69 22 122 32 260 51 48 7
265 -3 330 -14z m118 -179 c162 -42 322 -121 459 -229 l70 -55 -53 -29 c-30
-16 -91 -55 -137 -88 l-83 -60 -102 44 c-122 52 -242 91 -331 107 -44 8 -66
17 -66 26 0 8 12 49 26 91 32 98 99 212 123 212 10 0 52 -9 94 -19z m-905 -74
c46 -69 50 -87 26 -111 -25 -26 -74 -19 -134 19 -96 62 -146 38 -130 -60 15
-85 12 -111 -16 -144 -22 -26 -86 -52 -99 -40 -2 2 -6 21 -10 41 l-7 37 41 -2
c67 -2 76 15 76 141 l0 107 30 3 c24 2 46 -8 99 -48 38 -27 74 -50 80 -50 6 0
22 7 34 16 34 23 28 58 -19 109 -25 27 -36 45 -27 45 8 0 33 -28 56 -63z m131
-118 l73 -180 -50 -52 c-28 -29 -59 -62 -69 -75 l-19 -24 -63 144 c-35 79 -65
149 -68 156 -4 9 1 10 22 2 37 -14 40 -13 74 16 40 34 39 60 -4 125 -20 28
-38 56 -41 61 -3 4 12 8 33 8 l39 0 73 -181z m163 115 l67 -25 -29 -46 c-16
-25 -39 -76 -51 -112 -12 -36 -24 -70 -27 -75 -2 -4 -31 57 -63 135 -82 199
-80 181 -17 163 29 -8 83 -26 120 -40z m-568 -107 c9 -117 5 -127 -45 -127
-48 0 -59 21 -59 115 l0 64 43 20 c23 11 45 20 48 20 4 1 9 -41 13 -92z m782
-8 c39 -27 81 -60 93 -73 l23 -24 -99 -1 c-86 0 -121 -6 -230 -37 -23 -6 -23
-6 -9 32 24 67 46 115 69 149 21 33 22 33 52 18 16 -9 62 -38 101 -64z m-444
-449 c119 -267 217 -489 217 -494 1 -16 -94 5 -110 24 -10 11 -20 55 -27 112
-6 51 -16 110 -22 131 -13 46 -73 115 -106 123 -13 3 -26 14 -29 23 -3 10 -17
29 -31 42 -19 18 -27 21 -33 10 -7 -10 -13 -10 -29 -2 -42 22 -52 50 -53 151
-1 52 -4 106 -9 120 l-7 25 -8 -30 c-4 -16 -16 -59 -27 -95 -27 -92 -25 -170
6 -226 22 -40 23 -45 8 -53 -15 -9 -15 -12 1 -45 20 -43 47 -48 47 -8 1 26 1
26 16 7 12 -16 16 -17 23 -6 5 8 11 9 15 3 3 -5 19 -8 36 -6 16 2 30 -1 30 -6
0 -6 -15 -10 -34 -10 -19 0 -57 -11 -85 -24 -52 -24 -59 -40 -12 -30 21 5 24
4 14 -7 -18 -18 -16 -40 2 -33 11 5 15 -1 15 -20 0 -14 10 -36 22 -48 l22 -22
7 26 c11 43 19 51 35 37 20 -17 17 -78 -6 -122 -11 -21 -18 -42 -15 -47 3 -5
1 -18 -4 -29 -8 -14 -6 -28 5 -52 29 -63 39 -77 78 -108 45 -36 31 -40 -52
-16 -49 15 -54 20 -82 75 -101 200 -199 530 -235 792 l-6 46 42 7 c23 4 54 19
73 35 l31 29 -3 106 -3 106 33 -3 33 -3 217 -485z m1538 265 c-6 -60 -16 -138
-21 -173 l-11 -63 -176 -189 c-96 -105 -177 -188 -179 -186 -7 7 45 125 82
185 19 33 56 82 80 109 l45 50 -47 38 c-27 21 -50 39 -51 40 -2 2 61 93 140
204 l143 201 3 -53 c2 -29 -1 -102 -8 -163z m-870 45 c54 -11 138 -34 187 -51
117 -41 322 -147 407 -210 l68 -51 -29 -31 c-44 -47 -90 -118 -128 -200 -31
-65 -44 -106 -60 -189 -5 -27 -5 -26 -57 28 -75 79 -159 140 -263 190 -211
102 -421 112 -587 28 -63 -32 -55 -40 -134 137 -65 147 -66 142 13 229 45 51
118 94 202 121 80 26 254 25 381 -1z m694 8 c-11 -18 -135 -191 -144 -201 -4
-5 -29 5 -55 21 l-48 30 69 51 c56 41 169 110 182 111 2 0 0 -6 -4 -12z m96
-495 c-51 -195 -168 -493 -192 -493 -5 0 -18 5 -29 11 -19 10 -19 12 16 51 60
66 81 133 49 159 -14 12 -13 16 15 39 29 23 81 135 81 174 0 7 -20 -6 -44 -28
-24 -23 -63 -52 -87 -65 l-44 -25 28 34 c34 40 229 250 233 250 1 0 -10 -48
-26 -107z m-835 17 c88 -23 218 -82 283 -130 31 -23 42 -39 42 -58 0 -15 6
-55 13 -89 l13 -61 -72 66 c-82 75 -154 122 -246 160 -83 33 -216 41 -306 18
-35 -9 -66 -16 -68 -16 -2 0 -4 24 -4 54 0 54 0 54 38 64 67 18 222 14 307 -8z
m-335 -213 c12 -40 30 -87 41 -105 25 -43 25 -44 -13 -40 -30 3 -34 8 -94 143
-35 77 -63 143 -63 147 -1 4 20 19 47 32 l47 24 7 -65 c3 -35 16 -97 28 -136z
m278 107 c21 -6 22 -10 22 -145 l0 -139 -27 6 c-16 4 -29 7 -29 8 -4 2 -114
265 -114 270 0 8 119 7 148 0z m-147 -137 c31 -72 56 -133 55 -134 0 0 -23 1
-49 4 -47 6 -49 7 -76 62 -25 49 -61 151 -61 172 0 7 45 27 65 28 6 0 35 -59
66 -132z m294 85 c38 -19 145 -93 145 -100 0 -3 -19 -34 -41 -69 l-41 -63 -63
0 -62 0 -7 61 c-3 34 -6 93 -6 131 0 77 1 78 75 40z m621 -36 c-15 -26 -38
-48 -56 -56 -30 -12 -30 -13 -10 -27 38 -27 19 -103 -43 -170 -17 -19 -31 -23
-79 -23 -50 0 -63 -4 -85 -26 l-26 -26 24 -15 24 -14 -25 7 c-14 3 -60 22
-104 41 -63 28 -87 34 -120 30 -65 -9 -115 -80 -63 -90 16 -3 13 -5 -10 -6
-22 -1 -65 16 -128 49 -118 62 -157 65 -210 18 -31 -26 -34 -33 -21 -40 9 -5
16 -14 16 -20 0 -19 -77 0 -173 44 -106 48 -174 59 -211 34 -23 -15 -56 -13
-56 3 0 4 15 15 34 23 18 9 50 31 71 49 l36 32 107 -27 c153 -39 303 -56 493
-56 203 0 366 15 436 42 54 20 93 57 93 88 0 28 -34 52 -64 44 -14 -3 -26 -3
-26 1 0 23 29 48 89 80 38 20 77 46 87 57 29 31 29 3 0 -46z m-1104 -347 c115
-51 169 -64 198 -49 15 8 21 19 19 38 -8 71 55 71 187 2 91 -48 124 -57 158
-44 20 8 21 43 1 51 -14 5 -14 8 1 24 23 26 84 25 137 -3 75 -38 140 -57 159
-47 22 12 23 23 3 42 -20 20 -9 27 42 27 43 0 140 -39 116 -47 -6 -2 -25 3
-42 11 -41 22 -68 20 -81 -4 -9 -16 -8 -22 5 -26 8 -3 15 -11 15 -16 0 -23
-135 -2 -209 32 -68 31 -73 32 -89 16 -15 -15 -15 -18 -2 -27 13 -8 11 -13
-13 -34 -22 -19 -39 -25 -77 -25 -59 0 -85 9 -174 62 -76 46 -101 44 -101 -8
0 -64 -102 -69 -232 -10 -74 33 -105 41 -147 38 -14 -2 -17 -7 -12 -26 3 -14
1 -28 -7 -34 -34 -27 -174 -24 -203 5 -21 21 -18 36 5 24 30 -17 123 -24 154
-12 31 12 37 45 10 60 -16 9 -15 11 7 19 35 14 72 5 172 -39z m34 -91 c89 -28
185 -29 239 -3 40 20 41 20 95 1 79 -28 200 -27 263 1 45 21 49 21 85 5 27
-12 66 -17 145 -17 117 0 141 -15 41 -27 -68 -8 -145 -1 -190 17 -27 11 -39
10 -85 -6 -66 -23 -183 -25 -260 -5 -49 13 -61 13 -100 -1 -55 -19 -203 -13
-269 11 -29 11 -46 13 -48 6 -8 -24 -70 -43 -152 -47 -75 -4 -86 -3 -96 13
-10 18 -6 19 71 20 84 0 139 15 149 40 7 19 32 18 112 -8z m777 -105 c65 -4
97 -9 94 -17 -5 -15 -128 -20 -187 -7 -36 8 -58 7 -96 -5 -65 -20 -219 -29
-267 -16 -28 8 -46 8 -65 0 -43 -18 -209 -14 -264 6 -44 15 -51 15 -96 1 -56
-19 -163 -17 -170 3 -3 9 12 12 54 12 32 0 84 7 116 16 53 15 60 15 99 0 67
-27 156 -31 224 -11 51 14 67 15 117 5 69 -15 187 -8 243 13 22 9 54 13 70 11
17 -2 74 -7 128 -11z m-483 -303 c190 11 337 -4 327 -33 -2 -7 -13 -11 -23 -9
-10 1 -52 8 -92 14 -54 8 -93 8 -145 0 -48 -7 -88 -7 -122 -1 -54 10 -135 4
-204 -17 -44 -13 -61 -11 -61 6 0 21 174 53 235 42 17 -2 55 -3 85 -2z"/>
<path d="M3572 4058 c-47 -65 -50 -74 -36 -85 14 -10 20 -8 37 15 12 15 22 29
24 31 2 3 11 -2 19 -11 15 -15 15 -19 -2 -47 -16 -28 -17 -33 -4 -41 8 -5 18
-10 21 -10 10 0 40 71 34 81 -4 5 1 9 9 9 25 0 49 45 37 68 -9 17 -69 62 -83
62 -3 0 -28 -33 -56 -72z"/>
<path d="M3805 3909 c-68 -60 -75 -109 -21 -144 33 -22 56 -13 105 40 47 51
51 76 16 110 -32 33 -57 31 -100 -6z"/>
<path d="M1275 3875 c-38 -37 -32 -66 25 -119 27 -25 56 -46 65 -46 25 0 65
46 65 76 0 33 -79 114 -111 114 -11 0 -31 -11 -44 -25z"/>
<path d="M4127 3464 c-63 -33 -76 -61 -50 -106 25 -43 41 -45 107 -15 70 32
83 55 59 105 -23 47 -51 51 -116 16z"/>
<path d="M935 3330 c-21 -40 -19 -57 9 -76 23 -15 27 -14 69 10 24 14 49 26
56 26 23 0 6 -34 -19 -40 -31 -7 -33 -34 -2 -38 47 -7 84 54 57 94 -19 30 -58
31 -92 4 -30 -24 -53 -26 -53 -5 0 8 9 15 19 15 16 0 31 18 31 36 0 2 -13 4
-30 4 -23 0 -33 -7 -45 -30z"/>
<path d="M4198 3317 c-74 -30 -95 -51 -64 -63 7 -3 39 6 70 20 31 14 56 24 56
22 0 -2 -25 -20 -55 -40 -75 -49 -74 -69 3 -62 l57 6 -47 -21 c-45 -20 -60
-41 -39 -53 6 -4 149 46 169 59 1 1 -2 15 -8 30 -10 27 -13 27 -63 22 -51 -6
-52 -5 -28 11 61 42 64 45 50 75 -7 15 -15 27 -18 26 -3 -1 -41 -15 -83 -32z"/>
<path d="M898 3203 c-14 -16 -41 -93 -35 -99 2 -2 167 -54 171 -54 2 0 6 8 9
19 3 15 -4 21 -34 30 -35 11 -38 14 -28 32 9 17 17 19 50 14 34 -6 39 -4 39
13 0 21 -25 32 -71 32 -15 0 -32 7 -39 15 -17 20 -43 19 -62 -2z"/>
<path d="M4300 3128 c-19 -5 -52 -14 -72 -19 -28 -7 -38 -15 -38 -29 0 -24 14
-25 70 -5 67 24 70 17 8 -16 -78 -40 -77 -59 5 -60 l62 -1 -57 -15 c-60 -16
-64 -19 -49 -41 12 -19 184 25 177 45 -4 8 -6 21 -6 29 0 10 -15 14 -57 14
l-58 1 48 25 c34 18 47 30 43 40 -3 9 -6 22 -6 30 0 16 -19 17 -70 2z"/>
<path d="M4298 2783 c-40 -3 -48 -8 -48 -24 0 -16 7 -19 41 -19 36 0 40 -2 37
-22 -2 -18 -11 -24 -35 -26 -27 -3 -33 -8 -33 -26 0 -22 2 -23 43 -14 43 9 48
9 93 7 34 -2 44 15 44 79 l0 52 -47 -2 c-27 -1 -69 -3 -95 -5z"/>
<path d="M792 2679 c2 -20 10 -25 48 -29 l45 -5 -47 -18 c-39 -15 -48 -23 -48
-43 0 -24 1 -24 90 -24 83 0 90 1 90 20 0 17 -7 20 -52 20 l-53 1 55 23 c38
17 56 30 58 45 3 19 -2 21 -40 21 -24 0 -67 3 -96 7 -52 6 -54 5 -50 -18z"/>
<path d="M730 2506 c0 -24 3 -26 48 -26 134 0 195 -25 156 -64 -12 -12 -37
-16 -110 -16 -94 0 -94 0 -94 -25 l0 -25 105 0 c99 0 107 2 130 25 31 30 34
92 6 126 -18 22 -28 24 -130 27 l-111 4 0 -26z"/>
<path d="M874 2242 c-8 -20 -24 -54 -36 -76 -22 -42 -19 -49 32 -63 14 -3 39
-15 55 -25 41 -25 51 -23 65 15 6 17 21 48 31 68 10 20 19 39 19 43 0 6 -80
48 -128 67 -21 8 -25 5 -38 -29z"/>
<path d="M4258 2243 c-38 -20 -68 -41 -68 -47 0 -6 8 -23 17 -36 10 -14 27
-44 38 -68 l20 -44 35 24 c19 13 50 30 68 37 18 8 35 17 38 22 5 8 -67 149
-76 148 -3 0 -35 -16 -72 -36z"/>
<path d="M1040 1981 c-5 -11 -7 -26 -4 -34 8 -22 -24 -29 -50 -12 -49 32 -104
-23 -76 -75 9 -17 19 -21 45 -18 32 4 32 3 23 -27 -5 -16 -12 -37 -15 -47 -3
-10 3 -20 14 -27 16 -8 39 -1 114 34 93 44 107 57 90 83 -6 11 -21 7 -69 -17
-34 -17 -66 -31 -72 -31 -5 0 -10 13 -10 30 0 26 7 33 50 55 42 21 50 30 50
53 0 15 -5 33 -12 40 -19 19 -66 15 -78 -7z"/>
<path d="M4126 1963 c-11 -27 -6 -31 65 -59 38 -15 72 -31 75 -35 2 -4 0 -19
-6 -34 -13 -34 -45 -30 -45 5 -1 20 -6 25 -25 24 -14 -1 -31 7 -38 17 -7 11
-19 19 -27 19 -22 0 -45 -29 -45 -56 0 -19 8 -29 35 -40 20 -8 40 -12 45 -9 5
3 22 -3 37 -14 56 -39 67 -36 91 22 23 55 28 92 13 101 -5 3 -45 21 -89 40
-67 29 -81 32 -86 19z"/>
<path d="M1135 1764 c-9 -10 -14 -26 -12 -36 4 -14 -8 -28 -48 -54 -48 -32
-53 -38 -42 -55 7 -12 18 -17 27 -13 21 9 130 18 130 10 0 -3 -22 -20 -50 -37
-27 -17 -50 -37 -50 -45 0 -30 30 -24 89 15 33 23 64 41 70 41 20 0 33 38 21
61 -10 18 -17 20 -61 14 -55 -8 -60 -2 -24 27 31 24 32 52 3 72 -28 20 -33 20
-53 0z"/>
<path d="M4027 1752 c-22 -25 -21 -45 3 -67 24 -22 19 -31 -9 -15 -34 17 -63
-4 -59 -43 2 -25 8 -33 26 -35 13 -2 29 2 37 8 10 8 25 4 63 -20 56 -34 67
-36 76 -14 7 18 3 25 -62 98 -23 27 -40 51 -38 54 3 2 37 -14 75 -36 69 -40
71 -40 82 -21 6 12 9 22 7 23 -46 32 -151 86 -166 86 -10 0 -26 -8 -35 -18z"/>
<path d="M3807 1633 c-4 -3 -7 -15 -7 -25 0 -12 -7 -18 -24 -18 -16 0 -26 -7
-29 -22 -4 -12 -5 -23 -4 -23 1 -1 25 1 54 3 43 3 51 7 46 20 -6 16 -5 16 13
1 179 -147 202 -159 228 -116 17 27 -5 53 -43 49 -26 -2 -47 10 -119 68 -84
68 -101 77 -115 63z"/>
<path d="M1396 1417 c-15 -11 -15 -15 -4 -24 7 -6 26 -13 42 -15 16 -1 34 -11
40 -20 16 -26 -22 -73 -60 -74 -46 -1 -51 -3 -58 -20 -8 -22 20 -64 42 -64 29
0 125 104 125 135 0 53 -89 110 -127 82z"/>
<path d="M3633 1300 c-72 -44 -71 -93 3 -167 49 -48 58 -53 71 -40 13 12 13
19 -1 52 -15 35 -15 40 0 56 9 10 13 24 9 31 -4 7 11 -6 32 -30 38 -42 56 -51
68 -32 8 12 -56 101 -92 130 -32 25 -50 25 -90 0z"/>
<path d="M1552 1288 c-15 -15 -15 -41 -1 -55 8 -8 0 -25 -27 -63 -35 -49 -37
-53 -20 -66 16 -11 27 -7 89 37 39 27 72 47 75 45 2 -3 -17 -34 -42 -69 -39
-55 -44 -66 -31 -77 19 -16 26 -10 79 64 49 69 56 95 30 120 -20 20 -38 20
-72 -1 -17 -10 -22 -11 -14 -3 15 18 16 52 0 68 -7 7 -21 12 -33 12 -12 0 -26
-5 -33 -12z"/>
<path d="M3465 1187 c-43 -24 -70 -66 -60 -97 6 -19 7 -19 49 2 66 32 87 17
62 -42 -4 -9 0 -24 8 -35 12 -16 19 -18 42 -10 38 14 41 40 13 93 -27 48 -56
61 -96 43 -14 -7 -28 -9 -31 -7 -2 3 8 10 24 16 44 15 59 26 62 44 5 22 -24
19 -73 -7z"/>
<path d="M1756 1138 c-9 -12 -16 -30 -16 -40 0 -9 -11 -34 -25 -54 -14 -20
-25 -42 -25 -49 0 -6 27 -24 61 -40 45 -22 64 -27 77 -19 9 6 35 45 57 87 34
66 38 79 25 87 -23 15 -27 13 -40 -20 -7 -16 -25 -50 -41 -75 l-29 -46 -30 16
c-26 14 -28 18 -18 35 8 13 19 18 34 14 29 -7 41 14 18 31 -18 14 -18 14 3 15
37 0 50 52 19 72 -21 15 -55 8 -70 -14z"/>
<path d="M3084 1030 c-22 -9 -64 -56 -64 -71 0 -5 9 -9 20 -9 12 0 17 -5 14
-14 -9 -23 26 -126 42 -126 24 0 27 26 10 76 -11 33 -13 51 -5 60 7 9 5 15 -8
23 -16 9 -16 12 -3 21 36 24 54 8 80 -72 22 -69 27 -77 45 -72 11 4 21 7 22 9
2 1 -8 35 -22 76 -34 99 -67 125 -131 99z"/>
<path d="M2145 988 c-26 -20 -27 -22 -9 -35 10 -7 13 -13 7 -13 -14 0 -33 -53
-33 -91 0 -51 71 -64 86 -16 6 19 8 18 18 -13 8 -24 17 -35 31 -35 16 0 22 13
37 79 17 72 17 81 3 103 -30 46 -96 56 -140 21z"/>
<path d="M2863 976 c-44 -20 -72 -76 -38 -76 8 0 12 -6 9 -14 -3 -8 0 -40 6
-71 12 -56 12 -56 43 -50 78 16 108 27 114 42 9 23 -13 143 -29 159 -21 21
-70 25 -105 10z"/>
<path d="M2361 956 c-7 -8 -12 -34 -12 -58 0 -23 -2 -64 -5 -89 l-6 -46 63 -6
c97 -9 101 -4 115 136 6 68 6 69 -17 65 -22 -3 -25 -9 -32 -78 -5 -41 -12 -79
-17 -84 -5 -5 -20 -6 -34 -2 -33 8 -36 43 -4 48 32 4 37 38 7 38 l-23 0 22 16
c24 17 29 43 10 62 -16 16 -53 15 -67 -2z"/>
<path d="M2692 948 c-7 -7 -12 -19 -12 -27 0 -9 -7 -25 -15 -35 -15 -19 -15
-19 -15 3 0 39 -18 61 -50 61 -36 0 -56 -30 -40 -60 6 -11 17 -20 25 -20 10 0
15 -10 15 -27 0 -16 3 -45 7 -66 5 -31 9 -37 27 -35 13 2 22 13 26 33 9 39 38
95 50 95 6 0 10 -27 10 -60 0 -58 1 -60 26 -60 l25 0 -4 96 c-5 97 -12 113
-47 114 -9 0 -21 -5 -28 -12z"/>
</g>
</svg>
