 <svg  version="1.0" xmlns="http://www.w3.org/2000/svg"  width="900.000000pt" height="900.000000pt" viewBox="0 0 900.000000 900.000000"  preserveAspectRatio="xMidYMid meet">  <g transform="translate(0.000000,900.000000) scale(0.100000,-0.100000)" fill="#ffffff" stroke="none"> <path d="M4290 8319 c-14 -6 -77 -13 -140 -16 -66 -3 -126 -12 -142 -19 -15 -8 -51 -14 -80 -14 -29 0 -73 -6 -98 -14 -68 -21 -130 -37 -183 -45 -26 -4 -53 -13 -59 -19 -7 -7 -28 -12 -48 -12 -20 0 -45 -7 -56 -15 -10 -8 -31 -15 -45 -15 -14 0 -34 -7 -45 -15 -10 -8 -28 -15 -39 -15 -11 0 -29 -7 -39 -15 -11 -8 -30 -15 -42 -15 -13 0 -29 -7 -38 -15 -8 -8 -23 -15 -34 -15 -11 0 -47 -13 -80 -30 -34 -16 -67 -30 -75 -30 -8 0 -20 -7 -27 -15 -7 -8 -20 -15 -30 -15 -10 0 -23 -7 -30 -15 -7 -8 -20 -15 -30 -15 -10 0 -23 -7 -30 -15 -7 -8 -20 -15 -30 -15 -10 0 -23 -7 -30 -15 -7 -8 -21 -15 -31 -15 -10 0 -21 -5 -24 -11 -4 -5 -17 -15 -28 -20 -12 -5 -35 -18 -52 -29 -16 -11 -39 -24 -50 -30 -34 -18 -59 -34 -95 -60 -19 -14 -42 -29 -51 -35 -55 -32 -149 -100 -149 -107 0 -4 -7 -8 -15 -8 -8 0 -15 -4 -15 -8 0 -5 -20 -23 -44 -40 -24 -17 -58 -44 -77 -61 -19 -16 -56 -48 -84 -71 -107 -91 -271 -259 -429 -440 -46 -53 -146 -189 -146 -199 0 -6 -5 -11 -10 -11 -6 0 -14 -8 -17 -17 -4 -10 -25 -43 -47 -73 -48 -64 -63 -87 -75 -115 -5 -11 -21 -37 -35 -58 -14 -21 -26 -44 -26 -52 0 -8 -6 -18 -13 -22 -6 -4 -29 -42 -50 -83 -21 -41 -42 -82 -47 -90 -4 -8 -16 -33 -25 -55 -10 -22 -24 -52 -32 -67 -7 -14 -13 -33 -13 -41 0 -8 -7 -20 -15 -27 -8 -7 -15 -23 -15 -35 0 -12 -7 -28 -15 -35 -8 -7 -15 -25 -15 -40 0 -15 -7 -33 -15 -40 -8 -7 -15 -22 -15 -34 0 -12 -7 -31 -15 -42 -8 -10 -15 -30 -15 -44 0 -14 -7 -34 -15 -44 -8 -11 -15 -36 -15 -57 0 -20 -7 -42 -15 -49 -8 -7 -15 -29 -15 -49 -1 -20 -7 -47 -15 -61 -8 -14 -15 -38 -15 -55 0 -16 -7 -41 -15 -55 -8 -14 -14 -50 -15 -81 0 -30 -5 -60 -11 -66 -6 -6 -14 -56 -19 -110 -4 -55 -14 -111 -21 -124 -10 -19 -13 -111 -13 -434 0 -359 2 -417 17 -464 9 -30 17 -84 17 -121 0 -43 5 -73 15 -86 8 -11 14 -41 15 -72 0 -29 7 -69 15 -89 8 -19 15 -47 15 -62 1 -14 7 -37 15 -51 8 -14 14 -39 15 -56 0 -16 7 -39 15 -50 8 -10 15 -34 15 -52 0 -19 6 -46 14 -60 16 -33 35 -85 46 -131 5 -18 13 -38 19 -44 6 -6 11 -20 11 -32 0 -12 7 -30 15 -41 8 -10 15 -26 15 -35 0 -9 7 -22 15 -29 8 -7 15 -23 15 -35 0 -12 7 -28 15 -35 8 -7 15 -20 15 -30 0 -10 7 -23 15 -30 8 -7 15 -23 15 -36 0 -12 4 -25 9 -29 6 -3 21 -29 36 -58 14 -28 29 -59 34 -67 5 -8 12 -22 15 -30 4 -8 15 -28 26 -45 11 -16 24 -39 30 -50 6 -11 19 -33 30 -50 11 -16 23 -37 27 -45 3 -8 19 -31 35 -51 15 -20 28 -40 28 -43 0 -6 133 -182 216 -286 72 -91 237 -266 315 -335 12 -11 52 -47 89 -80 72 -65 89 -80 165 -140 28 -22 54 -46 58 -52 4 -7 13 -13 18 -13 6 0 37 -20 69 -45 32 -25 62 -45 65 -45 4 0 24 -13 44 -28 20 -16 43 -32 51 -35 8 -4 29 -16 45 -27 17 -11 39 -24 50 -30 11 -6 34 -19 50 -30 17 -10 53 -30 82 -44 28 -15 55 -31 58 -36 3 -6 14 -10 24 -10 10 0 24 -7 31 -15 7 -8 20 -15 30 -15 10 0 23 -7 30 -15 7 -8 23 -15 36 -15 12 0 26 -4 29 -10 7 -11 92 -50 110 -50 7 0 18 -7 25 -15 7 -8 25 -15 40 -15 15 0 33 -7 40 -15 7 -8 25 -15 40 -15 15 0 33 -7 40 -15 7 -8 25 -15 40 -15 15 0 33 -7 40 -15 7 -9 29 -15 55 -15 26 0 48 -6 55 -15 7 -8 27 -15 44 -15 17 0 44 -7 60 -15 15 -8 41 -15 56 -15 15 0 41 -7 56 -15 16 -8 48 -15 70 -15 23 0 58 -7 77 -15 20 -8 66 -15 102 -15 36 0 78 -6 93 -14 16 -7 82 -16 157 -21 72 -4 178 -10 237 -13 59 -4 158 -4 220 0 62 3 172 9 243 14 82 4 137 12 150 20 12 9 47 14 90 14 43 0 81 6 99 15 15 8 52 15 80 15 30 0 60 6 72 15 10 8 32 15 47 15 15 0 44 7 64 15 19 8 48 15 62 15 15 0 36 7 47 15 10 8 33 15 50 15 16 0 39 7 50 15 10 8 27 15 36 15 17 0 67 19 121 46 16 8 39 14 51 14 12 0 31 7 42 15 10 8 26 15 35 15 9 0 22 7 29 15 7 8 23 15 35 15 12 0 28 7 35 15 7 8 20 15 30 15 10 0 23 7 30 15 7 8 23 15 35 15 12 0 28 7 35 15 7 8 18 15 25 15 7 0 18 7 25 15 7 8 20 15 30 15 10 0 23 7 30 15 7 8 21 15 32 15 10 0 21 7 24 15 4 8 12 15 19 15 6 0 31 14 53 30 23 17 49 30 57 30 9 0 18 7 21 15 4 8 12 15 18 15 7 0 40 20 74 45 34 25 66 45 71 45 6 0 14 6 18 13 11 17 88 77 100 77 5 0 16 8 24 18 9 9 32 31 53 47 121 98 207 177 351 325 87 89 113 118 206 231 58 70 169 217 169 225 0 3 14 23 30 44 17 21 30 40 30 43 0 3 14 26 30 50 17 25 30 49 30 55 0 5 7 12 15 16 8 3 15 13 15 22 0 9 14 33 30 54 17 21 30 41 30 46 0 13 41 93 51 100 5 3 9 14 9 25 0 10 4 19 10 19 5 0 13 12 16 26 4 15 20 50 35 80 16 29 29 62 29 73 0 10 7 24 15 31 8 7 15 22 15 34 0 11 7 30 15 40 8 11 15 30 15 42 0 12 7 27 15 34 8 7 15 22 15 34 1 11 7 32 15 46 8 14 14 37 15 51 0 15 7 32 15 39 8 7 15 29 15 49 0 20 7 45 15 55 8 11 15 36 15 55 1 20 7 47 15 61 8 14 14 39 15 56 0 18 7 45 15 60 8 16 15 55 15 87 0 32 6 70 14 85 7 15 16 72 19 127 3 55 10 113 16 128 15 39 15 685 0 724 -6 15 -13 75 -16 133 -3 64 -11 114 -19 127 -8 12 -14 48 -14 80 -1 32 -7 69 -15 83 -8 14 -14 39 -15 56 0 17 -7 48 -15 67 -8 20 -15 49 -15 65 0 16 -7 35 -15 42 -9 7 -15 29 -15 55 0 26 -6 48 -15 55 -8 7 -15 25 -15 39 0 15 -7 36 -15 47 -8 10 -15 28 -15 40 0 11 -7 29 -15 40 -8 10 -15 31 -15 45 0 15 -7 32 -15 39 -8 7 -15 20 -15 30 0 10 -13 45 -30 78 -16 34 -30 67 -30 75 0 8 -7 20 -15 27 -8 7 -15 20 -15 30 0 10 -7 23 -15 30 -8 7 -15 20 -15 30 0 10 -7 23 -15 30 -8 7 -15 21 -15 31 0 10 -5 21 -11 24 -5 4 -14 17 -20 28 -5 12 -25 49 -44 82 -19 33 -40 70 -45 83 -5 12 -14 22 -20 22 -5 0 -10 5 -10 12 0 15 -101 168 -112 168 -4 0 -8 5 -8 11 0 6 -31 51 -69 101 -181 235 -420 480 -633 648 -34 27 -69 55 -77 61 -7 7 -36 27 -65 46 -28 19 -55 41 -59 49 -4 8 -17 14 -28 14 -11 0 -22 7 -25 15 -4 8 -11 15 -16 15 -6 0 -27 13 -47 28 -20 16 -43 32 -51 35 -8 4 -28 16 -45 27 -16 11 -39 24 -50 30 -11 6 -33 19 -50 30 -16 11 -37 23 -45 26 -47 19 -86 41 -93 52 -4 6 -19 12 -31 12 -13 0 -26 7 -30 15 -3 8 -14 15 -24 15 -10 0 -45 14 -77 30 -32 17 -64 30 -71 30 -6 0 -17 7 -24 15 -7 8 -25 15 -40 15 -15 0 -33 7 -40 15 -7 8 -24 15 -39 15 -14 0 -35 7 -45 15 -11 8 -27 15 -37 15 -9 0 -30 7 -45 15 -16 8 -41 15 -55 15 -15 0 -32 7 -39 15 -7 8 -29 15 -50 15 -21 0 -43 7 -50 15 -7 8 -27 15 -45 15 -18 0 -49 7 -68 15 -20 8 -53 15 -74 15 -21 0 -47 7 -57 15 -13 10 -43 15 -83 15 -35 0 -76 6 -91 14 -16 8 -78 16 -149 19 -67 3 -131 11 -142 16 -26 14 -557 14 -591 0z m465 -179 c50 -5 140 -12 200 -15 61 -4 117 -11 125 -15 8 -4 51 -10 94 -14 44 -4 88 -12 98 -17 10 -5 46 -14 81 -18 34 -5 87 -17 117 -26 30 -9 74 -20 97 -24 24 -4 51 -15 61 -24 10 -10 32 -17 47 -17 32 0 108 -26 140 -47 11 -7 27 -13 36 -13 9 0 30 -7 45 -15 16 -8 37 -15 47 -15 9 0 17 -4 17 -10 0 -5 12 -12 28 -16 15 -3 36 -10 47 -15 11 -5 31 -13 45 -19 14 -6 43 -21 65 -35 22 -13 45 -24 52 -25 7 0 46 -20 86 -45 41 -25 80 -45 86 -45 6 0 11 -4 11 -9 0 -5 9 -12 19 -16 19 -6 101 -57 219 -137 257 -173 564 -465 786 -746 36 -46 66 -87 66 -91 0 -3 10 -17 23 -31 12 -14 34 -43 47 -65 13 -22 27 -42 31 -45 3 -3 15 -21 26 -40 10 -19 31 -55 47 -79 69 -107 226 -424 242 -486 3 -14 10 -28 15 -31 5 -3 9 -13 9 -22 1 -9 9 -35 20 -57 11 -22 19 -48 20 -57 0 -9 5 -20 10 -23 6 -3 10 -18 10 -33 1 -15 9 -45 20 -67 11 -22 19 -49 20 -59 0 -11 4 -33 9 -50 45 -151 59 -215 71 -311 5 -38 16 -92 24 -120 43 -147 40 -936 -4 -1037 -6 -12 -14 -57 -20 -98 -9 -76 -26 -156 -55 -265 -9 -33 -21 -78 -26 -100 -5 -22 -16 -54 -24 -72 -8 -17 -15 -37 -15 -45 -1 -17 -35 -116 -44 -125 -3 -3 -6 -13 -6 -22 -1 -9 -9 -34 -20 -56 -11 -22 -19 -44 -20 -49 0 -9 -49 -118 -75 -166 -7 -14 -20 -38 -28 -55 -8 -16 -24 -48 -36 -70 -12 -22 -34 -65 -49 -95 -15 -30 -29 -57 -32 -60 -12 -12 -50 -70 -50 -77 0 -4 -14 -26 -30 -47 -17 -22 -30 -46 -30 -53 0 -7 -4 -13 -9 -13 -5 0 -12 -8 -15 -17 -3 -10 -16 -29 -28 -43 -13 -14 -34 -42 -48 -61 -25 -37 -52 -69 -169 -208 -80 -94 -319 -333 -386 -386 -27 -22 -56 -44 -63 -50 -7 -5 -18 -15 -25 -20 -36 -31 -218 -164 -252 -185 -22 -13 -42 -27 -45 -30 -3 -3 -41 -27 -85 -53 -44 -26 -87 -52 -95 -57 -8 -5 -40 -21 -70 -35 -30 -14 -57 -29 -60 -33 -3 -4 -21 -14 -40 -23 -19 -9 -65 -30 -102 -48 -37 -17 -72 -31 -78 -31 -5 0 -27 -9 -47 -20 -21 -11 -43 -20 -50 -20 -8 0 -21 -4 -31 -9 -42 -23 -86 -41 -101 -41 -9 0 -28 -6 -42 -14 -14 -7 -43 -16 -65 -20 -21 -5 -43 -11 -49 -16 -5 -4 -28 -11 -50 -14 -40 -7 -52 -10 -155 -40 -30 -9 -86 -21 -125 -26 -38 -6 -110 -17 -160 -25 -286 -47 -747 -47 -1030 0 -230 38 -263 44 -300 55 -114 34 -139 40 -156 40 -11 0 -27 4 -37 9 -21 12 -108 41 -142 48 -14 2 -38 11 -55 18 -74 33 -104 45 -114 45 -6 0 -19 4 -29 9 -9 6 -39 20 -67 32 -86 38 -300 144 -305 151 -3 4 -17 12 -30 18 -14 5 -38 19 -55 30 -16 11 -37 23 -45 27 -8 3 -43 26 -77 50 -35 24 -66 43 -70 43 -5 0 -28 18 -53 40 -25 22 -48 40 -51 40 -11 0 -150 109 -227 176 -70 62 -252 244 -342 341 -20 21 -58 67 -86 103 -27 36 -59 76 -71 90 -29 33 -59 75 -132 185 -33 50 -65 95 -70 102 -6 7 -11 15 -11 19 0 3 -22 43 -48 88 -45 75 -129 243 -181 361 -12 28 -26 58 -32 67 -5 10 -9 23 -9 29 0 12 -22 66 -46 112 -8 16 -14 36 -14 46 0 9 -13 55 -29 101 -16 47 -36 119 -46 160 -9 41 -21 91 -27 110 -14 49 -37 190 -48 290 -5 47 -13 105 -19 130 -16 71 -24 421 -12 560 17 209 32 332 47 391 8 30 14 76 14 102 0 25 4 48 9 51 5 3 12 23 15 43 13 72 39 178 53 210 7 17 13 38 13 46 0 8 7 28 15 43 8 16 15 37 15 46 0 10 6 32 14 50 8 18 21 49 30 70 9 20 16 41 16 47 0 6 4 19 10 29 5 9 17 35 26 57 21 50 110 241 129 275 7 14 21 41 32 60 10 19 21 37 24 40 4 3 20 30 37 61 17 31 56 92 86 135 31 44 71 102 90 129 18 28 48 66 65 85 17 19 31 38 31 41 0 4 17 25 38 47 20 22 55 61 77 88 102 122 344 350 486 460 35 26 69 52 74 57 33 26 139 99 195 132 36 21 67 43 68 47 2 4 8 8 14 8 6 0 36 15 67 34 31 19 106 59 166 89 108 54 128 64 230 107 28 11 58 25 67 30 10 6 25 10 34 10 8 0 25 5 37 12 34 19 120 47 142 48 11 0 29 6 40 14 11 7 40 18 65 24 25 6 70 18 100 27 30 9 83 21 118 26 35 4 68 12 75 16 17 11 168 31 352 47 88 8 176 17 195 19 68 8 216 7 305 -3z m-3743 -3092 c-6 -6 -10 9 -10 38 -2 64 12 81 16 20 2 -27 -1 -53 -6 -58z m-11 -101 c-4 -61 -11 -59 -11 3 0 29 3 50 7 46 4 -4 6 -26 4 -49z m14 -807 c4 -22 2 -47 -4 -57 -9 -15 -10 -11 -11 22 0 22 -3 51 -7 64 -4 16 -3 22 5 18 5 -4 13 -25 17 -47z m65 -366 c0 -8 -4 -12 -10 -9 -5 3 -10 13 -10 21 0 8 5 12 10 9 6 -3 10 -13 10 -21z m2970 -2754 c0 -5 -15 -10 -32 -10 -25 0 -29 3 -18 10 20 13 50 13 50 0z m1080 0 c0 -5 -7 -10 -15 -10 -8 0 -15 5 -15 10 0 6 7 10 15 10 8 0 15 -4 15 -10z"/> <path d="M4185 8019 c-149 -18 -269 -39 -340 -59 -16 -5 -48 -12 -70 -15 -22 -4 -51 -10 -65 -15 -14 -5 -59 -18 -100 -30 -125 -37 -222 -71 -340 -119 -102 -42 -364 -174 -433 -218 -37 -24 -72 -43 -76 -43 -5 0 -11 -4 -13 -8 -1 -4 -21 -19 -43 -32 -53 -32 -187 -128 -253 -182 -30 -24 -64 -51 -75 -60 -145 -117 -419 -403 -530 -553 -20 -27 -40 -54 -45 -60 -22 -27 -162 -237 -162 -243 0 -4 -12 -25 -27 -47 -15 -22 -38 -60 -50 -85 -12 -25 -27 -52 -32 -60 -6 -8 -20 -35 -31 -60 -11 -25 -24 -52 -29 -60 -9 -13 -38 -77 -81 -175 -80 -181 -160 -466 -209 -742 -70 -390 -60 -900 24 -1268 8 -33 21 -96 31 -140 9 -44 20 -84 24 -90 4 -5 11 -26 15 -45 4 -19 18 -66 31 -105 14 -38 34 -97 45 -130 11 -33 27 -73 34 -90 8 -16 28 -61 45 -100 58 -130 172 -348 196 -376 8 -8 14 -18 14 -21 0 -21 264 -388 279 -388 4 0 13 -10 18 -22 35 -74 422 -447 565 -544 24 -16 52 -37 63 -47 11 -10 45 -34 75 -54 30 -19 74 -48 97 -64 23 -16 44 -29 47 -29 3 0 24 -12 48 -27 103 -66 303 -168 423 -215 55 -22 105 -43 110 -48 6 -4 26 -11 45 -15 19 -4 41 -11 50 -16 46 -25 236 -80 349 -100 30 -5 58 -12 64 -16 13 -8 202 -39 332 -55 147 -17 647 -17 780 0 156 21 368 60 441 83 17 5 38 9 47 9 9 0 45 9 79 20 35 11 86 28 113 37 28 9 55 19 60 23 6 4 24 10 40 14 17 4 44 13 60 21 54 25 103 45 109 45 7 0 125 54 161 73 11 6 61 31 110 57 397 206 783 526 1088 901 175 216 371 542 471 784 21 50 42 99 46 110 46 110 98 271 133 415 82 339 100 493 100 850 0 163 -5 315 -12 355 -6 39 -16 106 -21 150 -14 110 -51 287 -85 405 -47 165 -77 253 -115 345 -115 273 -117 276 -180 385 -5 8 -27 47 -49 85 -50 89 -202 316 -250 373 -20 24 -45 57 -56 72 -57 79 -301 335 -390 410 -78 65 -219 178 -257 206 -144 103 -325 218 -408 258 -19 9 -42 21 -50 26 -14 9 -165 80 -255 120 -22 10 -62 25 -90 35 -27 9 -59 21 -70 25 -11 5 -45 16 -75 25 -30 10 -73 23 -95 30 -79 26 -151 46 -200 56 -27 5 -68 14 -90 19 -111 23 -163 31 -315 50 -220 27 -565 26 -795 -1z m615 -30 c47 -6 123 -14 170 -19 121 -12 247 -30 305 -45 65 -17 140 -34 190 -44 22 -4 50 -13 62 -19 12 -7 30 -12 40 -12 10 0 31 -7 47 -15 15 -8 37 -15 47 -15 18 0 66 -18 122 -46 16 -8 35 -14 43 -14 8 0 44 -14 81 -31 116 -52 128 -57 143 -63 8 -3 22 -10 30 -14 8 -5 31 -17 50 -26 19 -10 64 -34 100 -54 36 -19 74 -40 85 -46 11 -6 74 -47 139 -91 65 -44 128 -87 141 -95 13 -8 43 -32 68 -52 24 -21 49 -38 55 -38 6 0 15 -6 19 -12 4 -7 44 -44 88 -82 102 -89 253 -240 336 -336 35 -41 69 -79 75 -85 6 -5 22 -26 35 -45 13 -19 34 -46 46 -60 13 -14 23 -29 23 -33 0 -5 20 -35 45 -67 25 -32 45 -63 45 -69 0 -6 5 -11 10 -11 6 0 14 -10 19 -22 5 -13 21 -40 35 -61 14 -21 26 -40 26 -43 0 -2 12 -23 27 -47 15 -23 37 -62 50 -87 12 -25 27 -52 31 -60 9 -15 42 -85 101 -212 17 -37 31 -74 31 -82 0 -8 6 -27 14 -43 8 -15 21 -46 29 -68 40 -112 47 -136 67 -215 7 -25 16 -58 22 -75 6 -16 12 -43 15 -60 2 -16 10 -52 18 -80 7 -27 19 -84 26 -125 12 -74 16 -106 39 -330 14 -133 8 -516 -9 -627 -6 -40 -16 -106 -22 -145 -7 -40 -15 -95 -19 -123 -4 -27 -13 -72 -20 -100 -7 -27 -19 -75 -27 -105 -7 -30 -20 -76 -28 -101 -8 -26 -15 -52 -15 -59 0 -7 -6 -26 -14 -43 -8 -18 -16 -41 -19 -52 -3 -11 -15 -45 -27 -75 -12 -30 -25 -66 -29 -80 -18 -56 -170 -368 -212 -435 -10 -16 -23 -39 -29 -50 -6 -11 -19 -33 -30 -50 -11 -16 -23 -37 -27 -45 -6 -14 -60 -90 -83 -117 -5 -7 -10 -15 -10 -19 0 -9 -72 -98 -82 -102 -5 -2 -8 -8 -8 -14 0 -6 -15 -27 -32 -48 -18 -20 -58 -65 -88 -101 -61 -71 -234 -246 -326 -327 -66 -59 -329 -262 -339 -262 -4 0 -24 -13 -45 -30 -21 -16 -40 -30 -43 -30 -3 0 -25 -12 -49 -27 -70 -45 -79 -51 -163 -93 -44 -23 -87 -45 -95 -50 -20 -11 -146 -69 -190 -88 -19 -8 -48 -21 -63 -28 -16 -8 -35 -14 -42 -14 -8 0 -29 -6 -47 -14 -61 -26 -113 -44 -178 -62 -36 -10 -70 -22 -77 -27 -7 -5 -36 -12 -65 -17 -29 -5 -71 -13 -93 -19 -120 -30 -177 -41 -207 -41 -18 0 -67 -7 -108 -17 -110 -24 -769 -24 -880 1 -41 9 -90 16 -108 16 -30 0 -87 11 -207 41 -22 6 -63 14 -91 19 -28 4 -59 12 -70 18 -30 15 -117 42 -139 42 -11 1 -29 7 -39 15 -11 8 -27 15 -35 15 -9 0 -29 7 -45 15 -15 8 -34 15 -41 15 -8 0 -26 6 -42 14 -15 7 -46 21 -68 31 -22 9 -53 23 -68 31 -16 8 -34 14 -42 14 -7 0 -18 7 -25 15 -7 8 -18 15 -26 15 -7 0 -43 17 -79 38 -37 20 -87 48 -113 62 -26 14 -66 38 -89 53 -24 15 -47 27 -53 27 -6 0 -13 6 -16 14 -3 8 -13 17 -22 20 -23 9 -53 27 -88 54 -16 12 -70 53 -120 90 -50 37 -97 74 -106 82 -8 8 -39 35 -68 60 -103 88 -324 315 -383 393 -12 16 -36 46 -52 66 -56 65 -95 119 -95 128 0 5 -12 20 -26 34 -14 13 -30 33 -35 44 -11 26 -28 51 -60 95 -14 19 -36 55 -48 80 -12 25 -31 59 -41 75 -20 33 -77 144 -110 217 -12 27 -26 50 -31 54 -5 3 -9 12 -9 21 0 9 -14 45 -30 80 -16 34 -30 72 -30 82 0 11 -6 32 -14 48 -30 60 -46 105 -46 126 0 13 -4 27 -10 33 -5 5 -14 30 -19 54 -14 64 -31 128 -47 180 -8 25 -14 59 -14 77 0 17 -5 44 -11 60 -6 15 -15 66 -20 113 -5 47 -14 110 -18 140 -13 76 -13 640 0 720 5 36 12 92 15 125 3 33 11 89 19 125 30 141 36 167 51 225 8 33 19 76 23 95 5 19 14 49 20 65 40 115 64 184 70 210 4 17 13 39 18 50 6 11 18 36 26 55 40 92 79 176 87 190 6 8 14 24 19 35 33 72 44 93 61 120 11 17 24 39 29 51 5 12 27 48 48 80 21 32 42 67 48 76 44 72 166 240 218 298 7 8 38 44 68 80 64 76 235 251 300 306 116 98 233 193 264 214 13 8 56 38 96 65 75 51 103 69 129 81 8 5 39 24 70 44 30 21 80 49 110 64 30 15 62 31 70 36 8 5 22 11 30 14 8 3 22 10 30 15 8 5 31 16 50 24 82 35 117 51 142 64 14 7 34 13 45 13 10 0 27 7 37 15 11 8 29 15 40 15 12 0 30 7 40 15 11 8 32 15 46 15 14 0 30 4 35 9 6 6 28 14 50 20 22 6 60 15 85 22 25 6 68 17 95 24 28 7 70 18 95 24 25 6 78 16 118 21 40 5 77 12 82 15 6 4 61 11 123 16 61 5 141 13 177 17 97 12 324 12 420 1z"/> <path d="M4397 7813 c-3 -4 -1 -75 4 -158 7 -123 12 -152 26 -162 20 -15 33 -16 51 -4 11 7 11 19 -2 72 -9 38 -15 103 -14 159 l1 95 -30 3 c-17 2 -33 -1 -36 -5z"/> <path d="M4755 7800 c-23 -25 -34 -85 -35 -186 0 -95 13 -120 73 -133 52 -12 105 5 123 40 29 58 8 103 -37 79 -12 -7 -19 -21 -19 -40 0 -36 -15 -46 -45 -30 -31 16 -36 40 -28 129 7 85 29 119 63 101 10 -5 20 -20 22 -32 2 -18 11 -24 36 -26 30 -3 32 -1 32 27 0 17 -11 42 -26 60 -23 28 -31 31 -83 31 -45 0 -62 -4 -76 -20z"/> <path d="M4213 7793 c-18 -2 -33 -5 -33 -6 -1 -1 -7 -65 -15 -142 -8 -77 -15 -149 -17 -160 -3 -17 3 -20 32 -20 34 0 35 1 32 37 -3 32 0 39 22 49 34 16 53 6 70 -36 13 -31 20 -36 43 -33 25 3 28 7 25 33 -2 17 -9 44 -16 60 -47 111 -60 145 -70 183 -7 28 -16 41 -26 40 -8 0 -30 -3 -47 -5z m33 -90 c3 -10 13 -33 22 -52 15 -31 15 -34 -3 -47 -38 -28 -55 -7 -48 64 6 52 19 68 29 35z"/> <path d="M4997 7728 c-3 -35 -11 -99 -18 -143 -18 -122 -18 -120 17 -123 l32 -3 4 65 c5 79 15 93 60 80 l33 -10 0 -79 c0 -79 0 -80 25 -80 23 0 25 5 32 60 4 33 12 73 18 89 5 16 10 50 10 76 0 30 6 52 15 60 29 24 18 40 -30 40 l-45 0 0 -60 0 -60 -34 0 c-48 0 -66 21 -59 68 12 71 11 77 -23 80 l-32 3 -5 -63z"/> <path d="M4003 7762 c-29 -4 -30 -34 -2 -72 28 -37 20 -56 -32 -70 -51 -14 -59 -6 -59 61 0 52 -14 65 -55 49 -29 -11 -29 -10 -10 -57 8 -19 15 -51 15 -70 0 -19 6 -44 12 -56 7 -12 15 -49 18 -82 5 -56 7 -60 32 -63 32 -4 54 27 40 56 -5 9 -12 38 -16 63 -6 43 -5 47 16 53 13 3 35 6 50 6 27 0 27 -1 30 -72 3 -65 5 -73 24 -76 40 -6 45 17 28 119 -9 52 -19 118 -22 148 -7 57 -22 71 -69 63z"/> <path d="M5346 7708 c-9 -12 -16 -28 -16 -34 0 -6 -7 -17 -15 -24 -8 -7 -15 -22 -15 -35 0 -12 -11 -34 -24 -48 -14 -15 -28 -37 -32 -49 -4 -13 -15 -34 -25 -47 -21 -26 -13 -45 22 -54 15 -4 25 3 40 26 10 18 20 37 22 42 2 6 19 3 41 -8 30 -14 36 -21 30 -35 -4 -9 -7 -28 -8 -42 -1 -21 4 -25 31 -28 l31 -3 6 73 c3 40 7 114 10 163 l5 90 -38 18 c-47 21 -47 21 -65 -5z m44 -129 c0 -59 0 -59 -29 -59 -40 0 -43 9 -21 56 10 21 21 47 24 57 11 36 26 5 26 -54z"/> <path d="M3705 7689 c-16 -6 -50 -16 -74 -22 -49 -13 -73 -39 -54 -58 9 -9 21 -10 47 -2 43 13 56 2 56 -46 1 -20 7 -47 15 -61 8 -14 15 -36 15 -50 2 -43 33 -95 55 -92 39 7 45 24 25 72 -21 52 -60 180 -60 197 0 7 15 16 33 21 22 6 33 15 35 30 3 19 -1 22 -30 21 -18 0 -46 -5 -63 -10z"/> <path d="M5557 7630 c-52 -124 -91 -255 -83 -275 3 -8 17 -15 30 -15 26 0 28 4 40 75 12 74 24 114 42 138 26 36 38 34 30 -5 -4 -18 -11 -67 -15 -108 -4 -42 -13 -85 -19 -96 -12 -22 0 -44 24 -44 13 0 74 92 74 111 0 14 67 79 82 79 15 0 1 -47 -22 -70 -11 -11 -20 -27 -20 -35 0 -8 -9 -29 -20 -47 -28 -46 -26 -76 6 -84 31 -8 37 -2 54 56 7 25 21 63 31 85 64 147 67 168 26 179 -62 17 -75 10 -109 -61 -21 -42 -40 -69 -52 -71 -15 -3 -18 1 -13 25 32 170 31 173 -7 173 -13 0 -29 7 -36 15 -19 23 -25 19 -43 -25z"/> <path d="M3301 7540 c-13 -11 -31 -20 -40 -20 -9 0 -30 -9 -48 -19 l-32 -20 25 -50 c13 -28 24 -55 24 -60 0 -5 7 -14 15 -21 8 -7 15 -20 15 -29 0 -9 6 -28 14 -43 8 -15 17 -40 21 -57 7 -34 20 -38 62 -17 46 24 100 46 112 46 12 0 14 20 5 44 -8 20 -28 21 -43 2 -7 -8 -26 -18 -43 -22 -26 -5 -34 -2 -49 17 -33 42 -25 65 26 78 41 10 45 14 45 41 0 17 -4 30 -10 30 -14 0 -63 -22 -81 -38 -15 -11 -20 -9 -39 18 -27 38 -16 56 43 67 38 8 42 12 45 41 3 28 0 32 -20 32 -13 -1 -34 -10 -47 -20z"/> <path d="M5904 7493 c-4 -15 -13 -38 -20 -52 -8 -14 -14 -34 -14 -43 0 -10 -4 -18 -8 -18 -10 0 -42 -65 -42 -85 0 -8 -12 -25 -26 -38 -14 -14 -22 -27 -18 -29 139 -80 169 -85 206 -35 35 45 42 71 23 87 -12 10 -13 16 -4 26 6 8 17 14 24 14 15 0 55 60 55 81 -1 30 -80 89 -118 89 -5 0 -12 7 -16 15 -9 24 -35 17 -42 -12z m90 -69 c20 -20 20 -33 -1 -56 -19 -22 -46 -23 -63 -3 -12 14 -8 27 18 58 19 21 26 21 46 1z m-56 -114 c26 -25 27 -33 6 -65 -18 -28 -55 -33 -73 -11 -10 11 -8 23 9 55 23 47 28 49 58 21z"/> <path d="M3081 7436 c-14 -15 -19 -26 -12 -31 6 -3 11 -15 11 -25 0 -11 9 -24 20 -30 11 -6 20 -17 20 -24 0 -16 -38 -42 -73 -51 -22 -6 -25 -3 -31 29 -9 49 -35 77 -63 70 -27 -7 -32 -54 -8 -74 8 -7 15 -20 15 -30 0 -10 7 -23 15 -30 8 -7 15 -16 15 -21 0 -4 14 -31 30 -59 17 -28 30 -59 30 -70 0 -25 13 -32 43 -21 39 15 41 38 7 84 -45 61 -36 95 25 100 29 2 29 2 65 -75 19 -43 24 -47 41 -37 26 14 35 38 22 58 -19 27 -111 215 -118 239 -8 28 -26 28 -54 -2z"/> <path d="M6147 7383 c-4 -3 -7 -14 -7 -24 0 -9 -4 -19 -8 -21 -5 -1 -23 -30 -41 -63 -58 -106 -83 -145 -92 -145 -5 0 -9 -7 -9 -15 0 -8 6 -15 13 -15 6 0 39 -18 71 -40 64 -44 89 -47 94 -14 2 17 -7 27 -42 44 -48 23 -59 47 -31 70 8 7 15 19 15 26 0 20 24 17 44 -5 22 -24 63 -32 77 -15 15 18 0 37 -41 54 -32 13 -38 36 -20 71 11 19 11 19 48 -1 20 -11 45 -26 54 -32 14 -10 21 -10 34 4 22 22 14 39 -32 63 -22 11 -56 30 -76 42 -42 26 -42 26 -51 16z"/> <path d="M2837 7300 c-14 -11 -28 -20 -31 -20 -3 0 -25 -13 -48 -30 -22 -16 -47 -30 -55 -30 -7 0 -13 -11 -13 -24 0 -35 38 -46 59 -17 21 28 46 19 60 -20 5 -16 15 -29 20 -29 6 0 11 -9 11 -20 0 -10 13 -34 29 -52 16 -18 30 -42 32 -53 5 -25 57 -28 72 -4 10 15 2 29 -104 187 -35 52 -36 60 -4 68 37 9 47 64 11 64 -7 0 -25 -9 -39 -20z"/> <path d="M4335 7245 c-5 -3 -59 -11 -120 -20 -163 -22 -207 -32 -380 -81 -33 -9 -72 -23 -87 -30 -14 -8 -36 -14 -48 -14 -11 0 -48 -13 -82 -30 -33 -16 -65 -30 -71 -30 -6 0 -38 -13 -72 -30 -33 -16 -67 -32 -75 -35 -8 -3 -28 -14 -45 -25 -16 -11 -43 -26 -60 -35 -60 -30 -119 -65 -151 -90 -18 -14 -35 -25 -39 -25 -10 0 -209 -153 -218 -167 -4 -7 -12 -13 -18 -13 -5 0 -31 -21 -58 -47 -27 -27 -71 -69 -98 -94 -42 -39 -108 -113 -209 -233 -13 -15 -24 -30 -24 -33 0 -3 -27 -39 -60 -80 -33 -42 -60 -79 -60 -84 0 -4 -18 -34 -39 -67 -45 -68 -151 -269 -187 -357 -14 -33 -29 -69 -33 -80 -19 -45 -39 -103 -56 -160 -53 -183 -62 -219 -75 -305 -6 -36 -14 -76 -19 -90 -12 -32 -27 -315 -23 -445 3 -147 19 -352 32 -415 24 -121 43 -207 55 -245 7 -22 21 -67 30 -100 22 -74 43 -132 61 -167 8 -14 14 -31 14 -37 0 -10 47 -119 69 -161 5 -9 26 -49 47 -90 21 -41 43 -79 47 -85 21 -26 77 -118 77 -126 0 -4 14 -24 30 -42 17 -19 30 -37 30 -41 0 -3 7 -14 15 -23 9 -10 44 -54 78 -98 114 -145 372 -397 475 -463 15 -9 29 -19 32 -22 3 -3 12 -9 21 -15 9 -5 51 -34 94 -63 43 -28 81 -52 85 -52 4 0 26 -13 48 -30 23 -16 48 -30 56 -30 8 0 17 -4 20 -9 4 -5 27 -19 54 -31 26 -12 54 -26 62 -31 8 -5 22 -12 30 -15 24 -9 83 -35 113 -50 16 -8 36 -14 45 -14 9 0 26 -7 36 -15 11 -8 28 -15 39 -15 10 0 33 -6 50 -14 18 -8 43 -17 57 -19 44 -10 114 -28 160 -43 25 -8 59 -14 76 -14 18 0 54 -6 80 -14 51 -15 231 -35 393 -43 55 -3 157 1 245 11 83 8 169 18 191 20 71 7 179 28 218 42 20 8 50 14 65 14 15 1 38 7 52 15 14 8 35 14 46 15 12 0 35 7 50 15 16 8 39 15 51 15 12 0 24 4 27 9 3 5 18 12 33 15 16 4 42 13 58 20 17 7 46 20 65 29 37 16 175 83 200 97 8 4 32 16 53 26 20 10 37 22 37 26 0 3 9 10 21 13 11 4 40 20 64 36 24 16 47 29 53 29 6 0 12 3 14 8 2 4 37 31 78 61 41 30 97 73 124 95 56 47 241 229 272 267 12 14 30 32 41 40 11 8 28 27 39 44 10 16 26 37 34 46 54 59 70 78 70 83 0 3 19 32 43 63 24 32 47 65 50 73 4 8 16 29 27 45 11 17 24 39 30 50 6 11 19 34 29 50 29 46 121 230 121 242 0 6 6 24 14 40 27 55 45 98 51 123 3 14 10 34 14 45 21 54 34 95 46 150 7 33 22 96 34 140 11 44 25 112 32 150 29 173 31 663 3 776 -8 31 -14 73 -14 93 0 20 -9 69 -21 109 -12 39 -25 92 -31 117 -5 25 -14 59 -19 75 -6 17 -14 44 -19 60 -11 39 -29 92 -48 135 -9 19 -21 50 -29 68 -28 69 -41 99 -65 147 -38 76 -99 188 -111 204 -12 14 -32 48 -43 71 -4 8 -27 41 -51 72 -24 31 -43 60 -43 64 0 3 -15 23 -32 44 -18 20 -53 61 -77 91 -85 104 -309 317 -429 408 -67 50 -126 91 -131 91 -6 0 -14 6 -18 13 -8 12 -32 29 -68 47 -11 6 -33 19 -50 29 -45 29 -290 151 -302 151 -6 0 -38 14 -71 30 -34 17 -71 30 -82 30 -12 0 -34 6 -48 14 -36 19 -125 46 -154 46 -13 1 -34 7 -48 15 -14 8 -38 14 -54 15 -16 0 -52 6 -80 14 -98 28 -243 40 -496 42 -140 2 -259 1 -265 -1z m535 -60 c149 -17 274 -38 353 -59 31 -9 81 -22 110 -29 28 -8 74 -24 100 -36 27 -11 54 -21 60 -21 7 -1 30 -9 52 -20 22 -11 45 -19 52 -20 6 0 33 -11 60 -24 26 -14 73 -36 103 -50 55 -26 101 -51 175 -96 23 -14 48 -29 57 -35 191 -115 523 -414 643 -579 28 -38 60 -79 72 -92 12 -13 24 -31 27 -41 3 -10 16 -29 29 -43 36 -39 104 -158 181 -315 67 -138 83 -175 106 -245 12 -36 25 -74 30 -85 10 -23 34 -109 48 -175 6 -25 15 -63 20 -85 6 -22 15 -71 21 -110 6 -38 18 -110 26 -160 22 -136 20 -418 -6 -585 -11 -74 -24 -163 -29 -197 -5 -35 -13 -71 -18 -80 -6 -10 -13 -38 -17 -63 -7 -44 -29 -126 -45 -165 -4 -11 -16 -42 -25 -70 -38 -111 -95 -236 -194 -423 -25 -47 -104 -167 -113 -170 -4 -2 -8 -10 -8 -17 0 -8 -8 -22 -18 -32 -10 -10 -45 -54 -77 -98 -70 -94 -297 -325 -405 -412 -102 -81 -224 -167 -290 -203 -30 -17 -77 -44 -105 -61 -27 -16 -61 -34 -75 -40 -14 -5 -54 -24 -90 -41 -76 -37 -77 -37 -195 -81 -49 -18 -117 -41 -150 -51 -33 -9 -75 -21 -92 -27 -40 -12 -108 -26 -233 -45 -52 -8 -101 -16 -108 -19 -32 -12 -409 -16 -532 -6 -151 12 -353 45 -433 70 -17 5 -79 24 -137 42 -92 28 -130 42 -215 79 -11 5 -55 25 -97 44 -42 20 -78 36 -81 36 -2 0 -46 25 -96 55 -51 30 -96 55 -101 55 -5 0 -15 6 -22 12 -7 7 -40 31 -73 53 -33 22 -71 50 -85 62 -14 13 -28 23 -31 23 -3 0 -17 9 -30 21 -13 11 -44 37 -69 57 -50 42 -216 204 -276 272 -80 90 -240 312 -301 417 -45 79 -110 211 -139 283 -19 47 -38 92 -43 100 -4 8 -18 49 -30 90 -12 41 -26 82 -30 90 -4 8 -18 60 -30 115 -12 55 -26 116 -31 135 -26 100 -35 230 -35 500 1 290 8 377 49 555 9 39 21 90 26 115 6 25 14 54 19 65 5 11 19 54 32 95 12 41 25 80 29 85 4 6 17 39 30 75 39 106 178 365 239 446 9 12 23 32 31 44 115 175 276 355 445 496 39 32 75 63 80 69 35 38 253 182 385 253 36 19 72 39 80 43 29 16 149 69 156 69 4 0 25 8 48 19 23 10 59 24 81 31 22 7 54 18 70 25 48 21 210 62 300 77 33 5 76 14 95 19 105 28 501 36 690 14z"/> <path d="M4140 7023 c-69 -23 -109 -43 -185 -92 -71 -45 -382 -276 -400 -298 -17 -19 -244 -185 -340 -248 -123 -81 -271 -159 -375 -200 -25 -9 -57 -23 -72 -31 -14 -8 -42 -14 -61 -14 -19 0 -45 -8 -57 -18 l-22 -18 12 -209 c7 -116 14 -255 17 -310 2 -55 9 -122 14 -150 6 -27 14 -86 19 -130 8 -79 22 -168 41 -255 6 -25 14 -68 19 -96 4 -28 13 -61 19 -72 6 -11 11 -32 11 -45 0 -14 7 -47 14 -73 8 -27 22 -76 31 -109 9 -33 21 -73 26 -90 6 -16 15 -46 19 -65 11 -44 37 -119 50 -142 6 -10 10 -28 10 -41 0 -13 7 -32 15 -43 8 -10 15 -28 15 -40 0 -11 7 -29 15 -40 8 -10 15 -26 15 -34 0 -8 14 -42 30 -75 16 -33 30 -65 30 -71 0 -6 20 -52 45 -102 25 -50 45 -95 45 -100 0 -5 7 -15 15 -22 8 -7 15 -20 15 -30 0 -9 12 -35 28 -56 15 -22 36 -57 46 -79 19 -38 162 -279 199 -334 9 -14 20 -34 23 -43 4 -10 10 -18 14 -18 5 0 20 -20 34 -45 15 -25 31 -45 36 -45 6 0 10 -5 10 -11 0 -10 60 -91 80 -109 3 -3 25 -30 49 -60 91 -117 321 -359 471 -496 58 -53 247 -203 350 -277 l80 -59 81 59 c44 32 97 72 119 88 21 17 53 41 71 55 161 122 470 429 626 621 54 66 103 128 108 137 6 9 15 21 21 27 10 9 75 103 99 143 6 9 28 44 51 77 22 34 43 67 47 75 4 8 16 29 27 45 11 17 23 37 26 45 4 8 13 22 19 30 19 23 80 134 126 230 23 47 47 96 54 110 25 47 43 85 57 120 8 19 23 52 32 73 9 21 16 46 16 56 0 10 7 24 15 31 8 7 15 19 15 27 0 8 6 27 14 41 8 15 23 56 35 92 26 85 41 128 58 167 7 17 13 39 13 49 0 10 6 36 14 59 8 22 21 65 29 95 9 30 23 79 31 109 9 29 16 64 16 78 0 13 5 34 11 45 7 12 15 47 19 77 14 93 31 192 46 262 8 37 14 92 14 124 0 31 5 66 11 77 7 13 15 123 20 282 4 144 10 285 13 314 6 65 -15 92 -68 92 -19 0 -47 6 -63 14 -15 8 -48 22 -73 31 -106 41 -290 142 -425 234 -92 63 -275 200 -290 217 -5 6 -93 73 -195 148 -102 75 -190 141 -196 146 -7 5 -35 21 -63 35 -28 15 -54 31 -57 36 -3 5 -16 9 -28 9 -13 0 -40 7 -59 15 -53 22 -223 20 -273 -3 -83 -37 -126 -81 -139 -140 -6 -30 -5 -32 19 -32 20 0 27 6 32 28 9 38 21 50 55 57 16 4 29 11 29 16 0 5 7 9 15 9 8 0 15 -8 15 -17 0 -16 12 -18 103 -18 104 0 114 -2 202 -47 36 -18 164 -100 190 -120 37 -30 187 -138 191 -138 3 0 19 -12 34 -27 36 -34 47 -43 82 -66 15 -9 35 -25 45 -35 20 -20 221 -172 228 -172 3 0 35 -20 72 -45 37 -25 73 -45 80 -45 7 0 13 -3 13 -7 0 -12 264 -143 287 -143 6 0 24 -7 39 -15 16 -8 36 -15 44 -15 36 -1 50 -26 50 -86 -2 -210 -66 -765 -114 -979 -9 -38 -21 -95 -27 -125 -6 -30 -15 -59 -19 -65 -5 -5 -11 -28 -15 -50 -8 -50 -35 -147 -45 -160 -4 -5 -11 -29 -15 -52 -4 -24 -11 -45 -16 -49 -5 -3 -9 -15 -9 -27 0 -12 -6 -34 -14 -49 -8 -15 -17 -42 -21 -60 -4 -18 -14 -42 -21 -53 -8 -11 -14 -28 -14 -37 0 -10 -4 -26 -10 -36 -5 -9 -16 -35 -25 -57 -9 -22 -25 -58 -35 -80 -10 -22 -23 -51 -28 -65 -6 -14 -33 -73 -61 -131 -28 -59 -51 -111 -51 -117 0 -6 -3 -12 -7 -14 -5 -1 -16 -19 -27 -38 -88 -167 -111 -206 -123 -213 -7 -4 -13 -13 -13 -19 0 -19 -226 -348 -287 -418 -7 -8 -43 -51 -79 -95 -137 -165 -323 -351 -489 -489 -96 -80 -99 -82 -196 -158 -74 -58 -89 -65 -99 -53 -7 8 -18 15 -24 15 -6 0 -25 12 -41 28 -17 15 -47 38 -67 52 -43 30 -121 94 -160 132 -16 16 -32 28 -36 28 -12 0 -307 295 -364 364 -28 33 -59 68 -68 76 -9 8 -67 83 -128 165 -62 83 -116 155 -120 160 -4 6 -29 44 -56 85 -27 41 -56 86 -65 100 -9 14 -25 42 -36 63 -11 20 -23 37 -26 37 -4 0 -10 12 -13 26 -4 15 -12 32 -19 40 -28 32 -37 44 -37 51 0 4 -22 53 -49 108 -72 148 -100 208 -157 345 -8 19 -19 43 -24 52 -6 10 -10 23 -10 30 0 7 -6 25 -14 40 -8 15 -17 41 -21 58 -4 17 -13 43 -21 58 -8 15 -14 35 -14 44 0 9 -4 19 -9 22 -5 3 -12 23 -16 43 -4 21 -10 43 -15 48 -4 6 -11 31 -14 57 -4 26 -11 50 -16 53 -5 3 -12 27 -16 53 -3 26 -10 52 -14 57 -4 6 -11 30 -15 55 -4 25 -14 68 -22 95 -31 101 -33 112 -33 158 0 25 -7 67 -15 92 -9 25 -20 83 -25 128 -5 45 -17 163 -28 262 -16 145 -29 410 -23 472 0 7 20 17 44 23 23 6 56 18 74 26 17 8 38 14 46 14 9 0 18 4 22 9 7 12 64 41 81 41 7 0 19 6 27 14 7 8 35 24 61 36 48 21 147 79 156 90 3 3 23 17 45 30 22 13 45 29 52 35 27 23 40 32 76 54 20 12 37 26 37 31 0 5 8 11 18 14 9 4 33 20 52 36 47 40 50 42 90 70 19 14 37 28 40 32 7 9 205 153 285 208 37 25 72 50 79 55 6 6 34 21 61 34 28 13 58 28 68 33 24 12 168 22 199 15 24 -6 25 -8 20 -84 -4 -72 -2 -80 20 -100 48 -45 156 -25 172 31 9 34 -5 37 -50 11 l-44 -26 -35 27 c-38 29 -43 45 -20 64 23 19 19 65 -7 84 -23 16 -23 16 12 10 54 -9 83 -31 76 -59 -5 -19 -1 -23 26 -29 17 -3 36 -2 40 2 26 26 -58 126 -134 161 -39 17 -65 21 -150 20 -65 0 -120 -6 -148 -16z m190 -33 c0 -13 -20 -13 -40 0 -12 8 -9 10 13 10 15 0 27 -4 27 -10z m-870 -520 c0 -13 -28 -25 -38 -16 -3 4 0 11 8 16 20 13 30 12 30 0z m1050 -4190 c0 -5 -7 -10 -15 -10 -8 0 -15 5 -15 10 0 6 7 10 15 10 8 0 15 -4 15 -10z"/> <path d="M4737 6913 c-14 -13 -6 -49 13 -61 27 -17 25 -37 -6 -61 -31 -25 -67 -27 -84 -6 -16 19 -50 20 -50 1 0 -8 11 -26 24 -40 19 -21 33 -26 73 -26 65 0 105 37 107 100 0 22 -4 44 -10 48 -6 4 -14 17 -18 30 -7 21 -35 30 -49 15z"/> <path d="M4195 6865 c-61 -14 -104 -36 -170 -84 -27 -20 -57 -40 -66 -46 -51 -29 -189 -129 -209 -150 -13 -14 -28 -25 -34 -25 -6 0 -24 -13 -41 -28 -16 -15 -50 -43 -75 -62 -25 -18 -52 -41 -61 -49 -55 -54 -194 -153 -274 -196 -38 -21 -83 -47 -100 -59 -30 -21 -142 -78 -200 -101 -69 -28 -111 -44 -131 -50 -44 -12 -48 -40 -35 -227 7 -95 17 -207 22 -248 6 -41 14 -122 19 -180 4 -58 12 -125 18 -150 6 -25 18 -85 27 -135 9 -49 21 -108 27 -130 15 -58 38 -154 46 -200 5 -23 12 -46 16 -53 7 -12 28 -82 46 -152 5 -19 25 -80 45 -135 20 -55 40 -111 45 -125 11 -32 33 -87 49 -125 7 -16 19 -43 25 -60 18 -42 74 -164 93 -200 8 -16 25 -48 36 -70 11 -22 31 -54 44 -72 12 -17 23 -38 23 -46 0 -8 7 -20 15 -27 9 -7 25 -34 37 -59 11 -25 24 -48 27 -51 4 -3 32 -45 61 -95 30 -49 58 -94 62 -100 5 -5 17 -21 28 -34 11 -13 20 -27 20 -31 0 -4 10 -18 23 -32 12 -13 34 -42 49 -64 15 -21 39 -52 53 -68 14 -16 25 -32 25 -35 0 -3 20 -29 45 -56 25 -28 49 -54 53 -60 101 -136 442 -468 571 -555 20 -14 57 -42 82 -62 25 -21 52 -38 58 -38 11 0 127 83 141 100 3 4 12 11 21 16 90 50 421 374 566 553 16 19 45 55 66 80 20 25 41 51 45 56 4 6 28 37 53 70 24 33 52 72 61 86 9 14 23 32 30 40 8 8 25 32 38 54 13 22 27 42 30 45 8 6 54 82 72 120 7 14 23 39 35 56 13 17 23 36 23 42 0 6 6 17 13 24 6 7 25 38 40 68 16 30 38 71 49 90 40 71 56 103 127 265 10 22 26 60 36 85 9 25 21 53 27 64 5 10 20 50 33 90 13 39 28 82 33 96 5 14 18 52 27 85 10 33 22 71 27 85 19 50 78 292 78 321 0 17 5 40 11 51 6 11 15 44 19 72 5 28 13 71 19 96 13 59 36 213 56 375 16 132 21 450 7 471 -4 7 -26 17 -49 23 -23 6 -45 16 -48 21 -3 6 -14 10 -24 10 -10 0 -24 7 -31 15 -7 8 -19 15 -28 15 -8 0 -37 14 -64 30 -26 17 -53 30 -58 30 -5 0 -26 12 -47 26 -21 14 -47 30 -58 35 -11 5 -33 18 -50 29 -16 11 -40 25 -52 31 -13 7 -23 16 -23 21 0 4 -5 8 -10 8 -6 0 -16 5 -23 10 -7 6 -52 40 -102 77 -49 37 -123 94 -165 127 -204 163 -385 290 -475 334 -77 38 -204 56 -206 30 0 -7 -2 -32 -4 -55 -4 -55 -52 -117 -101 -133 -44 -15 -109 -8 -133 14 -23 21 -40 20 -64 -1 -14 -13 -36 -18 -83 -18 -61 0 -65 2 -105 41 -38 38 -41 46 -42 95 0 30 -5 57 -11 61 -15 11 -62 8 -121 -7z m840 -58 c22 -11 54 -31 72 -44 17 -12 34 -23 38 -23 5 0 51 -33 150 -107 6 -5 33 -24 60 -43 28 -19 55 -39 60 -46 19 -21 410 -310 474 -350 138 -85 284 -160 347 -179 28 -8 37 -41 15 -58 -9 -6 -24 -23 -33 -37 -8 -14 -26 -36 -38 -50 -12 -14 -42 -55 -66 -92 -49 -77 -52 -77 -116 -14 -42 40 -202 166 -212 166 -3 0 -24 13 -48 29 -24 16 -63 39 -88 52 -25 13 -47 25 -50 28 -6 7 -122 64 -175 86 -22 9 -53 23 -70 30 -84 38 -326 105 -379 105 -19 0 -37 4 -41 10 -6 10 116 154 160 188 14 11 25 27 25 35 0 18 -55 37 -105 37 -17 0 -46 5 -65 11 -19 7 -75 14 -125 18 -89 6 -90 6 -93 34 -3 24 2 30 35 43 81 34 133 95 133 158 0 12 5 27 11 33 15 15 73 5 124 -20z m-814 -107 c-1 -69 -6 -128 -9 -131 -11 -10 -112 -21 -113 -12 -4 51 -2 217 2 225 10 16 82 47 104 45 19 -2 19 -9 16 -127z m58 48 c-1 -92 -15 -211 -18 -148 0 19 -4 79 -8 133 -5 86 -4 97 10 97 15 0 17 -12 16 -82z m-215 -42 c-6 -16 -8 -17 -16 -2 -11 19 0 42 13 29 6 -6 7 -18 3 -27z m-53 -8 c-1 -5 -1 -43 -1 -86 l0 -79 -51 -16 c-28 -10 -60 -17 -70 -17 -10 0 -33 -6 -51 -14 -18 -8 -53 -22 -78 -32 -88 -34 -140 -59 -140 -66 0 -5 -8 -8 -17 -8 -9 0 -24 -7 -34 -16 -11 -10 -25 -14 -35 -10 -21 8 -24 5 106 100 58 42 117 85 131 97 14 11 49 37 76 57 28 20 70 52 94 70 39 30 71 39 70 20z m413 -63 c48 -19 49 -19 111 3 66 24 106 20 118 -12 4 -9 13 -13 22 -10 11 4 15 0 15 -16 0 -16 -4 -20 -16 -16 -9 3 -20 3 -25 0 -6 -3 -84 -7 -174 -8 l-163 -1 -5 50 c-3 27 0 58 5 68 8 16 11 15 36 -11 15 -16 49 -37 76 -47z m361 -115 c86 -15 169 -30 203 -35 17 -3 32 -11 32 -18 0 -7 -18 -32 -40 -57 -22 -25 -57 -72 -77 -105 -21 -33 -46 -69 -56 -81 -21 -24 -33 -46 -99 -176 -27 -51 -48 -97 -48 -103 -1 -5 -9 -28 -20 -50 -11 -22 -19 -49 -20 -60 0 -12 -4 -25 -9 -30 -5 -6 -11 -25 -13 -44 -4 -44 -18 -48 -42 -13 -19 28 -192 163 -254 197 -21 12 -56 33 -79 48 -24 15 -47 27 -52 27 -13 0 -94 41 -101 51 -3 4 -18 11 -34 15 -15 3 -47 17 -70 29 -22 12 -61 25 -86 29 -24 4 -49 11 -55 16 -12 10 -92 26 -198 40 -37 5 -78 12 -90 16 -12 5 -58 8 -102 8 -64 1 -80 4 -80 16 0 8 15 20 32 25 18 6 46 21 62 33 17 12 39 22 49 22 11 0 25 7 32 15 7 8 21 15 31 15 11 0 27 4 37 9 37 20 86 41 96 41 6 0 25 7 41 16 17 8 48 19 70 24 104 23 141 33 153 43 7 5 43 14 80 18 37 4 85 12 107 17 51 12 533 13 600 2z m215 -310 c34 -11 75 -20 91 -20 15 0 30 -4 33 -9 3 -5 21 -12 40 -15 20 -4 48 -13 63 -21 15 -8 37 -15 48 -15 11 0 29 -7 39 -15 11 -8 25 -15 32 -15 12 0 104 -40 189 -82 55 -26 122 -65 173 -99 24 -16 47 -29 53 -29 5 0 9 -3 9 -7 0 -5 28 -27 63 -50 34 -23 80 -58 102 -78 22 -19 48 -37 58 -41 30 -10 15 -37 -25 -46 -20 -4 -51 -16 -69 -28 -19 -11 -45 -25 -59 -32 -14 -7 -27 -15 -30 -18 -3 -3 -32 -23 -65 -45 -33 -22 -62 -42 -65 -45 -3 -3 -27 -23 -55 -45 -27 -21 -54 -45 -58 -52 -11 -18 -42 -16 -57 2 -7 8 -19 15 -27 15 -8 0 -27 7 -41 14 -15 8 -45 22 -67 31 -65 27 -98 41 -135 58 -19 8 -66 26 -105 38 -38 12 -74 25 -80 29 -5 4 -30 10 -55 14 -24 4 -49 11 -55 15 -14 12 -93 30 -190 44 -91 14 -99 24 -71 92 9 21 16 46 16 56 0 18 18 66 46 122 8 16 14 37 14 47 0 10 6 25 13 32 6 7 21 31 32 53 11 22 32 59 48 81 15 23 27 46 27 51 0 15 23 33 41 33 9 0 45 -9 79 -20z m-1623 -88 c129 -129 145 -164 87 -191 -38 -17 -72 -4 -149 59 -90 73 -119 90 -149 90 -14 0 -27 4 -30 9 -8 12 34 47 64 54 14 4 35 15 46 25 17 16 26 22 51 31 1 1 37 -34 80 -77z m57 45 c15 -19 26 -42 26 -52 0 -17 -1 -17 -17 -2 -10 9 -28 25 -40 37 -13 11 -23 27 -23 35 0 26 28 16 54 -18z m121 9 c27 -7 52 -19 56 -27 17 -34 39 -88 39 -97 0 -6 6 -23 14 -39 8 -15 22 -48 31 -73 21 -54 28 -70 54 -132 12 -26 21 -51 21 -57 0 -5 6 -22 14 -38 21 -41 46 -100 46 -109 0 -4 7 -15 16 -25 19 -21 11 -55 -15 -64 -29 -9 -108 -93 -153 -162 -22 -35 -44 -63 -48 -63 -12 0 -27 22 -34 50 -4 14 -14 39 -21 55 -13 29 -62 136 -90 200 -49 108 -89 185 -96 185 -5 0 -9 7 -9 15 0 14 11 15 75 9 l75 -7 40 42 c22 23 43 53 46 67 7 27 -21 103 -43 117 -7 4 -13 13 -13 19 0 11 -55 86 -77 104 -15 13 -7 44 11 44 6 -1 33 -7 61 -14z m125 -42 c0 -31 -23 -28 -28 4 -2 15 2 22 12 22 11 0 16 -9 16 -26z m175 -19 c28 -9 58 -21 67 -26 10 -5 26 -9 36 -9 9 0 26 -6 37 -13 11 -7 38 -19 60 -25 22 -6 49 -18 60 -26 20 -15 20 -15 0 -35 -31 -31 -38 -42 -71 -111 -51 -107 -64 -140 -64 -160 0 -31 -31 -100 -45 -100 -7 0 -15 12 -18 28 -5 29 -24 86 -38 115 -5 9 -16 39 -25 65 -15 43 -29 79 -70 170 -8 17 -21 49 -30 70 -9 20 -20 45 -25 54 -5 10 -9 20 -9 24 0 10 81 -2 135 -21z m-150 -62 c-7 -17 -8 -16 -17 4 -6 12 -7 30 -3 40 7 17 8 16 17 -4 6 -12 7 -30 3 -40z m-688 -198 l3 -184 -30 -16 c-25 -13 -37 -13 -87 -2 l-58 12 -3 149 c-3 160 1 175 47 177 14 0 46 13 71 28 25 16 47 26 50 24 2 -2 6 -87 7 -188z m168 175 c24 -11 47 -24 50 -30 3 -5 30 -26 60 -46 30 -20 55 -40 55 -45 0 -5 9 -9 20 -9 10 0 30 -5 44 -11 52 -24 116 19 116 77 0 39 15 53 24 21 11 -42 6 -95 -11 -112 -42 -43 -107 -45 -166 -8 -58 38 -80 51 -97 59 -8 4 -20 14 -26 23 -7 9 -34 16 -72 19 -77 5 -97 -12 -108 -95 l-8 -58 -7 45 c-12 72 -10 165 3 178 18 18 74 14 123 -8z m544 -32 c0 -31 -1 -31 -10 -10 -5 13 -7 28 -3 33 10 16 14 9 13 -23z m467 -17 c5 -6 32 -22 59 -36 69 -37 167 -103 249 -169 38 -31 73 -56 78 -56 4 0 8 -6 8 -12 0 -10 -42 -13 -178 -13 -144 0 -185 -4 -220 -18 -23 -9 -54 -17 -68 -17 -14 0 -50 -12 -80 -26 -59 -28 -78 -26 -51 4 9 10 20 33 23 50 4 18 10 32 15 32 5 0 9 7 9 16 0 8 16 48 35 88 19 40 35 76 35 80 0 4 5 12 10 19 6 7 19 24 31 40 22 29 30 32 45 18z m2124 -22 c0 -12 7 -27 17 -34 15 -11 15 -24 4 -141 -7 -71 -17 -183 -21 -249 -5 -66 -14 -136 -19 -155 -6 -19 -11 -51 -11 -72 0 -20 -9 -74 -20 -119 -19 -80 -21 -84 -98 -163 -89 -90 -114 -117 -257 -271 -55 -59 -109 -120 -120 -134 -25 -33 -61 -74 -102 -117 -18 -19 -33 -39 -33 -44 0 -6 -5 -10 -10 -10 -19 0 -23 31 -7 63 9 18 18 39 21 47 3 8 10 22 15 30 4 8 23 45 40 81 59 121 176 288 249 352 17 16 32 36 32 46 -1 15 -85 82 -137 110 -34 17 -28 45 25 115 26 35 54 74 62 86 8 12 27 36 42 54 15 17 28 35 28 39 0 7 79 117 110 154 5 7 10 15 10 19 0 4 8 17 19 28 26 29 131 185 131 195 0 5 7 14 15 21 8 7 15 19 15 26 0 19 -26 18 -34 -2 -3 -8 -10 -13 -16 -9 -13 8 20 75 37 75 7 0 13 -10 13 -21z m-2558 -51 c-13 -13 -26 8 -17 30 6 16 7 16 17 -1 7 -13 7 -22 0 -29z m-525 0 c13 -12 23 -31 23 -42 0 -12 7 -30 15 -40 8 -11 15 -25 15 -32 0 -11 19 -57 75 -179 8 -16 28 -61 45 -100 39 -85 50 -111 89 -198 17 -37 31 -74 31 -82 0 -8 4 -15 9 -15 5 0 13 -10 16 -22 4 -13 13 -36 20 -53 14 -30 65 -144 90 -200 8 -16 16 -37 19 -45 3 -8 10 -22 15 -30 5 -8 24 -46 41 -85 18 -38 39 -82 46 -97 8 -14 14 -31 14 -37 0 -6 14 -42 31 -79 18 -37 38 -82 46 -99 35 -83 43 -101 63 -145 12 -27 26 -50 31 -54 5 -3 9 -13 9 -23 0 -10 6 -24 14 -31 8 -6 12 -18 9 -27 -7 -17 -40 -13 -136 14 -68 20 -97 56 -97 121 0 22 -7 76 -15 119 -8 43 -15 96 -15 118 -1 40 -28 132 -46 157 -5 7 -16 26 -24 41 -20 41 -56 74 -132 123 -38 24 -68 50 -68 58 0 8 -18 33 -39 55 -39 41 -63 46 -75 15 -3 -8 -10 -14 -16 -14 -22 0 -71 45 -92 84 -20 38 -21 53 -19 205 1 133 -1 171 -15 207 -9 25 -22 43 -28 41 -6 -2 -13 -30 -16 -63 -6 -58 -20 -111 -46 -169 -7 -16 -16 -52 -20 -80 -4 -27 -11 -61 -15 -73 -6 -16 -4 -53 6 -105 16 -83 33 -125 65 -162 13 -15 16 -26 9 -42 -4 -13 -13 -23 -19 -23 -17 0 -11 -47 11 -85 12 -20 34 -42 50 -51 16 -8 29 -18 29 -23 0 -11 -25 -21 -54 -21 -29 0 -39 -10 -25 -26 8 -9 25 -11 55 -7 30 4 44 2 44 -6 0 -6 -7 -14 -15 -17 -22 -9 -18 -41 5 -54 11 -6 25 -29 31 -53 12 -49 25 -69 56 -85 31 -17 33 -16 33 21 0 59 10 77 40 77 35 0 64 -41 57 -79 -14 -74 -32 -119 -58 -146 -29 -31 -37 -63 -20 -81 6 -5 1 -26 -11 -51 l-20 -43 26 -31 c14 -17 26 -39 26 -49 0 -34 41 -90 101 -135 33 -25 64 -45 69 -45 6 0 10 -7 10 -15 0 -30 -99 -14 -213 34 -32 14 -43 28 -77 97 -22 45 -40 84 -40 87 0 3 -13 34 -28 69 -16 35 -37 83 -46 108 -10 25 -22 54 -27 65 -11 25 -34 92 -61 175 -11 36 -27 79 -34 97 -8 17 -14 36 -14 43 0 7 -7 35 -16 64 -9 28 -22 71 -30 96 -8 25 -14 53 -14 64 0 10 -7 39 -15 65 -29 94 -97 457 -99 531 l-1 35 65 5 c94 8 145 41 185 118 19 38 16 140 -6 249 -18 87 -5 113 53 113 29 0 49 -7 65 -22z m554 -75 c-9 -15 -10 -12 -10 17 0 29 1 32 10 18 7 -12 7 -24 0 -35z m-461 10 c22 -19 28 -57 8 -51 -7 3 -14 14 -16 26 -2 12 -8 22 -13 22 -5 0 -9 5 -9 10 0 14 7 13 30 -7z m520 -140 c0 -21 -3 -24 -9 -14 -5 8 -7 20 -4 28 8 21 13 15 13 -14z m2288 5 c-6 -18 -28 -21 -28 -4 0 9 7 16 16 16 9 0 14 -5 12 -12z m-3052 -65 c-7 -56 -40 -123 -61 -123 -5 0 -23 -7 -40 -16 -16 -8 -47 -17 -70 -20 l-40 -6 -12 54 c-19 80 -22 77 62 71 85 -7 105 3 130 64 23 54 39 42 31 -24z m316 15 c-9 -9 -12 -7 -12 12 0 19 3 21 12 12 9 -9 9 -15 0 -24z m2701 9 c-20 -36 -68 -97 -75 -97 -14 0 -9 30 7 36 8 4 15 10 15 15 0 17 43 68 52 63 4 -3 5 -11 1 -17z m-2213 -42 c0 -12 7 -26 16 -29 8 -3 12 -11 9 -17 -5 -7 -16 -3 -31 12 -23 22 -31 49 -18 62 12 11 24 -3 24 -28z m790 11 c81 -24 140 -36 173 -36 18 0 42 -6 53 -14 11 -8 41 -17 67 -21 26 -4 50 -11 53 -16 3 -5 17 -9 31 -9 13 0 37 -6 51 -14 15 -8 50 -22 77 -31 28 -10 70 -27 95 -37 172 -76 300 -139 300 -148 0 -3 18 -14 40 -24 22 -10 46 -23 53 -29 7 -7 33 -23 57 -36 43 -24 56 -32 88 -61 10 -8 36 -30 60 -48 23 -19 42 -40 42 -47 0 -8 -14 -29 -31 -47 -30 -32 -93 -119 -116 -160 -6 -11 -15 -23 -20 -27 -5 -3 -19 -26 -32 -51 -12 -25 -26 -52 -31 -60 -42 -74 -90 -206 -90 -250 -1 -19 -7 -46 -15 -60 -8 -14 -14 -46 -15 -72 0 -55 -9 -60 -36 -21 -34 49 -148 165 -177 180 -15 8 -37 23 -48 34 -27 27 -143 106 -168 114 -12 3 -21 10 -21 14 0 12 -246 131 -271 131 -8 0 -26 6 -40 13 -14 8 -45 17 -69 21 -24 4 -49 11 -55 15 -5 5 -69 15 -142 22 -103 9 -157 9 -248 0 -64 -6 -124 -16 -133 -20 -9 -5 -48 -19 -87 -31 -38 -13 -79 -29 -90 -36 -11 -8 -27 -14 -37 -14 -10 0 -18 -4 -18 -8 0 -12 -50 -33 -61 -27 -5 4 -9 13 -9 22 0 9 -13 40 -30 70 -16 29 -30 62 -30 73 0 11 -4 20 -9 20 -5 0 -13 10 -16 23 -4 12 -12 36 -20 52 -31 69 -45 104 -45 113 0 5 -7 15 -15 22 -8 7 -15 23 -15 35 0 12 -7 28 -15 35 -23 19 -18 46 20 100 64 91 173 205 208 216 9 3 17 9 17 14 0 5 21 18 48 30 26 13 55 27 66 32 21 11 100 32 161 43 22 4 45 11 50 15 25 21 371 17 445 -4z m1330 1 c0 -7 -39 -64 -87 -128 -49 -64 -95 -127 -103 -139 -68 -102 -82 -114 -107 -89 -13 13 -45 32 -90 53 -18 8 -33 22 -33 30 0 8 32 35 70 61 39 26 76 52 83 59 14 13 155 108 177 120 8 4 31 16 50 26 43 23 40 23 40 7z m3 -97 c-3 -11 -9 -20 -14 -20 -10 0 -12 24 -2 33 13 13 21 7 16 -13z m-2463 -207 c-1 -24 -2 -26 -11 -10 -5 9 -7 22 -4 27 10 17 15 11 15 -17z m40 -69 c0 -27 -15 -32 -24 -9 -7 19 3 47 15 39 5 -3 9 -16 9 -30z m2250 26 c0 -6 -7 -13 -15 -16 -8 -4 -15 -12 -15 -20 0 -8 -7 -14 -15 -14 -8 0 -15 7 -15 15 0 8 6 15 14 15 8 0 16 7 20 15 6 17 26 20 26 5z m-2670 -87 c0 -50 27 -136 51 -161 11 -12 31 -30 45 -39 25 -16 26 -29 8 -77 -10 -27 20 -18 48 14 34 39 79 41 102 5 20 -30 20 -35 1 -35 -8 0 -15 7 -15 15 0 10 -10 15 -30 15 -39 0 -41 -27 -2 -32 21 -2 28 -9 30 -31 3 -27 1 -28 -30 -25 -25 2 -34 8 -36 24 -3 20 -8 21 -65 17 -70 -4 -85 3 -106 57 -27 70 -40 219 -25 277 9 33 24 18 24 -24z m445 7 c9 -27 -6 -50 -16 -24 -4 10 -8 25 -8 32 -1 20 17 14 24 -8z m25 -77 c0 -20 -3 -24 -11 -16 -7 7 -9 19 -6 27 10 24 17 19 17 -11z m38 -72 c3 -16 -1 -22 -10 -19 -7 3 -15 15 -16 27 -3 16 1 22 10 19 7 -3 15 -15 16 -27z m2545 -65 c-28 -34 -62 -60 -68 -54 -7 7 60 87 73 88 6 0 12 6 13 13 0 9 2 9 6 -1 2 -7 -8 -27 -24 -46z m-2516 8 c3 -8 1 -20 -6 -27 -8 -8 -11 -8 -11 0 0 6 -3 18 -6 27 -3 9 -1 16 5 16 7 0 14 -7 18 -16z m29 -91 c-12 -12 -29 15 -21 34 7 17 8 16 18 -5 5 -12 7 -25 3 -29z m2494 7 c0 -10 -6 -34 -14 -52 -22 -52 -46 -131 -46 -150 0 -10 -6 -32 -14 -50 -7 -18 -19 -53 -25 -78 -20 -76 -28 -103 -51 -160 -12 -30 -25 -69 -29 -85 -4 -17 -12 -39 -18 -50 -6 -11 -25 -58 -43 -105 -17 -47 -45 -114 -62 -150 -43 -94 -55 -123 -62 -142 -7 -24 -29 -23 -76 5 -35 19 -54 47 -32 47 10 0 82 65 82 75 0 5 7 16 15 25 8 9 29 43 45 75 36 70 39 124 10 150 -29 26 -25 36 24 78 25 20 53 56 64 79 39 85 52 119 52 133 0 8 7 30 16 49 9 19 14 42 10 52 -6 15 -11 12 -38 -20 -17 -21 -69 -66 -117 -102 -47 -35 -91 -68 -98 -74 -16 -13 -43 -13 -43 1 0 6 35 46 78 88 103 103 255 268 317 343 33 41 55 48 55 18z m-2468 -42 c7 -18 -2 -39 -13 -32 -12 7 -12 44 0 44 5 0 11 -6 13 -12z m-257 -18 c3 -5 15 -10 26 -10 10 0 19 -7 19 -15 0 -12 -13 -15 -59 -15 -68 0 -84 12 -44 33 34 18 50 20 58 7z m-166 -40 c36 -20 68 -30 97 -30 25 0 57 -8 76 -20 36 -21 78 -71 78 -92 0 -8 7 -23 15 -35 14 -21 13 -23 -22 -50 -21 -15 -39 -31 -41 -34 -21 -45 -61 -52 -137 -26 -54 19 -65 13 -58 -29 4 -27 2 -34 -11 -34 -12 0 -16 9 -16 34 0 21 -6 36 -15 40 -8 3 -15 12 -15 21 0 12 16 15 93 15 74 0 98 4 125 20 18 11 35 27 38 35 9 23 -25 85 -52 95 -13 5 -24 14 -24 19 0 5 -17 10 -39 9 -21 0 -53 4 -72 10 -94 29 -112 31 -133 17 -23 -17 -46 -20 -46 -6 0 5 12 23 26 40 33 39 63 40 133 1z m461 -19 c0 -23 -16 -36 -25 -21 -9 14 1 40 15 40 5 0 10 -9 10 -19z m820 5 c30 -8 74 -17 97 -21 24 -4 45 -10 48 -15 3 -4 21 -11 41 -15 20 -3 44 -10 53 -14 9 -5 34 -16 56 -25 22 -10 51 -24 65 -31 14 -8 45 -23 70 -35 24 -11 47 -24 50 -28 3 -5 24 -18 48 -30 24 -12 49 -27 55 -32 7 -6 24 -19 39 -30 20 -15 27 -31 32 -67 17 -147 24 -190 34 -210 27 -50 8 -46 -51 11 -119 117 -199 185 -245 212 -26 15 -49 30 -52 34 -8 12 -156 80 -173 80 -9 0 -19 5 -22 10 -3 6 -18 10 -33 10 -15 0 -37 7 -49 15 -36 25 -209 38 -340 25 -63 -6 -129 -18 -148 -26 -19 -8 -46 -14 -60 -14 l-26 0 3 88 3 87 40 7 c22 4 56 11 75 16 56 16 327 14 390 -2z m-992 -37 c7 -12 11 -23 8 -26 -9 -9 -76 21 -76 34 0 22 54 15 68 -8z m-360 -18 c10 -5 52 -11 93 -14 80 -4 99 -10 99 -31 0 -7 11 -18 25 -24 14 -6 25 -16 25 -22 0 -20 -73 -40 -147 -40 -64 0 -74 2 -69 16 3 9 6 20 6 25 0 5 8 8 18 7 9 -1 36 0 60 0 65 3 50 22 -18 22 -33 0 -60 -4 -60 -10 0 -12 -47 -14 -53 -2 -2 4 -7 24 -11 45 -7 39 0 45 32 28z m803 -96 c6 -98 25 -206 49 -275 19 -57 78 -177 89 -185 6 -3 11 -15 11 -26 0 -18 -5 -20 -47 -14 -67 9 -73 12 -73 34 0 11 -6 32 -14 48 -7 15 -20 44 -28 63 -9 19 -23 52 -32 72 -9 21 -23 52 -30 70 -8 18 -21 49 -29 68 -9 19 -18 42 -22 50 -8 22 -29 55 -44 74 -17 20 0 66 24 66 8 0 36 13 63 30 71 45 76 41 83 -75z m-241 58 c0 -7 -4 -13 -10 -13 -5 0 -10 12 -10 28 0 21 2 24 10 12 5 -8 10 -21 10 -27z m-151 -50 c14 -50 14 -53 -6 -53 -11 0 -25 16 -35 39 -23 49 -23 51 7 51 19 0 26 -7 34 -37z m204 -80 c-5 -11 -8 -12 -13 -2 -5 7 -6 19 -3 26 5 11 8 12 13 2 5 -7 6 -19 3 -26z m745 12 c14 -15 22 -483 8 -488 -6 -2 -26 -2 -44 0 -27 5 -36 13 -52 49 -11 23 -20 47 -20 53 0 5 -6 22 -14 38 -8 15 -21 44 -29 63 -29 69 -50 115 -64 142 -7 14 -13 33 -13 41 0 8 -7 20 -15 27 -8 7 -15 21 -15 31 0 10 -7 22 -16 27 -10 6 -14 14 -9 22 9 15 269 11 283 -5z m-368 -25 c11 -11 20 -28 20 -39 0 -22 94 -246 131 -311 11 -19 39 -81 39 -86 0 -2 -33 -4 -74 -4 -55 0 -79 4 -90 16 -21 20 -89 164 -111 234 -10 30 -22 63 -26 72 -5 9 -11 34 -15 56 -7 43 2 55 56 70 49 14 48 14 70 -8z m-580 -35 c0 -33 4 -45 15 -45 8 0 15 -7 15 -15 0 -9 -7 -18 -15 -21 -26 -10 -18 -51 11 -58 28 -7 28 -29 0 -34 -11 -2 -19 4 -23 17 -3 12 -11 21 -18 21 -16 0 -75 -54 -75 -69 0 -17 47 -13 54 4 8 23 46 19 46 -5 0 -11 -7 -20 -15 -20 -8 0 -19 -9 -25 -20 -6 -11 -19 -20 -29 -20 -20 0 -35 -25 -25 -41 10 -17 46 -9 51 11 6 21 12 24 37 14 23 -9 19 -32 -6 -40 -13 -4 -40 -18 -61 -31 -22 -14 -42 -21 -45 -17 -4 4 -1 9 6 11 21 8 14 43 -8 43 -11 0 -20 6 -21 13 0 10 -2 10 -6 0 -7 -18 -33 -16 -33 2 0 8 7 15 15 15 8 0 15 7 15 15 0 8 9 15 19 15 28 0 37 21 16 37 -25 18 -33 17 -40 -7 -8 -24 -30 -26 -39 -4 -8 20 1 34 20 34 19 0 18 20 -2 34 -9 7 -12 18 -8 29 5 14 9 15 20 6 8 -6 14 -18 14 -25 0 -16 36 -19 45 -5 3 6 -3 15 -14 21 -12 6 -18 16 -15 25 8 20 34 19 34 0 0 -8 9 -15 20 -15 28 0 25 17 -9 51 -32 31 -51 37 -51 15 0 -16 -27 -29 -41 -20 -19 11 -9 34 16 34 16 0 25 6 25 16 0 9 9 18 20 21 11 3 20 13 20 22 0 26 9 31 52 31 l38 0 0 -45z m1011 -50 l-6 -80 -8 79 c-7 76 -3 106 13 89 4 -4 4 -44 1 -88z m120 49 c8 -8 23 -14 31 -14 9 0 21 -7 28 -15 7 -8 18 -15 24 -15 16 0 207 -131 219 -151 7 -12 4 -25 -14 -50 -13 -19 -27 -35 -31 -37 -5 -2 -8 -8 -8 -14 0 -6 -13 -27 -30 -48 -16 -21 -30 -44 -30 -52 0 -31 -24 -38 -128 -38 -118 0 -148 10 -131 42 11 20 8 163 -7 330 -4 36 -3 71 0 77 9 13 54 4 77 -15z m959 -18 c0 -7 -30 -44 -66 -82 -36 -38 -70 -81 -76 -96 -11 -31 -28 -28 -28 4 0 20 53 96 78 112 8 4 31 24 50 42 41 39 42 39 42 20z m220 1 c0 -7 -19 -41 -42 -76 -40 -60 -76 -89 -133 -106 -20 -6 -20 -6 0 -21 11 -8 29 -21 40 -28 16 -11 20 -24 19 -67 -1 -77 -42 -149 -133 -235 -32 -32 -35 -32 -105 -27 -44 3 -87 1 -108 -6 -70 -23 -103 -91 -44 -91 17 0 26 7 30 24 7 28 30 36 109 36 73 0 197 -57 197 -90 0 -33 -26 -34 -66 -4 -30 24 -47 29 -93 29 -50 0 -56 -2 -59 -21 -4 -29 45 -56 71 -40 20 13 50 -2 55 -28 3 -12 -4 -16 -27 -16 -16 0 -33 5 -36 11 -5 6 -12 4 -20 -8 -10 -14 -30 -18 -95 -20 -96 -2 -155 14 -297 83 -93 45 -117 51 -142 35 -14 -9 -11 -22 11 -52 9 -14 8 -22 -5 -43 -34 -52 -62 -61 -182 -61 -111 0 -145 9 -235 65 -164 102 -210 118 -230 79 -10 -19 -10 -24 4 -34 57 -42 -41 -115 -156 -115 -64 0 -175 32 -263 77 -79 39 -166 66 -217 67 -58 1 -66 -7 -45 -43 9 -16 17 -31 17 -34 0 -3 -21 -18 -47 -34 -46 -27 -53 -28 -173 -27 -136 1 -156 7 -191 55 -29 41 -14 57 31 34 48 -25 237 -26 274 -2 31 21 34 52 6 69 -24 15 -26 53 -4 62 29 11 113 6 161 -10 48 -16 67 -24 178 -74 118 -52 131 -57 203 -76 72 -18 73 -18 110 1 40 22 54 63 32 90 -17 21 -7 39 33 58 43 21 99 22 140 3 18 -8 54 -24 80 -36 27 -12 77 -38 110 -58 114 -68 205 -89 252 -58 31 21 34 65 5 73 -11 3 -20 12 -20 19 0 19 35 53 66 64 36 14 106 12 129 -3 11 -7 70 -34 130 -59 161 -68 245 -72 233 -11 -5 26 -35 28 -43 3 -10 -31 -27 -26 -185 48 -131 61 -144 64 -223 60 -67 -3 -80 -7 -114 -34 -41 -33 -48 -51 -39 -90 4 -15 14 -24 26 -24 11 0 20 -7 20 -15 0 -20 -19 -19 -88 4 -57 20 -92 36 -147 71 -101 63 -183 90 -274 90 l-79 0 -51 -46 c-28 -25 -51 -50 -51 -54 0 -5 14 -11 31 -15 21 -5 29 -12 27 -23 -3 -14 -16 -17 -72 -15 -39 1 -83 8 -102 17 -19 9 -48 23 -66 31 -53 22 -171 76 -198 90 -14 7 -55 18 -92 25 -75 14 -125 4 -166 -33 -18 -17 -27 -19 -50 -11 -17 6 -28 18 -30 32 -2 14 -14 27 -28 32 -25 10 -25 10 -7 35 10 13 26 25 36 25 25 0 84 34 112 64 13 14 28 26 33 26 6 0 13 7 16 16 3 8 10 12 16 9 19 -12 10 -40 -21 -65 -17 -14 -37 -31 -44 -37 -8 -7 -18 -13 -23 -13 -5 0 -15 -6 -22 -14 -6 -8 -21 -16 -33 -18 -12 -2 -22 -10 -22 -18 0 -40 101 13 178 93 48 50 50 50 80 38 18 -7 48 -17 67 -21 19 -4 49 -13 65 -18 54 -18 119 -33 190 -42 39 -5 83 -14 100 -20 16 -6 79 -13 140 -15 60 -2 130 -8 155 -14 58 -13 546 -14 670 0 52 5 137 12 189 15 93 5 171 22 223 50 14 8 33 14 42 14 9 0 19 7 22 15 4 8 12 15 18 15 7 0 27 16 44 35 38 41 44 101 14 128 -24 22 -75 32 -99 18 -22 -11 -43 2 -43 26 0 19 70 93 88 93 25 0 155 67 192 99 37 32 60 39 60 18z m-630 -65 c0 -4 27 -36 61 -71 33 -35 86 -97 116 -138 69 -91 65 -98 -56 -114 -96 -12 -92 -14 -111 69 -6 31 -17 68 -22 82 -6 14 -14 50 -18 80 -5 30 -11 65 -15 78 -6 19 -4 22 19 22 14 0 26 -4 26 -8z m-1620 -161 c0 -25 -20 -38 -31 -20 -15 23 -10 39 11 39 13 0 20 -7 20 -19z m1890 -26 c0 -8 10 -21 22 -30 21 -14 24 -14 35 1 15 21 43 11 36 -13 -5 -18 -65 -63 -84 -63 -22 0 -50 106 -33 123 10 9 24 -2 24 -18z m-2160 -27 c0 -5 13 -29 29 -53 46 -69 53 -139 13 -147 -13 -3 -16 -12 -13 -47 3 -49 -10 -52 -37 -9 -14 23 -14 33 -4 61 17 47 15 74 -8 123 -16 33 -18 47 -10 68 9 25 30 28 30 4z m1797 -40 c93 -92 89 -98 -57 -98 -73 0 -120 4 -120 10 0 5 20 37 45 71 25 34 45 65 45 70 0 22 29 4 87 -53z m-1501 28 c9 -22 -25 -61 -88 -101 -31 -20 -59 -42 -60 -47 -7 -19 -58 0 -58 22 0 21 49 60 77 60 10 0 33 14 51 30 18 17 37 30 43 30 5 0 9 5 9 10 0 15 20 12 26 -4z m2009 -6 c3 -10 1 -28 -5 -39 -22 -42 -132 -105 -200 -114 -19 -3 -60 -10 -90 -17 -32 -8 -68 -10 -85 -6 -27 7 -28 9 -13 20 10 7 53 18 95 25 43 6 92 17 108 22 17 6 45 14 63 18 38 7 102 65 102 92 0 25 17 24 25 -1z m-655 -11 c0 -5 -7 -9 -15 -9 -15 0 -20 12 -9 23 8 8 24 -1 24 -14z m-1060 -16 c0 -20 -3 -24 -11 -16 -7 7 -9 19 -6 27 10 24 17 19 17 -11z m430 -14 c0 -10 -7 -19 -15 -19 -15 0 -21 31 -9 43 11 10 24 -3 24 -24z m593 -14 c-3 -8 -9 -15 -14 -15 -5 0 -9 -9 -9 -19 0 -22 -16 -36 -24 -22 -7 11 36 80 46 74 4 -2 5 -10 1 -18z m-1058 -24 c22 -5 66 -12 98 -16 59 -7 81 -25 59 -47 -8 -8 -16 -7 -27 2 -9 8 -44 17 -78 21 -36 4 -66 14 -72 22 -6 9 -29 17 -51 20 l-39 4 35 1 c19 1 53 -2 75 -7z m493 -2 c-2 -6 -8 -10 -13 -10 -5 0 -11 4 -13 10 -2 6 4 11 13 11 9 0 15 -5 13 -11z m-1085 -25 c9 -9 -4 -35 -14 -28 -5 3 -9 12 -9 20 0 14 12 19 23 8z m820 -29 c1 -5 -6 -11 -15 -13 -11 -2 -18 3 -18 13 0 17 30 18 33 0z m206 -10 c37 -35 -49 -47 -132 -19 -46 15 -54 23 -40 38 11 11 157 -5 172 -19z m64 -9 c3 -7 0 -19 -6 -25 -14 -14 -38 5 -30 25 7 18 29 18 36 0z m261 -5 c66 -7 83 -25 40 -42 -21 -7 -62 -7 -149 3 -100 11 -120 16 -123 31 -3 15 6 17 85 16 48 -1 115 -4 147 -8z m496 2 c55 -5 61 -7 40 -15 -40 -15 -167 -30 -275 -32 -94 -1 -100 0 -100 19 0 15 9 21 35 26 47 7 220 9 300 2z m-370 -29 c0 -8 -7 -14 -15 -14 -15 0 -21 21 -9 33 10 9 24 -2 24 -19z m-1345 -120 c6 -9 34 -28 61 -43 32 -18 50 -35 52 -49 4 -26 -8 -28 -47 -7 -41 21 -113 93 -106 105 9 15 26 12 40 -6z m2205 -175 c0 -20 -15 -26 -25 -9 -9 15 3 43 15 35 5 -3 10 -15 10 -26z m-1774 -20 c32 -11 79 -27 104 -34 25 -8 61 -19 80 -24 19 -6 82 -11 140 -11 90 0 113 4 156 24 28 13 55 29 58 35 10 15 72 14 88 -2 12 -12 43 -23 143 -48 22 -6 88 -11 147 -11 88 -1 119 3 170 22 35 13 70 28 78 34 24 18 59 36 68 36 5 0 22 -12 37 -26 48 -44 238 -65 361 -40 104 21 129 13 104 -35 -23 -41 -65 -52 -214 -52 -144 0 -194 9 -273 50 -28 15 -33 15 -55 1 -13 -8 -39 -19 -58 -23 -19 -4 -39 -11 -45 -15 -26 -20 -192 -31 -301 -20 -60 7 -113 15 -119 20 -5 4 -30 12 -55 18 -44 11 -89 3 -126 -20 -26 -17 -186 -27 -271 -17 -85 9 -179 31 -215 50 -30 15 -64 10 -84 -12 -41 -46 -99 -61 -255 -66 l-146 -5 -22 30 c-35 50 -24 69 33 54 35 -10 185 -1 264 16 48 11 92 46 92 74 0 25 41 24 116 -3z m494 -179 c-20 -13 -43 -13 -35 0 3 6 16 10 28 10 18 0 19 -2 7 -10z m798 -22 c11 -9 61 -13 176 -14 107 -1 161 -5 164 -13 2 -6 -6 -25 -19 -42 -19 -27 -26 -30 -56 -26 -19 3 -46 1 -61 -4 -29 -11 -238 13 -277 32 -15 7 -29 6 -50 -5 -17 -9 -37 -16 -45 -16 -9 0 -21 -5 -26 -10 -25 -25 -332 -49 -394 -32 -121 34 -146 34 -217 0 -12 -6 -88 -11 -170 -12 -153 -1 -203 7 -275 45 -44 23 -64 24 -100 5 -86 -45 -286 -66 -324 -35 -15 12 -44 73 -44 90 0 5 13 3 29 -5 53 -28 310 6 356 46 12 11 41 10 63 -2 41 -22 91 -41 142 -52 106 -24 296 -10 366 27 37 19 67 19 106 -1 44 -23 214 -35 312 -23 75 10 183 39 216 60 20 13 108 3 128 -13z m-1038 -4 c0 -2 -14 -4 -31 -4 -16 0 -28 4 -25 9 5 8 56 3 56 -5z m635 6 c15 -6 7 -9 -30 -9 -36 -1 -46 2 -35 9 18 12 38 12 65 0z m-540 -10 c-3 -5 -12 -10 -20 -10 -8 0 -17 5 -20 10 -4 6 5 10 20 10 15 0 24 -4 20 -10z m967 -127 c16 -14 24 -15 52 -5 43 16 43 16 71 -14 l24 -26 30 23 c50 36 58 12 16 -44 -19 -25 -35 -50 -35 -56 0 -5 -12 -23 -27 -39 -16 -16 -44 -51 -63 -78 -19 -27 -45 -60 -57 -73 -13 -13 -23 -30 -23 -37 0 -7 -9 -18 -20 -24 -11 -6 -20 -17 -20 -25 0 -16 -25 -21 -34 -6 -3 4 -38 11 -77 14 -40 3 -77 11 -83 17 -5 5 -20 10 -31 10 -32 0 -37 11 -16 34 14 16 20 39 22 96 5 134 2 154 -28 172 l-26 16 31 16 c17 9 52 19 77 23 25 3 48 10 51 14 3 5 37 9 76 9 53 0 76 -4 90 -17z m-1293 -4 c20 -7 45 -15 56 -20 11 -4 37 -13 58 -20 20 -7 37 -15 37 -19 0 -3 -11 -18 -25 -34 -14 -16 -25 -35 -25 -42 0 -21 20 -27 27 -7 8 25 53 63 73 63 10 0 29 -10 44 -21 20 -16 27 -30 26 -53 -3 -50 -1 -56 18 -56 9 0 23 -9 30 -20 23 -37 32 -21 32 59 0 84 9 99 52 85 17 -5 18 -15 16 -112 l-3 -107 -43 1 c-32 1 -50 7 -72 29 l-30 29 0 -26 c0 -37 -23 -52 -67 -43 -60 11 -73 22 -73 60 0 30 4 35 33 43 39 10 41 22 4 35 -23 7 -30 5 -47 -15 -27 -32 -26 -95 2 -125 12 -13 26 -23 30 -23 11 0 38 -26 38 -36 0 -4 -21 -4 -46 0 -40 5 -47 3 -51 -14 -4 -17 -14 -20 -55 -20 -46 0 -49 -2 -46 -22 2 -19 8 -22 32 -20 17 2 39 9 50 15 56 32 357 51 453 28 38 -9 62 -9 95 0 89 22 149 27 249 18 213 -17 299 -38 299 -70 0 -40 -58 -69 -94 -46 -53 35 -406 40 -478 6 -22 -9 -31 -9 -42 0 -21 18 -257 26 -326 12 -30 -7 -74 -16 -98 -20 -24 -4 -48 -13 -54 -19 -7 -7 -20 -12 -30 -12 -22 0 -58 34 -58 54 0 8 -25 39 -55 69 -30 30 -55 58 -55 64 0 6 -11 22 -25 37 -18 19 -23 34 -19 50 3 13 1 27 -4 30 -5 3 -12 -3 -15 -14 -6 -23 -27 -27 -27 -5 0 8 -12 29 -28 47 -41 49 -102 143 -102 157 0 8 10 11 27 9 19 -2 29 -10 33 -28 8 -35 36 -33 33 2 -1 24 3 28 35 34 20 3 62 14 92 24 67 22 74 23 119 9z m667 -87 c17 -11 23 -39 29 -129 4 -81 4 -83 -20 -89 -47 -12 -54 -1 -57 88 -3 82 -3 83 -28 80 -43 -5 -62 -39 -55 -104 5 -51 4 -57 -15 -63 -12 -4 -32 -4 -46 -1 -23 6 -23 9 -18 65 5 39 3 61 -5 65 -31 19 8 82 55 89 50 7 149 7 160 -1z m296 -4 c13 -10 17 -36 20 -113 l3 -100 -34 2 c-18 0 -37 5 -41 10 -4 4 -4 35 0 67 12 81 3 96 -60 96 -49 0 -50 -1 -50 -30 0 -35 14 -39 30 -9 16 29 54 22 58 -12 2 -21 -2 -28 -21 -33 -16 -4 -27 -16 -32 -33 -10 -41 -24 -53 -61 -53 l-34 0 -2 68 c-3 100 0 135 14 144 21 13 192 10 210 -4z m16 -446 c3 -9 -2 -13 -14 -10 -9 1 -19 9 -22 16 -3 9 2 13 14 10 9 -1 19 -9 22 -16z m-53 -51 c28 -5 53 -7 58 -4 10 6 47 -6 47 -16 0 -5 -11 -20 -25 -35 -24 -26 -29 -27 -83 -21 -31 3 -76 11 -99 17 -31 7 -59 7 -110 -2 -39 -8 -152 -14 -266 -14 -178 -1 -200 -3 -212 -19 -14 -19 -33 -15 -77 16 -26 19 -28 47 -3 47 6 0 25 7 41 14 30 15 178 22 364 17 52 -1 109 2 125 8 33 10 162 6 240 -8z m-32 -141 c-17 -16 -34 -39 -38 -50 -3 -11 -10 -20 -15 -20 -5 0 -17 -8 -27 -19 -25 -25 -56 -31 -84 -15 -33 18 -85 17 -114 -2 -25 -17 -99 -12 -111 7 -8 14 -58 11 -93 -7 -29 -15 -34 -15 -58 1 -31 21 -73 64 -73 76 0 5 14 9 32 9 17 0 57 5 87 11 44 8 69 8 116 -3 52 -13 67 -13 119 0 49 13 70 13 116 4 66 -14 112 -7 136 19 9 11 22 19 28 19 6 0 -3 -13 -21 -30z m-423 -160 c0 -13 -11 -13 -30 0 -12 8 -11 10 8 10 12 0 22 -4 22 -10z m228 -2 c-7 -19 -38 -22 -38 -4 0 10 9 16 21 16 12 0 19 -5 17 -12z m-118 -7 c0 -5 13 -12 30 -16 41 -9 45 -20 14 -44 -27 -21 -48 -21 -106 1 -34 13 -36 26 -4 38 13 5 27 14 31 19 8 13 35 14 35 2z"/> <path d="M3597 4523 c-13 -13 -7 -32 13 -38 11 -3 20 -13 20 -21 0 -8 9 -14 21 -14 15 0 20 5 17 22 -3 23 -60 63 -71 51z"/> <path d="M5274 3116 c-6 -17 2 -36 17 -36 12 0 12 37 -1 45 -6 3 -13 -1 -16 -9z"/> <path d="M5240 3035 c0 -8 5 -15 10 -15 6 0 10 7 10 15 0 8 -4 15 -10 15 -5 0 -10 -7 -10 -15z"/> <path d="M4195 3131 c-6 -11 9 -23 19 -14 9 9 7 23 -3 23 -6 0 -12 -4 -16 -9z"/> <path d="M6340 7228 c-8 -13 -20 -36 -27 -52 -12 -25 -28 -47 -98 -128 -26 -31 -29 -65 -7 -77 30 -16 41 -14 53 12 38 85 62 100 95 62 31 -36 30 -46 -6 -81 -34 -33 -38 -64 -12 -87 25 -23 39 -21 47 6 4 12 18 36 31 54 13 17 24 44 24 58 0 20 7 29 29 38 29 11 61 53 61 79 -1 20 -50 71 -92 97 -21 12 -38 27 -38 32 0 18 -46 8 -60 -13z m90 -76 c18 -15 22 -25 16 -46 -8 -34 -30 -43 -63 -25 -34 18 -38 33 -16 63 22 30 34 32 63 8z"/> <path d="M2455 7016 c-16 -17 -45 -43 -63 -57 -37 -28 -36 -50 4 -67 13 -7 24 -17 24 -23 0 -7 10 -22 23 -35 24 -25 85 -96 115 -133 19 -24 19 -24 45 -5 15 10 27 22 27 26 0 4 -22 31 -50 59 -27 28 -50 55 -50 59 0 4 18 20 40 35 42 29 44 33 34 59 -9 25 -27 19 -64 -19 -40 -41 -46 -42 -71 -12 -26 31 -24 38 26 75 47 34 56 56 29 66 -27 10 -38 6 -69 -28z"/> <path d="M6740 6905 c-7 -8 -18 -15 -25 -15 -16 0 -111 -102 -131 -142 -21 -40 -4 -88 44 -128 60 -50 87 -43 181 46 79 75 81 77 81 124 0 43 -4 51 -45 89 -47 43 -83 52 -105 26z m88 -102 c3 -25 -7 -39 -63 -91 -36 -34 -74 -62 -85 -62 -20 0 -40 27 -40 53 0 17 108 132 130 139 29 9 55 -8 58 -39z"/> <path d="M2264 6831 c-27 -12 -72 -66 -80 -97 -9 -36 21 -87 85 -146 66 -61 105 -78 146 -65 35 10 95 84 95 116 0 26 -31 71 -83 120 -21 20 -47 44 -56 54 -21 21 -77 30 -107 18z m64 -75 c38 -27 122 -113 122 -123 0 -11 -43 -53 -55 -53 -18 0 -145 127 -145 145 0 24 19 55 33 55 7 0 28 -11 45 -24z"/> <path d="M6945 6697 c-11 -12 -38 -36 -60 -54 -22 -18 -56 -46 -75 -62 -19 -17 -46 -39 -60 -50 -24 -19 -25 -19 -6 -40 27 -30 41 -27 92 23 45 44 45 45 65 25 10 -10 19 -23 19 -27 0 -17 39 -44 55 -39 23 10 18 36 -16 74 -27 32 -29 37 -16 56 25 38 53 33 79 -12 23 -41 33 -46 62 -35 23 9 20 22 -16 64 -18 20 -45 51 -60 68 -31 38 -37 39 -63 9z"/> <path d="M1991 6490 c-13 -27 -17 -46 -11 -53 5 -7 21 -25 35 -41 43 -49 30 -62 -41 -41 -43 13 -51 13 -72 -1 -53 -35 -5 -61 114 -63 33 -1 55 -10 103 -46 34 -25 65 -45 70 -45 5 0 16 12 26 26 13 20 14 28 4 40 -12 14 -51 39 -80 50 -9 3 -25 22 -35 42 -10 21 -24 44 -30 52 -5 8 -19 35 -29 60 -27 65 -31 67 -54 20z"/> <path d="M7188 6353 c-16 -2 -28 -8 -28 -12 0 -4 -11 -13 -24 -19 -14 -6 -33 -18 -43 -26 -85 -69 -83 -67 -83 -108 0 -50 31 -104 66 -112 33 -9 94 3 101 19 2 8 -3 25 -12 39 -16 24 -19 25 -38 11 -29 -20 -44 -19 -57 4 -14 27 -6 42 38 71 20 14 39 28 42 31 13 16 91 48 104 43 24 -9 31 -46 11 -60 -24 -18 -16 -58 13 -62 25 -4 61 32 62 61 0 22 -33 89 -53 105 -17 14 -62 21 -99 15z"/> <path d="M1838 6251 c-10 -20 -18 -41 -18 -45 0 -5 -13 -25 -29 -45 -42 -53 -44 -76 -6 -76 22 0 31 5 33 20 7 37 18 36 83 -7 35 -24 87 -55 116 -71 47 -25 52 -26 68 -11 21 21 16 58 -9 62 -10 2 -37 17 -59 33 -22 16 -48 29 -58 29 -10 0 -21 5 -24 11 -4 5 -18 14 -31 19 -26 10 -33 47 -13 67 8 8 7 17 -3 32 -18 30 -31 26 -50 -18z"/> <path d="M7325 6118 c-16 -6 -35 -15 -41 -19 -6 -5 -33 -21 -60 -35 -99 -52 -115 -90 -72 -172 38 -71 117 -77 207 -16 20 13 40 24 46 24 5 1 20 9 33 19 18 16 22 29 22 78 0 54 -3 62 -36 96 -38 39 -50 42 -99 25z m77 -94 c17 -37 4 -51 -84 -96 -82 -42 -105 -42 -128 2 -8 16 -4 24 29 50 55 45 101 67 139 69 26 1 35 -4 44 -25z"/> <path d="M1723 6030 c-13 -10 -23 -22 -23 -28 0 -13 34 -42 50 -42 18 0 98 -39 106 -51 3 -5 11 -9 19 -9 8 0 37 -14 66 -30 28 -17 54 -29 57 -26 2 3 5 22 6 43 1 34 -2 38 -26 41 -14 2 -32 10 -38 18 -7 8 -19 14 -27 14 -8 0 -35 14 -60 30 -24 17 -51 30 -60 30 -9 0 -24 6 -32 14 -14 13 -19 12 -38 -4z"/> <path d="M1657 5882 c-23 -25 -47 -87 -47 -121 0 -19 8 -34 25 -45 43 -29 72 -21 191 49 17 10 38 16 48 12 46 -18 15 -83 -35 -73 -57 11 -67 -52 -10 -66 28 -8 40 -5 72 17 39 25 39 26 39 90 0 55 -3 66 -22 79 -27 19 -92 21 -110 3 -27 -27 -86 -57 -111 -57 -55 0 -36 57 23 69 28 5 36 12 38 34 3 26 1 27 -41 27 -29 0 -49 -6 -60 -18z"/> <path d="M7470 5855 c-7 -8 -19 -15 -27 -15 -12 0 -38 -10 -128 -50 -11 -5 -35 -12 -52 -15 -36 -7 -42 -27 -18 -59 14 -18 15 -18 57 3 24 12 50 25 58 31 38 24 124 59 133 53 13 -8 -67 -81 -98 -89 -14 -3 -25 -9 -25 -13 0 -3 -17 -15 -37 -26 -56 -28 -61 -34 -56 -56 5 -19 11 -20 72 -14 36 4 70 11 76 16 12 12 135 11 135 -1 0 -5 -17 -12 -37 -16 -21 -3 -52 -15 -69 -25 -17 -11 -43 -19 -56 -19 -37 0 -88 -20 -88 -34 0 -7 9 -21 20 -31 22 -19 20 -20 135 30 40 17 113 42 148 49 30 7 37 35 13 56 -8 6 -16 21 -18 33 -4 28 -52 34 -103 13 -41 -17 -95 -21 -95 -7 0 10 36 35 94 66 53 28 60 42 47 93 -10 37 -15 42 -40 42 -16 0 -34 -7 -41 -15z"/> <path d="M1582 5641 c-27 -23 -61 -97 -62 -133 0 -15 -4 -30 -10 -33 -29 -18 6 -42 78 -55 26 -5 79 -20 117 -34 88 -32 111 -32 118 -4 8 31 3 35 -63 54 -51 14 -60 20 -60 39 0 13 9 33 19 46 19 24 20 24 49 7 56 -33 119 -16 110 29 -2 12 -11 17 -26 15 -12 -2 -32 4 -44 12 -26 18 -69 21 -85 5 -8 -8 -15 -4 -26 12 -18 24 -66 59 -83 59 -6 0 -21 -8 -32 -19z m85 -97 c8 -21 -5 -61 -22 -67 -8 -4 -28 -1 -45 4 -37 14 -39 41 -5 75 21 21 28 23 45 14 12 -6 24 -18 27 -26z"/> <path d="M7590 5496 c-14 -7 -45 -16 -70 -20 -24 -4 -49 -11 -55 -16 -6 -5 -33 -13 -60 -17 -44 -7 -50 -12 -50 -32 0 -36 26 -47 66 -29 19 9 59 24 89 33 30 10 62 21 71 26 9 4 19 5 22 2 12 -12 -20 -45 -63 -64 -113 -51 -155 -75 -158 -90 -3 -15 12 -16 122 -15 68 0 128 -2 132 -7 15 -15 -16 -29 -83 -37 -99 -13 -143 -22 -149 -31 -3 -5 5 -22 18 -39 22 -30 23 -30 38 -12 11 14 39 22 105 31 49 7 94 16 100 21 5 4 24 10 40 12 28 3 30 5 27 43 -2 22 -9 46 -14 53 -12 14 -85 16 -138 3 -53 -12 -66 -4 -39 25 12 13 27 24 32 24 9 0 67 24 97 40 15 8 16 19 4 78 -5 26 -11 32 -33 32 -14 -1 -37 -7 -51 -14z"/> <path d="M1479 5363 c-19 -50 -29 -146 -16 -155 20 -13 80 -28 112 -28 39 0 116 -24 149 -45 21 -14 27 -15 30 -4 2 8 9 32 16 54 15 51 18 137 5 141 -21 8 -37 -15 -42 -61 -3 -26 -11 -49 -18 -51 -7 -3 -29 2 -50 10 -32 14 -36 19 -31 38 17 59 17 75 3 86 -20 17 -36 -4 -45 -59 -7 -40 -10 -44 -37 -44 l-30 0 0 70 c0 58 -3 70 -17 73 -12 2 -22 -6 -29 -25z"/> <path d="M1426 5124 c-9 -34 7 -52 53 -59 20 -4 45 -10 56 -15 11 -5 40 -13 64 -17 25 -5 46 -13 48 -19 6 -17 -32 -24 -132 -24 -100 0 -115 -7 -115 -53 0 -28 0 -28 48 -21 26 4 57 11 70 15 13 5 65 9 116 9 l93 0 6 42 c7 51 -12 78 -54 78 -15 0 -30 4 -33 9 -3 5 -18 12 -33 15 -27 6 -67 24 -125 53 -39 19 -55 16 -62 -13z"/> <path d="M7705 5131 c-3 -6 -35 -11 -71 -11 -36 0 -81 -7 -101 -15 -19 -8 -48 -15 -64 -15 -15 0 -31 -4 -34 -10 -3 -5 1 -36 10 -69 8 -33 15 -64 14 -68 -4 -22 3 -33 19 -33 33 0 42 20 27 58 -21 50 -19 62 15 69 17 3 33 9 36 14 2 4 11 6 19 2 10 -3 15 -19 15 -47 0 -50 11 -69 36 -64 19 4 22 19 13 83 -3 24 0 31 23 39 38 14 58 -6 58 -58 0 -53 11 -70 40 -61 18 6 21 12 15 33 -4 15 -10 56 -13 92 -6 56 -10 65 -29 68 -11 2 -24 -2 -28 -7z"/> <path d="M7605 4880 l-140 -5 -3 -26 c-4 -37 17 -52 56 -38 17 6 43 9 59 7 24 -3 28 -8 31 -41 3 -32 0 -38 -24 -47 -14 -6 -41 -8 -59 -4 -37 7 -40 3 -50 -50 l-8 -38 64 7 c49 5 70 13 92 33 l28 26 25 -27 c30 -32 37 -33 80 -6 l34 21 0 99 c0 97 -1 99 -22 97 -13 -1 -86 -5 -163 -8z m139 -72 c15 -24 -4 -72 -30 -76 -29 -4 -74 35 -74 63 0 19 6 25 33 28 48 6 59 4 71 -15z"/> <path d="M1396 4855 c-12 -33 -6 -55 17 -59 12 -3 65 -8 117 -10 52 -3 114 -8 137 -12 40 -6 42 -5 49 22 5 20 2 30 -12 41 -10 7 -24 11 -32 8 -13 -5 -176 10 -238 21 -23 4 -33 2 -38 -11z"/> <path d="M1370 4716 c0 -8 4 -26 9 -39 9 -23 12 -24 53 -15 24 5 60 12 81 15 69 10 121 -19 60 -33 -16 -4 -33 -10 -38 -15 -6 -4 -44 -19 -85 -32 -73 -24 -75 -25 -78 -59 l-3 -35 98 -6 c54 -4 128 -7 166 -7 l67 0 0 29 c0 17 -3 32 -8 35 -4 2 -43 0 -87 -5 -131 -14 -155 9 -45 43 36 11 82 27 102 36 34 15 38 21 38 53 l0 36 -122 6 c-182 10 -208 9 -208 -7z"/> <path d="M7620 4593 c-114 -8 -127 -12 -140 -44 -19 -45 -16 -107 6 -130 26 -25 92 -30 107 -8 18 28 1 49 -38 49 -32 0 -35 2 -35 29 0 20 6 31 18 35 29 8 186 4 205 -6 29 -15 17 -51 -20 -63 -34 -9 -43 -34 -24 -64 8 -13 15 -13 49 -2 60 20 79 81 48 155 -11 27 -21 35 -52 40 -65 12 -77 13 -124 9z"/> <path d="M1284 4426 c-3 -8 -4 -29 -2 -48 l3 -33 80 3 c44 2 121 0 172 -3 l92 -7 16 -34 c18 -39 13 -69 -16 -85 -12 -6 -83 -9 -182 -8 l-162 2 0 -44 0 -44 190 3 c118 2 195 8 203 15 49 40 69 167 34 219 -40 61 -52 64 -245 71 -146 5 -179 4 -183 -7z"/> <path d="M7458 4258 c-4 -99 6 -121 42 -98 10 6 15 26 15 62 0 48 2 53 24 56 63 9 85 -17 59 -73 -9 -21 -9 -29 4 -42 28 -28 48 -9 48 46 0 48 0 49 35 53 53 6 58 -1 47 -62 -11 -62 -7 -80 18 -80 29 0 36 20 39 111 l2 86 -101 12 c-55 6 -129 11 -165 11 l-63 0 -4 -82z"/> <path d="M1540 3975 c-12 -13 -24 -41 -27 -64 -3 -23 -16 -52 -29 -66 -13 -15 -24 -28 -24 -32 0 -3 -8 -21 -17 -41 l-17 -35 34 -29 c24 -20 45 -28 72 -28 26 0 40 -6 47 -19 14 -25 98 -63 122 -56 11 4 22 19 26 36 3 16 12 34 19 40 8 6 14 27 14 45 0 19 4 34 10 34 13 0 50 78 50 105 0 14 -13 27 -47 43 -27 12 -57 22 -67 22 -11 0 -29 9 -40 19 -12 11 -40 26 -63 34 -40 14 -43 13 -63 -8z m84 -48 c24 -20 27 -26 18 -44 -11 -19 -67 -37 -84 -26 -14 8 -8 56 9 75 20 23 22 23 57 -5z m125 -58 c21 -17 23 -24 15 -47 -6 -18 -18 -28 -34 -30 -20 -2 -28 5 -44 37 -10 21 -15 44 -12 50 11 17 49 12 75 -10z m-193 -56 c3 -10 10 -28 16 -39 24 -50 -10 -79 -56 -48 -30 19 -33 44 -10 79 19 29 42 32 50 8z m99 -13 c0 -18 -6 -26 -23 -28 -13 -2 -25 3 -28 12 -10 26 4 48 28 44 17 -2 23 -10 23 -28z m49 -101 c-13 -46 -35 -57 -67 -33 -39 28 -35 58 11 76 49 20 70 5 56 -43z"/> <path d="M7560 3985 c-19 -7 -47 -25 -62 -39 -16 -15 -32 -24 -38 -21 -10 6 -91 -37 -109 -59 -12 -14 18 -83 50 -111 10 -10 19 -28 19 -40 0 -12 9 -32 20 -45 11 -13 20 -31 20 -41 0 -35 31 -39 83 -10 27 14 53 34 58 43 6 11 21 18 40 18 31 0 109 51 109 71 0 6 -18 37 -40 70 -22 33 -40 67 -40 74 0 8 -4 16 -9 19 -5 3 -12 18 -16 33 -6 24 -32 54 -45 51 -3 0 -21 -6 -40 -13z m53 -76 c15 -31 16 -35 1 -46 -15 -11 -57 -5 -84 12 -19 12 -10 40 18 57 35 22 43 19 65 -23z m-123 -56 c-1 -23 -9 -48 -21 -62 l-20 -24 -24 23 c-35 32 -32 61 8 82 49 25 57 23 57 -19z m85 -53 c0 -20 -6 -26 -27 -28 -25 -3 -28 0 -28 28 0 28 3 31 28 28 21 -2 27 -8 27 -28z m100 0 c22 -43 19 -54 -19 -73 -29 -13 -36 -14 -46 -2 -10 12 -6 75 7 98 10 18 44 5 58 -23z m-141 -64 c49 -20 53 -35 20 -62 -39 -31 -49 -30 -74 11 -36 59 -14 79 54 51z"/> <path d="M1850 3503 c-24 -9 -30 -25 -30 -74 0 -39 -4 -50 -25 -63 -25 -16 -26 -16 -58 14 -24 22 -41 30 -71 30 -56 0 -86 -31 -86 -92 0 -39 4 -50 31 -72 37 -32 48 -32 84 -5 22 18 29 20 36 8 11 -17 2 -58 -17 -80 -8 -8 -14 -19 -14 -24 0 -5 -8 -17 -17 -27 -16 -17 -15 -20 4 -46 31 -40 73 -35 173 19 48 26 131 64 169 78 60 22 70 40 43 79 -22 30 -23 30 -55 15 -17 -9 -46 -26 -64 -39 -17 -13 -41 -24 -52 -24 -11 0 -26 -6 -33 -13 -21 -20 -70 -39 -79 -30 -4 4 -5 36 -2 70 5 52 9 63 27 69 26 7 80 30 123 52 24 12 33 25 38 52 7 43 -7 86 -32 93 -39 11 -79 15 -93 10z m75 -78 c0 -13 -8 -21 -24 -23 -32 -5 -48 12 -31 33 18 22 55 15 55 -10z m-241 -71 c23 -9 20 -41 -4 -49 -25 -8 -40 1 -40 24 0 29 14 37 44 25z"/> <path d="M7242 3440 c-29 -38 -28 -60 1 -60 33 0 234 -84 248 -104 15 -20 -24 -116 -47 -116 -42 0 -71 38 -54 70 8 15 6 24 -11 41 -23 23 -36 17 -41 -21 -4 -36 -32 -32 -36 5 -2 17 -11 38 -19 48 -21 22 -72 21 -100 -2 -43 -36 -22 -131 28 -131 8 0 25 -7 37 -16 20 -14 26 -14 52 -1 27 14 30 14 44 -8 8 -13 42 -37 75 -53 l60 -30 21 35 c11 19 20 40 20 48 0 7 6 26 14 42 53 106 51 98 27 129 -12 15 -43 37 -69 47 -26 11 -61 26 -79 33 -17 8 -35 14 -41 14 -5 0 -15 7 -22 15 -7 8 -23 15 -37 15 -13 0 -26 7 -29 15 -9 22 -18 19 -42 -15z m16 -193 c4 -20 -25 -34 -40 -19 -15 15 -1 44 19 40 10 -2 19 -11 21 -21z"/> <path d="M1985 3086 c-20 -20 -23 -29 -16 -54 13 -43 17 -38 -122 -120 -62 -37 -68 -51 -35 -84 19 -19 24 -20 52 -8 38 15 189 35 211 26 27 -10 16 -34 -22 -53 -21 -9 -54 -28 -73 -41 -19 -13 -45 -28 -57 -33 -33 -12 -30 -37 9 -67 14 -11 28 -6 101 42 46 30 87 62 90 70 3 8 22 16 43 18 30 2 40 9 57 39 l21 36 -23 36 c-20 32 -28 37 -61 37 -24 0 -40 -5 -44 -15 -4 -11 -21 -15 -65 -15 -33 0 -62 4 -65 9 -6 10 57 51 78 51 18 0 56 43 56 64 0 10 -9 34 -21 52 -17 28 -27 34 -55 34 -24 0 -43 -8 -59 -24z m78 -38 c7 -22 -4 -38 -28 -38 -30 0 -41 16 -25 35 15 18 47 20 53 3z m120 -182 c6 -15 -11 -36 -29 -36 -21 0 -35 25 -22 38 16 16 45 15 51 -2z"/> <path d="M7105 3098 c-59 -32 -85 -91 -52 -117 54 -45 87 -84 87 -105 0 -10 -20 -7 -33 4 -50 43 -64 50 -92 50 -18 0 -39 -8 -48 -18 -23 -26 -22 -94 1 -115 26 -24 79 -22 94 3 7 11 20 20 29 20 9 0 28 -9 42 -20 14 -11 28 -20 32 -20 4 0 24 -13 45 -30 48 -38 87 -40 100 -4 6 14 7 31 3 37 -7 12 -122 134 -175 188 -36 35 -36 59 -3 59 14 0 28 -7 31 -15 4 -8 12 -15 19 -15 8 0 20 -7 28 -15 8 -8 36 -25 60 -39 25 -13 59 -33 75 -45 17 -11 34 -21 39 -21 9 0 37 46 38 62 0 4 -31 24 -70 44 -38 20 -89 50 -113 65 -24 16 -49 29 -56 29 -8 0 -19 7 -26 15 -15 18 -28 18 -55 3z m-60 -243 c0 -22 -22 -30 -44 -16 -21 14 -5 43 21 39 15 -2 23 -10 23 -23z"/> <path d="M6685 2858 c-3 -7 -4 -26 -2 -43 2 -29 0 -30 -42 -33 -48 -4 -70 -22 -71 -59 0 -16 6 -23 19 -23 11 0 23 5 27 11 3 6 29 9 62 7 50 -3 57 -1 60 17 7 38 21 38 59 -2 21 -22 67 -62 103 -88 64 -48 106 -84 139 -117 40 -40 109 -35 129 11 29 66 -17 116 -85 92 -33 -12 -37 -11 -73 15 -52 40 -140 111 -170 137 -90 80 -144 106 -155 75z m440 -284 c0 -10 -8 -20 -17 -22 -18 -3 -26 27 -11 42 12 11 28 0 28 -20z"/> <path d="M2212 2728 c-17 -17 -15 -24 10 -48 16 -15 30 -19 53 -14 42 8 69 -18 61 -58 -7 -34 -21 -50 -106 -113 -111 -83 -112 -84 -92 -111 24 -32 54 -30 94 9 19 17 69 61 111 96 74 62 77 66 77 107 0 50 -47 116 -94 133 -39 15 -99 14 -114 -1z"/> <path d="M2558 2609 c-31 -23 -36 -39 -13 -39 22 0 136 -117 159 -163 11 -21 24 -36 29 -34 6 2 17 24 25 50 25 80 -6 144 -90 188 -47 24 -76 24 -110 -2z m132 -61 c22 -23 27 -48 10 -48 -13 0 -60 49 -60 61 0 17 29 9 50 -13z"/> <path d="M6437 2542 c-14 -15 -15 -23 -5 -49 6 -16 8 -38 5 -48 -7 -16 -10 -15 -41 9 -19 14 -41 26 -49 26 -22 0 -57 -44 -57 -71 0 -34 18 -49 57 -49 18 0 33 -4 33 -10 0 -16 19 -12 50 10 59 42 92 156 53 186 -24 18 -27 17 -46 -4z"/> <path d="M6627 2498 c-36 -41 -37 -46 -35 -107 3 -74 16 -85 52 -46 21 22 23 30 14 50 -13 30 -6 49 26 70 23 15 27 15 53 -1 15 -10 66 -56 111 -102 49 -49 89 -81 97 -78 8 3 21 16 30 30 17 25 17 26 -41 78 -32 29 -79 74 -104 101 -46 46 -49 47 -107 47 -57 0 -60 -1 -96 -42z"/> <path d="M2431 2479 l-24 -9 23 -25 c19 -20 33 -25 76 -25 45 0 56 -4 73 -26 31 -39 26 -59 -27 -114 -46 -47 -51 -50 -77 -40 -38 15 -82 3 -101 -25 -14 -22 -14 -27 1 -58 20 -43 70 -70 100 -55 11 6 57 49 103 97 82 85 82 86 82 139 0 50 -3 56 -45 96 -56 54 -122 70 -184 45z m34 -304 c0 -30 -39 -27 -43 3 -3 20 0 23 20 20 15 -2 23 -10 23 -23z"/> <path d="M6404 2292 c-26 -9 -74 -49 -97 -82 -11 -16 -17 -44 -17 -79 l0 -55 75 -72 c41 -40 75 -77 75 -82 0 -6 10 -18 22 -26 20 -15 24 -14 45 6 27 25 29 50 8 72 -8 8 -15 21 -15 28 0 8 -7 23 -15 34 -21 28 -18 43 11 66 31 25 29 54 -7 80 -21 16 -30 17 -51 8 -34 -16 -56 -56 -40 -72 15 -15 16 -58 1 -58 -14 0 -36 26 -49 58 -21 50 38 122 100 122 39 0 80 -32 80 -63 0 -9 7 -17 15 -17 8 0 15 -5 15 -11 0 -6 13 -28 28 -48 16 -20 32 -44 35 -53 8 -23 49 -23 70 0 21 23 22 38 3 45 -7 3 -35 34 -62 69 -93 122 -112 138 -164 137 -25 -1 -54 -4 -66 -7z m74 -155 c4 -20 -25 -34 -39 -20 -14 14 1 45 20 41 9 -2 17 -11 19 -21z"/> <path d="M2722 2247 c-28 -29 -28 -51 -1 -89 l21 -29 -24 -27 c-14 -15 -46 -54 -71 -88 l-46 -61 29 -22 c34 -25 49 -26 56 -6 4 8 11 15 18 15 6 0 31 18 56 41 25 22 66 54 93 71 26 17 47 35 47 40 0 4 9 8 20 8 41 0 20 -48 -52 -122 -16 -16 -28 -34 -28 -41 0 -8 -13 -26 -29 -41 -41 -40 -44 -60 -11 -84 l27 -21 50 67 c27 37 66 93 87 125 21 31 42 60 47 63 14 8 10 57 -6 78 -15 20 -60 46 -79 46 -7 0 -32 -18 -57 -40 -24 -22 -49 -40 -56 -40 -24 0 -22 19 7 55 34 42 37 70 14 103 -21 31 -83 31 -112 -1z m68 -32 c15 -18 6 -45 -15 -45 -18 0 -30 24 -21 45 7 19 20 19 36 0z"/> <path d="M6137 2107 c-3 -8 -27 -22 -54 -31 -26 -9 -57 -26 -69 -39 -20 -22 -49 -131 -38 -148 8 -13 42 -11 51 4 27 42 154 63 173 28 14 -26 14 -26 -15 -56 -19 -21 -23 -34 -18 -58 8 -45 18 -52 67 -52 84 0 114 70 60 141 -15 19 -35 49 -44 67 -17 30 -21 32 -73 32 -30 0 -66 -7 -80 -14 -14 -8 -34 -10 -44 -7 -16 7 -15 10 10 32 18 15 41 24 61 24 73 0 119 81 50 88 -20 2 -33 -2 -37 -11z m123 -282 c0 -25 -23 -35 -35 -15 -10 16 2 40 20 40 9 0 15 -9 15 -25z"/> <path d="M3099 2013 c-29 -37 -49 -82 -49 -115 0 -23 -9 -42 -30 -62 -17 -16 -30 -35 -30 -41 0 -7 -7 -18 -15 -25 -26 -21 -19 -59 13 -66 15 -4 47 -18 72 -32 111 -61 154 -60 186 7 9 20 21 43 25 51 5 8 13 25 18 37 6 11 15 24 20 28 6 3 11 14 11 24 0 10 14 35 30 56 34 43 34 58 -1 63 -13 2 -30 8 -36 14 -10 8 -18 -2 -33 -38 -31 -74 -83 -176 -100 -196 -17 -22 -48 -23 -74 -3 -11 8 -28 15 -38 15 -22 0 -23 17 -2 58 18 36 56 44 73 15 10 -17 12 -17 26 1 21 28 19 36 -15 47 -44 16 -39 39 8 39 65 0 93 58 56 115 -13 20 -25 25 -59 25 -28 0 -47 -6 -56 -17z m79 -56 c4 -20 -25 -34 -40 -19 -15 15 -1 44 19 40 10 -2 19 -11 21 -21z"/> <path d="M5748 1920 c-52 -28 -88 -78 -88 -123 0 -33 3 -37 24 -37 26 0 56 33 56 60 0 9 13 26 30 38 25 19 33 20 49 10 20 -12 81 -126 81 -151 0 -7 5 -18 11 -24 6 -6 14 -26 18 -45 6 -31 10 -33 46 -33 36 0 40 3 43 26 2 14 -4 31 -12 39 -9 7 -16 18 -16 25 0 8 -7 26 -14 42 -8 15 -17 35 -20 43 -3 8 -10 22 -14 30 -5 8 -18 33 -28 54 -31 64 -97 82 -166 46z"/> <path d="M3920 1878 c-25 -42 -25 -41 9 -76 34 -33 66 -42 155 -42 59 0 64 2 99 39 20 22 37 42 37 45 0 3 -16 10 -36 15 -34 9 -39 8 -65 -20 -37 -40 -73 -37 -77 6 -5 42 -29 65 -69 65 -27 0 -37 -6 -53 -32z m85 -38 c0 -18 -33 -26 -47 -12 -6 6 -7 15 -3 22 10 16 50 8 50 -10z"/> <path d="M3445 1855 c-47 -22 -68 -42 -62 -60 4 -8 15 -15 25 -15 10 0 23 -5 30 -12 9 -9 17 -5 36 15 38 41 71 35 93 -15 13 -29 12 -33 -23 -113 -34 -81 -64 -158 -62 -160 61 -42 74 -44 81 -12 7 32 28 88 43 119 8 14 14 34 14 45 0 10 7 27 15 37 8 11 15 39 15 63 0 35 -5 48 -29 69 -62 55 -117 67 -176 39z"/> <path d="M5393 1787 c-92 -57 -124 -126 -56 -119 l32 3 -6 -54 c-4 -40 -1 -64 11 -87 9 -18 16 -44 16 -57 0 -58 34 -78 78 -47 l23 16 -21 34 c-11 20 -20 48 -20 63 0 16 -7 34 -15 41 -8 7 -15 23 -15 35 0 12 7 28 15 35 24 20 17 40 -15 47 -16 3 -30 11 -30 18 0 12 62 35 97 35 26 0 53 -30 53 -59 0 -12 6 -32 12 -44 12 -21 33 -92 45 -149 6 -32 11 -33 59 -13 34 14 35 15 20 37 -9 12 -16 30 -16 40 0 9 -6 32 -14 50 -20 48 -37 99 -45 133 -9 41 -62 75 -115 75 -29 0 -57 -10 -93 -33z"/> <path d="M3757 1728 c-53 -37 -55 -52 -9 -56 31 -3 48 -32 18 -32 -23 0 -45 -45 -57 -120 -12 -68 -11 -71 11 -95 36 -38 85 -34 110 8 25 41 25 43 -5 73 -49 49 -51 75 -9 86 35 9 48 -7 47 -53 -2 -29 3 -46 14 -54 12 -9 16 -26 14 -64 l-1 -52 42 3 43 3 7 55 c3 30 14 80 23 110 22 75 16 146 -16 168 -90 64 -159 70 -232 20z m182 -56 c21 -23 23 -32 18 -80 -6 -61 -22 -86 -37 -62 -5 8 -10 28 -10 43 0 51 -16 67 -65 67 -49 0 -61 10 -45 39 19 37 101 33 139 -7z m-139 -187 c19 -22 -5 -48 -31 -34 -30 15 -22 44 12 48 4 1 12 -6 19 -14z"/> <path d="M5055 1715 c-38 -10 -60 -24 -93 -60 -23 -26 -41 -53 -39 -59 2 -6 18 -12 35 -14 32 -3 41 -15 22 -27 -14 -9 -11 -83 5 -130 8 -22 15 -52 15 -68 l0 -27 58 6 c31 4 72 13 91 20 18 8 43 14 55 14 13 0 33 11 46 25 23 24 23 24 6 92 -9 37 -16 88 -16 113 -1 51 -25 88 -77 114 -38 19 -42 19 -108 1z m69 -56 c32 -15 54 -76 58 -162 l3 -68 -40 -15 c-22 -7 -52 -14 -67 -14 -23 0 -28 5 -28 23 0 17 9 27 33 38 28 12 32 20 35 56 4 53 -21 73 -79 66 -34 -5 -39 -3 -39 14 0 24 24 47 65 61 17 6 31 11 32 11 1 1 13 -4 27 -10z m-60 -115 c20 -8 20 -28 1 -48 -20 -20 -45 -10 -45 18 0 34 12 42 44 30z"/> <path d="M4148 1683 c-24 -28 -32 -120 -13 -149 14 -22 14 -26 -5 -52 -15 -20 -21 -45 -23 -87 l-2 -60 30 -1 c17 -1 73 -5 127 -9 l96 -8 18 34 c11 23 20 71 25 144 4 61 10 124 14 141 7 30 5 32 -27 37 -18 2 -36 3 -40 0 -5 -2 -8 -37 -8 -77 0 -78 -17 -183 -33 -203 -11 -15 -95 -17 -116 -4 -12 8 -13 18 -5 48 9 36 11 38 46 35 29 -3 37 1 43 17 10 32 -1 40 -45 34 -55 -8 -53 16 3 42 35 18 43 26 45 54 5 46 -29 81 -78 81 -23 0 -43 -7 -52 -17z m80 -56 c4 -20 -25 -34 -40 -19 -15 15 -1 44 19 40 10 -2 19 -11 21 -21z"/> <path d="M4727 1660 c-22 -17 -27 -30 -27 -63 -1 -46 -27 -87 -55 -87 -15 0 -17 7 -11 58 6 56 6 59 -23 80 -38 27 -65 28 -102 1 -53 -37 -35 -114 30 -127 l33 -7 3 -100 c2 -55 4 -106 4 -112 1 -18 56 -16 70 1 6 8 14 37 18 65 3 28 12 56 19 62 8 6 14 17 14 24 0 6 7 26 16 44 12 24 22 31 38 29 18 -3 21 -10 21 -53 1 -141 4 -162 25 -168 11 -3 29 -3 41 0 17 5 19 11 15 42 -9 60 -11 225 -3 248 6 15 1 28 -15 47 -32 37 -76 43 -111 16z m68 -59 c0 -27 -13 -35 -34 -22 -8 5 -11 16 -6 30 9 30 40 23 40 -8z m-220 -10 c0 -30 -18 -37 -39 -15 -13 13 -14 19 -5 30 18 22 44 13 44 -15z"/> </g> </svg> 