<?xml version="1.0" standalone="no"?>
<!DOCTYPE svg PUBLIC "-//W3C//DTD SVG 20010904//EN"
 "http://www.w3.org/TR/2001/REC-SVG-20010904/DTD/svg10.dtd">
<svg version="1.0" xmlns="http://www.w3.org/2000/svg"
 width="1485.000000pt" height="1485.000000pt" viewBox="0 0 1485.000000 1485.000000"
 preserveAspectRatio="xMidYMid meet">
<metadata>
Created by potrace 1.16, written by Peter Selinger 2001-2019
</metadata>
<g transform="translate(0.000000,1485.000000) scale(0.100000,-0.100000)"
fill="#ffffff" stroke="none">
<path d="M7075 12563 c-537 -42 -897 -111 -1321 -252 l-179 -59 1800 -1 c1619
0 1796 1 1765 15 -66 29 -347 113 -511 153 -295 72 -592 119 -901 141 -132 9
-553 11 -653 3z"/>
<path d="M4768 11875 c-71 -41 -176 -106 -235 -145 l-108 -70 2449 0 c2122 0
2447 2 2437 14 -10 12 -8 17 8 26 12 6 21 19 21 29 0 10 6 24 14 30 8 7 17 35
21 64 3 29 8 69 11 90 l6 37 -2249 -1 -2248 0 -127 -74z"/>
<path d="M9423 11888 c9 -94 15 -122 26 -126 6 -2 11 -12 11 -22 0 -10 10 -26
21 -34 13 -9 19 -21 16 -30 -6 -14 36 -16 408 -16 228 0 415 2 415 4 0 7 -195
130 -330 208 l-135 78 -219 0 -218 0 5 -62z"/>
<path d="M3950 11293 c-41 -36 -113 -102 -160 -145 l-84 -78 198 0 198 0 96
61 c54 33 173 99 266 145 l169 84 -304 0 -304 -1 -75 -66z"/>
<path d="M7100 11347 c125 -56 272 -132 382 -198 l132 -79 816 0 c815 0 817 0
836 21 10 11 40 36 66 56 l48 35 -27 21 c-15 12 -33 21 -40 19 -16 -4 -53 56
-53 85 0 35 18 36 35 3 10 -20 23 -30 38 -30 13 0 29 -6 37 -12 8 -7 6 -3 -4
9 -9 11 -28 24 -42 27 -14 4 -26 16 -30 31 l-6 25 -1107 -1 c-825 0 -1100 -3
-1081 -12z"/>
<path d="M9517 11346 c-4 -10 -1 -13 9 -9 10 4 14 -3 14 -30 0 -37 -34 -91
-54 -85 -6 2 -21 -6 -33 -17 l-23 -22 64 -56 65 -57 743 0 743 1 -70 67 c-38
37 -110 102 -159 145 l-88 77 -603 0 c-517 0 -604 -2 -608 -14z"/>
<path d="M3364 10698 c-99 -119 -174 -215 -174 -222 0 -3 55 -6 123 -6 l122 0
80 91 c44 50 108 118 143 150 l63 59 -148 0 -149 0 -60 -72z"/>
<path d="M8091 10673 c52 -54 115 -122 141 -150 l46 -53 416 0 416 0 0 89 c0
48 3 116 6 150 l7 61 -563 0 -564 0 95 -97z"/>
<path d="M9684 10733 c3 -21 6 -89 6 -150 l0 -113 941 0 940 0 -30 43 c-17 23
-70 89 -119 147 l-87 105 -829 3 -829 2 7 -37z"/>
<path d="M2975 10168 c-16 -24 -59 -93 -96 -155 l-68 -113 122 0 122 0 33 64
c18 35 57 102 87 150 30 48 55 89 55 92 0 2 -51 4 -114 4 l-113 0 -28 -42z"/>
<path d="M8480 10206 c0 -2 26 -46 58 -97 33 -52 72 -118 88 -146 l29 -53 223
0 222 0 0 150 0 150 -310 0 c-170 0 -310 -2 -310 -4z"/>
<path d="M9700 10065 l0 -145 1116 0 c613 0 1113 3 1111 8 -2 4 -41 69 -87
145 l-84 137 -1028 0 -1028 0 0 -145z"/>
<path d="M8819 9537 l45 -123 18 35 c10 19 25 39 33 44 13 7 12 11 -6 26 -21
17 -22 21 -9 64 7 27 19 47 26 47 8 0 14 7 14 15 0 12 -16 15 -83 15 l-84 0
46 -123z"/>
<path d="M8980 9645 c0 -8 6 -15 14 -15 7 0 19 -20 26 -47 13 -45 13 -47 -14
-68 l-27 -22 25 -30 c35 -42 43 -66 51 -167 5 -63 11 -84 18 -77 8 8 8 24 -1
56 -7 25 -12 66 -12 92 0 26 -5 62 -12 80 -9 24 -9 36 -2 41 15 9 22 34 32
110 l9 62 -54 0 c-40 0 -53 -4 -53 -15z"/>
<path d="M9870 9645 c0 -8 5 -15 11 -15 10 0 39 -59 39 -80 0 -5 -9 -19 -21
-31 l-20 -20 30 -35 c17 -19 34 -46 37 -59 l6 -25 1124 0 1123 0 -16 38 c-8
20 -37 83 -63 140 l-49 102 -1100 0 c-972 0 -1101 -2 -1101 -15z"/>
<path d="M2629 9544 c-27 -59 -56 -122 -64 -140 l-14 -34 142 0 142 0 43 123
c24 67 46 130 49 140 5 16 -5 17 -121 17 l-127 0 -50 -106z"/>
</g>
</svg>
