 <svg  version="1.0" xmlns="http://www.w3.org/2000/svg"  width="252.000000pt" height="300.000000pt" viewBox="0 0 252.000000 300.000000"  preserveAspectRatio="xMidYMid meet">  <g transform="translate(0.000000,300.000000) scale(0.100000,-0.100000)" fill="#ffffff" stroke="none"> <path d="M1235 2902 c-23 -35 -29 -56 -27 -84 4 -37 3 -38 -26 -32 -26 5 -32 2 -45 -23 -9 -16 -15 -38 -14 -48 2 -15 -5 -21 -25 -23 -23 -3 -27 -8 -30 -40 -3 -33 -6 -37 -40 -45 -35 -8 -38 -12 -38 -43 0 -31 -5 -36 -52 -60 -67 -33 -64 -31 -45 -52 22 -24 13 -32 -38 -32 -32 0 -47 -6 -68 -28 -31 -32 -36 -58 -9 -47 19 9 106 25 247 46 50 7 80 15 67 17 -12 2 -71 -4 -130 -12 -117 -17 -149 -20 -139 -10 12 13 152 33 226 33 61 1 72 -1 67 -14 -3 -10 1 -15 12 -15 16 -1 16 -1 0 -10 -9 -6 -79 -32 -155 -60 -76 -27 -179 -64 -230 -83 -51 -19 -95 -32 -97 -29 -6 5 19 32 30 32 4 0 16 8 27 18 11 9 17 11 13 5 -8 -15 10 -18 19 -3 3 6 13 10 21 10 9 0 21 6 28 13 7 6 84 32 170 57 87 24 154 46 148 48 -6 2 -74 -13 -152 -33 -115 -29 -145 -33 -157 -23 -12 10 -14 9 -11 -7 2 -15 -8 -21 -61 -35 -59 -14 -67 -20 -93 -60 -15 -25 -28 -51 -28 -57 0 -14 26 -18 32 -5 2 5 59 30 128 57 69 26 170 65 225 87 92 35 101 37 112 21 9 -11 10 -20 2 -29 -7 -8 -6 -13 3 -16 7 -3 -8 -19 -36 -39 -27 -19 -97 -69 -155 -113 -58 -43 -113 -81 -121 -84 -8 -3 -37 -20 -63 -39 -27 -19 -54 -32 -60 -30 -6 2 87 70 207 151 120 81 215 150 213 153 -3 2 -112 -66 -242 -152 l-237 -157 -45 7 c-44 6 -44 7 -22 19 203 106 572 316 555 316 -6 0 -353 -183 -525 -276 -34 -19 -40 -20 -30 -7 26 34 38 43 64 53 14 5 23 15 20 20 -7 11 2 15 236 118 75 33 149 67 165 76 63 33 5 12 -175 -64 -104 -44 -196 -80 -204 -80 -8 0 -17 -6 -20 -14 -3 -8 -21 -20 -39 -26 -25 -9 -42 -27 -67 -72 -18 -33 -30 -62 -27 -65 3 -4 31 -8 61 -11 30 -2 55 -8 55 -12 0 -5 -23 -22 -50 -39 l-51 -31 -28 21 c-21 15 -37 20 -55 15 -34 -8 -37 -46 -4 -46 18 0 8 -13 -49 -65 -50 -46 -73 -74 -75 -93 -2 -22 -8 -27 -26 -25 -30 4 -62 -13 -62 -32 0 -18 14 -19 41 -5 28 16 24 -2 -13 -54 -23 -34 -32 -59 -36 -100 -4 -53 -6 -55 -28 -50 -51 13 -116 -24 -93 -52 7 -8 21 -11 35 -8 23 6 24 4 24 -45 0 -29 6 -67 14 -85 14 -33 13 -33 -20 -45 -35 -13 -46 -31 -19 -31 8 0 26 -22 40 -50 14 -27 34 -58 46 -69 l21 -20 -25 -23 c-14 -13 -27 -30 -28 -38 -4 -22 11 -80 21 -80 10 0 31 26 29 36 -8 46 22 44 58 -2 15 -21 43 -54 60 -74 38 -44 40 -50 13 -43 -26 7 -25 1 6 -46 26 -40 75 -71 113 -71 27 0 26 -3 -4 -36 -30 -32 -32 -65 -7 -87 25 -22 35 -21 27 2 -11 35 15 33 56 -4 50 -45 84 -58 132 -51 40 7 45 0 22 -30 -22 -29 -18 -61 10 -80 31 -20 41 -14 23 15 -10 16 -10 23 -1 32 9 9 26 5 72 -19 67 -36 137 -42 198 -17 45 19 43 19 43 -9 0 -14 5 -37 10 -52 13 -34 -1 -54 -25 -34 -13 10 -15 9 -15 -8 0 -26 26 -35 68 -23 28 8 32 7 32 -8 0 -10 11 -35 25 -55 l25 -37 -22 -19 -23 -18 26 -11 c15 -5 36 -7 48 -4 12 3 21 1 21 -6 0 -12 52 -90 60 -91 3 0 20 23 39 50 21 31 40 49 48 46 7 -3 26 -1 41 5 l27 11 -23 18 -22 19 25 37 c14 20 25 45 25 55 0 15 4 16 32 8 42 -12 68 -3 68 23 0 17 -2 18 -15 8 -24 -20 -38 0 -25 34 5 15 10 38 10 52 0 28 -2 28 43 9 61 -25 131 -19 197 16 32 17 63 28 69 24 16 -9 13 -33 -5 -43 -12 -7 -13 -11 -5 -16 16 -11 61 21 61 42 -1 9 -7 28 -15 42 -20 36 -19 40 14 34 41 -9 97 13 142 53 39 35 65 36 54 2 -8 -24 7 -25 28 -1 24 26 21 53 -8 84 -30 33 -31 38 -4 38 38 0 90 32 115 71 29 46 29 51 7 48 -32 -3 -31 0 6 39 20 21 49 55 64 75 32 43 57 48 57 13 0 -13 7 -29 15 -36 18 -15 18 -15 34 27 14 36 5 62 -31 87 l-22 16 26 27 c14 16 35 47 47 71 12 23 28 42 37 42 25 0 10 23 -23 34 -29 11 -29 12 -17 41 7 17 13 54 14 84 0 51 1 53 24 47 14 -3 28 0 35 8 24 28 -42 65 -94 52 -24 -6 -25 -4 -25 34 0 42 -31 120 -56 141 -16 13 -19 39 -4 39 6 0 10 -4 10 -10 0 -5 9 -10 20 -10 11 0 20 7 20 15 0 18 -35 37 -62 33 -17 -2 -23 4 -30 29 -5 20 -32 53 -75 92 -55 50 -64 61 -45 61 33 0 30 38 -4 46 -18 5 -34 0 -54 -15 l-29 -21 -46 27 c-57 35 -58 53 -2 54 77 1 80 6 44 74 -24 45 -42 65 -69 78 -39 19 -50 37 -23 37 21 0 19 8 -14 66 -28 47 -33 51 -88 64 -71 16 -82 25 -61 47 16 15 15 18 -9 50 -23 30 -30 33 -75 33 -44 0 -49 2 -43 18 14 34 9 43 -40 70 -41 22 -51 32 -53 58 -3 27 -9 33 -44 43 -39 12 -40 14 -35 47 5 32 4 34 -24 34 -23 0 -30 4 -27 18 1 9 -4 32 -11 51 -13 30 -17 33 -49 28 l-34 -6 7 36 c5 30 1 43 -27 84 -18 27 -35 49 -38 49 -3 0 -18 -21 -35 -48z m34 -200 c1 -81 -2 -104 -14 -108 -8 -3 -17 -15 -21 -26 -5 -18 -12 -14 -65 38 -40 40 -56 61 -48 69 7 7 12 6 17 -1 22 -33 86 -104 90 -100 2 3 -16 33 -42 67 -45 61 -54 90 -38 117 6 9 18 -10 37 -55 16 -37 35 -77 43 -88 16 -22 15 -19 -18 77 -13 37 -21 71 -17 75 11 11 18 -2 38 -74 18 -65 19 -66 13 -18 -3 28 -9 78 -14 113 -7 52 -5 69 8 93 l17 29 7 -53 c3 -28 6 -98 7 -155z m40 65 c-7 -48 -16 -87 -21 -87 -6 0 -7 7 -4 16 3 9 6 54 6 102 0 77 2 85 15 71 13 -12 13 -27 4 -102z m25 -93 c-41 -102 -56 -110 -31 -16 8 31 18 69 21 84 5 23 32 41 45 31 2 -1 -13 -46 -35 -99z m51 7 c-38 -54 -65 -87 -65 -80 0 3 16 42 36 85 33 72 38 77 46 55 7 -19 3 -32 -17 -60z m3 -68 c-37 -37 -70 -64 -74 -61 -3 4 16 34 43 67 35 45 54 61 73 61 22 0 18 -7 -42 -67z m-213 -34 c22 -23 33 -38 25 -34 -11 6 -84 54 -106 69 -1 1 -5 12 -9 25 l-7 24 28 -21 c16 -11 47 -39 69 -63z m282 48 c-3 -8 -27 -26 -54 -41 l-48 -26 48 46 c46 44 66 52 54 21z m53 -36 c0 -8 -145 -81 -160 -81 -26 0 -4 22 56 58 58 35 104 45 104 23z m-369 -27 c51 -32 73 -54 54 -54 -12 0 -145 76 -145 83 0 16 35 5 91 -29z m36 -63 c28 -16 -1 -13 -91 9 -43 11 -80 20 -82 20 -3 0 1 34 5 47 1 3 143 -61 168 -76z m361 34 c-2 -3 -41 -13 -86 -23 -46 -11 -81 -18 -79 -16 2 3 40 22 83 43 73 35 79 37 82 19 2 -11 2 -21 0 -23z m-231 3 c17 -18 40 -52 52 -75 25 -51 67 -191 82 -278 10 -59 16 -70 75 -134 35 -38 64 -74 64 -81 0 -8 13 -9 44 -5 53 8 85 -5 41 -17 -16 -4 -48 -3 -71 3 -68 17 -101 -13 -92 -86 4 -34 34 -57 47 -36 6 8 5 23 -1 37 -14 30 -4 52 28 64 34 13 42 5 20 -19 -27 -29 -18 -83 15 -95 15 -5 35 -6 45 -2 17 6 16 8 -6 19 -35 17 -36 42 -4 63 26 18 27 17 46 -8 27 -39 70 -45 108 -16 30 22 32 22 73 7 86 -33 84 -33 57 -10 -14 12 -42 26 -63 33 -33 10 -41 9 -67 -10 -38 -29 -61 -28 -90 3 -13 14 -19 25 -14 25 5 0 9 19 9 43 0 39 -24 91 -50 109 -6 5 -6 8 0 8 5 0 -2 8 -15 17 -14 10 -27 16 -29 14 -2 -1 -7 1 -10 6 -3 5 -33 30 -66 55 -34 25 -67 54 -75 64 -11 13 -7 12 15 -4 17 -13 65 -48 107 -78 43 -31 87 -67 99 -82 11 -15 25 -27 30 -27 15 0 29 -27 29 -56 0 -14 9 -34 20 -44 23 -21 39 -13 20 10 -18 22 -11 25 43 14 40 -7 56 -18 101 -66 30 -32 57 -55 60 -52 4 3 -16 28 -44 56 -61 61 -67 91 -7 37 23 -22 52 -46 65 -54 23 -15 23 -15 4 -37 -15 -18 -21 -20 -32 -10 -10 9 -13 9 -17 0 -3 -8 -23 -13 -53 -13 -27 0 -52 -4 -55 -10 -3 -5 3 -10 15 -10 40 0 152 -33 157 -46 3 -8 14 -14 24 -14 29 0 90 -34 123 -68 22 -24 26 -34 18 -48 -10 -19 -4 -24 -83 63 -14 15 -43 34 -63 42 -34 11 -40 11 -54 -3 -15 -15 -13 -16 25 -16 43 0 103 -38 103 -65 0 -7 7 -16 16 -19 9 -4 14 -9 11 -12 -3 -3 -15 0 -26 8 -12 8 -18 17 -15 20 3 3 -31 18 -76 33 -58 19 -92 37 -116 62 -20 19 -37 33 -39 32 -11 -12 29 -89 59 -114 l36 -30 -30 -17 c-64 -36 -46 -138 25 -138 42 0 47 22 10 46 -30 20 -32 40 -5 54 26 14 40 6 33 -20 -7 -25 22 -60 49 -60 10 0 24 11 30 25 6 14 15 25 20 25 17 0 48 -85 48 -132 0 -41 -3 -47 -19 -45 -10 2 -30 10 -44 20 -28 18 -87 23 -87 7 0 -5 12 -10 26 -10 29 0 64 -16 81 -39 8 -10 12 -51 13 -105 0 -105 -10 -110 -14 -8 -4 90 -21 118 -81 133 -52 13 -62 24 -44 45 18 22 84 12 115 -17 13 -12 24 -18 24 -12 0 22 -61 63 -94 63 -42 0 -78 -26 -74 -53 3 -21 19 -29 80 -42 40 -8 58 -50 58 -133 0 -75 -16 -126 -49 -156 -25 -23 -26 -17 -6 31 24 57 20 133 -11 178 -33 50 -64 74 -91 75 -34 0 -29 -32 7 -52 22 -13 30 -24 30 -45 0 -26 -34 -113 -43 -113 -3 0 -5 21 -5 48 0 71 -22 125 -55 136 -19 7 -31 6 -40 -3 -10 -10 -7 -16 12 -32 l24 -19 -27 -41 c-27 -40 -63 -78 -149 -157 -51 -48 -61 -87 -32 -129 14 -19 12 -22 -23 -45 -20 -14 -66 -36 -102 -51 -196 -77 -412 -60 -596 48 l-42 25 20 40 20 40 -22 33 c-13 17 -48 53 -79 78 -31 25 -74 72 -96 103 l-39 58 23 17 c20 15 21 19 7 30 -40 33 -72 -13 -84 -120 l-7 -64 -19 28 c-11 16 -21 50 -24 77 -4 46 -3 49 27 64 33 18 42 46 14 46 -29 0 -75 -36 -100 -77 -27 -45 -31 -125 -8 -180 20 -47 19 -50 -6 -27 -33 29 -49 77 -49 149 0 85 19 132 57 140 58 12 78 21 81 37 5 28 -34 58 -75 58 -29 0 -43 -8 -74 -40 -21 -22 -41 -40 -44 -40 -13 0 -3 99 15 138 22 48 32 52 48 17 6 -14 20 -25 30 -25 27 0 56 35 49 60 -7 26 7 34 33 20 27 -14 25 -34 -5 -54 -45 -30 -19 -64 33 -45 53 20 52 111 -1 137 -34 16 -34 23 2 43 27 16 79 104 68 116 -3 3 -21 -11 -41 -30 -24 -25 -58 -43 -116 -62 -45 -15 -79 -30 -76 -33 3 -3 -3 -12 -15 -20 -11 -8 -23 -11 -26 -8 -3 3 2 8 11 12 9 3 16 12 16 19 0 27 60 65 103 65 38 0 40 1 25 16 -14 14 -20 14 -54 3 -20 -8 -49 -27 -63 -42 -79 -87 -73 -82 -83 -63 -8 14 -4 24 18 48 33 34 94 68 123 68 10 0 21 6 24 14 5 13 117 46 157 46 12 0 18 5 15 10 -3 6 -28 10 -55 10 -30 0 -50 5 -53 13 -4 9 -7 9 -17 0 -11 -10 -17 -8 -32 9 -10 12 -18 22 -18 23 0 1 19 15 41 30 23 15 52 39 65 54 14 16 23 21 24 12 0 -8 -23 -36 -50 -64 -28 -28 -48 -53 -44 -56 3 -3 30 20 59 51 29 32 65 60 79 64 14 3 26 11 26 18 0 6 9 17 20 24 17 10 20 10 20 -2 0 -8 -8 -20 -17 -26 -16 -9 -15 -10 5 -5 24 7 29 -4 10 -23 -20 -20 -2 -24 20 -5 11 10 23 32 25 50 6 37 15 55 26 49 4 -3 17 7 29 23 11 15 67 61 123 102 127 91 130 93 123 77 -8 -19 -162 -138 -179 -138 -7 0 -17 -9 -20 -20 -3 -11 -12 -20 -18 -20 -21 0 -51 -63 -52 -107 0 -24 4 -43 9 -43 5 0 -1 -11 -14 -25 -28 -30 -53 -32 -87 -5 -33 26 -43 25 -104 -6 -62 -31 -60 -42 2 -14 56 25 70 25 103 -1 33 -26 78 -18 104 18 18 24 20 25 48 12 35 -17 38 -50 7 -64 -32 -14 -28 -25 9 -25 62 0 88 53 46 97 -28 30 -19 38 26 19 37 -15 47 -41 25 -63 -15 -15 -4 -43 15 -43 23 0 46 29 46 59 0 33 -34 81 -58 81 -9 0 -23 4 -31 9 -12 7 -2 24 46 78 57 65 61 72 83 167 12 55 31 124 41 154 10 30 19 59 19 64 0 5 -57 7 -127 6 -110 -3 -128 -1 -131 13 -2 14 11 15 105 12 59 -3 120 -8 134 -13 23 -7 28 -4 38 18 15 31 70 102 80 102 4 0 21 -15 38 -32z m247 -59 c-146 -16 -174 -17 -174 -8 0 5 10 11 23 13 12 3 49 11 82 19 53 12 64 12 94 -2 l34 -16 -59 -6z m-477 15 c37 -8 70 -18 73 -21 6 -6 -162 8 -174 15 -8 4 12 22 26 22 4 0 37 -7 75 -16z m552 -47 c-10 -9 -45 -11 -124 -7 l-110 5 85 8 c171 15 174 15 149 -6z m36 -38 c40 -6 76 -16 85 -26 14 -14 11 -15 -25 -9 -22 3 -101 13 -175 22 -164 20 -200 39 -55 29 55 -3 131 -11 170 -16z m-77 -65 c92 -25 173 -49 182 -54 8 -4 38 -13 66 -19 44 -11 53 -17 68 -48 16 -34 16 -35 -1 -29 -10 4 -97 37 -193 72 -281 104 -310 116 -310 120 0 8 25 3 188 -42z m41 26 c69 -11 126 -22 127 -23 2 -1 0 -8 -4 -14 -5 -8 -45 -2 -142 22 -157 39 -153 43 19 15z m-117 -61 c23 -12 94 -44 158 -71 261 -112 304 -135 333 -184 24 -40 25 -57 1 -35 -5 4 -45 27 -89 51 -44 24 -162 87 -262 141 -100 55 -186 99 -191 99 -5 0 -17 9 -27 21 -19 20 -19 20 8 10 14 -6 45 -20 69 -32z m163 -172 c115 -77 205 -145 205 -153 0 -17 -3 -15 -71 33 -26 18 -50 33 -53 33 -14 0 -326 233 -326 243 0 5 9 3 20 -4 10 -8 112 -76 225 -152z m148 -37 l199 -108 -41 -7 c-39 -6 -46 -2 -260 140 -122 80 -221 148 -221 150 0 2 28 -12 63 -32 34 -20 151 -84 260 -143z m-30 118 c123 -45 123 -45 114 -55 -6 -5 -222 80 -236 93 -11 10 18 1 122 -38z m-710 -41 c-11 -21 -210 -187 -223 -187 -32 0 17 54 128 141 89 69 117 83 95 46z m453 -27 c42 -33 82 -67 90 -74 7 -8 17 -16 21 -18 17 -7 52 -67 43 -73 -16 -10 -240 189 -240 213 0 19 6 15 86 -48z m-522 -94 c-47 -51 -76 -76 -91 -76 -13 0 -23 3 -23 8 1 9 174 151 179 147 2 -2 -28 -38 -65 -79z m554 -3 c37 -31 69 -60 70 -65 8 -18 -38 -6 -52 14 -8 12 -34 41 -57 65 -22 24 -38 43 -35 43 4 0 37 -26 74 -57z m252 -65 c0 -13 -18 -9 -35 9 -13 12 -19 13 -25 4 -5 -9 -9 -7 -13 8 -2 11 -3 22 0 25 6 6 73 -36 73 -46z m-885 -25 l40 -7 -31 -6 c-39 -8 -96 -1 -88 11 6 11 25 11 79 2z m600 -47 c-12 -18 -13 -30 -6 -50 7 -16 7 -26 1 -26 -19 0 -23 50 -6 75 9 14 19 25 21 25 3 0 -2 -11 -10 -24z m-600 -11 c27 -26 32 -50 13 -61 -7 -4 -8 -3 -4 4 11 18 -13 52 -47 67 -28 12 -29 14 -9 15 13 0 34 -11 47 -25z m706 4 c-28 -17 -32 -25 -29 -49 2 -16 1 -27 -4 -24 -4 3 -8 18 -8 34 0 30 30 60 60 60 8 0 0 -9 -19 -21z m-591 -22 c0 -27 -16 -54 -26 -44 -4 3 -1 13 6 22 7 8 10 24 7 35 -3 11 -1 18 4 14 5 -3 9 -15 9 -27z m-540 -27 c6 -15 10 -41 8 -56 -2 -25 -8 -29 -35 -32 -25 -2 -33 1 -33 12 0 9 7 16 15 16 8 0 15 5 15 11 0 19 -45 5 -49 -16 -2 -10 -22 -42 -44 -70 -23 -27 -43 -52 -45 -54 -1 -3 -9 2 -18 10 -12 13 -13 21 -4 45 13 34 150 170 167 166 6 -2 16 -16 23 -32z m1711 -137 c8 -21 6 -30 -6 -42 -15 -15 -17 -14 -27 3 -6 10 -25 35 -43 55 -18 20 -34 45 -36 56 -4 21 -49 35 -49 16 0 -6 7 -11 15 -11 8 0 15 -7 15 -16 0 -11 -8 -14 -32 -12 -30 3 -33 6 -36 39 -2 23 4 43 17 60 l20 25 76 -73 c41 -40 80 -85 86 -100z m-221 81 c0 -8 -5 -12 -11 -9 -6 4 -23 11 -37 15 -25 8 -24 8 11 9 27 1 37 -3 37 -15z m10 -133 c59 -19 61 -20 20 -15 -25 4 -53 7 -63 7 -9 1 -32 17 -50 36 l-32 34 30 -20 c17 -12 59 -30 95 -42z m-1392 22 c-15 -15 -35 -28 -45 -29 -10 -2 -38 -5 -63 -8 l-45 -6 50 15 c28 9 66 24 85 35 47 26 49 25 18 -7z m-274 -66 c11 -31 -10 -66 -28 -46 -8 8 -8 13 2 16 16 6 16 23 -1 23 -17 0 -60 -104 -61 -147 -1 -33 -18 -44 -33 -21 -14 24 -3 73 35 150 34 71 38 75 57 63 11 -7 24 -24 29 -38z m1921 3 c31 -37 56 -103 53 -142 -4 -53 -23 -60 -31 -12 -9 54 -49 144 -64 144 -16 0 -17 -17 -1 -22 6 -2 8 -10 4 -17 -6 -9 -11 -9 -22 0 -22 18 -17 47 13 77 26 25 28 26 31 7 2 -11 10 -27 17 -35z m-1695 15 c0 -2 -14 -12 -30 -20 -25 -13 -29 -19 -20 -35 16 -30 12 -58 -11 -70 -19 -11 -20 -10 -9 11 7 12 10 38 6 58 -5 34 -3 38 22 48 32 13 42 15 42 8z m1453 -12 c9 -3 17 -11 17 -19 0 -10 -9 -8 -35 7 -37 22 -47 36 -17 24 9 -4 25 -10 35 -12z m-1541 -2 c-10 -6 -10 -10 3 -21 8 -7 15 -22 15 -33 0 -21 0 -21 -16 1 -9 13 -26 27 -38 32 -21 8 -21 8 4 18 30 13 50 15 32 3z m1614 -1 c8 0 14 -4 14 -10 0 -5 -6 -10 -14 -10 -8 0 -24 -12 -35 -26 -20 -25 -21 -25 -21 -6 0 12 8 26 18 31 15 9 15 12 2 22 -13 9 -12 10 3 5 10 -3 25 -6 33 -6z m-1696 -20 c0 -5 8 -10 18 -10 25 0 62 -28 62 -47 0 -14 -4 -13 -20 5 -54 58 -156 -8 -143 -94 3 -20 -1 -35 -11 -43 -26 -22 -39 -3 -33 50 7 61 22 89 47 89 10 0 28 14 40 30 21 30 40 39 40 20z m218 -17 c27 -36 5 -103 -34 -103 -22 0 -16 16 11 28 47 22 18 82 -39 82 -24 0 -28 3 -16 10 19 13 62 3 78 -17z m1382 17 c12 -7 8 -10 -14 -10 -59 0 -89 -60 -41 -82 27 -12 33 -28 11 -28 -23 0 -46 29 -46 58 1 52 51 87 90 62z m180 -20 c12 -16 30 -30 41 -30 35 0 69 -127 39 -145 -19 -11 -42 17 -37 44 6 31 -8 69 -35 99 -28 29 -80 30 -108 0 -16 -18 -20 -19 -20 -5 0 19 37 47 62 47 10 0 18 5 18 10 0 19 19 10 40 -20z m-136 -68 c9 -16 -6 -16 -22 0 -13 13 -16 60 -4 72 4 4 10 -7 13 -26 3 -19 9 -39 13 -46z m-1614 43 c0 -2 -9 -19 -20 -37 -22 -37 -28 -135 -10 -169 12 -21 1 -26 -18 -7 -15 15 -16 117 -2 154 6 15 8 29 5 33 -10 9 -24 -21 -31 -62 -5 -25 -10 -35 -17 -28 -16 16 2 79 30 101 23 18 63 28 63 15z m1749 -22 c26 -32 36 -67 26 -90 -5 -13 -10 -6 -20 30 -13 49 -21 64 -31 55 -3 -4 -1 -15 5 -26 15 -28 14 -145 -1 -160 -22 -22 -26 -12 -12 29 17 47 11 98 -17 147 -24 42 -24 42 5 42 15 0 33 -11 45 -27z m-1930 -128 c16 -8 31 -25 33 -38 4 -23 3 -23 -51 -19 -56 5 -56 5 -38 -16 11 -12 22 -48 28 -88 10 -75 26 -133 40 -149 28 -29 -13 -55 -44 -28 -10 10 -28 36 -39 58 -11 22 -27 47 -35 56 -12 15 -11 17 7 22 11 3 27 -1 35 -9 22 -23 27 1 5 29 -14 17 -23 48 -27 92 -3 36 -10 68 -14 71 -15 9 -10 22 9 27 34 9 64 7 91 -8z m319 3 c19 -19 14 -38 -8 -38 -34 0 -88 -27 -100 -49 -6 -12 -15 -56 -19 -99 l-8 -77 -1 90 c-1 57 3 96 11 106 17 23 52 39 81 39 14 0 26 5 26 10 0 16 -59 11 -88 -7 -26 -17 -26 -17 -12 1 27 34 94 48 118 24z m1801 6 c25 -5 30 -10 25 -23 -4 -9 -11 -45 -15 -80 -6 -44 -16 -72 -31 -88 -24 -25 -19 -40 8 -25 9 5 25 7 34 5 16 -4 13 -13 -22 -68 -47 -76 -58 -86 -85 -79 l-21 6 23 51 c13 29 28 85 34 125 6 46 17 82 28 94 18 21 18 21 -39 15 -53 -5 -56 -4 -53 15 3 11 6 22 7 23 56 39 57 39 107 29z m-2020 -35 c-11 -6 -5 -17 24 -47 44 -45 52 -103 18 -122 -28 -15 -77 -12 -91 5 -10 12 -8 16 14 25 39 14 43 37 11 70 -30 32 -32 76 -2 74 9 -1 17 2 17 8 0 5 5 6 11 2 8 -4 7 -9 -2 -15z m1851 12 c0 -5 8 -8 17 -7 30 2 28 -41 -2 -71 -31 -32 -29 -53 8 -71 23 -11 26 -16 16 -28 -13 -16 -62 -18 -90 -4 -34 19 -26 77 18 122 30 31 34 40 23 53 -8 10 -9 15 -1 15 6 0 11 -4 11 -9z m-1905 -80 c39 -22 44 -48 11 -57 -15 -3 -26 -13 -26 -23 0 -34 22 -92 45 -120 14 -16 25 -31 25 -33 0 -2 -13 -5 -29 -6 -24 -2 -31 4 -44 30 -20 45 -25 63 -36 138 -5 36 -13 73 -17 84 -6 16 -4 17 17 11 13 -4 37 -15 54 -24z m2020 12 c-4 -10 -11 -49 -17 -88 -5 -38 -19 -91 -30 -117 -18 -41 -24 -48 -49 -48 -35 0 -36 4 -4 41 23 28 45 86 45 120 0 10 -11 20 -25 23 -45 11 -23 52 40 74 43 15 48 14 40 -5z m-1750 -91 c0 -42 6 -57 44 -107 l44 -59 -39 -34 c-58 -51 -74 -54 -104 -22 -14 14 -34 31 -45 38 -14 7 -17 14 -10 21 8 8 23 -1 50 -29 56 -58 69 -52 38 18 -31 70 -34 145 -7 191 10 17 21 31 24 31 3 0 5 -22 5 -48z m1441 16 c24 -47 20 -123 -10 -191 -31 -70 -16 -76 39 -16 28 31 40 38 48 29 9 -8 7 -14 -8 -22 -10 -6 -31 -24 -45 -39 -30 -32 -45 -28 -105 23 l-39 35 31 39 c46 60 65 103 61 140 -5 43 7 43 28 2z m-1200 -155 c52 -51 94 -97 94 -103 0 -37 -81 28 -151 120 l-26 34 -27 -27 c-23 -23 -30 -26 -43 -15 -18 15 -12 110 8 134 10 12 15 9 32 -18 10 -18 62 -74 113 -125z m1084 131 c15 -38 12 -110 -4 -123 -11 -9 -19 -7 -40 13 -30 31 -46 27 -70 -18 -23 -42 -84 -102 -113 -111 -43 -12 -24 17 70 106 51 48 102 104 112 124 23 42 32 44 45 9z m-1480 -33 c0 -6 -4 -13 -10 -16 -13 -8 -13 -48 1 -62 11 -11 4 -53 -10 -53 -8 0 -60 70 -79 107 -11 20 -10 21 27 16 23 -3 41 -1 45 6 9 13 26 15 26 2z m1746 -2 c4 -7 22 -9 45 -6 37 5 38 4 27 -16 -19 -37 -71 -107 -79 -107 -14 0 -21 42 -10 53 14 14 14 54 1 62 -13 8 -13 25 -1 25 6 0 13 -5 17 -11z m-1407 -103 c27 -43 106 -116 126 -116 17 0 18 -2 9 -24 -10 -27 -27 -18 -85 42 -85 87 -111 132 -78 132 4 0 17 -15 28 -34z m1084 28 c4 -4 -3 -21 -15 -38 -49 -72 -158 -170 -158 -142 0 2 -3 11 -6 19 -3 9 3 17 18 20 28 7 81 58 116 110 25 37 33 43 45 31z m-991 -192 c212 -168 501 -199 735 -79 80 41 192 135 235 196 l33 49 57 -53 c32 -30 73 -59 93 -66 19 -7 35 -18 35 -25 0 -17 -79 -120 -134 -176 -175 -177 -535 -278 -798 -223 -178 38 -365 130 -463 229 -43 44 -125 157 -125 173 0 4 20 16 44 26 23 10 65 40 91 66 l48 49 42 -57 c23 -31 71 -80 107 -109z m-454 100 c3 -17 -3 -22 -33 -28 l-37 -7 25 -21 c14 -11 43 -59 64 -107 54 -115 76 -132 170 -127 86 4 82 -11 -5 -19 -84 -8 -155 11 -188 50 -26 31 -26 31 -5 39 21 7 29 28 11 28 -5 0 -33 32 -61 70 -38 52 -59 72 -80 77 -34 6 -35 13 -11 43 34 43 144 44 150 2z m87 -7 c35 -30 45 -44 33 -45 -10 0 -18 -5 -18 -10 0 -18 37 -85 74 -133 l36 -47 -28 0 c-38 0 -90 35 -98 66 -4 14 -2 41 4 60 8 28 7 38 -10 59 -11 14 -28 25 -38 25 -10 0 -21 3 -23 8 -7 10 4 62 12 62 4 0 29 -20 56 -45z m1659 20 c8 -31 1 -45 -23 -45 -20 0 -48 -27 -52 -50 -1 -8 1 -27 5 -43 5 -15 5 -38 2 -52 -8 -31 -60 -65 -99 -65 l-28 0 40 53 c40 54 71 109 71 127 0 5 -8 10 -17 10 -13 1 -3 15 32 45 27 25 52 45 56 45 4 0 10 -11 13 -25z m153 0 c33 -23 36 -52 4 -58 -18 -4 -41 -25 -69 -64 -23 -32 -51 -64 -62 -71 -25 -16 -26 -31 0 -40 19 -7 18 -8 -6 -39 -18 -24 -38 -35 -78 -44 -62 -14 -161 -8 -179 10 -10 11 -8 12 10 7 46 -14 125 -8 152 11 14 10 46 60 72 112 26 52 57 102 69 111 l23 17 -35 7 c-29 5 -35 10 -33 29 1 12 3 23 4 25 5 9 111 -1 128 -13z m-1837 -75 c22 -22 25 -36 10 -45 -5 -3 -10 -21 -10 -40 0 -63 75 -121 146 -113 15 2 29 -3 31 -9 7 -18 -78 -17 -123 2 -27 11 -41 27 -64 77 -17 35 -30 68 -30 75 0 6 -12 25 -26 42 l-26 31 36 0 c23 0 43 -7 56 -20z m1713 -2 c-11 -13 -26 -39 -33 -58 -34 -90 -61 -132 -95 -146 -44 -18 -128 -19 -122 -1 2 6 16 11 31 9 95 -10 177 87 134 159 -11 18 -10 23 11 40 13 11 38 19 59 19 l35 0 -20 -22z m-1476 -268 c14 -28 1 -60 -23 -60 -12 0 -15 6 -10 25 5 19 1 27 -16 36 -22 12 -22 12 -3 20 28 10 38 6 52 -21z m1226 20 c7 0 1 -9 -13 -19 -20 -16 -22 -21 -11 -35 11 -13 10 -17 -4 -23 -22 -8 -46 22 -38 45 10 29 26 43 40 37 8 -3 20 -5 26 -5z m-1333 -24 c-19 -7 -36 -20 -38 -28 -5 -26 73 -88 111 -88 36 0 87 43 87 73 0 21 6 21 47 -1 l32 -17 -51 -42 c-58 -50 -105 -56 -173 -23 -54 26 -117 91 -106 109 9 14 60 29 101 29 21 0 20 -1 -10 -12z m1427 4 c12 0 29 -7 38 -16 15 -16 14 -20 -22 -56 -47 -49 -108 -78 -160 -78 -34 0 -50 8 -91 43 l-51 42 32 17 c41 22 47 22 47 1 0 -9 12 -30 27 -45 39 -41 82 -38 133 8 22 20 40 43 40 51 0 8 -15 21 -32 29 -25 12 -27 14 -8 10 14 -3 35 -6 47 -6z m-1279 -26 c2 -11 -7 -32 -18 -47 -30 -37 -69 -36 -116 5 -33 30 -35 33 -18 45 10 7 28 13 40 13 18 0 22 -5 20 -32 -1 -24 4 -33 17 -36 27 -6 59 28 54 56 -3 14 0 21 7 19 6 -2 12 -12 14 -23z m1105 3 c-5 -27 27 -60 54 -55 13 3 18 12 17 36 -2 26 2 32 18 32 10 0 28 -5 40 -11 20 -11 19 -12 -13 -45 -42 -44 -88 -47 -118 -8 -21 27 -27 55 -14 67 13 14 20 7 16 -16z m-922 -81 c30 -13 62 -26 72 -30 17 -5 17 -8 2 -37 -17 -33 -75 -64 -103 -54 -9 3 -30 16 -47 30 -25 21 -28 26 -15 35 8 5 23 10 33 10 14 0 16 -4 8 -18 -18 -33 29 -58 57 -30 20 20 13 55 -15 78 -23 18 -36 21 -73 16 -41 -5 -43 -4 -26 9 27 20 45 19 107 -9z m813 18 c30 -11 16 -22 -21 -17 -65 8 -120 -56 -81 -95 28 -28 75 -3 57 30 -8 14 -6 18 8 18 10 0 25 -5 33 -10 13 -9 10 -14 -15 -35 -16 -14 -38 -27 -47 -30 -28 -10 -86 21 -103 55 -16 30 -15 32 3 37 11 2 41 15 68 28 52 25 73 29 98 19z m-826 -46 c15 -15 16 -55 1 -64 -6 -3 -16 -1 -22 5 -9 9 -8 14 3 21 13 8 13 11 -2 27 -17 16 -20 16 -53 0 -19 -9 -35 -21 -35 -26 0 -5 17 -23 37 -40 53 -43 103 -43 147 2 18 17 35 38 37 45 3 10 18 12 58 6 44 -6 50 -9 35 -17 -11 -6 -34 -23 -51 -38 -65 -56 -152 -63 -251 -20 -37 16 -73 30 -81 33 -8 2 1 17 28 41 35 32 48 37 89 37 26 0 53 -5 60 -12z m893 -25 c27 -24 36 -39 28 -41 -8 -3 -44 -17 -81 -33 -99 -43 -193 -35 -253 21 -16 15 -38 32 -49 37 -15 8 -8 11 35 17 34 5 55 4 57 -3 18 -53 94 -97 139 -80 29 11 83 57 83 71 0 5 -16 16 -35 25 -33 16 -37 16 -52 0 -13 -13 -14 -19 -4 -31 8 -10 9 -16 1 -21 -16 -10 -30 4 -30 29 0 34 19 46 72 46 41 0 54 -5 89 -37z m-481 -22 c0 -3 -9 -12 -20 -19 -16 -10 -24 -10 -40 0 -30 19 -25 25 20 25 22 0 40 -3 40 -6z m-82 -17 c28 -19 45 -59 37 -85 -8 -25 -41 -42 -65 -34 -25 8 -27 45 -3 45 13 0 14 3 5 12 -8 8 -15 8 -27 -2 -17 -14 -20 -41 -5 -56 6 -6 6 -22 -2 -46 -6 -20 -8 -47 -4 -61 8 -33 43 -45 64 -23 11 10 12 16 4 16 -7 0 -12 7 -12 16 0 26 35 11 38 -17 3 -29 -20 -54 -60 -64 -20 -5 -28 -3 -28 6 0 8 -9 25 -20 39 -21 27 -27 75 -10 85 6 3 10 17 10 30 0 18 -4 23 -15 19 -21 -9 -20 44 2 68 34 38 96 11 73 -32 -10 -19 -9 -21 7 -18 28 5 23 47 -9 71 -24 18 -30 18 -58 7 -17 -7 -35 -21 -40 -31 -15 -28 -12 -67 7 -78 14 -8 15 -12 4 -25 -7 -9 -22 -16 -31 -16 -15 0 -20 12 -26 67 -7 66 -6 67 25 95 37 33 102 38 139 12z m223 -12 c31 -28 32 -29 25 -95 -6 -55 -11 -67 -26 -67 -9 0 -24 7 -31 16 -11 13 -10 17 4 25 34 20 19 82 -25 105 -51 27 -110 -12 -92 -60 9 -24 27 -19 21 6 -12 44 38 65 75 31 23 -20 25 -78 3 -69 -19 7 -20 -23 -1 -49 15 -22 10 -50 -16 -84 -10 -13 -18 -30 -18 -37 0 -23 -39 -16 -66 11 -15 16 -24 34 -22 48 3 25 38 37 38 13 0 -9 -5 -16 -12 -16 -8 0 -6 -7 5 -17 13 -13 21 -15 34 -7 32 20 38 41 26 86 -7 27 -8 47 -2 52 14 15 11 42 -6 56 -12 10 -19 10 -27 2 -9 -9 -8 -12 5 -12 22 0 23 -38 1 -47 -8 -3 -26 -1 -40 5 -36 17 -34 82 2 111 40 32 105 28 145 -7z m-157 -117 c11 -8 27 -15 36 -15 9 0 21 -15 29 -36 12 -33 11 -38 -7 -56 l-20 -21 1 34 c2 29 -2 35 -22 37 -13 2 -28 -2 -32 -10 -8 -11 -10 -11 -18 0 -12 20 -55 11 -59 -12 -2 -10 1 -22 8 -26 7 -5 8 -10 2 -14 -5 -3 -17 3 -27 14 -15 16 -15 23 -4 54 8 21 20 36 29 36 9 0 25 7 36 15 10 8 21 14 24 14 3 0 14 -6 24 -14z m5 -179 c26 -27 23 -52 -9 -81 -16 -15 -22 -16 -35 -5 -33 28 -37 49 -15 80 26 36 30 37 59 6z"/> <path d="M1271 2496 c-7 -9 -15 -34 -16 -56 -1 -22 -10 -49 -19 -59 -15 -16 -15 -19 -1 -24 8 -4 15 -13 15 -21 0 -9 -6 -13 -14 -10 -21 8 -32 -17 -12 -28 20 -11 21 -28 1 -28 -8 0 -29 -13 -47 -30 l-33 -29 25 -1 c14 0 32 -5 40 -11 13 -9 13 -11 0 -16 -8 -4 -38 -29 -67 -56 l-53 -50 39 -19 c22 -11 60 -42 86 -69 l46 -49 95 57 96 58 -29 22 c-70 57 -164 65 -171 15 -4 -25 27 -45 49 -31 18 11 49 12 49 1 0 -5 -16 -16 -35 -25 l-36 -17 -41 38 -41 39 37 28 c32 25 42 27 96 23 33 -2 60 -1 60 3 0 4 -13 19 -30 32 -38 32 -37 37 0 37 27 0 29 2 18 19 -7 11 -22 25 -35 32 -26 14 -25 36 1 31 23 -4 20 14 -6 32 -17 12 -20 18 -10 28 9 9 7 17 -10 35 -14 15 -24 42 -28 70 -4 41 -7 44 -19 29z m31 -138 c-3 -11 1 -24 9 -30 11 -7 11 -11 2 -15 -21 -8 -15 -31 13 -50 l26 -16 -28 -15 -28 -15 28 -23 27 -24 -31 0 c-42 0 -90 -22 -120 -55 l-25 -27 45 -39 c25 -21 54 -39 65 -39 22 0 85 35 85 48 0 27 -55 43 -77 21 -13 -13 -28 5 -18 21 16 25 130 -9 130 -39 0 -7 -31 -32 -70 -56 l-69 -44 -30 36 c-16 20 -49 48 -73 63 l-44 28 48 41 c28 23 59 41 73 41 24 1 24 2 -14 35 l-39 35 36 15 c40 16 44 24 25 43 -9 9 -8 12 5 12 18 0 24 34 8 44 -4 3 -3 21 3 40 l10 35 17 -26 c9 -14 14 -34 11 -45z"/> <path d="M1299 1929 c-8 -5 -26 -9 -41 -9 -15 0 -30 -5 -33 -10 -4 -6 -21 -8 -40 -4 -18 3 -42 1 -52 -5 -16 -9 -16 -10 -1 -11 32 0 30 -21 -7 -61 -37 -41 -59 -84 -70 -131 -7 -38 -27 -35 -66 10 -17 20 -42 42 -53 49 -29 17 -111 16 -145 -1 -40 -21 -91 -83 -91 -111 0 -13 -4 -27 -10 -30 -28 -18 3 -209 45 -276 14 -21 25 -43 25 -49 0 -28 53 -119 90 -155 l42 -40 -8 70 c-8 75 -8 84 0 130 3 17 7 40 9 51 3 23 29 54 45 54 5 0 15 11 22 25 8 14 20 23 27 21 7 -3 16 1 20 9 11 18 49 9 56 -13 3 -10 8 -25 12 -34 6 -15 2 -17 -30 -15 -42 2 -69 -23 -47 -45 9 -9 17 -9 36 1 13 8 40 12 60 9 20 -2 36 -3 36 -1 0 1 -11 19 -25 39 -37 55 -58 137 -52 203 7 78 40 165 81 216 19 23 36 48 38 56 2 8 17 17 33 20 17 4 51 12 77 20 44 12 50 11 95 -11 37 -19 43 -25 28 -28 -11 -2 -27 -13 -37 -25 -12 -15 -28 -21 -60 -21 -23 -1 -45 -3 -48 -6 -3 -3 -14 -10 -25 -16 -26 -14 -48 -56 -33 -65 15 -10 -7 -20 -26 -13 -11 4 -16 1 -16 -10 0 -9 -4 -16 -10 -16 -5 0 -10 -8 -9 -17 0 -15 3 -14 16 5 8 12 25 22 36 22 16 0 18 -3 9 -12 -14 -14 -16 -32 -2 -23 6 4 7 -1 3 -11 -5 -13 -3 -16 10 -11 9 3 17 2 17 -3 0 -6 -6 -10 -14 -10 -17 0 -41 -28 -32 -37 3 -4 12 -1 18 5 7 7 20 12 30 12 16 0 16 -2 0 -32 -9 -18 -20 -34 -24 -36 -14 -6 -8 -32 7 -32 9 0 12 6 9 15 -4 8 -1 15 5 15 6 0 11 9 11 20 0 22 3 23 72 20 58 -2 80 10 140 71 51 53 82 69 131 69 37 0 106 -30 126 -53 18 -23 10 -21 -45 8 -82 44 -141 30 -207 -50 -17 -21 -47 -44 -66 -52 -20 -8 -44 -22 -53 -31 -24 -20 -23 -83 1 -113 57 -73 65 -183 15 -195 -15 -4 -41 0 -62 9 -31 14 -102 30 -137 32 -17 1 -36 16 -30 25 9 15 -27 20 -65 10 -59 -16 -60 -70 -2 -70 15 0 26 7 29 20 6 24 31 27 39 5 4 -10 13 -13 25 -10 11 4 44 1 75 -6 56 -13 79 -34 68 -63 -3 -9 -1 -16 5 -16 6 0 11 5 11 10 0 6 7 10 16 10 14 0 14 3 4 15 -15 18 1 20 18 3 14 -14 16 -42 3 -34 -5 3 -11 -5 -13 -19 -6 -31 2 -32 26 -4 14 17 16 26 7 45 -6 13 -7 24 -2 24 13 0 31 -49 31 -86 0 -33 -27 -101 -36 -91 -2 2 3 20 11 40 8 20 15 44 14 54 0 10 -6 0 -12 -21 -11 -36 -37 -62 -37 -37 0 6 -4 11 -10 11 -5 0 -10 -14 -10 -30 0 -18 -6 -33 -15 -36 -14 -6 -13 -8 2 -20 10 -7 13 -14 6 -14 -13 0 -26 17 -30 39 -5 37 -14 61 -22 61 -14 0 -10 -53 5 -78 8 -12 12 -27 9 -32 -11 -17 -43 -11 -50 10 -3 11 -11 20 -16 20 -6 0 -6 -8 1 -20 9 -17 8 -20 -12 -20 -38 0 -52 14 -39 38 15 28 13 83 -3 105 -14 19 -33 7 -21 -13 7 -12 -24 -80 -36 -80 -17 0 -22 31 -11 68 9 29 8 40 -6 64 -20 34 -34 36 -30 6 1 -13 -4 -42 -11 -65 -17 -51 -9 -84 29 -123 17 -17 30 -39 30 -49 0 -39 74 -81 143 -81 44 0 23 17 -31 24 -61 8 -81 22 -97 71 -14 38 -9 67 18 105 11 16 12 9 9 -46 -6 -84 12 -114 66 -114 21 0 48 -7 61 -16 51 -36 183 13 215 80 9 19 16 48 16 65 0 17 5 31 10 31 6 0 10 7 10 15 0 8 4 15 10 15 5 0 7 -7 4 -15 -10 -25 14 -17 55 20 21 19 45 35 54 35 9 0 19 5 23 12 5 8 -5 9 -35 5 -40 -5 -101 10 -101 25 0 11 11 9 40 -7 29 -17 44 -19 36 -6 -4 5 0 12 6 14 7 3 4 6 -8 6 -19 1 -54 29 -54 44 0 4 9 7 21 7 11 0 17 5 14 10 -4 6 -10 8 -15 5 -28 -17 -121 70 -99 92 8 8 2 13 -18 17 -39 10 -67 32 -60 50 5 12 12 13 37 5 20 -8 34 -8 43 -1 21 17 127 1 127 -19 0 -6 5 -7 10 -4 11 7 49 -32 50 -51 0 -5 5 -15 12 -22 6 -6 13 -20 14 -29 5 -38 23 -96 32 -105 5 -5 19 26 35 79 33 111 41 160 27 168 -5 3 -10 14 -10 23 0 13 2 13 15 -4 14 -18 14 -18 16 11 6 88 -1 159 -18 185 -37 59 -133 111 -204 112 -57 0 -95 -19 -143 -72 -45 -50 -80 -70 -123 -70 -61 0 -110 95 -83 160 12 30 19 33 91 45 19 3 51 17 70 31 23 17 41 23 57 19 31 -8 25 15 -9 32 -97 49 -119 55 -140 42z m-369 -186 c13 -9 37 -32 53 -50 16 -18 35 -33 43 -33 8 0 14 -7 14 -15 0 -26 -18 -16 -62 35 -77 89 -137 92 -219 10 -53 -53 -66 -52 -22 1 56 67 140 89 193 52z m-98 -85 c-2 -38 -8 -68 -13 -68 -13 0 -11 114 3 128 15 15 14 19 10 -60z m36 12 c-2 -33 -2 -60 0 -60 10 0 42 48 47 73 4 15 11 27 16 27 6 0 7 -10 4 -22 -4 -13 -9 -31 -12 -42 -3 -12 -1 -16 6 -12 6 4 11 16 11 27 0 10 5 19 10 19 12 0 12 -2 0 -35 -6 -16 -16 -25 -24 -22 -26 10 -41 -11 -41 -62 0 -69 -12 -73 -20 -7 -4 31 -10 56 -14 56 -5 0 -6 37 -2 108 1 6 6 12 12 12 8 0 10 -20 7 -60z m33 47 c-1 -4 -1 -20 -1 -37 0 -16 -4 -30 -10 -30 -5 0 -10 18 -10 41 0 25 4 39 11 37 6 -2 10 -7 10 -11z m-111 -151 c-7 -7 -10 8 -10 51 0 90 14 113 18 29 2 -39 -2 -74 -8 -80z m818 103 c10 -20 29 -64 37 -89 1 -3 6 -16 12 -30 16 -39 25 -70 19 -70 -21 0 -36 18 -42 48 -3 21 -19 65 -35 98 -16 34 -29 65 -29 69 0 15 26 -3 38 -26z m-31 -30 c28 -55 29 -72 2 -39 -11 14 -29 35 -40 48 -20 23 -17 46 4 40 7 -2 22 -24 34 -49z m70 39 c6 -7 18 -38 27 -68 10 -30 31 -84 48 -119 33 -70 33 -99 1 -196 -23 -68 -28 -33 -9 57 19 85 18 95 -12 132 -20 26 -27 47 -23 70 1 5 -5 16 -13 25 -9 10 -19 32 -22 49 -4 18 -11 35 -15 38 -12 7 -12 24 0 24 5 0 13 -6 18 -12z m-879 -60 c1 -57 -5 -88 -16 -88 -4 0 -6 26 -5 57 2 83 2 83 12 83 5 0 9 -24 9 -52z m216 26 c7 -19 -10 -54 -28 -54 -10 0 -11 7 -2 35 12 38 21 44 30 19z m553 -16 c37 -35 41 -48 17 -48 -20 0 -76 59 -68 71 8 14 16 11 51 -23z m173 -10 c11 -24 20 -51 20 -60 0 -10 4 -18 9 -18 11 0 36 -69 28 -76 -9 -9 -47 49 -47 72 0 12 -4 25 -9 28 -14 9 -41 96 -30 96 6 0 19 -19 29 -42z m76 -31 c8 -38 -3 -48 -12 -11 -4 16 -13 38 -20 49 -21 30 -16 43 6 15 11 -14 22 -38 26 -53z m-36 7 c13 -40 6 -60 -8 -23 -20 54 -24 71 -14 65 6 -3 16 -22 22 -42z m-727 2 c-3 -6 -11 -17 -16 -24 -6 -8 -10 -36 -8 -64 2 -36 -1 -48 -9 -43 -6 4 -11 23 -10 44 3 53 2 56 -18 38 -10 -10 -21 -14 -25 -11 -11 11 12 44 27 38 8 -3 18 7 26 26 10 24 15 28 26 19 8 -6 11 -16 7 -23z m515 -26 c12 0 45 -61 37 -68 -8 -8 -35 19 -29 29 3 5 -5 13 -18 18 -31 12 -72 57 -63 71 4 6 17 -1 35 -20 15 -16 33 -30 38 -30z m-809 -7 c0 -48 -2 -54 -11 -36 -9 20 -4 93 7 93 3 0 5 -26 4 -57z m197 2 c-4 -20 -4 -40 0 -46 9 -15 11 -99 2 -99 -11 0 -21 47 -16 75 3 14 1 25 -3 25 -5 0 -9 18 -9 40 0 30 4 40 16 40 13 0 15 -7 10 -35z m597 -47 c-2 -5 2 -8 7 -8 6 0 21 -9 33 -20 12 -11 27 -18 33 -16 6 2 17 -1 23 -7 14 -14 15 -64 1 -72 -6 -4 -10 6 -10 24 0 16 -5 33 -11 37 -9 5 -10 -1 -5 -20 10 -42 -14 -31 -31 14 -9 22 -22 40 -30 40 -7 0 -16 7 -19 15 -4 8 -12 15 -18 15 -19 0 -69 57 -61 70 7 12 92 -58 88 -72z m-674 -40 c-5 -10 -13 -18 -17 -18 -10 0 -6 106 5 122 12 19 24 -82 12 -104z m191 46 c0 -49 -2 -55 -15 -44 -17 14 -20 53 -5 81 17 30 20 23 20 -37z m413 11 c43 -41 46 -49 15 -40 -25 8 -78 53 -78 67 0 17 27 6 63 -27z m160 8 c3 -16 9 -37 13 -48 7 -18 6 -18 -9 -7 -9 8 -20 12 -24 9 -4 -3 -9 13 -11 34 -3 46 22 56 31 12z m-817 -99 c-9 -6 -16 -21 -16 -33 0 -22 34 -94 69 -146 12 -16 21 -38 21 -49 0 -17 -2 -16 -19 5 -26 34 -71 121 -71 138 0 8 -7 23 -17 33 -15 17 -15 19 0 36 11 12 17 36 17 63 0 25 6 51 13 58 10 10 13 2 15 -41 2 -39 -1 -55 -12 -64z m641 32 c-2 -5 5 -18 15 -28 22 -22 23 -38 4 -38 -22 0 -48 31 -43 50 3 11 -4 22 -17 30 -27 14 -49 47 -40 61 7 13 86 -60 81 -75z m-467 14 c0 -22 -4 -40 -10 -40 -11 0 -14 63 -3 73 11 12 13 8 13 -33z m-200 6 c0 -51 -25 -76 -33 -33 -2 12 -5 2 -7 -23 l-2 -45 -10 31 c-9 27 -7 36 13 63 27 37 39 39 39 7z m603 -4 c15 -16 24 -31 21 -35 -9 -9 -64 34 -64 50 0 20 14 16 43 -15z m-476 -13 c-3 -11 -1 -34 5 -50 13 -36 2 -51 -18 -25 -17 24 -18 68 -2 84 17 17 21 15 15 -9z m613 -57 c-15 -5 -50 36 -49 58 0 9 12 2 31 -19 21 -24 27 -36 18 -39z m22 51 c19 -22 30 -53 20 -53 -8 0 -52 55 -52 65 0 11 18 4 32 -12z m-138 -37 c15 -5 16 -9 5 -22 -12 -14 -16 -13 -36 12 -27 34 -30 53 -5 32 9 -8 25 -18 36 -22z m276 8 c8 -22 -8 -90 -18 -79 -4 4 -7 29 -7 56 0 49 12 60 25 23z m38 -12 c4 -39 -15 -112 -29 -112 -8 0 -8 9 -3 28 5 15 9 48 9 75 0 52 18 60 23 9z m-831 -67 c5 -27 4 -29 -10 -16 -24 20 -39 81 -24 99 12 15 18 1 34 -83z m-23 -26 c9 -13 16 -32 16 -42 0 -31 -25 -4 -56 59 -22 45 -24 57 -13 70 11 14 14 11 24 -24 7 -22 20 -50 29 -63z m895 -62 c-12 -40 -24 -67 -26 -61 -2 7 5 39 17 73 11 33 21 73 21 88 l2 28 4 -28 c3 -16 -5 -61 -18 -100z m-312 51 c35 -39 72 -111 79 -154 11 -73 -37 -174 -94 -195 -50 -19 -105 25 -94 76 4 16 7 14 21 -15 28 -61 98 -51 126 17 33 78 6 212 -51 249 -13 9 -24 23 -24 30 0 20 14 17 37 -8z m-649 -31 c7 -19 28 -55 47 -82 19 -27 32 -51 29 -54 -10 -10 -70 67 -83 106 -7 21 -15 44 -17 51 -3 6 -2 12 3 12 5 0 14 -15 21 -33z m639 -39 c32 -35 55 -76 51 -89 -3 -9 -88 93 -88 106 0 12 18 3 37 -17z m-8 -51 c17 -36 20 -51 12 -90 -9 -48 -34 -97 -51 -97 -15 0 -12 8 12 40 27 37 29 110 5 158 -10 17 -13 32 -8 32 5 0 19 -19 30 -43z m52 -73 c7 -20 6 -32 -6 -50 -8 -13 -15 -30 -15 -38 0 -16 -38 -41 -48 -32 -3 3 0 6 6 6 6 0 16 16 22 35 6 19 16 35 21 35 6 0 7 15 3 35 -7 41 2 46 17 9z m-136 -154 c3 -5 15 -10 27 -10 14 0 18 -5 14 -15 -7 -20 3 -19 26 2 10 9 18 11 18 6 0 -17 -29 -36 -45 -30 -8 4 -27 0 -41 -8 -21 -11 -32 -11 -48 -3 -20 11 -19 12 11 20 18 5 35 13 38 18 8 13 -5 13 -44 -1 -24 -9 -35 -9 -44 0 -8 8 -5 11 10 11 12 0 25 5 28 10 3 6 15 10 25 10 10 0 22 -4 25 -10z m131 -25 c-32 -49 -116 -85 -169 -71 -26 6 -67 42 -67 57 0 6 14 -1 32 -16 28 -24 39 -27 81 -22 42 4 56 11 90 46 42 45 60 48 33 6z m-258 -4 c3 -9 -2 -11 -17 -6 -12 3 -21 2 -21 -4 0 -5 12 -11 27 -13 14 -2 29 -9 31 -17 4 -11 -2 -12 -24 -7 -34 9 -39 13 -49 44 -6 21 -4 23 21 20 15 -2 29 -9 32 -17z"/> <path d="M1280 1890 c0 -11 65 -24 80 -15 5 3 8 11 5 16 -8 12 -85 12 -85 -1z"/> <path d="M1084 1709 c-4 -7 0 -16 9 -21 30 -16 37 -7 13 17 -11 11 -17 12 -22 4z"/> <path d="M1162 1417 c-7 -8 -14 -33 -17 -56 -5 -42 -5 -42 41 -62 33 -15 49 -18 57 -10 8 8 8 11 -1 11 -7 0 -11 3 -11 8 3 19 -2 25 -11 12 -7 -11 -14 -12 -27 -4 -31 19 -39 41 -25 76 13 35 11 45 -6 25z"/> <path d="M1732 932 c-11 -23 -10 -29 5 -39 9 -7 22 -13 28 -13 13 0 55 -54 55 -70 0 -14 15 -13 29 4 9 11 5 21 -21 50 -17 20 -39 36 -49 36 -19 0 -33 26 -19 35 14 9 12 25 -2 25 -7 0 -19 -12 -26 -28z"/> <path d="M680 920 c0 -5 6 -10 13 -10 23 0 52 -39 40 -51 -8 -8 -14 -5 -22 10 -20 37 -81 22 -81 -20 0 -9 7 -23 16 -30 14 -11 18 -10 30 6 10 13 11 22 3 32 -9 10 -8 13 4 13 31 0 31 -52 0 -64 -12 -5 -13 -9 -3 -21 18 -22 22 -20 55 30 18 26 38 45 49 45 18 0 18 1 1 20 -10 11 -21 17 -25 15 -4 -2 -15 4 -25 15 -19 21 -55 27 -55 10z"/> <path d="M1723 869 c-32 -12 -28 -38 13 -84 34 -38 36 -39 50 -21 8 11 14 25 14 32 0 26 -20 64 -34 64 -8 0 -16 4 -18 9 -2 5 -13 5 -25 0z m27 -29 c0 -11 7 -20 15 -20 8 0 15 -8 15 -17 0 -14 -4 -12 -25 7 -25 24 -33 50 -15 50 6 0 10 -9 10 -20z"/> <path d="M785 826 c-17 -12 -16 -14 13 -32 34 -20 45 -49 15 -40 -29 9 -50 -10 -37 -31 20 -32 51 -28 70 8 16 33 16 33 -12 56 -17 13 -23 23 -15 23 8 0 25 -9 37 -21 13 -12 24 -16 28 -10 4 5 -10 21 -31 35 -44 30 -44 30 -68 12z"/> <path d="M1629 804 c-6 -8 -17 -14 -24 -14 -7 0 -18 -7 -25 -15 -10 -12 -8 -22 9 -50 12 -20 21 -43 21 -51 0 -17 22 -18 38 -2 18 18 16 98 -2 98 -23 0 -31 -22 -13 -35 10 -7 17 -17 17 -24 0 -20 -15 -11 -33 20 -17 30 -17 32 0 45 29 22 40 16 59 -30 15 -37 21 -43 36 -35 16 8 15 13 -10 53 -29 48 -55 62 -73 40z"/> <path d="M1430 765 c-28 -30 -15 -32 53 -8 57 21 60 33 9 33 -28 0 -45 -7 -62 -25z"/> <path d="M890 755 c-10 -12 -5 -17 24 -29 34 -14 50 -39 24 -35 -30 4 -39 -2 -36 -23 2 -16 11 -24 29 -26 22 -3 29 2 38 30 11 31 10 35 -16 55 -32 26 -15 31 22 7 20 -13 25 -14 25 -3 0 16 -45 39 -76 39 -12 0 -27 -7 -34 -15z"/> <path d="M1518 752 c-20 -4 -23 -13 -9 -28 5 -5 12 -19 16 -31 9 -32 -23 -31 -35 1 -11 31 -25 39 -50 31 -25 -8 -26 -31 -1 -47 15 -9 17 -15 9 -25 -15 -18 9 -45 36 -41 15 2 20 9 19 26 -3 26 4 28 28 6 10 -9 25 -14 33 -11 12 5 12 12 -3 54 -10 26 -20 53 -22 58 -2 6 -12 9 -21 7z"/> <path d="M1013 714 c-4 -10 1 -22 12 -30 15 -11 16 -18 6 -45 -6 -18 -9 -34 -6 -37 10 -10 36 9 45 33 12 32 30 24 30 -15 0 -16 7 -30 16 -34 23 -9 27 -8 21 8 -5 13 4 65 17 97 5 11 1 18 -13 22 -17 4 -21 0 -21 -19 0 -27 -20 -34 -20 -6 -1 15 -2 15 -15 -2 -14 -19 -15 -18 -15 12 0 28 -4 32 -25 32 -15 0 -28 -7 -32 -16z"/> <path d="M1255 710 c4 -7 -2 -9 -18 -5 -28 8 -71 -11 -61 -26 4 -6 11 -6 20 2 17 14 64 4 64 -14 0 -9 -11 -12 -35 -9 -29 4 -36 0 -44 -19 -11 -30 3 -59 30 -59 28 0 37 30 14 46 -23 17 -11 33 13 17 10 -6 16 -22 15 -36 -1 -18 4 -27 19 -30 18 -5 20 -2 16 53 -1 32 0 62 5 66 14 14 7 24 -19 24 -15 0 -23 -4 -19 -10z"/> <path d="M1323 703 c-7 -2 -13 -11 -13 -19 0 -17 5 -17 30 -2 25 16 29 10 37 -49 5 -43 8 -50 25 -45 11 3 17 11 14 21 -2 9 -8 32 -12 51 -3 19 -12 38 -18 42 -12 9 -44 9 -63 1z"/> </g> </svg> 