<?xml version="1.0" standalone="no"?>
<!DOCTYPE svg PUBLIC "-//W3C//DTD SVG 20010904//EN"
 "http://www.w3.org/TR/2001/REC-SVG-20010904/DTD/svg10.dtd">
<svg version="1.0" xmlns="http://www.w3.org/2000/svg"
 width="4094.000000pt" height="1204.000000pt" viewBox="0 0 4094.000000 1204.000000"
 preserveAspectRatio="xMidYMid meet">
<metadata>
Created by potrace 1.16, written by Peter Selinger 2001-2019
</metadata>
<g transform="translate(0.000000,1204.000000) scale(0.100000,-0.100000)"
fill="#ffffff" stroke="none">
<path d="M9385 11320 c-411 -38 -844 -218 -1160 -482 -402 -335 -660 -853
-705 -1418 -12 -144 -7 -274 16 -435 16 -113 63 -303 94 -385 12 -30 26 -68
32 -85 34 -96 62 -66 79 85 65 572 425 963 1000 1087 117 25 446 25 572 0 343
-69 592 -232 777 -508 159 -239 228 -487 217 -789 -13 -361 -137 -651 -381
-896 -152 -152 -325 -258 -526 -322 -140 -44 -227 -56 -400 -55 -174 0 -293
20 -447 74 -296 104 -517 255 -1090 746 -392 336 -744 584 -1038 731 -524 262
-1119 352 -1739 262 -316 -46 -548 -118 -809 -249 -289 -146 -477 -284 -749
-549 -228 -223 -400 -426 -798 -942 -177 -230 -503 -604 -625 -719 -143 -133
-381 -308 -511 -375 -104 -54 -107 -89 -14 -136 136 -69 382 -253 534 -399
168 -163 425 -452 551 -621 443 -591 825 -1024 1090 -1237 533 -427 1083 -616
1795 -617 472 0 871 89 1252 279 298 149 659 395 953 650 503 436 769 639 985
753 101 54 251 109 385 140 96 23 131 27 275 26 134 0 184 -4 269 -23 468
-103 818 -412 968 -856 56 -164 76 -311 70 -495 -12 -324 -112 -588 -312 -824
-134 -158 -369 -298 -600 -357 -107 -28 -141 -32 -305 -36 -145 -4 -209 -2
-293 11 -289 46 -521 155 -697 328 -219 216 -309 414 -368 821 -6 38 -13 72
-17 75 -34 34 -122 -202 -169 -454 -108 -581 69 -1241 455 -1700 249 -298 663
-548 1070 -648 209 -51 571 -72 789 -46 472 57 885 225 1265 513 100 77 328
298 408 397 281 348 471 799 522 1243 18 160 21 505 5 653 -33 299 -170 702
-329 965 -153 253 -395 522 -616 686 -524 389 -1162 567 -1841 513 -451 -36
-801 -130 -1172 -315 -298 -149 -400 -220 -1137 -790 -189 -146 -281 -205
-438 -280 -250 -119 -419 -165 -675 -186 -361 -28 -738 62 -1066 255 -259 152
-479 364 -638 611 -138 214 -250 533 -278 793 -20 176 -8 476 24 628 68 322
219 628 434 878 244 284 638 509 1042 598 93 20 132 22 350 22 274 0 350 -11
560 -80 257 -85 466 -210 855 -514 472 -368 685 -517 915 -638 449 -237 996
-356 1560 -339 429 13 742 89 1100 267 522 258 930 684 1155 1204 99 230 171
487 195 701 13 117 13 474 0 606 -37 370 -144 685 -353 1037 -322 543 -882
943 -1541 1102 -66 16 -175 37 -241 45 -145 19 -417 27 -540 15z"/>
<path d="M15176 10213 c-222 -455 -686 -1074 -1104 -1473 l-125 -120 1547 0
1547 0 -4 -2607 c-3 -1926 -7 -2632 -15 -2698 -66 -499 -179 -708 -501 -928
l-76 -52 667 -3 c368 -1 968 -1 1335 0 l668 3 -103 68 c-287 191 -394 370
-449 756 -18 127 -20 464 -25 3872 l-3 1587 450 5 c248 3 497 10 555 16 398
43 653 109 927 241 505 243 821 604 938 1069 24 95 49 260 41 269 -3 2 -31
-16 -63 -40 -265 -202 -558 -322 -961 -392 -355 -62 -302 -61 -2397 -61 -2076
0 -1967 -3 -2149 56 -236 77 -426 226 -577 453 -34 50 -62 92 -63 94 -2 1 -29
-51 -60 -115z"/>
<path d="M34350 10163 c-210 -267 -585 -534 -1001 -711 -219 -94 -534 -193
-749 -237 -47 -9 -89 -19 -93 -22 -5 -3 7 -22 26 -42 84 -88 152 -224 173
-343 22 -125 -6 -296 -80 -488 -44 -112 -1997 -4508 -2115 -4758 -308 -657
-544 -946 -916 -1123 -148 -71 -144 -71 -250 -1 -113 74 -171 126 -231 205
-95 125 -146 276 -181 527 -17 128 -18 272 -18 2845 0 2863 -1 2807 45 3030
10 50 32 127 49 173 73 200 171 306 457 489 15 9 -278 12 -1310 12 -732 1
-1326 -3 -1320 -7 5 -5 56 -39 114 -77 65 -41 136 -99 187 -150 69 -70 89 -99
132 -186 125 -258 141 -454 141 -1751 l0 -818 -1831 0 -1830 0 4 1018 c3 864
6 1035 20 1137 54 396 169 589 465 771 l94 59 -666 3 c-366 1 -965 1 -1331 0
l-664 -3 92 -57 c235 -144 345 -282 411 -512 36 -124 55 -283 67 -566 15 -346
6 -5218 -9 -5355 -53 -463 -154 -642 -472 -833 l-95 -57 668 -3 c367 -1 967
-1 1335 0 l667 3 -33 20 c-364 220 -472 385 -529 805 -14 110 -17 274 -20
1333 l-4 1207 1830 0 1831 0 0 -1017 c0 -560 -5 -1111 -10 -1224 -29 -618
-127 -839 -468 -1059 -56 -36 -101 -68 -102 -71 0 -5 5172 -1 5210 4 8 1 -24
28 -71 59 -304 202 -427 450 -363 731 21 91 43 150 160 422 51 121 179 425
282 675 l189 455 1458 0 1459 0 218 -535 c338 -828 367 -908 389 -1079 31
-244 -75 -443 -366 -688 l-50 -42 1480 0 c813 -1 1475 3 1470 7 -6 5 -63 44
-128 86 -346 227 -545 466 -772 931 -106 216 -118 243 -845 1930 -1003 2328
-2100 4857 -2134 4923 -12 24 -14 23 -66 -45z m-83 -3268 l521 -1305 -1075 0
c-611 0 -1073 4 -1071 9 35 94 1094 2601 1097 2601 4 0 241 -587 528 -1305z"/>
<path d="M38311 9716 c2 -2 46 -32 97 -66 292 -197 394 -382 444 -805 19 -161
19 -5479 0 -5640 -50 -425 -151 -606 -444 -802 -54 -36 -98 -67 -98 -69 0 -2
592 -4 1315 -4 723 0 1315 3 1315 8 0 4 -37 30 -83 59 -285 179 -401 366 -452
726 -33 228 -36 598 -32 3102 4 2463 5 2530 38 2740 53 341 196 552 486 716
24 13 43 27 43 32 0 4 -592 7 -1317 7 -724 0 -1314 -2 -1312 -4z"/>
<path d="M5487 7374 c-172 -31 -364 -111 -529 -220 -98 -65 -251 -220 -320
-324 -157 -237 -233 -467 -245 -740 -15 -339 81 -655 282 -929 106 -144 273
-281 439 -361 204 -98 337 -130 571 -137 147 -4 184 -2 271 16 331 68 585 210
1139 635 461 354 647 478 868 581 90 41 266 105 292 105 16 0 26 23 17 37 -4
6 -36 19 -72 28 -95 24 -271 98 -384 161 -198 111 -331 204 -761 534 -255 195
-548 390 -707 468 -144 72 -297 125 -422 147 -110 19 -331 18 -439 -1z"/>
</g>
</svg>
