<?xml version="1.0" standalone="no"?>
<!DOCTYPE svg PUBLIC "-//W3C//DTD SVG 20010904//EN"
 "http://www.w3.org/TR/2001/REC-SVG-20010904/DTD/svg10.dtd">
<svg version="1.0" xmlns="http://www.w3.org/2000/svg"
 width="850.000000pt" height="850.000000pt" viewBox="0 0 850.000000 850.000000"
 preserveAspectRatio="xMidYMid meet">
<metadata>
Created by potrace 1.16, written by Peter Selinger 2001-2019
</metadata>
<g transform="translate(0.000000,850.000000) scale(0.100000,-0.100000)"
fill="#ffffff" stroke="none">
<path d="M3740 7579 c-336 -319 -628 -604 -649 -632 -99 -133 -138 -251 -141
-418 l0 -36 -107 -6 c-237 -14 -293 -44 -610 -335 -285 -262 -330 -310 -377
-407 -67 -134 -65 -115 -70 -899 -6 -851 1 -1049 37 -1154 14 -40 40 -96 58
-125 34 -53 611 -648 701 -723 60 -50 159 -100 228 -116 28 -6 50 -16 51 -22
5 -78 47 -192 99 -271 26 -39 260 -276 676 -683 l636 -623 61 57 c34 32 332
313 662 625 625 592 645 613 686 733 10 28 21 77 25 109 6 51 9 58 33 63 217
48 223 52 586 407 346 339 385 387 434 542 49 151 52 231 49 1120 l-3 810 -29
84 c-16 45 -46 108 -66 140 -51 77 -498 515 -581 569 -93 60 -194 92 -309 99
-52 3 -98 11 -102 17 -4 6 -8 42 -8 80 0 87 -22 172 -68 261 -32 64 -93 127
-656 693 -341 342 -624 622 -628 622 -4 0 -283 -261 -618 -581z m1206 -121
c554 -555 583 -587 618 -658 42 -86 54 -143 62 -291 l6 -106 136 -5 c236 -9
287 -39 623 -370 207 -205 239 -241 268 -300 61 -127 61 -128 61 -958 0 -415
-5 -810 -10 -878 -15 -189 -67 -320 -172 -433 -24 -26 -162 -164 -308 -306
-214 -210 -277 -266 -327 -292 -70 -35 -167 -61 -230 -61 -24 0 -43 -1 -43 -2
0 -2 -5 -43 -10 -93 -5 -49 -14 -106 -19 -125 -28 -95 -65 -135 -696 -732
-341 -323 -625 -587 -632 -585 -25 5 -1206 1172 -1241 1227 -48 75 -82 178
-82 251 l0 59 -32 0 c-51 0 -129 24 -199 61 -53 27 -119 87 -372 338 -319 317
-368 371 -411 457 -58 116 -57 93 -57 1026 1 528 4 873 10 901 33 143 87 213
373 474 284 259 281 256 352 289 81 37 177 54 311 54 l120 0 0 128 c1 170 34
267 132 384 38 46 1173 1128 1183 1128 3 0 267 -262 586 -582z"/>
<path d="M3845 7343 c-280 -273 -527 -520 -548 -549 -67 -94 -77 -138 -77
-349 l0 -185 -180 0 c-194 0 -258 -9 -333 -47 -61 -30 -521 -461 -566 -530
-68 -103 -66 -65 -66 -1008 0 -850 0 -850 22 -907 12 -32 35 -77 51 -100 37
-53 591 -623 644 -662 67 -49 127 -66 237 -66 l99 0 4 -138 c5 -217 -34 -166
610 -810 l543 -542 560 539 c662 639 617 580 623 807 l4 142 127 5 c203 7 177
-10 537 351 332 331 341 343 381 481 15 54 17 139 21 895 3 619 0 849 -8 890
-25 115 -44 140 -302 396 -313 310 -289 297 -560 302 l-198 4 0 158 c0 86 -4
182 -10 211 -21 114 -35 131 -575 684 -280 288 -514 523 -520 524 -5 0 -239
-223 -520 -496z m1074 -193 c301 -307 413 -428 431 -465 24 -49 25 -56 25
-282 l0 -232 235 -3 c228 -3 237 -4 285 -28 54 -27 444 -401 495 -476 63 -90
62 -69 57 -986 -3 -608 -7 -845 -16 -877 -32 -116 -54 -144 -345 -439 -196
-197 -294 -289 -326 -304 -39 -20 -66 -23 -210 -28 l-165 -5 -5 -180 c-5 -158
-8 -185 -27 -221 -14 -26 -172 -186 -430 -434 -224 -217 -459 -444 -521 -504
l-113 -110 -514 514 c-426 426 -518 523 -536 564 -19 45 -21 64 -17 213 l3
163 -146 0 c-135 0 -149 2 -196 25 -71 36 -648 628 -682 700 -37 77 -41 213
-37 1030 5 810 3 783 65 867 48 64 472 456 526 486 l50 27 253 3 252 4 0 226
0 227 30 62 c35 76 57 99 610 633 l415 402 74 -79 c41 -43 257 -265 480 -493z"/>
<path d="M3890 7228 c-256 -248 -482 -475 -502 -505 -21 -30 -42 -72 -48 -94
-7 -23 -10 -126 -8 -257 l3 -219 -260 -6 c-259 -7 -260 -7 -312 -34 -78 -42
-513 -457 -544 -520 l-24 -48 0 -865 0 -865 27 -50 c27 -52 579 -627 645 -673
47 -32 106 -40 255 -34 l131 5 -8 -166 c-11 -258 -64 -181 535 -781 l507 -508
514 496 c375 362 519 507 532 536 14 32 19 79 24 224 l6 184 166 4 c129 3 175
8 206 21 56 25 597 564 631 630 57 110 56 99 58 1006 l1 836 -23 51 c-18 39
-73 100 -250 276 -138 138 -245 235 -272 249 -44 23 -51 24 -287 22 l-242 -1
0 238 c1 234 1 239 -24 292 -20 43 -113 144 -492 531 -257 262 -470 477 -473
477 -4 0 -216 -204 -472 -452z m910 -120 c243 -249 439 -457 447 -475 10 -24
13 -97 13 -293 l0 -260 -60 0 c-48 0 -58 3 -54 15 4 8 -6 25 -23 40 l-28 26
-241 -7 -240 -6 -17 58 c-70 250 -351 325 -515 138 -40 -45 -82 -134 -82 -175
0 -18 -5 -19 -62 -15 -35 3 -144 8 -243 11 l-180 5 -35 -30 c-22 -20 -31 -33
-24 -40 6 -6 168 -11 429 -13 l420 -2 -437 -3 -438 -2 0 273 0 273 33 46 c31
45 884 878 898 878 4 0 202 -199 439 -442z m1140 -1164 l0 -44 -1600 0 c-1060
0 -1600 3 -1600 10 0 7 538 10 1595 10 l1595 0 0 25 0 25 -1595 0 -1595 0 12
20 c10 17 14 18 16 5 3 -13 170 -15 1563 -15 1558 0 1559 0 1559 20 0 20 1 20
25 4 20 -13 25 -24 25 -60z m-2890 -314 l359 0 25 -33 c35 -46 79 -145 111
-252 34 -110 66 -182 98 -216 27 -30 60 -40 170 -54 27 -4 47 -11 47 -18 -1
-12 -70 -66 -102 -79 -13 -5 -18 -18 -18 -45 1 -35 5 -41 55 -72 38 -24 54
-41 57 -60 5 -40 -2 -71 -16 -71 -7 0 -30 -11 -51 -25 -23 -16 -44 -23 -56
-20 -11 4 -33 4 -50 0 -25 -6 -29 -10 -24 -28 4 -12 9 -30 12 -41 4 -14 -11
-7 -59 27 -35 25 -76 49 -91 52 -26 7 -27 5 -27 -29 l0 -36 -37 24 c-21 14
-57 32 -80 40 l-43 15 0 -39 0 -39 -37 16 c-24 11 -67 17 -118 17 -67 1 -87
-3 -125 -24 l-45 -25 -45 30 -45 30 60 0 c54 1 72 7 182 66 l121 65 -35 22
-34 23 53 52 c83 79 102 128 106 268 2 77 0 119 -7 123 -6 4 -11 33 -11 65 0
49 5 65 31 101 31 43 46 96 35 126 -6 15 -8 15 -34 -2 -15 -10 -52 -30 -82
-45 -31 -15 -62 -34 -69 -43 -7 -9 -20 -16 -29 -16 -26 0 -82 -41 -98 -72 -15
-29 -14 -59 1 -100 4 -10 3 -18 -3 -18 -5 0 -13 15 -16 33 -3 17 -16 45 -29
61 l-23 28 -58 -38 c-72 -48 -73 -48 -116 -67 -19 -8 -48 -21 -63 -28 -29 -14
-57 -55 -57 -85 0 -11 -6 -15 -20 -11 -16 4 -24 -2 -34 -26 l-13 -32 -6 28
c-9 35 -23 34 -41 -1 -8 -16 -22 -34 -30 -41 -30 -25 -18 28 14 60 45 45 49
92 15 155 -24 44 -26 55 -16 68 24 29 6 46 -49 46 -50 0 -50 0 -50 33 0 17 12
54 25 82 14 28 21 53 16 58 -13 13 -94 -37 -131 -80 l-31 -35 2 -741 c1 -408
-1 -754 -6 -769 -6 -24 -4 -28 14 -28 16 0 21 -6 20 -22 -5 -52 3 -79 30 -110
15 -18 33 -49 40 -69 19 -59 65 -122 112 -154 58 -40 135 -116 143 -143 4 -12
29 -40 55 -62 26 -22 54 -52 62 -66 7 -14 33 -37 57 -51 37 -22 61 -27 176
-35 72 -5 179 -7 236 -6 127 4 138 16 58 65 -29 17 -66 45 -82 62 -17 17 -35
31 -41 31 -7 0 -9 13 -7 34 6 47 -13 98 -54 147 -38 45 -40 58 -20 97 7 15 17
37 20 50 l7 22 -52 -20 c-70 -28 -108 -56 -115 -86 -8 -30 -17 -30 -37 -1 -8
12 -23 31 -34 42 -23 24 -53 97 -53 128 0 12 -5 40 -11 62 l-11 39 -27 -32
c-14 -17 -48 -41 -76 -54 -27 -12 -53 -24 -56 -25 -4 -2 -12 10 -19 27 -17 40
-8 125 17 157 33 45 47 49 76 19 39 -39 89 -36 133 8 23 23 34 43 34 62 0 22
8 33 30 46 40 23 66 69 79 141 6 33 17 67 26 77 21 24 19 30 -12 30 -28 0 -28
1 -28 68 0 54 -5 76 -27 114 -20 36 -22 46 -10 39 55 -30 115 -138 145 -261
14 -58 33 -178 52 -327 13 -100 68 -149 179 -160 40 -3 66 -10 66 -18 0 -18
52 -63 83 -70 15 -4 27 -11 27 -16 0 -4 -25 -33 -55 -64 -74 -76 -74 -99 -1
-157 33 -26 57 -54 61 -70 6 -27 9 -28 76 -28 39 0 69 -4 69 -10 0 -5 -15 -10
-33 -10 -38 0 -57 -15 -57 -46 0 -14 -12 -31 -30 -44 -43 -30 -67 -68 -121
-192 -54 -123 -86 -171 -130 -193 l-29 -16 0 121 0 120 -197 0 c-172 0 -202 2
-225 18 -40 26 -598 602 -617 637 -14 27 -16 112 -19 863 -2 797 -2 835 16
876 14 30 71 91 203 216 l184 174 3 -152 3 -152 359 0z m3271 -80 c7 -23 9
-318 7 -875 -3 -794 -4 -843 -22 -890 -16 -42 -61 -93 -300 -333 -155 -156
-291 -288 -302 -292 -12 -5 -115 -12 -228 -16 l-206 -7 0 -77 c0 -124 -9 -170
-33 -170 -40 0 -101 81 -153 200 -35 81 -63 129 -96 165 -36 40 -47 60 -50 91
-3 38 -4 39 -48 45 -43 6 -43 6 17 7 58 2 62 3 68 30 4 18 18 33 43 45 65 31
78 48 85 110 6 50 5 58 -10 64 -10 4 -32 17 -49 30 -17 13 -36 23 -42 23 -7 0
-12 7 -12 15 0 12 14 15 65 15 l65 0 0 45 0 44 87 3 87 3 32 42 c48 63 71 135
104 327 16 95 37 193 46 217 23 59 75 138 110 169 19 16 23 18 13 5 -37 -45
-52 -91 -53 -152 0 -62 0 -63 -28 -63 -32 0 -34 -6 -13 -30 9 -10 20 -45 26
-79 13 -69 40 -116 86 -147 18 -12 30 -24 27 -27 -11 -11 18 -77 39 -92 34
-24 101 -19 128 9 28 29 50 22 79 -27 23 -37 27 -133 7 -161 -12 -16 -16 -15
-68 8 -31 13 -66 37 -78 52 -27 34 -36 24 -46 -45 -10 -75 -26 -113 -65 -161
-21 -25 -40 -52 -43 -60 -4 -12 -6 -12 -6 2 -2 31 -60 85 -116 108 -31 13 -58
21 -60 19 -2 -3 5 -24 16 -48 26 -58 25 -66 -15 -113 -35 -41 -63 -125 -52
-154 8 -20 -43 -68 -126 -120 -97 -60 -88 -64 150 -64 244 0 294 10 353 69 20
20 38 41 40 46 2 6 21 23 43 39 21 16 44 43 52 60 7 17 39 54 70 81 125 110
161 150 179 200 10 28 31 64 46 81 28 34 44 92 34 125 -6 18 -4 20 15 14 22
-7 22 -5 15 31 -4 22 -6 329 -4 684 2 355 4 683 4 730 0 103 -10 122 -93 179
-74 50 -90 43 -57 -24 13 -28 25 -66 25 -85 l0 -35 -51 -2 c-60 -1 -66 -6 -49
-37 11 -21 9 -31 -14 -79 -24 -49 -26 -59 -16 -95 6 -23 22 -50 35 -60 25 -20
35 -62 15 -62 -6 0 -18 16 -27 35 -19 40 -36 44 -50 13 -11 -23 -11 -23 -18 5
-5 20 -13 27 -31 27 -17 0 -24 6 -24 19 0 21 -46 81 -62 81 -26 0 -86 31 -168
88 -58 39 -64 41 -76 25 -21 -28 -44 -79 -44 -98 0 -9 -5 -13 -10 -10 -7 4 -7
12 0 25 14 26 12 66 -4 98 -14 28 -92 79 -103 68 -4 -3 -12 3 -20 13 -7 11
-47 36 -88 56 -41 20 -75 39 -75 43 0 4 13 15 29 25 26 15 66 17 380 17 l351
0 0 137 0 138 160 -160 c115 -115 163 -170 171 -195z m-381 215 l0 -85 -333 0
-334 0 -45 -30 c-76 -50 -126 -126 -206 -312 -17 -38 -26 -48 -44 -47 l-23 0
22 9 c27 11 37 30 54 104 7 32 23 74 36 93 33 49 30 55 -26 51 -27 -1 -47 0
-44 5 2 4 30 7 61 8 52 0 59 3 85 35 l29 34 -26 10 c-14 5 -76 9 -137 9 -121
0 -161 -10 -204 -53 l-24 -25 -32 40 c-17 21 -34 39 -39 39 -4 0 -15 -11 -24
-25 -16 -24 -16 -27 2 -53 10 -15 22 -35 25 -44 10 -27 34 -22 41 8 4 15 9 24
11 22 3 -3 -4 -31 -14 -64 -11 -32 -22 -80 -26 -106 -10 -78 -25 -56 -18 26 5
68 3 80 -21 129 -14 30 -35 62 -45 71 -19 17 -23 17 -69 2 -80 -27 -129 -92
-148 -196 l-8 -45 -8 54 c-10 63 -57 157 -100 197 -33 32 -27 34 -74 -31 -13
-19 -15 -18 -51 17 l-38 37 -33 -30 -33 -30 30 -35 c17 -19 31 -39 31 -44 0
-5 7 -16 16 -24 8 -9 14 -24 12 -34 -3 -11 -12 0 -26 33 -35 77 -77 114 -156
136 -22 7 -34 5 -48 -7 -16 -15 -20 -14 -53 15 l-37 32 -20 -26 -20 -26 26
-39 c14 -22 30 -40 35 -40 5 0 7 -9 4 -20 -8 -30 -16 -24 -37 26 -22 55 -79
99 -137 109 -22 4 -42 5 -45 2 -3 -2 3 -23 12 -46 12 -30 24 -43 43 -47 14 -4
34 -14 44 -22 18 -16 47 -101 46 -136 0 -12 -7 4 -15 34 -22 83 -39 103 -80
98 -27 -3 -34 0 -34 13 0 36 -24 80 -51 94 -16 9 -56 15 -96 15 -44 1 -75 6
-87 15 -17 13 -76 15 -358 15 -219 0 -338 4 -338 10 0 7 538 10 1595 10 l1595
0 0 30 0 30 -1595 0 c-1057 0 -1595 3 -1595 10 0 7 538 10 1595 10 l1595 0 0
25 0 25 -1595 0 c-1057 0 -1595 3 -1595 10 0 7 540 10 1600 10 l1600 0 0 -85z
m-697 -312 c22 -32 27 -50 27 -101 0 -38 -4 -62 -11 -62 -7 0 -9 -38 -7 -118
4 -105 7 -126 32 -175 16 -35 48 -75 81 -105 l54 -48 -34 -18 c-19 -11 -35
-22 -35 -25 0 -3 55 -34 123 -69 106 -54 129 -62 176 -62 l54 0 -42 -30 c-41
-30 -42 -30 -74 -13 -47 24 -172 30 -221 9 -48 -20 -46 -20 -46 5 0 20 -4 21
-46 16 -26 -2 -66 -18 -95 -36 -28 -17 -52 -31 -54 -31 -2 0 -5 17 -7 38 -3
34 -6 37 -35 40 -37 4 -78 -16 -129 -60 l-36 -32 3 50 4 49 -41 1 c-27 0 -52
9 -69 22 -15 12 -33 22 -39 22 -6 0 -17 14 -23 31 -11 28 -9 33 25 71 20 22
47 44 59 49 19 7 23 16 23 48 0 37 -4 44 -55 82 -30 23 -55 45 -55 50 0 5 34
9 75 9 69 0 77 2 110 31 46 41 72 86 139 242 30 69 70 149 88 177 l33 51 10
-34 c6 -19 22 -52 38 -74z m-1928 7 c-9 -17 -15 -55 -15 -93 0 -55 -3 -67 -26
-88 l-26 -24 29 -5 c26 -5 28 -8 28 -54 0 -49 -1 -50 -48 -78 -40 -23 -47 -25
-43 -11 25 79 33 199 14 205 -6 2 -25 -11 -41 -29 -34 -38 -43 -38 -26 1 10
20 10 29 1 38 -17 17 -15 63 3 78 12 10 19 10 27 2 21 -21 46 -13 56 17 12 35
46 71 67 71 14 0 14 -3 0 -30z m2019 9 c15 -11 33 -36 41 -55 14 -35 41 -45
51 -19 9 22 21 18 40 -10 16 -24 16 -28 -1 -59 -18 -33 -18 -35 0 -63 15 -23
11 -22 -24 12 -58 55 -68 42 -52 -67 6 -46 14 -94 18 -108 l6 -25 -25 23 c-13
12 -28 22 -33 22 -24 0 -45 36 -45 75 0 40 2 43 33 49 l32 7 -24 18 c-22 17
-25 27 -26 87 -1 44 -7 81 -18 102 -20 37 -11 41 27 11z m-2873 -81 c11 -41
33 -68 55 -68 11 0 12 4 4 19 -14 27 -13 41 5 41 8 0 15 -6 15 -13 0 -7 11
-29 25 -49 45 -67 26 -124 -38 -116 -43 5 -48 -10 -17 -49 29 -37 25 -57 -17
-104 l-38 -42 -6 29 c-4 16 -6 124 -6 239 0 116 2 197 4 180 2 -16 9 -47 14
-67z m3715 -375 c-9 -9 -55 32 -70 61 -15 32 -12 48 16 85 27 35 22 42 -21 35
-33 -5 -41 -3 -55 17 -22 32 -20 58 9 101 14 20 25 44 25 53 0 9 6 15 13 12 6
-2 11 -16 10 -31 -1 -17 3 -26 12 -26 24 0 46 45 53 107 4 37 8 -28 10 -176 1
-129 0 -236 -2 -238z m-3140 295 c5 -17 0 -28 -25 -48 -17 -15 -31 -34 -31
-42 0 -10 -13 -18 -36 -23 -45 -8 -119 -80 -129 -124 -4 -19 -13 -31 -23 -31
-9 0 -26 -3 -38 -6 -27 -7 -49 37 -34 67 13 23 23 24 40 4 17 -21 19 -17 30
50 11 66 23 85 57 85 21 0 22 -3 13 -20 -9 -17 -8 -20 14 -20 30 0 51 20 65
63 10 30 52 66 78 67 6 0 15 -10 19 -22z m2650 -58 c21 -43 47 -62 71 -53 10
4 10 10 2 25 -10 19 -9 20 17 14 41 -10 46 -18 55 -82 9 -66 16 -76 35 -49 15
20 15 20 30 1 31 -43 8 -80 -48 -74 -27 3 -34 8 -42 38 -13 46 -75 106 -125
121 -29 9 -41 18 -41 31 0 10 -11 24 -25 30 -18 8 -25 19 -25 38 0 15 3 30 7
33 14 14 69 -30 89 -73z m-2526 -123 c-23 -75 -74 -147 -112 -161 -33 -12 -78
14 -78 45 0 26 26 35 62 21 27 -10 30 -9 39 16 9 23 7 30 -16 49 -38 33 -89
31 -126 -6 -16 -16 -29 -36 -29 -45 0 -10 -6 -13 -15 -10 -43 17 11 81 85 100
43 11 56 11 62 1 6 -9 11 -9 25 1 25 17 116 62 120 58 2 -2 -6 -33 -17 -69z
m2342 44 c24 -10 49 -26 57 -35 11 -13 17 -14 28 -5 22 19 118 -6 143 -38 24
-30 26 -63 5 -63 -8 0 -15 6 -15 13 0 7 -14 26 -30 42 -51 49 -140 35 -140
-20 0 -13 3 -30 6 -39 5 -14 8 -14 29 0 46 30 92 -9 55 -46 -58 -58 -140 13
-183 158 -9 28 -12 52 -7 52 4 0 28 -8 52 -19z m-842 -96 c0 -28 4 -35 20 -35
10 0 24 -9 30 -20 11 -20 8 -20 -395 -20 l-405 0 0 25 c0 14 8 29 20 35 11 6
20 20 20 30 0 20 9 20 355 20 l355 0 0 -35z m-2001 -27 c14 -36 -4 -56 -52
-60 -35 -2 -43 -7 -45 -25 -2 -16 2 -23 13 -23 13 0 12 -6 -8 -32 -30 -40 -53
-110 -67 -203 -10 -61 -31 -115 -45 -115 -3 0 -5 72 -5 159 l0 159 33 -2 c29
-1 32 1 29 26 -4 40 12 63 71 102 63 42 65 42 76 14z m651 14 c0 -20 -62 -102
-101 -134 -59 -47 -97 -66 -145 -70 -34 -3 -39 0 -42 20 -2 13 2 22 9 22 35 0
103 46 128 86 27 41 28 42 44 24 19 -23 47 -16 47 11 0 10 10 25 22 33 25 18
38 20 38 8z m2048 -15 c6 -5 12 -18 12 -29 0 -28 30 -35 50 -10 17 20 17 20
33 -13 18 -38 73 -83 114 -94 18 -5 29 -15 31 -29 3 -19 -1 -22 -30 -22 -70 1
-175 74 -230 159 -15 25 -28 48 -28 53 0 8 29 0 48 -15z m746 -72 c3 -9 6 -30
6 -47 0 -29 2 -30 35 -26 l35 4 -1 -106 c-1 -58 -4 -129 -7 -159 -7 -50 -8
-52 -23 -35 -9 11 -21 53 -28 94 -15 98 -38 167 -68 207 -16 22 -19 31 -8 27
11 -5 15 1 15 20 0 22 -4 26 -31 26 -42 0 -69 17 -69 43 0 46 19 47 80 6 31
-21 60 -45 64 -54z m-3202 -22 c31 -15 58 -60 58 -94 0 -26 -37 -69 -59 -69
-12 0 -12 3 -3 12 7 7 12 26 12 44 0 38 -33 64 -91 71 -76 11 -173 -62 -186
-139 -4 -23 -15 -39 -39 -55 l-34 -22 0 24 c0 35 34 121 64 160 63 83 188 114
278 68z m3015 -8 c28 -15 64 -42 79 -62 31 -41 64 -122 64 -158 l0 -25 -34 22
c-25 17 -36 32 -40 58 -6 36 -57 95 -105 120 -38 19 -108 16 -139 -7 -33 -24
-40 -67 -16 -94 21 -23 13 -24 -25 -4 -38 19 -47 57 -24 103 36 74 144 94 240
47z m-1207 -109 c0 -21 -78 -26 -405 -25 -316 1 -396 6 -403 27 -3 9 82 12
402 12 336 0 406 -2 406 -14z m-1884 -128 c32 -15 50 -30 52 -43 15 -106 17
-99 -26 -148 -22 -25 -42 -44 -45 -41 -3 3 -15 -9 -27 -25 -31 -44 -42 -39
-39 17 6 121 -8 152 -43 95 l-17 -28 -1 39 c0 27 8 49 29 75 15 20 33 46 40
59 6 12 15 22 20 22 5 0 30 -10 57 -22z m3044 0 c0 -6 15 -29 33 -52 36 -43
49 -78 40 -102 -4 -12 -8 -11 -20 6 -8 11 -21 20 -29 20 -13 0 -15 -14 -12
-85 2 -47 0 -85 -4 -85 -4 0 -17 14 -30 30 -12 17 -27 30 -34 30 -15 0 -70 62
-79 90 -4 12 -3 38 1 58 4 21 8 43 9 50 0 15 105 63 117 56 5 -3 8 -10 8 -16z
m-1993 -38 c3 -12 22 -29 42 -40 20 -10 51 -34 70 -54 l35 -36 21 38 c29 52
55 53 96 3 l32 -41 18 29 c9 15 31 38 48 50 17 12 31 29 31 37 0 8 10 14 25
14 14 0 25 -5 25 -11 0 -6 18 -31 40 -56 22 -25 40 -50 40 -54 0 -20 20 -7 35
21 33 64 78 60 112 -9 l20 -40 29 30 c30 32 82 64 90 56 3 -3 -11 -15 -31 -27
-47 -29 -84 -80 -106 -143 -14 -39 -18 -45 -19 -25 0 15 4 38 9 51 12 31 -4
90 -31 114 -18 16 -20 15 -45 -10 -28 -28 -35 -71 -20 -132 4 -16 -2 -4 -14
27 -20 56 -83 139 -121 159 -25 14 -79 -26 -117 -87 l-28 -42 -12 34 c-7 19
-24 42 -38 51 -25 17 -26 16 -54 -15 -16 -18 -29 -39 -29 -47 0 -26 -15 -17
-35 22 -25 45 -85 90 -134 99 -60 11 -68 19 -35 37 38 21 45 21 51 -3z m-1237
-22 c-14 -23 -20 -51 -20 -91 0 -94 -22 -123 -91 -118 -32 2 -59 -22 -59 -54
0 -13 -5 -27 -12 -31 -16 -10 -3 104 17 153 l15 36 20 -21 c28 -30 46 -19 42
26 -4 47 27 98 71 117 17 8 33 14 34 15 2 0 -6 -15 -17 -32z m3370 7 c37 -19
60 -63 60 -115 0 -45 19 -54 44 -19 14 21 15 21 31 -10 20 -39 34 -168 17
-157 -7 4 -12 17 -12 30 0 33 -19 46 -65 46 -61 0 -77 23 -85 118 -3 42 -11
87 -18 100 -15 26 -11 27 28 7z m-2083 -81 c20 -15 47 -51 62 -83 25 -54 26
-64 29 -261 2 -135 0 -202 -7 -195 -5 6 -11 93 -13 200 -3 188 -3 191 -33 250
-27 54 -77 106 -90 94 -3 -3 -8 -35 -12 -70 l-8 -64 -6 65 c-4 36 -10 75 -14
87 -7 21 -5 22 25 13 18 -5 48 -21 67 -36z m417 -25 c65 -72 76 -118 75 -308
-1 -183 -9 -264 -24 -241 -6 9 -10 97 -10 210 0 216 -8 260 -56 306 -25 24
-32 26 -54 16 -13 -6 -38 -33 -55 -59 l-31 -48 4 -212 c3 -123 1 -215 -4 -219
-5 -3 -9 7 -9 23 0 15 -5 84 -10 152 -11 140 -1 271 25 321 18 35 83 110 95
110 5 0 29 -23 54 -51z m-1338 -31 c17 -32 18 -121 3 -151 -6 -12 -20 -29 -32
-38 -11 -9 -17 -21 -13 -28 10 -15 49 -14 65 2 11 10 13 8 7 -13 -3 -14 -6
-35 -6 -47 0 -21 -44 -83 -60 -83 -12 0 -28 51 -29 90 0 67 -36 100 -111 100
-30 0 -43 -6 -59 -26 -25 -32 -26 -38 -5 -59 15 -15 18 -15 38 4 12 12 28 21
34 21 17 0 43 -45 37 -62 -8 -21 -101 -41 -125 -28 -48 26 -55 103 -12 141 80
71 106 78 142 34 22 -26 30 3 13 47 -15 37 -14 38 16 75 17 21 31 45 31 54 0
40 38 22 66 -33z m266 41 c35 -18 88 -94 107 -153 23 -69 37 -159 46 -293 5
-81 4 -92 -10 -87 -11 5 -15 22 -15 74 0 95 -18 213 -41 276 -23 60 -80 118
-128 129 -31 7 -76 56 -64 69 8 8 80 -2 105 -15z m2408 -4 c0 -13 14 -41 32
-60 29 -34 31 -39 20 -69 -7 -18 -12 -43 -12 -55 0 -22 1 -22 36 8 l35 31 30
-22 c83 -64 91 -73 91 -110 0 -75 -38 -100 -118 -78 -42 12 -45 15 -42 44 4
37 39 48 69 20 18 -16 21 -16 36 -1 14 13 14 21 5 42 -23 51 -111 57 -158 10
-18 -18 -24 -35 -24 -69 0 -63 -17 -98 -41 -85 -24 13 -38 39 -48 94 -9 50 -9
50 19 33 16 -10 23 -9 40 7 21 19 21 19 1 27 -57 21 -67 143 -18 217 31 47 47
52 47 16z m-2055 -29 c66 -66 75 -110 73 -335 l-2 -186 -5 190 c-6 177 -8 194
-31 240 -29 58 -81 95 -105 75 -8 -7 -22 -36 -32 -66 -15 -49 -15 -69 -4 -201
7 -81 15 -161 18 -178 4 -20 2 -27 -4 -20 -14 14 -33 173 -33 276 0 119 37
249 70 249 6 0 30 -20 55 -44z m148 -3 c20 -45 21 -64 21 -318 1 -234 -1 -270
-14 -270 -13 0 -15 20 -12 130 3 123 -12 411 -25 475 -8 45 5 36 30 -17z m954
10 c13 -31 16 -81 17 -280 1 -132 -3 -239 -7 -236 -5 3 -8 107 -6 232 2 214
-1 248 -27 289 -1 2 -16 -4 -32 -12 -20 -10 -41 -36 -61 -77 l-31 -62 0 -183
c0 -182 -12 -246 -26 -137 -4 31 -4 119 -1 196 5 122 8 144 31 192 28 55 85
115 112 115 8 0 22 -17 31 -37z m-611 1 c14 -21 15 -33 7 -72 -7 -30 -9 -136
-6 -294 5 -222 4 -248 -10 -248 -14 0 -16 31 -19 263 -3 221 -6 267 -20 292
-14 27 -14 33 -2 58 18 34 29 34 50 1z m1364 21 c0 -19 -38 -58 -69 -71 -45
-19 -97 -68 -121 -114 -29 -56 -40 -107 -50 -235 -6 -65 -15 -124 -21 -130
-19 -17 -3 227 21 324 30 123 77 188 156 216 40 14 84 19 84 10z m-969 -32 c7
-18 6 -36 -1 -56 -6 -18 -10 -135 -10 -288 0 -218 -2 -259 -14 -259 -12 0 -15
47 -18 298 -2 163 0 305 5 315 11 25 26 21 38 -10z m339 -188 c-6 -33 -10
-142 -10 -242 0 -178 -1 -183 -21 -183 -20 0 -20 2 -17 283 3 259 5 285 23
317 l19 35 8 -75 c4 -41 3 -102 -2 -135z m-1236 65 c12 -30 16 -75 16 -180 0
-77 -3 -140 -7 -140 -32 1 -39 23 -53 167 -16 171 6 248 44 153z m695 26 c15
-18 26 -187 17 -260 -6 -48 -10 -55 -22 -45 -11 9 -17 9 -29 -1 -9 -7 -18 -10
-22 -6 -3 3 -7 69 -7 145 -1 123 1 141 18 160 22 25 30 26 45 7z m-1629 -6 c0
-6 -16 -27 -35 -46 -20 -20 -38 -48 -42 -64 -3 -16 -14 -32 -24 -35 -23 -8
-55 -52 -65 -89 -4 -18 -11 -25 -21 -22 -8 3 -22 6 -30 6 -12 0 -15 8 -10 40
6 48 72 158 81 135 9 -26 33 -17 40 15 4 24 15 35 48 50 51 22 58 23 58 10z
m3353 -38 c9 -8 17 -23 17 -33 0 -26 21 -35 35 -16 11 15 16 10 45 -36 22 -35
33 -65 34 -92 1 -36 -1 -40 -26 -43 -17 -2 -28 2 -28 8 0 28 -35 82 -61 96
-17 8 -29 23 -29 34 0 10 -18 40 -40 65 -22 25 -40 50 -40 55 0 11 69 -17 93
-38z m-2755 3 c39 -44 51 -85 59 -214 l6 -104 -25 17 c-22 14 -26 26 -31 89
-6 62 -31 174 -52 230 -11 28 11 19 43 -18z m1752 -139 l0 -175 -30 1 -30 1 1
86 c0 132 12 217 34 240 10 12 20 21 22 21 1 0 3 -78 3 -174z m380 160 c0 -2
-7 -23 -16 -47 -19 -55 -54 -215 -54 -251 0 -18 -8 -31 -21 -39 -22 -11 -22
-11 -16 92 6 125 18 168 59 214 26 30 48 44 48 31z m-1915 -336 c9 -52 18 -96
19 -98 9 -8 55 69 50 82 -8 20 7 20 51 2 33 -14 34 -14 38 12 3 17 5 11 6 -17
l1 -44 -25 23 c-23 22 -26 22 -49 7 -13 -9 -28 -27 -32 -39 -4 -13 -15 -29
-25 -36 -11 -7 -26 -26 -34 -43 -21 -40 -48 -38 -64 6 -6 19 -25 48 -42 64
-28 29 -29 32 -27 118 l2 88 5 -88 c6 -83 7 -88 36 -107 17 -11 33 -20 38 -20
9 0 8 208 -2 278 -6 40 -4 52 6 52 8 0 13 15 14 43 1 23 5 -10 10 -73 4 -63
15 -158 24 -210z m-820 125 c7 -41 4 -47 -29 -86 -52 -61 -76 -134 -76 -227 0
-91 11 -136 45 -186 34 -50 31 -66 -5 -31 -34 33 -70 101 -70 133 0 12 -11 28
-23 37 -27 17 -47 55 -47 88 0 13 16 47 35 77 19 30 35 62 35 70 0 12 3 11 11
-3 19 -32 39 -1 39 58 0 43 5 60 26 84 36 43 51 40 59 -14z m3339 3 c9 -13 16
-43 16 -71 0 -27 5 -57 11 -68 10 -20 10 -20 27 1 l18 22 1 -22 c1 -11 16 -42
32 -67 43 -64 39 -126 -9 -160 -9 -6 -22 -31 -29 -55 -13 -42 -61 -121 -82
-133 -22 -14 -19 5 10 50 75 118 57 309 -38 417 -28 33 -31 41 -25 75 4 21 9
41 11 46 6 11 40 -10 57 -35z m-3124 -83 c48 -25 36 -79 -16 -73 -24 2 -29 7
-29 31 1 34 -23 36 -85 5 -95 -48 -136 -179 -87 -277 12 -24 13 -33 2 -47 -21
-30 -47 24 -53 109 -4 60 0 82 17 124 49 111 167 172 251 128z m2988 -14 c79
-41 121 -118 122 -224 0 -92 -32 -165 -55 -127 -4 6 1 33 10 61 43 129 -26
260 -150 285 -29 5 -30 4 -30 -28 0 -27 -4 -34 -23 -36 -28 -4 -52 14 -52 39
0 48 108 66 178 30z m-838 -251 c0 -7 -252 -10 -735 -10 -483 0 -735 3 -735
10 0 7 252 10 735 10 483 0 735 -3 735 -10z m30 -55 c0 -12 -14 -15 -65 -15
l-65 0 0 -42 -1 -43 -17 35 -17 35 -615 3 c-402 1 -617 -1 -624 -8 -17 -17
-26 -11 -26 14 0 21 -5 25 -37 29 -21 2 301 4 715 5 662 2 752 0 752 -13z
m-175 -65 c4 -7 -200 -10 -604 -10 -401 0 -611 3 -611 10 0 7 208 10 604 10
393 0 607 -4 611 -10z m45 -50 c0 -7 -237 -10 -671 -10 -536 0 -669 3 -661 13
13 15 1332 13 1332 -3z m-1820 -69 c0 -10 12 -28 26 -42 50 -47 68 -120 45
-182 -8 -22 -6 -24 35 -35 25 -7 48 -20 54 -33 12 -21 12 -21 -137 -17 -159 4
-208 17 -239 63 -17 27 -8 85 13 85 12 0 14 8 9 36 -5 22 -3 41 5 50 18 21 27
17 21 -11 -2 -14 1 -32 8 -40 8 -10 10 -29 6 -54 -11 -69 44 -110 120 -89 18
5 40 19 49 31 29 41 13 131 -29 166 -16 13 -22 81 -10 94 10 10 24 -2 24 -22z
m1870 19 c0 -7 -239 -10 -696 -10 -461 0 -693 3 -689 10 4 7 247 10 696 10
453 0 689 -3 689 -10z m550 -45 c0 -6 -16 -35 -35 -65 -46 -71 -47 -119 -6
-161 37 -37 94 -40 136 -8 24 20 26 26 20 66 -4 29 -2 49 5 59 7 7 10 27 8 43
-3 21 -1 28 9 24 25 -10 33 -38 18 -60 -16 -22 -11 -33 15 -33 26 0 25 -71 -2
-99 -39 -43 -77 -51 -235 -51 l-148 1 28 24 c17 15 40 25 59 25 25 0 29 3 23
18 -12 30 -18 90 -11 117 4 14 22 42 41 63 18 21 37 51 41 66 l7 29 13 -24 c7
-13 13 -29 14 -34z m-550 -25 c0 -7 -238 -10 -695 -10 -457 0 -695 3 -695 10
0 7 238 10 695 10 457 0 695 -3 695 -10z m-220 -160 c0 -20 -7 -20 -475 -20
-468 0 -475 0 -475 20 0 20 7 20 475 20 468 0 475 0 475 -20z m130 -135 c0
-12 -13 -15 -55 -15 -37 0 -55 -4 -55 -12 0 -9 -2 -10 -8 -2 -7 12 -168 19
-319 16 -68 -2 -73 -4 -73 -24 0 -13 20 -40 53 -70 28 -27 42 -44 30 -38 -12
5 -25 15 -28 20 -12 19 -25 -1 -25 -36 0 -54 -15 -40 -16 16 -1 27 -8 60 -17
73 -9 14 -13 34 -10 46 5 20 2 21 -99 21 -58 0 -153 3 -211 7 l-107 6 0 -26
c0 -14 4 -28 10 -32 5 -3 19 -20 31 -38 22 -31 22 -31 2 -14 -21 18 -22 18
-33 -4 -7 -12 -10 -39 -7 -62 3 -23 2 -35 -3 -28 -6 10 -10 9 -19 -5 -6 -12
-11 -14 -11 -5 0 7 -6 11 -15 7 -11 -4 -15 2 -15 25 0 22 -5 32 -20 36 -26 7
-26 23 -1 23 26 0 61 46 61 80 0 24 -5 28 -41 34 -22 4 -57 4 -76 0 -42 -8
-53 -32 -53 -111 0 -51 1 -55 21 -50 21 6 21 5 -2 -19 -22 -24 -24 -24 -30 -5
-9 24 -20 31 -78 46 -25 7 -39 14 -30 14 9 1 22 8 29 16 7 8 21 15 31 15 28 0
49 28 49 65 0 31 -3 34 -32 38 -18 2 238 5 570 5 529 2 602 0 602 -13z m-1305
-274 c3 -5 -7 -11 -22 -13 l-28 -3 32 -18 c40 -21 91 -22 121 -1 21 14 22 14
22 -6 0 -17 4 -20 23 -15 12 4 27 13 33 21 15 19 45 18 38 0 -5 -13 19 -15
152 -15 86 0 165 4 176 10 10 5 18 20 18 32 0 20 4 18 35 -15 38 -43 54 -47
62 -18 3 11 9 20 14 20 5 0 9 -9 9 -20 0 -24 26 -26 57 -5 14 10 23 11 25 4 4
-12 197 -24 236 -14 12 3 22 12 22 20 0 19 7 19 26 0 17 -17 90 -21 96 -5 2 6
19 4 43 -5 53 -19 65 -18 66 3 0 10 3 12 6 5 7 -18 99 -17 115 1 11 11 18 11
46 -1 18 -7 45 -12 59 -11 14 2 28 -3 30 -9 4 -10 -166 -13 -827 -13 l-831 0
22 33 c13 17 28 35 34 39 15 11 83 10 90 -1z m691 -151 l844 0 0 31 0 31 31
-26 c17 -14 35 -26 40 -26 5 0 9 -4 9 -10 0 -7 -313 -10 -920 -10 -897 0 -920
0 -920 19 0 11 14 28 33 40 l32 20 3 -34 3 -35 845 0z m814 40 c0 -7 -278 -10
-815 -10 -537 0 -815 3 -815 10 0 7 278 10 815 10 537 0 815 -3 815 -10z m80
-110 l0 -30 -895 0 -895 0 0 30 0 30 895 0 895 0 0 -30z m60 -113 c0 -4 -941
-911 -949 -915 -3 -1 -213 205 -466 458 l-460 460 938 0 c515 0 937 -1 937 -3z"/>
<path d="M4259 7337 l-55 -52 12 -305 c7 -168 13 -338 13 -377 l1 -73 65 0
c61 0 65 1 65 23 0 12 11 173 25 357 14 184 25 344 25 356 0 11 -21 43 -47 72
l-48 52 -56 -53z"/>
<path d="M3970 7021 c-16 -33 -30 -65 -30 -71 0 -9 149 -449 155 -457 1 -3 96
27 102 32 3 2 -76 488 -80 490 -1 1 -28 16 -59 34 l-57 32 -31 -60z"/>
<path d="M4549 7037 l-57 -31 -37 -226 c-20 -124 -39 -234 -41 -245 -4 -18 3
-23 47 -38 29 -9 54 -15 55 -14 6 9 154 445 154 456 0 18 -51 131 -59 131 -3
-1 -31 -15 -62 -33z"/>
<path d="M3746 6828 c-3 -7 -9 -34 -14 -60 l-9 -47 134 -160 c145 -173 142
-171 192 -118 l23 26 -102 178 c-57 98 -103 179 -104 179 -1 1 -27 5 -59 8
-43 6 -58 4 -61 -6z"/>
<path d="M4785 6821 c-40 -6 -40 -7 -143 -185 l-103 -178 23 -25 c50 -53 46
-56 191 116 l134 159 -10 61 c-11 67 -7 65 -92 52z"/>
<path d="M3590 6601 c-62 -19 -62 -19 -29 -107 l20 -52 97 -42 c53 -23 132
-57 174 -75 l77 -34 20 35 20 34 -152 130 c-84 71 -156 129 -162 129 -5 -1
-35 -9 -65 -18z"/>
<path d="M4800 6485 c-80 -68 -146 -129 -148 -134 -2 -5 4 -23 12 -40 19 -36
6 -39 220 57 l149 67 23 65 c13 36 20 68 16 71 -6 6 -115 40 -124 39 -1 -1
-68 -57 -148 -125z"/>
<path d="M3505 6354 c-22 -13 -44 -25 -50 -27 -15 -5 73 -117 93 -117 9 0 91
-7 181 -15 91 -8 167 -13 169 -11 2 3 6 22 9 43 l5 38 -174 58 c-95 31 -178
57 -183 56 -6 0 -28 -12 -50 -25z"/>
<path d="M4870 6310 l-165 -58 2 -38 c2 -20 4 -39 6 -40 2 -2 77 3 168 11 90
8 173 15 184 15 18 1 77 68 90 102 5 12 -89 69 -110 67 -6 0 -84 -27 -175 -59z"/>
<path d="M3970 5070 l0 -30 335 0 335 0 0 30 0 30 -335 0 -335 0 0 -30z"/>
<path d="M3568 2599 c-3 -10 86 -100 558 -562 l140 -137 185 167 c226 205 529
502 529 520 0 18 -615 24 -648 5 -19 -11 -26 -10 -44 2 -20 14 -24 14 -39 0
-16 -15 -20 -15 -41 0 -19 14 -64 16 -329 16 -216 0 -308 -3 -311 -11z m640
-49 l16 -25 -22 19 c-28 24 -101 31 -217 21 -69 -5 -85 -10 -86 -23 0 -13 -3
-11 -11 6 -10 21 -17 22 -120 22 -59 0 -108 -4 -108 -8 0 -4 26 -33 58 -65 47
-46 64 -57 92 -58 19 -1 27 -3 17 -6 -25 -7 -18 -42 13 -64 14 -11 49 -23 79
-29 30 -6 55 -11 56 -13 1 -1 -1 -23 -4 -49 l-6 -48 -176 175 -175 175 289 -2
290 -3 15 -25z m-326 -35 c32 -27 48 -25 48 6 0 18 8 19 118 19 68 0 122 -4
128 -10 7 -7 1 -21 -22 -45 -18 -19 -36 -35 -40 -35 -4 0 -21 17 -39 37 -26
31 -38 37 -70 37 -29 0 -43 -7 -61 -28 -28 -32 -30 -53 -8 -84 20 -29 49 -25
49 7 0 32 28 49 49 32 24 -20 19 -47 -10 -70 -27 -21 -69 -28 -78 -13 -3 5
-18 7 -33 5 -16 -2 -37 3 -48 11 -11 9 -14 16 -7 16 6 0 12 11 12 25 0 27 -25
45 -62 45 -15 0 -39 16 -63 41 l-40 42 74 -7 c58 -5 80 -12 103 -31z m923 -5
c-24 -24 -48 -40 -63 -40 -37 0 -62 -18 -62 -45 0 -14 6 -25 13 -25 6 0 3 -7
-8 -16 -11 -8 -32 -13 -48 -11 -15 2 -30 0 -33 -5 -9 -15 -51 -8 -78 13 -29
23 -34 50 -10 70 21 17 49 0 49 -31 0 -30 21 -37 46 -14 44 39 1 118 -65 118
-28 0 -44 -8 -74 -37 -21 -20 -42 -37 -47 -37 -6 1 -20 17 -33 37 -18 28 -20
38 -10 44 7 5 64 9 126 9 104 0 112 -1 112 -19 0 -31 16 -33 47 -7 30 25 56
32 133 35 l44 1 -39 -40z m-486 -40 c27 -20 44 -41 48 -60 6 -32 28 -39 63
-20 16 8 22 6 36 -15 9 -15 17 -40 18 -58 1 -25 6 -33 24 -35 13 -2 30 2 38 8
11 10 14 8 14 -12 0 -24 -25 -68 -39 -68 -4 0 -22 22 -38 49 -17 26 -67 78
-111 115 -45 37 -84 76 -87 86 -9 28 -17 25 -42 -15 -28 -43 -63 -64 -63 -38
0 10 4 24 8 31 9 13 72 61 83 62 3 0 25 -14 48 -30z m-7 -206 c37 -26 90 -98
103 -141 l6 -23 35 26 c19 15 34 33 34 42 0 8 3 12 6 9 4 -3 16 -1 28 5 27 14
25 11 -133 -131 l-124 -112 -118 117 c-80 80 -114 121 -106 126 7 5 14 0 17
-12 3 -10 17 -28 33 -40 26 -20 27 -20 33 -3 19 59 31 78 76 118 28 25 55 45
61 45 6 0 28 -12 49 -26z"/>
<path d="M4217 2239 c-41 -34 -77 -95 -77 -132 0 -21 37 -63 107 -121 22 -18
23 -18 88 39 72 64 76 76 44 142 -21 43 -85 103 -111 103 -7 0 -30 -14 -51
-31z m74 -10 c29 -15 79 -88 79 -115 0 -23 -81 -104 -104 -104 -18 0 -96 84
-96 103 0 28 27 72 60 101 36 30 35 29 61 15z"/>
</g>
</svg>
