<?xml version="1.0" standalone="no"?>
<!DOCTYPE svg PUBLIC "-//W3C//DTD SVG 20010904//EN"
 "http://www.w3.org/TR/2001/REC-SVG-20010904/DTD/svg10.dtd">
<svg version="1.0" xmlns="http://www.w3.org/2000/svg"
 width="929.000000pt" height="923.000000pt" viewBox="0 0 929.000000 923.000000"
 preserveAspectRatio="xMidYMid meet">
<metadata>
Created by potrace 1.16, written by Peter Selinger 2001-2019
</metadata>
<g transform="translate(0.000000,923.000000) scale(0.100000,-0.100000)"
fill="#ffffff" stroke="none">
<path d="M4350 9224 c-378 -34 -563 -62 -820 -125 -382 -93 -835 -274 -1175
-468 -165 -94 -464 -296 -610 -413 -753 -602 -1290 -1407 -1560 -2338 -122
-423 -177 -819 -178 -1285 -1 -242 20 -581 39 -647 5 -17 37 -18 481 -18 l476
0 -7 43 c-41 249 -60 514 -52 731 30 813 306 1564 809 2195 120 150 422 456
562 568 247 198 441 322 700 448 464 227 903 342 1435 375 329 21 773 -22
1095 -105 526 -137 997 -374 1429 -719 142 -113 435 -408 552 -556 456 -575
722 -1219 800 -1937 29 -270 21 -643 -21 -927 -8 -55 -13 -101 -11 -104 3 -2
216 -6 474 -9 l470 -6 6 44 c33 248 47 571 36 828 -57 1314 -659 2527 -1673
3369 -691 574 -1551 939 -2448 1037 -137 15 -704 28 -809 19z m640 -114 c158
-14 217 -30 255 -70 30 -32 30 -32 28 -143 -3 -122 -30 -458 -39 -482 -7 -18
-47 -19 -202 -1 -62 7 -118 18 -125 25 -8 8 -13 72 -16 216 -1 113 -7 203 -11
200 -4 -3 -79 -95 -165 -204 -181 -231 -137 -206 -386 -216 -119 -4 -148 -3
-158 9 -6 7 -25 76 -41 152 -48 223 -36 203 -117 190 -56 -10 -76 11 -97 105
-31 137 -31 145 -5 162 25 16 359 67 437 67 52 0 64 -17 86 -120 26 -115 36
-150 44 -150 5 0 52 56 106 124 111 141 139 159 236 151 25 -2 101 -9 170 -15z
m1168 -240 c103 -33 202 -69 220 -80 40 -25 41 -45 6 -186 -15 -57 -24 -107
-21 -110 3 -3 49 17 103 44 177 88 207 97 256 83 40 -12 283 -155 355 -209 46
-34 75 -99 63 -141 -16 -56 -253 -462 -288 -494 -18 -16 -25 -13 -148 63 -71
45 -131 86 -135 92 -4 6 33 93 82 195 49 102 89 188 89 193 0 5 -87 -32 -192
-82 -106 -50 -216 -101 -244 -113 l-50 -23 -164 73 c-91 40 -168 79 -173 87
-7 9 4 71 31 183 23 93 39 172 36 177 -3 4 -25 13 -50 19 -72 18 -78 36 -48
153 24 99 44 136 71 136 8 0 99 -27 201 -60z m-2965 -48 c40 -36 264 -529 254
-556 -6 -15 -275 -128 -295 -124 -8 2 -55 77 -104 168 -49 91 -96 171 -103
179 -17 17 -12 38 -65 -264 -23 -126 -46 -236 -52 -243 -6 -7 -32 -25 -57 -39
-25 -14 -91 -52 -147 -84 -55 -33 -107 -59 -116 -59 -8 0 -67 61 -132 135 -77
89 -121 133 -129 128 -7 -5 -31 -21 -54 -36 -51 -35 -59 -32 -135 55 -85 97
-93 113 -75 139 20 27 324 251 365 268 40 17 52 8 143 -100 62 -73 89 -99 89
-87 0 2 13 74 29 161 37 206 34 203 250 294 191 81 233 94 276 88 22 -3 48
-14 58 -23z"/>
<path d="M3334 7447 c-17 -17 -52 -49 -77 -70 -31 -25 -50 -50 -56 -74 -6 -20
-16 -144 -23 -275 l-12 -238 -478 0 -478 0 0 -25 0 -25 475 0 475 0 0 -73 c0
-74 0 -74 -34 -92 -43 -23 -44 -27 -52 -345 -7 -277 -5 -266 -112 -550 -55
-145 -61 -156 -96 -175 -30 -16 -39 -29 -51 -70 -7 -27 -27 -99 -44 -160 -44
-157 -160 -517 -172 -532 -6 -6 -29 -21 -52 -32 -30 -15 -61 -46 -108 -108
-100 -132 -218 -297 -287 -400 l-63 -93 -45 0 c-81 0 -107 19 -148 104 -20 42
-58 106 -86 141 -56 74 -66 105 -80 236 -5 52 -13 117 -19 144 -6 29 -7 114
-4 201 6 146 5 152 -16 173 -28 28 -58 24 -84 -11 -18 -24 -21 -49 -27 -197
-5 -126 -10 -175 -22 -193 -8 -13 -18 -60 -22 -106 -10 -108 -24 -146 -96
-258 -33 -51 -69 -113 -79 -138 -22 -51 -41 -65 -132 -102 -35 -14 -66 -28
-68 -29 -1 -2 7 -33 19 -69 20 -60 24 -66 53 -70 18 -3 786 -7 1708 -10 l1677
-4 21 73 c12 40 24 89 28 109 l6 36 -44 0 c-24 0 -98 -5 -163 -11 -96 -8 -122
-8 -132 3 -7 7 -75 128 -152 268 -132 241 -168 294 -221 330 -19 13 -36 68
-112 370 -87 347 -93 363 -136 388 -15 9 -56 151 -89 307 -24 110 -26 147 -31
443 l-6 322 -24 6 c-33 9 -43 33 -43 108 l0 66 989 0 c892 0 989 2 995 16 3 9
6 20 6 25 0 5 -397 9 -995 9 l-995 0 0 248 c0 289 -3 299 -97 388 -32 30 -58
54 -58 54 0 0 -14 -15 -31 -33z"/>
<path d="M5600 6985 c0 -2 16 -47 35 -100 26 -73 32 -101 25 -120 -8 -22 -6
-24 38 -34 26 -6 117 -26 202 -46 252 -58 376 -68 740 -62 341 5 383 11 502
65 105 48 125 94 52 115 -16 5 -51 18 -79 29 -27 11 -70 24 -95 30 -49 11
-472 3 -680 -12 -233 -18 -386 -23 -435 -15 -45 6 -57 14 -121 81 l-70 74 -57
0 c-31 0 -57 -2 -57 -5z"/>
<path d="M4033 5743 c-3 -269 -9 -392 -21 -406 -7 -8 -12 -32 -11 -54 2 -27
-5 -49 -24 -76 -53 -78 -46 -139 35 -301 l50 -100 46 110 c65 156 69 231 15
295 -19 22 -26 41 -25 60 3 27 -12 68 -29 79 -12 8 -23 170 -15 224 5 32 12
46 21 44 7 -2 130 -106 274 -231 243 -213 262 -232 278 -280 18 -52 45 -83
147 -171 80 -68 90 -91 89 -206 -1 -97 -1 -100 -118 -625 -24 -110 -53 -246
-64 -302 -10 -56 -31 -127 -45 -159 -32 -70 -32 -85 0 -154 16 -35 31 -95 40
-164 39 -274 173 -494 394 -643 98 -66 223 -133 334 -178 l90 -37 545 11 c300
6 739 14 974 17 l428 7 33 41 c50 62 146 209 216 330 69 120 165 315 158 322
-3 2 -349 -1 -769 -8 -1068 -16 -1394 -1 -1543 71 -63 31 -121 85 -146 136
l-22 46 26 39 c14 22 26 50 26 63 0 23 -85 245 -100 260 -4 5 -18 4 -30 -3
-15 -8 -25 -9 -32 -2 -24 24 -40 379 -34 738 5 349 5 352 -19 454 -21 83 -23
106 -13 119 7 9 31 39 53 66 23 28 44 55 48 61 7 12 -392 216 -447 228 -15 4
-72 2 -126 -5 l-98 -12 -79 45 c-43 25 -143 78 -223 118 -173 86 -197 103
-240 169 -17 28 -35 51 -39 51 -4 0 -7 -39 -8 -87z"/>
<path d="M5513 5094 c-27 -36 -28 -41 -35 -213 -5 -98 -14 -185 -20 -196 -6
-11 -15 -60 -19 -109 -7 -82 -12 -97 -70 -211 l-62 -124 6 -103 c4 -57 9 -124
13 -149 l6 -46 421 -6 c231 -4 858 -7 1393 -7 l974 0 15 23 c8 13 18 51 21 84
l7 60 -49 7 c-27 4 -69 13 -94 21 -25 7 -71 16 -102 20 -53 6 -60 10 -89 48
-45 59 -86 93 -149 126 -87 44 -137 53 -204 36 -119 -31 -211 -91 -262 -171
-54 -85 -87 -93 -154 -40 -24 19 -63 40 -87 47 -49 13 -58 25 -66 87 -8 64
-28 86 -118 131 -141 71 -211 52 -271 -74 -35 -74 -86 -130 -143 -156 -64 -30
-94 -25 -176 31 -90 61 -115 63 -189 14 -81 -52 -150 -86 -166 -80 -7 3 -24
27 -38 54 -14 27 -36 62 -49 78 -13 16 -41 58 -62 93 -37 62 -39 70 -45 170
-3 58 -11 116 -18 128 -8 15 -12 80 -12 213 l0 192 -29 29 c-16 16 -34 29 -40
29 -5 0 -22 -16 -38 -36z"/>
<path d="M8405 3819 c-69 -24 -103 -45 -167 -108 -50 -47 -60 -71 -30 -71 9 0
206 -63 437 -140 231 -77 421 -135 423 -130 8 22 -21 159 -43 208 -88 193
-403 315 -620 241z m282 -97 c112 -35 233 -138 233 -198 0 -26 30 -34 -313 81
l-227 77 24 19 c13 10 35 23 48 28 40 17 172 12 235 -7z"/>
<path d="M995 3718 c-11 -6 -21 -12 -22 -13 -2 -1 5 -20 14 -44 10 -25 13 -45
7 -50 -5 -5 -182 -74 -392 -154 -211 -80 -386 -147 -388 -150 -8 -7 32 -102
42 -100 5 1 184 68 398 148 213 81 392 143 396 138 4 -4 13 -25 20 -45 6 -21
16 -38 21 -38 20 0 79 29 79 39 0 8 -63 182 -95 264 -8 19 -49 22 -80 5z"/>
<path d="M8134 3525 c-5 -26 -3 -40 6 -45 7 -4 99 -41 204 -81 239 -90 257
-104 126 -95 -52 3 -170 9 -262 12 -162 7 -168 6 -168 -12 0 -16 51 -43 263
-139 144 -65 333 -152 419 -192 87 -40 164 -73 173 -73 8 0 19 9 25 19 25 48
19 53 -192 148 -112 50 -221 99 -242 107 -22 9 -37 19 -34 21 3 3 126 0 275
-7 149 -6 277 -8 287 -5 22 8 21 53 -1 62 -10 3 -205 74 -433 157 -228 83
-420 153 -427 155 -7 3 -14 -10 -19 -32z"/>
<path d="M1105 3314 c-61 -15 -637 -268 -676 -296 -44 -33 -73 -100 -65 -151
9 -56 50 -123 86 -142 16 -8 53 -15 82 -15 48 0 73 11 293 126 335 177 413
222 427 247 52 99 5 224 -88 232 -22 2 -48 1 -59 -1z m59 -113 c10 -11 16 -30
14 -43 -2 -19 -52 -47 -328 -184 -272 -135 -329 -159 -347 -151 -29 13 -48 59
-35 84 6 11 109 64 254 130 134 62 277 128 318 147 88 40 101 42 124 17z"/>
<path d="M7974 3141 c-53 -33 -81 -93 -76 -167 3 -33 44 -68 189 -156 130 -80
134 -84 129 -112 -4 -20 -1 -35 10 -48 21 -22 72 -24 81 -2 8 21 12 18 204
-101 92 -58 175 -105 183 -105 16 0 56 55 56 75 0 6 -83 62 -185 125 -102 63
-185 118 -185 123 0 7 28 67 36 76 3 3 204 -101 327 -171 38 -21 73 -35 78
-32 16 10 51 86 42 93 -9 8 -620 335 -723 388 -74 38 -121 42 -166 14z m213
-159 l142 -78 -16 -33 c-9 -18 -22 -35 -30 -38 -7 -3 -74 32 -148 78 -100 63
-134 89 -135 105 0 22 17 44 35 44 5 0 74 -35 152 -78z"/>
<path d="M1015 2819 c-187 -105 -355 -205 -374 -222 -68 -65 -81 -152 -32
-229 47 -74 132 -105 204 -74 26 11 651 430 681 457 9 8 -10 65 -25 75 -5 3
-154 -88 -331 -202 -177 -113 -337 -213 -355 -222 -31 -15 -35 -15 -61 5 -50
37 -37 91 36 137 20 13 171 103 335 201 163 98 297 184 297 192 0 13 -28 74
-33 72 -1 0 -155 -86 -342 -190z"/>
<path d="M7750 2718 c-11 -18 -19 -36 -17 -40 1 -4 166 -118 367 -254 201
-136 376 -255 389 -265 13 -11 27 -19 32 -19 4 0 37 48 74 108 l66 107 -28 22
c-40 33 -54 29 -86 -22 -18 -28 -36 -45 -48 -45 -22 0 -107 51 -457 277 -139
90 -257 163 -263 163 -5 0 -18 -15 -29 -32z"/>
<path d="M1400 2539 c-140 -109 -169 -128 -192 -123 -42 8 -68 -11 -68 -51 0
-32 -7 -39 -161 -151 -88 -64 -163 -122 -166 -130 -5 -13 45 -84 60 -84 5 0
82 56 172 125 l164 125 35 -46 c20 -26 36 -50 36 -53 0 -3 -75 -62 -165 -130
l-165 -124 18 -29 c40 -69 36 -70 193 49 173 131 216 169 224 194 4 11 15 19
29 19 32 0 314 214 327 248 6 14 7 38 4 52 -6 24 -165 241 -175 239 -3 0 -79
-59 -170 -130z m190 -79 c17 -22 30 -44 28 -49 -1 -6 -57 -51 -123 -101 l-120
-91 -37 43 c-21 24 -38 45 -38 48 1 3 40 34 88 70 48 35 102 77 120 92 18 16
37 28 42 28 4 0 23 -18 40 -40z"/>
<path d="M7645 2556 c-15 -19 -24 -39 -21 -44 3 -5 139 -110 302 -233 164
-123 333 -252 377 -286 l80 -62 28 36 c16 19 29 40 29 44 0 7 -738 566 -762
577 -3 2 -18 -13 -33 -32z"/>
<path d="M7482 2364 c-26 -22 -46 -50 -53 -73 -20 -68 0 -102 133 -231 l119
-115 -13 -32 c-10 -28 -10 -35 7 -52 19 -22 50 -27 75 -11 12 7 50 -25 173
-147 l157 -157 35 34 c20 19 34 37 33 41 -2 4 -71 79 -155 167 l-152 159 28
34 28 34 54 -47 c30 -25 106 -91 169 -147 63 -55 117 -101 120 -101 4 0 21 16
40 35 25 26 32 39 25 50 -17 23 -660 581 -679 588 -10 4 -37 7 -60 7 -34 0
-51 -7 -84 -36z m221 -172 c64 -57 117 -107 117 -111 0 -4 -14 -20 -30 -36
l-31 -29 -121 121 -122 122 23 25 c13 14 29 22 35 19 6 -4 64 -54 129 -111z"/>
<path d="M1727 2282 c-34 -32 -138 -130 -232 -217 -319 -299 -385 -364 -385
-378 0 -18 38 -67 52 -67 12 0 64 49 422 388 151 144 266 261 266 271 0 17
-39 61 -54 61 -4 0 -35 -26 -69 -58z"/>
<path d="M1907 2150 c-122 -38 -174 -100 -244 -293 -33 -91 -60 -134 -118
-185 -49 -43 -119 -74 -192 -87 -44 -7 -53 -20 -53 -83 l0 -34 63 7 c116 14
181 40 247 102 74 68 95 104 151 258 38 105 50 126 94 171 31 32 64 54 84 59
39 8 44 19 34 67 l-8 36 -58 -18z"/>
<path d="M7320 2115 c-18 -18 -31 -38 -29 -44 2 -6 66 -75 141 -154 l137 -144
-32 -30 c-66 -61 -53 -66 -182 82 -65 74 -123 143 -130 152 -25 34 -109 -24
-88 -61 4 -8 63 -77 131 -154 105 -121 122 -145 122 -175 0 -42 28 -70 61 -62
21 5 40 -14 154 -149 72 -85 137 -155 145 -155 8 0 30 12 49 28 l34 28 -141
164 -141 164 41 43 c23 23 46 42 51 42 4 0 76 -68 158 -150 l150 -150 39 32
c22 17 40 34 40 38 0 8 -647 672 -665 682 -7 4 -25 -6 -45 -27z"/>
<path d="M2053 1938 c-95 -77 -643 -591 -643 -603 0 -7 11 -20 25 -29 14 -9
23 -22 19 -28 -17 -28 28 10 201 165 103 93 188 167 190 165 2 -2 -52 -108
-121 -236 -69 -128 -124 -239 -122 -247 2 -8 85 50 211 147 115 88 211 157
213 155 3 -2 -54 -96 -126 -209 -71 -112 -130 -211 -130 -219 0 -19 68 -56 79
-43 8 9 419 686 462 761 19 34 22 46 13 60 -27 44 -38 38 -259 -152 -165 -142
-172 -147 -154 -114 29 55 193 346 206 366 18 28 13 87 -8 91 -8 1 -33 -12
-56 -30z"/>
<path d="M6928 1784 c-65 -53 -118 -101 -118 -108 0 -19 39 -66 54 -66 7 0 23
11 36 25 13 14 29 25 35 25 8 0 478 -587 551 -689 6 -7 84 61 84 74 0 7 -20
37 -43 66 -134 165 -487 620 -487 627 0 5 14 18 30 30 17 13 30 31 30 41 0 19
-36 71 -48 71 -4 -1 -60 -44 -124 -96z"/>
<path d="M6543 1501 c-86 -42 -133 -71 -133 -81 0 -13 403 -836 415 -849 6 -6
95 33 95 42 0 4 -49 106 -110 227 -60 121 -110 224 -110 228 0 5 27 21 60 37
33 16 60 30 60 32 0 14 -42 83 -51 83 -5 0 -33 -12 -61 -26 -50 -25 -52 -26
-66 -8 -16 22 -63 114 -85 166 l-16 38 95 45 c52 24 94 47 94 49 0 14 -35 76
-44 79 -6 3 -71 -25 -143 -62z"/>
<path d="M2678 1481 c-13 -11 -63 -82 -111 -160 l-88 -140 -42 -3 c-37 -3 -42
-6 -51 -37 -8 -27 -7 -35 7 -43 9 -5 17 -13 17 -18 0 -8 -141 -234 -204 -326
-14 -21 -26 -42 -26 -46 0 -10 65 -48 83 -48 9 0 64 77 133 185 l118 184 35
-21 c20 -12 38 -23 40 -24 3 -3 -49 -103 -163 -316 l-47 -87 49 -25 50 -25 87
162 c48 89 143 264 211 389 117 214 124 230 124 283 0 51 -3 60 -32 87 -18 17
-43 34 -56 39 -41 16 -107 10 -134 -10z m117 -97 c14 -15 13 -22 -21 -83 -21
-36 -57 -103 -82 -149 l-44 -82 -36 22 c-21 12 -39 23 -41 24 -2 2 36 66 84
144 91 143 106 157 140 124z"/>
<path d="M2832 947 c-175 -358 -192 -398 -192 -446 0 -89 39 -137 135 -167 72
-23 120 -13 165 35 19 20 41 55 49 76 7 22 78 206 158 409 79 203 142 370 140
372 -1 2 -19 10 -39 18 l-36 16 -32 -78 c-18 -42 -88 -209 -156 -370 -68 -161
-124 -297 -124 -302 0 -18 -63 -80 -81 -80 -31 0 -59 36 -59 75 0 23 54 154
165 401 91 202 165 377 165 389 0 13 -8 25 -17 28 -10 2 -25 8 -33 11 -12 5
-57 -78 -208 -387z"/>
<path d="M6144 1322 c-43 -28 -67 -82 -59 -135 6 -37 57 -174 216 -584 56
-143 113 -193 208 -180 60 8 111 37 138 78 45 69 36 102 -131 454 -172 364
-182 377 -278 383 -49 2 -70 -1 -94 -16z m140 -121 c14 -27 62 -132 106 -232
45 -101 102 -230 126 -286 50 -112 50 -134 4 -153 -64 -26 -61 -32 -234 403
-103 258 -107 269 -91 293 27 41 61 32 89 -25z"/>
<path d="M5690 1183 c-19 -8 -36 -16 -37 -17 -1 -1 34 -107 77 -235 84 -249
85 -260 35 -283 -13 -6 -35 -8 -48 -4 -27 6 -46 57 -142 369 -19 64 -38 117
-42 117 -25 0 -83 -26 -83 -37 0 -8 28 -108 61 -221 34 -114 66 -223 71 -242
6 -19 25 -49 44 -68 31 -31 38 -34 83 -30 l48 3 64 -190 c35 -104 65 -192 66
-194 5 -9 93 31 93 42 0 7 -27 93 -59 191 l-60 180 30 33 c23 27 29 43 29 81
0 57 -1 61 -85 287 -37 99 -70 191 -74 205 -9 30 -25 33 -71 13z"/>
<path d="M3361 1168 c-24 -66 -24 -65 21 -81 34 -11 43 -19 41 -35 -2 -11 -75
-199 -164 -417 -88 -218 -158 -400 -154 -403 4 -4 27 -14 53 -23 l47 -16 81
201 c173 430 247 611 254 619 4 5 24 1 45 -7 21 -9 42 -16 47 -16 9 0 38 60
38 79 0 9 -269 121 -290 121 -6 0 -14 -10 -19 -22z"/>
<path d="M5245 1060 c-66 -16 -132 -29 -148 -29 -25 -1 -27 -4 -21 -28 15 -68
12 -66 68 -60 l51 5 98 -441 c53 -242 99 -442 101 -444 2 -2 27 2 55 8 50 10
52 12 46 37 -4 15 -11 51 -17 82 -5 30 -30 143 -54 250 -67 293 -114 522 -109
530 2 4 23 10 45 14 38 6 40 8 40 40 0 43 -9 66 -24 65 -6 -1 -65 -14 -131
-29z"/>
<path d="M3726 999 c-9 -29 -35 -119 -58 -201 -32 -112 -46 -148 -58 -148 -9
0 -21 -5 -28 -12 -16 -16 -15 -68 2 -82 11 -9 4 -45 -44 -216 -39 -135 -55
-207 -48 -211 12 -8 89 -21 93 -17 1 2 26 89 55 195 29 105 56 197 60 203 5 8
22 7 64 -4 32 -8 60 -16 62 -19 2 -2 -16 -99 -40 -215 l-44 -211 50 -11 c27
-7 51 -11 53 -9 2 2 21 85 43 184 23 99 68 303 101 453 34 149 61 278 61 286
0 8 -14 17 -32 21 -18 4 -41 9 -50 11 -12 4 -19 -2 -23 -18 -3 -13 -23 -104
-46 -203 -23 -99 -42 -181 -43 -182 -2 -3 -120 27 -124 32 -1 1 23 91 54 199
33 114 53 201 48 206 -5 4 -28 11 -51 15 l-42 7 -15 -53z"/>
<path d="M4156 959 c-14 -11 -33 -34 -42 -50 -17 -34 -60 -432 -71 -649 -6
-149 0 -178 52 -218 59 -47 183 -46 233 1 47 44 49 63 57 458 l7 374 -24 35
c-46 68 -156 93 -212 49z m115 -79 c17 -9 19 -22 19 -103 0 -109 -20 -603 -25
-633 -6 -27 -48 -46 -78 -35 -51 19 -51 24 -33 259 36 463 42 507 74 515 9 3
18 5 20 6 2 0 12 -4 23 -9z"/>
<path d="M4910 940 c0 -21 13 -135 30 -252 16 -117 43 -319 60 -448 17 -129
33 -236 35 -238 2 -2 22 -1 44 3 39 6 41 9 41 41 0 34 -26 235 -80 614 -16
113 -32 231 -36 263 l-6 57 -44 0 -44 0 0 -40z"/>
<path d="M4500 746 c0 -202 -1 -215 -19 -221 -39 -12 -34 -86 6 -99 17 -5 18
-23 15 -216 l-3 -210 50 0 51 0 0 188 c0 103 3 197 6 210 6 20 13 22 64 22
l57 0 6 -91 c4 -50 4 -128 1 -174 -4 -45 -4 -99 0 -119 7 -36 7 -36 56 -36
l50 0 0 228 c0 152 -4 232 -11 239 -8 8 -8 17 0 31 7 13 11 94 11 217 0 195 0
196 -25 220 -23 24 -28 25 -170 25 l-145 0 0 -214z m234 88 c9 -22 7 -277 -2
-290 -4 -6 -33 -14 -64 -18 l-58 -6 0 165 0 165 59 0 c44 0 60 -4 65 -16z"/>
</g>
</svg>
