<?xml version="1.0" standalone="no"?>
<!DOCTYPE svg PUBLIC "-//W3C//DTD SVG 20010904//EN"
 "http://www.w3.org/TR/2001/REC-SVG-20010904/DTD/svg10.dtd">
<svg version="1.0" xmlns="http://www.w3.org/2000/svg"
 width="400.000000pt" height="400.000000pt" viewBox="0 0 400.000000 400.000000"
 preserveAspectRatio="xMidYMid meet">
<metadata>
Created by potrace 1.16, written by Peter Selinger 2001-2019
</metadata>
<g transform="translate(0.000000,400.000000) scale(0.100000,-0.100000)"
fill="#ffffff" stroke="none">
<path d="M1820 3759 c-527 -56 -1004 -345 -1293 -784 -186 -282 -285 -604
-291 -945 -5 -279 50 -534 169 -787 422 -894 1502 -1267 2385 -823 462 232
789 639 919 1143 41 156 52 253 52 437 0 184 -11 281 -52 437 -81 314 -222
567 -447 797 -283 290 -634 464 -1047 521 -76 11 -310 13 -395 4z m475 -53
c597 -108 1092 -511 1314 -1072 83 -210 116 -388 116 -634 0 -198 -9 -268 -55
-445 -160 -611 -647 -1087 -1264 -1235 -283 -68 -547 -66 -832 5 -657 164
-1156 703 -1280 1380 -26 140 -26 450 0 590 63 342 214 642 450 892 275 291
625 471 1026 529 121 17 402 12 525 -10z"/>
<path d="M1775 3669 c-101 -13 -267 -56 -365 -94 -550 -211 -936 -664 -1061
-1245 -20 -92 -23 -134 -23 -330 0 -248 11 -328 74 -522 197 -604 731 -1053
1360 -1143 538 -76 1074 109 1450 501 125 131 202 236 275 376 135 259 195
503 195 789 -1 804 -554 1479 -1348 1650 -112 24 -437 34 -557 18z m500 -34
c702 -123 1234 -655 1361 -1360 24 -138 24 -412 0 -550 -114 -631 -559 -1134
-1163 -1314 -167 -49 -279 -65 -473 -65 -459 0 -846 160 -1170 484 -323 323
-484 712 -484 1170 0 302 66 562 205 805 272 477 724 778 1269 845 102 12 345
4 455 -15z"/>
<path d="M1835 3599 c-478 -50 -912 -313 -1176 -713 -355 -538 -355 -1235 0
-1772 446 -675 1326 -913 2053 -554 317 156 572 411 728 728 359 727 121 1607
-554 2053 -310 205 -683 296 -1051 258z m431 -39 c138 -24 317 -81 435 -140
302 -150 568 -417 714 -715 75 -154 112 -262 96 -278 -8 -8 -15 0 -26 26 -8
21 -32 55 -52 77 -28 32 -39 38 -49 29 -16 -13 -17 -8 -4 48 12 53 0 89 -36
105 -15 7 -32 25 -39 41 -11 27 -13 28 -28 12 -26 -25 -22 -90 5 -109 22 -16
22 -16 1 -16 -11 0 -28 -10 -37 -22 l-15 -23 -21 24 c-11 13 -20 34 -20 47 0
32 -14 30 -29 -3 -11 -25 -14 -26 -22 -10 -6 9 -9 36 -7 60 3 39 5 42 36 45
46 5 70 42 54 86 -7 18 -12 41 -12 52 0 10 -12 43 -25 73 -19 41 -29 51 -37
43 -9 -9 -22 -1 -54 28 -26 24 -62 45 -88 52 -36 9 -46 17 -53 41 -11 40 -50
67 -104 74 -24 3 -55 14 -68 24 -26 21 -49 16 -31 -6 7 -8 9 -23 5 -35 -9 -28
9 -48 59 -62 27 -7 35 -13 23 -16 -13 -2 -16 -9 -12 -20 4 -10 10 -39 15 -66
9 -57 36 -86 82 -86 21 0 31 6 35 20 14 53 73 -4 73 -69 0 -29 -2 -30 -26 -21
-14 6 -35 10 -46 10 -17 0 -19 -4 -13 -22 4 -13 9 -73 11 -134 2 -72 8 -125
18 -149 20 -46 20 -45 0 -45 -28 0 -10 -70 26 -101 16 -14 30 -32 30 -39 0
-26 33 -50 67 -50 27 0 37 6 51 29 24 43 90 55 155 27 32 -13 97 -72 97 -88 0
-4 -17 -8 -37 -8 -47 0 -83 -9 -83 -21 0 -5 14 -9 31 -9 52 0 96 -27 113 -71
21 -52 20 -57 -9 -51 -30 5 -31 -1 -4 -37 22 -31 39 -121 22 -121 -6 0 -18 9
-28 20 -10 11 -36 25 -58 32 -21 6 -46 22 -54 35 -20 31 -33 20 -33 -28 0 -35
-3 -39 -25 -39 -14 0 -25 5 -25 10 0 21 -20 9 -26 -15 -6 -25 -7 -25 -25 -9
-27 24 -25 67 4 79 17 8 23 20 25 51 4 48 -24 89 -66 99 -20 4 -31 14 -38 37
-5 17 -16 34 -24 38 -8 4 -25 12 -36 18 -29 14 -34 7 -23 -30 5 -19 5 -38 -1
-49 -13 -23 -13 -62 0 -75 6 -6 12 -46 13 -90 2 -66 7 -87 30 -126 15 -26 27
-54 27 -63 0 -21 63 -85 83 -85 8 0 20 -7 27 -15 31 -37 120 -4 120 45 0 16 7
20 30 20 37 0 85 -23 94 -45 3 -9 6 -28 6 -41 0 -20 -5 -24 -28 -24 -42 0 -45
-9 -12 -40 17 -16 31 -40 32 -54 0 -14 1 -32 2 -38 1 -7 -7 -12 -17 -10 -15 3
-17 -2 -12 -30 4 -22 1 -40 -9 -53 -15 -20 -15 -20 -16 3 0 51 -44 102 -85
102 -10 0 -30 11 -46 24 -31 26 -105 44 -120 29 -6 -6 -2 -17 11 -28 14 -13
20 -31 20 -61 0 -72 20 -142 55 -194 22 -32 29 -50 20 -50 -21 0 -52 -46 -60
-87 -4 -21 -11 -41 -17 -44 -18 -11 1 -28 37 -35 40 -7 44 -17 14 -37 -18 -13
-24 -13 -49 -1 -48 24 -96 -6 -109 -67 -5 -25 -14 -34 -46 -45 -22 -7 -50 -14
-62 -14 -34 0 -28 -16 17 -46 36 -24 46 -26 122 -22 46 3 92 8 103 13 11 4
-14 -27 -55 -69 -211 -218 -513 -379 -825 -443 -128 -25 -462 -25 -590 0 -223
45 -469 153 -635 277 -86 65 -280 245 -280 261 0 4 19 0 43 -8 63 -22 173 -14
215 15 38 27 41 42 10 42 -13 0 -41 6 -62 14 -33 11 -42 20 -51 51 -5 21 -22
47 -37 58 -25 19 -31 19 -67 7 -33 -10 -43 -11 -56 0 -22 18 -19 27 13 33 37
9 61 27 45 34 -7 2 -13 15 -13 27 0 39 -20 84 -46 101 l-24 16 25 33 c32 43
50 96 59 175 3 36 13 75 21 87 22 34 19 37 -30 32 -27 -3 -59 -16 -79 -32 -19
-14 -46 -26 -60 -26 -33 0 -66 -43 -66 -88 0 -30 -2 -33 -16 -21 -12 9 -15 24
-11 51 4 33 3 38 -15 38 -32 0 -18 67 23 103 35 32 33 40 -11 40 -27 0 -30 3
-30 32 0 37 23 61 69 75 39 11 61 4 61 -20 0 -42 81 -76 112 -47 8 6 31 21 53
32 22 11 45 31 51 45 7 14 27 55 44 91 24 49 32 83 34 132 2 37 9 74 16 82 8
9 10 25 5 42 -4 16 -7 49 -6 76 0 26 -4 47 -9 47 -6 0 -10 -4 -10 -10 0 -5 -8
-10 -18 -10 -21 0 -46 -25 -56 -55 -4 -11 -26 -29 -49 -40 -31 -15 -44 -28
-51 -52 -12 -44 -1 -77 29 -91 21 -10 25 -17 20 -35 -4 -12 -15 -30 -25 -40
-17 -18 -17 -17 -24 15 -6 30 -8 31 -20 16 -7 -10 -23 -18 -35 -18 -18 0 -21
6 -21 45 0 48 -8 56 -27 26 -7 -11 -29 -25 -50 -31 -21 -7 -50 -24 -66 -38
l-27 -26 0 51 c0 35 6 58 20 76 26 33 26 50 0 42 -44 -14 -10 83 37 104 13 6
42 11 63 11 22 0 40 4 40 9 0 12 -56 31 -91 31 -37 0 -36 9 4 47 40 39 75 53
135 53 53 0 60 -4 85 -42 13 -20 26 -28 47 -28 30 0 70 30 70 52 0 6 14 23 30
37 37 32 54 101 25 101 -12 0 -15 5 -10 18 21 51 25 77 33 182 5 63 11 122 13
130 4 17 -29 20 -70 6 -23 -8 -23 -7 -17 30 8 44 31 84 48 84 6 0 21 -11 34
-25 20 -22 26 -23 54 -14 34 12 60 53 60 94 0 15 5 35 10 46 9 15 7 21 -5 26
-13 5 -14 7 -3 14 7 5 23 9 35 9 29 0 56 28 49 53 -3 11 -1 29 5 39 8 14 6 18
-9 18 -11 0 -25 -6 -31 -14 -7 -8 -34 -17 -61 -21 -59 -8 -96 -35 -105 -75 -4
-19 -13 -30 -24 -30 -29 0 -120 -50 -142 -78 -15 -19 -22 -23 -28 -14 -6 10
-10 10 -18 0 -23 -29 -43 -79 -43 -107 0 -16 -4 -33 -10 -36 -16 -10 -12 -72
6 -89 8 -9 29 -16 45 -16 29 0 29 -1 29 -54 0 -61 -11 -78 -28 -41 -14 31 -32
32 -32 2 0 -23 -25 -67 -39 -67 -4 0 -13 12 -20 26 -7 17 -17 24 -26 20 -8 -3
-15 -1 -15 3 0 5 6 11 14 14 23 9 30 64 12 92 -20 31 -32 32 -40 3 -3 -13 -21
-32 -39 -43 -31 -20 -32 -23 -31 -87 0 -52 -2 -65 -13 -61 -19 8 -51 -23 -85
-84 -17 -29 -36 -53 -44 -53 -10 0 -6 22 17 88 78 220 191 395 374 578 140
140 249 221 408 301 119 59 299 119 433 142 154 27 384 28 540 1z m-1018 -367
c-2 -10 -12 -19 -23 -21 -41 -7 -73 -24 -78 -43 -3 -11 0 -22 7 -25 16 -6 5
-90 -15 -109 -24 -23 -53 -22 -64 3 -17 39 -56 28 -137 -40 l-48 -40 0 40 c0
45 23 80 73 110 49 30 77 36 77 18 0 -33 28 -15 35 21 4 21 11 46 17 56 13 26
65 46 116 47 36 0 43 -3 40 -17z m1670 -38 c12 -14 22 -37 22 -50 0 -13 3 -30
6 -39 8 -20 34 -21 34 -1 0 21 8 19 67 -15 67 -38 100 -98 75 -137 -5 -8 -21
0 -50 27 -51 48 -73 60 -106 60 -19 0 -26 -5 -26 -20 0 -29 -45 -27 -64 3 -18
30 -30 97 -16 97 5 0 10 11 10 25 0 25 -25 45 -57 45 -27 0 -47 16 -40 32 9
26 117 5 145 -27z m-2015 -302 c9 -18 17 -41 17 -53 0 -11 9 -28 20 -37 37
-32 19 -120 -35 -173 l-35 -34 0 40 c0 21 7 48 15 58 17 22 20 113 5 136 -5 8
-24 15 -42 15 -29 0 -33 4 -36 29 -2 16 1 33 7 39 6 6 11 23 11 38 0 15 5 40
11 56 12 28 12 28 29 -27 9 -30 24 -69 33 -87z m2283 33 c-3 -11 2 -28 11 -38
10 -11 13 -26 9 -43 -5 -21 -12 -25 -45 -25 -32 0 -40 -4 -45 -22 -10 -40 -6
-92 9 -122 8 -15 15 -45 15 -64 l0 -37 -35 35 c-26 27 -38 50 -47 93 -12 55
-11 58 10 73 12 8 22 24 22 35 0 11 11 41 24 67 13 26 27 63 31 82 4 19 10 39
13 45 9 15 34 -56 28 -79z m-2148 -128 c-10 -145 -19 -179 -59 -213 -28 -23
-99 -36 -99 -19 0 4 18 26 39 49 60 65 80 164 41 198 -11 9 -20 21 -20 27 0
18 72 76 100 79 3 1 2 -54 -2 -121z m1962 92 c31 -17 70 -56 70 -71 0 -8 -10
-23 -21 -33 -19 -15 -20 -24 -15 -68 8 -62 24 -93 65 -132 40 -38 39 -46 -3
-46 -43 0 -90 38 -106 85 -10 31 -22 275 -13 275 3 0 13 -5 23 -10z m-2268
-135 c-6 -14 -16 -25 -22 -25 -21 0 -10 -41 14 -49 27 -11 36 -29 36 -76 0
-36 -15 -48 -42 -33 -14 7 -18 5 -18 -9 0 -11 -13 -24 -32 -32 -51 -23 -126
-105 -139 -154 -7 -23 -21 -51 -30 -62 -10 -12 -24 -35 -30 -53 -18 -52 -31
-38 -23 26 10 89 42 182 59 176 9 -4 19 7 30 32 25 60 64 106 86 101 31 -8 41
16 31 74 l-10 53 41 38 c45 41 69 38 49 -7z m2598 -15 c5 0 17 -11 25 -24 13
-19 14 -32 5 -69 -12 -54 -4 -81 21 -74 23 6 62 -36 89 -95 14 -32 25 -45 35
-42 18 7 44 -76 52 -170 5 -51 3 -67 -5 -62 -7 4 -12 13 -12 20 0 7 -10 28
-23 47 -12 19 -30 55 -40 80 -23 60 -75 120 -130 149 -35 19 -43 28 -39 44 5
19 4 19 -11 7 -25 -20 -47 -6 -47 28 0 45 17 82 34 75 8 -3 19 3 26 15 9 17 7
24 -10 38 -11 10 -20 30 -20 45 l0 28 20 -20 c11 -11 24 -20 30 -20z m-2300
-191 c0 -7 -16 -26 -35 -45 -19 -18 -35 -39 -35 -46 0 -45 -63 -51 -88 -9 -19
34 -37 41 -102 41 -61 0 -127 -35 -165 -87 -51 -71 -83 -71 -41 0 60 104 130
136 302 142 69 2 128 6 132 9 10 10 32 6 32 -5z m2126 -28 c117 -6 135 -10
176 -34 52 -30 112 -95 126 -137 15 -41 -15 -28 -53 23 -55 75 -128 107 -213
92 -27 -4 -42 -14 -54 -35 -25 -43 -88 -37 -88 8 0 7 -16 28 -35 46 -41 39
-46 62 -12 51 12 -4 81 -10 153 -14z m-2550 -192 c-32 -25 -56 -69 -56 -103 0
-15 -8 -30 -21 -36 -33 -18 -52 -77 -51 -160 0 -65 -3 -79 -24 -105 l-24 -30
-2 45 c-1 25 -1 56 0 70 1 14 1 51 1 82 0 56 22 128 38 128 5 0 14 15 21 34
18 48 80 96 126 96 16 0 15 -3 -8 -21z m374 -8 c0 -17 5 -33 10 -36 15 -9 12
-41 -4 -54 -20 -17 -30 -62 -16 -71 9 -6 9 -21 0 -64 -15 -71 -64 -140 -104
-144 -43 -5 -53 13 -18 34 41 24 72 83 79 149 7 64 -7 91 -39 74 -10 -6 -23
-21 -28 -35 -13 -32 -30 -22 -30 17 0 37 39 79 75 79 15 0 25 6 25 14 0 29 20
66 35 66 10 0 15 -10 15 -29z m2078 -3 c7 -7 12 -25 12 -40 0 -23 4 -28 24
-28 30 0 74 -38 77 -65 5 -61 -7 -71 -33 -25 -10 18 -25 30 -38 30 -18 0 -20
-6 -20 -66 0 -76 22 -126 72 -161 l31 -22 -28 -13 c-26 -12 -30 -10 -65 30
-45 51 -65 113 -55 179 5 39 3 52 -9 62 -18 15 -21 66 -5 77 6 3 8 17 5 30 -7
26 11 33 32 12z m410 -28 c25 -18 44 -41 48 -57 4 -16 16 -38 27 -51 22 -24
41 -138 24 -149 -4 -2 -3 -11 3 -18 8 -10 9 -36 5 -81 l-8 -66 -23 28 c-20 25
-23 36 -18 84 7 67 -9 136 -41 170 -13 14 -27 43 -31 65 -4 25 -19 52 -40 73
-30 30 -31 32 -10 32 13 0 42 -13 64 -30z m-2748 -192 c-1 -48 -14 -87 -32
-91 -14 -4 -22 0 -25 14 -8 28 -26 23 -21 -6 4 -17 1 -25 -9 -25 -30 0 -94
-42 -118 -77 -20 -30 -25 -50 -25 -99 0 -68 -23 -143 -33 -108 -24 81 -18 169
14 206 10 13 33 42 49 66 17 23 35 40 40 37 4 -3 19 8 32 24 13 17 43 39 68
50 54 24 60 25 60 9z m2683 -77 c13 -14 32 -31 43 -37 10 -6 29 -26 42 -45 12
-19 31 -44 41 -56 27 -32 35 -92 21 -159 -12 -56 -13 -57 -26 -33 -7 13 -13
52 -14 87 0 35 -6 76 -15 91 -19 37 -66 76 -108 90 -29 10 -33 15 -29 36 2 15
0 25 -7 25 -6 0 -11 -9 -11 -20 0 -13 -7 -20 -19 -20 -25 0 -30 8 -37 64 l-7
46 52 -21 c28 -12 62 -34 74 -48z m-2611 -71 c29 -11 67 -20 83 -20 l30 -1
-28 -24 c-15 -14 -37 -25 -48 -25 -10 0 -19 -4 -19 -9 0 -5 -9 -13 -20 -16
-30 -9 -70 20 -70 50 0 24 -3 25 -56 25 -48 0 -59 -4 -85 -29 -23 -23 -29 -39
-29 -70 0 -23 -2 -41 -4 -41 -2 0 -11 -3 -20 -6 -13 -5 -16 2 -16 37 0 53 27
102 72 129 44 27 140 27 210 0z m2626 -27 c45 -33 72 -81 72 -129 0 -24 -4
-44 -8 -44 -18 0 -32 26 -32 57 0 22 -9 43 -28 64 -24 27 -37 33 -85 37 l-56
4 -3 -33 c-2 -26 -9 -36 -31 -43 -20 -7 -33 -7 -45 2 -9 6 -30 18 -47 25 -16
8 -37 22 -45 32 -14 16 -13 17 5 12 11 -4 50 4 90 18 85 31 170 30 213 -2z
m-2849 -180 c-11 -21 -19 -54 -19 -73 0 -19 -3 -54 -6 -76 -4 -28 -1 -51 10
-71 16 -31 69 -63 104 -63 29 0 61 30 71 67 10 35 4 48 -15 32 -7 -6 -23 -9
-36 -7 -29 4 -36 49 -13 85 13 19 23 24 46 21 22 -3 33 1 43 17 13 20 72 53
80 44 2 -2 -2 -45 -9 -95 -15 -105 -43 -167 -88 -194 -36 -22 -106 -26 -155
-9 -36 12 -72 64 -72 102 0 13 -7 38 -15 53 -40 77 8 204 76 204 15 0 15 -3
-2 -37z m2881 2 c47 -24 60 -52 60 -126 0 -47 -4 -70 -15 -79 -8 -7 -15 -26
-15 -42 0 -73 -53 -113 -147 -112 -95 0 -149 70 -160 205 -3 41 -10 82 -15 92
-11 21 -7 21 36 3 18 -8 40 -23 48 -35 10 -13 24 -20 42 -18 40 3 74 -42 60
-80 -10 -28 -30 -34 -66 -18 -14 6 -18 2 -18 -18 0 -40 36 -77 76 -77 70 0
118 46 117 113 -1 59 -19 162 -31 185 -15 26 -11 27 28 7z m-2661 -380 c9 -8
15 -34 15 -62 1 -46 0 -48 -30 -51 -43 -4 -63 21 -39 48 14 16 15 20 4 20 -57
0 -46 -100 18 -171 41 -45 79 -54 69 -15 -7 28 15 56 44 56 25 0 60 -46 60
-79 0 -23 7 -29 52 -45 48 -17 51 -19 33 -32 -23 -17 -129 -19 -176 -2 -47 16
-74 38 -131 109 -67 84 -91 134 -84 174 7 35 40 71 71 77 27 6 76 -8 94 -27z
m2537 -10 c34 -23 49 -70 36 -113 -18 -59 -132 -195 -184 -221 -56 -27 -160
-32 -202 -10 l-28 16 28 11 c16 5 41 13 57 16 21 5 27 12 27 32 0 54 43 94 80
74 13 -7 20 -21 20 -40 0 -42 30 -40 74 5 34 33 56 86 56 132 0 23 -35 50 -44
34 -3 -5 1 -11 9 -15 42 -16 -4 -62 -51 -50 -25 6 -26 10 -21 53 9 76 85 117
143 76z"/>
<path d="M1935 3459 c-92 -94 -160 -143 -320 -234 -188 -108 -285 -208 -336
-350 -30 -82 -33 -264 -6 -345 10 -30 70 -158 133 -285 111 -222 151 -334 124
-343 -5 -2 -10 -23 -10 -46 0 -23 -5 -47 -12 -54 -17 -17 -48 -15 -48 3 0 8
-7 15 -15 15 -8 0 -15 -7 -15 -15 0 -8 -4 -15 -8 -15 -16 0 -32 25 -32 51 0
22 4 26 20 22 41 -11 75 44 60 98 -15 53 -92 159 -138 190 -24 16 -46 29 -51
29 -4 0 -6 13 -3 29 5 34 -11 66 -40 82 -19 10 -20 9 -14 -15 5 -19 1 -35 -14
-56 -28 -39 -26 -98 5 -144 20 -29 21 -36 9 -36 -12 0 -14 -5 -8 -17 4 -10 10
-49 14 -88 3 -38 12 -80 18 -92 9 -17 9 -22 -1 -26 -19 -7 21 -74 80 -134 l52
-53 -45 0 c-44 0 -44 0 -44 -35 0 -27 4 -35 18 -35 21 0 72 -45 72 -65 0 -7
14 -25 30 -38 17 -14 30 -33 30 -41 0 -9 9 -16 20 -16 15 0 20 -7 20 -25 0
-14 -5 -25 -12 -25 -6 0 -18 -7 -27 -15 -9 -9 -37 -29 -63 -45 -37 -22 -50
-38 -59 -69 -10 -34 -15 -39 -26 -29 -25 20 -43 66 -43 108 0 51 -13 51 -34
-1 -19 -46 -32 -43 -60 15 -24 52 -21 98 10 127 58 53 73 153 30 192 -48 43
-90 72 -103 69 -10 -2 -11 2 -2 22 15 32 4 73 -24 87 -12 7 -26 18 -30 25 -14
23 -27 15 -27 -15 0 -17 -11 -51 -25 -77 -32 -60 -31 -76 3 -116 27 -30 28
-35 16 -63 -7 -16 -18 -60 -25 -96 -11 -60 -10 -72 11 -135 31 -93 76 -159
173 -250 106 -100 201 -167 312 -219 173 -83 301 -108 338 -67 22 24 22 84 0
111 -13 15 -151 81 -170 81 -2 0 -3 -9 -3 -19 0 -30 -18 -35 -61 -15 -26 11
-38 22 -34 32 3 7 5 38 5 69 0 48 2 54 18 48 33 -13 120 -17 150 -7 23 8 42 6
88 -10 32 -11 70 -18 85 -16 22 4 29 0 33 -18 8 -30 54 -84 73 -84 22 0 73 55
73 79 0 17 6 21 33 21 17 1 55 9 82 18 45 15 55 15 94 3 39 -13 52 -13 102 0
l57 15 5 -50 c2 -28 8 -59 12 -68 5 -13 -3 -22 -34 -37 -52 -27 -67 -26 -75 4
-7 28 -21 32 -42 11 -7 -8 -32 -17 -54 -21 -56 -10 -100 -53 -100 -99 0 -107
127 -101 375 19 302 145 524 402 500 579 -8 59 -9 95 -4 116 3 11 -3 14 -23
12 l-28 -3 30 30 c36 36 39 74 9 133 -15 29 -19 50 -14 74 8 43 -11 45 -49 5
-26 -27 -28 -35 -24 -86 3 -31 1 -58 -4 -61 -4 -3 -8 2 -8 10 0 32 -24 27 -67
-15 -94 -93 -97 -143 -13 -228 34 -33 38 -66 15 -111 -19 -37 -26 -37 -47 0
-24 42 -38 37 -38 -11 0 -31 -6 -47 -29 -70 -32 -31 -51 -37 -51 -15 0 17 -70
82 -99 91 -12 3 -21 13 -21 21 0 8 -7 14 -15 14 -9 0 -15 9 -15 25 0 18 5 25
19 25 12 0 35 25 65 70 26 38 60 77 77 87 24 14 29 24 27 48 -3 27 -6 30 -44
33 l-42 3 48 48 c62 62 91 148 87 265 -2 61 1 80 14 89 40 30 52 118 24 167
-8 14 -14 37 -15 53 0 31 -11 34 -34 11 -10 -9 -16 -33 -16 -59 0 -38 -3 -44
-26 -49 -34 -9 -139 -119 -165 -174 -15 -31 -19 -52 -15 -77 7 -38 46 -71 71
-61 18 6 21 -25 5 -55 -14 -25 -26 -24 -33 3 l-6 22 -24 -22 c-13 -12 -31 -22
-40 -22 -23 0 -37 39 -26 69 6 15 6 28 -2 37 -19 23 -1 71 101 284 199 415
221 553 120 765 -61 127 -123 187 -276 269 -182 97 -227 129 -329 233 l-91 93
-69 -71z m255 -144 l23 -25 -218 0 -219 0 37 28 37 27 159 -3 c153 -3 159 -4
181 -27z m-290 -102 c0 -20 84 -103 104 -103 29 0 101 65 104 94 3 23 7 27 30
24 32 -4 40 -30 18 -63 -9 -13 -45 -45 -81 -71 -76 -54 -73 -54 -173 26 -45
36 -58 52 -60 78 -3 30 -1 32 27 32 22 0 31 -5 31 -17z m673 -131 c19 -20 25
-34 20 -51 -5 -20 -3 -22 14 -17 14 5 23 0 33 -19 12 -23 12 -30 -5 -61 -10
-18 -21 -34 -24 -34 -4 0 -14 13 -23 28 -9 15 -33 44 -52 62 -20 19 -36 39
-36 43 0 15 32 77 39 77 4 0 19 -12 34 -28z m-200 -12 c184 -69 269 -238 238
-473 -13 -102 -36 -166 -127 -358 -106 -226 -145 -371 -115 -427 14 -27 3 -53
-11 -28 -15 26 -12 135 6 201 18 69 57 171 114 300 22 50 54 135 73 190 29 91
33 112 33 225 1 124 1 125 -33 188 -39 72 -91 121 -171 160 -48 23 -70 27
-170 31 -77 3 -107 7 -90 12 44 15 191 2 253 -21z m-728 -7 c-236 -122 -285
-345 -151 -691 18 -48 49 -119 68 -157 70 -140 91 -211 92 -315 1 -100 -8
-148 -24 -120 -4 8 -3 39 2 69 20 98 -7 190 -142 486 -74 164 -96 229 -106
320 -17 168 76 344 218 410 72 34 108 32 43 -2z m323 -20 c31 -19 35 -19 75
-5 28 10 79 16 152 16 101 1 115 -1 172 -28 72 -33 144 -104 174 -170 57 -129
29 -294 -100 -595 -95 -222 -116 -293 -116 -391 0 -62 4 -93 16 -110 9 -14 19
-45 23 -69 7 -44 6 -45 -13 -27 -37 34 -63 112 -62 195 0 125 13 168 125 413
88 193 107 264 109 403 2 95 0 104 -31 167 -34 70 -85 122 -151 155 -50 25
-238 25 -295 0 -38 -17 -41 -17 -95 4 -39 15 -79 22 -131 23 -189 2 -307 -106
-328 -299 -18 -159 -1 -226 127 -507 79 -175 101 -246 101 -328 0 -75 -16
-125 -50 -163 -35 -39 -39 -21 -8 42 17 35 21 62 21 122 -1 100 -19 161 -103
344 -148 327 -173 499 -92 648 35 64 119 141 185 166 73 29 245 26 295 -6z
m-17 -67 c43 -17 61 -20 75 -13 33 19 127 37 189 37 109 0 212 -68 261 -174
20 -42 24 -67 24 -147 0 -130 -24 -216 -114 -412 -88 -191 -115 -275 -123
-377 -5 -67 -8 -77 -30 -87 -26 -13 -33 -6 -169 149 l-59 67 -107 -111 c-60
-61 -108 -115 -108 -119 0 -5 -11 -3 -25 3 -24 11 -25 16 -25 92 -1 113 -9
142 -104 354 -116 259 -130 308 -124 435 8 165 49 241 160 296 53 27 72 31
142 31 61 0 95 -6 137 -24z m848 -845 c1 -28 -7 -41 -44 -74 -43 -39 -61 -75
-31 -64 11 4 15 -6 18 -41 5 -70 -2 -108 -25 -133 -14 -15 -17 -24 -9 -27 21
-7 -29 -82 -78 -116 -37 -25 -55 -31 -100 -31 -44 0 -55 3 -58 18 -3 15 0 16
21 6 30 -13 93 2 131 32 36 28 66 90 66 135 0 23 -11 58 -29 89 -46 81 -45
120 5 175 29 32 42 39 68 37 l31 -2 -3 60 -2 60 19 -45 c11 -25 20 -60 20 -79z
m-1543 83 c-16 -42 -17 -61 -1 -74 13 -11 18 -11 24 -1 13 20 87 -34 100 -71
11 -32 5 -50 -49 -148 -37 -65 -15 -147 55 -208 33 -30 43 -33 86 -30 53 3 56
1 35 -27 -12 -17 -18 -18 -66 -7 -29 7 -65 21 -81 33 -39 28 -93 106 -76 112
9 3 7 14 -7 43 -10 21 -21 67 -24 102 -4 53 -2 62 12 62 23 0 20 24 -8 57 -49
60 -57 93 -31 143 16 31 42 42 31 14z m793 -281 c23 -27 41 -56 41 -67 0 -12
5 -16 14 -13 16 6 76 -55 76 -77 0 -8 -6 -18 -12 -24 -10 -7 -31 8 -83 59 -38
38 -75 69 -81 69 -7 0 -47 -33 -90 -74 -70 -67 -79 -73 -91 -58 -19 26 -16 35
23 73 22 21 43 33 56 31 16 -3 19 0 14 13 -4 11 8 33 37 66 23 27 45 49 49 49
3 0 25 -21 47 -47z m-439 -174 c15 -53 -12 -109 -51 -109 -15 0 -17 6 -12 34
6 40 -9 53 -39 32 -28 -20 -58 -4 -58 29 0 20 5 25 24 25 40 0 54 10 67 48
l12 36 24 -30 c13 -16 28 -45 33 -65z m893 3 c16 -2 35 2 43 9 12 10 14 6 14
-24 0 -54 -30 -68 -92 -42 -15 6 -18 2 -18 -29 0 -23 -5 -36 -13 -36 -17 0
-43 28 -51 57 -7 23 15 86 41 115 15 17 17 16 32 -15 11 -23 24 -33 44 -35z
m-1438 18 c15 -17 16 -24 7 -46 -16 -34 -15 -59 4 -75 12 -9 17 -10 23 -1 5 8
18 4 44 -13 40 -28 57 -53 57 -84 0 -28 -11 -26 -40 4 -29 31 -50 32 -50 3 0
-13 -11 -47 -25 -76 -47 -102 -26 -203 64 -304 28 -31 41 -55 41 -75 -1 -27
-2 -27 -56 30 -56 60 -117 155 -108 169 3 4 -2 18 -10 30 -30 42 -11 233 19
208 23 -19 27 7 9 46 -9 20 -25 41 -36 47 -10 7 -18 23 -18 37 0 25 40 119 51
120 3 0 14 -9 24 -20z m1928 -67 c24 -46 21 -61 -18 -104 -50 -56 -63 -128
-15 -84 11 10 22 16 23 14 7 -8 27 -111 27 -134 0 -14 -13 -39 -30 -58 -21
-25 -26 -37 -18 -45 14 -14 -40 -106 -89 -154 l-33 -32 0 28 c0 17 12 42 31
64 77 87 88 175 37 283 -18 38 -38 68 -45 69 -6 0 -22 -13 -36 -30 -21 -24
-26 -27 -31 -13 -11 28 14 82 52 113 36 29 37 30 46 10 12 -26 22 -25 41 4 12
18 14 37 9 75 -5 37 -3 55 7 67 12 15 14 14 20 -12 3 -16 13 -43 22 -61z
m-940 27 c42 -37 73 -91 60 -104 -4 -3 -55 -6 -115 -6 -120 0 -135 8 -104 55
22 33 88 94 102 95 6 0 32 -18 57 -40z m647 -140 c0 -7 -238 -10 -695 -10
-457 0 -695 3 -695 10 0 7 238 10 695 10 457 0 695 -3 695 -10z m-180 -51
c-217 -11 -1138 -11 -1145 1 -4 7 210 9 637 8 396 -1 591 -4 508 -9z m94 -41
c-4 -7 -16 -23 -27 -35 l-20 -23 -559 0 -559 0 -24 25 c-14 13 -25 29 -25 35
0 7 192 10 611 10 485 0 609 -3 603 -12z m-104 -133 l0 -25 -505 0 -505 0 0
25 0 25 505 0 505 0 0 -25z m-190 -85 c-360 -10 -918 -10 -895 0 11 5 272 8
580 7 450 -1 512 -2 315 -7z m485 -44 c4 -20 2 -43 -6 -57 -9 -17 -9 -24 0
-27 15 -5 14 -47 -3 -80 -16 -30 -113 -108 -123 -99 -6 6 6 26 49 81 l23 28
-22 15 c-36 24 -30 62 17 108 22 21 40 45 40 52 0 27 19 11 25 -21z m-161 -8
c9 -12 16 -42 16 -65 0 -38 -4 -44 -32 -59 -48 -24 -78 -54 -78 -79 0 -26 18
-45 42 -45 25 0 23 26 -2 33 -29 8 -15 34 31 58 l39 19 0 -32 c0 -51 -19 -107
-40 -118 -10 -5 -31 -10 -47 -10 -68 0 -99 65 -68 145 20 54 14 79 -24 95 -25
10 -36 8 -78 -10 -54 -24 -96 -27 -146 -11 -27 9 -41 8 -70 -4 -46 -19 -124
-19 -161 0 -25 13 -33 13 -73 0 -58 -20 -99 -19 -151 5 -40 18 -47 18 -98 5
-52 -13 -60 -13 -115 6 -103 36 -137 13 -105 -68 30 -78 30 -97 4 -127 -16
-19 -36 -29 -65 -33 -36 -5 -45 -2 -68 21 -25 25 -26 31 -20 79 4 29 9 54 10
55 6 7 64 -31 69 -44 4 -11 -22 -43 -31 -36 -1 1 -4 -1 -5 -5 -5 -15 39 -14
51 1 20 24 8 59 -29 83 -19 12 -41 27 -47 33 -16 13 -17 84 -3 111 10 18 28
19 645 19 l634 0 15 -22z m-1054 -93 c47 -16 62 -16 111 -6 47 9 62 9 92 -4
42 -17 123 -20 164 -4 21 8 40 6 82 -7 49 -15 62 -16 111 -4 62 15 87 15 147
5 33 -6 54 -3 92 14 91 39 120 23 90 -49 l-18 -45 0 48 c-1 26 -3 47 -5 47 -2
0 -20 -7 -39 -15 -43 -18 -105 -19 -157 -4 -30 9 -43 8 -68 -5 -37 -19 -125
-20 -167 -2 -25 10 -36 10 -62 -1 -44 -18 -127 -16 -165 3 -26 13 -40 14 -85
5 -50 -10 -118 -4 -165 14 -15 6 -18 1 -18 -31 -1 -39 -1 -39 -15 -14 -23 40
-17 87 9 77 6 -2 36 -12 66 -22z m200 -250 c22 -20 26 -65 8 -83 -29 -29 -152
-2 -297 65 -73 34 -75 36 -49 45 23 8 43 2 131 -41 58 -28 113 -51 125 -51 19
0 32 18 32 46 0 21 -17 17 -23 -6 -12 -45 -57 -6 -57 50 l0 38 55 -23 c30 -12
64 -30 75 -40z m540 21 c0 -53 -46 -89 -57 -46 -6 21 -24 23 -30 3 -11 -32 63
-57 86 -29 6 7 25 16 42 20 18 3 58 19 89 35 53 27 100 32 100 11 0 -12 -207
-96 -271 -110 -95 -21 -136 5 -109 70 12 29 69 60 110 60 10 0 22 5 25 10 11
18 15 11 15 -24z"/>
<path d="M1990 2872 c0 -40 -4 -53 -22 -66 -16 -12 -19 -18 -10 -22 18 -8 15
-22 -8 -29 -27 -9 -25 -19 6 -33 31 -15 24 -28 -19 -36 -19 -3 -42 -13 -53
-21 -17 -13 -15 -14 29 -15 62 0 60 -14 -4 -28 -28 -7 -64 -21 -79 -32 -33
-24 -70 -94 -70 -135 0 -48 39 -114 91 -153 66 -51 63 -62 -16 -62 -70 0 -73
-3 -51 -54 28 -68 100 -98 172 -73 35 11 44 12 60 0 22 -16 111 -17 143 0 32
16 59 55 67 94 l6 33 -58 -6 c-43 -4 -64 -2 -77 8 -18 13 -15 17 36 55 87 67
109 138 59 194 -34 38 -98 49 -153 26 -30 -12 -38 -12 -54 -1 -28 21 -82 17
-105 -6 -27 -27 -27 -89 1 -119 35 -37 109 -56 109 -27 0 8 -16 16 -40 20 -48
8 -76 49 -61 90 13 33 43 41 82 21 25 -13 37 -15 56 -6 46 21 89 14 117 -20
14 -17 26 -40 26 -51 0 -30 -38 -77 -88 -109 -108 -69 -229 -17 -263 112 -11
41 -10 50 7 80 11 19 39 47 63 64 35 25 54 30 115 33 40 2 90 -1 112 -7 l39
-10 -30 24 c-16 14 -42 27 -57 30 -14 4 -32 13 -38 20 -10 12 -4 16 32 21 l43
8 -42 18 c-49 21 -52 30 -22 52 l22 15 -27 7 c-29 7 -30 8 -16 34 7 13 7 21 0
25 -5 3 -10 21 -10 40 0 19 -4 37 -10 40 -6 4 -10 -13 -10 -43z m128 -658 c34
-4 64 -10 67 -13 2 -4 -6 -20 -18 -35 -29 -36 -82 -47 -136 -29 -31 10 -50 11
-80 3 -29 -7 -49 -7 -76 2 -71 24 -71 67 0 69 17 0 39 5 50 10 19 8 53 7 193
-7z"/>
</g>
</svg>
