<?xml version="1.0" standalone="no"?>
<!DOCTYPE svg PUBLIC "-//W3C//DTD SVG 20010904//EN"
 "http://www.w3.org/TR/2001/REC-SVG-20010904/DTD/svg10.dtd">
<svg version="1.0" xmlns="http://www.w3.org/2000/svg"
 width="2480.000000pt" height="2535.000000pt" viewBox="0 0 2480.000000 2535.000000"
 preserveAspectRatio="xMidYMid meet">
<metadata>
Created by potrace 1.16, written by Peter Selinger 2001-2019
</metadata>
<g transform="translate(0.000000,2535.000000) scale(0.100000,-0.100000)"
fill="#ffffff" stroke="none">
<path d="M7187 24283 c-185 -186 -345 -350 -357 -365 -27 -35 -201 -208 -209
-208 -3 0 -15 -14 -26 -30 -11 -16 -23 -30 -27 -30 -4 0 -32 -24 -63 -52 l-56
-53 6 -5060 c3 -2932 10 -5108 15 -5175 5 -63 12 -149 15 -190 3 -41 10 -97
15 -125 5 -27 12 -75 15 -105 57 -483 243 -1140 472 -1670 72 -165 235 -498
304 -620 47 -83 195 -327 240 -395 21 -33 42 -67 46 -75 4 -8 54 -80 112 -160
58 -80 118 -164 133 -187 16 -24 35 -46 41 -50 7 -5 27 -30 46 -58 19 -27 59
-79 90 -115 31 -36 72 -85 92 -110 153 -191 592 -630 814 -815 26 -22 82 -69
124 -105 85 -73 125 -104 226 -178 39 -29 77 -57 85 -64 8 -7 28 -22 45 -34
16 -11 57 -40 90 -63 118 -84 446 -296 485 -314 8 -4 29 -15 45 -26 246 -150
740 -393 1030 -506 39 -14 108 -42 155 -60 381 -150 1073 -340 1475 -405 191
-31 331 -52 400 -60 44 -6 114 -15 155 -20 227 -32 593 -51 990 -53 309 -2
704 8 720 18 3 2 66 8 140 14 204 17 462 53 730 102 431 79 1002 234 1335 364
33 12 96 37 140 53 105 40 217 87 335 139 36 16 81 36 100 44 138 57 578 288
797 419 32 19 62 37 66 39 5 1 51 32 104 67 53 35 97 64 99 64 11 0 359 244
467 328 375 288 609 499 977 879 267 276 521 584 724 878 19 28 53 76 75 109
23 32 41 60 41 63 0 3 13 22 29 42 15 20 36 50 45 66 22 40 37 64 63 101 12
17 30 46 41 65 11 19 53 90 93 159 106 183 317 603 375 745 6 17 33 82 58 145
26 63 50 124 55 135 19 44 101 276 134 380 89 282 140 477 191 735 95 484 131
840 137 1370 1 103 3 118 11 85 15 -63 3 -919 -16 -1105 -32 -320 -74 -602
-121 -822 -61 -279 -81 -364 -131 -543 -204 -727 -512 -1426 -922 -2090 -50
-81 -287 -435 -337 -503 -401 -546 -854 -1033 -1370 -1472 -434 -369 -953
-724 -1440 -985 -98 -52 -482 -245 -489 -245 -3 0 -34 -14 -69 -30 -36 -17
-67 -30 -70 -30 -3 0 -38 -15 -79 -34 -133 -61 -436 -177 -613 -234 -66 -22
-234 -75 -305 -96 -216 -67 -553 -148 -810 -196 -58 -11 -141 -27 -185 -35
-81 -15 -111 -19 -380 -54 -437 -58 -964 -80 -1444 -62 -374 15 -552 30 -926
82 -730 100 -1516 318 -2160 599 -77 34 -162 71 -190 83 -111 48 -416 203
-588 298 -541 302 -1041 659 -1502 1072 -156 140 -556 546 -686 697 -473 549
-823 1070 -1139 1695 -116 230 -320 688 -320 718 0 7 -4 17 -9 22 -18 20 -138
372 -215 630 -47 157 -98 353 -150 575 -75 326 -153 867 -171 1188 -4 59 -9
121 -13 137 -3 17 -8 2032 -9 4479 l-3 4448 -148 -138 c-81 -76 -190 -179
-242 -229 -52 -49 -160 -151 -240 -225 -80 -74 -185 -173 -235 -220 -49 -47
-119 -112 -155 -146 -36 -33 -103 -96 -149 -140 -46 -43 -96 -90 -111 -104
-15 -14 -58 -54 -96 -90 -207 -194 -342 -321 -364 -340 -13 -11 -94 -87 -180
-168 -85 -82 -225 -213 -309 -292 -85 -80 -174 -163 -196 -185 -23 -22 -91
-85 -151 -140 -60 -55 -154 -143 -209 -195 -55 -53 -236 -224 -403 -380 -167
-155 -301 -284 -299 -287 2 -2 522 -3 1155 -3 772 0 1159 -3 1177 -10 l28 -11
-6 -137 c-4 -75 -9 -1215 -13 -2532 -3 -1317 -9 -2521 -13 -2675 -8 -294 1
-766 18 -970 22 -255 78 -701 101 -795 4 -19 23 -111 41 -205 30 -161 42 -215
91 -415 93 -385 296 -976 443 -1295 17 -38 43 -95 56 -125 43 -100 226 -463
297 -590 106 -192 275 -468 337 -555 12 -16 25 -37 28 -45 4 -8 29 -46 57 -85
28 -38 58 -81 68 -95 18 -27 181 -245 257 -345 61 -80 119 -150 255 -309 110
-129 327 -360 471 -501 173 -170 222 -216 374 -351 231 -205 593 -485 860
-665 77 -52 142 -97 143 -101 2 -5 8 -8 13 -8 6 0 38 -19 72 -41 68 -46 80
-54 312 -191 773 -458 1669 -813 2605 -1034 205 -49 592 -126 725 -144 39 -6
133 -19 210 -30 195 -28 494 -57 835 -81 217 -15 911 -15 1115 0 329 25 619
53 740 71 262 39 490 77 600 100 28 5 75 15 105 21 56 11 172 37 290 65 234
56 754 209 880 259 19 8 103 39 185 69 414 151 909 381 1315 611 85 48 172 97
192 109 181 102 611 392 825 556 102 78 330 259 373 296 241 207 394 350 614
573 94 95 178 181 186 190 8 9 56 62 106 116 89 98 256 297 324 385 19 25 37
47 41 50 24 20 251 335 374 520 196 293 345 542 469 785 33 66 64 122 69 123
4 2 7 8 7 13 0 5 19 49 41 97 200 422 343 787 458 1172 69 229 113 394 131
485 6 33 22 105 34 160 27 114 52 247 61 320 4 28 10 59 15 70 8 20 12 53 50
382 30 253 42 479 45 863 2 195 6 408 10 473 16 298 -70 950 -175 1327 -9 36
-26 94 -35 130 -36 133 -180 567 -210 635 -7 17 -25 61 -40 100 -37 93 -79
193 -150 350 -13 28 -33 73 -45 100 -34 76 -141 289 -205 411 -106 201 -314
554 -326 554 -5 0 -9 6 -9 13 0 26 -397 607 -415 607 -3 0 17 -32 45 -72 54
-76 58 -88 35 -88 -13 0 -13 -4 -3 -22 7 -13 16 -25 19 -28 4 -3 17 -24 30
-48 27 -49 40 -70 54 -92 5 -8 10 -17 10 -20 1 -3 15 -34 32 -70 18 -36 62
-128 98 -205 37 -77 70 -147 75 -156 9 -17 4 -29 -11 -29 -4 0 -41 66 -82 148
-116 232 -247 462 -370 647 -83 126 -107 148 -32 30 66 -104 245 -439 305
-570 106 -232 139 -313 222 -540 45 -122 92 -269 122 -380 15 -55 34 -122 42
-150 15 -53 55 -237 79 -370 51 -269 93 -798 81 -1000 -31 -522 -70 -795 -173
-1210 -47 -192 -166 -573 -210 -675 -8 -19 -21 -50 -29 -68 -8 -18 -14 -37
-14 -42 0 -5 -14 -39 -31 -77 -16 -37 -34 -77 -39 -88 -70 -160 -259 -528
-310 -605 -6 -8 -13 -22 -17 -30 -12 -27 -197 -311 -253 -390 -29 -40 -140
-188 -184 -245 -299 -386 -699 -773 -1117 -1083 -95 -70 -394 -272 -403 -272
-2 0 -51 -28 -108 -61 -153 -91 -495 -258 -670 -327 -202 -79 -537 -192 -573
-192 -8 0 -23 -4 -33 -9 -15 -8 -71 -22 -267 -66 -513 -116 -1201 -142 -1765
-69 -114 15 -349 54 -410 68 -14 3 -41 9 -60 12 -181 33 -604 159 -840 250
-196 77 -549 242 -695 327 -185 106 -380 229 -476 299 -207 150 -390 295 -509
403 -93 83 -382 376 -450 455 -36 41 -77 88 -92 105 -22 24 -159 201 -246 315
-67 88 -302 458 -302 475 0 4 -8 19 -19 33 -63 89 -225 430 -316 662 -86 222
-172 490 -214 670 -11 47 -29 123 -40 170 -22 97 -63 337 -88 520 -16 114 -17
327 -20 2526 l-3 2402 32 5 c18 3 529 5 1136 4 606 -1 1102 1 1102 4 0 5 -418
414 -519 508 -20 18 -162 155 -316 305 -261 252 -392 380 -750 728 -77 74
-169 164 -205 198 -36 35 -128 124 -205 199 -190 184 -716 693 -785 759 -68
66 -264 256 -429 417 -67 66 -127 128 -132 138 -6 10 -14 15 -20 12 -5 -4 -9
-1442 -9 -3874 0 -2127 -2 -3870 -5 -3873 -22 -22 -7 -479 25 -758 35 -304 74
-515 144 -790 51 -200 60 -231 114 -395 272 -821 703 -1549 1289 -2178 794
-851 1847 -1440 3028 -1692 260 -55 501 -92 790 -122 132 -14 260 -18 575 -18
398 0 555 9 790 45 441 66 739 127 1031 210 41 12 97 27 124 35 103 28 486
165 640 229 207 86 537 250 738 365 1006 579 1839 1458 2340 2470 95 192 173
367 212 476 10 28 22 55 25 60 10 13 101 283 139 410 43 144 96 353 121 480
41 209 48 251 64 370 36 272 46 376 47 465 l1 95 10 -65 c7 -44 7 -103 -1
-180 -6 -63 -13 -151 -16 -195 -9 -141 -56 -464 -96 -675 -85 -439 -231 -918
-404 -1325 -88 -209 -267 -569 -325 -655 -9 -14 -20 -32 -24 -40 -4 -8 -17
-31 -29 -52 -12 -20 -35 -58 -51 -85 -53 -88 -228 -348 -252 -374 -13 -14 -24
-29 -24 -33 0 -8 -18 -31 -137 -181 -24 -30 -43 -55 -43 -57 0 -4 -23 -30
-177 -203 -281 -314 -617 -617 -953 -856 -30 -21 -75 -53 -99 -71 -24 -18 -49
-35 -55 -38 -6 -3 -31 -18 -56 -34 -112 -74 -182 -117 -270 -167 -52 -30 -104
-59 -115 -66 -11 -6 -47 -25 -80 -43 -33 -17 -67 -35 -75 -40 -47 -30 -281
-137 -450 -206 -270 -111 -286 -117 -455 -173 -631 -208 -1258 -325 -1995
-372 -155 -10 -844 -6 -950 5 -19 2 -96 9 -170 15 -130 12 -290 31 -415 51
-261 42 -339 56 -475 85 -144 32 -242 56 -427 106 -91 24 -494 157 -588 193
-97 38 -163 65 -211 87 -22 10 -63 27 -90 37 -134 53 -555 270 -729 375 -111
67 -370 236 -425 277 -19 15 -71 53 -115 86 -44 32 -105 79 -136 104 -30 25
-75 61 -99 80 -287 227 -708 658 -930 950 -30 40 -75 98 -100 131 -76 98 -166
228 -260 374 -35 55 -160 264 -188 315 -35 63 -222 437 -245 491 -9 19 -30 66
-47 105 -18 38 -37 85 -45 104 -7 19 -35 96 -63 171 -176 471 -280 901 -359
1484 -15 109 -17 544 -20 4843 l-3 4724 -87 81 c-47 45 -105 102 -127 126
-146 155 -868 871 -879 871 -8 0 -165 -152 -350 -337z"/>
<path d="M16266 19462 c-3 -5 -97 -12 -210 -15 -123 -3 -213 -10 -226 -17 -20
-11 -21 -17 -20 -193 1 -100 1 -189 1 -198 -1 -13 -19 -19 -78 -28 -189 -27
-219 -32 -233 -38 -8 -4 -46 -12 -85 -19 -81 -14 -136 -28 -219 -55 -32 -10
-62 -17 -66 -14 -5 3 -16 27 -26 53 -24 67 -54 131 -65 138 -5 3 -9 15 -9 27
0 12 -9 39 -20 60 -11 20 -20 43 -20 49 0 7 -7 21 -14 31 -13 17 -20 17 -75 6
-34 -6 -64 -16 -67 -20 -3 -5 -13 -9 -22 -9 -9 0 -29 -6 -43 -14 -14 -7 -43
-16 -65 -20 -21 -5 -44 -12 -49 -16 -11 -9 -77 -34 -135 -52 -19 -6 -44 -17
-55 -24 -11 -8 -26 -14 -34 -14 -13 0 -183 -77 -221 -101 -8 -5 -22 -12 -30
-15 -41 -15 -83 -40 -88 -52 -2 -7 9 -41 25 -75 17 -34 41 -89 53 -122 13 -33
29 -69 37 -80 7 -11 13 -27 13 -36 0 -9 7 -30 15 -45 21 -40 19 -49 -12 -65
-16 -7 -61 -35 -102 -61 -41 -26 -75 -48 -77 -48 -3 0 -27 -16 -54 -35 -27
-19 -54 -35 -58 -35 -5 0 -17 -9 -27 -20 -18 -20 -239 -180 -248 -180 -3 0
-74 68 -157 150 -142 141 -190 176 -190 135 0 -8 -4 -15 -8 -15 -4 0 -37 -26
-73 -57 -36 -32 -87 -76 -113 -98 -27 -22 -60 -53 -75 -68 -14 -15 -37 -38
-50 -50 -34 -31 -44 -41 -153 -159 -114 -122 -158 -176 -158 -193 0 -12 248
-265 261 -265 4 0 9 -7 13 -15 3 -8 11 -15 18 -15 7 0 18 -8 25 -19 10 -16 7
-23 -18 -47 -16 -15 -29 -32 -29 -36 0 -5 -5 -14 -10 -21 -37 -43 -110 -148
-110 -157 0 -5 -4 -10 -8 -10 -5 0 -22 -26 -38 -57 -16 -32 -43 -80 -61 -108
-18 -27 -33 -58 -33 -67 0 -12 -8 -18 -24 -18 -14 0 -27 4 -30 9 -3 5 -18 12
-33 16 -16 3 -97 35 -180 71 -84 35 -161 64 -172 64 -25 0 -53 -36 -90 -115
-17 -35 -35 -66 -41 -70 -5 -3 -10 -15 -10 -25 0 -11 -9 -35 -19 -53 -11 -19
-24 -43 -30 -53 -5 -11 -17 -37 -26 -59 -16 -39 -36 -85 -68 -155 -9 -19 -19
-48 -23 -64 -4 -16 -13 -41 -20 -55 -8 -14 -14 -36 -14 -47 0 -12 -7 -27 -15
-34 -8 -7 -15 -23 -15 -36 0 -12 -4 -26 -10 -29 -5 -3 -10 -17 -10 -29 0 -19
11 -28 49 -45 27 -11 59 -22 70 -24 12 -2 27 -9 33 -15 7 -7 18 -12 25 -12 7
0 21 -4 31 -10 30 -17 126 -57 167 -70 77 -24 77 -29 31 -205 -14 -55 -26
-110 -26 -123 0 -12 -4 -30 -10 -40 -8 -15 -30 -154 -47 -304 -3 -26 -10 -51
-16 -57 -7 -5 -118 -12 -247 -16 l-236 -8 -1 -36 c-1 -20 -7 -136 -14 -258
-12 -217 -4 -449 18 -583 l8 -45 248 -3 c186 -2 249 -5 251 -15 2 -6 9 -55 15
-107 7 -52 17 -110 23 -128 5 -18 14 -56 18 -85 18 -107 33 -172 41 -183 5 -6
12 -32 15 -57 7 -49 -5 -77 -33 -77 -8 0 -33 -8 -56 -19 -23 -10 -67 -28 -97
-39 -30 -11 -68 -27 -85 -36 -16 -9 -36 -16 -43 -16 -7 0 -20 -4 -30 -9 -9 -5
-32 -15 -49 -21 -30 -11 -33 -16 -33 -55 0 -26 6 -48 15 -55 8 -7 15 -22 15
-34 0 -11 6 -33 14 -47 7 -14 16 -41 20 -60 3 -19 12 -46 20 -61 8 -15 17 -40
21 -57 4 -17 17 -52 31 -77 13 -25 24 -50 24 -56 0 -13 104 -237 130 -278 5
-8 17 -34 27 -57 20 -48 30 -51 87 -24 23 10 66 27 96 37 30 10 62 24 71 31 8
7 23 13 32 13 9 0 51 16 93 36 90 42 123 42 144 -2 8 -17 26 -46 40 -65 27
-36 50 -74 75 -125 9 -18 29 -45 45 -60 16 -16 30 -35 30 -42 0 -13 53 -85
121 -165 l32 -38 -171 -170 c-136 -135 -169 -174 -164 -189 4 -10 39 -54 78
-97 39 -43 107 -118 151 -168 100 -113 391 -374 419 -374 13 -1 78 56 188 164
93 91 174 165 180 165 6 0 34 -20 63 -45 28 -25 54 -45 58 -45 4 0 28 -16 53
-36 48 -36 227 -155 253 -167 8 -4 34 -20 59 -36 49 -30 53 -48 26 -106 -37
-77 -71 -156 -93 -215 -14 -36 -28 -69 -32 -75 -5 -5 -13 -24 -19 -42 -13 -40
-6 -46 113 -102 50 -23 104 -49 120 -58 17 -9 39 -21 50 -26 11 -6 27 -14 35
-19 8 -4 22 -11 30 -14 36 -14 118 -47 145 -60 17 -7 44 -16 60 -20 17 -4 41
-12 55 -19 33 -17 106 -42 148 -50 18 -4 45 -13 59 -20 14 -7 32 -11 40 -8 13
5 63 100 63 121 0 6 6 23 14 39 38 73 98 208 110 247 6 16 13 18 58 12 29 -4
57 -11 63 -16 6 -5 31 -12 55 -16 25 -4 50 -10 55 -15 6 -4 35 -11 65 -14 30
-4 64 -11 75 -16 18 -8 90 -20 205 -34 19 -3 58 -8 85 -12 l50 -8 5 -235 5
-235 115 -6 c154 -8 711 -9 780 -1 l55 7 3 227 c3 261 -13 230 122 247 203 27
433 69 455 82 6 4 33 10 60 13 l50 7 18 -43 c9 -24 17 -48 17 -54 0 -7 7 -17
15 -24 8 -7 15 -21 15 -31 0 -11 16 -54 36 -96 42 -90 50 -110 59 -141 5 -16
12 -21 22 -18 8 3 32 9 54 12 22 4 42 11 45 15 3 5 12 9 20 9 8 0 34 9 56 20
23 11 51 20 63 20 11 0 29 6 40 14 11 7 34 16 50 20 17 4 59 21 95 37 36 17
74 34 85 39 37 15 170 76 219 101 116 58 136 70 136 82 0 6 -14 39 -30 71 -17
32 -30 63 -30 67 0 9 -43 108 -66 151 -8 14 -14 33 -14 41 0 8 -7 20 -15 27
-25 20 -17 34 33 58 26 12 65 34 87 47 22 14 56 34 75 45 51 29 71 42 110 70
19 14 62 42 95 64 33 21 88 60 122 87 35 27 68 49 75 49 7 0 49 -38 94 -85 45
-47 87 -85 93 -85 6 0 11 -4 11 -10 0 -11 36 -50 46 -50 3 0 19 -13 34 -30 15
-16 34 -30 42 -30 7 0 56 41 108 91 152 143 180 169 190 169 6 0 10 5 10 10 0
13 37 50 50 50 6 0 10 6 10 13 0 7 8 20 18 28 9 9 53 55 97 104 44 48 89 97
101 109 11 12 31 36 43 54 l24 34 -142 142 c-77 78 -141 147 -141 154 0 8 30
53 68 102 37 49 75 101 84 117 10 15 33 48 53 73 19 25 40 54 45 65 6 11 23
40 39 65 16 25 30 51 30 58 1 6 6 12 12 12 6 0 17 6 25 14 12 13 18 13 42 1
15 -7 52 -25 82 -38 30 -13 75 -33 100 -44 25 -11 60 -24 77 -27 18 -4 35 -12
38 -17 14 -22 50 -9 64 24 8 17 22 44 33 59 10 14 18 35 18 46 0 12 4 24 10
27 9 5 48 83 71 140 4 11 24 54 43 96 20 41 36 82 36 90 0 8 6 23 14 34 7 11
16 34 20 50 6 27 21 63 48 118 5 9 11 39 15 65 3 26 13 55 21 65 22 25 12 32
-115 83 -59 24 -117 48 -128 53 -11 5 -42 19 -68 30 -37 16 -47 25 -43 38 3
10 8 32 12 48 4 17 10 35 14 40 5 6 11 36 15 68 4 31 11 60 16 63 5 3 9 15 9
27 0 13 7 50 16 82 15 59 37 204 36 237 0 10 3 20 9 23 5 4 9 33 9 66 0 32 1
60 3 61 1 1 94 4 207 7 l205 6 8 140 c8 156 0 644 -12 660 -4 5 -7 33 -6 60 1
28 -2 56 -8 63 -7 9 -59 12 -197 12 -205 0 -200 -2 -200 60 0 16 -4 32 -10 35
-5 3 -10 25 -10 49 0 46 -15 141 -30 196 -6 19 -12 52 -13 72 -2 20 -8 43 -14
50 -6 7 -13 38 -17 68 -4 30 -11 59 -15 65 -5 5 -11 24 -14 42 -5 27 -3 33 16
38 29 9 85 32 120 50 16 8 34 15 41 15 7 0 34 11 59 24 25 14 48 22 51 19 3
-4 6 -1 6 5 0 7 14 12 31 12 31 0 32 0 25 42 -4 23 -11 47 -15 53 -5 5 -12 26
-16 45 -8 36 -11 43 -38 98 -9 19 -17 39 -17 45 0 7 -6 24 -14 39 -8 14 -19
43 -26 65 -7 21 -25 63 -40 93 -15 30 -48 100 -74 155 -26 55 -52 107 -57 115
-5 8 -18 34 -30 57 -30 60 -43 69 -74 49 -13 -9 -29 -16 -34 -16 -5 0 -39 -13
-74 -30 -36 -16 -70 -30 -76 -30 -9 0 -49 -16 -109 -44 -20 -9 -26 -7 -43 14
-10 14 -26 39 -35 55 -25 48 -37 68 -64 105 -14 19 -30 43 -35 52 -35 59 -179
253 -223 300 l-35 37 63 58 c124 114 220 211 220 222 0 16 -77 99 -276 296
-155 154 -241 235 -249 235 -3 0 -47 37 -107 91 -17 15 -38 25 -47 22 -10 -2
-71 -58 -137 -124 -140 -140 -145 -142 -228 -74 -31 25 -60 45 -65 45 -5 0
-11 5 -13 11 -2 6 -20 21 -40 33 -20 11 -54 33 -75 47 -21 14 -75 48 -120 74
-46 26 -83 52 -83 56 0 5 -8 9 -19 9 -10 0 -24 6 -30 14 -7 8 -23 17 -36 20
-29 7 -31 18 -10 36 8 7 15 18 15 25 0 8 11 36 25 63 14 28 25 55 25 61 0 6 4
19 9 29 37 68 51 107 51 137 0 30 -4 36 -47 55 -27 13 -55 26 -63 31 -8 5 -22
12 -30 15 -8 4 -46 21 -85 39 -38 18 -86 38 -105 45 -19 7 -40 17 -46 22 -6 4
-51 22 -100 39 -49 17 -93 34 -99 39 -5 4 -27 10 -47 14 -20 4 -50 13 -65 21
-15 8 -37 15 -48 15 -12 0 -26 5 -32 11 -6 6 -32 11 -59 12 -45 2 -49 0 -52
-23 -2 -13 -13 -35 -23 -49 -10 -13 -19 -28 -19 -34 0 -5 -13 -39 -30 -74 -16
-34 -30 -72 -30 -83 0 -11 -5 -20 -10 -20 -6 0 -15 -11 -20 -25 -11 -29 -35
-42 -53 -27 -6 5 -34 13 -62 17 -27 4 -55 11 -61 16 -6 5 -40 12 -75 15 -35 4
-68 10 -74 14 -5 4 -37 10 -70 14 -33 3 -91 13 -130 21 -38 8 -105 17 -147 20
l-78 7 0 202 0 203 -46 7 c-26 3 -102 6 -170 6 -71 0 -125 4 -129 10 -7 12
-152 14 -159 2z m77 -835 c122 -123 328 -417 480 -687 43 -76 215 -417 239
-475 245 -581 299 -991 160 -1208 -48 -76 -96 -134 -130 -158 -64 -44 -66 -79
-5 -104 58 -24 106 -33 279 -50 147 -15 165 -19 244 -55 98 -45 106 -43 113
35 3 28 17 138 31 246 32 244 39 520 13 546 -24 24 -51 9 -43 -25 20 -90 19
-127 -9 -185 -14 -31 -30 -57 -35 -57 -14 0 -58 66 -70 107 -13 41 -7 113 9
113 23 0 20 35 -4 58 -26 23 -26 27 -20 101 4 42 16 95 26 118 30 66 25 112
-16 157 -53 58 -75 130 -85 281 -12 167 -12 185 -1 185 20 0 49 -104 66 -244
3 -27 10 -57 16 -68 11 -21 39 -24 57 -6 17 17 15 169 -3 243 -22 92 -19 445
4 445 10 0 42 -149 55 -254 6 -50 9 -125 6 -166 -5 -76 3 -201 15 -240 5 -16
13 -20 33 -18 l27 3 6 125 c7 136 17 200 30 200 5 0 9 -15 9 -32 0 -18 7 -73
16 -123 22 -126 15 -236 -20 -295 -38 -65 -46 -88 -46 -122 0 -29 42 -122 79
-178 38 -56 115 -227 133 -294 29 -108 41 -288 35 -526 -4 -176 -9 -230 -26
-294 -45 -169 -57 -175 -286 -152 -93 9 -216 24 -273 32 -57 8 -107 12 -112 9
-12 -8 -7 -21 116 -275 54 -113 105 -212 114 -220 28 -29 97 -69 222 -128 243
-117 347 -152 447 -152 77 0 85 5 95 64 7 38 63 137 85 151 16 9 42 75 35 87
-3 5 4 12 16 15 l23 6 -7 241 c-12 389 -20 483 -47 540 -27 55 -60 84 -103 88
-26 3 -30 -1 -38 -29 -12 -44 -40 -58 -88 -44 -65 19 -75 46 -75 201 0 152 11
185 83 256 74 74 87 109 53 143 -17 17 -26 18 -52 11 -40 -12 -46 -5 -55 68
-12 101 13 269 43 279 5 2 10 -19 11 -48 1 -60 40 -126 127 -219 67 -71 85
-107 85 -172 0 -95 -33 -134 -116 -137 -33 -1 -44 -15 -44 -56 0 -37 10 -55
32 -55 50 0 158 -82 189 -143 65 -126 78 -225 87 -672 7 -297 7 -300 28 -298
42 4 93 -85 108 -189 14 -91 68 -48 86 68 11 70 16 82 26 71 10 -9 -17 -178
-33 -214 -17 -36 -115 -107 -174 -124 l-36 -11 -6 -307 c-4 -168 -7 -373 -7
-456 0 -139 -2 -154 -25 -203 -14 -30 -50 -81 -80 -115 -30 -33 -55 -65 -55
-71 0 -7 -8 -22 -17 -35 -16 -23 -17 -23 -24 -5 -17 43 -10 80 22 110 43 41
86 107 98 151 6 20 8 75 6 123 -3 47 -7 226 -9 399 -3 173 -8 317 -13 322 -4
4 -26 4 -48 -1 -62 -15 -291 -12 -427 6 -133 16 -251 44 -338 77 -107 42 -221
112 -290 180 -50 48 -130 147 -130 160 0 3 -22 41 -48 84 -26 43 -68 116 -91
163 -56 109 -68 123 -101 115 -44 -11 -115 -92 -161 -184 -39 -76 -44 -94 -43
-151 0 -92 32 -150 147 -271 109 -116 182 -155 207 -110 15 29 12 108 -5 139
-30 55 -30 55 -67 18 -41 -41 -68 -45 -115 -16 -26 15 -36 32 -52 88 -12 38
-21 89 -21 113 1 80 40 206 70 224 6 4 10 -13 10 -45 0 -53 22 -120 39 -120 5
0 13 -9 16 -20 7 -24 33 -26 49 -5 9 13 23 4 84 -52 41 -38 86 -90 101 -118
18 -33 34 -50 47 -50 15 0 22 -12 31 -55 17 -78 16 -137 -4 -193 -20 -56 -19
-57 62 -82 28 -9 58 -20 67 -26 26 -14 36 -11 72 16 18 14 47 28 64 31 17 4
37 13 43 20 6 8 15 14 20 14 12 0 11 -47 -1 -55 -17 -11 -11 -63 10 -83 39
-37 302 -108 434 -118 96 -8 117 0 145 54 26 50 51 71 105 87 55 17 61 4 21
-43 -30 -36 -30 -37 -4 -115 17 -50 20 -75 15 -134 -4 -46 -3 -74 4 -78 17
-10 40 -75 40 -111 0 -44 -19 -129 -36 -162 -8 -15 -14 -30 -14 -34 0 -27 -92
-133 -275 -313 -229 -227 -244 -248 -203 -292 l23 -24 -25 -19 c-29 -22 -81
-35 -111 -27 -46 12 -129 -101 -129 -176 0 -60 61 -75 146 -36 46 22 168 146
219 224 36 54 109 129 170 173 28 20 70 54 95 75 53 46 149 94 206 103 22 3
67 1 98 -6 49 -10 66 -20 104 -60 26 -26 65 -72 87 -101 37 -49 45 -54 83 -57
34 -3 49 2 73 22 17 14 42 26 56 26 15 0 35 7 45 17 17 15 18 15 18 -9 0 -27
-34 -64 -65 -70 -14 -2 -22 -15 -28 -45 -5 -29 -18 -51 -40 -69 -27 -23 -38
-26 -89 -22 -49 4 -68 11 -129 53 -57 39 -81 49 -123 53 -89 7 -163 -46 -182
-131 -9 -41 8 -54 47 -35 17 9 40 13 50 11 22 -6 69 -51 69 -67 0 -6 11 -24
25 -39 29 -31 77 -36 109 -12 12 9 42 15 78 15 47 0 58 -3 58 -16 0 -21 -29
-43 -56 -44 -12 0 -32 -17 -52 -45 -18 -25 -43 -50 -58 -55 -33 -13 -121 -13
-129 0 -3 5 -21 14 -40 19 -57 15 -98 -2 -152 -66 -50 -58 -173 -180 -233
-230 -222 -187 -572 -289 -819 -239 -136 28 -257 73 -372 138 -36 21 -68 38
-71 38 -3 0 -18 -26 -33 -57 -41 -83 -121 -180 -267 -324 -88 -87 -128 -132
-128 -148 0 -12 12 -48 26 -79 60 -129 77 -171 106 -257 17 -49 33 -115 35
-146 5 -48 2 -60 -16 -78 -25 -25 -33 -25 -176 -6 -142 19 -226 19 -295 -1
-240 -68 -290 -54 -290 84 0 51 -4 65 -30 97 -36 45 -37 63 -9 100 l22 27 13
-31 c7 -17 19 -31 27 -31 7 0 38 -22 69 -50 75 -67 109 -68 192 -5 32 24 72
49 88 56 33 13 33 16 10 94 -29 102 -26 99 -123 85 -126 -19 -352 -9 -459 19
-152 41 -308 137 -408 252 -24 27 -49 49 -55 49 -7 0 -28 -17 -47 -37 -39 -40
-101 -72 -140 -73 -14 0 -52 8 -85 18 -51 16 -71 17 -127 9 -53 -8 -71 -7 -83
3 -15 12 -14 15 10 24 14 6 36 29 48 51 33 59 64 70 134 50 66 -19 73 -15 92
55 17 60 43 94 86 114 50 24 45 70 -12 124 -19 17 -36 22 -79 22 -100 0 -153
-38 -239 -171 -24 -37 -59 -79 -78 -93 -55 -42 -83 -42 -159 -2 -74 40 -110
44 -162 20 -40 -20 -73 -14 -109 20 -37 34 -34 46 13 46 31 0 43 5 57 26 47
69 52 71 139 66 70 -4 82 -2 107 18 15 12 27 31 27 43 0 52 49 208 79 256 59
92 200 138 336 112 73 -15 203 -76 256 -121 10 -8 35 -27 56 -43 21 -15 59
-43 85 -62 89 -65 169 -91 245 -80 59 9 61 27 11 99 -97 141 -109 161 -124
212 -9 32 -13 67 -9 84 6 29 4 31 -44 51 -63 27 -91 76 -91 163 0 57 -1 58
-24 52 -30 -7 -73 8 -103 36 -33 31 -30 49 7 42 20 -5 40 0 65 15 39 23 70 27
80 11 3 -5 29 -10 58 -10 66 0 108 28 180 123 67 89 123 191 175 322 56 138
59 152 33 160 -65 20 -104 90 -81 146 l12 29 30 -25 c23 -19 41 -25 78 -25 44
0 52 4 79 37 17 21 31 47 31 59 0 18 -8 22 -51 28 -72 10 -120 37 -170 96 -34
40 -48 50 -64 45 -11 -3 -27 -9 -37 -12 -10 -3 -18 3 -23 17 -5 15 -13 20 -28
18 -22 -3 -22 -4 -18 -230 3 -226 0 -248 -29 -213 -17 21 -28 19 -54 -12 l-23
-26 -6 123 c-4 68 -7 152 -7 187 0 36 -4 63 -10 63 -6 0 -29 -12 -52 -27 -33
-22 -53 -28 -97 -28 -70 0 -107 24 -157 102 -97 152 -148 393 -142 679 l3 170
36 70 c61 119 122 228 141 253 10 13 18 33 18 45 0 20 -5 21 -93 22 -73 0
-102 5 -142 22 -64 29 -82 47 -107 101 -18 41 -20 58 -15 176 3 71 13 200 22
285 9 85 19 208 22 273 l5 118 -48 45 c-39 35 -55 44 -79 42 -29 -3 -30 -6
-37 -63 -10 -77 -32 -127 -67 -148 -28 -17 -172 -57 -203 -57 -36 0 -8 17 64
40 85 27 108 44 108 78 0 27 -35 72 -56 72 -6 0 -36 -11 -66 -25 -29 -14 -69
-25 -89 -25 -34 0 -35 1 -31 30 4 28 2 30 -26 30 -53 0 -129 20 -146 39 -15
16 -15 19 -1 31 22 18 18 43 -11 71 -62 58 -78 109 -33 109 23 0 24 18 4 82
-13 43 -12 53 3 93 14 40 20 45 47 45 26 0 34 6 48 34 18 39 69 81 110 91 24
6 27 4 27 -18 0 -24 2 -24 88 -29 93 -6 117 -14 212 -78 49 -32 146 -88 221
-127 55 -28 158 -133 184 -188 37 -80 55 -219 61 -475 2 -124 7 -240 10 -258
13 -82 112 -79 232 7 l32 22 0 370 0 369 -34 0 c-19 0 -37 3 -39 8 -5 9 73
212 82 212 7 0 73 -172 75 -197 0 -10 -9 -19 -24 -23 -19 -5 -25 -12 -23 -30
1 -14 5 -173 9 -353 5 -261 9 -330 20 -334 7 -3 37 3 66 13 29 9 96 27 148 38
l95 21 3 42 c4 59 -10 106 -38 120 -65 32 -149 162 -171 265 -24 112 13 350
80 517 82 203 103 251 183 420 32 68 58 125 58 127 0 1 21 47 46 101 193 411
262 618 279 838 5 73 -5 199 -21 268 -4 16 -2 27 4 27 6 0 49 -38 95 -83z"/>
<path d="M16380 18343 c0 -32 -24 -153 -47 -233 -48 -173 -141 -406 -316 -792
-103 -226 -138 -312 -193 -474 -42 -122 -48 -151 -52 -242 -4 -103 -4 -104 33
-179 25 -51 58 -97 101 -139 72 -73 84 -91 84 -133 0 -44 20 -39 74 19 41 44
46 54 46 96 0 44 -1 46 -25 40 -24 -6 -25 -5 -26 46 0 61 -9 111 -38 223 -11
44 -21 92 -21 106 0 15 -7 32 -16 39 -38 33 -58 108 -42 163 12 41 38 50 38
14 0 -27 28 -57 53 -57 10 0 19 11 23 28 3 15 7 32 9 39 2 7 47 44 100 83 74
55 95 75 95 94 0 13 16 43 35 66 41 49 44 75 11 104 -13 11 -26 32 -29 45 -9
35 17 89 52 109 44 25 53 89 21 150 -16 29 -21 48 -14 57 39 53 45 70 55 149
12 95 7 125 -15 107 -20 -16 -26 -3 -26 53 1 51 1 51 16 24 8 -16 23 -28 33
-28 17 0 20 11 26 73 4 41 2 97 -4 131 -6 33 -11 73 -10 90 1 26 3 22 14 -20
6 -27 20 -62 29 -76 11 -17 21 -63 27 -130 26 -288 26 -284 53 -311 37 -37 43
-73 17 -107 -39 -54 -23 -119 38 -150 22 -11 45 -29 51 -39 18 -34 12 -96 -12
-127 -28 -35 -30 -49 -12 -92 8 -19 14 -45 14 -59 0 -16 10 -29 31 -41 168
-92 206 -132 216 -226 5 -50 8 -57 25 -53 47 13 29 -66 -57 -253 -30 -64 -57
-128 -61 -144 -4 -15 -16 -31 -30 -36 -52 -20 -59 -96 -15 -157 30 -41 80 -69
106 -59 31 11 56 68 51 114 -4 25 -2 42 5 42 24 0 71 -33 79 -55 13 -35 32
-31 74 15 54 60 66 100 79 254 12 157 3 249 -38 396 -31 112 -94 292 -106 305
-5 5 -9 15 -9 22 0 20 -111 274 -198 453 -144 295 -362 679 -389 688 -8 2 -13
-7 -13 -25z"/>
<path d="M14413 16821 c-40 -25 -53 -49 -53 -101 0 -34 6 -48 34 -76 29 -29
41 -34 80 -34 89 0 113 28 103 117 -10 87 -96 137 -164 94z"/>
<path d="M15697 15437 c-8 -12 -30 -38 -49 -57 -19 -19 -54 -57 -77 -84 l-43
-49 6 -131 c3 -72 7 -248 8 -392 l3 -260 23 4 c18 4 35 -6 68 -39 l44 -43 0
36 c0 20 7 49 14 65 8 15 17 36 20 46 9 30 61 22 86 -13 23 -32 40 -32 40 0 0
10 -21 34 -50 55 -55 40 -65 64 -57 128 4 29 13 47 31 60 14 10 26 25 26 33 0
8 5 14 11 14 8 0 10 -17 5 -54 l-6 -53 40 -18 c53 -24 95 -65 111 -109 16 -44
32 -42 40 5 3 19 14 48 23 64 18 34 21 101 6 140 -6 15 -42 75 -81 132 -115
173 -144 239 -164 378 -8 55 -21 105 -35 128 -12 20 -23 37 -25 37 -1 0 -9
-10 -18 -23z"/>
<path d="M15390 15141 l-65 -59 3 -124 c4 -128 -9 -260 -35 -363 -20 -79 -11
-136 29 -180 16 -19 34 -35 39 -35 5 0 29 18 53 40 24 22 48 40 55 40 8 0 11
39 11 128 0 207 -13 612 -19 612 -3 -1 -35 -27 -71 -59z"/>
<path d="M15947 14441 c-21 -36 -48 -46 -78 -30 -20 10 -25 8 -42 -12 -31 -39
-3 -120 49 -139 46 -18 122 -12 144 10 26 26 25 39 -4 79 -13 17 -27 52 -31
77 -3 24 -9 44 -13 44 -4 0 -16 -13 -25 -29z"/>
<path d="M17395 13710 c-55 -15 -118 -34 -140 -43 -38 -15 -162 -42 -307 -67
-38 -7 -68 -16 -68 -22 0 -28 83 -305 104 -345 24 -48 91 -118 154 -161 40
-28 152 -82 170 -82 14 0 69 115 132 270 45 112 118 235 247 412 19 26 32 52
28 58 -4 6 -50 10 -113 9 -83 -1 -129 -7 -207 -29z"/>
<path d="M16253 13182 c-11 -16 -62 -75 -113 -133 -101 -114 -125 -155 -116
-204 8 -41 122 -215 141 -215 25 0 115 198 130 287 23 126 15 293 -14 293 -4
0 -17 -13 -28 -28z"/>
<path d="M6190 4140 l0 -240 115 0 115 0 0 240 0 240 -115 0 -115 0 0 -240z"/>
<path d="M9931 4299 c-125 -24 -258 -124 -311 -233 -28 -56 -60 -180 -49 -190
2 -3 36 4 74 15 301 83 653 54 858 -72 l47 -29 0 38 c0 56 -27 148 -63 216
-39 74 -134 171 -203 208 -98 53 -233 71 -353 47z m265 -138 c68 -31 134 -99
134 -139 0 -5 -35 -1 -77 10 -93 23 -301 34 -395 21 -38 -5 -68 -7 -68 -3 0
14 46 74 72 93 68 51 239 60 334 18z"/>
<path d="M6290 3768 c-1 -31 -33 -99 -57 -121 -18 -16 -23 -16 -54 -3 -95 39
-383 46 -509 12 -85 -24 -171 -71 -223 -122 -26 -26 -47 -50 -47 -53 0 -4 32
-25 72 -49 l71 -43 41 40 c82 80 206 119 344 108 42 -4 95 -12 117 -18 38 -11
38 -12 20 -26 -35 -27 -177 -89 -280 -123 -176 -58 -232 -98 -279 -199 -19
-41 -21 -64 -21 -206 0 -128 4 -171 18 -214 26 -76 64 -128 116 -159 40 -24
57 -27 131 -27 71 0 92 4 126 24 50 28 80 78 89 146 18 131 -55 217 -195 232
l-60 6 0 69 c0 121 41 177 122 164 89 -14 179 -103 256 -253 67 -132 92 -216
92 -314 l0 -79 120 0 120 0 0 383 c0 414 -5 471 -49 553 l-28 52 49 42 c54 46
92 101 113 161 l14 39 -114 0 c-113 0 -115 0 -115 -22z m-116 -380 c3 -13 6
-83 6 -156 l0 -134 -44 59 c-38 49 -93 100 -156 144 -10 7 -11 12 -3 15 6 3
49 25 95 49 45 24 86 44 89 44 4 1 9 -9 13 -21z m-352 -568 c23 -29 23 -82 -1
-111 -16 -20 -28 -24 -76 -24 -48 0 -60 4 -76 24 -34 41 -21 112 24 131 37 16
109 5 129 -20z"/>
<path d="M9310 3768 c-1 -31 -33 -99 -57 -121 -18 -16 -23 -16 -54 -3 -95 39
-383 46 -509 12 -85 -24 -171 -71 -223 -122 -26 -26 -47 -50 -47 -53 0 -4 32
-25 72 -49 l71 -43 41 40 c82 80 206 119 344 108 42 -4 95 -12 117 -18 38 -11
38 -12 20 -26 -35 -27 -177 -89 -280 -123 -176 -58 -232 -98 -279 -199 -19
-41 -21 -64 -21 -206 0 -128 4 -171 18 -214 26 -76 64 -128 116 -159 40 -24
57 -27 131 -27 71 0 92 4 126 24 50 28 80 78 89 146 18 131 -55 217 -195 232
l-60 6 0 69 c0 121 41 177 122 164 89 -14 179 -103 256 -253 67 -132 92 -216
92 -314 l0 -79 120 0 120 0 0 383 c0 414 -5 471 -49 553 l-28 52 49 42 c54 46
92 101 113 161 l14 39 -114 0 c-113 0 -115 0 -115 -22z m-116 -380 c3 -13 6
-83 6 -156 l0 -134 -44 59 c-38 49 -93 100 -156 144 -10 7 -11 12 -3 15 6 3
49 25 95 49 45 24 86 44 89 44 4 1 9 -9 13 -21z m-352 -568 c23 -29 23 -82 -1
-111 -16 -20 -28 -24 -76 -24 -48 0 -60 4 -76 24 -34 41 -21 112 24 131 37 16
109 5 129 -20z"/>
<path d="M15860 3768 c-1 -31 -33 -99 -57 -121 -18 -16 -23 -16 -54 -3 -95 39
-383 46 -509 12 -85 -24 -171 -71 -223 -122 -26 -26 -47 -50 -47 -53 0 -4 32
-25 72 -49 l71 -43 41 40 c82 80 206 119 344 108 42 -4 95 -12 117 -18 38 -11
38 -12 20 -26 -35 -27 -177 -89 -280 -123 -176 -58 -232 -98 -279 -199 -19
-41 -21 -64 -21 -206 0 -128 4 -171 18 -214 26 -76 64 -128 116 -159 40 -24
57 -27 131 -27 71 0 92 4 126 24 50 28 80 78 89 146 18 131 -55 217 -195 232
l-60 6 0 69 c0 121 41 177 122 164 89 -14 179 -103 256 -253 67 -132 92 -216
92 -314 l0 -79 120 0 120 0 0 383 c0 414 -5 471 -49 553 l-28 52 49 42 c54 46
92 101 113 161 l14 39 -114 0 c-113 0 -115 0 -115 -22z m-116 -380 c3 -13 6
-83 6 -156 l0 -134 -44 59 c-38 49 -93 100 -156 144 -10 7 -11 12 -3 15 6 3
49 25 95 49 45 24 86 44 89 44 4 1 9 -9 13 -21z m-352 -568 c23 -29 23 -82 -1
-111 -16 -20 -28 -24 -76 -24 -48 0 -60 4 -76 24 -34 41 -21 112 24 131 37 16
109 5 129 -20z"/>
<path d="M1960 3669 c-131 -19 -262 -79 -355 -162 -45 -41 -48 -46 -30 -53 60
-22 165 -75 203 -103 l43 -32 -38 -28 c-100 -73 -102 -83 -103 -438 l0 -293
114 0 115 0 3 293 c3 279 4 294 25 333 24 44 107 124 129 124 8 0 14 4 14 8 0
10 -99 85 -152 116 -21 11 -37 26 -35 31 2 6 30 24 62 40 55 27 69 30 160 30
154 0 225 -37 260 -134 12 -36 15 -109 15 -442 l0 -399 115 0 115 0 0 413 c0
485 -1 489 -83 571 -109 109 -345 160 -577 125z"/>
<path d="M3130 3664 c-108 -29 -203 -105 -246 -197 -13 -29 -24 -66 -24 -83
l0 -31 108 -6 c199 -12 377 -56 438 -109 41 -36 54 -79 54 -184 l0 -81 -57 -7
c-124 -15 -183 -83 -183 -212 0 -127 57 -183 194 -192 138 -9 238 46 265 145
6 22 11 138 11 272 0 261 -2 270 -75 325 -91 70 -306 148 -443 162 -67 6 -71
8 -61 26 6 11 31 29 57 40 57 26 129 21 282 -17 58 -14 137 -29 177 -32 65 -5
78 -3 128 22 31 15 59 33 62 41 2 7 -10 40 -28 73 l-33 60 -28 -24 c-47 -40
-86 -41 -262 -6 -176 34 -252 37 -336 15z m380 -839 c26 -23 26 -85 2 -115
-12 -15 -33 -24 -63 -27 -38 -4 -50 -1 -73 19 -40 34 -41 91 -1 125 24 21 36
24 72 20 24 -2 53 -13 63 -22z"/>
<path d="M4166 3666 c-44 -17 -91 -58 -113 -101 -21 -39 -20 -152 1 -193 30
-59 112 -102 194 -102 l32 0 0 -64 0 -63 -49 -6 c-96 -11 -171 -69 -218 -167
-23 -47 -27 -68 -26 -142 0 -75 3 -94 29 -145 22 -45 40 -65 78 -88 47 -28 55
-30 155 -30 128 0 185 22 229 88 25 37 27 50 31 164 3 124 3 124 23 106 11
-10 48 -58 81 -108 78 -115 159 -200 222 -232 42 -22 59 -25 111 -20 80 6 130
36 155 91 17 38 19 75 19 534 l0 492 -115 0 -115 0 0 -438 c0 -361 -2 -442
-14 -457 -14 -19 -15 -19 -36 0 -12 11 -60 67 -105 125 -87 111 -158 183 -200
202 l-25 11 0 186 c0 102 -5 203 -10 223 -14 49 -53 94 -104 120 -53 27 -174
35 -230 14z m164 -131 c14 -13 20 -31 20 -60 0 -52 -23 -76 -83 -82 -36 -4
-48 -1 -71 19 -40 34 -41 91 -1 125 24 21 36 24 72 20 24 -2 53 -13 63 -22z
m-50 -665 c0 -107 -2 -122 -20 -140 -20 -20 -45 -25 -75 -14 -44 17 -60 138
-27 204 17 35 70 70 105 70 15 0 17 -12 17 -120z"/>
<path d="M7053 3656 c-73 -34 -106 -87 -111 -175 -6 -122 55 -193 181 -207
l57 -7 0 -243 c0 -159 -4 -252 -11 -268 -23 -50 -114 -58 -144 -13 -8 12 -39
88 -68 168 -58 156 -73 185 -121 237 -31 33 -104 62 -157 62 -32 0 -35 -9 -44
-126 l-7 -81 44 -11 c25 -7 50 -17 55 -24 5 -7 36 -76 69 -153 71 -168 110
-214 200 -241 80 -23 192 -16 264 18 67 30 106 68 134 128 20 43 21 60 21 420
0 370 0 376 -22 417 -32 59 -70 91 -127 108 -75 23 -152 19 -213 -9z m189
-126 c23 -29 23 -82 -1 -111 -16 -20 -29 -24 -74 -24 -71 0 -97 21 -97 80 0
62 34 87 110 81 30 -3 50 -11 62 -26z"/>
<path d="M7782 3198 c3 -472 3 -484 24 -523 41 -76 96 -106 208 -112 74 -4 86
-2 136 24 73 37 100 83 100 172 0 124 -64 196 -185 208 l-55 6 0 353 0 354
-115 0 -116 0 3 -482z m303 -358 c54 -21 58 -118 5 -145 -81 -42 -163 12 -145
94 11 51 77 75 140 51z"/>
<path d="M9960 3664 c-108 -29 -203 -105 -246 -197 -13 -29 -24 -66 -24 -83
l0 -31 108 -6 c199 -12 377 -56 438 -109 41 -36 54 -79 54 -184 l0 -81 -57 -7
c-124 -15 -183 -83 -183 -212 0 -127 57 -183 194 -192 138 -9 238 46 265 145
6 22 11 138 11 272 0 261 -2 270 -75 325 -91 70 -306 148 -443 162 -67 6 -71
8 -61 26 6 11 31 29 57 40 57 26 129 21 282 -17 58 -14 137 -29 177 -32 65 -5
78 -3 128 22 31 15 59 33 62 41 2 7 -10 40 -28 73 l-33 60 -28 -24 c-47 -40
-86 -41 -262 -6 -176 34 -252 37 -336 15z m380 -839 c26 -23 26 -85 2 -115
-12 -15 -33 -24 -63 -27 -38 -4 -50 -1 -73 19 -40 34 -41 91 -1 125 24 21 36
24 72 20 24 -2 53 -13 63 -22z"/>
<path d="M10996 3666 c-44 -17 -91 -58 -113 -101 -21 -39 -20 -152 1 -193 30
-59 112 -102 194 -102 l32 0 0 -64 0 -63 -49 -6 c-96 -11 -171 -69 -218 -167
-23 -47 -27 -68 -26 -142 0 -75 3 -94 29 -145 22 -45 40 -65 78 -88 47 -28 55
-30 155 -30 128 0 185 22 229 88 25 37 27 50 31 164 3 124 3 124 23 106 11
-10 48 -58 81 -108 78 -115 159 -200 222 -232 42 -22 59 -25 111 -20 80 6 130
36 155 91 17 38 19 75 19 534 l0 492 -115 0 -115 0 0 -438 c0 -361 -2 -442
-14 -457 -14 -19 -15 -19 -36 0 -12 11 -60 67 -105 125 -87 111 -158 183 -200
202 l-25 11 0 186 c0 102 -5 203 -10 223 -14 49 -53 94 -104 120 -53 27 -174
35 -230 14z m164 -131 c14 -13 20 -31 20 -60 0 -52 -23 -76 -83 -82 -36 -4
-48 -1 -71 19 -40 34 -41 91 -1 125 24 21 36 24 72 20 24 -2 53 -13 63 -22z
m-50 -665 c0 -107 -2 -122 -20 -140 -20 -20 -45 -25 -75 -14 -44 17 -60 138
-27 204 17 35 70 70 105 70 15 0 17 -12 17 -120z"/>
<path d="M12575 3665 c-134 -25 -242 -82 -302 -161 l-24 -32 77 -47 77 -47 24
31 c67 85 172 126 329 126 103 0 114 -2 169 -30 46 -23 64 -40 82 -74 23 -43
23 -49 23 -347 l0 -304 -29 -32 -29 -33 -182 0 -182 0 -24 28 c-21 24 -24 38
-24 101 l0 73 58 7 c74 8 131 41 159 91 43 75 24 216 -35 268 -77 69 -276 60
-349 -15 -58 -60 -63 -84 -63 -327 0 -131 4 -231 11 -248 14 -38 56 -80 104
-106 38 -21 55 -22 323 -25 315 -4 363 3 426 58 66 58 70 81 74 402 5 378 -7
448 -90 535 -96 101 -375 151 -603 108z m77 -485 c10 -12 18 -37 18 -55 0 -48
-27 -76 -81 -82 -62 -7 -101 25 -101 82 0 57 39 89 101 82 30 -3 51 -12 63
-27z"/>
<path d="M13833 3650 c-116 -58 -194 -146 -233 -261 -19 -55 -21 -80 -18 -179
5 -112 7 -120 67 -280 73 -192 91 -257 91 -322 l0 -48 146 0 c143 0 146 0 152
23 16 62 110 223 188 322 105 134 123 171 124 249 0 80 -27 135 -83 167 -35
20 -56 24 -122 24 -97 0 -144 -20 -186 -78 -26 -35 -29 -48 -29 -111 0 -85 26
-139 80 -168 19 -10 34 -23 33 -28 -2 -5 -19 -34 -38 -64 -19 -30 -44 -76 -54
-103 -12 -30 -21 -42 -25 -33 -3 8 -21 58 -41 110 -92 239 -98 261 -97 347 0
134 46 239 122 278 27 14 34 12 131 -31 l102 -45 100 46 c102 47 122 49 161
16 10 -9 27 -34 37 -56 17 -37 19 -74 19 -452 l0 -413 120 0 120 0 0 383 c0
234 -4 406 -11 442 -30 161 -143 274 -290 291 -52 6 -64 3 -158 -39 l-102 -46
-96 45 c-52 24 -108 44 -123 44 -15 0 -54 -14 -87 -30z m380 -428 c15 -15 20
-34 20 -68 0 -39 -4 -51 -28 -72 -24 -20 -36 -23 -73 -19 -55 6 -82 32 -89 85
-5 36 -2 45 26 73 29 28 36 31 78 26 27 -3 54 -13 66 -25z"/>
<path d="M16500 3669 c-70 -13 -189 -77 -240 -128 -48 -49 -95 -130 -82 -143
8 -8 154 -60 157 -55 2 1 12 21 23 43 48 94 169 160 279 151 82 -6 140 -39
173 -97 l25 -45 3 -417 3 -418 115 0 114 0 0 408 c0 454 -4 488 -63 571 -78
109 -310 168 -507 130z"/>
<path d="M17428 3671 c-49 -16 -86 -51 -114 -107 -23 -47 -26 -63 -21 -114 9
-107 65 -160 187 -177 l55 -8 3 -353 2 -352 114 0 114 0 22 73 c60 201 252
501 352 553 39 20 76 11 88 -22 6 -14 10 -153 10 -315 l0 -289 121 0 120 0 -3
308 c-3 338 -4 342 -69 396 l-31 26 26 21 c43 34 66 90 66 163 0 36 -5 77 -11
93 -29 77 -120 119 -238 111 -141 -10 -221 -90 -221 -218 0 -63 9 -90 41 -126
19 -20 19 -21 -25 -53 -47 -35 -133 -134 -203 -234 l-43 -61 0 240 c0 131 -5
259 -11 284 -24 108 -97 161 -228 166 -42 2 -88 0 -103 -5z m164 -141 c23 -29
23 -82 -1 -111 -16 -20 -28 -24 -76 -24 -48 0 -60 4 -76 24 -34 41 -21 112 24
131 37 16 109 5 129 -20z m719 1 c56 -56 29 -153 -46 -167 -77 -14 -125 22
-125 96 0 68 32 99 103 100 29 0 45 -7 68 -29z"/>
<path d="M19150 3669 c-131 -19 -262 -79 -355 -162 -45 -41 -48 -46 -30 -53
60 -22 165 -75 203 -103 l43 -32 -38 -28 c-100 -73 -102 -83 -103 -438 l0
-293 114 0 115 0 3 293 c3 279 4 294 25 333 24 44 107 124 129 124 8 0 14 4
14 8 0 10 -99 85 -152 116 -21 11 -37 26 -35 31 2 6 30 24 62 40 55 27 69 30
160 30 154 0 225 -37 260 -134 12 -36 15 -109 15 -442 l0 -399 115 0 115 0 0
413 c0 485 -1 489 -83 571 -109 109 -345 160 -577 125z"/>
<path d="M20320 3664 c-108 -29 -203 -105 -246 -197 -13 -29 -24 -66 -24 -83
l0 -31 108 -6 c199 -12 377 -56 438 -109 41 -36 54 -79 54 -184 l0 -81 -57 -7
c-124 -15 -183 -83 -183 -212 0 -127 57 -183 194 -192 138 -9 238 46 265 145
6 22 11 138 11 272 0 261 -2 270 -75 325 -91 70 -306 148 -443 162 -67 6 -71
8 -61 26 6 11 31 29 57 40 57 26 129 21 282 -17 58 -14 137 -29 177 -32 65 -5
78 -3 128 22 31 15 59 33 62 41 2 7 -10 40 -28 73 l-33 60 -28 -24 c-47 -40
-86 -41 -262 -6 -176 34 -252 37 -336 15z m380 -839 c26 -23 26 -85 2 -115
-12 -15 -33 -24 -63 -27 -38 -4 -50 -1 -73 19 -40 34 -41 91 -1 125 24 21 36
24 72 20 24 -2 53 -13 63 -22z"/>
<path d="M21410 3664 c-108 -29 -203 -105 -246 -197 -13 -29 -24 -66 -24 -83
l0 -31 108 -6 c199 -12 377 -56 438 -109 41 -36 54 -79 54 -184 l0 -81 -57 -7
c-124 -15 -183 -83 -183 -212 0 -127 57 -183 194 -192 138 -9 238 46 265 145
6 22 11 138 11 272 0 261 -2 270 -75 325 -91 70 -306 148 -443 162 -67 6 -71
8 -61 26 6 11 31 29 57 40 57 26 129 21 282 -17 58 -14 137 -29 177 -32 65 -5
78 -3 128 22 31 15 59 33 62 41 2 7 -10 40 -28 73 l-33 60 -28 -24 c-47 -40
-86 -41 -262 -6 -176 34 -252 37 -336 15z m380 -839 c26 -23 26 -85 2 -115
-12 -15 -33 -24 -63 -27 -38 -4 -50 -1 -73 19 -40 34 -41 91 -1 125 24 21 36
24 72 20 24 -2 53 -13 63 -22z"/>
<path d="M22446 3666 c-44 -17 -91 -58 -113 -101 -21 -39 -20 -152 1 -193 30
-59 112 -102 194 -102 l32 0 0 -64 0 -63 -49 -6 c-96 -11 -171 -69 -218 -167
-23 -47 -27 -68 -26 -142 0 -75 3 -94 29 -145 22 -45 40 -65 78 -88 47 -28 55
-30 155 -30 128 0 185 22 229 88 25 37 27 50 31 164 3 124 3 124 23 106 11
-10 48 -58 81 -108 78 -115 159 -200 222 -232 42 -22 59 -25 111 -20 80 6 130
36 155 91 17 38 19 75 19 534 l0 492 -115 0 -115 0 0 -438 c0 -361 -2 -442
-14 -457 -14 -19 -15 -19 -36 0 -12 11 -60 67 -105 125 -87 111 -158 183 -200
202 l-25 11 0 186 c0 102 -5 203 -10 223 -14 49 -53 94 -104 120 -53 27 -174
35 -230 14z m164 -131 c14 -13 20 -31 20 -60 0 -52 -23 -76 -83 -82 -36 -4
-48 -1 -71 19 -40 34 -41 91 -1 125 24 21 36 24 72 20 24 -2 53 -13 63 -22z
m-50 -665 c0 -107 -2 -122 -20 -140 -20 -20 -45 -25 -75 -14 -44 17 -60 138
-27 204 17 35 70 70 105 70 15 0 17 -12 17 -120z"/>
<path d="M12948 2400 c-87 -26 -128 -84 -128 -182 0 -114 55 -169 185 -186
l60 -7 3 -108 3 -107 105 0 106 0 -4 218 c-3 195 -5 222 -24 262 -25 54 -71
95 -122 110 -43 12 -145 12 -184 0z m143 -119 c41 -41 40 -91 -1 -133 -28 -27
-36 -30 -77 -25 -51 5 -69 20 -82 63 -28 98 88 167 160 95z"/>
<path d="M9309 1527 c-128 -48 -206 -162 -246 -357 -21 -106 -20 -351 2 -455
18 -89 69 -202 113 -255 71 -84 211 -122 320 -86 110 37 200 159 239 323 14
61 18 117 17 258 -1 198 -15 278 -73 400 -37 79 -68 115 -132 150 -63 34 -179
45 -240 22z m168 -208 c52 -25 86 -77 107 -164 48 -199 15 -453 -73 -545 -96
-101 -228 -44 -282 123 -21 63 -24 91 -24 222 0 118 4 163 19 213 44 148 141
205 253 151z"/>
<path d="M13467 1526 c-127 -47 -197 -204 -167 -374 24 -140 92 -215 253 -283
56 -24 114 -55 129 -69 72 -72 30 -217 -68 -236 -104 -19 -165 40 -198 189 -6
25 -10 28 -34 23 -15 -3 -47 -8 -71 -12 l-44 -6 6 -57 c9 -85 44 -185 80 -233
64 -84 137 -114 253 -105 87 6 139 31 188 89 84 97 99 318 32 463 -31 67 -86
110 -220 167 -126 55 -166 90 -166 147 0 55 14 80 55 97 93 39 167 -1 195
-106 l11 -42 72 7 c40 4 73 8 75 9 1 2 -2 36 -8 76 -18 125 -62 200 -145 243
-51 26 -174 33 -228 13z"/>
<path d="M18969 1527 c-128 -48 -206 -162 -246 -357 -21 -106 -20 -351 2 -455
18 -89 69 -202 113 -255 71 -84 211 -122 320 -86 110 37 200 159 239 323 14
61 18 117 17 258 -1 198 -15 278 -73 400 -37 79 -68 115 -132 150 -63 34 -179
45 -240 22z m168 -208 c52 -25 86 -77 107 -164 48 -199 15 -453 -73 -545 -96
-101 -228 -44 -282 123 -21 63 -24 91 -24 222 0 118 4 163 19 213 44 148 141
205 253 151z"/>
<path d="M20629 1527 c-128 -48 -206 -162 -246 -357 -21 -106 -20 -351 2 -455
18 -89 69 -202 113 -255 71 -84 211 -122 320 -86 110 37 200 159 239 323 14
61 18 117 17 258 -1 198 -15 278 -73 400 -37 79 -68 115 -132 150 -63 34 -179
45 -240 22z m168 -208 c52 -25 86 -77 107 -164 48 -199 15 -453 -73 -545 -96
-101 -228 -44 -282 123 -21 63 -24 91 -24 222 0 118 4 163 19 213 44 148 141
205 253 151z"/>
<path d="M22349 1527 c-128 -48 -206 -162 -246 -357 -21 -106 -20 -351 2 -455
18 -89 69 -202 113 -255 71 -84 211 -122 320 -86 110 37 200 159 239 323 14
61 18 117 17 258 -1 198 -15 278 -73 400 -37 79 -68 115 -132 150 -63 34 -179
45 -240 22z m168 -208 c52 -25 86 -77 107 -164 48 -199 15 -453 -73 -545 -96
-101 -228 -44 -282 123 -21 63 -24 91 -24 222 0 118 4 163 19 213 44 148 141
205 253 151z"/>
<path d="M1630 951 l0 -571 168 0 c194 0 246 11 308 64 47 40 95 126 119 211
25 91 32 392 11 512 -30 174 -81 270 -167 318 -54 30 -54 30 -246 33 l-193 4
0 -571z m367 346 c72 -38 109 -190 100 -407 -12 -251 -58 -310 -244 -310 l-73
0 0 371 0 372 93 -5 c57 -3 104 -11 124 -21z"/>
<path d="M2380 950 l0 -570 280 0 280 0 0 100 0 100 -210 0 -210 0 0 145 0
145 185 0 185 0 0 100 0 100 -185 0 -185 0 0 125 0 125 200 0 200 0 0 100 0
100 -270 0 -270 0 0 -570z"/>
<path d="M3070 950 l0 -570 70 0 70 0 0 215 0 215 90 0 c167 0 235 31 284 129
62 123 62 340 1 461 -54 105 -97 120 -351 120 l-164 0 0 -570z m345 349 c39
-19 58 -60 59 -129 1 -117 -37 -151 -176 -158 l-88 -4 0 157 0 157 88 -4 c48
-2 100 -11 117 -19z"/>
<path d="M3965 1508 c-3 -7 -66 -256 -140 -553 -75 -297 -138 -548 -141 -557
-5 -16 3 -18 75 -18 75 0 81 1 86 23 3 12 16 67 29 122 l23 100 149 3 150 2
30 -122 30 -123 83 -3 c65 -2 82 0 79 10 -2 7 -69 264 -149 570 l-144 558 -78
0 c-53 0 -79 -4 -82 -12z m129 -465 c25 -105 46 -196 46 -202 0 -7 -34 -11
-95 -11 -53 0 -95 4 -95 9 0 6 20 95 45 199 25 104 45 193 45 197 0 26 13 -20
54 -192z"/>
<path d="M4500 951 l0 -571 70 0 70 0 0 241 0 242 52 -5 c77 -8 98 -37 197
-268 46 -107 86 -199 90 -203 5 -4 46 -7 93 -5 l86 3 -62 155 c-74 182 -102
241 -149 302 l-34 44 53 28 c98 52 140 155 132 328 -4 81 -10 106 -34 155 -24
49 -38 63 -84 88 l-55 30 -212 3 -213 4 0 -571z m403 346 c47 -31 55 -169 13
-216 -24 -27 -91 -41 -190 -41 l-86 0 0 141 0 141 119 -4 c88 -3 125 -8 144
-21z"/>
<path d="M5180 1420 l0 -100 110 0 110 0 0 -470 0 -470 75 0 75 0 0 470 0 470
110 0 110 0 0 100 0 100 -295 0 -295 0 0 -100z"/>
<path d="M5860 950 l0 -570 70 0 70 0 1 428 c0 235 3 422 5 416 3 -7 35 -198
73 -425 l68 -414 70 -3 c62 -2 72 0 77 15 2 10 35 205 73 433 l68 415 3 -432
2 -433 70 0 70 0 0 570 0 570 -114 0 -114 0 -15 -82 c-8 -46 -36 -212 -63
-370 -27 -159 -51 -288 -54 -288 -5 0 -131 708 -130 733 0 4 -52 7 -115 7
l-115 0 0 -570z"/>
<path d="M6730 950 l0 -570 280 0 280 0 0 100 0 100 -210 0 -210 0 0 145 0
145 185 0 185 0 0 100 0 100 -185 0 -185 0 0 125 0 125 200 0 200 0 0 100 0
100 -270 0 -270 0 0 -570z"/>
<path d="M7420 950 l0 -570 65 0 65 0 2 368 3 367 146 -365 147 -365 76 -3 76
-3 0 571 0 570 -70 0 -70 0 0 -372 0 -373 -148 370 -148 370 -72 3 -72 3 0
-571z"/>
<path d="M8100 1420 l0 -100 110 0 110 0 0 -470 0 -470 75 0 75 0 0 470 0 470
110 0 110 0 0 100 0 100 -295 0 -295 0 0 -100z"/>
<path d="M9880 950 l0 -570 75 0 75 0 0 240 0 240 150 0 150 0 0 100 0 100
-150 0 -150 0 0 130 0 130 175 0 175 0 0 100 0 100 -250 0 -250 0 0 -570z"/>
<path d="M10780 950 l0 -570 75 0 75 0 0 570 0 570 -75 0 -75 0 0 -570z"/>
<path d="M11080 950 l0 -570 65 0 65 0 2 368 3 367 146 -365 147 -365 76 -3
76 -3 0 571 0 570 -70 0 -70 0 0 -372 0 -373 -148 370 -148 370 -72 3 -72 3 0
-571z"/>
<path d="M11810 951 l0 -571 168 0 c194 0 246 11 308 64 47 40 95 126 119 211
25 91 32 392 11 512 -30 174 -81 270 -167 318 -54 30 -54 30 -246 33 l-193 4
0 -571z m367 346 c72 -38 109 -190 100 -407 -12 -251 -58 -310 -244 -310 l-73
0 0 371 0 372 93 -5 c57 -3 104 -11 124 -21z"/>
<path d="M12560 1193 c1 -366 11 -562 35 -640 21 -71 70 -132 130 -162 42 -22
62 -26 140 -26 102 0 151 19 200 77 76 89 85 163 85 674 l0 404 -74 0 -75 0
-3 -427 c-3 -391 -5 -431 -21 -465 -23 -46 -75 -72 -129 -65 -55 7 -87 32
-111 85 -21 45 -22 62 -25 460 l-4 412 -74 0 -74 0 0 -327z"/>
<path d="M13940 1420 l0 -100 110 0 110 0 0 -470 0 -470 75 0 75 0 0 470 0
470 110 0 110 0 0 100 0 100 -295 0 -295 0 0 -100z"/>
<path d="M14630 951 l0 -571 70 0 70 0 0 241 0 242 52 -5 c77 -8 98 -37 197
-268 46 -107 86 -199 90 -203 5 -4 46 -7 93 -5 l86 3 -62 155 c-74 182 -102
241 -149 302 l-34 44 53 28 c98 52 140 155 132 328 -4 81 -10 106 -34 155 -24
49 -38 63 -84 88 l-55 30 -212 3 -213 4 0 -571z m403 346 c47 -31 55 -169 13
-216 -24 -27 -91 -41 -190 -41 l-86 0 0 141 0 141 119 -4 c88 -3 125 -8 144
-21z"/>
<path d="M15360 950 l0 -570 75 0 75 0 0 570 0 570 -75 0 -75 0 0 -570z"/>
<path d="M15855 1508 c-3 -7 -66 -256 -140 -553 -75 -297 -138 -548 -141 -557
-5 -16 3 -18 75 -18 75 0 81 1 86 23 3 12 16 67 29 122 l23 100 149 3 150 2
30 -122 30 -123 83 -3 c65 -2 82 0 79 10 -2 7 -69 264 -149 570 l-144 558 -78
0 c-53 0 -79 -4 -82 -12z m129 -465 c25 -105 46 -196 46 -202 0 -7 -34 -11
-95 -11 -53 0 -95 4 -95 9 0 6 20 95 45 199 25 104 45 193 45 197 0 26 13 -20
54 -192z"/>
<path d="M16400 950 l0 -570 255 0 255 0 0 100 0 100 -185 0 -185 0 0 470 0
470 -70 0 -70 0 0 -570z"/>
<path d="M17310 950 l0 -570 70 0 70 0 0 215 0 215 90 0 c167 0 235 31 284
129 62 123 62 340 1 461 -54 105 -97 120 -351 120 l-164 0 0 -570z m345 349
c39 -19 58 -60 59 -129 1 -117 -37 -151 -176 -158 l-88 -4 0 157 0 157 88 -4
c48 -2 100 -11 117 -19z"/>
<path d="M18000 951 l0 -571 70 0 70 0 0 241 0 242 52 -5 c77 -8 98 -37 197
-268 46 -107 86 -199 90 -203 5 -4 46 -7 93 -5 l86 3 -62 155 c-74 182 -102
241 -149 302 l-34 44 53 28 c98 52 140 155 132 328 -4 81 -10 106 -34 155 -24
49 -38 63 -84 88 l-55 30 -212 3 -213 4 0 -571z m403 346 c47 -31 55 -169 13
-216 -24 -27 -91 -41 -190 -41 l-86 0 0 141 0 141 119 -4 c88 -3 125 -8 144
-21z"/>
<path d="M19530 950 l0 -570 70 0 70 0 1 428 c0 235 3 422 5 416 3 -7 35 -198
73 -425 l68 -414 70 -3 c62 -2 72 0 77 15 2 10 35 205 73 433 l68 415 3 -432
2 -433 70 0 70 0 0 570 0 570 -114 0 -114 0 -15 -82 c-8 -46 -36 -212 -63
-370 -27 -159 -51 -288 -54 -288 -5 0 -131 708 -130 733 0 4 -52 7 -115 7
l-115 0 0 -570z"/>
<path d="M21140 1420 l0 -100 110 0 110 0 0 -470 0 -470 75 0 75 0 0 470 0
470 110 0 110 0 0 100 0 100 -295 0 -295 0 0 -100z"/>
<path d="M21820 950 l0 -570 75 0 75 0 0 570 0 570 -75 0 -75 0 0 -570z"/>
<path d="M22920 950 l0 -570 65 0 65 0 2 368 3 367 146 -365 147 -365 76 -3
76 -3 0 571 0 570 -70 0 -70 0 0 -372 0 -373 -148 370 -148 370 -72 3 -72 3 0
-571z"/>
</g>
</svg>
