<?xml version="1.0" standalone="no"?>
<!DOCTYPE svg PUBLIC "-//W3C//DTD SVG 20010904//EN"
 "http://www.w3.org/TR/2001/REC-SVG-20010904/DTD/svg10.dtd">
<svg version="1.0" xmlns="http://www.w3.org/2000/svg"
 width="3840.000000pt" height="2400.000000pt" viewBox="0 0 3840.000000 2400.000000"
 preserveAspectRatio="xMidYMid meet">
<metadata>
Created by potrace 1.16, written by Peter Selinger 2001-2019
</metadata>
<g transform="translate(0.000000,2400.000000) scale(0.100000,-0.100000)"
fill="#000000" stroke="none">
<path d="M9365 16499 c-27 -4 -84 -13 -125 -19 -340 -52 -716 -250 -960 -506
-129 -135 -207 -247 -294 -422 -196 -391 -233 -788 -116 -1247 41 -159 64
-220 87 -223 23 -3 25 5 38 133 10 93 64 268 113 360 102 193 257 348 437 437
61 31 177 73 255 92 58 15 220 35 280 35 77 1 240 -22 325 -44 215 -57 446
-209 560 -370 118 -166 169 -295 200 -505 30 -202 11 -386 -61 -575 -106 -284
-280 -477 -544 -606 -301 -146 -549 -157 -903 -39 -174 58 -464 251 -737 490
-326 286 -681 556 -865 660 -129 73 -197 109 -255 134 -36 15 -80 35 -98 43
-53 23 -168 61 -269 88 -261 70 -533 92 -868 71 -324 -20 -666 -116 -897 -252
-33 -19 -61 -34 -64 -34 -11 0 -173 -107 -249 -164 -289 -218 -496 -441 -893
-960 -251 -328 -540 -648 -722 -800 -86 -72 -280 -206 -326 -224 -17 -8 -37
-24 -44 -38 -12 -21 -11 -27 6 -45 10 -12 42 -33 69 -46 91 -46 271 -183 391
-296 223 -212 436 -458 681 -787 158 -212 303 -381 482 -564 235 -239 435
-394 661 -514 208 -111 342 -158 650 -229 129 -29 604 -44 755 -22 185 26 229
33 325 55 105 25 210 57 242 74 10 6 22 10 27 10 16 0 148 60 261 119 259 133
513 318 922 667 229 197 411 338 519 403 173 103 378 188 499 206 25 4 54 9
65 12 42 8 273 4 335 -6 479 -81 823 -438 910 -945 26 -152 0 -400 -61 -579
-47 -135 -105 -231 -208 -339 -81 -87 -157 -141 -286 -206 -193 -96 -323 -123
-565 -119 -142 3 -180 7 -270 31 -301 80 -516 243 -657 496 -60 107 -114 274
-127 390 -14 120 -17 130 -35 130 -23 0 -50 -58 -71 -150 -4 -19 -16 -69 -27
-110 -81 -300 -83 -565 -8 -860 33 -129 62 -207 131 -346 93 -191 183 -313
352 -475 185 -179 405 -312 653 -393 206 -68 351 -89 599 -90 198 0 211 2 376
37 168 35 360 90 379 108 5 5 15 9 22 9 26 0 250 114 347 177 332 215 573 482
740 822 168 340 237 662 223 1041 -11 295 -52 489 -159 755 -52 129 -87 197
-166 318 -211 325 -472 558 -813 725 -144 71 -289 129 -394 157 -30 8 -80 22
-111 30 -288 78 -750 82 -1077 9 -142 -32 -353 -92 -402 -114 -11 -5 -42 -18
-70 -29 -94 -36 -280 -128 -373 -184 -107 -65 -352 -241 -557 -401 -258 -202
-299 -232 -406 -299 -108 -67 -240 -135 -339 -174 -267 -105 -627 -121 -935
-42 -447 114 -846 456 -1054 904 -40 86 -77 212 -100 345 -41 229 -32 523 21
740 119 490 535 943 1014 1105 280 94 542 113 819 59 164 -32 222 -53 377
-130 179 -89 309 -178 606 -411 458 -360 759 -538 1117 -657 248 -83 418 -108
770 -112 154 -2 309 1 345 6 270 40 514 116 762 241 155 77 222 119 358 228
120 95 224 200 320 321 128 161 196 275 290 485 16 35 78 228 99 305 60 228
79 652 37 865 -2 11 -7 43 -11 70 -20 145 -88 342 -186 540 -87 179 -109 214
-201 338 -107 144 -200 241 -336 350 -242 196 -488 326 -757 400 -251 70 -626
106 -800 76z"/>
<path d="M14350 15643 c0 -10 -7 -27 -15 -37 -8 -10 -12 -23 -9 -27 3 -5 0 -9
-5 -9 -6 0 -11 -6 -11 -12 0 -14 -13 -39 -54 -108 -15 -25 -31 -57 -37 -72 -6
-16 -15 -28 -20 -28 -5 0 -9 -5 -9 -10 0 -10 -160 -260 -183 -286 -29 -33 -37
-44 -37 -54 0 -5 -4 -10 -8 -10 -4 0 -15 -13 -25 -29 -9 -16 -33 -49 -53 -73
-51 -63 -56 -69 -89 -113 -17 -22 -34 -45 -40 -51 -5 -6 -28 -32 -50 -59 -131
-157 -317 -352 -398 -415 -40 -31 -34 -72 8 -59 6 1 589 3 1298 4 l1287 1 -3
-2196 c-2 -1207 -6 -2226 -10 -2265 -3 -38 -11 -101 -17 -140 -6 -38 -13 -89
-16 -112 -4 -24 -10 -43 -15 -43 -5 0 -9 -13 -9 -29 0 -17 -4 -33 -10 -36 -5
-3 -10 -17 -10 -30 0 -13 -4 -26 -9 -30 -5 -3 -13 -20 -17 -38 -9 -43 -96
-171 -154 -227 -68 -66 -119 -110 -125 -110 -4 0 -27 -14 -51 -31 -34 -23 -44
-36 -42 -52 2 -14 9 -20 18 -18 8 3 516 5 1128 5 611 0 1112 2 1112 4 0 16
-27 44 -55 58 -19 9 -35 20 -35 25 0 5 -7 9 -15 9 -8 0 -15 4 -15 8 0 4 -13
15 -29 25 -28 17 -128 111 -163 155 -26 32 -68 111 -68 127 0 8 -4 15 -9 15
-5 0 -11 12 -14 28 -3 15 -11 47 -17 72 -6 25 -14 54 -16 65 -24 107 -28 344
-35 2415 -4 1207 -10 2229 -14 2270 l-6 75 308 1 c349 1 523 6 529 15 2 3 30
7 61 8 32 0 81 5 108 11 28 5 88 17 135 25 88 17 95 19 145 30 33 8 139 42
170 55 11 4 36 15 57 24 20 9 39 16 43 16 35 0 345 180 430 250 71 58 226 221
261 276 22 32 41 61 44 64 3 3 12 19 20 35 8 17 17 32 20 35 9 8 60 119 60
130 0 10 5 23 28 67 7 13 12 32 12 42 0 11 5 23 10 26 6 3 10 21 10 39 0 17 4
36 9 42 5 5 12 48 16 97 8 100 2 106 -55 57 -19 -17 -43 -33 -52 -36 -10 -3
-18 -10 -18 -15 0 -5 -7 -9 -15 -9 -8 0 -15 -4 -15 -8 0 -5 -19 -19 -42 -31
-139 -75 -171 -91 -184 -91 -8 0 -14 -4 -14 -10 0 -5 -9 -10 -19 -10 -11 0
-22 -4 -25 -9 -4 -5 -24 -12 -46 -16 -22 -4 -42 -11 -46 -16 -3 -5 -18 -9 -35
-9 -16 0 -29 -4 -29 -10 0 -5 -13 -10 -29 -10 -17 0 -33 -4 -36 -10 -3 -5 -21
-10 -39 -10 -17 0 -36 -4 -41 -9 -6 -5 -28 -11 -50 -14 -22 -4 -71 -10 -110
-16 -38 -5 -88 -12 -110 -14 -22 -3 -60 -8 -85 -11 -140 -18 -368 -20 -1835
-20 -1633 1 -1656 1 -1790 39 -33 9 -70 19 -82 22 -13 3 -23 9 -23 14 0 5 -9
9 -20 9 -11 0 -20 5 -20 10 0 6 -9 10 -20 10 -11 0 -20 5 -20 10 0 6 -5 10
-11 10 -30 0 -198 146 -241 210 -10 14 -31 44 -48 68 -16 23 -30 47 -30 52 0
6 -4 10 -10 10 -5 0 -10 9 -10 20 0 27 -50 29 -50 3z"/>
<path d="M30633 15553 c-61 -80 -172 -196 -245 -255 -22 -18 -46 -38 -53 -45
-28 -27 -249 -173 -262 -173 -7 0 -13 -3 -13 -7 0 -5 -10 -13 -23 -19 -12 -6
-52 -27 -90 -47 -37 -21 -74 -37 -82 -37 -8 0 -15 -4 -15 -10 0 -5 -9 -10 -20
-10 -11 0 -20 -4 -20 -10 0 -5 -8 -10 -18 -10 -10 0 -22 -4 -27 -9 -6 -4 -44
-20 -85 -35 -41 -15 -83 -31 -92 -37 -10 -5 -27 -9 -38 -9 -11 0 -20 -4 -20
-10 0 -5 -11 -10 -24 -10 -14 0 -28 -4 -31 -10 -3 -5 -15 -10 -26 -10 -10 0
-27 -4 -37 -10 -9 -5 -39 -14 -67 -20 -52 -12 -102 -24 -170 -41 -22 -6 -58
-13 -80 -16 -69 -9 -69 -20 -2 -92 20 -22 37 -43 37 -47 0 -3 8 -18 18 -32 20
-30 50 -128 56 -182 2 -19 6 -42 10 -51 4 -9 2 -36 -3 -60 -6 -24 -11 -65 -11
-90 0 -25 -3 -49 -7 -53 -5 -4 -8 -11 -9 -14 -5 -48 -18 -103 -25 -108 -5 -3
-9 -16 -9 -30 0 -13 -4 -24 -10 -24 -5 0 -10 -7 -10 -15 0 -8 -4 -23 -9 -33
-25 -47 -61 -134 -61 -147 0 -8 -4 -15 -10 -15 -5 0 -10 -4 -10 -10 0 -5 -16
-44 -35 -86 -19 -41 -35 -80 -35 -84 0 -5 -9 -24 -20 -42 -11 -18 -20 -41 -20
-50 0 -10 -4 -18 -8 -18 -4 0 -14 -17 -21 -37 -12 -37 -43 -107 -82 -186 -11
-22 -19 -45 -19 -53 0 -8 -4 -14 -10 -14 -5 0 -10 -6 -10 -14 0 -8 -6 -27 -14
-43 -44 -90 -56 -116 -56 -129 0 -8 -4 -14 -10 -14 -5 0 -10 -6 -10 -13 0 -8
-8 -29 -17 -48 -10 -19 -18 -40 -19 -46 -1 -7 -19 -48 -41 -90 -21 -43 -38
-80 -39 -83 -2 -14 -65 -153 -105 -233 -10 -22 -19 -43 -19 -48 0 -6 -20 -52
-45 -102 -25 -51 -45 -96 -45 -100 0 -4 -11 -30 -25 -59 -14 -28 -25 -57 -25
-64 0 -7 -3 -14 -8 -16 -9 -4 -68 -140 -64 -150 1 -5 -3 -8 -8 -8 -6 0 -10 -7
-10 -15 0 -8 -9 -30 -20 -50 -11 -20 -20 -42 -20 -50 0 -8 -4 -15 -10 -15 -5
0 -10 -8 -10 -18 0 -10 -3 -22 -7 -26 -5 -4 -8 -11 -8 -14 -1 -4 -13 -34 -29
-67 -36 -78 -60 -131 -81 -180 -10 -22 -26 -58 -36 -79 -11 -22 -19 -46 -19
-53 0 -7 -4 -13 -10 -13 -5 0 -10 -6 -10 -13 0 -7 -11 -37 -25 -65 -14 -29
-25 -56 -25 -61 0 -4 -18 -43 -40 -86 -22 -43 -40 -82 -40 -87 0 -5 -16 -41
-35 -81 -19 -39 -35 -78 -35 -84 0 -7 -4 -13 -10 -13 -5 0 -10 -6 -10 -13 0
-7 -11 -37 -25 -65 -14 -29 -25 -56 -25 -62 0 -5 -9 -25 -20 -45 -11 -20 -20
-42 -20 -50 0 -8 -4 -15 -10 -15 -5 0 -10 -9 -10 -20 0 -11 -4 -20 -9 -20 -5
0 -11 -10 -14 -22 -12 -47 -32 -98 -39 -98 -5 0 -8 -9 -8 -20 0 -11 -4 -20
-10 -20 -5 0 -10 -9 -10 -19 0 -11 -4 -23 -10 -26 -5 -3 -10 -15 -10 -26 0
-10 -4 -19 -10 -19 -5 0 -10 -6 -10 -14 0 -13 -33 -87 -61 -138 -5 -10 -9 -25
-9 -33 0 -8 -4 -15 -10 -15 -5 0 -10 -6 -10 -14 0 -8 -7 -27 -15 -43 -8 -15
-51 -102 -95 -193 -44 -91 -96 -192 -115 -225 -20 -33 -38 -68 -41 -77 -4 -10
-10 -18 -15 -18 -5 0 -9 -4 -9 -9 0 -9 -51 -91 -87 -139 -20 -28 -17 -24 -148
-175 -17 -20 -123 -107 -130 -107 -3 0 -15 -9 -27 -20 -12 -11 -28 -20 -35
-20 -7 0 -13 -4 -13 -8 0 -7 -67 -41 -191 -95 -35 -16 -79 -13 -79 4 0 5 -5 9
-12 9 -30 0 -199 149 -244 215 -26 39 -74 142 -74 160 0 7 -4 17 -10 20 -5 3
-10 19 -10 34 0 15 -4 31 -9 37 -5 5 -12 29 -15 54 -4 25 -12 83 -18 130 -14
99 -17 4673 -3 4823 4 48 11 90 16 93 5 3 9 23 9 44 0 21 5 42 10 45 6 3 10
19 10 35 0 16 5 32 10 35 6 3 10 17 10 30 0 13 4 26 9 29 5 3 12 18 15 32 16
62 119 185 211 252 28 20 52 39 55 42 6 6 44 28 83 48 17 8 27 21 25 31 -3 15
-90 16 -1123 16 -987 0 -1120 -2 -1123 -15 -1 -9 18 -26 53 -44 30 -16 55 -32
55 -37 0 -5 7 -9 15 -9 8 0 15 -4 15 -8 0 -4 14 -16 32 -27 70 -41 198 -196
198 -240 0 -8 4 -15 8 -15 11 0 42 -94 42 -126 0 -12 5 -26 10 -29 6 -3 10
-21 10 -39 0 -18 4 -46 10 -62 19 -58 22 -185 26 -1026 l5 -858 -1546 0 -1546
0 5 823 c2 452 9 869 14 927 15 168 38 295 63 342 5 10 9 25 9 33 0 8 5 15 10
15 6 0 10 7 10 16 0 44 123 189 215 252 22 15 42 30 43 35 2 4 9 7 15 7 7 0
23 9 37 20 14 11 33 20 43 20 11 0 17 8 17 25 l0 25 -1122 -2 -1123 -3 -3 -22
c-3 -17 2 -23 15 -23 11 0 29 -9 41 -20 12 -11 24 -20 27 -20 6 0 81 -48 109
-70 24 -20 53 -48 96 -96 39 -43 110 -175 110 -204 0 -10 5 -22 10 -25 6 -3
10 -22 10 -41 0 -19 4 -34 9 -34 9 0 13 -27 32 -215 13 -130 19 -4539 6 -4675
-4 -47 -9 -110 -12 -140 -2 -30 -9 -80 -15 -110 -6 -30 -13 -70 -17 -88 -3
-18 -9 -35 -14 -38 -5 -3 -9 -14 -9 -24 0 -35 -71 -158 -126 -218 -45 -50
-171 -145 -249 -188 -11 -6 -21 -23 -23 -37 -3 -23 0 -25 20 -20 33 8 2158 10
2189 2 65 -17 58 37 -9 68 -20 9 -46 25 -56 35 -11 10 -24 18 -28 18 -5 0 -14
5 -21 10 -7 6 -23 20 -37 31 -88 72 -120 111 -165 200 -37 73 -42 85 -64 144
-13 37 -30 155 -43 295 -5 58 -12 548 -14 1090 l-4 985 1545 -3 1546 -2 -5
-1013 c-5 -1002 -9 -1173 -27 -1191 -5 -6 -9 -29 -9 -53 0 -24 -4 -43 -8 -43
-4 0 -8 -10 -9 -22 -2 -34 -37 -138 -45 -138 -5 0 -8 -6 -8 -14 0 -14 -33 -76
-55 -104 -56 -72 -252 -232 -283 -232 -17 0 -42 -30 -42 -50 0 -15 5 -18 23
-13 29 7 4312 10 4357 3 77 -13 92 16 30 57 -19 12 -40 26 -45 30 -6 5 -28 21
-50 37 -78 58 -166 160 -203 236 -49 102 -49 294 0 439 7 20 16 40 20 46 4 5
8 17 8 27 0 10 5 18 10 18 6 0 10 7 10 15 0 8 4 23 9 33 18 34 41 90 41 101 0
6 9 26 20 46 11 20 20 42 20 50 0 8 5 15 10 15 6 0 10 9 10 19 0 11 5 23 10
26 6 3 10 13 10 21 0 14 12 43 65 159 45 98 55 123 55 133 0 9 16 44 51 114 5
10 9 25 9 33 0 8 5 15 10 15 6 0 10 9 10 19 0 11 4 22 9 25 5 3 12 18 15 32 4
14 16 47 27 73 43 96 61 136 69 151 6 13 154 15 1229 16 672 1 1225 4 1228 8
8 7 32 -24 33 -42 0 -7 9 -32 20 -54 11 -23 20 -48 20 -55 0 -7 5 -13 10 -13
6 0 10 -8 10 -19 0 -10 7 -32 15 -47 8 -16 15 -37 15 -46 0 -9 5 -20 10 -23 6
-3 10 -15 10 -26 0 -10 5 -19 10 -19 6 0 10 -11 10 -25 0 -14 5 -25 12 -25 6
0 9 -3 6 -6 -4 -3 3 -27 14 -52 10 -26 23 -56 28 -67 10 -24 19 -52 20 -63 1
-4 8 -17 16 -30 8 -12 12 -26 10 -31 -3 -5 1 -14 9 -21 8 -7 15 -21 15 -31 0
-10 4 -20 9 -24 5 -3 13 -20 17 -37 6 -31 10 -40 34 -88 6 -11 10 -27 10 -35
0 -8 5 -15 10 -15 6 0 10 -11 10 -24 0 -14 5 -28 10 -31 6 -4 8 -10 5 -15 -3
-4 2 -13 9 -20 8 -6 18 -26 22 -43 6 -30 10 -39 34 -87 6 -11 10 -27 10 -35 0
-8 5 -15 10 -15 6 0 10 -16 10 -35 0 -19 4 -35 9 -35 5 0 9 -13 9 -28 -1 -15
4 -37 9 -47 17 -31 9 -213 -11 -269 -30 -82 -99 -177 -195 -268 -51 -49 -99
-88 -105 -88 -15 0 -39 -47 -31 -60 3 -4 20 -5 37 -1 36 8 2411 6 2443 -2 11
-2 25 0 32 5 6 5 14 5 17 0 3 -5 25 -6 48 -3 53 8 2134 5 2166 -2 18 -5 22 -2
22 17 0 17 -11 29 -45 46 -24 12 -52 30 -62 39 -10 9 -36 29 -58 46 -82 61
-195 194 -195 229 0 9 -4 16 -10 16 -5 0 -10 8 -10 18 0 10 -4 22 -8 28 -19
21 -44 127 -64 274 -15 105 -16 4786 -1 4890 16 111 33 202 44 228 5 12 14 33
19 47 16 41 35 80 40 85 3 3 14 21 24 40 27 49 181 200 205 200 5 0 15 7 22
17 8 9 33 25 57 35 29 13 42 25 42 38 0 20 -16 20 -1120 20 l-1120 0 0 -25 c0
-18 5 -25 20 -25 11 0 20 -4 20 -10 0 -5 5 -10 10 -10 11 0 63 -34 88 -57 7
-7 16 -13 20 -13 12 0 96 -83 133 -130 38 -49 94 -150 83 -150 -3 0 0 -10 8
-22 8 -13 18 -36 22 -53 23 -98 28 -124 31 -164 2 -24 9 -64 17 -90 11 -38 13
-439 13 -2296 0 -1237 -3 -2311 -7 -2385 -8 -156 -28 -308 -48 -355 -4 -11
-14 -40 -21 -65 -7 -25 -19 -56 -26 -70 -7 -14 -13 -31 -13 -37 0 -7 -3 -13
-7 -13 -5 0 -20 -20 -36 -44 -44 -70 -238 -236 -276 -236 -5 0 -16 -9 -23 -19
-14 -20 -14 -20 -26 0 -7 10 -17 19 -23 19 -15 0 -190 121 -254 175 -87 74
-175 165 -230 240 -17 22 -33 42 -37 43 -5 2 -8 9 -8 17 0 7 -7 19 -16 26 -9
7 -20 22 -25 34 -5 11 -18 34 -28 50 -60 97 -133 240 -186 360 -22 50 -43 92
-47 93 -5 2 -8 10 -8 18 0 8 -4 22 -10 32 -19 33 -60 135 -60 148 0 8 -4 14
-10 14 -5 0 -10 7 -10 15 0 8 -8 29 -18 47 -10 18 -24 49 -32 68 -23 61 -41
104 -61 143 -10 22 -19 45 -19 53 0 8 -3 14 -8 14 -4 0 -13 19 -20 43 -7 23
-24 65 -37 92 -12 28 -36 79 -53 115 -17 36 -34 78 -37 93 -4 15 -11 30 -16
33 -5 3 -9 14 -9 25 0 10 -4 19 -10 19 -5 0 -10 7 -10 15 0 8 -4 23 -9 33 -20
38 -61 133 -61 142 0 5 -9 25 -20 45 -11 20 -20 42 -20 50 0 8 -4 15 -10 15
-5 0 -10 7 -10 15 0 8 -4 23 -10 33 -5 9 -16 35 -25 57 -9 22 -21 48 -26 57
-5 10 -9 25 -9 33 0 8 -4 15 -10 15 -5 0 -10 8 -10 18 0 10 -4 22 -8 27 -5 6
-15 26 -22 45 -19 52 -39 98 -70 165 -15 33 -35 78 -45 100 -9 22 -21 51 -27
65 -6 14 -14 33 -19 42 -5 10 -9 25 -9 33 0 8 -4 15 -10 15 -5 0 -10 6 -10 13
0 7 -9 31 -19 53 -11 22 -23 52 -26 67 -4 15 -11 30 -16 33 -5 3 -9 14 -9 25
0 10 -4 19 -10 19 -5 0 -10 6 -10 13 0 8 -11 36 -25 63 -14 27 -25 52 -25 57
0 7 -12 34 -60 142 -17 38 -42 97 -59 140 -11 26 -42 95 -75 166 -14 31 -26
61 -26 67 0 6 -9 27 -20 47 -11 20 -20 42 -20 50 0 8 -4 15 -10 15 -5 0 -10 6
-10 13 0 7 -9 31 -19 53 -11 22 -23 52 -26 67 -4 15 -11 30 -16 33 -5 3 -9 14
-9 25 0 10 -4 19 -10 19 -5 0 -10 6 -10 13 0 8 -13 41 -30 75 -16 33 -32 73
-36 87 -3 14 -10 28 -15 31 -5 3 -9 14 -9 25 0 10 -4 19 -10 19 -5 0 -10 7
-10 15 0 8 -4 23 -9 33 -20 37 -61 133 -61 141 0 5 -9 26 -20 48 -17 33 -41
88 -82 183 -6 14 -14 33 -19 42 -5 10 -9 25 -9 33 0 8 -4 15 -10 15 -5 0 -10
7 -10 15 0 8 -9 30 -20 50 -11 20 -20 41 -20 47 0 6 -11 34 -24 62 -73 157
-85 184 -91 209 -4 15 -11 30 -16 33 -5 3 -9 14 -9 25 0 10 -4 19 -10 19 -5 0
-10 9 -10 19 0 11 -4 23 -10 26 -5 3 -10 15 -10 26 0 10 -4 19 -9 19 -5 0 -12
12 -16 27 -3 15 -15 45 -26 67 -10 22 -19 46 -19 53 0 7 -4 13 -10 13 -5 0
-10 6 -10 13 0 7 -9 31 -19 53 -11 22 -23 52 -26 67 -4 15 -11 30 -16 33 -5 3
-9 14 -9 25 0 10 -4 19 -10 19 -5 0 -10 7 -10 15 0 8 -8 29 -18 47 -10 18 -24
49 -31 68 -17 42 -56 131 -82 183 -10 22 -19 43 -19 48 0 5 -11 32 -25 61 -14
28 -25 58 -25 65 0 7 -4 13 -10 13 -5 0 -10 7 -10 15 0 8 -9 30 -20 50 -11 20
-20 40 -20 45 0 5 -12 35 -26 67 -15 32 -33 73 -41 91 -8 17 -16 32 -18 32 -2
0 -17 -17 -32 -37z m-509 -1785 c4 -21 11 -38 16 -38 6 0 10 -9 10 -19 0 -11
7 -32 15 -48 8 -15 21 -45 30 -65 8 -21 22 -53 30 -72 8 -19 15 -41 15 -49 0
-9 5 -19 10 -22 6 -3 10 -15 10 -26 0 -10 5 -19 10 -19 6 0 10 -11 10 -25 0
-14 4 -25 8 -25 5 0 19 -30 31 -67 23 -67 35 -97 71 -178 53 -119 60 -137 55
-145 -4 -6 -1 -10 4 -10 6 0 11 -7 11 -15 0 -8 5 -24 10 -35 6 -11 15 -29 20
-40 6 -11 10 -27 10 -35 0 -8 5 -15 10 -15 6 0 10 -7 10 -15 0 -8 4 -23 9 -33
5 -9 17 -37 26 -62 9 -25 21 -53 26 -62 5 -10 9 -22 9 -28 0 -6 10 -32 21 -58
12 -26 30 -66 41 -90 10 -24 21 -57 25 -73 3 -16 9 -29 14 -29 5 0 9 -7 9 -15
0 -8 4 -23 9 -33 5 -9 13 -28 19 -42 5 -14 17 -41 26 -62 9 -20 16 -43 16 -51
0 -9 5 -19 10 -22 6 -3 10 -15 10 -26 0 -10 4 -19 8 -19 4 0 9 -10 9 -22 1
-13 7 -24 13 -26 5 -2 10 -10 10 -18 0 -8 4 -22 9 -32 8 -15 21 -46 26 -62 1
-3 9 -22 18 -44 9 -21 17 -44 17 -50 0 -7 4 -16 8 -22 5 -5 19 -36 32 -69 13
-33 28 -66 33 -72 5 -7 6 -13 2 -13 -4 0 -2 -7 5 -15 11 -13 -89 -15 -894 -15
-605 0 -906 3 -906 10 0 10 5 23 28 67 7 13 12 30 12 38 0 8 5 15 10 15 6 0
10 6 10 14 0 7 7 27 15 42 8 16 15 37 15 46 0 9 5 20 10 23 6 3 10 15 10 26 0
10 5 19 10 19 6 0 10 7 10 15 0 8 4 23 9 33 15 27 41 89 41 96 0 7 36 90 51
118 5 10 9 25 9 33 0 8 5 15 10 15 6 0 10 7 10 15 0 8 4 23 9 33 5 9 22 49 37
87 15 39 31 74 36 80 4 5 8 17 8 27 0 10 5 18 10 18 6 0 10 9 10 19 0 11 5 23
10 26 6 3 10 13 10 22 0 14 7 32 52 133 11 25 24 54 28 65 4 11 14 36 22 55 8
19 21 51 28 70 7 19 17 39 22 45 4 5 8 17 8 27 0 10 5 18 10 18 6 0 10 9 10
19 0 11 4 22 8 25 5 3 17 32 28 65 10 34 22 61 26 61 5 0 8 7 8 15 0 8 4 23 9
33 15 29 48 105 66 152 9 25 21 53 26 62 5 10 9 25 9 33 0 8 5 15 10 15 6 0
10 7 10 15 0 8 4 23 9 33 11 19 32 70 51 122 7 19 17 39 22 45 4 5 8 17 8 27
0 10 5 18 10 18 6 0 10 9 10 19 0 11 4 22 9 25 4 3 11 20 15 38 6 30 7 31 20
13 7 -11 16 -37 20 -57z"/>
<path d="M6258 13166 c-1 -2 -41 -6 -88 -10 -259 -19 -511 -135 -692 -317
-156 -158 -267 -376 -319 -624 -16 -77 -17 -352 -1 -430 72 -353 243 -615 510
-782 69 -43 238 -119 279 -126 10 -1 23 -5 28 -9 6 -3 27 -9 49 -12 21 -4 42
-8 46 -11 29 -18 273 -23 365 -7 91 16 107 20 202 53 205 73 426 207 763 466
434 332 535 401 725 498 66 34 166 76 223 94 74 24 102 38 100 48 -2 9 -48 30
-113 52 -60 21 -157 61 -215 91 -172 86 -243 136 -805 560 -263 198 -399 283
-578 359 -144 62 -232 84 -382 97 -38 3 -75 7 -82 9 -6 2 -13 2 -15 1z"/>
</g>
</svg>
