<?xml version="1.0" standalone="no"?>
<!DOCTYPE svg PUBLIC "-//W3C//DTD SVG 20010904//EN"
 "http://www.w3.org/TR/2001/REC-SVG-20010904/DTD/svg10.dtd">
<svg version="1.0" xmlns="http://www.w3.org/2000/svg"
 width="1200.000000pt" height="1875.000000pt" viewBox="0 0 1200.000000 1875.000000"
 preserveAspectRatio="xMidYMid meet">
<metadata>
Created by potrace 1.16, written by Peter Selinger 2001-2019
</metadata>
<g transform="translate(0.000000,1875.000000) scale(0.100000,-0.100000)"
fill="#ffffff" stroke="none">
<path d="M5875 18734 c-91 -33 -113 -78 -160 -320 -67 -350 -130 -559 -312
-1034 -153 -400 -210 -520 -426 -905 -167 -299 -510 -855 -719 -1168 -271
-404 -673 -914 -1314 -1662 -366 -426 -511 -626 -633 -867 -159 -316 -187
-489 -176 -1098 11 -631 77 -3380 91 -3753 l6 -177 -71 0 -71 0 0 -49 c0 -27
-11 -118 -25 -203 -42 -254 -84 -315 -445 -653 -340 -319 -484 -493 -565 -684
-81 -194 -77 -429 11 -602 l25 -50 -25 -63 c-128 -320 -11 -807 309 -1286 123
-184 200 -276 384 -461 168 -168 279 -258 485 -393 278 -181 474 -271 646
-297 59 -8 80 -15 80 -26 0 -25 120 -136 215 -198 163 -108 411 -225 616 -293
351 -115 1109 -290 1409 -326 69 -9 204 -25 300 -36 211 -25 388 -60 469 -93
l60 -24 22 23 c50 54 154 76 724 159 215 31 481 74 592 96 861 169 1424 403
1621 675 l46 63 75 6 c253 22 488 132 779 364 197 157 504 456 640 623 268
329 417 703 430 1074 5 171 -7 283 -42 380 -23 63 -23 64 -4 94 31 52 66 170
73 250 12 138 -30 320 -112 484 -108 215 -297 424 -514 568 -64 42 -141 100
-172 128 -174 159 -268 382 -271 642 l-1 128 -77 0 -78 0 0 132 c0 73 7 531
15 1018 37 2229 43 2956 25 3160 -25 282 -99 561 -204 771 -102 204 -221 364
-666 899 -572 686 -1137 1413 -1448 1860 -454 655 -861 1464 -1107 2205 -86
258 -128 425 -150 594 -9 67 -23 141 -31 164 -39 111 -125 177 -229 176 -33 0
-78 -7 -100 -15z m183 -41 c78 -37 121 -132 142 -318 41 -349 303 -1072 615
-1696 263 -524 535 -958 941 -1499 404 -540 703 -917 1140 -1440 439 -526 574
-708 673 -905 90 -179 148 -372 187 -615 33 -207 30 -993 -11 -3390 -8 -459
-15 -895 -15 -967 l0 -133 73 0 74 0 6 -105 c12 -197 55 -341 143 -482 66
-106 157 -195 299 -291 255 -171 422 -358 534 -592 69 -146 94 -246 94 -385 1
-104 -3 -130 -24 -191 -14 -38 -37 -87 -51 -108 -26 -38 -26 -38 -8 -69 43
-73 55 -152 55 -357 0 -169 -3 -209 -23 -300 -62 -277 -174 -510 -365 -765
-80 -106 -482 -507 -627 -625 -135 -109 -293 -216 -403 -271 -142 -72 -319
-119 -447 -119 -36 0 -42 -4 -75 -54 -221 -333 -966 -603 -2125 -771 -173 -25
-362 -52 -420 -61 -178 -26 -321 -61 -371 -93 -34 -21 -51 -26 -63 -19 -61 34
-341 83 -666 117 -334 35 -875 151 -1365 291 -234 67 -322 100 -504 190 -264
132 -471 287 -471 353 0 20 -4 23 -29 19 -48 -7 -189 27 -290 69 -128 53 -266
131 -451 254 -203 136 -298 213 -450 365 -360 361 -618 801 -702 1194 -42 198
-27 410 38 538 l24 48 -29 52 c-123 221 -98 488 69 740 91 139 183 242 396
443 331 313 426 419 475 530 22 49 62 248 74 368 l7 67 70 0 70 0 -6 173 c-4
94 -18 611 -31 1147 -14 536 -32 1268 -41 1625 -9 358 -17 855 -18 1105 -1
516 3 560 74 773 51 152 128 302 250 485 115 172 202 283 510 642 747 874
1093 1325 1457 1895 377 592 686 1129 818 1425 64 143 234 587 305 795 71 211
122 407 165 637 44 233 66 272 171 297 45 11 85 6 132 -16z"/>
<path d="M5931 18617 c-56 -20 -71 -51 -87 -178 -19 -154 -53 -317 -120 -561
-110 -406 -210 -661 -434 -1113 -310 -623 -536 -989 -1081 -1757 -334 -470
-480 -656 -1193 -1518 -170 -206 -339 -415 -376 -465 -209 -280 -334 -603
-371 -951 -12 -116 -10 -270 10 -794 6 -162 18 -626 26 -1030 9 -404 25 -1111
35 -1570 11 -459 20 -892 20 -962 l0 -128 -88 0 -88 0 4 -40 c6 -59 -15 -165
-49 -246 -65 -157 -202 -323 -434 -529 -282 -251 -403 -392 -486 -570 -61
-131 -82 -226 -77 -354 6 -127 29 -197 90 -266 34 -39 40 -50 30 -64 -85 -119
-109 -270 -76 -488 70 -472 269 -839 679 -1248 252 -253 431 -390 652 -499
174 -87 398 -156 504 -156 46 0 47 -1 83 -59 107 -174 349 -320 746 -451 506
-167 894 -248 1623 -340 352 -44 367 -47 484 -96 l82 -35 57 46 c31 26 67 50
79 55 42 16 133 29 452 65 515 58 715 90 1014 165 356 89 761 228 949 326 165
85 261 172 331 299 l36 66 114 3 c248 8 408 83 774 361 174 132 431 390 550
552 178 242 350 559 391 721 31 120 42 325 25 456 -14 102 -52 230 -80 266
l-19 24 40 46 c23 25 53 70 67 100 24 52 26 64 26 200 -1 166 -14 232 -71 348
-77 158 -256 349 -539 578 -83 67 -171 144 -197 172 -130 139 -220 343 -235
533 l-6 77 -51 6 c-28 3 -68 6 -89 6 -25 0 -40 5 -44 16 -3 8 -1 252 6 542 6
290 20 991 31 1557 11 567 24 1210 30 1430 26 993 7 1185 -145 1503 -128 268
-315 537 -645 932 -80 96 -274 335 -430 530 -156 195 -349 434 -429 530 -196
237 -293 369 -496 675 -430 650 -855 1397 -1023 1800 -152 365 -342 988 -382
1251 -30 195 -39 214 -111 234 -41 12 -45 12 -88 -3z m99 -797 c63 -291 136
-565 179 -673 17 -43 31 -90 31 -105 0 -32 -28 -95 -64 -149 -33 -47 -33 -87
-1 -138 22 -37 24 -38 25 -14 0 35 43 117 86 162 20 21 37 37 39 35 17 -16
203 -440 200 -454 -3 -11 -16 -67 -30 -126 -26 -106 -26 -158 0 -158 8 0 16
19 20 48 4 26 13 61 20 78 12 29 58 74 75 74 22 0 190 -328 190 -370 0 -15 -9
-53 -20 -85 -26 -76 -26 -135 1 -169 27 -35 36 -33 31 7 -3 24 6 51 31 97 l35
63 32 -69 c57 -125 128 -298 134 -329 5 -24 -1 -46 -28 -95 -54 -102 -66 -170
-31 -170 7 0 16 13 20 28 3 16 21 44 39 61 19 18 42 51 52 73 17 38 18 39 27
16 23 -60 40 -185 42 -308 1 -107 5 -135 16 -135 23 0 59 65 59 108 0 64 19
32 35 -59 17 -95 19 -328 4 -389 -12 -47 -48 -95 -72 -95 -7 0 -18 16 -23 37
-13 52 -35 62 -81 38 -78 -42 -122 -158 -102 -271 22 -125 108 -204 222 -204
l55 0 -10 43 c-17 74 4 244 26 208 10 -16 51 -14 65 3 10 11 9 21 -3 45 -23
43 -20 70 16 158 30 73 32 86 33 201 l0 123 33 -38 c69 -79 142 -180 161 -223
17 -37 21 -66 21 -162 0 -65 4 -118 8 -118 4 0 18 31 30 68 12 37 28 76 35 86
13 17 15 15 39 -25 88 -153 90 -323 3 -345 -48 -12 -97 11 -99 47 -2 36 -38
37 -66 2 -49 -63 7 -163 106 -188 27 -7 54 -10 60 -8 7 2 14 21 18 41 3 20 26
72 51 115 25 42 48 91 52 107 3 17 9 30 14 30 10 0 126 -166 167 -240 39 -69
66 -170 57 -212 -4 -17 -18 -41 -32 -54 -23 -22 -24 -22 -4 -29 42 -13 75 22
96 105 l11 45 36 -65 c71 -127 113 -311 94 -412 -9 -49 -39 -78 -81 -78 -56 0
-82 -49 -54 -102 11 -20 12 -19 42 10 18 16 42 35 55 41 28 15 28 8 1 -88 -21
-78 -22 -142 -2 -148 19 -6 78 53 99 98 l19 43 7 -40 c11 -61 9 -244 -3 -309
-15 -85 -52 -152 -93 -172 -49 -23 -68 -12 -64 34 3 35 1 38 -23 41 -40 5 -96
-23 -112 -55 -46 -90 -48 -241 -4 -315 28 -49 89 -90 107 -72 6 6 17 40 25 76
7 35 21 82 30 104 17 39 17 39 27 14 50 -121 71 -148 124 -164 18 -6 20 -2 20
41 -1 53 -7 50 77 36 20 -3 37 -2 37 1 0 19 -24 47 -51 62 -36 18 -68 83 -69
137 0 21 16 81 36 134 20 53 39 117 43 141 l6 45 32 -27 c18 -15 38 -39 45
-54 28 -59 79 -31 77 42 -2 87 -28 121 -73 97 -20 -11 -28 -11 -40 -2 -19 16
-43 122 -52 229 -6 75 -5 82 11 82 16 0 17 8 12 93 -4 50 -11 107 -17 126 -5
19 -8 36 -6 38 8 8 147 -119 188 -170 40 -52 40 -52 34 -119 -3 -39 -2 -78 5
-95 l11 -28 24 30 c14 17 33 45 43 64 l18 33 31 -48 c17 -27 43 -76 58 -108
24 -53 26 -63 15 -90 -34 -83 -52 -140 -49 -153 4 -20 50 16 88 69 35 48 40
39 47 -102 9 -176 -23 -301 -82 -316 -40 -10 -56 1 -45 30 11 30 -7 49 -42 44
-16 -2 -31 -19 -51 -58 -39 -76 -35 -146 12 -194 42 -43 67 -50 85 -24 14 19
15 19 35 -21 24 -45 61 -74 88 -69 26 5 28 34 4 64 -15 19 -21 41 -21 80 0 63
10 93 56 159 44 65 74 151 75 220 1 30 3 55 5 55 2 0 28 -33 58 -73 71 -93
123 -193 131 -252 13 -85 -41 -175 -105 -175 -38 0 -64 32 -56 67 l6 28 -20
-24 c-31 -36 -26 -69 17 -105 62 -53 90 -81 95 -96 8 -25 39 7 32 34 -4 16 9
35 54 79 l58 58 17 -73 c41 -175 45 -314 12 -378 -8 -16 -32 -41 -52 -56 -93
-68 -119 -104 -92 -131 8 -8 35 7 102 58 50 38 97 69 104 69 25 0 9 -330 -21
-434 -17 -59 -76 -133 -109 -138 -18 -2 -23 -10 -25 -45 l-3 -43 72 45 c40 25
78 45 84 45 9 0 9 -14 3 -47 -4 -27 -10 -122 -14 -212 -4 -113 -10 -173 -20
-192 -8 -16 -14 -30 -14 -34 0 -11 56 -4 84 10 l29 15 -6 -167 c-6 -173 -20
-256 -52 -310 -11 -19 -51 -50 -106 -82 -80 -47 -89 -55 -89 -81 0 -18 5 -30
13 -30 6 1 51 16 99 34 l87 33 7 -66 c14 -128 -11 -314 -47 -358 -7 -8 -36
-25 -64 -38 -60 -26 -97 -68 -93 -104 4 -34 47 -43 55 -12 5 19 131 97 141 87
7 -8 -18 -400 -29 -446 -14 -63 -30 -83 -93 -119 -56 -31 -76 -55 -76 -90 0
-30 23 -31 50 -1 23 26 117 66 128 55 3 -3 1 -92 -5 -197 -14 -243 -20 -260
-107 -310 -70 -41 -97 -81 -79 -121 10 -21 10 -21 27 10 12 24 26 35 59 43 23
6 50 13 60 16 15 5 17 -2 17 -46 0 -126 -38 -368 -67 -425 -9 -16 -35 -51 -59
-77 -28 -30 -44 -56 -44 -73 0 -14 3 -25 7 -25 3 0 30 23 60 51 30 28 56 49
58 47 3 -2 0 -20 -6 -39 -7 -21 -11 -127 -10 -279 1 -250 -5 -301 -37 -320
-16 -9 -16 -11 1 -20 15 -10 17 -31 17 -205 0 -135 -3 -195 -11 -195 -22 0
-68 34 -80 59 l-13 26 -4 -26 c-6 -49 23 -99 68 -116 46 -18 43 -11 64 -183 9
-69 18 -140 22 -159 l7 -33 -30 15 c-26 14 -133 57 -140 57 -2 0 -3 -6 -3 -14
0 -25 49 -65 94 -77 24 -6 52 -19 61 -29 8 -9 22 -56 29 -102 17 -102 28 -126
66 -140 l29 -10 -20 -31 c-21 -36 -24 -78 -8 -110 7 -12 53 -65 103 -117 128
-133 149 -180 120 -278 -10 -34 64 -103 141 -131 152 -57 285 10 285 143 0 61
-18 90 -64 106 -36 12 -71 3 -99 -25 -25 -25 -21 -56 15 -99 l32 -39 -47 6
c-100 14 -160 69 -210 195 -37 94 -77 239 -77 282 0 15 -8 35 -19 44 -28 25
-77 140 -106 246 -32 119 -52 274 -61 460 -10 226 18 352 97 425 l32 30 -7
-30 c-15 -69 -18 -163 -6 -200 7 -20 40 -67 75 -103 34 -37 70 -81 79 -99 20
-39 20 -99 1 -133 -19 -33 -19 -56 1 -64 23 -9 39 3 81 63 47 68 63 75 63 27
0 -54 17 -86 80 -152 69 -72 87 -120 68 -180 -9 -27 -24 -44 -50 -59 l-37 -21
32 -25 c54 -43 78 -53 88 -38 5 8 9 28 9 45 0 38 18 138 31 172 10 25 10 25
38 -20 16 -25 47 -60 71 -79 23 -19 53 -43 66 -54 13 -11 25 -30 27 -43 6 -41
23 -47 51 -17 l25 27 46 -72 c108 -166 167 -316 168 -425 0 -57 -8 -91 -41
-185 -22 -63 -43 -131 -46 -151 -20 -122 -234 -269 -486 -335 -99 -26 -267
-23 -350 5 -233 81 -374 272 -519 706 -75 225 -112 420 -150 795 -6 52 -16
118 -22 145 -7 30 -13 133 -13 253 l-1 203 34 28 34 28 -27 40 c-40 60 -51
142 -37 283 14 148 14 234 0 283 -13 50 -6 56 32 28 l30 -23 -6 1114 c-3 612
-10 1158 -16 1214 -23 245 -120 478 -248 597 -40 37 -46 47 -32 52 38 12 196
-47 259 -96 28 -22 52 -15 52 15 0 37 -30 168 -47 200 -8 17 -22 39 -31 49
-14 16 -13 17 9 17 14 0 35 7 47 16 20 14 22 23 22 122 0 185 -39 382 -95 477
-33 56 -81 100 -140 127 -42 19 -67 23 -150 23 -88 0 -107 -3 -150 -26 -40
-20 -53 -33 -64 -65 -19 -53 -1 -95 47 -109 17 -5 32 -13 32 -18 0 -4 -26 -20
-57 -35 -82 -37 -223 -43 -320 -13 -122 37 -232 116 -292 209 -17 27 -31 52
-31 55 0 3 17 -1 38 -10 112 -47 252 -58 310 -23 42 26 41 46 -4 55 -89 16
-240 104 -339 198 l-60 56 36 -6 c25 -3 48 1 79 17 29 15 55 21 81 18 44 -4
48 3 19 32 -24 24 -35 25 -91 4 -58 -20 -96 -12 -147 31 -70 60 -110 178 -112
325 l0 34 17 -24 c9 -14 17 -26 19 -28 1 -2 28 -10 61 -18 32 -9 73 -24 91
-34 57 -34 36 1 -52 85 -68 66 -87 91 -106 140 -32 88 -30 175 9 296 42 130
48 177 26 219 l-17 33 39 -6 c66 -11 78 6 77 105 -1 60 -8 100 -24 142 -65
170 -266 257 -406 176 -112 -64 -144 -145 -83 -215 37 -42 31 -55 -37 -81 -63
-24 -166 -14 -247 24 -60 28 -168 116 -188 153 -9 17 -7 18 16 9 50 -19 102
-12 124 16 32 41 27 50 -25 46 -61 -5 -125 20 -167 67 -39 43 -86 137 -94 188
l-6 35 42 -30 c50 -37 92 -47 121 -32 38 20 21 52 -44 86 -70 36 -112 83 -165
184 -37 71 -72 192 -59 205 9 10 78 -23 84 -40 9 -21 41 -19 54 4 15 28 3 49
-40 71 -78 40 -103 101 -102 255 0 79 4 113 22 160 13 33 28 84 34 113 5 28
13 52 17 52 4 0 18 -13 31 -28 56 -67 67 -2 34 199 -28 174 -64 305 -102 382
-15 29 -66 106 -114 172 -163 225 -447 640 -476 695 -40 74 -63 77 -100 13
-68 -119 -264 -394 -373 -523 -79 -94 -186 -260 -243 -376 -63 -129 -91 -270
-86 -441 4 -142 14 -156 68 -95 l39 43 10 -38 c23 -83 43 -270 38 -363 -5
-113 -24 -165 -76 -212 -28 -25 -39 -44 -45 -77 -4 -24 -4 -46 -2 -49 3 -2 24
12 48 33 40 34 43 35 46 16 6 -35 -36 -182 -71 -251 -47 -95 -135 -145 -156
-88 -7 21 -9 19 -20 -15 -7 -21 -10 -49 -7 -63 5 -20 12 -24 44 -24 20 0 49 7
65 14 35 19 35 10 3 -79 -46 -126 -111 -185 -204 -185 -38 0 -42 -2 -42 -25 0
-20 7 -26 43 -35 23 -6 56 -14 72 -19 l30 -8 -53 -51 c-30 -28 -79 -64 -110
-79 -50 -24 -69 -28 -147 -28 -116 0 -225 38 -170 59 25 9 55 69 55 109 0 144
-204 222 -376 143 -72 -33 -130 -95 -172 -184 -46 -96 -49 -161 -12 -216 17
-25 30 -34 40 -29 8 4 41 9 74 11 l58 4 -32 -41 c-50 -62 -53 -125 -9 -222
l34 -74 0 -220 c0 -245 -6 -279 -72 -432 -86 -202 -207 -331 -333 -358 -62
-13 -140 -46 -140 -59 0 -35 121 -47 215 -22 69 18 113 42 158 84 l37 36 -16
-54 c-34 -120 -108 -208 -218 -261 -86 -41 -153 -52 -296 -47 -112 3 -132 7
-180 30 -30 15 -61 36 -68 48 -11 19 -10 20 23 20 40 0 85 36 85 68 0 97 -240
156 -365 90 -95 -50 -163 -136 -189 -243 -20 -78 -48 -373 -44 -456 l3 -64 37
1 37 1 -18 -36 c-25 -47 -51 -137 -51 -172 0 -32 32 -59 68 -59 13 0 42 11 65
24 44 25 88 40 146 50 l34 6 -45 -47 c-116 -126 -198 -299 -218 -461 -31 -261
-39 -861 -24 -1953 l7 -496 28 16 c15 8 30 13 33 10 4 -3 -6 -32 -20 -65 -32
-71 -34 -119 -9 -199 22 -70 26 -262 7 -308 -10 -23 -9 -34 6 -60 49 -91 -8
-815 -99 -1253 -41 -198 -82 -332 -140 -453 -129 -271 -281 -421 -467 -460
-77 -16 -261 -14 -350 5 -160 33 -360 136 -437 227 -32 37 -34 42 -17 45 18 3
16 9 -20 80 -49 98 -72 204 -63 297 13 131 91 331 162 415 32 37 36 39 48 24
17 -24 39 -12 72 38 15 24 55 72 88 108 34 36 69 76 78 89 9 14 20 22 23 18 4
-4 11 -53 15 -110 7 -99 16 -157 26 -157 17 0 42 24 47 45 4 17 17 30 37 37
l30 10 -37 32 c-29 25 -37 40 -41 78 -8 71 2 94 73 165 35 35 75 86 88 111
l24 47 18 -40 c35 -77 64 -93 99 -55 18 19 18 22 2 56 -32 65 -21 99 71 235
54 81 76 153 69 233 -3 34 -8 70 -12 81 -13 38 33 -27 65 -90 40 -80 70 -203
70 -284 0 -233 -76 -584 -160 -739 -19 -35 -40 -100 -55 -167 -40 -187 -79
-280 -139 -333 -57 -49 -133 -62 -174 -29 -10 8 -9 13 3 28 20 21 16 68 -7 83
-13 7 -26 6 -52 -6 -69 -33 -94 -110 -54 -167 35 -52 90 -76 173 -76 60 0 79
5 133 34 85 46 117 85 125 150 8 69 48 146 130 253 68 90 105 177 92 218 -5
15 -3 18 9 14 19 -7 42 67 58 181 6 44 12 85 13 90 2 6 28 18 58 28 81 26 142
90 107 112 -6 4 -29 -9 -50 -29 -32 -29 -48 -36 -81 -36 l-40 0 5 53 c3 28 8
99 12 157 3 58 11 111 17 118 6 7 26 20 46 28 37 15 51 30 51 53 0 10 -13 12
-55 9 l-55 -5 0 173 c0 95 4 184 10 199 7 20 5 43 -12 98 -19 64 -21 97 -22
300 l-1 228 25 -6 c14 -3 39 -21 56 -40 32 -37 42 -35 58 9 11 31 -3 55 -42
75 -20 11 -48 31 -61 45 -26 28 -33 81 -45 361 l-6 141 41 -4 c26 -3 44 -11
52 -23 17 -28 27 -23 27 12 0 45 -15 66 -64 88 -66 29 -72 49 -80 246 -4 94
-9 192 -13 218 l-6 48 39 -18 c22 -9 48 -25 60 -35 25 -22 40 -23 48 -2 10 27
-26 75 -78 104 -74 39 -82 62 -90 248 -4 86 -9 181 -13 211 -5 50 -4 54 13 46
11 -5 34 -8 52 -7 39 2 72 -13 72 -32 0 -15 24 -28 34 -19 11 11 6 54 -9 83
-11 21 -25 31 -53 36 -55 10 -88 30 -100 61 -7 16 -13 107 -14 210 l-3 181 50
-5 c28 -3 59 -12 70 -19 25 -17 65 -18 65 -1 0 23 -17 38 -67 61 -66 31 -118
78 -136 124 -10 25 -17 99 -22 235 l-7 197 24 0 c46 0 48 10 48 241 l0 217 53
-15 c28 -9 56 -19 62 -24 18 -18 26 -8 23 28 -2 31 -8 40 -33 51 -111 48 -111
49 -120 336 l-7 228 44 -29 c45 -30 146 -68 155 -59 3 3 3 16 -1 30 -4 16 -24
34 -60 54 -81 47 -101 93 -101 242 0 75 6 145 19 201 l19 87 43 -42 c24 -22
57 -53 74 -68 19 -17 30 -36 30 -54 0 -26 1 -26 29 13 16 22 43 45 60 53 17 7
31 16 31 21 0 5 -2 9 -4 9 -2 0 -27 5 -57 10 -159 30 -150 182 24 420 l62 85
5 -85 c7 -93 22 -134 75 -190 77 -82 97 -174 50 -236 -18 -23 -25 -45 -25 -75
l0 -43 31 30 c17 16 45 54 62 84 29 50 32 52 37 30 15 -62 92 -12 109 72 15
70 -4 190 -32 201 -21 8 -57 -29 -57 -57 0 -22 -4 -26 -29 -26 -39 0 -77 32
-109 93 -22 44 -27 64 -27 132 0 44 9 116 19 160 l19 80 19 -45 c25 -57 45
-80 73 -80 41 0 49 23 25 71 -12 23 -24 65 -27 94 -5 46 -1 63 25 117 28 58
63 108 75 108 3 0 8 -10 11 -22 3 -13 16 -34 27 -48 20 -24 21 -24 35 -5 8 10
14 42 14 72 0 69 32 134 98 195 45 43 129 94 138 86 2 -2 -5 -26 -15 -54 -10
-27 -22 -69 -26 -92 -6 -39 -4 -49 25 -88 l32 -45 -17 -42 c-10 -23 -21 -82
-24 -131 -7 -106 -19 -120 -75 -93 -20 9 -42 14 -49 11 -35 -13 -48 -109 -26
-186 12 -44 21 -48 37 -14 5 13 37 44 70 69 l60 45 12 -64 c6 -36 22 -90 35
-121 38 -84 33 -193 -9 -236 -14 -14 -12 -19 20 -51 26 -26 34 -41 29 -56 -3
-11 -3 -20 2 -20 22 0 77 45 106 86 l32 46 28 -61 c16 -34 31 -79 34 -101 3
-22 9 -40 12 -40 16 0 72 69 92 114 30 69 37 191 15 251 -18 46 -42 65 -98 79
-26 6 -28 4 -28 -27 0 -92 -94 -71 -139 32 -45 107 -77 303 -65 406 l7 56 24
-43 c32 -56 72 -98 94 -98 23 0 34 68 26 156 -4 35 -5 64 -4 64 2 0 18 -11 37
-25 47 -35 70 -33 70 5 0 24 -10 37 -55 70 -72 53 -85 80 -85 177 1 149 29
266 84 345 15 21 15 20 32 -21 9 -23 29 -51 45 -62 22 -16 29 -28 29 -55 0
-44 12 -43 33 1 24 50 21 72 -13 112 -60 67 -33 147 105 313 48 58 93 113 99
123 16 25 26 21 26 -13 0 -68 21 -126 61 -169 42 -47 54 -77 47 -115 -5 -22
-3 -23 24 -14 43 15 125 100 136 139 8 31 -2 89 -15 89 -2 0 -16 -13 -30 -30
-30 -36 -51 -38 -88 -8 -81 64 -88 225 -14 329 21 30 21 30 36 9 10 -14 23
-20 41 -18 26 3 27 6 32 74 6 77 8 82 102 200 35 44 73 93 84 108 l19 27 1
-95 c1 -84 5 -102 34 -163 42 -90 50 -164 22 -202 -32 -44 3 -58 51 -21 l26
21 8 -38 c4 -21 8 -89 8 -151 l-1 -113 49 2 c102 5 190 118 204 262 13 147
-50 246 -142 223 -20 -5 -25 -13 -25 -37 0 -67 -72 -36 -102 44 -25 67 -41
210 -33 297 7 76 40 200 53 200 4 0 18 -35 32 -78 16 -51 30 -77 40 -77 13 0
16 30 21 185 6 157 19 260 33 260 2 0 13 -14 24 -31 10 -17 30 -36 43 -42 13
-7 33 -31 44 -54 23 -50 41 -55 50 -13 9 41 -2 68 -46 117 -69 75 -66 132 14
266 63 106 107 192 116 225 6 21 8 20 39 -20 18 -24 40 -69 49 -101 9 -32 21
-56 27 -54 6 2 12 26 14 53 2 42 -2 57 -27 94 -50 74 -41 122 61 304 33 60 71
133 82 163 l22 53 36 -43 c42 -51 68 -99 68 -127 0 -42 34 -15 43 35 4 23 -3
46 -30 94 -27 49 -36 76 -37 115 0 64 9 88 105 261 43 77 85 159 95 183 l17
43 32 -31 c45 -44 86 -122 88 -169 1 -43 17 -46 36 -5 23 50 14 89 -33 144
-81 94 -84 172 -15 369 81 234 209 712 209 782 0 57 20 -13 70 -241z m-21
-1879 c6 -10 15 -153 21 -317 18 -513 37 -801 66 -974 12 -67 13 -95 5 -98
-15 -5 -14 -38 1 -65 13 -24 11 -122 -3 -148 -4 -9 -17 -19 -28 -22 -16 -4
-20 3 -25 55 -5 44 -14 67 -35 90 -47 52 -89 13 -98 -92 -7 -74 -22 -67 -39
18 -8 40 -8 64 -1 80 8 18 6 36 -8 77 -18 54 -18 57 14 412 42 474 50 574 60
793 8 158 12 186 27 197 24 17 31 16 43 -6z m3 -1511 c10 -19 18 -56 18 -82 0
-43 2 -48 23 -48 45 0 66 26 69 87 2 31 8 58 14 60 12 4 18 -20 30 -113 6 -50
6 -51 -30 -72 -39 -23 -47 -53 -22 -87 9 -12 10 -27 5 -44 -5 -14 -11 -56 -15
-93 -4 -49 -10 -68 -20 -68 -10 0 -14 12 -14 38 -1 133 -74 200 -133 121 -11
-16 -20 -51 -24 -97 -5 -60 -9 -72 -24 -72 -25 0 -29 21 -31 154 -1 113 -2
117 -27 136 -24 17 -26 24 -26 101 0 52 4 84 11 86 21 7 44 -28 44 -67 0 -42
20 -70 51 -70 16 0 19 7 19 55 0 65 23 118 48 113 9 -2 25 -19 34 -38z m-176
-292 c4 -13 8 -55 9 -95 2 -75 14 -103 46 -103 26 0 33 17 40 97 6 80 27 116
63 111 29 -4 56 -63 56 -124 0 -108 69 -95 71 14 1 78 11 107 34 107 21 0 22
-4 44 -149 11 -78 4 -102 -34 -112 -34 -8 -38 -31 -15 -79 28 -57 28 -157 0
-185 -39 -39 -68 -15 -80 67 -13 97 -42 131 -100 118 -43 -9 -57 -33 -63 -109
-7 -75 -20 -98 -51 -94 -18 3 -22 13 -29 83 -9 77 -9 90 -4 164 2 29 -3 37
-28 51 l-30 17 1 94 c1 123 7 149 39 149 16 0 26 -7 31 -22z m-47 -367 c18
-18 24 -49 33 -156 3 -24 8 -31 29 -33 40 -5 69 38 69 99 0 85 27 119 84 105
27 -7 42 -40 52 -111 8 -58 27 -85 62 -85 47 0 62 25 62 107 0 56 4 75 15 79
30 12 42 -14 48 -109 3 -51 9 -101 12 -109 4 -11 -7 -31 -30 -57 -21 -23 -35
-48 -33 -59 2 -10 -2 -25 -9 -33 -6 -8 -13 -25 -15 -39 -4 -33 -32 -33 -36 1
-3 24 -8 27 -64 33 -34 3 -99 6 -144 6 l-84 0 0 -35 c0 -28 -4 -35 -20 -35
-14 0 -22 11 -30 40 -7 26 -17 40 -27 40 -15 0 -15 -2 0 -18 10 -10 17 -28 17
-40 0 -25 31 -45 55 -36 9 4 19 20 22 36 l6 29 126 -3 c121 -3 126 -4 129 -25
5 -37 28 -47 51 -24 12 12 21 29 21 40 0 15 10 19 62 24 35 3 64 5 65 3 1 -1
6 -28 11 -59 9 -56 8 -58 -17 -70 -14 -6 -35 -31 -46 -54 -11 -23 -30 -52 -43
-65 -47 -51 -17 -90 77 -101 30 -4 61 -13 70 -21 10 -11 17 -51 23 -135 4 -71
15 -144 26 -176 19 -55 19 -56 -1 -70 -19 -13 -20 -21 -13 -110 7 -108 27
-219 50 -284 20 -54 62 -111 82 -111 12 0 11 -7 -6 -40 -24 -48 -26 -97 -3
-122 18 -20 63 -24 81 -6 14 14 16 48 4 48 -5 0 -8 -10 -8 -22 1 -18 -5 -24
-25 -26 -55 -6 -75 53 -41 118 16 28 27 36 71 46 28 6 62 21 75 33 l23 22 7
-137 c4 -75 6 -138 4 -139 -11 -11 -198 -26 -345 -28 l-172 -2 -35 90 c-18 50
-53 150 -76 223 -56 180 -75 222 -99 222 -28 0 -55 -65 -105 -263 -14 -53 -53
-163 -86 -244 -33 -80 -60 -154 -60 -163 0 -9 14 -36 30 -58 17 -23 30 -54 30
-69 0 -25 -3 -23 -28 22 -18 34 -34 51 -49 53 -20 3 -31 -13 -88 -129 -36 -72
-65 -137 -65 -145 0 -7 11 -33 24 -58 14 -26 22 -54 19 -66 -5 -18 -10 -13
-36 29 -45 73 -70 76 -97 11 -10 -25 -15 -27 -38 -20 -33 10 -422 33 -430 25
-12 -12 12 -15 208 -26 113 -6 210 -14 217 -18 8 -4 -1 -27 -27 -71 -45 -74
-48 -100 -20 -153 32 -59 23 -77 -10 -20 -16 28 -34 54 -40 58 -15 10 -45 -30
-91 -120 -50 -101 -57 -172 -20 -221 17 -24 21 -36 13 -50 -9 -16 -10 -16 -16
2 -3 11 -23 37 -44 58 l-39 37 -46 -90 c-66 -129 -68 -148 -22 -224 21 -34 41
-66 44 -72 3 -5 -14 7 -38 27 -24 20 -56 41 -71 47 -24 8 -29 7 -33 -11 -11
-42 -30 -324 -24 -349 4 -17 18 -31 37 -39 28 -12 57 -46 48 -56 -2 -2 -20 7
-39 20 -18 13 -45 27 -58 31 -24 7 -24 7 -18 -56 4 -35 9 -107 13 -159 l7 -95
43 -40 c52 -49 60 -81 9 -36 -62 54 -65 47 -65 -142 l0 -141 50 -47 c28 -26
50 -55 50 -65 0 -16 -2 -16 -22 3 -27 24 -89 55 -96 48 -3 -2 -5 -73 -6 -156
l-1 -151 48 -41 c27 -25 47 -50 47 -62 -1 -18 -1 -19 -11 -2 -10 17 -59 47
-79 47 -6 0 -10 -56 -10 -164 0 -150 2 -165 21 -190 11 -14 27 -26 34 -26 19
0 45 -28 45 -48 0 -13 -5 -11 -23 10 -20 23 -56 48 -71 48 -3 0 -6 -77 -6
-171 l0 -170 34 -32 c19 -18 37 -43 41 -56 7 -24 6 -23 -31 7 -63 52 -64 51
-64 -122 0 -162 4 -176 48 -190 9 -3 23 -15 30 -26 11 -19 9 -18 -28 5 -22 14
-42 25 -45 25 -9 0 -5 -298 5 -324 5 -15 24 -32 45 -40 25 -11 35 -21 35 -37
0 -21 0 -21 -17 -1 -10 11 -30 27 -44 36 -26 16 -27 16 -33 -6 -3 -13 -6 -56
-6 -95 0 -83 -1 -81 99 -152 74 -53 124 -118 161 -209 28 -70 90 -175 90 -154
0 7 -12 31 -27 54 l-26 42 12 1231 c17 1602 23 1854 46 1920 31 89 82 138 160
155 l30 6 -4 126 c-2 69 0 162 4 207 l7 82 72 -6 72 -7 38 115 c52 159 123
299 190 375 70 79 105 130 155 226 l41 76 41 -82 c52 -105 101 -180 151 -238
94 -106 189 -298 204 -409 l7 -53 82 4 82 3 7 -104 c3 -57 6 -148 6 -201 l0
-97 38 -11 c76 -23 139 -100 163 -200 5 -20 25 -703 44 -1516 20 -814 38
-1482 40 -1485 3 -2 7 -2 10 1 9 8 -64 2902 -74 2971 -18 114 -76 201 -156
234 l-45 18 -1 55 c-5 206 -15 355 -24 353 -5 -1 -42 -4 -81 -8 l-71 -7 -17
74 c-27 122 -112 282 -216 409 -35 43 -87 125 -123 196 -34 68 -64 123 -67
123 -3 0 -29 -47 -57 -103 -32 -62 -77 -131 -113 -173 -33 -38 -75 -91 -93
-119 -33 -49 -133 -280 -158 -362 l-12 -43 -79 0 -78 0 0 -204 0 -204 -29 -7
c-16 -3 -49 -19 -74 -35 -59 -37 -93 -107 -107 -215 -10 -86 -30 -1688 -30
-2515 l-1 -505 -25 52 c-34 70 -102 144 -180 195 l-64 42 0 83 0 84 28 -15
c15 -8 34 -26 41 -40 17 -32 31 -25 31 16 0 32 -24 68 -45 68 -43 0 -64 102
-50 243 l7 77 29 -16 c17 -8 33 -22 36 -30 8 -22 23 -17 23 9 0 30 -25 64 -61
82 l-29 16 0 139 c0 157 5 166 59 105 l31 -36 0 41 c0 32 -7 48 -37 81 l-38
42 -3 139 c-2 78 0 144 5 149 15 15 39 0 59 -37 25 -47 36 -43 32 13 -3 43 -6
48 -43 67 l-40 21 -3 163 c-1 89 1 162 6 162 10 0 56 -49 70 -75 9 -17 11 -16
17 17 10 51 -1 75 -45 103 -29 19 -41 33 -46 60 -7 42 -1 241 8 250 13 13 63
-21 78 -52 21 -45 30 -41 30 15 0 44 -3 50 -46 87 l-46 40 -3 79 c-3 104 5
206 17 206 6 0 22 -13 38 -30 15 -16 30 -26 34 -23 13 13 5 64 -11 78 -10 7
-29 22 -42 32 -19 16 -25 32 -32 99 -4 43 -8 109 -8 147 l-1 68 33 -17 c17 -9
44 -28 60 -42 l27 -26 0 28 c0 39 -14 61 -56 85 l-37 22 6 132 c8 158 16 217
30 217 19 0 84 -50 97 -75 18 -34 30 -31 30 8 0 22 -12 50 -35 83 -21 30 -35
61 -35 79 0 30 53 150 82 189 14 18 16 17 40 -15 15 -19 33 -50 41 -69 l15
-35 11 28 c16 41 13 68 -9 97 -24 30 -26 91 -5 150 21 60 85 162 99 158 6 -2
24 -30 40 -61 20 -41 32 -54 37 -45 14 21 10 81 -6 102 -22 29 -18 78 8 117
12 19 40 64 62 102 21 37 42 67 46 67 13 0 47 -50 59 -86 15 -43 25 -43 40 1
10 32 9 41 -14 86 l-27 50 29 69 c16 37 46 98 66 135 32 56 40 64 52 54 23
-19 37 -50 44 -94 l5 -40 17 25 c32 48 31 72 -1 120 -17 25 -31 57 -31 72 0
15 15 62 34 105 46 104 76 190 126 358 23 77 48 151 55 164 l13 25 19 -40 c11
-21 44 -112 72 -202 29 -90 74 -216 102 -280 27 -64 49 -126 49 -138 0 -12
-14 -39 -31 -60 -25 -32 -30 -45 -25 -73 3 -19 15 -44 26 -55 l20 -20 0 42 c0
32 7 49 28 73 l28 32 62 -122 c34 -67 62 -132 62 -146 0 -13 -10 -40 -22 -60
-17 -30 -19 -43 -12 -73 11 -44 29 -52 38 -17 9 35 49 95 60 92 18 -6 136
-202 136 -225 0 -12 -9 -41 -21 -63 -17 -35 -19 -45 -8 -77 l12 -36 22 49 c12
28 29 56 39 64 20 17 26 10 81 -91 47 -87 56 -153 26 -201 -24 -39 -27 -85 -8
-112 13 -17 14 -16 20 13 4 18 22 49 41 69 l34 38 41 -85 c58 -121 59 -135 19
-195 -42 -61 -50 -82 -42 -107 5 -18 9 -17 36 16 33 40 86 72 98 59 10 -10 30
-203 30 -285 0 -57 -1 -59 -35 -79 -41 -24 -55 -46 -55 -84 l0 -27 42 36 c69
59 74 54 70 -76 -3 -147 -13 -181 -57 -207 -31 -18 -35 -25 -35 -61 0 -22 3
-40 6 -40 3 0 17 14 31 30 47 57 53 45 53 -111 l0 -141 -46 -42 c-43 -40 -45
-44 -42 -91 l3 -50 21 36 c13 21 34 41 52 47 l29 10 7 -60 c9 -87 7 -183 -3
-210 -5 -13 -27 -36 -50 -51 -37 -25 -41 -31 -41 -70 0 -57 8 -63 34 -25 11
17 31 38 44 46 l22 14 0 -146 c0 -81 -4 -156 -10 -166 -5 -10 -25 -27 -44 -38
-38 -23 -52 -56 -41 -99 l6 -27 21 35 c19 34 55 65 65 56 2 -3 4 -71 4 -153
l-1 -147 -33 -31 c-22 -20 -36 -45 -41 -70 -9 -46 -2 -55 21 -28 10 11 30 28
46 37 l27 17 0 -136 c0 -151 6 -134 -71 -200 -11 -9 -19 -29 -19 -48 l0 -31
23 20 c12 11 32 26 45 32 l22 12 0 -128 c0 -70 -3 -138 -6 -151 -4 -13 -23
-31 -45 -43 -37 -18 -39 -22 -39 -66 l0 -47 34 37 c18 20 39 37 45 37 7 0 11
-28 11 -79 l0 -79 -66 -48 c-65 -48 -89 -75 -77 -88 3 -3 12 3 20 14 8 11 42
40 77 65 61 43 64 47 68 94 3 27 3 74 0 105 -4 53 -5 55 -26 44 -11 -6 -34
-22 -50 -37 -25 -23 -28 -24 -24 -6 2 11 20 29 41 40 22 12 41 32 47 49 12 34
14 316 2 316 -4 0 -24 -11 -45 -25 -25 -18 -37 -21 -37 -12 0 7 16 21 35 30
20 9 40 28 45 43 14 35 13 291 -1 299 -5 4 -28 -5 -50 -19 -50 -33 -51 -14 -1
32 l37 35 3 174 c2 95 1 173 -3 173 -16 0 -66 -32 -79 -52 l-16 -22 0 22 c0
15 12 28 40 42 23 12 45 32 50 46 6 14 10 95 10 180 0 173 -2 177 -66 129 -38
-29 -44 -30 -44 -10 0 8 20 28 44 45 25 16 48 40 53 53 8 21 7 297 -1 305 -7
6 -90 -40 -103 -57 -11 -14 -12 -14 -13 4 0 12 19 37 46 60 37 32 46 48 51 82
6 48 4 47 123 64 86 12 129 29 74 29 -31 0 -148 -17 -177 -26 -15 -5 -18 -1
-15 18 3 20 11 24 68 34 96 17 150 17 150 0 0 -8 11 -27 25 -42 28 -30 30 -46
14 -128 -9 -41 -9 -63 -1 -80 16 -36 5 -37 -48 -5 -79 49 -107 114 -52 122
l27 4 -26 2 c-15 0 -33 -6 -40 -15 -20 -24 16 -82 74 -119 46 -29 47 -31 43
-75 -4 -49 29 -1222 39 -1390 4 -58 13 -132 20 -164 l14 -59 -32 -37 c-18 -21
-49 -66 -70 -101 -40 -67 -40 -63 -22 -184 l6 -40 -15 40 c-16 43 -39 65 -68
65 -27 0 -22 -17 8 -24 27 -7 54 -56 54 -98 0 -21 3 -20 22 10 20 33 21 36 5
84 -14 43 -14 56 -3 89 15 42 108 178 112 163 2 -5 8 -76 13 -157 l10 -148
-57 -77 c-90 -122 -172 -295 -172 -364 0 -37 18 -16 25 30 10 71 50 156 120
263 88 133 88 132 109 50 l18 -68 -56 -77 c-62 -87 -91 -167 -83 -228 11 -81
64 -119 115 -81 31 23 39 60 18 88 -18 25 -32 14 -15 -13 16 -25 6 -49 -26
-64 -21 -9 -28 -8 -45 7 -47 43 -42 133 13 228 31 52 77 110 84 103 7 -6 83
-308 83 -329 0 -10 -14 -38 -31 -63 -37 -54 -37 -102 -1 -120 34 -17 52 -9
124 52 34 29 68 54 73 54 10 0 12 -287 2 -314 -3 -7 -21 -15 -41 -18 -20 -2
-32 0 -29 6 7 10 13 10 -317 -28 -344 -40 -751 -76 -942 -83 -98 -3 -178 -10
-178 -15 0 -4 -12 -8 -27 -8 -47 0 -104 -21 -130 -47 l-25 -24 -27 25 c-29 28
-78 49 -85 37 -3 -4 15 -17 39 -29 27 -13 51 -34 61 -54 l17 -33 14 32 c17 44
50 63 117 70 68 7 86 -5 86 -58 0 -33 3 -39 22 -39 27 0 58 27 58 52 0 27 42
40 140 41 l85 2 0 -41 0 -40 35 6 c32 5 35 8 32 37 -4 42 20 57 125 78 137 28
164 12 129 -75 -17 -43 -14 -50 25 -50 34 0 69 41 69 81 0 15 7 34 15 42 15
16 135 32 190 25 30 -3 30 -4 27 -55 -4 -50 -2 -53 20 -53 31 0 40 8 71 61 36
63 71 78 204 85 59 4 114 12 122 18 19 15 -53 -124 -78 -151 -21 -23 -31 -26
-104 -38 -32 -5 -41 -12 -53 -40 -16 -40 -18 -79 -4 -105 8 -15 5 -19 -23 -24
-195 -35 -906 -90 -1322 -102 -296 -9 -696 16 -1198 73 -127 14 -147 19 -140
32 4 9 7 35 8 59 l0 43 55 -5 c236 -25 777 -62 1040 -72 318 -11 1303 46 1508
87 93 19 49 21 -90 5 -547 -64 -1259 -90 -1703 -62 -394 25 -874 66 -914 79
-30 10 -42 23 -71 80 -19 37 -46 79 -59 92 l-23 25 49 -6 c205 -23 244 -37
273 -94 12 -24 29 -40 46 -44 33 -9 41 -2 20 19 -9 9 -16 24 -16 33 0 9 -3 26
-6 37 -5 20 -2 20 103 12 149 -12 153 -13 153 -43 0 -38 18 -64 55 -80 48 -20
59 -18 41 8 -9 12 -16 38 -16 57 l0 34 103 -6 c120 -6 154 -17 168 -54 12 -32
36 -61 61 -74 15 -8 16 -3 11 45 -5 50 -4 53 18 59 13 4 59 7 101 7 l76 0 47
-54 c25 -30 54 -56 65 -59 21 -5 28 7 10 18 -5 3 -10 20 -10 36 0 23 7 34 30
47 16 9 30 20 30 23 0 3 -60 9 -132 12 -139 7 -692 52 -1058 87 -118 11 -226
19 -240 19 l-25 -1 25 -8 c14 -4 43 -8 64 -9 51 -1 44 -7 -18 -14 -46 -5 -51
-3 -90 34 l-41 39 0 149 0 149 55 -39 c31 -22 61 -39 66 -39 19 0 50 -44 62
-86 16 -54 15 -76 -2 -100 -13 -16 -18 -17 -35 -6 -12 7 -21 8 -21 2 0 -5 12
-13 27 -16 19 -5 30 -2 40 11 14 20 16 78 4 110 -7 16 -3 22 23 30 23 7 32 17
34 36 3 30 9 30 147 9 33 -6 95 -12 139 -15 43 -3 139 -12 213 -20 74 -8 139
-15 144 -15 5 0 9 -11 9 -25 0 -24 -3 -25 -32 -21 -18 3 -103 13 -188 21 -85
9 -157 18 -160 20 -3 1 -54 6 -115 9 -60 4 -118 9 -127 12 -10 3 -18 1 -18 -5
0 -6 17 -11 37 -11 20 0 73 -5 117 -10 45 -6 169 -19 276 -30 107 -11 256 -27
330 -35 74 -9 144 -13 155 -11 11 3 113 1 228 -5 l207 -11 36 27 35 27 41 -27
41 -27 166 11 c91 6 220 11 286 11 66 0 147 4 180 9 33 6 217 28 409 50 192
23 351 43 354 46 12 12 -8 14 -68 5 -36 -5 -101 -11 -145 -15 -44 -3 -91 -8
-105 -10 -20 -4 -384 -45 -397 -45 -1 0 -3 9 -3 20 0 24 5 25 200 45 394 38
475 47 479 51 19 18 -92 9 -636 -51 l-43 -5 0 56 0 56 31 -26 c38 -33 60 -33
98 0 35 29 41 67 14 96 -20 22 -36 23 -54 2 -11 -13 -9 -14 13 -9 52 13 59
-58 8 -85 -32 -17 -57 -11 -80 17 -19 25 -21 38 -18 114 3 75 8 94 42 163 l38
78 32 -63 c19 -39 32 -56 34 -46 2 9 -6 32 -17 51 -12 18 -21 48 -21 66 0 21
-4 30 -12 28 -20 -7 -77 -108 -97 -173 -24 -76 -34 -56 -28 57 7 131 -64 3138
-75 3183 -13 54 -89 127 -150 145 l-46 14 -6 65 c-3 36 -9 113 -12 171 -4 58
-11 110 -16 117 -5 7 -36 15 -69 19 l-59 7 0 46 c0 144 -109 362 -282 560
l-36 43 -74 -89 c-146 -176 -228 -347 -243 -508 l-7 -74 -72 -3 -71 -3 -9
-196 -9 -197 -37 -6 c-54 -8 -102 -45 -128 -97 -28 -56 -32 -155 -62 -1329
-12 -448 -27 -1056 -36 -1350 -8 -294 -14 -590 -13 -657 0 -70 -4 -130 -10
-142 -14 -25 -71 -37 -100 -22 -40 22 -21 81 26 81 13 0 23 5 23 10 0 15 -27
12 -60 -5 -60 -31 -25 -110 48 -110 51 0 88 32 101 89 l10 41 -3 -53 c-2 -30
-10 -60 -20 -70 -9 -10 -16 -28 -16 -40 0 -11 -4 -23 -8 -26 -8 -5 -233 18
-437 43 -44 6 -112 12 -151 14 -69 4 -73 5 -109 45 -34 38 -37 46 -33 89 4 45
39 232 60 316 l9 37 23 -27 c38 -45 83 -125 96 -168 17 -58 -1 -122 -36 -131
-34 -9 -74 11 -74 35 0 11 5 23 10 26 6 3 10 11 10 17 0 6 -9 3 -20 -7 -25
-23 -26 -61 -1 -75 32 -16 86 -12 105 9 10 11 20 43 23 73 7 67 -12 115 -85
211 l-52 68 25 72 c19 54 28 113 38 237 l14 165 38 -79 c34 -69 39 -91 43
-165 2 -47 9 -92 14 -98 10 -12 48 -19 48 -9 0 2 3 13 7 23 6 17 6 17 -14 0
-28 -25 -34 -12 -37 81 -2 61 -10 94 -36 156 l-33 78 12 557 c6 306 11 687 11
847 l0 291 39 12 c51 15 81 53 81 100 0 41 -29 81 -58 81 -13 -1 -10 -6 11
-21 21 -16 27 -29 27 -58 0 -43 -25 -72 -77 -89 -29 -9 -33 -8 -48 15 -22 34
-12 155 17 195 22 32 18 58 -17 91 -12 12 -26 32 -29 44 -6 18 -1 25 25 38 36
19 104 15 197 -12 52 -14 81 -11 52 7 -16 10 -123 30 -161 30 -29 0 -43 9 -52
34 -7 17 -3 18 66 11 41 -3 90 -10 111 -15 33 -7 58 1 38 14 -13 8 -213 27
-222 21 -31 -19 -60 38 -60 117 l0 48 32 -13 c17 -7 34 -19 38 -27 28 -60 38
-75 52 -78 19 -4 145 115 134 125 -4 4 -33 -21 -66 -56 -66 -70 -79 -71 -100
-6 -8 25 -22 38 -55 54 -25 12 -45 27 -45 34 0 35 -46 148 -83 205 -35 54 -45
62 -72 62 -17 0 -41 7 -53 16 -28 20 -49 12 -62 -21 -8 -20 -3 -46 20 -119 17
-51 39 -105 50 -119 39 -49 36 -75 -18 -182 l-49 -98 -51 83 c-29 46 -52 92
-52 102 0 11 9 37 20 59 13 25 24 73 29 131 12 126 -5 178 -57 178 -24 0 -24
2 -18 46 3 26 6 133 6 238 l1 191 27 -35 c15 -19 53 -59 85 -89 33 -32 61 -67
65 -85 9 -35 -23 -29 317 -55 82 -6 157 -14 167 -17 10 -3 18 -1 18 4 0 5 -34
13 -75 17 l-75 7 0 86 0 87 106 -3 c70 -2 111 1 118 8 8 8 -21 11 -111 9 -97
-1 -126 2 -144 15 -13 9 -35 16 -49 16 -15 0 -34 6 -44 13 -17 12 -19 35 -21
250 -1 130 0 237 1 237 2 0 17 -20 34 -45 17 -25 45 -52 63 -61 56 -28 97 -74
97 -110 0 -39 -20 -57 -57 -52 -23 2 -28 7 -26 26 2 13 -1 21 -7 17 -19 -12
-10 -45 15 -55 46 -18 85 10 85 62 0 19 5 19 140 12 106 -5 143 -4 155 6 11 9
15 32 15 86 l0 73 -37 10 c-20 6 -39 8 -43 6 -4 -2 -15 2 -25 9 -25 18 -34
105 -34 326 l0 175 37 -41 c20 -23 57 -55 82 -71 63 -43 82 -67 87 -111 4 -34
1 -42 -23 -61 -32 -25 -57 -27 -74 -6 -10 12 -10 21 -1 41 15 34 13 43 -4 20
-18 -24 -19 -58 -3 -74 37 -37 118 10 118 68 l0 30 191 0 c134 0 188 3 183 11
-3 6 -29 9 -63 7 l-56 -3 0 125 0 125 -55 14 c-41 10 -65 11 -95 3 -22 -6 -44
-8 -49 -5 -9 6 0 356 10 399 5 20 6 20 35 -7 17 -16 51 -34 77 -41 39 -11 50
-20 65 -51 12 -23 17 -47 13 -62 -13 -53 -95 -59 -97 -7 -2 24 -2 25 -6 4 -6
-29 13 -52 42 -52 29 0 75 36 75 60 0 19 19 30 51 30 27 0 72 97 104 224 28
109 65 347 65 415 0 27 6 52 16 62 9 10 19 38 21 62 5 38 2 46 -21 64 -52 41
-22 63 86 63 121 0 139 -12 94 -59 -23 -25 -25 -35 -36 -226 -13 -237 -37
-504 -50 -560 -5 -22 -10 -43 -10 -47 0 -15 18 -8 24 8 14 36 37 283 49 508
l12 240 29 -45 c16 -24 40 -59 54 -78 l25 -33 42 67 42 67 7 -64 c3 -34 11
-133 16 -218 15 -234 43 -445 61 -456 11 -7 11 11 0 72 -10 49 -39 337 -62
599 -8 86 -17 146 -26 156 -16 20 -17 44 0 56 33 27 194 22 212 -6 3 -5 -11
-18 -30 -30 -43 -25 -45 -52 -9 -122 17 -34 33 -97 49 -194 25 -151 52 -268
87 -375 25 -79 60 -149 65 -133 2 6 -5 29 -16 51 -11 22 -33 84 -49 138 -32
106 -97 422 -90 429 3 3 18 -1 34 -9 46 -22 78 -30 70 -17 -4 6 -15 11 -24 11
-39 0 -82 40 -115 106 l-32 66 38 30 c43 34 46 51 15 72 -27 19 -168 22 -201
5 -42 -22 -48 -50 -17 -76 30 -26 25 -55 -24 -134 l-44 -71 -32 44 c-37 51
-70 112 -70 130 0 7 12 24 25 37 50 47 24 72 -80 79 -101 6 -143 -3 -157 -34
-11 -23 -8 -29 20 -55 26 -24 31 -35 26 -57 -12 -52 -51 -99 -103 -123 -28
-13 -50 -27 -51 -32 0 -10 70 20 90 38 9 8 20 15 23 15 9 0 1 -64 -34 -261
-45 -259 -83 -365 -138 -386 -30 -11 -32 -10 -44 20 -12 27 -9 45 20 151 46
167 79 372 66 406 -14 37 32 358 54 383 20 21 84 39 126 35 28 -3 32 0 35 25
2 16 -5 38 -17 53 -12 15 -21 34 -21 44 0 9 -20 36 -45 59 -42 40 -45 45 -45
95 0 29 3 55 6 59 3 3 20 1 37 -5 27 -10 33 -8 54 16 37 44 39 71 7 99 -26 23
-28 30 -27 95 1 93 20 182 39 182 8 0 23 -9 33 -19z m931 -1925 l0 -64 -87 -9
c-49 -5 -89 -7 -91 -3 -1 3 -26 3 -55 -1 -28 -4 -94 -8 -144 -8 -63 -1 -93 -5
-93 -13 0 -8 33 -9 125 -4 68 3 131 9 140 12 13 5 15 -9 15 -109 0 -126 2
-131 60 -142 34 -6 148 6 182 20 15 6 17 1 15 -43 -3 -66 14 -86 67 -79 22 3
46 14 53 23 16 22 16 26 0 47 -11 16 -12 14 -12 -15 0 -26 -5 -34 -28 -42 -44
-16 -61 2 -65 63 -3 51 -2 53 45 99 27 26 67 69 89 96 25 31 45 47 52 42 9 -5
12 -76 12 -267 l0 -259 -75 0 c-85 0 -80 7 -69 -98 7 -61 7 -62 42 -68 59 -11
204 12 264 42 69 34 136 89 161 132 36 60 45 -2 31 -205 l-7 -91 -198 -18
c-110 -10 -199 -22 -199 -26 0 -4 4 -8 9 -8 19 0 319 30 354 36 l37 6 0 -64
c0 -34 -4 -68 -8 -74 -7 -12 -110 -28 -244 -40 -43 -3 -75 -10 -72 -15 2 -5
17 -6 32 -4 15 2 56 6 91 9 56 5 62 4 51 -9 -9 -11 -11 -37 -7 -90 l7 -75 -38
-1 c-20 0 -46 -4 -57 -9 -13 -6 2 -7 42 -3 44 4 67 2 78 -7 20 -17 156 2 261
35 l72 22 13 -31 c11 -25 21 -32 48 -34 38 -4 51 9 50 48 -1 22 -2 22 -8 -5
-7 -33 -41 -46 -67 -25 -16 14 -19 66 -4 75 17 11 130 163 140 189 11 30 25
33 34 9 11 -29 19 -416 9 -441 -6 -16 -28 -31 -64 -46 l-54 -21 1 -70 c1 -117
12 -160 50 -206 19 -22 34 -46 34 -51 0 -6 -22 -45 -48 -87 -27 -42 -52 -85
-56 -96 -6 -16 -16 -5 -51 65 -24 47 -44 94 -44 105 -1 10 16 36 36 57 40 41
50 84 52 209 1 53 -1 57 -25 62 -44 8 -95 -10 -135 -49 -46 -45 -96 -136 -105
-192 -5 -33 -12 -43 -34 -51 -45 -15 -70 -47 -70 -86 0 -19 -5 -35 -10 -35 -6
0 -33 22 -60 49 -27 27 -68 60 -90 72 l-41 23 7 58 c4 32 4 58 0 58 -15 0 -81
-32 -98 -47 -10 -9 -21 -14 -24 -10 -3 3 5 15 17 26 90 80 82 63 75 161 l-7
88 38 6 c21 3 160 20 308 36 261 29 373 45 383 55 8 7 -4 6 -103 -9 -172 -27
-612 -70 -623 -60 -2 1 -8 38 -13 80 -6 43 -12 80 -14 82 -7 7 -71 -31 -102
-61 -36 -34 -43 -27 -15 14 9 14 27 41 40 60 17 26 21 42 16 69 -8 45 -85 201
-102 208 -17 6 -44 -21 -71 -72 -17 -33 -22 -36 -27 -21 -4 10 -1 27 6 39 35
55 40 72 34 116 -7 53 -50 148 -94 209 -30 41 -32 42 -50 26 -11 -10 -28 -36
-39 -59 -19 -37 -21 -39 -21 -14 0 15 4 30 10 33 5 3 14 24 20 45 9 34 8 46
-11 82 -12 24 -31 56 -41 71 -11 16 -19 29 -17 31 2 1 94 13 204 25 204 23
286 39 214 40 -19 1 -82 -6 -140 -14 -57 -8 -142 -17 -189 -21 -47 -3 -88 -8
-92 -10 -4 -3 -19 14 -34 36 -16 24 -34 40 -43 38 -9 -2 -30 -27 -47 -56 -24
-40 -33 -48 -38 -36 -4 10 5 38 19 66 19 36 24 58 20 79 l-7 29 66 0 c37 0 66
4 66 10 0 6 -31 10 -72 11 l-73 1 -54 109 c-30 60 -58 109 -62 109 -19 0 -61
-48 -74 -85 l-14 -40 -1 41 c0 27 6 46 17 55 9 8 22 28 30 46 11 28 11 39 -3
79 -8 25 -14 48 -12 50 3 2 103 8 224 13 121 6 231 14 244 20 14 5 26 10 28
10 1 1 2 -28 2 -63z m-491 -895 c6 -10 24 -148 41 -307 l31 -288 -82 -203
c-74 -182 -85 -203 -106 -203 -18 0 -23 -5 -23 -27 0 -19 14 -40 49 -74 61
-58 79 -86 96 -141 l13 -43 100 208 c55 114 103 207 106 207 3 0 6 -58 6 -128
l0 -129 -96 -154 c-53 -85 -98 -158 -101 -162 -3 -5 4 -4 15 2 32 17 34 14 27
-30 -4 -22 -4 -62 0 -87 l7 -47 104 110 104 110 0 -92 0 -92 -75 -53 -75 -53
5 -45 c3 -25 1 -60 -4 -77 -5 -18 -8 -33 -6 -33 2 0 33 14 70 30 37 17 71 30
76 30 5 0 9 -22 9 -50 0 -43 -3 -50 -22 -55 -17 -4 -23 -13 -23 -33 -1 -15 -4
-37 -9 -50 -7 -21 -5 -22 19 -16 l27 7 -3 -64 c-2 -43 2 -72 11 -89 10 -17 15
-54 15 -110 0 -79 -2 -88 -32 -133 l-33 -48 25 -11 c22 -10 25 -17 25 -65 0
-29 -3 -53 -6 -53 -4 0 -25 15 -48 33 -58 47 -58 47 -106 33 -76 -22 -74 -31
28 -165 l92 -120 -2 -176 -3 -175 -124 241 c-91 177 -120 244 -112 252 18 18
13 25 -19 32 -16 4 -30 10 -30 13 1 23 86 94 153 126 85 41 117 77 143 162 23
78 18 139 -16 199 -16 28 -34 69 -39 91 l-9 39 -1 -45 c0 -25 6 -67 14 -94 21
-68 19 -124 -7 -201 -28 -88 -63 -125 -115 -125 -27 0 -46 6 -58 20 -17 19
-17 22 9 92 38 105 35 139 -20 223 -39 60 -45 76 -41 108 6 46 0 47 -19 2 -21
-51 -17 -78 15 -119 43 -54 56 -100 42 -147 -17 -57 -109 -189 -131 -189 -51
0 -80 42 -72 103 6 49 -13 91 -55 126 -19 16 -45 50 -58 77 l-23 48 -12 -41
c-15 -50 -5 -84 46 -159 46 -67 45 -108 -5 -141 -58 -39 -138 -27 -215 32 -65
49 -68 127 -11 268 30 76 31 98 6 121 -21 19 -26 16 -36 -34 -4 -19 -20 -60
-35 -90 -38 -76 -45 -127 -26 -192 19 -66 55 -104 154 -162 108 -62 142 -103
142 -170 0 -19 5 -47 10 -62 6 -15 8 -29 6 -32 -3 -2 -13 23 -22 56 -14 50
-22 63 -45 73 -37 15 -111 3 -89 -15 8 -6 23 -21 33 -33 19 -21 18 -24 -65
-182 -45 -88 -85 -161 -88 -161 -10 0 -140 111 -140 120 0 4 56 81 125 170 69
89 125 165 124 169 0 3 -22 20 -48 37 l-48 30 -49 -38 -49 -38 -27 30 c-16 17
-28 35 -28 40 0 5 17 19 38 29 65 35 64 33 46 77 -9 21 -20 41 -24 44 -10 6
-50 73 -50 83 0 4 7 7 15 7 8 0 18 8 23 18 14 27 23 114 13 126 -5 6 -23 35
-40 65 l-32 54 43 -7 c24 -4 58 -9 76 -12 28 -6 32 -4 32 16 0 31 -35 77 -64
84 -19 5 -30 20 -46 62 -11 31 -19 58 -17 60 2 3 71 -26 153 -64 134 -61 149
-71 152 -95 4 -31 3 -32 -61 -12 l-47 14 25 -33 c14 -18 25 -38 25 -44 0 -27
31 -9 55 31 31 54 31 88 2 152 -20 42 -41 63 -137 135 l-115 85 -17 95 c-10
52 -17 99 -15 103 1 4 49 -44 107 -107 97 -105 106 -113 114 -93 17 41 32 72
46 93 12 19 4 36 -93 191 l-107 170 1 134 1 134 133 -268 c73 -148 136 -272
140 -275 4 -4 5 11 1 33 -17 117 -18 120 -2 140 10 13 15 15 16 6 0 -7 16 -31
36 -53 35 -39 83 -128 85 -158 2 -38 18 30 18 80 1 51 -2 60 -52 126 -63 83
-85 148 -69 201 10 33 5 50 -72 242 l-84 206 47 264 c36 206 47 256 53 230 4
-19 28 -200 53 -404 53 -426 52 -422 67 -407 8 8 8 22 -2 51 -15 48 -8 130 17
187 l17 39 6 -60 c5 -40 19 -82 42 -126 35 -65 36 -66 41 -35 2 17 29 223 58
458 30 236 55 428 56 428 1 0 7 -8 12 -19z m908 -1018 c29 -19 60 -45 69 -58
10 -15 26 -25 40 -25 21 0 24 5 24 35 0 41 36 85 70 85 18 0 20 -6 20 -60 0
-87 -11 -95 -140 -104 -132 -8 -180 -16 -180 -29 0 -6 15 -7 38 -3 20 4 74 9
120 13 78 6 82 5 82 -14 0 -20 45 -73 61 -73 17 0 9 -28 -15 -51 -19 -19 -37
-24 -88 -25 -34 -1 -89 -5 -120 -9 l-58 -6 0 45 0 44 50 11 c28 6 75 14 105
17 30 4 55 11 55 16 0 10 -83 3 -155 -13 -58 -12 -65 -11 -65 11 0 11 -3 20
-8 20 -11 0 -55 -30 -69 -48 -11 -14 -13 -13 -13 5 0 14 13 29 35 43 47 29 52
41 60 137 5 57 11 81 19 76 6 -4 35 -22 63 -40z m-3277 -371 c70 -194 73 -266
14 -353 l-34 -51 0 -180 c0 -117 -3 -177 -10 -173 -6 4 -10 78 -10 190 l0 184
-29 21 c-17 11 -42 45 -57 76 -26 54 -27 58 -15 122 14 74 89 265 101 257 5
-3 22 -44 40 -93z m4323 -13 c54 -137 71 -252 46 -316 -6 -15 -22 -43 -36 -61
-25 -34 -25 -35 -24 -213 2 -120 -1 -179 -8 -179 -7 0 -11 62 -11 185 l0 185
-42 38 c-72 65 -84 128 -47 248 30 97 78 199 88 188 4 -5 20 -39 34 -75z
m-4127 -371 c23 -51 29 -77 29 -138 0 -41 -3 -87 -8 -102 -10 -37 -45 -68 -76
-68 -22 0 -32 -11 -61 -68 -41 -78 -51 -64 -16 23 23 55 24 61 9 77 -9 10 -18
40 -21 68 -4 45 1 61 49 160 30 60 57 109 60 109 4 1 19 -27 35 -61z m-396 15
c73 -83 105 -217 68 -290 -14 -28 -13 -35 9 -93 34 -91 13 -104 -26 -17 -17
38 -41 73 -56 83 -15 10 -42 38 -61 62 -27 35 -34 54 -34 88 0 47 46 204 59
204 5 0 24 -17 41 -37z m4732 -60 c25 -56 29 -166 9 -226 -12 -37 -51 -67 -85
-67 -13 0 -65 -75 -80 -115 -2 -5 -6 -7 -10 -4 -3 3 6 34 21 68 25 59 26 64
11 89 -38 64 -34 92 28 220 65 132 63 131 106 35z m-356 -41 c35 -72 44 -164
20 -211 -16 -30 -16 -35 3 -87 38 -100 19 -119 -23 -24 -16 36 -41 71 -62 88
-19 15 -46 44 -61 64 -23 34 -25 44 -21 105 3 38 16 94 28 126 l22 59 33 -32
c18 -17 45 -57 61 -88z m-3881 -293 c9 -27 33 -71 53 -97 77 -101 42 -232 -62
-232 -24 0 -57 -32 -183 -179 -17 -19 -32 -30 -36 -25 -3 6 19 39 50 74 30 36
66 79 80 97 l24 32 -27 41 c-40 60 -43 123 -10 197 36 78 75 143 86 143 4 0
16 -23 25 -51z m4329 -32 c10 -27 34 -69 53 -93 68 -90 51 -196 -37 -223 -69
-21 -70 -22 -152 -117 -73 -84 -98 -107 -98 -87 0 4 36 50 80 102 44 52 80 98
80 102 0 3 -7 12 -16 19 -45 38 -58 106 -34 184 21 68 88 182 100 169 3 -4 15
-30 24 -56z m-4909 -39 c25 -33 48 -71 51 -84 7 -28 0 -141 -10 -165 -4 -10
14 -48 54 -108 55 -84 70 -122 47 -122 -5 0 -32 40 -62 88 -58 95 -62 99 -117
108 -21 3 -49 16 -63 28 -33 29 -55 92 -44 126 5 14 22 64 39 111 16 47 30 86
30 87 0 1 7 0 15 -3 8 -4 35 -33 60 -66z m297 25 c44 -45 58 -79 58 -140 0
-53 -24 -109 -56 -130 -21 -13 -24 -23 -24 -78 0 -44 5 -66 16 -75 26 -22 67
-100 74 -142 11 -58 -5 -102 -50 -141 -37 -32 -40 -38 -40 -86 0 -42 4 -56 22
-71 20 -15 21 -22 13 -56 -8 -29 -15 -39 -30 -39 -16 0 -21 9 -27 50 -3 28 -7
78 -7 112 -1 59 -3 63 -30 78 -39 20 -72 68 -78 114 -6 46 23 109 74 162 34
35 35 38 28 92 -5 42 -13 60 -30 71 -77 50 -71 231 10 294 15 12 31 22 34 22
4 0 23 -17 43 -37z m4070 -111 c17 -36 20 -55 15 -105 -3 -34 -9 -71 -12 -82
-4 -14 12 -48 55 -115 33 -52 59 -98 57 -104 -8 -24 -25 -11 -57 46 -65 114
-87 138 -123 138 -67 0 -136 76 -124 139 4 21 32 101 73 211 8 20 86 -68 116
-128z m292 36 c14 -29 26 -67 26 -85 0 -48 -28 -110 -61 -134 -26 -18 -29 -26
-29 -78 0 -49 4 -61 26 -82 40 -36 74 -116 74 -173 0 -47 -3 -53 -50 -97 l-50
-47 1 -69 c2 -73 -11 -113 -36 -113 -25 0 -28 44 -6 81 12 19 21 51 21 74 0
35 -4 42 -30 54 -46 20 -80 76 -80 131 0 49 33 113 82 158 22 20 24 29 20 75
-4 42 -11 58 -37 84 -71 69 -68 197 6 275 l38 40 30 -21 c16 -12 41 -44 55
-73z m-2198 -312 c14 -11 20 -30 24 -82 4 -50 9 -70 23 -78 25 -15 57 24 57
70 0 45 38 89 69 79 l23 -7 -27 -29 c-19 -19 -30 -45 -36 -80 -4 -28 -15 -62
-24 -75 -14 -22 -21 -24 -109 -24 -51 0 -107 -3 -123 -6 -48 -9 -66 17 -58 82
6 50 5 53 -24 74 -34 24 -41 50 -13 50 30 0 60 -28 67 -63 4 -17 14 -45 22
-60 14 -28 15 -28 34 -12 14 14 18 29 16 69 -1 36 3 60 16 79 20 30 34 33 63
13z m-2628 -52 c35 -13 74 -24 87 -24 38 0 94 -77 110 -150 5 -24 31 -60 83
-115 60 -64 71 -81 57 -84 -13 -2 -38 18 -80 62 -53 59 -63 65 -90 61 -39 -7
-137 29 -180 67 -38 33 -70 103 -80 173 -7 46 -6 49 11 41 11 -4 47 -18 82
-31z m903 -34 c-3 -139 -85 -225 -208 -219 l-56 3 -77 -84 c-42 -45 -82 -81
-89 -79 -7 3 19 38 64 86 69 74 76 87 86 140 23 126 50 155 179 188 36 9 72
21 80 25 21 12 23 8 21 -60z m3485 -9 c62 -12 108 -61 131 -140 13 -46 31 -72
99 -145 46 -50 84 -94 84 -100 0 -5 -7 -1 -16 10 -15 19 -16 19 -8 -1 3 -11 9
-35 13 -54 7 -37 30 -58 54 -48 8 3 23 31 32 62 14 49 21 58 52 71 48 20 58 6
28 -38 -14 -20 -30 -58 -36 -85 -7 -26 -13 -53 -15 -60 -2 -7 -28 -11 -74 -11
-76 0 -100 12 -100 51 -1 29 -36 107 -62 135 l-21 22 29 0 c16 0 42 -7 58 -15
16 -9 31 -13 33 -11 3 3 -8 11 -24 19 -15 9 -48 36 -73 61 -40 41 -49 46 -90
46 -46 0 -138 36 -174 68 -31 29 -67 112 -73 168 l-6 54 55 -25 c30 -14 77
-29 104 -34z m844 1 c0 -27 -7 -71 -15 -100 -27 -88 -126 -152 -216 -138 -34
5 -40 2 -78 -39 -23 -25 -49 -45 -58 -45 -12 0 -3 14 29 48 39 40 47 56 58
112 22 119 43 141 172 180 51 15 96 28 101 29 4 0 7 -21 7 -47z m-2385 -387
l98 -240 -2 -135 c-2 -74 -6 -200 -10 -280 l-6 -145 -111 435 c-91 357 -109
438 -99 450 30 35 27 58 -10 91 -19 18 -35 36 -35 41 0 11 63 37 71 29 3 -3
50 -114 104 -246z m-160 171 c44 -19 45 -44 4 -95 l-30 -38 3 -230 c2 -184 0
-233 -11 -246 -14 -17 -49 -21 -88 -11 l-23 6 0 238 c0 199 -2 240 -15 250
-28 23 -16 29 63 33 l77 4 -88 -1 c-92 0 -106 6 -107 46 0 46 141 75 215 44z
m-189 -111 c15 -15 24 -36 24 -55 0 -24 -51 -242 -86 -366 -6 -21 -8 -21 -75
18 -38 22 -69 43 -69 46 0 4 37 98 82 209 57 138 85 197 91 187 4 -8 19 -25
33 -39z m-2131 -29 c28 -12 35 -21 40 -53 14 -84 14 -84 43 -81 23 3 29 10 39
52 14 57 37 86 70 86 28 0 28 -1 3 -50 -11 -22 -20 -51 -20 -65 0 -14 -6 -38
-14 -53 -13 -26 -17 -27 -79 -24 -65 4 -66 4 -80 40 -8 20 -18 56 -22 79 -3
23 -13 47 -21 54 -16 13 -18 29 -4 29 6 0 26 -6 45 -14z m149 -991 c8 -150 16
-205 31 -235 18 -35 19 -72 3 -88 -15 -15 -142 -16 -169 -2 -24 14 -24 35 2
121 15 50 25 68 37 67 10 -1 37 0 61 0 37 2 42 4 31 17 -7 8 -10 22 -6 30 6
16 -3 18 -66 15 l-38 -2 0 234 c0 128 -3 319 -6 423 -5 172 -4 188 10 171 14
-17 16 -18 22 -2 6 15 7 15 18 0 11 -14 14 -13 32 12 l19 29 7 -350 c4 -192 9
-390 12 -440z m4275 438 c-4 -170 -7 -350 -8 -400 l-1 -93 -48 0 -49 0 -7 363
c-4 199 -10 379 -13 400 l-6 37 69 0 69 0 -6 -307z m-2198 59 c20 -2 46 1 58
7 23 13 20 20 46 -107 20 -96 19 -107 -6 -131 -14 -13 -20 -27 -16 -40 5 -20
1 -21 -68 -21 l-73 0 -7 31 c-4 17 -9 28 -13 25 -13 -13 -32 19 -32 55 0 39
25 174 36 191 3 5 13 6 23 2 9 -4 32 -9 52 -12z m147 -318 c30 -20 28 -58 -3
-78 -36 -24 -31 -44 15 -62 35 -14 45 -26 74 -88 19 -39 44 -86 56 -103 l22
-33 -50 0 c-55 0 -87 22 -117 80 l-17 33 -18 -41 c-15 -33 -26 -43 -57 -51
-82 -23 -127 -4 -140 59 -6 31 -23 42 -23 14 0 -8 -13 -29 -29 -45 -25 -24
-38 -29 -79 -29 l-51 0 41 92 c42 99 47 105 91 115 34 7 54 38 36 59 -6 8 -17
14 -24 14 -23 0 -37 27 -26 49 13 24 35 28 171 30 81 1 111 -3 128 -15z m2080
-379 c26 -89 27 -93 5 -117 -25 -27 -135 -26 -164 3 -14 14 -19 28 -15 45 4
13 9 51 13 84 l6 60 66 0 67 0 22 -75z m-2083 6 c77 -5 150 -4 163 0 21 8 23
6 20 -13 -4 -31 -15 -31 -365 -23 -230 6 -293 10 -293 20 0 7 6 16 13 18 19 8
307 7 462 -2z m220 -65 l130 -11 3 -81 3 -81 -83 -6 c-46 -4 -140 -9 -209 -13
-125 -6 -126 -6 -167 21 l-42 28 -36 -28 -36 -28 -182 7 c-99 4 -196 9 -213
13 l-33 5 0 94 0 93 93 4 c148 5 631 -5 772 -17z m1893 -163 c33 -25 41 -72
15 -95 -13 -12 -48 -17 -135 -20 -115 -5 -118 -5 -133 18 -20 30 -19 68 1 85
48 40 205 47 252 12z m-4286 -10 c33 -31 35 -56 9 -82 -16 -16 -34 -19 -117
-19 -86 0 -102 3 -121 21 -30 27 -29 61 3 86 22 18 41 21 112 21 80 0 88 -2
114 -27z m4298 -159 c19 -4 35 -15 40 -28 56 -137 101 -259 97 -263 -3 -2 -21
-1 -41 3 -49 9 -90 52 -105 111 -23 89 -27 91 -38 21 -14 -82 -39 -137 -70
-151 -52 -23 -94 29 -115 143 -7 33 -15 60 -18 60 -4 0 -10 -29 -14 -64 -9
-95 -23 -126 -62 -142 -47 -20 -77 -18 -70 4 2 9 14 67 26 127 12 61 23 117
26 126 7 27 55 42 149 49 136 10 160 11 195 4z m-4234 -35 c50 -24 59 -46 67
-156 6 -74 16 -103 48 -139 19 -20 19 -20 -37 -14 -69 8 -86 26 -116 127 -12
40 -25 70 -28 65 -4 -4 -12 -26 -19 -50 -15 -54 -65 -112 -97 -112 -32 0 -52
34 -66 109 -6 33 -14 61 -17 61 -3 0 -15 -21 -25 -48 -39 -98 -87 -133 -136
-102 -12 8 -11 13 7 38 12 16 34 74 48 128 15 55 29 102 32 107 2 4 70 7 150
7 128 0 152 -3 189 -21z m4024 -239 c46 -90 134 -54 165 67 l12 46 24 -49 c32
-64 61 -83 148 -95 69 -10 75 -9 97 12 27 26 32 24 40 -18 6 -29 4 -31 -40
-42 -98 -24 -749 -95 -761 -82 -3 2 -5 26 -5 53 0 45 11 61 26 37 6 -11 34 -9
131 10 89 17 99 28 119 136 l7 40 8 -38 c5 -20 18 -55 29 -77z m-4263 5 c17
-45 22 -50 52 -53 41 -4 75 25 103 87 l20 44 24 -59 c37 -92 57 -106 150 -107
44 -1 92 2 107 6 l28 8 -3 -48 -3 -48 -45 2 c-68 4 -692 63 -717 69 -19 3 -23
11 -23 40 0 33 2 35 28 30 15 -3 58 -8 95 -12 80 -8 91 -1 127 77 19 40 26 47
31 32 4 -10 15 -40 26 -68z m-402 -93 c35 -10 577 -67 823 -88 46 -4 100 -12
120 -19 26 -9 41 -10 49 -3 9 7 22 7 42 -2 17 -6 33 -10 38 -7 4 3 94 -1 198
-9 853 -61 1201 -78 1420 -71 172 6 831 50 1225 82 102 8 217 15 256 15 43 0
87 6 110 16 28 12 43 13 55 6 26 -16 577 37 749 72 36 8 79 11 97 9 18 -3 45
2 64 11 44 22 47 21 55 -21 6 -35 30 -93 38 -93 2 0 17 5 35 11 24 8 39 8 61
-1 17 -7 30 -16 30 -20 0 -5 13 -11 29 -15 16 -3 36 -14 46 -25 16 -17 12 -19
-92 -44 -183 -43 -488 -87 -818 -116 -195 -17 -225 -21 -225 -31 0 -7 20 -8
53 -4 28 3 160 17 292 31 392 40 647 82 794 130 41 13 78 21 82 17 4 -5 12
-53 18 -108 6 -55 13 -111 16 -125 5 -21 -2 -30 -45 -58 -52 -33 -106 -98
-116 -139 -4 -13 -10 -23 -14 -23 -12 0 -23 37 -15 50 3 5 2 10 -4 10 -16 0
-58 -61 -73 -109 -21 -62 -28 -33 -28 120 0 77 -4 129 -10 129 -5 0 -157 -24
-337 -54 -181 -30 -388 -62 -460 -72 -73 -10 -133 -22 -133 -26 0 -4 9 -8 19
-8 21 0 36 2 549 86 189 31 346 53 349 50 3 -3 9 -70 13 -148 7 -150 20 -197
59 -218 20 -10 51 -4 51 10 0 4 -16 18 -36 29 -35 21 -36 24 -32 65 3 25 15
58 28 76 l22 31 44 -62 c67 -95 70 -151 14 -208 -57 -56 -132 -52 -169 10 -24
39 -51 182 -51 268 0 61 -1 63 -22 58 -34 -9 -418 -62 -628 -88 -102 -12 -189
-26 -195 -31 -5 -4 4 -8 20 -8 51 0 668 84 778 106 27 6 27 5 27 -46 0 -66 37
-248 56 -277 8 -13 29 -30 47 -40 l32 -17 -75 -13 c-60 -10 -404 -54 -627 -79
-24 -3 -43 -10 -43 -16 0 -6 13 -8 33 -4 17 3 174 24 347 45 466 59 710 101
710 123 0 6 -11 7 -26 4 -50 -13 -216 -46 -230 -46 -7 0 5 17 27 38 34 31 42
46 46 84 5 39 0 55 -27 106 l-33 59 22 46 c22 45 88 119 123 138 16 9 18 5 18
-40 0 -27 5 -62 10 -77 9 -24 6 -31 -33 -73 -54 -58 -74 -103 -61 -139 10 -29
57 -43 77 -23 8 8 3 10 -20 5 -26 -5 -32 -3 -38 16 -4 12 -4 32 -1 44 6 26 62
106 74 106 4 0 14 -20 21 -45 7 -25 22 -56 33 -70 14 -18 18 -33 13 -55 -10
-43 20 -40 83 10 27 22 53 40 57 40 4 0 5 -61 3 -135 -2 -110 -6 -136 -18
-139 -21 -6 -67 -14 -120 -21 -25 -4 -130 -19 -235 -35 -104 -15 -282 -40
-395 -55 -113 -14 -212 -29 -220 -32 -45 -16 34 -10 271 22 516 70 722 106
782 136 21 11 41 19 43 17 2 -2 5 -30 6 -62 3 -52 0 -60 -22 -77 -70 -53 -183
-74 -1082 -202 l-98 -14 0 114 c0 104 -7 132 -26 102 -4 -6 -35 -24 -70 -40
-56 -26 -86 -31 -286 -49 -282 -25 -695 -54 -1138 -80 -190 -11 -394 -22 -454
-26 l-108 -6 21 28 c32 44 36 85 12 111 l-20 21 37 6 c20 3 163 10 317 16 267
10 433 17 895 40 177 9 263 16 405 35 17 2 44 4 62 4 29 1 35 7 63 62 16 34
30 66 30 73 0 6 -16 24 -36 40 -45 36 -64 80 -64 151 0 30 -4 55 -8 55 -17 0
-101 -62 -116 -86 -20 -30 -30 -25 -56 26 -52 101 37 280 178 359 26 15 7 24
-19 10 -41 -21 -130 -112 -152 -154 -11 -22 -26 -65 -33 -95 l-12 -55 -12 33
c-7 17 -16 32 -22 32 -13 0 -68 -33 -68 -40 0 -4 -7 -15 -16 -26 -14 -17 -15
-10 -11 89 5 106 0 124 -25 89 -7 -11 -22 -24 -34 -30 -13 -7 -228 -22 -535
-37 -283 -14 -572 -29 -644 -34 -150 -8 -185 -2 -219 41 l-24 31 -33 -38 -34
-38 -230 6 c-126 3 -414 11 -640 17 -225 6 -426 15 -445 20 -20 5 -56 26 -80
47 l-43 37 7 -39 c3 -22 9 -89 12 -150 l5 -110 -24 56 c-52 124 -87 160 -87
92 0 -21 -5 -45 -10 -53 -7 -12 -10 -8 -10 14 0 16 -10 50 -22 75 -26 55 -173
205 -189 195 -8 -5 -2 -14 17 -27 48 -34 133 -128 154 -172 11 -23 20 -59 20
-81 0 -41 -30 -109 -48 -109 -6 0 -21 15 -34 34 -26 39 -74 78 -84 68 -4 -3 7
-23 23 -44 61 -77 75 -129 52 -190 -19 -51 -59 -52 -59 -1 0 17 -4 27 -10 23
-5 -3 -10 -20 -10 -36 0 -56 68 -57 93 -2 11 25 11 25 27 -23 20 -63 63 -94
133 -94 72 0 120 30 149 94 20 45 22 66 21 178 l-1 127 56 -4 c59 -5 372 -23
880 -50 315 -17 376 -14 426 26 l26 20 26 -20 c15 -12 38 -21 53 -21 23 1 21
3 -12 14 -21 8 -46 21 -56 30 -17 15 -19 15 -31 1 -34 -41 -70 -50 -200 -47
-120 2 -939 45 -1105 58 l-80 6 3 -116 c4 -140 -12 -207 -58 -251 -28 -27 -38
-30 -95 -30 -56 0 -68 3 -91 26 -38 38 -43 102 -14 182 12 34 27 68 32 74 6 7
21 38 33 70 l24 58 31 -68 c37 -79 43 -146 15 -177 -24 -26 -45 -25 -45 2 0
16 -3 19 -11 11 -8 -8 -7 -19 3 -40 17 -37 54 -38 81 -2 24 33 33 164 19 284
-5 44 -8 82 -6 84 1 2 15 -6 31 -16 51 -36 92 -43 257 -43 146 0 335 -6 926
-26 l196 -7 32 33 32 32 31 -26 c17 -14 41 -29 54 -32 14 -3 206 4 427 15 222
12 498 26 613 31 261 13 287 16 319 41 l26 20 0 -90 c0 -105 16 -232 35 -278
11 -27 20 -33 44 -33 35 0 49 27 30 62 l-13 23 -5 -23 c-16 -63 -61 12 -61
100 0 46 5 62 26 87 14 17 32 31 39 31 7 0 22 -22 34 -50 12 -27 37 -76 56
-107 40 -67 44 -107 16 -170 -22 -48 -66 -75 -123 -77 -75 -2 -135 95 -158
251 -5 38 -10 87 -10 111 l0 43 -67 -5 c-38 -3 -310 -18 -605 -33 -295 -15
-535 -29 -533 -31 10 -10 97 -8 480 13 231 13 484 27 562 30 l141 7 7 -58 c20
-181 46 -254 107 -310 38 -34 44 -36 90 -32 93 9 143 72 143 178 0 75 27 130
76 155 31 17 26 27 44 -89 3 -20 22 -53 47 -81 l41 -47 -26 -52 c-28 -58 -31
-60 -177 -72 -30 -2 -131 -11 -225 -19 -242 -21 -473 -33 -920 -49 -214 -7
-408 -14 -429 -14 -29 -1 -53 7 -88 29 l-48 31 -47 -35 c-60 -44 -85 -46 -303
-36 -360 19 -879 49 -980 59 -247 22 -548 35 -535 22 6 -5 111 -15 235 -21
124 -7 376 -21 560 -32 477 -27 880 -49 918 -49 30 0 32 -2 21 -21 -14 -28 -5
-86 18 -112 l18 -20 -290 7 c-159 3 -461 18 -670 31 -209 14 -484 30 -611 37
l-232 12 21 28 c33 45 29 104 -8 135 -17 14 -60 51 -96 84 -63 54 -67 57 -73
36 -3 -12 -6 -37 -6 -56 0 -32 -1 -33 -32 -28 -18 4 -71 9 -118 12 -208 16
-598 86 -656 119 -21 12 -49 37 -62 56 -31 46 -26 112 12 171 16 23 34 58 40
78 7 20 17 36 21 36 5 0 22 -24 37 -54 31 -59 36 -116 14 -147 -13 -16 -18
-17 -35 -6 -17 10 -21 10 -21 0 0 -25 18 -40 41 -36 42 6 60 62 67 211 7 131
7 132 32 135 25 3 777 -93 816 -104 12 -3 24 -1 28 4 3 5 -13 13 -37 16 -66
11 -810 106 -828 106 -14 0 -18 -19 -24 -122 l-7 -123 -17 41 c-18 47 -70 124
-82 124 -5 0 -9 -11 -9 -24 0 -56 -12 -59 -41 -8 -15 27 -48 67 -73 89 l-45
39 6 112 c3 62 10 112 15 112 6 0 98 -18 206 -40 109 -22 330 -60 492 -84 162
-25 315 -48 340 -52 30 -4 42 -3 35 3 -5 6 -59 18 -120 27 -60 9 -198 30 -305
46 -162 25 -603 104 -647 116 -7 2 -13 14 -13 27 0 23 3 23 55 19 46 -4 61 0
102 24 75 45 81 46 127 24 33 -16 133 -30 491 -69 257 -29 454 -46 459 -41 5
5 -10 11 -35 15 -66 9 -851 95 -870 95 -11 0 -15 7 -13 23 2 12 6 43 9 69 l6
48 27 -14 c15 -8 45 -19 67 -24z m1232 -22 c31 0 155 -11 277 -25 567 -63 945
-77 1391 -51 379 22 635 43 850 68 99 12 214 22 255 22 l75 1 3 -42 3 -41 -63
-6 c-97 -9 -560 -44 -883 -66 -584 -39 -587 -39 -1505 20 -256 17 -480 33
-498 36 -32 5 -32 6 -27 42 11 62 12 63 40 52 15 -6 51 -10 82 -10z m-1637
-462 c87 -86 114 -150 81 -196 -11 -16 -23 -41 -27 -58 l-7 -29 -10 30 c-5 17
-29 56 -53 88 -42 55 -44 60 -44 127 0 81 9 87 60 38z m-1461 -260 c24 -17 68
-43 97 -58 l54 -27 -44 -17 c-59 -23 -84 -51 -68 -76 10 -17 9 -20 -11 -25
-38 -10 -72 11 -109 67 -42 63 -68 143 -68 211 l0 49 52 -47 c29 -26 72 -61
97 -77z m1452 54 c40 -62 38 -122 -3 -122 -10 0 -16 -4 -13 -10 9 -14 31 -12
48 5 13 13 16 11 26 -18 7 -17 26 -46 43 -64 l32 -33 -34 5 c-19 3 -68 13
-108 22 -40 8 -76 13 -79 9 -11 -10 -1 -14 87 -29 47 -9 135 -25 195 -36 127
-23 562 -88 679 -102 44 -5 81 -11 83 -12 1 -2 -1 -31 -5 -66 l-7 -63 -54 36
c-29 20 -55 36 -57 36 -2 0 -4 -52 -4 -115 0 -63 -2 -115 -5 -115 -3 0 -119
16 -258 36 -394 55 -588 89 -924 161 -21 5 -23 11 -23 75 l0 71 38 -6 c20 -3
177 -30 347 -60 171 -31 396 -69 500 -86 105 -17 205 -34 223 -37 17 -2 32 -1
32 4 0 6 -37 15 -82 21 -131 19 -776 130 -910 157 -32 6 -33 17 -22 182 l7 90
50 -54 c46 -51 51 -54 71 -41 14 9 23 29 27 58 8 55 51 159 62 152 5 -3 22
-26 38 -51z m7617 -11 c-4 -48 -14 -88 -35 -133 -41 -87 -73 -118 -119 -118
-33 0 -36 2 -30 23 9 36 -54 87 -106 87 -16 0 -8 7 29 24 63 30 151 90 213
145 25 22 47 40 49 41 2 0 1 -31 -1 -69z m-8830 -178 c62 -34 132 -116 132
-155 0 -19 4 -26 14 -22 21 8 36 51 36 105 0 28 4 49 9 47 25 -9 132 -101 165
-142 21 -25 49 -75 62 -110 28 -78 20 -122 -31 -173 -62 -62 -150 -35 -143 45
3 32 7 37 31 40 33 4 36 22 3 22 -65 0 -77 -101 -17 -147 22 -17 76 -16 111 2
38 20 80 92 80 138 0 66 29 43 54 -42 21 -73 21 -77 -15 -108 -17 -16 -43 -48
-58 -73 -24 -41 -26 -54 -26 -150 0 -100 2 -109 34 -175 45 -91 150 -197 246
-247 157 -82 325 -106 412 -60 23 12 45 22 48 22 4 0 4 -24 0 -52 -4 -34 -1
-73 9 -108 8 -30 13 -56 11 -58 -1 -2 -23 2 -49 9 -41 10 -46 14 -46 39 0 28
-33 80 -44 69 -4 -4 1 -20 11 -38 16 -28 17 -33 3 -58 -9 -16 -40 -43 -70 -61
-30 -18 -57 -37 -59 -43 -4 -13 73 25 116 57 27 20 39 23 73 18 54 -9 90 -38
90 -73 0 -54 -55 -96 -67 -51 -6 23 -23 27 -23 6 0 -19 27 -46 46 -46 20 0 64
49 64 71 0 16 7 14 49 -16 60 -43 120 -65 179 -65 44 0 45 -1 28 -19 -10 -11
-41 -29 -69 -42 -43 -19 -68 -23 -147 -22 -158 2 -276 52 -335 142 -23 34 -31
39 -78 44 -96 12 -261 77 -335 134 -54 40 -72 80 -71 145 2 72 21 93 75 85 20
-3 45 -14 55 -23 21 -19 26 -73 8 -91 -7 -7 -7 -13 0 -17 16 -10 32 31 29 72
-6 70 -112 109 -162 59 -13 -13 -25 -29 -27 -35 -3 -9 -31 2 -85 31 -107 57
-150 92 -179 142 -35 58 -33 82 8 99 99 41 104 186 7 186 -33 0 -75 -34 -64
-52 5 -8 12 -4 22 10 16 24 42 28 73 12 31 -17 26 -80 -9 -113 -56 -54 -117
-44 -207 35 -74 65 -132 156 -174 273 l-39 105 49 0 c28 0 66 7 86 15 32 14
35 18 30 45 -4 17 0 45 9 67 10 23 14 52 11 76 -10 72 -78 113 -110 66 -16
-21 -12 -63 5 -53 5 3 7 12 5 18 -9 23 9 39 35 33 45 -12 62 -90 33 -147 -14
-27 -20 -30 -66 -30 -27 0 -65 6 -83 14 -36 15 -79 65 -91 106 -11 35 -22 150
-15 150 4 0 30 -7 59 -16 72 -21 122 -3 101 37 -7 12 -4 21 8 31 53 46 100 49
170 11z m8599 -7 c17 -15 27 -34 28 -52 0 -28 1 -29 50 -27 28 0 64 4 81 8
l30 7 -6 -64 c-4 -34 -10 -74 -15 -88 -22 -73 -92 -119 -178 -120 -45 0 -49 2
-63 35 -29 71 -9 140 41 140 25 0 30 -4 29 -22 -1 -26 14 -31 22 -9 10 26 -15
56 -46 56 -62 0 -95 -79 -67 -160 8 -25 13 -56 11 -70 -7 -35 32 -55 108 -55
49 1 57 -2 52 -15 -3 -8 -20 -56 -38 -106 -49 -136 -136 -248 -239 -309 -44
-25 -52 -27 -87 -16 -21 6 -48 23 -59 38 -52 66 1 150 64 101 31 -24 47 -15
19 12 -50 48 -124 15 -124 -56 0 -46 31 -89 75 -105 26 -10 35 -19 35 -37 0
-36 -25 -76 -79 -124 -56 -51 -211 -134 -211 -114 0 18 -42 55 -65 57 -43 4
-65 -2 -94 -27 -33 -28 -42 -75 -20 -115 15 -29 29 -13 17 19 -18 47 -4 78 44
97 40 16 43 15 67 -3 25 -19 30 -33 33 -98 5 -96 -161 -207 -378 -251 -79 -16
-86 -20 -111 -56 -58 -83 -157 -127 -304 -134 -108 -6 -184 10 -233 50 l-29
24 59 5 c62 6 124 32 182 76 24 18 32 21 32 10 0 -9 9 -27 21 -42 33 -42 89
-33 89 15 0 5 -4 9 -10 9 -5 0 -10 -6 -10 -14 0 -38 -43 -28 -60 15 -19 45 -6
74 40 93 53 21 82 20 111 -3 37 -28 110 -63 117 -55 4 4 2 9 -4 11 -6 2 -35
18 -65 36 -65 39 -82 73 -56 116 20 33 21 41 7 41 -13 0 -40 -54 -40 -82 0
-20 -8 -25 -47 -35 -27 -6 -49 -10 -50 -9 -1 1 5 24 13 51 10 33 14 69 10 108
-3 31 -4 57 -2 57 3 0 25 -9 51 -20 166 -71 467 42 608 229 65 86 90 157 89
253 -1 94 -24 154 -84 215 l-40 41 12 54 c23 99 60 143 60 73 0 -79 59 -153
128 -162 36 -5 45 -2 72 25 23 23 30 39 30 69 0 48 -14 63 -59 63 -39 0 -32
-16 9 -22 20 -2 26 -9 28 -37 6 -62 -57 -100 -115 -68 -75 42 -91 148 -38 246
29 53 136 161 191 193 l29 16 -3 -54 c-3 -38 1 -62 12 -79 21 -32 36 -32 36
-1 0 34 83 130 133 155 58 29 118 28 154 -3z m-6272 -203 c26 -19 30 -28 30
-68 0 -76 -46 -100 -136 -73 l-39 11 0 56 c0 31 3 86 7 124 l6 67 51 -48 c28
-26 65 -57 81 -69z m-1722 20 c116 -61 179 -142 213 -275 19 -74 13 -151 -17
-210 l-21 -40 -23 35 c-39 56 -99 66 -135 22 -20 -24 -17 -125 4 -184 31 -84
91 -141 150 -141 16 0 33 -10 47 -29 43 -59 132 -89 183 -62 27 15 56 61 56
90 0 26 -34 61 -59 61 -23 0 -69 -36 -59 -46 5 -4 16 0 26 9 58 53 97 -28 41
-84 -29 -29 -96 -22 -145 16 -30 23 -34 31 -29 56 5 21 1 37 -16 60 -29 41
-36 107 -15 147 9 18 20 32 24 32 4 0 16 -16 26 -35 31 -57 87 -82 146 -65 28
8 37 6 61 -14 16 -13 48 -32 73 -41 38 -15 48 -24 65 -65 27 -63 26 -85 -7
-145 -22 -41 -38 -55 -87 -80 -103 -51 -228 -38 -395 44 -95 46 -211 158 -255
246 -41 83 -48 207 -15 284 53 123 195 180 274 111 47 -42 69 -93 63 -146 -4
-43 5 -59 17 -28 21 54 -12 143 -71 195 -33 29 -40 31 -92 26 -31 -2 -63 -7
-72 -11 -13 -6 -18 1 -24 31 -4 21 -16 58 -28 83 -20 40 -21 50 -10 83 9 26
10 51 4 78 -9 38 -8 39 12 33 12 -3 52 -22 90 -41z m7339 -17 c-2 -30 1 -62 6
-72 7 -12 3 -31 -14 -68 -12 -28 -26 -67 -29 -87 l-7 -36 -48 13 c-66 17 -109
4 -153 -46 -42 -46 -62 -104 -53 -154 10 -55 21 -43 21 22 0 97 62 168 145
165 75 -3 163 -69 195 -146 10 -24 16 -70 17 -118 1 -72 -2 -85 -37 -156 -90
-184 -314 -323 -519 -323 -61 0 -83 5 -132 30 -48 24 -64 39 -86 80 -34 61
-35 81 -4 147 19 41 30 52 54 58 17 3 48 19 69 34 34 25 45 27 94 23 52 -4 59
-2 92 28 21 18 40 43 43 56 9 33 19 30 39 -12 22 -47 16 -110 -16 -153 -19
-26 -21 -35 -12 -50 10 -16 6 -23 -20 -49 -67 -63 -120 -70 -161 -21 -14 17
-26 38 -26 48 0 37 46 55 70 26 7 -8 17 -12 22 -9 17 10 -24 44 -53 44 -37 0
-64 -39 -55 -76 11 -42 59 -84 96 -84 43 0 94 26 128 65 18 19 43 35 63 39 59
11 95 40 127 105 75 150 35 289 -67 236 -18 -9 -41 -30 -51 -48 l-19 -31 -21
46 c-30 68 -34 123 -16 202 21 90 69 179 120 222 38 33 168 103 191 104 6 0 9
-22 7 -54z m-3637 -74 c55 -44 60 -52 59 -85 -2 -66 -64 -104 -151 -94 -81 9
-129 67 -101 124 13 27 104 103 123 103 6 0 38 -22 70 -48z m2100 -189 c0 -3
-435 -54 -665 -78 -877 -89 -1430 -101 -2330 -50 -430 25 -1158 86 -1312 111
l-38 6 0 97 0 97 88 -43 c70 -35 101 -45 157 -49 194 -14 1242 -75 1460 -85
382 -18 724 -6 1710 61 617 42 822 67 891 109 l29 18 5 -96 c3 -53 5 -97 5
-98z m-5170 -83 c164 -6 190 -14 253 -74 41 -37 62 -76 62 -111 0 -14 6 -25
13 -25 43 1 62 66 42 143 -7 29 -12 54 -10 55 7 7 120 -30 170 -55 95 -48 174
-129 190 -196 4 -14 16 -33 26 -43 19 -17 21 -17 45 8 33 32 41 91 21 141 -9
20 -13 37 -10 37 3 0 35 -15 72 -32 44 -22 92 -58 143 -108 65 -64 78 -84 93
-132 19 -67 9 -125 -30 -164 -50 -50 -145 -24 -145 39 0 39 52 75 63 45 2 -7
8 -10 12 -6 13 12 -4 38 -25 38 -27 0 -70 -43 -70 -70 0 -35 28 -77 59 -88 46
-16 49 -46 9 -90 -46 -51 -62 -112 -56 -215 9 -182 131 -340 348 -451 139 -71
209 -91 326 -91 l102 0 5 -38 c3 -21 13 -47 22 -57 15 -16 13 -20 -30 -58
-117 -103 -293 -99 -476 8 -40 24 -69 48 -72 61 -8 30 8 65 38 85 24 16 29 16
67 0 46 -17 64 -12 34 10 -33 24 -83 28 -112 9 -36 -24 -59 -81 -44 -113 6
-14 8 -27 6 -30 -11 -11 -174 -2 -229 12 -81 22 -164 67 -223 120 -46 40 -53
53 -68 115 -21 88 -11 136 43 193 32 35 45 41 88 45 90 9 172 -36 214 -118 32
-64 23 -111 -28 -137 -43 -23 -125 -8 -138 26 -6 16 20 62 35 62 6 0 10 5 10
10 0 18 -20 11 -45 -16 -33 -35 -31 -57 6 -88 24 -20 41 -26 81 -26 44 0 54 4
84 34 39 39 44 74 19 134 -29 68 -88 117 -168 138 -72 19 -120 5 -173 -50 -53
-56 -69 -111 -59 -210 6 -69 5 -75 -14 -85 -49 -27 -202 50 -261 130 -36 50
-37 59 -8 59 38 0 105 40 142 85 46 56 106 85 177 85 79 0 126 17 175 62 214
198 103 573 -202 678 -124 43 -272 42 -379 -3 -60 -25 -151 -85 -184 -121
l-24 -26 -22 53 -21 52 37 17 c48 21 72 58 72 109 0 49 -28 82 -69 82 -29 0
-64 -33 -64 -59 0 -23 17 -16 24 10 15 59 88 28 88 -38 0 -98 -126 -124 -216
-46 -55 49 -108 161 -114 241 -7 100 -4 103 65 72 52 -24 74 -27 208 -33z
m6243 -34 c-5 -85 -30 -150 -85 -224 -53 -71 -170 -96 -218 -47 -40 39 -28
135 16 135 20 0 49 -21 49 -35 0 -8 5 -15 10 -15 17 0 11 29 -10 50 -26 26
-58 25 -87 -2 -18 -17 -23 -32 -23 -70 0 -57 29 -94 80 -105 17 -3 29 -8 28
-12 -2 -3 -12 -29 -23 -58 l-19 -51 -56 50 c-73 68 -174 115 -276 130 -163 24
-341 -38 -452 -156 -66 -71 -96 -136 -114 -243 -17 -100 20 -218 96 -301 38
-42 94 -64 171 -67 86 -2 120 -19 201 -95 41 -40 74 -62 105 -71 24 -7 45 -14
47 -15 8 -6 -54 -86 -84 -109 -79 -60 -191 -93 -211 -62 -4 6 -8 55 -8 107 0
86 -3 99 -28 143 -49 84 -122 112 -214 83 -93 -30 -172 -121 -173 -201 0 -86
113 -135 191 -82 46 30 48 59 9 98 -38 39 -54 30 -17 -9 34 -35 34 -45 1 -71
-41 -32 -98 -28 -136 9 -27 27 -30 36 -25 71 10 75 81 146 172 170 80 22 156
-25 191 -117 16 -42 16 -48 -1 -119 -16 -68 -22 -80 -65 -118 -59 -53 -155
-101 -241 -122 -64 -15 -200 -21 -212 -9 -3 4 -2 15 4 26 15 27 2 72 -29 103
-23 23 -33 26 -69 22 -40 -4 -79 -24 -69 -34 2 -3 20 1 39 8 46 16 83 5 102
-31 23 -45 11 -72 -50 -109 -188 -114 -367 -121 -480 -19 l-47 43 16 30 c9 17
16 42 16 57 0 26 1 26 58 21 121 -11 324 53 462 147 97 65 175 151 217 239 33
68 38 86 41 172 4 82 1 102 -18 147 -13 29 -34 61 -47 72 -18 14 -22 24 -17
44 3 14 13 26 21 26 23 0 73 56 73 83 0 35 -36 77 -66 77 -25 0 -43 -25 -29
-38 4 -4 10 -1 12 6 13 35 63 -1 63 -45 0 -61 -99 -86 -144 -38 -81 87 -34
235 109 342 61 46 154 98 161 90 2 -2 -1 -26 -7 -53 -9 -41 -9 -56 4 -87 29
-67 71 -61 96 14 20 61 108 147 191 187 66 31 157 59 166 50 2 -3 0 -17 -6
-32 -12 -31 -13 -126 -2 -142 4 -6 17 -13 30 -16 19 -5 22 -2 22 22 0 29 37
90 73 122 55 48 105 61 242 62 134 2 219 19 245 51 24 28 32 3 28 -79z m-4885
-232 c40 -47 91 -61 175 -46 135 23 262 -39 318 -154 26 -53 27 -59 16 -117
-15 -77 -38 -111 -82 -115 -40 -4 -86 14 -105 42 -15 21 -20 72 -9 100 8 20
38 21 54 1 7 -8 19 -15 28 -15 12 0 10 6 -8 25 -46 49 -100 18 -100 -55 1 -71
54 -120 131 -120 56 0 74 18 100 92 15 44 23 55 49 62 27 8 35 5 60 -19 l30
-28 -59 -56 c-72 -68 -102 -126 -108 -206 -19 -244 283 -419 421 -243 l24 31
6 -31 c17 -75 -37 -162 -127 -206 -69 -34 -130 -41 -227 -26 -99 15 -171 56
-265 149 -36 35 -68 61 -72 57 -11 -11 106 -123 175 -169 l63 -41 -38 -23
c-137 -84 -348 -63 -557 57 -200 115 -306 272 -306 454 0 180 141 286 287 215
72 -35 110 -97 85 -137 -7 -10 -15 -9 -40 4 -40 20 -68 11 -93 -29 -63 -104
28 -229 241 -331 95 -46 140 -48 170 -6 l21 30 -30 37 c-17 21 -37 55 -46 76
l-15 37 27 0 c16 0 51 7 78 16 91 28 175 -3 204 -75 16 -38 11 -81 -12 -95
-16 -9 -23 -5 -48 23 -34 41 -50 35 -20 -8 27 -38 55 -47 85 -27 30 19 37 54
20 101 -26 78 -105 123 -191 110 -26 -4 -53 -11 -60 -16 -17 -15 -142 114
-181 187 -17 34 -32 64 -32 67 0 2 14 7 32 11 31 6 68 32 68 47 0 4 -13 10
-29 14 -48 10 -117 79 -153 152 -36 73 -42 155 -18 228 12 35 14 38 24 21 6
-11 24 -34 39 -52z m3331 -75 c0 -55 -6 -78 -32 -132 -35 -71 -93 -129 -149
-149 -18 -7 -33 -15 -33 -19 0 -15 45 -39 72 -39 16 0 28 -5 28 -12 0 -54
-192 -288 -211 -256 -6 9 -31 13 -83 13 -60 0 -80 -4 -103 -21 -62 -46 -90
-123 -63 -175 21 -38 82 -21 110 32 16 28 2 23 -30 -11 -32 -34 -57 -32 -66 6
-9 37 4 74 40 110 43 43 92 52 176 30 36 -9 73 -16 82 -16 15 0 16 -4 7 -27
-5 -15 -25 -48 -43 -73 -31 -43 -31 -46 -17 -73 29 -52 89 -46 211 20 149 81
220 159 220 244 0 36 -6 55 -26 78 -29 35 -58 39 -93 15 -19 -14 -25 -14 -32
-3 -36 57 51 148 158 165 75 12 169 -52 197 -133 21 -61 20 -176 -1 -239 -18
-56 -65 -133 -113 -188 -73 -83 -256 -187 -390 -223 -127 -33 -273 -18 -351
38 l-31 21 51 29 c62 35 191 155 191 177 0 9 -31 -14 -72 -55 -115 -110 -168
-138 -296 -153 -164 -18 -305 60 -326 181 -4 20 -3 47 2 59 9 23 9 23 30 -8
12 -17 43 -40 68 -52 149 -73 354 89 354 279 0 83 -26 139 -100 213 l-67 67
27 26 c47 45 89 29 108 -41 17 -59 53 -94 97 -94 71 0 135 55 135 116 0 43
-15 80 -35 88 -21 8 -75 -20 -75 -40 0 -11 7 -10 31 8 30 23 31 23 45 4 8 -11
14 -36 14 -55 -1 -60 -47 -101 -114 -101 -30 0 -40 6 -56 32 -11 18 -24 56
-30 85 -21 99 27 182 142 243 67 36 118 42 223 26 42 -6 57 -4 95 16 26 13 56
39 70 62 l25 38 14 -33 c8 -19 15 -64 15 -100z m-2567 51 c106 -5 153 -11 204
-28 82 -28 141 -77 157 -130 17 -57 48 -92 81 -92 l28 0 -23 47 c-17 33 -24
63 -24 105 0 53 10 73 25 49 3 -6 48 -40 100 -76 104 -72 121 -95 131 -176 3
-30 13 -59 20 -65 12 -10 7 -25 -33 -93 -27 -44 -50 -81 -53 -80 -3 0 -19 21
-37 47 -120 175 -261 265 -418 265 -80 -1 -135 -17 -117 -35 15 -15 15 -51 0
-66 -7 -7 -32 -12 -56 -12 -39 0 -48 5 -96 53 -84 83 -119 217 -85 317 l12 32
22 -28 c23 -29 24 -29 162 -34z m1931 -46 c6 -89 -15 -155 -69 -224 -57 -72
-118 -97 -170 -70 -20 11 -26 54 -9 65 42 26 -77 53 -168 37 -132 -22 -242
-97 -340 -229 -25 -35 -48 -63 -52 -63 -3 0 -11 10 -19 23 -8 12 -32 43 -54
69 -36 44 -39 50 -25 65 8 10 20 47 26 82 6 35 19 72 28 82 17 19 210 159 219
159 3 0 5 -26 5 -59 0 -43 -7 -70 -25 -105 l-24 -46 22 0 c38 0 63 26 87 91
20 52 31 66 69 91 81 51 162 71 286 70 121 -2 156 7 176 44 12 22 14 23 23 7
5 -9 11 -49 14 -89z m-3498 19 c129 -35 246 -129 295 -235 13 -29 29 -85 36
-123 15 -91 -5 -176 -59 -254 -44 -65 -94 -93 -172 -99 -54 -4 -58 -3 -85 29
-54 65 -69 143 -34 185 17 20 26 17 33 -11 8 -32 49 -34 70 -3 19 26 21 122 5
165 -14 37 -57 82 -94 97 -138 58 -350 -11 -394 -127 -16 -41 -13 -113 4 -147
19 -36 43 -50 89 -50 65 0 79 -43 30 -95 -43 -47 -161 -28 -251 41 -39 30 -79
103 -94 173 -13 64 2 150 35 194 13 18 27 43 31 57 17 59 149 163 248 196 100
33 203 36 307 7z m5174 -17 c110 -42 210 -125 253 -211 11 -22 28 -56 39 -75
13 -25 18 -56 18 -106 0 -95 -44 -189 -110 -235 -89 -61 -208 -77 -241 -33
-40 54 -28 94 27 94 23 0 50 5 61 10 52 28 66 146 26 214 -27 44 -92 90 -151
109 -59 17 -194 15 -231 -5 -39 -21 -81 -66 -94 -101 -15 -38 -14 -126 2 -157
16 -33 58 -34 72 -2 12 28 20 28 39 0 31 -44 14 -117 -43 -177 -31 -33 -33
-33 -87 -27 -69 8 -102 24 -142 71 -94 106 -112 261 -47 403 95 207 380 314
609 228z m-2657 -276 c17 -36 58 -99 92 -140 114 -138 150 -251 100 -314 -18
-22 -19 -31 -10 -59 7 -19 25 -47 41 -62 l30 -29 0 38 c0 73 56 142 131 161
24 6 27 3 34 -31 9 -51 35 -100 84 -159 66 -80 95 -177 72 -239 -7 -17 -7 -26
1 -28 17 -6 -26 -94 -56 -113 -59 -39 -157 -27 -197 23 -16 21 -19 35 -14 66
8 53 21 69 47 55 11 -6 23 -8 26 -4 10 10 -20 25 -50 25 -19 0 -28 5 -28 15 0
22 -34 87 -66 125 -16 18 -28 41 -29 50 -3 36 -35 67 -107 104 -40 21 -94 53
-121 72 -26 19 -50 34 -53 34 -3 0 -31 -17 -62 -39 -31 -21 -85 -52 -118 -69
-65 -33 -104 -72 -104 -104 0 -11 -16 -38 -35 -60 -19 -23 -42 -61 -51 -85
-12 -30 -22 -42 -31 -39 -16 7 -53 -10 -53 -23 0 -5 14 -8 32 -7 29 1 32 -2
40 -39 6 -25 5 -49 -1 -63 -16 -34 -70 -62 -122 -62 -127 0 -189 139 -135 303
18 55 31 78 101 177 20 29 29 55 30 81 0 21 5 39 11 39 17 0 99 -55 128 -86
14 -16 29 -43 32 -61 3 -18 9 -33 13 -33 3 0 19 24 34 54 23 44 26 58 18 75
-17 31 -13 116 8 168 11 26 53 105 94 175 63 108 122 230 151 313 5 15 14 0
35 -60 16 -44 42 -109 58 -145z m-735 69 c29 -6 85 -26 124 -45 78 -37 151
-107 224 -214 l40 -58 -15 -42 c-17 -48 -20 -142 -5 -170 7 -13 5 -21 -6 -31
-20 -16 -34 0 -68 76 -31 67 -136 166 -218 205 -103 49 -212 38 -281 -28 -65
-62 -77 -143 -28 -192 16 -16 40 -32 55 -36 33 -8 73 17 82 51 8 32 18 32 32
0 17 -36 16 -40 -19 -80 -42 -48 -78 -65 -135 -65 -64 0 -124 31 -179 92 -118
131 -93 310 58 419 30 22 43 26 57 19 29 -15 93 -12 119 6 18 13 22 24 19 51
-4 29 -1 34 21 39 15 3 31 7 36 9 18 6 34 5 87 -6z m1407 -5 c27 -6 31 -11 31
-40 0 -58 51 -86 124 -66 37 10 44 8 74 -14 53 -41 83 -76 108 -129 61 -128
-2 -291 -138 -359 -90 -45 -170 -29 -231 47 -27 33 -28 38 -17 71 12 36 30 49
30 21 0 -9 7 -27 16 -40 25 -38 83 -35 123 6 65 65 28 179 -76 230 -110 54
-243 17 -363 -102 -35 -34 -71 -81 -82 -107 -25 -58 -59 -97 -69 -81 -4 7 2
26 12 43 25 42 24 115 -2 177 l-22 49 29 42 c55 80 154 177 209 204 94 46 175
62 244 48z m-565 -604 c24 0 80 -57 81 -83 1 -14 16 -42 35 -63 18 -21 42 -58
53 -83 18 -40 18 -50 7 -100 -14 -60 -38 -94 -82 -117 -92 -48 -215 44 -163
122 13 21 23 25 46 22 18 -3 28 -1 26 6 -2 6 -17 12 -33 14 -87 9 -92 -144 -6
-180 15 -7 28 -13 30 -14 2 -1 -6 -20 -17 -42 -62 -122 -201 -134 -300 -27
-23 25 -41 49 -41 54 0 6 16 18 35 27 48 23 65 50 65 105 0 57 -23 82 -72 77
-18 -2 -32 -7 -30 -13 2 -5 14 -9 28 -7 37 5 54 -15 54 -63 0 -50 -28 -80 -86
-91 -50 -9 -83 3 -124 44 -31 31 -38 46 -44 95 -9 66 10 117 64 174 16 18 30
43 30 56 0 29 41 69 100 96 25 12 72 38 104 60 l59 38 85 -53 c47 -30 90 -54
96 -54z m-1176 -227 c52 -4 82 -10 82 -17 0 -7 -15 -36 -32 -65 -44 -72 -107
-106 -193 -105 -63 1 -118 22 -129 49 -3 9 -6 30 -6 45 0 25 7 32 45 49 25 11
58 30 73 41 18 15 35 20 52 16 14 -4 62 -9 108 -13z m2212 -58 c27 -6 30 -10
30 -44 0 -59 -34 -84 -120 -89 -67 -4 -70 -3 -111 32 -24 20 -50 36 -60 36
-19 0 -54 49 -64 90 -6 25 -5 25 72 27 43 1 91 6 108 11 25 7 36 3 72 -24 23
-18 56 -35 73 -39z m-1885 -63 c16 -75 87 -132 165 -132 44 0 115 32 131 59
13 19 14 19 50 -14 21 -19 54 -37 74 -41 24 -4 40 -15 50 -33 20 -39 85 -98
127 -116 99 -41 211 7 253 108 12 29 21 37 40 37 37 0 86 23 114 53 l24 26 20
-26 c41 -51 136 -69 204 -36 37 17 77 70 89 116 7 30 25 30 71 0 39 -25 39
-51 0 -88 -84 -82 -37 -235 72 -235 40 0 91 35 91 63 0 22 -36 62 -43 50 -4
-6 0 -16 8 -23 21 -18 19 -36 -7 -54 -37 -26 -83 -20 -111 14 -48 56 -43 138
9 179 14 11 24 23 23 28 -4 14 84 53 119 53 67 0 147 -72 181 -163 28 -73 0
-141 -81 -202 -79 -59 -169 -87 -269 -83 -83 3 -77 -7 -63 98 5 40 3 50 -20
77 -31 37 -83 63 -124 63 -44 0 -92 -43 -92 -84 0 -35 26 -80 41 -71 5 3 -1
19 -12 34 -18 25 -19 32 -8 52 35 66 102 66 172 1 32 -30 35 -66 11 -135 -18
-55 -52 -79 -139 -102 -74 -19 -128 -19 -189 -1 -99 30 -146 87 -146 177 0 66
72 123 108 87 7 -7 12 -20 12 -30 0 -10 5 -18 10 -18 18 0 11 39 -11 61 -28
28 -75 19 -111 -21 -33 -35 -38 -98 -13 -157 8 -19 15 -39 15 -43 0 -5 -21
-18 -47 -31 -68 -33 -169 -31 -246 4 -31 14 -57 28 -57 30 0 3 7 21 15 40 35
84 4 173 -68 191 -30 8 -40 6 -57 -9 -21 -19 -28 -65 -10 -65 6 0 10 8 10 18
0 48 49 55 91 13 34 -35 37 -73 13 -145 -15 -44 -22 -51 -73 -75 -49 -23 -68
-26 -161 -26 -91 0 -112 3 -154 24 -56 28 -85 79 -86 147 0 42 26 77 77 103
75 38 160 -42 106 -101 -9 -10 -13 -21 -9 -26 13 -13 46 39 46 73 0 25 -8 40
-31 59 -51 44 -130 29 -183 -35 -25 -29 -28 -39 -23 -84 2 -27 7 -57 11 -65
13 -32 -10 -44 -86 -44 -88 -1 -161 22 -223 70 -40 30 -48 32 -72 22 -37 -15
-232 -14 -312 1 -63 12 -152 42 -180 60 -12 8 -8 17 22 50 20 23 37 45 37 50
0 5 17 12 37 16 51 9 100 36 153 83 41 36 47 39 79 30 20 -6 58 -8 87 -6 l51
4 -23 -40 c-39 -68 -29 -158 24 -218 29 -34 32 -18 5 24 -23 34 -28 53 -28
103 0 52 5 68 29 103 38 55 119 102 176 102 39 0 49 -5 103 -60 l60 -59 -5
-56 c-6 -70 -35 -105 -86 -105 -56 0 -91 42 -57 70 8 7 12 17 9 22 -9 15 -44
-23 -44 -48 0 -33 45 -64 92 -64 102 0 152 157 73 232 -32 30 -31 53 4 89 37
36 58 37 66 1z m2000 -169 c22 -11 58 -24 79 -27 30 -6 52 -20 87 -58 l47 -50
-62 -29 c-101 -47 -214 -71 -316 -67 -99 3 -124 16 -97 46 48 52 60 143 27
207 -11 22 -20 41 -20 42 0 2 19 3 43 3 23 1 56 7 72 14 29 12 32 11 65 -24
19 -21 53 -46 75 -57z"/>
<path d="M6009 9968 c-33 -88 -31 -124 11 -189 56 -89 71 -125 77 -183 7 -70
-14 -129 -63 -180 -41 -42 -54 -45 -54 -13 0 13 -7 45 -17 72 l-16 49 -24 -53
c-12 -30 -39 -71 -59 -93 -41 -46 -41 -69 1 -160 13 -29 30 -74 37 -100 12
-48 21 -58 34 -37 8 14 34 -52 41 -104 3 -25 -1 -53 -12 -78 -17 -36 -17 -40
-1 -64 9 -14 34 -37 55 -51 48 -31 71 -83 71 -160 0 -47 3 -55 17 -52 20 4 80
101 88 144 5 24 0 41 -24 79 -47 74 -49 104 -13 183 20 43 29 76 26 93 -4 16
0 30 10 38 14 12 11 18 -24 59 -88 100 -84 206 15 402 14 27 25 59 25 70 0 34
-35 91 -104 169 -70 79 -83 112 -72 181 3 22 4 40 2 40 -2 0 -14 -28 -27 -62z"/>
<path d="M6234 9352 c-4 -9 -8 -77 -9 -151 -1 -102 2 -142 13 -165 14 -27 14
-33 -2 -59 -16 -28 -16 -31 1 -56 l18 -26 7 62 c3 34 20 102 37 151 17 49 31
98 31 108 0 11 -16 41 -35 68 -19 27 -35 55 -35 62 0 21 -17 25 -26 6z"/>
<path d="M4190 5831 c0 -26 49 -77 85 -87 62 -18 1480 -114 1686 -114 278 0
1696 112 1787 141 30 10 52 34 52 58 0 6 -4 11 -10 11 -5 0 -10 -7 -10 -15 0
-30 -57 -43 -270 -64 -331 -32 -958 -83 -1377 -111 -181 -12 -128 -15 -1114
55 -344 25 -645 45 -670 45 -56 0 -110 27 -127 63 -12 25 -32 37 -32 18z"/>
<path d="M11686 4040 c-31 -195 -98 -409 -171 -547 -58 -110 -155 -242 -224
-305 -84 -77 -200 -149 -413 -255 -187 -93 -328 -176 -328 -193 0 -5 -42 -62
-94 -128 -133 -169 -150 -208 -122 -285 8 -23 20 -91 26 -152 6 -60 19 -171
29 -245 10 -74 17 -137 15 -139 -4 -5 -107 20 -289 70 -334 91 -563 93 -651 5
-56 -56 -64 -107 -64 -388 0 -136 -4 -248 -9 -248 -5 0 -25 7 -45 15 -77 32
-406 94 -746 139 -360 48 -711 76 -1535 121 -505 28 -734 33 -1220 30 -513 -3
-853 -17 -1024 -40 -58 -8 -259 -32 -446 -54 -187 -22 -401 -47 -475 -56 -398
-47 -1229 -176 -1293 -201 -16 -6 -17 15 -17 285 0 339 1 334 -86 377 -54 26
-65 28 -209 30 -167 2 -291 -15 -425 -59 -41 -13 -109 -32 -150 -41 -41 -9
-90 -21 -108 -27 -19 -6 -36 -8 -39 -5 -4 3 12 134 33 290 22 157 36 282 31
279 -4 -2 -4 8 0 24 41 147 -79 335 -272 428 -49 23 -128 60 -175 81 -118 53
-207 104 -322 187 -122 87 -307 261 -333 313 -11 22 -22 41 -25 44 -12 11 -99
210 -119 270 -28 89 -61 229 -61 263 0 62 -61 -11 -79 -94 -15 -71 -14 -121 8
-243 31 -172 103 -303 248 -452 155 -159 329 -278 608 -414 124 -61 223 -117
260 -147 101 -81 168 -201 177 -317 l3 -39 -50 -12 c-112 -25 -238 -121 -386
-295 -96 -113 -108 -142 -87 -204 30 -89 128 -127 328 -126 174 0 298 23 585
110 257 78 356 83 454 22 49 -30 94 -86 89 -111 -4 -19 -309 -213 -433 -274
-49 -25 -101 -57 -115 -72 -23 -24 -25 -34 -25 -118 0 -153 32 -182 195 -180
107 1 184 14 683 112 700 138 827 158 1347 205 512 47 620 56 1330 108 476 35
1698 -2 2728 -82 399 -31 536 -55 1097 -191 465 -113 541 -129 626 -129 84 0
128 17 162 61 30 41 57 103 57 133 -1 36 -36 101 -75 139 -21 20 -94 66 -163
102 -69 36 -190 109 -270 161 l-145 96 53 34 c85 54 142 69 250 68 83 -1 128
-9 350 -66 386 -100 530 -118 649 -82 94 28 171 126 171 218 0 65 -30 114
-119 198 -91 85 -210 158 -368 225 -128 54 -128 55 -89 138 45 97 203 214 453
336 269 130 420 234 591 407 105 107 236 276 276 357 35 72 56 165 56 250 0
92 -23 231 -47 286 l-20 44 -7 -45z"/>
<path d="M11970 2973 c0 -40 -35 -155 -68 -218 -90 -180 -258 -357 -505 -533
-183 -130 -318 -310 -340 -454 -3 -21 -2 -38 3 -38 4 0 61 50 127 112 65 61
217 197 338 302 243 211 309 274 355 341 92 134 128 267 111 415 -10 93 -21
130 -21 73z"/>
<path d="M0 2860 c0 -119 15 -191 61 -289 86 -185 232 -321 520 -484 103 -58
150 -109 259 -275 58 -89 109 -160 115 -158 16 4 23 73 13 129 -28 151 -176
309 -482 515 -71 48 -156 114 -188 146 -101 101 -191 249 -264 436 l-33 85 -1
-105z"/>
<path d="M10415 1511 c-76 -19 -147 -82 -160 -141 -29 -132 81 -280 208 -280
56 0 135 39 181 90 l35 39 7 -59 c4 -33 9 -60 13 -60 3 0 29 29 56 65 28 35
53 64 57 65 3 0 21 -25 40 -55 l33 -54 23 43 c24 44 55 66 96 66 49 0 120 30
158 67 35 34 54 68 26 46 -22 -18 -128 -53 -157 -53 -16 0 -44 11 -64 25 l-37
24 -15 -22 c-8 -12 -15 -27 -15 -34 0 -30 -18 -9 -50 57 l-34 71 -35 -68 -34
-68 -18 45 c-25 60 -46 95 -56 94 -4 0 -11 -22 -15 -48 -3 -25 -15 -61 -25
-79 -49 -82 -198 -105 -250 -38 -19 25 -15 83 9 121 l22 35 12 -44 c17 -57 30
-71 66 -71 34 0 74 36 84 74 23 94 -62 172 -161 147z"/>
<path d="M1310 1475 c-96 -30 -170 -144 -156 -241 17 -124 108 -204 234 -204
191 0 293 229 167 378 -56 66 -159 95 -245 67z m125 -121 c33 -15 65 -65 65
-99 0 -9 -7 -32 -16 -51 -50 -105 -214 -69 -214 47 0 51 13 75 53 99 39 24 68
25 112 4z"/>
<path d="M5978 1324 c-24 -12 -28 -21 -28 -57 0 -55 16 -76 65 -87 93 -22 313
-5 369 28 56 33 83 113 37 112 -9 -1 -32 -14 -51 -30 -32 -28 -39 -30 -121
-30 -103 0 -149 8 -149 26 0 18 -49 54 -74 54 -11 -1 -33 -8 -48 -16z"/>
<path d="M4701 1139 c-48 -26 -65 -29 -144 -29 -128 0 -171 -24 -195 -111 l-9
-35 96 1 c105 0 127 -9 162 -62 25 -37 24 -70 -3 -113 l-22 -35 -6 30 c-7 42
-51 63 -85 41 -52 -34 -43 -116 15 -148 26 -14 49 -18 93 -15 92 6 147 59 155
150 5 61 -11 102 -60 154 l-30 31 30 16 c46 24 77 82 73 139 -1 21 -4 21 -70
-14z"/>
<path d="M5410 1148 c-30 -15 -52 -36 -65 -60 -18 -35 -19 -40 -5 -65 19 -34
64 -52 88 -37 9 6 19 24 22 40 l5 29 18 -25 c14 -20 17 -46 17 -133 0 -108 0
-108 -22 -101 -49 15 -101 60 -130 111 -16 29 -34 55 -38 58 -14 8 -33 -75
-26 -114 11 -70 109 -143 219 -162 126 -21 139 0 135 206 -2 108 0 148 11 168
13 25 13 29 -10 53 -55 59 -140 71 -219 32z"/>
<path d="M11240 1134 c-40 -126 -135 -236 -235 -273 -97 -36 -258 -23 -775 63
-79 14 -145 24 -147 23 -4 -4 -6 -147 -2 -151 4 -4 291 -38 483 -57 202 -20
398 -8 540 32 59 16 131 90 171 175 l35 73 -20 63 c-29 91 -35 98 -50 52z"/>
<path d="M5670 1129 c0 -69 93 -116 208 -106 l62 6 0 -102 c0 -75 -4 -108 -15
-123 -14 -18 -14 -18 -15 8 0 32 -12 41 -54 40 -55 -1 -75 -65 -36 -115 36
-45 150 -56 207 -20 35 23 43 67 43 233 0 143 -2 158 -20 175 -21 19 -24 18
-129 -10 -73 -19 -110 -15 -190 21 -29 13 -55 24 -57 24 -2 0 -4 -14 -4 -31z"/>
<path d="M6259 1137 c-65 -34 -102 -92 -107 -168 -6 -85 13 -162 50 -205 68
-77 136 -84 206 -21 47 43 16 122 -45 115 -20 -2 -33 -12 -45 -37 l-17 -34
-20 34 c-31 51 -25 153 13 204 14 19 15 19 34 -6 11 -13 35 -33 54 -43 30 -16
41 -17 90 -7 32 7 73 23 92 36 l36 24 0 -44 c0 -40 -2 -44 -30 -50 -16 -4 -41
-20 -55 -37 -20 -24 -25 -40 -25 -85 0 -49 4 -59 34 -89 30 -30 40 -34 84 -34
44 0 53 4 80 34 16 19 32 40 34 48 6 16 56 -9 103 -52 17 -15 40 -33 53 -40
21 -10 27 -8 63 29 34 36 37 44 29 67 -6 14 -10 77 -10 140 l0 115 35 35 c19
19 35 39 35 44 0 11 -141 12 -160 0 -12 -7 -16 -39 -20 -149 l-5 -140 -65 54
c-61 51 -65 57 -72 106 -3 29 -2 64 3 78 8 21 5 29 -19 54 -19 18 -43 30 -69
34 -34 4 -45 1 -74 -25 -62 -54 -137 -51 -194 8 -35 36 -40 36 -96 7z"/>
<path d="M4820 1135 c0 -34 31 -74 75 -95 36 -18 58 -21 120 -18 l75 3 -1 -95
c-1 -102 -8 -141 -26 -147 -7 -3 -9 3 -6 15 11 42 -58 69 -91 36 -20 -20 -21
-73 -1 -101 28 -40 140 -56 194 -28 16 8 33 27 39 42 6 15 13 101 16 189 5
151 4 163 -14 179 -18 17 -23 16 -92 0 -96 -24 -142 -22 -212 9 -68 30 -76 31
-76 11z"/>
<path d="M7143 1129 c-58 -28 -93 -112 -65 -156 11 -18 62 -34 84 -27 17 5 19
12 14 45 -7 43 9 53 38 23 23 -22 20 -66 -7 -105 -30 -45 -69 -59 -97 -34 -27
24 -35 13 -34 -45 0 -52 31 -105 79 -136 31 -20 142 -39 177 -31 15 4 47 25
72 46 53 46 81 57 101 41 20 -17 11 -28 -35 -40 -22 -6 -44 -19 -50 -29 -8
-16 -5 -20 28 -25 114 -20 110 -20 147 17 48 48 46 95 -7 154 -18 19 -20 33
-17 108 4 80 6 89 32 110 l27 24 -22 13 c-13 6 -47 12 -75 12 -80 0 -86 -10
-91 -153 -4 -99 -7 -120 -21 -125 -9 -3 -31 -17 -50 -31 -34 -25 -84 -32 -110
-16 -11 7 -9 13 7 29 47 47 90 175 77 230 -8 36 -48 92 -78 109 -33 18 -77 16
-124 -8z"/>
<path d="M4260 1080 c-8 -5 -58 -10 -111 -10 -65 0 -101 -4 -114 -14 -18 -13
-18 -15 -2 -56 l17 -43 -46 -101 c-59 -131 -86 -161 -123 -137 -11 7 -12 13
-3 23 23 29 72 164 72 202 0 31 -7 45 -35 72 -42 39 -89 51 -142 34 -59 -19
-83 -46 -83 -95 0 -50 23 -75 66 -75 36 0 54 16 54 47 0 26 3 27 31 13 61 -33
-42 -190 -126 -190 -25 0 -17 -20 23 -60 39 -39 117 -74 193 -85 l44 -7 89
179 c81 162 90 176 98 153 6 -14 11 -62 12 -107 1 -70 -2 -86 -21 -112 l-23
-30 22 -15 c12 -9 42 -16 66 -16 81 0 109 58 81 165 -6 22 -13 93 -17 157 -6
101 -9 116 -22 108z"/>
<path d="M7712 1060 c-12 -11 -29 -37 -37 -57 -17 -40 -20 -103 -5 -103 6 0
10 4 10 8 0 5 11 14 25 20 20 9 33 9 59 -2 19 -8 36 -19 40 -24 3 -6 -21 -31
-54 -57 -67 -52 -77 -75 -64 -144 7 -37 15 -49 39 -60 34 -17 210 -27 279 -17
75 12 86 28 88 123 2 96 -10 116 -76 134 -38 10 -118 58 -131 78 -3 6 7 6 27
0 18 -5 56 -9 84 -9 56 0 69 9 102 75 l20 40 -122 0 c-66 0 -152 4 -191 8 -64
8 -72 7 -93 -13z m216 -241 c22 -14 29 -49 16 -83 -10 -25 -110 -22 -124 3 -5
11 -8 26 -5 33 2 7 9 32 15 56 l11 43 32 -19 c18 -10 42 -25 55 -33z"/>
<path d="M722 1019 l-30 -53 20 -40 c49 -96 158 -174 288 -207 98 -25 462 -12
808 27 l142 17 0 78 c0 70 -2 79 -18 79 -10 0 -104 -11 -208 -24 -294 -38
-408 -49 -554 -49 -118 -1 -142 2 -193 22 -74 29 -148 88 -191 152 l-34 50
-30 -52z"/>
<path d="M8250 1043 c-27 -10 -52 -38 -76 -85 -13 -26 -24 -50 -24 -53 0 -3
26 -5 58 -5 69 0 108 -21 152 -81 60 -83 61 -151 4 -165 -34 -9 -38 -2 -23 39
15 42 8 63 -25 78 -57 26 -126 -24 -126 -91 0 -70 71 -120 172 -120 164 0 210
173 85 316 -23 27 -34 45 -25 42 72 -28 142 -15 183 33 34 41 34 62 -1 49 -40
-16 -74 -12 -185 20 -101 29 -138 34 -169 23z"/>
<path d="M3240 975 c-40 -43 -76 -56 -188 -71 -113 -15 -177 -31 -191 -48 -10
-13 -52 -138 -48 -143 2 -1 19 2 38 7 61 18 142 12 190 -13 94 -50 123 -167
42 -167 -19 0 -23 5 -23 33 0 71 -73 86 -111 23 -25 -41 -24 -68 4 -94 32 -30
70 -42 135 -42 63 0 110 22 138 65 43 65 -10 207 -95 254 l-44 24 62 19 c67
21 91 47 112 121 14 53 8 63 -21 32z"/>
<path d="M8713 936 c-15 -13 -38 -42 -51 -64 l-22 -40 62 -11 c35 -6 74 -19
88 -29 33 -25 89 -129 90 -168 0 -35 -26 -64 -58 -64 -26 0 -26 -2 -7 43 23
56 0 87 -64 87 -44 0 -81 -37 -88 -87 -5 -38 -2 -46 29 -77 31 -31 115 -66
157 -66 35 1 101 40 121 72 38 63 23 168 -35 244 -31 41 -31 46 1 34 68 -26
152 -3 179 50 l15 29 -48 -6 c-40 -4 -65 2 -156 36 -127 48 -172 51 -213 17z"/>
<path d="M3607 932 c-8 -9 -20 -29 -26 -45 -12 -30 -45 -47 -92 -47 -27 0 -29
3 -29 35 0 28 -5 38 -24 46 -66 31 -127 -34 -100 -106 16 -41 150 -68 231 -46
51 14 103 56 103 82 0 18 -36 99 -44 99 -1 0 -10 -8 -19 -18z"/>
<path d="M9213 818 c-34 -37 -37 -63 -11 -93 24 -28 56 -35 96 -21 21 7 23 5
20 -16 -3 -21 -7 -23 -51 -20 -82 6 -127 -45 -127 -145 0 -77 61 -144 151
-164 62 -14 84 4 113 94 5 17 9 16 41 -9 19 -14 47 -49 63 -78 30 -57 57 -68
99 -41 35 23 58 81 84 213 15 76 30 126 47 150 l24 36 -22 18 c-29 23 -57 23
-97 -2 -41 -25 -56 -56 -78 -156 -25 -117 -26 -118 -85 -59 -52 52 -59 73 -35
115 22 38 19 103 -7 135 -49 62 -184 88 -225 43z"/>
<path d="M2565 777 c-88 -21 -176 -43 -196 -48 -28 -7 -45 -22 -78 -69 -23
-32 -49 -76 -57 -96 -15 -35 -14 -36 3 -30 39 15 108 18 125 4 23 -17 55 -165
39 -181 -15 -15 -14 -23 5 -41 22 -22 49 -20 78 6 l24 23 -14 115 c-13 104
-17 117 -42 137 -15 12 -33 22 -39 23 -7 0 -13 4 -13 9 0 14 58 31 104 31 23
1 64 9 92 18 l52 18 6 -45 c3 -25 14 -86 23 -134 13 -68 14 -93 5 -107 -9 -15
-7 -21 13 -34 91 -60 118 41 70 256 -14 61 -25 128 -25 149 0 22 -3 38 -7 37
-5 0 -80 -19 -168 -41z"/>
<path d="M3631 734 c-12 -15 -24 -38 -27 -51 -4 -16 -17 -26 -46 -34 -50 -13
-68 -7 -68 25 0 56 -71 76 -115 31 -27 -26 -30 -41 -15 -79 15 -41 64 -59 155
-60 91 0 150 23 175 68 12 23 11 31 -12 77 l-25 51 -22 -28z"/>
<path d="M5165 494 c-345 -8 -700 -26 -861 -44 -362 -41 -1037 -144 -1679
-256 -215 -37 -338 -54 -375 -52 -71 5 -143 40 -198 97 -37 37 -42 40 -38 20
3 -13 10 -48 15 -77 26 -131 61 -162 186 -162 116 0 365 34 735 101 482 86
686 120 955 154 22 3 51 8 65 10 14 2 68 7 120 10 52 3 122 8 155 10 116 10
574 35 905 50 184 8 369 17 410 20 314 20 1364 23 1730 5 505 -25 760 -55
1150 -135 360 -73 1040 -197 1235 -224 168 -23 263 17 324 138 16 31 41 124
41 151 0 5 -24 -15 -52 -43 -80 -78 -127 -92 -313 -91 -133 0 -165 4 -280 32
-270 65 -823 156 -1381 226 -470 60 -431 59 -1619 61 -605 1 -1158 0 -1230 -1z"/>
</g>
</svg>
