 <svg  version="1.0" xmlns="http://www.w3.org/2000/svg"  width="900.000000pt" height="507.000000pt" viewBox="0 0 900.000000 507.000000"  preserveAspectRatio="xMidYMid meet">  <g transform="translate(0.000000,507.000000) scale(0.100000,-0.100000)" fill="#ffffff" stroke="none"> <path d="M1290 4942 c-6 -2 -10 -30 -10 -62 0 -31 -7 -77 -15 -100 -8 -23 -15 -59 -15 -79 0 -20 -7 -58 -15 -85 -8 -27 -15 -66 -15 -86 0 -21 -7 -57 -15 -80 -8 -23 -15 -59 -15 -79 0 -20 -7 -58 -15 -85 -8 -27 -15 -65 -15 -85 0 -20 -7 -58 -15 -85 -8 -27 -15 -66 -15 -86 0 -21 -7 -57 -15 -80 -8 -23 -15 -59 -15 -79 0 -20 -7 -58 -15 -85 -8 -27 -15 -66 -15 -86 0 -21 -7 -57 -15 -80 -8 -23 -15 -59 -15 -79 0 -20 -7 -58 -15 -85 -8 -27 -15 -66 -15 -87 0 -21 -5 -50 -11 -66 -6 -15 -15 -57 -19 -93 -8 -66 -23 -148 -42 -230 -5 -25 -14 -72 -18 -105 -9 -68 -24 -151 -46 -242 -8 -34 -14 -76 -14 -95 0 -18 -7 -55 -15 -82 -8 -27 -15 -66 -15 -86 0 -21 -7 -57 -15 -80 -8 -23 -15 -58 -15 -76 0 -18 -7 -49 -16 -68 -22 -45 -13 -70 23 -61 14 3 281 7 592 8 390 2 583 6 621 14 30 7 84 17 120 23 124 20 155 26 190 37 19 6 60 18 90 27 30 10 73 24 95 32 72 28 172 72 195 85 8 5 29 15 45 23 17 7 54 30 84 50 29 20 56 36 60 36 7 0 173 141 206 175 11 11 38 43 60 70 22 28 45 55 50 61 6 6 19 30 29 53 11 22 23 41 28 41 4 0 8 9 8 20 0 11 -5 20 -11 20 -27 0 -80 -44 -107 -89 -17 -27 -45 -58 -64 -69 -19 -12 -49 -39 -67 -62 -42 -53 -255 -210 -284 -210 -6 0 -18 -7 -28 -16 -26 -23 -162 -83 -243 -106 -39 -11 -81 -29 -95 -39 -24 -17 -78 -30 -196 -47 -27 -4 -56 -11 -63 -16 -7 -4 -60 -10 -119 -12 -58 -3 -125 -8 -147 -13 -63 -13 -303 -14 -311 -2 -3 6 -15 11 -26 11 -11 0 -17 -4 -14 -10 7 -11 0 -11 -145 -15 -116 -3 -228 -12 -301 -26 -114 -21 -152 -23 -147 -8 3 8 15 16 29 17 13 2 29 8 36 14 25 20 88 48 109 48 12 0 27 7 34 15 7 8 22 15 34 15 12 0 31 7 42 15 10 8 28 15 40 15 11 0 29 7 40 15 10 8 28 15 39 15 11 0 33 7 49 15 15 8 36 15 45 15 10 0 26 7 37 15 10 8 31 15 45 15 14 0 34 7 45 15 10 8 31 15 45 15 14 0 34 7 45 15 10 8 28 15 40 15 11 0 29 7 40 15 10 8 30 15 44 15 14 0 38 7 54 15 15 8 38 15 50 15 12 0 31 7 42 15 10 8 30 15 44 15 14 0 36 7 50 15 14 8 37 14 51 15 14 0 34 7 45 15 10 8 30 15 44 15 14 0 38 7 54 15 15 8 38 15 50 15 12 0 31 7 42 15 10 8 31 15 46 15 26 0 115 30 150 50 10 6 33 10 51 10 18 0 42 7 53 15 10 8 30 15 44 15 14 0 36 7 50 15 14 8 37 14 51 15 14 0 34 7 45 15 10 8 30 15 44 15 14 0 38 7 54 15 15 8 38 15 50 15 11 0 34 7 50 15 15 8 38 15 51 15 12 0 28 7 35 15 7 8 27 15 44 15 17 1 42 7 56 15 14 8 37 14 51 15 14 0 34 7 45 15 10 8 31 15 45 15 14 0 34 7 45 15 10 8 31 15 45 15 14 0 34 7 45 15 10 8 31 15 45 15 14 0 34 7 45 15 10 8 30 15 42 15 13 0 36 6 50 14 33 16 85 35 131 46 18 5 38 13 44 19 6 6 22 11 35 11 13 0 36 6 50 14 56 28 103 46 125 46 13 0 32 7 43 15 10 8 28 15 40 15 11 0 29 7 40 15 10 8 31 15 45 15 14 0 34 7 45 15 24 18 74 20 74 2 0 -7 -14 -23 -30 -36 -23 -16 -29 -28 -25 -42 4 -10 2 -19 -4 -19 -13 0 -28 -53 -35 -127 -5 -52 -3 -63 9 -63 17 0 19 -18 6 -38 -9 -16 -31 -28 -113 -68 -32 -16 -58 -32 -58 -36 0 -4 -11 -8 -24 -8 -13 0 -29 -7 -36 -15 -7 -8 -21 -15 -31 -15 -9 0 -24 -7 -33 -15 -8 -8 -21 -15 -28 -15 -7 0 -22 -6 -33 -14 -11 -7 -32 -16 -47 -20 -16 -3 -28 -11 -28 -16 0 -6 -9 -10 -20 -10 -21 0 -97 -36 -106 -51 -3 -5 -18 -9 -33 -9 -16 0 -34 -7 -41 -15 -7 -8 -19 -15 -27 -15 -8 0 -27 -6 -41 -13 -70 -36 -156 -67 -184 -67 -30 0 -58 -49 -58 -100 0 -26 -7 -67 -15 -90 -8 -23 -15 -60 -15 -82 0 -21 -7 -55 -15 -75 -8 -19 -15 -47 -15 -62 l0 -26 817 3 c692 2 825 5 865 17 26 8 59 15 75 15 15 0 37 7 47 15 11 8 30 15 42 15 40 0 243 113 333 185 36 29 151 147 151 155 0 17 58 72 69 66 16 -10 14 -48 -4 -73 -8 -11 -17 -40 -21 -64 -3 -24 -12 -61 -20 -82 -8 -20 -14 -55 -14 -78 0 -22 -7 -56 -15 -76 -8 -19 -15 -50 -15 -67 l0 -31 512 2 c517 3 587 7 733 44 22 6 60 14 85 19 25 4 60 13 78 19 74 25 99 33 131 41 18 5 38 13 44 19 6 6 20 11 30 11 10 0 31 6 45 13 15 8 45 22 67 32 22 9 47 21 55 26 8 5 22 12 30 15 8 3 22 10 30 15 8 5 22 12 30 15 31 12 36 15 65 34 17 11 37 23 45 27 23 11 99 62 165 112 137 102 345 336 405 456 6 11 19 34 30 50 11 17 23 37 26 45 12 29 37 85 51 112 7 14 13 34 13 45 0 10 7 27 15 37 8 11 15 31 15 45 1 14 7 37 15 51 8 14 14 40 15 58 0 18 5 43 12 55 13 25 26 132 35 291 6 106 -5 233 -28 321 -6 22 -13 51 -15 65 -3 14 -12 39 -19 55 -8 17 -24 53 -36 80 -12 28 -33 64 -45 82 -13 17 -24 35 -24 38 0 12 -62 88 -115 140 -80 81 -201 168 -282 204 -11 5 -24 15 -28 20 -3 6 -17 11 -29 11 -13 0 -29 7 -36 15 -7 8 -22 15 -34 15 -12 0 -27 5 -33 11 -6 6 -26 14 -44 19 -19 4 -47 13 -64 18 -94 32 -133 42 -157 42 -15 0 -52 7 -83 15 -46 12 -161 14 -623 15 l-567 2 -6 -39 c-3 -21 -11 -65 -17 -98 -30 -164 -36 -206 -34 -277 2 -70 0 -78 -16 -78 -19 0 -52 60 -52 94 0 23 -25 68 -77 137 -61 81 -127 134 -223 179 -25 12 -58 28 -73 35 -16 8 -39 15 -52 15 -12 0 -38 7 -58 15 -30 12 -160 15 -868 15 l-834 1 -6 -63 c-4 -35 -11 -76 -18 -91 -6 -16 -11 -48 -11 -71 0 -24 -7 -63 -15 -86 -8 -23 -15 -59 -15 -79 0 -20 -7 -58 -15 -85 -8 -27 -15 -66 -15 -87 0 -21 -5 -50 -11 -66 -10 -27 -25 -133 -36 -256 -4 -48 -9 -60 -26 -67 -12 -5 -16 -9 -9 -9 26 -2 52 20 77 63 14 23 25 50 25 59 0 8 11 28 24 44 26 31 36 66 37 133 1 47 35 210 51 246 6 12 12 46 14 75 9 144 16 181 34 186 10 3 22 15 28 27 7 15 22 25 45 29 28 4 536 3 1372 -3 98 0 181 -14 223 -36 15 -8 34 -14 43 -14 9 0 32 -12 51 -27 19 -16 61 -44 92 -63 31 -19 58 -43 62 -52 5 -16 72 -90 171 -189 24 -25 42 -34 57 -32 28 6 74 67 87 116 6 22 18 51 26 64 9 13 16 38 15 56 0 17 4 35 11 39 6 3 12 25 13 49 3 53 15 64 89 81 63 15 463 18 496 3 10 -3 20 -2 24 4 9 16 35 14 35 -2 0 -8 -9 -24 -20 -37 -11 -13 -20 -27 -20 -32 0 -4 -5 -8 -11 -8 -6 0 -37 -26 -69 -57 -32 -32 -69 -67 -82 -79 -12 -11 -33 -32 -45 -45 -12 -13 -40 -37 -63 -54 -23 -16 -54 -42 -69 -57 -16 -16 -35 -28 -42 -28 -8 0 -23 -13 -32 -30 -10 -16 -26 -30 -36 -30 -10 0 -24 -7 -32 -16 -22 -27 -250 -194 -264 -194 -7 0 -27 -11 -43 -25 -17 -14 -37 -25 -45 -25 -10 0 -13 -7 -10 -20 4 -15 0 -20 -14 -20 -11 0 -38 -13 -59 -28 -21 -15 -53 -34 -71 -41 -18 -7 -38 -20 -45 -28 -6 -8 -32 -25 -57 -39 -95 -50 -207 -112 -241 -132 -19 -12 -55 -31 -80 -42 -25 -11 -52 -25 -60 -30 -29 -18 -99 -50 -111 -50 -18 0 -137 -61 -150 -76 -6 -8 -21 -14 -32 -14 -11 0 -43 -13 -71 -28 -28 -16 -73 -37 -101 -47 -27 -10 -59 -25 -70 -32 -11 -7 -25 -13 -32 -13 -7 0 -41 -13 -75 -29 -35 -16 -103 -38 -153 -50 -83 -20 -169 -56 -205 -86 -17 -14 -211 -90 -255 -100 -60 -14 -210 -68 -220 -80 -5 -7 -29 -15 -53 -19 -43 -6 -49 -9 -109 -40 -17 -9 -39 -16 -50 -16 -20 0 -170 -48 -284 -91 -41 -16 -79 -29 -84 -29 -9 0 -275 -82 -330 -101 -16 -6 -59 -20 -95 -30 -36 -11 -92 -30 -125 -41 -33 -11 -82 -25 -110 -30 -27 -6 -79 -21 -115 -33 -36 -13 -82 -27 -102 -30 -20 -4 -39 -13 -42 -21 -3 -8 -19 -14 -36 -14 -17 0 -70 -13 -118 -29 -48 -16 -116 -38 -152 -49 -36 -12 -78 -26 -95 -31 -16 -6 -57 -19 -90 -30 -34 -11 -72 -24 -85 -29 -14 -5 -52 -17 -85 -27 -33 -10 -73 -23 -90 -30 -16 -7 -47 -20 -68 -29 -21 -9 -48 -16 -60 -16 -12 0 -31 -6 -42 -13 -11 -7 -47 -21 -80 -31 -33 -10 -78 -26 -100 -36 -96 -43 -204 -60 -224 -36 -7 8 -10 20 -6 27 4 6 9 39 11 72 5 95 12 149 24 187 13 42 86 479 95 570 4 36 11 70 15 75 11 14 28 99 45 235 9 63 20 126 25 140 11 30 37 157 44 220 3 25 13 77 21 115 9 39 22 117 30 175 8 58 19 118 25 134 6 16 12 49 14 75 2 25 8 58 14 73 6 15 13 58 16 95 2 38 9 81 15 96 6 16 11 45 11 66 0 20 7 46 15 57 8 10 15 38 15 61 0 33 7 50 29 75 l29 33 204 3 c193 3 259 4 311 3 12 -1 117 0 232 0 219 1 359 -11 410 -35 17 -7 64 -21 105 -31 101 -23 278 -103 357 -162 24 -18 48 -33 55 -33 16 0 184 -174 214 -221 13 -21 28 -40 34 -44 5 -3 10 -14 10 -24 0 -10 8 -29 18 -42 10 -13 29 -49 42 -79 14 -30 30 -59 37 -65 7 -5 21 -31 32 -57 29 -70 44 -62 38 20 -6 94 -38 207 -65 234 -7 7 -12 20 -12 29 0 9 -7 22 -15 29 -8 7 -15 17 -15 22 0 13 -79 113 -137 173 -47 49 -153 135 -183 148 -8 4 -28 16 -45 26 -53 35 -105 61 -119 61 -7 0 -19 7 -26 15 -7 8 -22 15 -34 15 -12 0 -27 5 -33 11 -6 6 -26 14 -44 19 -19 4 -47 13 -64 18 -93 32 -133 42 -157 42 -14 0 -53 7 -85 15 -47 12 -165 15 -621 17 -309 2 -567 2 -572 0z m5805 -106 c146 -10 188 -16 232 -36 25 -11 65 -23 87 -26 23 -4 73 -22 112 -40 39 -19 77 -34 85 -34 36 -2 216 -118 285 -186 25 -24 50 -44 55 -44 5 0 9 -7 9 -15 0 -8 15 -29 33 -47 62 -62 137 -202 156 -293 8 -33 20 -79 29 -103 12 -34 13 -48 3 -68 -8 -18 -8 -30 -1 -38 11 -15 11 -246 -1 -261 -4 -6 -12 -47 -18 -92 -10 -83 -27 -146 -61 -238 -10 -27 -26 -72 -35 -99 -8 -26 -28 -67 -44 -90 -15 -22 -37 -61 -49 -86 -58 -121 -339 -430 -390 -430 -6 0 -31 -17 -56 -37 -95 -79 -89 -76 -213 -137 -43 -21 -103 -51 -133 -66 -30 -15 -69 -31 -87 -34 -18 -4 -51 -17 -75 -28 -24 -12 -59 -25 -78 -29 -19 -4 -69 -16 -110 -27 -219 -57 -355 -70 -776 -72 l-351 -1 -27 23 c-27 23 -27 24 -30 177 -3 154 -3 154 -30 178 -15 12 -37 23 -50 23 -23 0 -151 -79 -217 -133 -93 -77 -122 -97 -140 -97 -10 0 -23 -9 -29 -20 -6 -11 -17 -20 -25 -20 -7 0 -20 -6 -28 -14 -16 -17 -124 -59 -187 -74 -25 -6 -70 -17 -100 -24 -42 -10 -203 -12 -690 -11 -349 0 -671 2 -715 4 l-80 4 -8 67 c-6 51 -5 74 7 103 9 21 16 46 16 57 0 28 46 73 94 94 23 10 69 30 102 46 34 15 71 28 82 28 10 0 36 11 56 25 20 14 46 25 56 25 11 0 24 9 30 20 6 12 21 20 36 20 14 0 44 11 67 24 23 14 62 32 87 42 25 10 56 26 69 36 29 22 89 24 97 3 3 -8 39 -37 80 -64 l73 -49 133 4 c189 6 207 9 269 37 80 36 139 79 185 134 78 93 78 91 80 245 2 121 5 142 21 157 20 18 138 91 147 91 3 0 39 20 79 45 41 25 79 45 85 45 5 0 16 7 23 16 7 9 24 20 37 25 20 8 30 4 57 -20 19 -16 40 -33 47 -38 8 -4 31 -29 52 -55 21 -27 42 -48 47 -48 5 0 36 -27 68 -60 32 -33 65 -60 73 -60 22 0 77 59 104 112 28 56 42 110 55 223 5 44 15 86 23 93 11 11 12 19 3 33 -9 14 -6 27 11 62 19 37 20 49 11 76 -10 28 -8 35 15 66 15 19 31 35 36 35 5 0 27 17 48 38 63 60 114 102 127 102 6 0 21 13 33 30 13 17 28 27 36 24 11 -4 13 0 9 15 -4 14 -1 21 10 21 8 0 17 7 21 15 3 8 17 15 30 15 19 0 27 7 32 24 7 29 36 58 54 54 7 -2 17 11 22 30 7 25 14 32 33 32 18 0 25 5 25 19 0 12 41 62 96 118 53 54 100 107 106 118 6 11 17 24 24 28 8 4 14 14 14 22 0 8 9 19 20 25 11 6 20 15 20 21 0 6 14 22 30 36 32 27 40 53 15 53 -8 0 -15 -4 -15 -8 0 -4 -27 -36 -60 -70 -33 -35 -60 -67 -60 -72 0 -11 -438 -450 -449 -450 -5 0 -24 -15 -44 -32 -73 -66 -115 -101 -207 -171 -94 -72 -94 -72 -107 -132 -7 -33 -20 -88 -28 -122 -8 -34 -15 -77 -15 -96 0 -19 -7 -54 -15 -77 -8 -23 -15 -62 -15 -85 0 -24 -5 -67 -11 -97 -6 -29 -13 -63 -15 -75 -7 -37 -32 -27 -39 15 -12 69 -46 124 -124 201 -42 42 -89 86 -105 99 l-28 23 -33 -25 c-19 -14 -38 -26 -44 -26 -5 0 -14 -6 -18 -12 -8 -13 -32 -30 -68 -48 -11 -6 -33 -19 -50 -30 -16 -11 -39 -24 -50 -30 -11 -6 -33 -19 -50 -30 -16 -10 -52 -31 -80 -45 -27 -14 -70 -37 -94 -50 -24 -14 -57 -25 -73 -25 -23 0 -28 4 -28 25 0 16 -7 28 -17 31 -23 8 -64 24 -85 35 -28 14 -88 10 -166 -11 -39 -11 -84 -20 -98 -20 -22 0 -25 2 -14 15 7 8 23 15 35 15 13 0 25 7 29 15 3 8 16 15 29 15 14 0 30 7 37 15 7 8 19 15 27 15 8 0 27 6 41 13 15 8 43 21 62 29 19 8 51 22 70 30 19 9 42 19 50 22 8 3 22 10 30 14 25 15 84 40 108 47 12 3 22 11 22 16 0 5 11 9 24 9 14 0 31 6 38 13 22 20 78 47 98 47 9 0 23 7 30 15 7 8 18 15 25 15 7 0 18 7 25 15 7 8 21 15 31 15 9 0 24 7 33 15 8 8 21 15 29 15 8 0 20 7 27 15 7 8 20 15 30 15 10 0 23 6 29 14 7 8 23 17 36 20 14 4 25 11 25 16 0 6 8 10 18 10 10 0 23 5 29 11 14 14 50 35 86 50 15 6 27 14 27 19 0 4 8 10 18 14 9 3 31 15 47 26 17 11 37 23 45 27 8 4 43 26 78 50 35 24 67 43 71 43 5 0 24 13 42 30 19 16 39 30 44 30 6 0 25 14 43 30 18 17 36 30 38 30 8 0 125 90 147 112 10 10 21 18 25 18 4 0 25 16 47 36 22 19 53 45 68 57 79 62 111 91 217 197 63 64 133 137 155 163 22 26 53 53 68 60 28 12 163 13 302 3z m-2407 -1541 c41 -5 142 -52 142 -66 0 -6 12 -27 27 -46 25 -33 28 -44 27 -115 -1 -57 -6 -84 -18 -97 -9 -10 -16 -21 -16 -26 0 -10 -90 -99 -110 -108 -8 -4 -22 -11 -30 -15 -66 -38 -85 -41 -285 -44 -226 -2 -224 -3 -190 73 10 22 15 51 13 71 -3 18 1 47 8 64 14 34 33 142 41 240 l5 61 41 10 c38 9 266 8 345 -2z"/> <path d="M6810 4799 c0 -11 5 -17 10 -14 6 3 10 13 10 21 0 8 -4 14 -10 14 -5 0 -10 -9 -10 -21z"/> <path d="M6838 4431 c-41 -14 -95 -59 -112 -95 -9 -18 -21 -57 -27 -87 -6 -30 -15 -58 -19 -64 -4 -5 -10 -39 -14 -75 -6 -77 -19 -155 -41 -265 -9 -44 -16 -89 -17 -100 -1 -50 -28 -170 -49 -220 -5 -11 -9 -33 -8 -50 2 -43 -27 -207 -48 -275 -3 -8 -7 -33 -8 -55 -5 -50 -22 -170 -30 -210 -9 -40 25 -116 62 -143 57 -40 138 -64 157 -45 3 4 26 8 50 9 46 3 138 27 191 50 103 44 143 65 155 79 7 8 19 15 26 15 7 0 21 11 30 25 9 14 22 25 28 25 24 0 196 203 196 230 0 10 11 34 25 55 14 20 28 51 31 69 3 17 12 45 19 61 37 86 82 316 68 351 -2 7 -1 19 3 25 14 23 11 74 -14 204 -15 81 -31 139 -43 154 -11 13 -19 27 -19 31 0 21 -74 116 -125 161 -68 60 -205 126 -278 135 -99 11 -162 13 -189 5z m212 -107 c100 -34 172 -79 231 -143 33 -35 59 -69 59 -76 0 -7 7 -18 15 -25 8 -7 15 -22 15 -34 0 -12 8 -33 18 -46 15 -22 17 -49 16 -225 -1 -159 -5 -209 -18 -244 -9 -24 -16 -55 -16 -70 0 -14 -7 -35 -15 -45 -8 -11 -15 -28 -15 -39 0 -10 -6 -31 -14 -45 -8 -15 -24 -47 -36 -72 -28 -60 -43 -83 -57 -93 -7 -4 -13 -14 -13 -21 0 -16 -137 -154 -162 -161 -10 -4 -18 -11 -18 -16 0 -5 -6 -9 -14 -9 -7 0 -19 -7 -26 -15 -7 -8 -20 -15 -30 -15 -10 0 -23 -7 -30 -15 -7 -8 -22 -15 -34 -15 -12 0 -31 -7 -42 -15 -10 -8 -32 -15 -47 -15 -15 0 -43 -7 -62 -14 -35 -15 -209 -25 -221 -13 -4 3 1 22 10 41 9 19 16 50 16 69 0 19 7 54 15 77 8 23 15 59 15 79 0 20 7 58 15 85 8 27 15 66 15 86 0 21 7 57 15 80 8 23 15 60 15 81 0 21 5 50 11 66 6 15 14 57 19 93 8 67 24 152 42 230 5 25 14 72 18 105 8 66 23 145 46 245 8 36 14 86 14 111 0 25 3 49 8 53 11 12 191 -3 242 -20z"/> <path d="M5724 3853 c-12 -2 -30 -13 -40 -24 -9 -10 -23 -19 -30 -19 -6 0 -31 -16 -54 -35 -23 -19 -47 -35 -54 -35 -6 0 -36 -25 -66 -55 -38 -38 -51 -58 -44 -65 8 -8 19 -8 39 0 32 12 192 115 216 139 9 9 30 28 48 44 17 15 31 34 31 42 0 15 -6 16 -46 8z"/> <path d="M2125 4440 c-3 -5 -14 -10 -23 -10 -9 0 -38 -20 -63 -43 -47 -43 -69 -90 -69 -150 0 -15 -7 -44 -15 -63 -8 -20 -13 -40 -10 -45 3 -4 -1 -25 -10 -45 -8 -20 -12 -40 -9 -45 2 -5 0 -28 -7 -51 -6 -24 -15 -65 -19 -93 -9 -57 -35 -202 -56 -320 -8 -44 -17 -91 -19 -105 -3 -14 -10 -59 -16 -100 -6 -41 -21 -120 -34 -175 -24 -108 -30 -158 -30 -277 0 -68 3 -80 25 -104 30 -32 113 -71 155 -72 69 -2 291 62 360 104 22 13 55 31 73 39 17 8 32 19 32 23 0 4 19 21 41 37 23 17 47 42 55 57 8 15 28 35 45 43 17 9 37 31 45 50 7 18 18 36 23 40 11 6 81 148 81 164 0 14 31 82 46 101 7 8 14 33 17 55 3 22 12 86 20 141 18 118 25 250 14 260 -4 4 -7 22 -7 41 0 18 -7 50 -15 69 -8 20 -12 40 -9 46 8 12 -31 101 -69 158 -66 99 -189 199 -289 235 -66 24 -150 38 -203 33 -5 -1 -20 2 -32 6 -12 4 -24 2 -28 -4z m187 -116 c15 -8 34 -14 43 -14 18 0 116 -52 155 -82 33 -26 112 -135 128 -178 47 -123 61 -266 39 -387 -9 -48 -18 -104 -21 -123 -6 -49 -26 -120 -42 -152 -8 -14 -14 -33 -14 -41 0 -16 -55 -124 -76 -148 -8 -8 -14 -19 -14 -24 0 -12 -63 -86 -112 -133 -50 -47 -144 -112 -163 -112 -7 0 -18 -7 -25 -15 -7 -8 -22 -15 -34 -15 -12 0 -31 -7 -42 -15 -10 -8 -31 -15 -45 -15 -15 0 -44 -6 -66 -14 -21 -8 -77 -15 -124 -17 l-84 -4 3 54 c2 29 10 71 18 93 8 22 14 58 14 79 0 21 5 50 11 66 6 15 15 57 19 93 8 70 23 149 46 247 8 34 14 77 14 96 0 19 7 54 15 77 8 23 15 59 15 80 0 20 7 59 15 86 8 27 15 65 15 84 0 19 7 57 15 84 8 27 15 66 15 87 0 21 5 50 11 66 6 15 15 65 19 111 11 114 13 115 129 107 53 -4 108 -14 123 -21z"/> <path d="M4615 4382 c-16 -2 -51 -10 -77 -18 -55 -18 -128 -90 -128 -128 0 -13 -6 -36 -14 -51 -8 -15 -17 -59 -21 -99 -4 -39 -10 -75 -13 -81 -4 -5 -7 -28 -9 -50 -1 -22 -5 -68 -9 -102 -6 -61 -6 -62 35 -106 23 -25 54 -47 69 -50 15 -4 53 -12 85 -18 45 -10 88 -10 190 -1 178 15 250 46 354 155 54 55 71 79 67 94 -3 11 4 44 17 73 17 40 20 56 12 69 -6 10 -9 29 -6 43 12 64 -95 194 -197 240 -60 27 -75 30 -195 31 -71 1 -143 1 -160 -1z m336 -118 c8 -8 20 -14 25 -14 36 0 114 -123 114 -178 0 -31 -28 -111 -47 -133 -7 -8 -13 -19 -13 -23 0 -11 -72 -77 -95 -87 -11 -5 -27 -13 -35 -18 -60 -35 -91 -40 -277 -42 -105 -1 -194 1 -200 4 -11 7 -5 43 23 143 8 28 14 67 14 87 0 20 5 48 11 64 6 15 14 66 19 111 5 46 13 89 19 95 15 18 421 10 442 -9z"/> <path d="M3365 2845 c-4 -16 -14 -40 -22 -51 -8 -12 -18 -44 -23 -70 -5 -27 -14 -75 -21 -107 -15 -77 0 -96 40 -51 36 40 59 175 44 256 -9 51 -10 52 -18 23z"/> <path d="M7569 1627 c-23 -17 -42 -58 -32 -67 4 -5 19 -10 33 -12 16 -2 26 -11 30 -28 6 -24 9 -25 110 -32 58 -3 109 -3 113 2 5 4 7 20 5 36 -3 29 -3 29 -65 26 -62 -3 -63 -3 -63 22 0 48 -91 84 -131 53z"/> <path d="M2283 1613 c-9 -3 -13 -26 -13 -64 l0 -59 130 -2 c72 -1 140 -2 153 -2 18 -1 23 5 25 32 5 48 -10 62 -56 51 -20 -5 -58 -9 -83 -9 -39 0 -47 4 -57 25 -6 14 -17 26 -24 26 -7 1 -24 2 -38 4 -14 1 -31 1 -37 -2z"/> <path d="M5170 1556 c-13 -13 -13 -53 0 -61 5 -3 83 -7 172 -7 l163 -1 3 40 3 40 -166 -1 c-91 -1 -170 -5 -175 -10z"/> <path d="M2826 1419 c-32 -36 -50 -36 -81 -3 -21 23 -30 25 -62 19 -21 -4 -49 -18 -63 -32 -25 -25 -25 -27 -28 -212 -1 -102 -3 -197 -5 -211 -2 -23 1 -25 49 -28 l52 -3 43 68 c24 37 50 79 57 93 7 13 22 39 33 57 13 21 19 45 17 70 l-3 38 -52 1 c-44 1 -54 -2 -59 -18 -3 -11 1 -27 10 -37 28 -31 23 -47 -34 -109 l-25 -28 4 126 c1 69 8 131 13 137 8 10 16 8 38 -7 36 -26 78 -25 106 1 l22 21 17 -26 c15 -23 16 -44 10 -176 -6 -129 -10 -154 -28 -176 -17 -22 -18 -28 -6 -35 19 -12 102 1 112 17 11 19 32 17 53 -3 13 -13 34 -18 81 -18 57 0 65 3 95 33 l33 32 5 203 c3 111 3 208 1 215 -2 9 -18 12 -49 10 l-46 -3 3 -185 c3 -182 2 -185 -21 -212 -29 -35 -63 -35 -103 -3 l-30 25 -5 147 c-7 184 -16 206 -92 229 -34 11 -38 10 -62 -17z"/> <path d="M768 1433 c-15 -2 -48 -24 -73 -48 -50 -49 -58 -84 -24 -106 l21 -14 -21 -24 c-19 -22 -21 -37 -21 -157 l0 -134 26 -6 c14 -4 39 -2 57 2 l31 10 -3 137 c-2 118 0 141 14 157 15 17 15 20 -1 45 -18 27 -18 28 11 51 43 34 89 32 127 -6 l30 -30 -3 -176 c-3 -195 -4 -194 61 -191 l35 2 3 185 c3 206 -4 238 -60 280 -23 17 -46 23 -106 25 -43 2 -89 1 -104 -2z"/> <path d="M1227 1432 c-15 -4 -43 -22 -62 -41 -31 -30 -35 -40 -35 -85 0 -46 3 -54 36 -81 35 -29 119 -63 160 -64 35 -1 74 -43 74 -78 0 -34 -29 -59 -78 -69 -41 -8 -96 32 -100 74 -3 31 -4 32 -52 32 -27 0 -52 -5 -55 -11 -4 -6 -2 -31 5 -55 24 -85 111 -124 244 -108 45 6 62 13 91 42 33 33 35 39 35 102 0 62 -2 68 -32 96 -34 31 -119 64 -167 64 -29 0 -71 36 -71 60 0 24 51 60 85 60 30 0 46 -11 83 -57 11 -14 30 -23 57 -25 36 -3 40 0 43 21 5 29 -22 80 -55 104 -27 21 -154 32 -206 19z"/> <path d="M1579 1433 c0 -5 0 -100 1 -213 1 -195 0 -206 -19 -229 -36 -41 -30 -46 49 -41 31 1 49 8 58 22 14 19 14 19 36 0 44 -41 158 -39 211 4 l30 24 5 212 c4 143 3 215 -5 221 -5 4 -28 6 -50 5 l-40 -3 -3 -194 c-2 -186 -3 -194 -25 -212 -28 -24 -65 -24 -100 0 -56 36 -58 47 -57 224 1 89 1 168 1 175 -1 13 -90 18 -92 5z"/> <path d="M2039 1433 c-1 -5 -1 -96 -1 -205 1 -256 11 -280 123 -282 47 -1 64 3 73 17 16 21 25 21 49 0 14 -14 35 -18 84 -17 59 0 67 3 88 30 24 28 24 34 26 227 1 108 2 203 3 210 1 8 -16 13 -46 15 l-48 3 0 -199 0 -199 -25 -13 c-22 -12 -27 -11 -46 6 -19 17 -20 27 -18 207 2 208 1 212 -59 205 l-27 -3 4 -196 c3 -173 1 -197 -14 -212 -23 -24 -42 -21 -61 8 -15 23 -16 49 -12 210 4 154 3 185 -9 189 -21 9 -83 7 -84 -1z"/> <path d="M3320 1228 l0 -214 35 -34 c34 -33 39 -34 110 -34 56 0 78 4 93 17 22 21 38 22 49 3 9 -16 85 -27 104 -16 10 7 11 14 0 36 -8 19 -12 87 -10 231 1 123 -3 209 -8 214 -6 6 -30 9 -54 7 l-44 -3 3 -149 c5 -205 1 -225 -48 -253 -54 -32 -83 -29 -115 9 l-27 32 3 181 4 180 -47 3 -48 3 0 -213z"/> <path d="M3862 1432 c-32 -10 -89 -68 -96 -98 -9 -35 9 -54 50 -54 27 0 36 5 44 24 27 72 89 89 129 35 23 -30 23 -36 19 -210 -2 -143 -1 -180 10 -184 24 -9 71 -5 78 6 3 6 6 97 5 202 -2 205 -6 222 -58 261 -27 20 -138 31 -181 18z"/> <path d="M4290 1433 c-13 -3 -42 -18 -62 -35 -33 -26 -38 -35 -38 -72 0 -45 22 -76 52 -76 9 0 21 -7 28 -15 7 -8 24 -15 38 -15 14 0 52 -7 85 -17 67 -19 75 -31 69 -109 -3 -47 -7 -53 -38 -68 -46 -21 -65 -20 -105 7 -32 21 -34 27 -39 92 l-5 69 -35 7 c-19 4 -38 5 -42 3 -5 -3 -8 -45 -8 -94 l0 -89 45 -36 c43 -36 46 -37 130 -36 70 0 93 4 128 23 53 29 65 56 69 146 2 58 -2 77 -18 98 -25 34 -96 63 -157 63 -53 1 -107 24 -107 45 0 22 46 46 87 46 37 0 76 -19 98 -47 11 -14 85 -21 103 -9 15 9 -19 66 -58 94 -24 19 -47 24 -113 27 -45 2 -93 1 -107 -2z"/> <path d="M4762 1432 c-12 -4 -38 -22 -57 -41 -31 -30 -35 -40 -35 -86 0 -43 4 -55 28 -77 28 -27 129 -68 168 -68 62 0 99 -91 50 -123 -42 -28 -71 -30 -115 -8 -36 19 -41 26 -41 56 l0 35 -50 0 c-60 0 -69 -13 -50 -71 27 -81 112 -118 239 -103 51 5 66 12 96 42 33 33 35 39 35 102 0 62 -2 68 -32 96 -34 31 -119 64 -167 64 -30 0 -71 36 -71 62 0 25 49 58 86 58 25 0 39 -8 66 -40 27 -32 41 -40 73 -42 36 -3 40 0 43 21 5 30 -22 80 -55 105 -27 20 -166 32 -211 18z"/> <path d="M5705 1435 c-5 -2 -22 -6 -37 -9 -44 -10 -98 -73 -98 -114 0 -34 0 -34 38 -28 56 10 72 16 72 27 0 22 54 59 86 59 51 0 104 -57 105 -113 3 -96 -4 -150 -23 -183 -20 -34 -54 -53 -68 -37 -14 16 -30 76 -30 115 0 51 -32 98 -66 98 -28 0 -84 -37 -84 -57 0 -7 10 -18 23 -24 29 -16 37 -28 37 -61 0 -28 16 -106 30 -143 6 -18 15 -19 86 -16 70 3 83 6 116 33 21 16 38 35 38 42 0 7 6 18 12 24 15 15 37 113 37 167 0 110 -59 206 -136 219 -39 6 -121 7 -138 1z"/> <path d="M6180 1433 c-34 -7 -72 -35 -104 -77 -28 -37 -26 -61 5 -71 23 -8 24 -21 4 -41 -11 -11 -15 -38 -15 -102 0 -48 -3 -110 -6 -139 l-7 -52 36 -6 c19 -4 45 -4 56 0 20 6 21 13 21 152 0 127 2 147 17 158 17 13 17 14 0 32 -24 28 -21 46 12 66 42 25 84 21 121 -10 l32 -26 -4 -184 c-2 -156 -1 -184 12 -188 18 -5 78 -1 83 6 1 2 1 93 -1 202 l-4 197 -38 41 c-37 40 -39 41 -116 44 -44 2 -90 1 -104 -2z"/> <path d="M6610 1433 c-31 -6 -69 -41 -94 -87 -15 -29 -17 -38 -6 -51 25 -30 110 -12 110 24 0 51 75 68 110 24 21 -27 22 -35 18 -210 l-5 -182 24 -6 c13 -3 39 -3 56 0 l32 6 -3 177 c-1 97 -7 196 -13 218 -16 61 -55 86 -138 90 -36 1 -77 0 -91 -3z"/> <path d="M7039 1434 c-14 -3 -41 -21 -60 -40 -29 -30 -33 -40 -33 -90 -1 -53 1 -58 33 -83 37 -28 120 -59 163 -60 28 -1 78 -50 78 -77 0 -21 -47 -62 -79 -69 -43 -9 -101 22 -101 54 0 43 -13 52 -66 49 -38 -2 -50 -7 -52 -22 -6 -30 28 -94 66 -123 33 -25 43 -27 132 -27 86 0 100 3 126 23 47 37 64 71 64 127 0 45 -4 55 -33 84 -34 32 -122 70 -164 70 -38 0 -73 29 -73 60 0 18 8 33 25 44 47 31 104 15 129 -36 9 -18 21 -24 55 -26 59 -4 69 8 47 57 -29 62 -65 82 -154 86 -43 2 -89 1 -103 -1z"/> <path d="M7499 1434 c-14 -3 -43 -21 -65 -40 l-39 -35 -5 -202 c-4 -111 -5 -204 -3 -206 2 -2 24 -5 50 -5 l48 -1 3 102 c3 115 13 130 78 120 39 -7 57 10 52 50 -3 25 -7 28 -46 31 -24 2 -50 -2 -58 -9 -24 -20 -37 3 -30 53 5 34 13 48 35 61 42 24 92 22 126 -7 l27 -24 2 -188 c1 -209 -1 -203 70 -190 l31 6 -3 152 c-4 241 -6 252 -55 292 -38 31 -50 35 -117 39 -41 3 -86 3 -101 1z"/> <path d="M7947 1432 c-15 -4 -43 -22 -62 -41 -28 -27 -35 -42 -35 -72 0 -39 0 -39 39 -39 35 0 43 5 68 43 35 51 72 60 109 26 25 -23 25 -25 24 -206 -1 -100 1 -187 5 -192 3 -6 18 -10 33 -10 62 3 59 -10 55 217 l-3 207 -33 33 c-30 30 -40 33 -103 37 -38 2 -82 1 -97 -3z"/> <path d="M5184 1412 c-62 -33 -97 -118 -54 -129 23 -6 26 -21 6 -37 -11 -8 -15 -46 -18 -154 -4 -154 -6 -148 54 -151 15 0 30 4 34 11 4 6 6 73 5 150 -2 117 0 139 13 144 21 8 20 33 -1 56 -16 18 -16 20 12 43 38 31 93 33 128 4 l27 -20 2 -192 3 -192 47 1 c26 0 49 2 51 5 2 2 1 94 -2 204 -7 218 -5 212 -71 258 -34 24 -192 23 -236 -1z"/> <path d="M4412 888 c-13 -13 -16 -47 -4 -65 4 -6 21 -13 37 -15 28 -3 30 -5 30 -48 l0 -45 53 -3 52 -3 0 95 0 96 -78 0 c-47 0 -83 -5 -90 -12z"/> <path d="M3485 544 c-15 -15 -24 -33 -21 -41 3 -8 -1 -28 -10 -45 -14 -27 -14 -31 2 -49 14 -16 16 -31 11 -98 -5 -59 -3 -83 8 -97 26 -36 40 -2 40 99 0 88 1 92 23 95 31 5 29 40 -3 52 -32 12 -32 21 6 54 24 22 28 30 18 42 -18 21 -45 17 -74 -12z"/> <path d="M4394 556 c-12 -31 0 -51 31 -51 24 0 31 5 33 24 6 36 -51 60 -64 27z"/> <path d="M965 538 c-7 -35 -1 -301 8 -315 12 -19 106 -16 147 5 43 21 59 61 59 157 2 141 -25 174 -136 175 -67 0 -73 -2 -78 -22z m116 -38 c43 -12 49 -26 49 -126 0 -62 -3 -73 -24 -93 -17 -16 -33 -21 -56 -19 l-33 3 0 111 c0 105 5 134 21 134 4 0 23 -5 43 -10z"/> <path d="M3704 547 c-2 -7 -3 -85 -2 -172 l3 -160 52 -3 c29 -2 70 2 92 8 32 8 42 17 55 50 18 45 7 93 -26 111 -20 11 -20 11 1 30 32 30 29 91 -6 124 -24 22 -37 25 -96 25 -46 0 -69 -4 -73 -13z m120 -47 c56 -21 18 -94 -46 -88 -27 2 -34 7 -36 30 -7 57 25 80 82 58z m19 -148 c21 -19 22 -55 1 -76 -16 -16 -93 -23 -95 -8 0 4 -2 23 -4 42 -5 53 10 73 48 65 18 -4 40 -14 50 -23z"/> <path d="M5480 543 c-1 -34 -1 -298 -1 -315 1 -15 10 -18 52 -18 131 0 159 32 159 180 0 97 0 98 -33 134 -32 35 -35 36 -105 36 -62 0 -72 -2 -72 -17z m143 -52 c14 -14 20 -135 8 -178 -12 -44 -36 -59 -78 -51 -16 3 -18 16 -21 112 -3 124 4 141 52 130 17 -3 34 -9 39 -13z"/> <path d="M6412 388 c3 -171 3 -173 26 -176 12 -2 22 0 23 5 0 4 2 83 4 176 l4 167 -30 0 -29 0 2 -172z"/> <path d="M3024 512 c-5 -4 -21 -24 -33 -45 l-23 -38 22 -16 c21 -15 22 -21 17 -89 -5 -63 -3 -77 15 -99 25 -32 74 -35 83 -4 8 24 -1 35 -30 41 -18 3 -20 11 -20 73 0 65 1 69 25 75 30 7 36 45 7 45 -12 0 -24 13 -32 33 -15 35 -15 35 -31 24z"/> <path d="M7784 505 c-12 -8 -27 -28 -34 -45 -11 -26 -10 -33 5 -50 15 -17 17 -31 12 -89 -5 -60 -3 -73 14 -95 25 -32 73 -35 88 -7 11 20 3 32 -31 44 -15 5 -18 19 -18 72 0 61 2 66 25 75 27 10 34 40 9 40 -8 0 -22 16 -30 35 -17 41 -14 39 -40 20z"/> <path d="M2083 480 c-6 -31 -9 -32 -59 -13 -6 2 -16 -3 -23 -11 -10 -12 -16 -13 -32 -3 -31 19 -39 -6 -39 -120 0 -108 5 -133 25 -133 19 0 25 24 25 110 0 90 9 103 67 98 l38 -3 1 -87 c0 -97 13 -120 64 -115 36 3 40 43 6 59 -24 10 -26 16 -26 79 0 62 2 68 22 71 31 4 32 21 3 52 -14 15 -25 31 -25 37 0 5 -9 9 -20 9 -15 0 -22 -9 -27 -30z"/> <path d="M1276 447 c-23 -19 -30 -33 -34 -75 -8 -87 4 -134 39 -154 17 -10 41 -18 53 -18 29 0 76 43 76 70 0 26 -30 26 -53 0 -21 -25 -32 -25 -58 1 -31 31 -19 44 43 47 70 4 82 16 69 73 -17 75 -79 101 -135 56z m78 -40 c10 -7 16 -22 14 -33 -2 -15 -12 -19 -42 -19 -46 0 -55 16 -27 44 25 25 31 25 55 8z"/> <path d="M1550 459 c0 -7 -11 -9 -29 -6 -43 9 -49 -5 -44 -101 3 -48 0 -113 -5 -146 -8 -53 -7 -61 11 -79 19 -19 20 -19 34 -2 8 12 11 31 7 51 -8 44 3 60 26 39 22 -20 49 -14 76 16 15 17 19 37 19 104 0 74 -3 86 -24 109 -25 26 -71 36 -71 15z m34 -55 c12 -5 16 -21 16 -70 0 -53 -3 -65 -20 -74 -14 -8 -26 -8 -40 0 -17 9 -20 21 -20 74 0 34 3 66 7 69 8 9 36 9 57 1z"/> <path d="M1740 453 c-29 -20 -40 -33 -40 -51 0 -23 30 -25 54 -3 26 25 39 26 56 7 19 -24 -2 -48 -45 -52 -52 -5 -65 -19 -65 -71 0 -34 5 -49 23 -64 24 -20 67 -26 67 -9 0 6 16 10 38 8 l37 -3 -3 105 c-3 100 -5 106 -30 127 -32 27 -59 29 -92 6z m78 -155 c4 -34 -27 -54 -58 -38 -26 14 -25 35 3 55 30 21 51 15 55 -17z"/> <path d="M2285 459 c-4 -6 -21 -9 -38 -7 l-32 3 -3 -119 c-3 -124 4 -149 31 -121 13 13 15 30 10 93 -6 85 4 107 49 100 22 -3 23 -5 19 -93 -2 -76 0 -93 14 -105 26 -22 35 3 35 102 0 72 3 89 17 97 11 6 24 6 35 0 15 -8 18 -24 18 -97 0 -98 11 -129 35 -98 12 16 14 40 9 120 -6 87 -10 103 -28 118 -26 22 -45 22 -67 2 -16 -15 -20 -15 -50 0 -38 19 -46 20 -54 5z"/> <path d="M2571 439 c-29 -29 -31 -35 -31 -106 0 -71 2 -77 31 -104 41 -38 78 -38 119 1 17 16 30 35 28 42 -7 21 -43 20 -63 -2 -25 -28 -42 -25 -60 10 -15 28 -14 30 7 35 13 2 43 6 68 7 39 3 45 6 48 27 6 37 -7 71 -35 97 -36 33 -74 31 -112 -7z m76 -27 c7 -4 14 -19 15 -32 3 -21 -2 -25 -27 -28 -47 -4 -61 10 -40 42 18 27 31 31 52 18z"/> <path d="M2844 459 c-3 -6 -17 -8 -32 -4 -36 9 -42 -6 -42 -122 0 -109 5 -133 26 -133 18 0 23 27 26 125 l3 80 35 0 35 0 0 -92 c0 -92 12 -130 35 -107 12 12 14 29 12 132 -2 76 -4 85 -28 107 -28 26 -58 32 -70 14z"/> <path d="M3263 449 c-38 -24 -48 -61 -41 -145 4 -46 10 -60 34 -79 42 -35 85 -32 123 6 29 28 31 36 31 99 0 66 -2 71 -35 105 -41 40 -66 43 -112 14z m87 -58 c12 -24 13 -72 1 -104 -24 -63 -81 -27 -81 51 0 26 5 53 12 60 18 18 56 14 68 -7z"/> <path d="M3982 458 c-8 -8 -12 -48 -12 -109 0 -82 3 -100 21 -123 23 -29 60 -34 79 -11 10 12 16 12 26 4 8 -6 21 -9 29 -5 21 7 22 228 2 245 -26 21 -37 -9 -37 -100 0 -93 -11 -116 -50 -104 -18 6 -20 14 -20 99 0 97 -12 130 -38 104z"/> <path d="M4223 444 c-54 -42 -37 -90 48 -132 37 -19 43 -39 17 -56 -13 -8 -22 -6 -41 12 -32 30 -57 29 -57 -2 0 -28 46 -66 80 -66 12 0 35 9 51 21 24 17 29 28 29 60 0 34 -4 42 -31 57 -17 9 -42 25 -56 36 -22 17 -23 20 -9 34 14 15 19 14 46 -6 33 -25 50 -22 50 8 0 21 -49 60 -77 60 -10 0 -33 -12 -50 -26z"/> <path d="M4584 459 c-3 -6 -19 -9 -35 -5 -16 3 -31 1 -35 -6 -4 -6 -8 -58 -9 -116 -1 -80 2 -107 13 -119 25 -25 35 1 36 99 l1 93 35 0 35 0 3 -80 c3 -99 8 -125 27 -125 22 0 26 31 20 137 -5 86 -8 100 -28 115 -25 20 -53 23 -63 7z"/> <path d="M4761 439 c-29 -29 -31 -35 -31 -104 0 -69 2 -75 31 -104 18 -19 41 -31 56 -31 34 0 93 45 93 71 0 26 -40 25 -63 -1 -20 -24 -31 -25 -52 -4 -31 31 -15 49 50 54 l60 5 3 41 c3 35 -2 46 -28 73 -41 41 -78 41 -119 0z m89 -40 c18 -32 5 -51 -32 -47 -38 3 -48 27 -23 52 22 22 42 20 55 -5z"/> <path d="M4986 445 c-15 -14 -26 -35 -26 -50 0 -26 42 -75 65 -75 7 0 20 -9 30 -20 15 -16 15 -22 5 -35 -17 -21 -37 -19 -52 5 -14 22 -58 28 -57 8 1 -28 16 -49 43 -63 39 -20 62 -19 96 7 38 28 42 80 8 109 -13 10 -28 18 -34 19 -6 0 -23 9 -38 21 -21 17 -24 24 -15 35 15 19 25 18 58 -7 31 -23 51 -19 51 11 0 23 -50 60 -83 60 -13 0 -36 -11 -51 -25z"/> <path d="M5191 441 c-17 -16 -31 -36 -31 -44 0 -20 48 -77 65 -77 18 0 45 -28 45 -46 0 -25 -30 -28 -55 -4 -24 23 -55 24 -63 2 -6 -19 56 -72 86 -72 39 0 92 45 92 79 0 29 -31 64 -66 75 -12 4 -30 16 -40 27 -16 17 -16 22 -4 29 21 13 24 13 50 -10 25 -22 45 -26 55 -10 11 18 -4 45 -34 63 -41 24 -64 21 -100 -12z"/> <path d="M5802 455 c-41 -22 -51 -46 -52 -122 0 -67 2 -74 31 -102 18 -19 41 -31 56 -31 34 0 93 45 93 71 0 26 -37 25 -65 -1 -25 -23 -51 -18 -61 12 -9 29 4 36 66 40 49 3 55 6 58 27 6 37 -7 71 -35 97 -28 26 -55 29 -91 9z m63 -51 c25 -25 15 -49 -23 -52 -37 -4 -50 15 -32 47 13 25 33 27 55 5z"/> <path d="M5966 463 c-9 -10 -7 -61 3 -67 5 -3 12 -23 15 -43 15 -85 50 -153 78 -153 11 0 45 77 53 120 4 19 11 40 15 45 14 17 21 79 11 94 -21 32 -48 -25 -66 -134 l-7 -39 -18 24 c-11 14 -22 45 -25 70 -4 25 -8 50 -10 57 -5 15 -40 34 -49 26z"/> <path d="M6223 451 c-28 -23 -46 -102 -38 -160 12 -77 78 -114 135 -74 29 20 40 33 40 51 0 23 -28 24 -57 2 -32 -23 -59 -19 -68 11 -10 31 3 39 61 39 63 0 70 8 60 73 -5 33 -13 46 -37 60 -39 22 -68 21 -96 -2z m78 -49 c34 -28 19 -54 -28 -50 -43 3 -58 33 -27 55 23 17 27 17 55 -5z"/> <path d="M6557 452 c-42 -26 -58 -105 -37 -183 18 -65 90 -89 140 -48 20 17 25 32 28 85 6 92 -3 127 -37 147 -36 21 -58 21 -94 -1z m81 -54 c14 -14 16 -92 2 -117 -13 -25 -37 -33 -61 -21 -16 9 -19 22 -19 74 0 34 3 66 7 69 11 11 58 8 71 -5z"/> <path d="M6825 460 c-3 -5 -22 -10 -41 -10 -19 0 -34 -3 -34 -7 0 -5 -1 -78 -3 -163 l-2 -155 28 -3 c26 -3 27 -2 27 47 0 38 4 51 14 51 8 0 18 -4 21 -10 10 -16 29 -11 58 15 25 24 27 31 27 107 0 75 -2 84 -27 110 -27 28 -57 36 -68 18z m45 -69 c29 -56 -6 -160 -47 -135 -13 8 -19 26 -21 69 -2 32 -1 64 2 71 8 21 54 17 66 -5z"/> <path d="M7045 459 c-4 -6 -19 -7 -36 -4 -21 5 -29 3 -29 -7 -1 -7 -2 -59 -3 -116 -2 -73 0 -108 10 -120 22 -29 33 4 33 100 0 92 10 111 51 101 17 -5 19 -16 19 -93 0 -97 5 -120 26 -120 20 0 28 43 21 119 -4 36 -3 71 1 77 12 18 39 23 58 10 15 -11 16 -24 12 -94 -5 -59 -2 -86 7 -99 27 -36 38 -1 36 113 -2 96 -4 109 -24 125 -23 19 -67 26 -67 10 0 -16 -39 -19 -57 -5 -22 16 -49 18 -58 3z"/> <path d="M7343 444 c-33 -25 -33 -27 -33 -109 0 -79 2 -86 27 -110 31 -28 61 -32 102 -10 47 24 57 75 16 75 -14 0 -25 -4 -25 -10 0 -5 -10 -14 -21 -21 -18 -9 -25 -7 -42 9 -34 34 -16 52 52 52 68 0 77 10 61 71 -11 40 -54 79 -87 79 -10 0 -33 -12 -50 -26z m80 -45 c16 -26 1 -49 -33 -49 -38 0 -49 23 -24 51 20 22 42 22 57 -2z"/> <path d="M7610 455 c-9 -11 -17 -12 -32 -4 -11 6 -24 7 -29 2 -14 -14 -14 -232 0 -246 10 -9 15 -8 26 7 10 13 12 36 8 81 -3 35 -3 75 1 90 6 22 11 26 39 23 l32 -3 5 -97 c3 -53 8 -100 12 -104 4 -4 15 -1 24 7 13 11 15 30 12 117 -3 96 -5 105 -28 123 -30 23 -53 24 -70 4z"/> <path d="M4407 453 c-4 -3 -7 -60 -7 -125 0 -118 0 -119 23 -116 21 3 22 8 25 112 2 71 -1 113 -9 122 -13 15 -22 18 -32 7z"/> </g> </svg> 