<?xml version="1.0" standalone="no"?>
<!DOCTYPE svg PUBLIC "-//W3C//DTD SVG 20010904//EN"
 "http://www.w3.org/TR/2001/REC-SVG-20010904/DTD/svg10.dtd">
<svg version="1.0" xmlns="http://www.w3.org/2000/svg"
 width="1000.000000pt" height="1000.000000pt" viewBox="0 0 1000.000000 1000.000000"
 preserveAspectRatio="xMidYMid meet">
<metadata>
Created by potrace 1.16, written by Peter Selinger 2001-2019
</metadata>
<g transform="translate(0.000000,1000.000000) scale(0.100000,-0.100000)"
fill="#ffffff" stroke="none">
<path d="M4761 9719 c-795 -50 -1547 -350 -2168 -864 -139 -114 -374 -349
-488 -488 -733 -886 -1021 -2032 -795 -3157 283 -1405 1372 -2548 2766 -2899
505 -128 1088 -148 1594 -55 1518 279 2717 1454 3019 2959 52 259 62 360 68
675 5 314 -5 468 -47 717 -172 997 -756 1898 -1605 2472 -696 471 -1509 693
-2344 640z m706 -138 c741 -99 1397 -397 1953 -887 1140 -1004 1536 -2597
1004 -4036 -91 -248 -274 -590 -441 -825 -449 -634 -1106 -1119 -1843 -1359
-533 -175 -1108 -224 -1665 -143 -397 57 -726 160 -1090 339 -385 189 -668
392 -976 700 -597 596 -951 1339 -1051 2205 -19 167 -16 617 5 795 85 700 345
1322 781 1870 128 160 406 438 566 566 581 463 1248 728 1995 794 166 14 588
4 762 -19z"/>
<path d="M4613 9524 c-814 -88 -1571 -452 -2153 -1034 -549 -549 -898 -1242
-1017 -2020 -25 -162 -27 -199 -27 -505 -1 -354 8 -465 60 -720 145 -716 492
-1350 1020 -1865 295 -288 584 -490 955 -669 588 -283 1229 -398 1889 -337
845 79 1632 457 2233 1076 551 566 883 1253 992 2050 36 256 30 694 -11 980
-101 699 -434 1389 -920 1911 -603 646 -1392 1042 -2259 1134 -174 18 -591 18
-762 -1z m391 -219 c35 -116 100 -219 334 -533 192 -258 271 -387 329 -540 89
-239 65 -491 -63 -648 -43 -53 -139 -118 -165 -111 -10 3 -22 0 -26 -5 -3 -7
-1 -8 5 -4 6 4 20 -2 31 -13 10 -10 36 -21 57 -24 55 -8 105 -27 98 -38 -3 -5
1 -6 9 -3 21 8 31 -13 30 -65 l0 -46 4 43 c2 23 8 40 14 37 5 -4 9 48 9 132
l0 139 45 109 44 110 2 -90 3 -90 5 90 6 90 39 -114 38 -113 -6 -152 c-4 -83
-9 -176 -11 -206 -3 -36 -2 -46 4 -30 l7 25 20 -31 c10 -17 24 -29 30 -27 16
5 64 -36 64 -54 0 -9 28 -41 62 -72 55 -50 59 -56 39 -61 -21 -5 -18 -9 34
-70 95 -108 154 -191 193 -270 35 -70 37 -80 36 -165 0 -79 -5 -101 -36 -180
-45 -116 -125 -275 -138 -275 -5 0 -7 -7 -4 -15 7 -16 -14 -75 -25 -75 -4 0
-12 -14 -18 -31 -9 -24 -16 -30 -30 -25 -9 4 -15 4 -11 1 12 -13 -13 -62 -37
-73 -23 -11 -25 -9 -26 16 -2 27 -2 27 -6 2 -10 -55 -72 -83 -139 -62 -53 16
-43 -9 14 -37 45 -23 97 -38 152 -45 40 -5 42 -5 34 -18 -6 -10 -4 -10 8 0 12
9 37 11 102 4 48 -4 89 -4 92 0 3 4 16 8 30 8 13 0 43 12 66 26 l41 26 -5 -46
c-3 -25 -2 -43 3 -40 5 3 9 -6 9 -20 0 -14 18 -83 41 -153 26 -81 39 -141 37
-165 -2 -20 1 -34 6 -31 11 7 -3 -145 -16 -172 -6 -11 -20 -30 -31 -42 l-20
-23 96 0 97 0 0 -50 c0 -49 -1 -50 -30 -50 -27 0 -30 -3 -30 -30 l0 -30 -362
0 c-199 0 -359 -3 -356 -6 4 -3 162 -5 353 -5 l348 0 -23 -24 c-19 -20 -26
-23 -39 -13 -13 10 -14 10 -4 -2 10 -11 2 -24 -44 -71 l-55 -57 -266 -1 c-145
0 -267 -3 -270 -6 -3 -3 117 -5 266 -5 l272 0 0 -24 c0 -16 7 -26 23 -30 38
-9 114 -65 136 -99 19 -31 20 -48 21 -456 0 -233 -3 -429 -7 -435 -5 -7 3 0
15 14 l24 25 -5 -79 c-4 -54 -13 -93 -30 -127 -13 -26 -19 -45 -13 -41 6 3 19
8 28 9 15 2 16 -1 8 -23 -6 -14 -10 -42 -10 -62 -1 -20 -7 -54 -14 -74 -8 -21
-10 -35 -5 -32 5 3 9 -6 9 -20 0 -22 4 -26 30 -26 29 0 30 -2 30 -44 l0 -45
43 -3 42 -3 3 -48 3 -47 -1735 0 -1736 0 0 50 0 50 45 0 45 0 0 45 c0 43 1 45
30 45 26 0 30 4 31 28 1 15 0 32 -1 37 -2 6 -6 35 -10 65 -4 30 -11 67 -15 82
-6 23 -4 27 14 25 12 -1 21 -5 21 -9 0 -4 5 -8 11 -8 6 0 1 12 -10 26 -25 32
-37 76 -47 164 l-7 65 22 -19 21 -19 0 436 0 437 34 38 c19 21 57 49 85 62 40
18 51 29 51 47 l0 23 270 0 270 0 1 -217 c1 -120 1 -220 1 -223 1 -3 -2 -20
-5 -37 -4 -19 -2 -33 3 -33 6 0 10 15 10 33 0 18 6 39 13 46 10 11 10 13 0 7
-10 -6 -13 76 -15 391 -1 219 -4 359 -5 311 l-4 -88 -354 0 -355 0 0 30 c0 28
-3 30 -35 30 l-35 0 0 50 0 50 123 1 c98 0 116 3 92 11 -55 19 -84 55 -102
126 -6 25 -5 26 12 12 18 -14 18 -14 1 12 -26 39 -13 165 29 293 18 55 36 117
40 137 4 21 11 36 15 33 4 -3 4 11 0 30 -4 19 -6 35 -5 35 9 0 75 -43 75 -48
0 -4 14 -8 30 -9 17 -1 36 -3 43 -4 26 -4 195 12 262 24 69 13 120 34 161 66
17 13 19 22 12 40 -10 28 -3 40 14 23 7 -7 19 -12 27 -12 9 0 32 -29 51 -63
31 -55 169 -207 188 -207 4 0 -31 39 -78 88 -59 60 -97 111 -125 164 -41 78
-42 98 -6 79 17 -9 20 -9 15 3 -4 12 1 13 29 6 26 -5 46 -3 74 10 34 16 83 60
66 60 -4 0 -2 5 4 11 15 15 4 49 -16 49 -22 0 -41 19 -35 35 3 6 -2 18 -11 25
-19 16 -19 39 0 46 12 5 11 9 -7 24 -19 15 -20 20 -9 34 17 20 35 20 51 1 10
-12 10 -18 0 -30 -10 -12 -10 -18 1 -31 10 -12 10 -20 1 -34 -9 -15 -9 -18 2
-14 15 6 40 -21 32 -34 -3 -5 6 -7 20 -4 20 4 26 0 31 -18 4 -16 8 -18 14 -9
4 7 4 18 -1 24 -7 8 -1 19 16 34 32 28 52 75 69 162 12 64 11 69 -7 86 -18 16
-19 16 -12 -3 7 -17 6 -17 -9 -5 -9 7 -17 23 -16 35 0 55 -15 135 -33 173 -14
31 -17 47 -10 60 8 13 4 24 -15 47 -15 18 -23 38 -21 51 3 13 -4 27 -18 38
-23 17 -24 17 -39 -14 -14 -27 -18 -29 -33 -17 -15 12 -16 11 -3 -5 12 -15 11
-20 -4 -37 -10 -11 -21 -17 -25 -15 -4 3 -7 -1 -6 -9 2 -21 -126 -177 -186
-229 -72 -61 -155 -115 -190 -122 -24 -6 -28 -10 -22 -28 28 -89 30 -127 4
-127 -26 0 -59 66 -67 133 -5 42 -14 61 -46 97 -63 72 -90 134 -94 220 -4 65
0 90 31 188 43 136 48 224 20 359 -5 25 -2 34 14 44 19 12 19 14 4 25 -14 10
-15 16 -5 32 9 15 8 25 -6 49 -22 34 -49 53 -116 78 -30 11 -69 37 -96 64 -39
38 -49 56 -59 106 -7 33 -21 75 -31 93 -24 43 -25 42 14 31 17 -5 44 -22 60
-39 l27 -30 0 27 c0 36 26 63 64 64 30 2 30 2 4 6 -33 5 -38 35 -10 55 10 7
22 30 25 51 3 22 19 54 34 74 110 137 114 148 51 178 -66 32 -76 54 -80 177
l-3 106 33 -13 c18 -8 30 -10 27 -5 -6 9 101 130 116 130 5 0 9 -7 9 -15 0 -9
13 -42 30 -74 16 -32 26 -62 22 -67 -4 -5 2 -1 14 9 11 9 25 17 30 17 13 0 18
-204 5 -228 -14 -26 -71 -52 -118 -53 -34 0 -36 -1 -14 -10 23 -9 23 -12 19
-96 -3 -63 -2 -80 5 -62 9 22 11 19 17 -27 9 -63 14 -72 88 -163 78 -95 98
-161 88 -288 -4 -60 -12 -93 -24 -107 -13 -16 -13 -18 -1 -8 9 6 19 9 22 5 11
-11 8 -48 -5 -63 -11 -12 -10 -12 5 0 16 12 20 12 28 -1 14 -22 11 -44 -12
-73 -15 -19 -16 -24 -5 -20 21 8 21 -24 1 -52 -8 -12 -11 -25 -7 -28 4 -4 16
-63 27 -131 l20 -123 20 26 c15 21 15 24 2 13 -22 -18 -23 0 -2 59 8 23 13 52
10 64 -7 28 31 90 51 82 9 -3 14 -1 12 7 -4 16 32 97 44 97 4 0 8 -7 8 -16 0
-9 16 16 36 55 20 40 58 94 85 121 l50 50 -26 12 c-39 18 -12 25 71 20 41 -2
74 -2 74 2 0 4 -12 18 -27 32 l-28 25 54 -7 c30 -3 56 -2 60 3 3 6 33 7 68 4
92 -10 95 -1 11 24 -236 67 -358 242 -358 510 0 255 87 437 419 880 74 99 154
210 178 247 57 88 122 224 130 271 7 47 14 40 37 -38z m-2445 -2934 c48 -75
55 -102 37 -146 -9 -21 -16 -47 -16 -58 0 -21 0 -21 16 1 16 23 16 23 55 -36
51 -76 60 -124 29 -157 -25 -26 -80 -50 -80 -34 0 5 -8 9 -17 8 -11 0 -13 -3
-5 -6 7 -2 12 -23 12 -46 1 -42 29 -113 30 -74 0 22 28 77 38 77 4 0 7 -22 7
-49 0 -42 5 -54 38 -90 20 -22 37 -49 37 -59 1 -26 39 48 40 77 0 16 -4 22
-15 17 -21 -8 -20 65 2 112 l17 36 13 -43 c7 -24 31 -72 54 -107 35 -55 40
-69 37 -106 -3 -24 -8 -52 -12 -63 -7 -19 -7 -19 8 -1 14 18 15 17 23 -10 4
-16 7 -65 7 -109 -1 -84 -25 -165 -69 -235 -12 -19 -31 -54 -42 -76 l-20 -41
54 -51 c67 -64 103 -137 103 -212 0 -102 -34 -171 -104 -207 -65 -34 -216 -12
-216 32 0 8 -5 15 -10 15 -19 0 19 -58 55 -86 38 -29 56 -31 127 -15 173 38
244 163 204 360 -9 45 -21 93 -26 107 -9 23 -11 24 -26 10 -18 -19 -17 -19
-47 -5 -38 17 -51 50 -44 110 7 60 18 77 37 54 22 -27 28 -17 32 58 5 84 24
140 38 117 7 -11 10 -8 10 13 0 15 8 44 17 65 l17 37 3 -30 c2 -16 13 -58 24
-93 19 -58 20 -77 3 -129 -5 -15 -4 -15 5 -3 9 13 11 12 11 -5 1 -46 16 -46
47 2 17 27 32 55 35 63 6 18 47 -70 55 -116 3 -17 0 -41 -7 -53 -16 -31 -6
-37 19 -12 11 11 22 17 25 13 3 -5 10 -47 16 -94 24 -176 -25 -322 -144 -436
-89 -86 -173 -124 -281 -130 -65 -3 -91 0 -140 18 -119 45 -194 165 -166 268
32 121 123 165 186 90 31 -36 31 -46 2 -89 -19 -28 -30 -35 -67 -39 l-45 -5
47 -23 c41 -20 52 -22 81 -13 89 30 120 126 73 227 -59 127 -193 146 -311 42
-153 -135 -119 -348 90 -567 40 -42 98 -92 129 -111 30 -19 55 -38 56 -42 0
-4 -13 -14 -29 -24 -28 -16 -28 -18 -23 -88 5 -84 14 -104 48 -112 19 -5 22
-9 12 -15 -9 -6 -2 -9 20 -9 20 0 31 -4 27 -10 -8 -13 -86 -13 -118 -1 -79 30
-132 123 -104 181 17 34 14 40 -24 40 -16 0 -53 9 -84 21 -46 17 -54 23 -44
35 9 11 7 14 -13 14 -27 0 -130 58 -136 78 -2 6 5 12 15 12 10 0 -5 11 -33 24
-53 25 -107 80 -123 128 -10 27 -9 28 16 22 l26 -7 -25 34 c-71 94 -88 169
-79 349 l6 125 26 -37 25 -37 17 64 c9 35 17 76 17 91 l0 28 47 -44 c26 -25
40 -36 30 -24 -9 11 -17 28 -17 38 0 21 25 71 56 112 26 34 31 60 19 117 -4
20 -5 37 -2 37 3 0 19 -24 36 -52 17 -29 38 -62 46 -73 16 -20 16 -20 31 -1 9
13 14 46 14 95 l0 76 28 -51 c16 -27 35 -60 43 -72 16 -22 16 -22 34 -2 11 12
20 44 24 84 4 36 9 67 11 70 3 2 21 -34 40 -80 19 -46 39 -83 45 -81 16 5 28
71 21 109 -16 88 -88 150 -209 179 -49 12 -97 29 -108 38 -19 15 -16 16 43 13
l63 -3 -39 23 c-52 30 -80 79 -80 140 0 36 6 54 24 73 13 14 31 25 39 26 9 0
2 5 -16 10 -19 6 -35 18 -39 32 -10 30 -7 124 4 144 8 13 12 10 26 -18 9 -19
38 -56 63 -84 26 -27 41 -42 34 -33 -11 15 -9 27 10 72 12 30 26 53 31 50 5
-4 -2 17 -16 45 -31 61 -32 80 -6 131 11 22 20 59 20 85 0 25 1 45 3 45 2 0
18 -22 36 -49z m4874 -88 c23 -44 22 -62 -13 -128 -17 -32 -25 -53 -18 -47 10
8 19 -3 37 -44 l24 -55 29 28 c17 15 39 46 50 67 26 50 38 34 38 -53 0 -70
-16 -101 -54 -101 -19 0 -19 -1 4 -13 82 -41 67 -184 -25 -233 l-36 -19 58 -5
58 -6 -35 -16 c-19 -9 -62 -21 -95 -27 -67 -12 -122 -46 -169 -104 -28 -35
-31 -46 -30 -100 1 -69 21 -165 23 -114 0 16 18 67 39 113 40 91 49 90 51 -2
1 -46 32 -96 50 -79 5 6 26 37 45 70 l36 59 -2 -77 c-2 -61 1 -80 15 -94 9 -9
18 -15 20 -12 2 2 19 27 38 55 64 97 60 93 53 49 -11 -62 -8 -83 18 -118 33
-42 58 -92 58 -113 0 -10 -8 -27 -17 -38 -10 -12 4 -1 30 24 l47 44 0 -28 c0
-15 8 -56 17 -91 l17 -64 25 37 26 37 7 -135 c9 -165 -3 -227 -62 -314 -39
-57 -40 -58 -15 -52 30 8 31 1 4 -44 -34 -56 -61 -81 -114 -106 -27 -13 -42
-24 -32 -24 25 0 21 -13 -10 -37 -46 -33 -90 -53 -119 -53 -26 0 -27 -1 -9
-14 17 -12 15 -14 -26 -30 -24 -9 -64 -20 -89 -24 -32 -6 -44 -13 -41 -23 24
-80 3 -136 -67 -180 -48 -30 -120 -39 -152 -19 -11 7 -5 10 25 10 26 0 35 3
27 9 -11 6 -9 9 6 13 11 3 27 16 35 29 19 29 25 142 9 162 -7 8 -9 16 -6 20 3
3 -3 3 -14 0 -42 -11 -29 16 26 52 123 82 221 197 288 339 34 71 36 82 32 149
-7 107 -57 186 -148 232 -91 46 -158 40 -222 -22 -65 -62 -77 -187 -23 -243
44 -46 87 -56 135 -32 26 13 41 15 44 8 2 -6 5 -3 5 7 1 13 -7 17 -38 17 -32
0 -44 6 -65 31 -44 52 -27 107 39 129 30 10 40 9 68 -7 80 -47 103 -167 51
-263 -53 -99 -155 -146 -293 -138 -179 11 -357 160 -406 342 -14 50 -16 89
-13 178 3 62 9 121 13 131 7 17 9 17 27 -3 26 -27 31 -21 17 19 -10 28 -8 42
16 102 l28 69 23 -37 c13 -21 30 -51 37 -67 12 -23 15 -25 21 -11 3 9 6 26 6
36 0 11 5 17 10 14 13 -8 13 11 -1 36 -8 16 -6 35 10 82 12 33 21 77 21 96 l1
36 19 -24 c14 -16 20 -38 20 -69 0 -40 2 -44 13 -28 12 16 15 14 28 -26 8 -23
14 -69 14 -100 0 -61 4 -68 25 -43 21 25 28 18 41 -39 14 -63 1 -101 -43 -125
-24 -14 -28 -14 -46 2 -18 16 -19 15 -37 -41 -24 -75 -31 -209 -14 -269 24
-86 96 -140 229 -171 37 -9 50 -7 82 9 37 19 97 93 85 106 -4 3 -9 -2 -13 -11
-3 -9 -11 -13 -17 -9 -6 3 -7 1 -3 -5 9 -15 -30 -39 -76 -47 -101 -19 -195 41
-224 142 -31 108 5 215 100 299 l50 44 -53 102 c-30 57 -60 126 -67 153 -15
53 -18 152 -8 204 6 30 8 31 24 16 17 -16 17 -14 3 26 -18 53 -12 80 34 146
20 29 41 74 48 100 l12 47 18 -28 c10 -15 20 -49 23 -77 4 -43 2 -49 -12 -43
-12 5 -16 0 -16 -23 0 -16 6 -38 14 -48 13 -17 15 -17 45 16 43 46 64 94 56
133 l-6 31 26 -29 c18 -20 25 -37 22 -53 -2 -12 -3 -23 -1 -23 11 0 34 64 34
93 0 31 -4 36 -45 52 -76 29 -85 78 -29 171 47 79 50 81 68 48 21 -39 21 -9 0
52 -19 56 -14 79 34 151 l37 57 5 -55 c3 -30 13 -68 23 -86z m-3896 -1400 c-3
-5 5 -8 18 -8 13 0 21 3 18 8 -7 12 226 8 249 -4 15 -8 19 -8 14 0 -8 12 208
16 238 5 13 -5 16 -22 16 -86 l0 -79 -52 2 c-29 1 -59 7 -67 13 -11 8 -13 8
-7 -1 10 -17 -232 -16 -253 1 -11 8 -13 8 -8 -1 6 -9 -12 -12 -70 -12 -65 0
-82 4 -100 21 -13 12 -23 30 -23 39 0 11 -5 16 -13 14 -7 -3 -35 17 -62 45
l-49 50 77 0 c43 0 76 -3 74 -7z m1462 -1939 c12 -15 21 -38 21 -51 0 -20 4
-23 20 -18 15 5 21 0 26 -21 4 -17 2 -29 -7 -34 -8 -6 1 -10 27 -12 34 -3 39
-6 37 -25 -2 -19 2 -23 25 -23 18 0 38 -10 56 -29 l27 -28 -31 -27 c-17 -14
-42 -26 -55 -26 -18 0 -23 -4 -18 -16 7 -18 -12 -34 -43 -34 -12 0 -22 -6 -21
-12 1 -41 -4 -50 -23 -45 -16 4 -20 0 -20 -18 0 -37 -41 -79 -68 -71 -25 8
-56 61 -48 82 4 11 0 13 -18 8 -20 -5 -24 -1 -29 24 -4 22 -14 33 -36 40 -22
8 -29 15 -25 26 4 11 0 16 -15 16 -11 0 -35 14 -53 30 l-33 30 33 30 c18 17
42 30 53 30 15 0 19 5 15 15 -7 19 37 38 68 30 15 -5 17 -4 7 3 -9 6 -11 19
-7 35 4 19 11 24 26 20 16 -4 20 0 20 19 0 29 35 78 55 78 7 0 23 -12 34 -26z
m-381 -54 c37 -17 102 -74 102 -90 0 -4 -26 -4 -58 -2 -96 7 -142 -28 -142
-105 1 -62 43 -98 101 -86 32 6 32 6 25 -27 -9 -45 -30 -77 -69 -100 -95 -59
-259 20 -302 145 -12 36 -13 37 -24 18 -31 -60 -160 -92 -287 -73 -160 24
-311 104 -446 238 -37 36 -66 67 -64 69 1 2 27 -10 57 -26 169 -91 336 -90
699 4 236 61 332 69 408 35z m1082 -34 c258 -65 392 -83 507 -68 90 12 174 41
227 77 20 13 36 21 36 16 0 -17 -154 -154 -225 -200 -203 -133 -484 -157 -568
-49 l-23 29 -12 -38 c-37 -121 -204 -201 -300 -143 -36 22 -72 74 -72 106 0
19 6 21 41 20 73 -2 111 72 74 143 -19 38 -63 54 -130 49 -33 -3 -55 -1 -55 5
0 18 76 83 111 94 77 25 164 15 389 -41z"/>
<path d="M5641 6675 c2 -161 -1 -241 -9 -265 -12 -35 -126 -159 -137 -149 -3
3 2 23 10 43 30 70 15 76 -46 19 -31 -29 -61 -53 -67 -53 -16 0 -14 40 3 70
20 36 19 60 -4 60 -45 0 -47 -5 -40 -113 11 -164 13 -171 86 -242 42 -41 62
-68 57 -76 -4 -7 -3 -10 4 -5 6 3 14 0 19 -8 10 -17 101 -26 107 -11 2 6 -2
19 -9 28 -7 10 -13 53 -14 107 -1 101 4 109 76 111 30 2 32 3 11 6 -16 2 -28
10 -28 17 0 8 -9 16 -21 19 -33 9 -22 51 15 55 l29 4 -5 289 c-4 259 -6 291
-22 307 -16 16 -17 6 -15 -213z"/>
<path d="M5809 6734 c0 -5 -6 -107 -12 -226 l-12 -217 30 -3 c24 -2 31 -8 33
-30 3 -23 -1 -28 -20 -28 -18 0 -13 -5 19 -20 46 -20 65 -58 43 -85 -6 -8 -10
-20 -7 -27 4 -8 6 -7 6 4 1 17 17 24 76 31 22 3 18 4 -14 6 -47 1 -48 5 -21
77 l11 27 32 -29 c18 -16 23 -18 11 -5 -19 20 -20 28 -12 68 14 63 7 285 -9
290 -7 3 -32 32 -57 66 -46 66 -96 117 -97 101z"/>
<path d="M3772 4268 c-9 -9 -12 -123 -12 -451 0 -316 -3 -436 -11 -431 -8 5
-8 1 0 -14 6 -11 11 -35 11 -52 0 -17 -5 -41 -11 -52 -8 -15 -8 -19 0 -14 6 4
11 1 11 -8 0 -9 11 -16 28 -18 24 -3 27 -7 30 -45 l3 -43 1145 0 1144 0 0 45
c0 43 1 45 29 45 34 0 42 19 28 63 -5 15 -5 39 0 55 4 15 6 226 3 470 -5 481
-3 462 -61 462 -17 0 -58 -23 -114 -65 -48 -36 -98 -68 -111 -71 -23 -6 -24
-8 -9 -24 27 -29 50 -29 95 1 49 33 69 35 111 13 l31 -15 -43 -22 c-25 -13
-56 -41 -74 -67 -33 -48 -101 -90 -145 -90 l-25 0 6 -202 c3 -112 2 -208 -3
-214 -4 -6 -5 -13 -2 -16 9 -10 -26 -82 -54 -111 -50 -53 -150 -87 -256 -87
-29 0 -45 -5 -53 -19 -6 -10 -35 -30 -64 -45 -43 -21 -67 -26 -128 -26 -104 0
-196 -16 -260 -46 -38 -17 -57 -21 -66 -14 -34 28 -136 51 -260 59 -136 8
-160 15 -210 61 -25 23 -42 28 -105 33 -84 7 -146 26 -191 57 -39 29 -82 104
-77 135 3 13 2 22 -2 20 -4 -3 -5 89 -2 204 l5 208 -43 7 c-64 10 -98 32 -131
86 -20 33 -43 55 -69 67 -22 10 -40 21 -40 24 0 14 60 31 88 24 16 -3 49 -23
73 -43 24 -20 38 -29 31 -20 -11 13 -9 17 12 22 14 3 31 16 37 27 7 14 7 19 0
15 -15 -10 -65 18 -145 80 -70 55 -117 69 -144 42z"/>
<path d="M5240 1790 c-19 -47 -53 -60 -108 -44 -25 8 -82 14 -128 14 -196 0
-322 -90 -353 -253 l-8 -47 82 0 82 0 6 36 c14 86 100 142 201 131 102 -10
146 -53 146 -141 0 -78 -26 -96 -225 -157 -198 -60 -212 -66 -253 -114 -97
-109 -73 -336 44 -414 62 -41 161 -57 235 -39 l54 13 3 68 3 68 -28 -8 c-43
-12 -105 -9 -138 7 -65 33 -93 119 -61 193 20 48 41 61 166 102 63 21 134 46
158 56 l42 18 0 -259 0 -260 80 0 80 0 0 393 c-1 389 -2 402 -34 479 -5 11 -1
18 14 23 52 16 120 99 120 145 0 19 -6 20 -84 20 l-84 0 -12 -30z"/>
<path d="M4121 1760 c-180 -38 -265 -238 -166 -388 33 -50 60 -69 186 -132 57
-29 118 -63 135 -77 62 -46 79 -124 47 -204 -12 -32 -26 -46 -57 -60 -50 -22
-76 -23 -121 -5 -41 18 -72 64 -81 123 l-6 43 -79 0 -79 0 0 -49 c0 -99 47
-180 132 -226 69 -37 194 -46 283 -21 115 34 185 139 185 280 0 138 -48 200
-222 292 -62 33 -131 77 -155 100 -39 36 -43 45 -43 87 0 34 6 53 24 74 22 25
31 28 86 28 55 0 64 -3 86 -28 13 -15 29 -48 35 -73 l11 -44 80 0 79 0 -6 38
c-19 119 -67 195 -144 226 -50 20 -153 28 -210 16z"/>
<path d="M3269 1744 c-77 -23 -140 -72 -171 -133 l-28 -53 0 -399 0 -399 80 0
80 0 0 153 c0 139 2 157 23 197 12 25 37 55 55 66 35 24 118 40 151 29 20 -6
21 -3 21 69 l0 76 -46 0 c-69 0 -123 -20 -166 -61 l-38 -36 0 136 c0 117 3
140 20 168 30 49 73 68 160 68 83 0 126 -18 164 -68 20 -28 21 -40 24 -413 l3
-384 79 0 80 0 0 378 c0 411 -3 440 -55 508 -58 76 -159 114 -299 113 -50 0
-112 -7 -137 -15z"/>
<path d="M5728 1741 c-92 -30 -156 -80 -218 -170 l-23 -34 21 -16 c38 -29 42
-62 42 -347 l0 -274 -50 0 -50 0 0 -70 0 -70 130 0 130 0 0 338 c0 273 -3 349
-16 397 l-15 60 26 22 c74 64 236 69 304 9 49 -44 51 -59 51 -456 l0 -370 80
0 80 0 0 398 c0 453 1 444 -85 520 -89 78 -271 106 -407 63z"/>
<path d="M6527 1746 c-103 -37 -185 -141 -187 -238 l0 -28 80 0 c74 0 80 2 80
20 0 28 23 70 54 99 36 34 110 39 154 11 61 -38 62 -49 62 -470 l0 -380 80 0
80 0 0 403 c0 368 -2 405 -19 442 -24 53 -100 119 -158 139 -57 19 -174 20
-226 2z"/>
<path d="M3540 535 l0 -65 35 0 35 0 0 -120 0 -120 75 0 75 0 0 185 0 185
-110 0 -110 0 0 -65z"/>
<path d="M4250 535 l0 -65 35 0 35 0 0 -120 0 -120 75 0 75 0 0 185 0 185
-110 0 -110 0 0 -65z"/>
</g>
</svg>
