 <svg  version="1.0" xmlns="http://www.w3.org/2000/svg"  width="900.000000pt" height="567.000000pt" viewBox="0 0 900.000000 567.000000"  preserveAspectRatio="xMidYMid meet">  <g transform="translate(0.000000,567.000000) scale(0.100000,-0.100000)" fill="#ffffff" stroke="none"> <path d="M4793 4093 c-10 -26 3 -48 30 -51 l27 -3 2 -487 c2 -588 4 -535 -18 -564 -35 -46 -88 -63 -195 -62 -90 1 -100 3 -133 29 -64 49 -66 62 -66 399 0 165 -3 318 -6 338 -19 113 -204 169 -287 87 -23 -24 -28 -35 -22 -57 7 -31 41 -61 68 -62 11 0 32 9 49 21 16 12 32 19 35 16 3 -3 4 -157 4 -342 l-2 -337 34 -41 c50 -60 136 -100 254 -116 91 -13 241 1 278 26 11 7 25 13 32 13 27 0 94 52 120 93 l28 42 5 500 5 500 27 3 c29 3 47 37 30 54 -15 15 -293 16 -299 1z"/> <path d="M1660 4023 c-23 -28 -145 -168 -165 -189 -51 -57 -215 -233 -236 -253 -14 -14 -72 -78 -129 -141 -57 -63 -115 -127 -129 -141 -15 -14 -82 -86 -151 -160 -69 -74 -153 -163 -187 -198 -35 -36 -63 -69 -63 -75 0 -6 46 -59 103 -117 92 -95 201 -211 402 -429 38 -41 81 -87 95 -101 40 -42 241 -258 305 -329 33 -36 74 -81 92 -100 18 -19 43 -50 56 -67 12 -18 27 -33 33 -33 6 0 33 26 60 57 26 32 62 72 79 89 29 30 52 55 200 215 124 134 299 321 335 358 19 21 80 86 135 147 55 60 141 152 192 204 51 52 93 100 93 108 0 7 -35 48 -77 91 -43 43 -123 127 -178 187 -142 154 -236 255 -265 285 -64 67 -134 143 -230 249 -57 63 -115 127 -129 141 -45 46 -159 173 -181 202 -12 15 -25 27 -29 27 -4 0 -18 -12 -31 -27z m53 -166 c10 -51 17 -127 17 -168 1 -41 7 -101 15 -134 8 -33 15 -83 15 -112 0 -28 7 -87 15 -130 8 -43 15 -103 15 -133 0 -30 8 -84 16 -120 20 -79 26 -408 8 -431 -6 -8 -14 -66 -18 -130 -3 -67 -12 -132 -21 -152 -10 -23 -15 -69 -15 -127 0 -50 -5 -100 -11 -111 -6 -11 -13 -62 -16 -112 -6 -97 -32 -218 -48 -219 -12 0 -30 120 -45 287 -6 66 -15 124 -20 129 -6 6 -10 52 -10 103 0 58 -6 110 -16 139 -15 45 -29 175 -40 382 -4 65 -1 114 10 162 9 38 16 95 16 127 1 32 7 85 15 118 8 33 15 83 15 111 0 28 5 76 11 105 6 30 15 101 20 159 5 58 13 146 18 195 5 50 10 105 10 123 1 20 6 32 14 32 9 0 19 -30 30 -93z m103 -85 c-12 -12 -19 -13 -27 -5 -16 16 -3 32 22 26 19 -5 19 -7 5 -21z m-222 -28 c20 -20 12 -34 -20 -34 -30 0 -30 -1 1 -46 19 -27 25 -50 25 -88 0 -37 -3 -47 -10 -36 -5 8 -10 23 -10 32 0 20 -86 108 -106 108 -22 0 -16 20 9 29 12 5 31 18 41 30 23 25 49 27 70 5z m291 -34 c0 -8 12 -21 28 -28 29 -14 36 -32 12 -32 -8 0 -15 -7 -15 -15 0 -8 -4 -15 -10 -15 -17 0 -50 -34 -50 -51 0 -9 -7 -22 -15 -29 -8 -7 -15 -29 -15 -50 0 -21 7 -43 15 -50 9 -7 15 -29 15 -54 0 -22 7 -54 15 -69 8 -16 18 -51 21 -79 4 -29 13 -63 20 -77 8 -14 14 -42 14 -62 0 -19 5 -40 11 -46 5 -5 13 -36 16 -67 3 -31 12 -61 19 -67 14 -12 19 -60 8 -72 -4 -3 -19 0 -35 9 -30 15 -35 27 -43 104 -7 69 -27 173 -37 195 -9 20 -24 103 -38 210 -4 33 -13 73 -19 88 -7 16 -12 39 -12 51 0 34 36 110 65 137 30 29 31 39 5 39 -22 0 -60 -34 -77 -71 -11 -22 -12 -21 -12 21 -1 69 29 101 94 96 11 0 20 -8 20 -16z m-416 -50 c20 0 81 -82 81 -108 0 -10 7 -27 15 -38 17 -23 20 -97 3 -127 -6 -12 -15 -48 -19 -82 -14 -104 -31 -189 -40 -207 -5 -10 -9 -35 -9 -55 -1 -21 -7 -56 -15 -78 -8 -22 -15 -52 -15 -68 0 -20 -7 -30 -25 -37 -33 -12 -32 -19 11 -56 40 -36 37 -24 74 -339 12 -99 26 -218 33 -265 13 -93 15 -165 6 -174 -14 -14 -73 32 -186 149 -68 68 -123 127 -123 130 0 3 -28 34 -62 69 -35 36 -103 108 -153 161 -49 54 -105 112 -122 131 -18 18 -33 37 -33 41 0 5 -18 26 -40 48 -21 22 -39 47 -40 56 0 9 15 24 33 34 28 15 37 16 57 5 27 -14 198 -21 206 -8 3 4 14 8 25 8 14 0 19 7 19 25 0 14 7 28 15 31 8 4 15 14 15 24 0 10 7 25 15 34 8 8 15 20 15 26 0 7 6 24 14 38 7 15 27 56 43 92 17 36 46 99 66 141 21 42 37 80 37 86 0 6 7 16 15 23 18 15 20 63 3 58 -7 -3 -15 -13 -17 -24 -2 -10 -6 -21 -10 -24 -7 -5 -65 -114 -100 -187 -8 -18 -19 -33 -23 -33 -4 0 -8 -9 -8 -19 0 -11 -4 -23 -10 -26 -5 -3 -22 -33 -37 -65 -15 -33 -31 -60 -35 -60 -4 0 -8 -8 -8 -19 0 -10 -7 -24 -15 -31 -8 -7 -15 -20 -15 -29 0 -22 -36 -61 -56 -61 -17 0 -29 25 -20 43 3 6 15 26 26 42 11 17 25 41 30 55 6 13 14 27 18 30 4 3 13 16 19 30 7 14 26 48 43 75 16 28 35 62 41 78 6 15 15 27 19 27 5 0 12 10 16 23 3 12 19 41 35 65 16 24 29 48 29 53 0 6 7 17 15 25 17 18 20 44 5 44 -6 0 -15 -10 -20 -22 -10 -22 -27 -51 -43 -72 -4 -6 -35 -54 -69 -106 -109 -170 -157 -245 -165 -256 -15 -19 -33 -49 -43 -69 -19 -41 -47 -68 -64 -62 -20 8 -21 56 -1 63 8 4 15 12 15 20 0 7 6 17 13 21 8 4 17 15 20 23 11 23 154 238 167 250 10 10 50 69 50 75 0 4 6 12 13 19 6 8 19 24 27 36 8 12 23 33 33 45 9 13 17 28 17 34 0 6 5 11 10 11 6 0 15 11 20 25 5 14 14 25 20 25 15 0 12 28 -5 37 -9 6 -11 13 -5 23 8 12 10 12 16 -3 9 -24 34 -21 34 3 0 24 18 26 35 3 8 -10 14 -12 19 -5 3 6 -1 17 -9 25 -8 9 -15 20 -15 25 0 6 -6 12 -12 15 -8 2 -9 8 -4 13 5 5 11 4 13 -3 3 -7 12 -13 22 -13 9 0 23 -10 31 -21 8 -12 20 -27 26 -33 7 -7 13 -21 15 -31 6 -27 29 -31 29 -5 0 11 -17 38 -37 59 -21 21 -44 49 -51 61 -12 20 -12 22 3 16 9 -3 24 -6 34 -6z m514 -16 c6 -6 -17 -37 -55 -72 -22 -20 -23 -42 -3 -42 8 0 15 8 15 18 0 10 14 26 30 35 17 10 30 22 30 28 0 5 5 9 10 9 6 0 10 -7 10 -15 0 -8 -4 -15 -10 -15 -5 0 -10 -5 -10 -11 0 -7 -8 -18 -17 -25 -15 -10 -16 -15 -5 -26 10 -10 14 -9 18 10 4 12 12 22 19 22 7 0 15 6 18 13 4 10 7 10 18 0 11 -11 10 -13 -4 -13 -11 0 -17 -8 -17 -25 0 -16 6 -25 15 -25 8 0 15 9 15 20 0 11 5 20 10 20 6 0 10 -4 10 -9 0 -5 17 -27 38 -49 46 -50 90 -100 122 -143 14 -18 32 -40 40 -49 8 -8 31 -36 50 -60 19 -25 59 -74 89 -110 61 -74 71 -87 125 -155 22 -28 46 -55 53 -62 19 -15 13 -58 -9 -58 -9 0 -52 47 -99 110 -46 61 -93 121 -106 135 -13 14 -23 28 -23 31 0 3 -11 19 -25 35 -14 16 -38 47 -53 69 -15 22 -29 42 -32 45 -17 16 -100 130 -100 138 0 5 -7 12 -15 16 -8 3 -15 12 -15 21 0 8 -7 15 -15 15 -8 0 -15 9 -15 20 0 11 -7 20 -15 20 -8 0 -15 -9 -15 -20 0 -11 7 -20 15 -20 8 0 15 -9 15 -20 0 -11 7 -23 15 -26 8 -4 15 -13 15 -20 0 -8 7 -17 15 -20 8 -4 15 -11 15 -16 0 -5 8 -20 18 -33 9 -12 24 -33 32 -45 8 -13 30 -43 48 -67 17 -24 32 -46 32 -49 0 -3 14 -23 30 -44 17 -21 30 -42 30 -48 0 -6 3 -12 8 -14 4 -1 25 -30 47 -62 22 -33 52 -73 68 -90 15 -17 27 -38 27 -47 0 -10 11 -19 28 -22 54 -12 58 -21 29 -69 -23 -40 -51 -73 -217 -251 -66 -72 -225 -240 -315 -334 -27 -29 -66 -70 -85 -92 -19 -22 -40 -40 -46 -41 -6 0 -23 -10 -38 -21 -33 -26 -40 -20 -38 29 0 20 1 53 1 71 0 45 39 371 51 436 6 28 14 84 20 125 14 101 18 110 44 110 13 0 29 6 35 14 10 12 37 14 127 11 104 -3 138 4 99 19 -8 3 -15 12 -15 19 0 8 -7 20 -15 27 -8 7 -15 21 -15 30 0 10 -6 31 -14 47 -8 15 -21 44 -29 63 -8 19 -22 51 -30 70 -8 19 -20 46 -25 60 -6 14 -20 48 -32 75 -12 28 -26 61 -32 75 -5 14 -16 39 -23 55 -8 17 -16 40 -20 53 -3 12 -11 22 -16 22 -14 0 -11 -54 6 -76 8 -10 15 -27 15 -37 0 -11 7 -33 15 -50 15 -35 43 -110 52 -142 3 -11 11 -34 19 -52 8 -17 14 -39 14 -50 0 -10 7 -27 15 -37 8 -11 15 -32 15 -47 0 -15 7 -29 15 -33 9 -3 15 -19 15 -41 0 -28 -4 -35 -19 -35 -24 0 -61 50 -61 83 0 14 -7 38 -15 53 -8 16 -15 40 -15 54 0 14 -7 34 -15 44 -8 11 -15 30 -15 42 0 12 -7 35 -15 50 -8 16 -15 41 -15 56 0 15 -4 29 -9 32 -5 4 -12 24 -16 46 -4 22 -11 42 -16 46 -5 3 -9 23 -9 45 0 26 -5 42 -15 45 -10 4 -15 20 -15 44 0 21 7 43 15 50 8 7 15 19 15 27 0 16 69 83 86 83 6 0 14 -3 17 -6z m-673 -129 c0 -8 -6 -15 -14 -15 -7 0 -17 -8 -20 -17 -13 -35 -37 -73 -47 -73 -5 0 -9 -7 -9 -15 0 -8 -4 -15 -9 -15 -5 0 -26 -26 -47 -57 -39 -57 -66 -92 -94 -122 -8 -9 -27 -34 -42 -56 -14 -22 -42 -58 -62 -80 -20 -22 -36 -45 -36 -52 0 -7 -6 -16 -13 -20 -18 -12 -77 -89 -77 -102 0 -16 -48 -44 -65 -37 -25 9 -17 33 30 83 25 26 45 50 45 54 0 3 9 17 21 30 11 13 30 35 42 49 12 14 40 48 62 75 22 28 45 56 52 63 7 7 34 41 60 75 27 34 55 69 63 78 17 18 58 66 109 128 36 43 51 51 51 26z"/> <path d="M1586 2862 c-7 -12 4 -52 15 -52 12 0 12 47 0 55 -5 3 -12 2 -15 -3z"/> <path d="M1636 2803 c-23 -261 -12 -387 13 -153 7 63 15 139 18 168 5 43 3 52 -10 52 -12 0 -17 -16 -21 -67z"/> <path d="M1701 2685 c4 -164 6 -186 23 -202 18 -18 18 -16 12 46 -3 35 -6 126 -6 202 0 121 -2 139 -16 139 -14 0 -16 -20 -13 -185z"/> <path d="M1761 2813 c0 -32 4 -76 8 -98 l8 -40 7 45 c10 62 4 143 -11 148 -10 3 -13 -12 -12 -55z"/> <path d="M1430 3531 c0 -20 17 -37 27 -28 7 8 -7 47 -18 47 -5 0 -9 -9 -9 -19z"/> <path d="M1370 3515 c0 -8 7 -15 15 -15 8 0 15 7 15 15 0 8 -7 15 -15 15 -8 0 -15 -7 -15 -15z"/> <path d="M1520 3466 c0 -18 -7 -47 -15 -62 -8 -16 -15 -40 -15 -54 0 -15 -4 -30 -9 -35 -10 -10 -23 -57 -41 -140 -4 -22 -13 -41 -19 -43 -6 -2 -11 -18 -11 -36 0 -18 -7 -41 -15 -52 -8 -10 -15 -31 -15 -45 0 -14 -7 -34 -15 -45 -8 -10 -15 -35 -15 -56 0 -30 -4 -38 -27 -46 -26 -10 -25 -10 17 -11 25 0 50 3 57 7 7 4 15 35 19 67 4 33 12 67 19 75 7 8 15 39 18 69 4 29 10 58 15 65 5 6 12 36 16 66 4 30 12 60 17 67 6 6 13 37 16 67 3 31 12 61 19 67 20 17 19 109 -1 109 -10 0 -15 -10 -15 -34z"/> <path d="M1344 3476 c-4 -10 -2 -22 4 -28 8 -8 13 -7 18 6 4 10 2 22 -4 28 -8 8 -13 7 -18 -6z"/> <path d="M1407 3484 c-11 -11 -8 -44 3 -44 15 0 24 30 13 41 -5 5 -12 6 -16 3z"/> <path d="M1460 3466 c0 -13 -6 -37 -14 -53 -15 -30 -35 -75 -61 -138 -25 -60 -36 -86 -52 -125 -8 -19 -21 -50 -29 -68 -28 -67 -46 -108 -60 -135 -8 -16 -14 -40 -14 -53 0 -19 -8 -28 -30 -35 -48 -17 -37 -32 18 -24 58 9 61 11 55 33 -2 10 3 24 11 31 9 8 16 23 16 35 0 12 7 31 15 42 8 10 15 28 15 40 0 11 7 29 15 40 8 10 15 30 15 44 0 14 6 34 14 45 7 11 17 36 21 55 4 19 11 41 15 50 21 41 50 128 50 147 0 11 7 23 15 27 9 3 15 18 15 36 0 20 -5 30 -15 30 -9 0 -15 -9 -15 -24z"/> <path d="M1887 3513 c-13 -13 -7 -53 8 -53 10 0 15 10 15 30 0 29 -9 38 -23 23z"/> <path d="M1944 3495 c-7 -17 4 -37 17 -30 12 8 12 45 -1 45 -6 0 -13 -7 -16 -15z"/> <path d="M2000 3485 c0 -8 7 -15 15 -15 8 0 15 7 15 15 0 8 -7 15 -15 15 -8 0 -15 -7 -15 -15z"/> <path d="M1970 3437 c0 -13 7 -30 15 -37 8 -7 15 -19 15 -26 0 -8 13 -40 29 -71 61 -122 71 -144 71 -158 0 -8 5 -15 10 -15 6 0 10 -6 10 -13 0 -7 9 -29 20 -50 11 -20 20 -43 20 -51 0 -7 7 -19 15 -26 8 -7 15 -20 15 -30 0 -10 7 -23 15 -30 8 -7 15 -25 15 -41 0 -34 32 -59 77 -59 37 0 54 17 21 22 -13 2 -24 11 -27 23 -2 11 -9 24 -17 28 -8 4 -14 13 -14 19 0 16 -40 97 -51 104 -5 3 -9 14 -9 24 0 10 -4 20 -8 22 -5 2 -22 30 -39 63 -76 152 -106 205 -114 211 -5 3 -9 13 -9 23 0 10 -6 24 -14 31 -8 6 -16 21 -18 32 -4 31 -28 35 -28 5z"/> <path d="M2030 3441 c0 -12 7 -24 15 -27 8 -4 15 -12 15 -20 0 -7 13 -32 29 -56 16 -24 39 -63 52 -88 13 -25 26 -47 29 -50 3 -3 11 -16 18 -30 7 -14 26 -47 42 -75 17 -27 36 -61 43 -75 6 -14 17 -31 24 -38 7 -7 13 -18 13 -24 0 -6 6 -19 14 -27 8 -9 18 -32 23 -51 8 -29 14 -35 35 -35 15 0 30 -3 34 -7 11 -12 34 -10 34 3 0 6 -9 13 -20 16 -11 3 -20 14 -20 24 0 10 -5 21 -11 24 -5 4 -14 17 -20 28 -9 22 -26 51 -42 71 -5 6 -37 56 -72 111 -35 55 -69 105 -75 112 -5 7 -10 16 -10 21 0 8 -8 19 -49 68 -5 6 -12 20 -15 32 -4 12 -12 22 -17 22 -5 0 -9 7 -9 15 0 7 -6 18 -14 22 -8 4 -15 17 -17 27 -6 27 -29 33 -29 7z"/> <path d="M3522 3801 c-23 -4 -48 -13 -54 -19 -7 -7 -20 -12 -31 -12 -24 0 -107 -55 -131 -88 -19 -25 -20 -43 -18 -373 2 -307 1 -349 -13 -363 -9 -9 -24 -16 -34 -16 -9 0 -22 -5 -29 -12 -16 -16 -15 -48 1 -48 137 -5 301 0 309 8 14 14 -17 52 -42 52 -34 0 -40 21 -40 153 0 119 2 131 26 175 36 65 93 122 122 122 13 0 37 -11 54 -25 37 -32 59 -32 97 1 38 31 39 60 6 96 -31 34 -84 45 -136 28 -36 -12 -104 -72 -142 -124 -24 -33 -31 1 -28 138 3 151 15 184 82 224 37 22 55 25 128 25 96 0 152 -20 190 -69 21 -26 21 -34 19 -383 l-3 -356 -27 -3 c-29 -3 -47 -37 -30 -54 6 -6 72 -10 153 -10 l144 0 0 29 c0 23 -5 29 -28 31 -15 2 -32 12 -37 23 -7 12 -10 138 -9 353 1 306 -1 337 -17 365 -33 56 -125 108 -229 131 -46 11 -191 11 -253 1z"/> <path d="M5480 3800 c-108 -26 -189 -77 -236 -147 -19 -28 -34 -61 -34 -72 0 -18 6 -21 49 -21 28 0 53 -4 56 -10 10 -16 -14 -50 -35 -50 -11 0 -29 -10 -41 -22 -21 -23 -21 -27 -14 -228 3 -113 7 -218 8 -235 2 -25 -1 -29 -18 -27 -11 2 -27 10 -36 18 -24 22 -55 17 -78 -12 -52 -66 -6 -134 89 -135 69 0 170 45 170 75 0 8 7 19 15 26 13 11 15 61 15 342 l0 330 31 39 c47 60 79 72 184 72 81 0 94 -3 129 -27 77 -52 76 -44 76 -431 l0 -344 -32 -9 c-26 -6 -34 -14 -36 -35 -2 -17 2 -27 10 -28 64 -3 285 4 291 10 14 14 -4 39 -34 50 -16 5 -29 16 -30 23 0 7 0 148 0 313 1 212 -3 314 -12 347 -13 48 -71 128 -93 128 -6 0 -17 7 -24 15 -7 8 -20 15 -29 15 -9 0 -29 7 -46 16 -35 18 -239 28 -295 14z"/> <path d="M6139 2979 c-33 -36 -36 -55 -11 -85 31 -39 58 -47 96 -29 77 37 50 145 -35 145 -12 0 -34 -14 -50 -31z"/> <path d="M7580 2600 c0 -16 5 -30 10 -30 6 0 10 -11 10 -24 0 -23 -2 -24 -29 -13 -25 9 -33 8 -49 -6 -10 -9 -24 -17 -30 -17 -13 0 -16 -22 -6 -33 4 -3 7 -37 8 -74 l1 -68 33 -3 c26 -3 32 0 32 16 0 10 -9 27 -20 37 -27 25 -22 59 9 63 32 5 40 -12 30 -60 -11 -47 -6 -58 27 -58 l26 0 -7 84 c-5 57 -4 86 4 90 6 4 11 34 11 67 0 59 0 59 -30 59 -27 0 -30 -3 -30 -30z"/> <path d="M8108 2607 c-35 -27 -26 -44 26 -49 l38 -3 -26 -28 c-33 -35 -33 -41 4 -67 35 -25 38 -44 10 -67 -24 -21 -25 -36 -5 -56 23 -23 54 -10 60 27 8 44 -1 140 -14 144 -19 6 -12 20 11 24 34 5 32 23 -7 62 -41 42 -60 44 -97 13z"/> <path d="M3735 2600 c-6 -19 -8 -19 -28 -5 -28 19 -53 19 -61 -1 -7 -18 10 -54 25 -54 6 0 9 -28 7 -72 -3 -70 -4 -73 -28 -73 -24 0 -25 3 -28 61 -2 53 -6 63 -28 74 -22 12 -26 11 -46 -10 -19 -20 -19 -24 -6 -34 26 -19 38 -53 38 -105 0 -44 3 -51 20 -51 10 0 23 8 29 17 9 17 10 17 28 0 20 -17 58 -23 66 -9 2 4 1 50 -3 102 -5 70 -4 97 5 102 38 23 56 44 50 61 -9 23 -32 22 -40 -3z"/> <path d="M6707 2600 c-15 -21 -17 -21 -32 -6 -9 9 -26 16 -37 16 -17 0 -20 -5 -16 -31 4 -22 0 -33 -11 -37 -9 -3 -28 -18 -43 -32 -25 -26 -26 -30 -20 -101 6 -65 9 -74 27 -74 17 0 20 6 18 45 -2 25 2 55 9 68 9 17 9 25 0 34 -18 18 -15 28 8 28 29 0 40 -30 40 -110 0 -68 1 -71 23 -68 21 3 22 7 19 68 -3 86 -9 110 -27 110 -8 0 -15 7 -15 15 0 9 9 15 23 15 12 0 36 11 52 24 28 23 29 26 14 41 -15 16 -18 15 -32 -5z"/> <path d="M3300 2601 c-12 -8 -12 -13 -2 -23 18 -18 15 -38 -5 -38 -10 -1 -31 -11 -46 -24 -25 -20 -26 -24 -12 -36 11 -9 12 -16 4 -26 -15 -18 -20 -71 -9 -99 8 -21 14 -23 80 -22 l70 1 -2 136 -3 135 -30 3 c-16 1 -37 -2 -45 -7z m41 -74 c-1 -12 -15 -9 -19 4 -3 6 1 10 8 8 6 -3 11 -8 11 -12z m-41 -27 c0 -5 -7 -10 -15 -10 -8 0 -15 5 -15 10 0 6 7 10 15 10 8 0 15 -4 15 -10z m29 -64 c6 -7 9 -21 6 -30 -17 -52 -14 -51 -40 -26 -24 23 -32 50 -18 63 11 12 40 8 52 -7z"/> <path d="M6294 2595 c-4 -8 -3 -22 0 -31 4 -10 0 -18 -11 -21 -10 -3 -31 -20 -46 -39 -22 -26 -26 -37 -18 -52 5 -10 7 -37 4 -60 -4 -27 -1 -47 7 -57 21 -26 41 1 40 54 -1 25 2 56 5 67 4 12 2 25 -4 28 -18 11 -13 26 9 26 29 0 40 -30 40 -109 0 -69 1 -71 24 -71 34 0 38 10 30 87 -6 51 -12 72 -30 88 l-23 22 29 22 c17 12 30 28 30 35 0 27 -76 37 -86 11z"/> <path d="M4129 2542 c-17 -3 -32 -36 -21 -46 3 -3 11 -1 18 5 26 22 36 -2 33 -80 -4 -84 1 -102 31 -94 18 5 20 14 20 74 0 106 -27 153 -81 141z"/> <path d="M5120 2541 c-32 -13 -58 -37 -60 -56 -1 -11 -2 -51 -1 -88 1 -65 2 -68 24 -65 20 3 22 8 19 54 -3 37 1 54 12 64 15 12 15 14 0 31 -25 28 -8 36 24 12 24 -18 27 -27 30 -92 3 -63 5 -71 22 -71 18 0 20 7 20 80 0 69 -3 82 -22 100 -32 30 -51 38 -68 31z"/> <path d="M5945 2536 c-23 -17 -14 -46 13 -39 25 6 34 -25 25 -94 -6 -56 7 -86 33 -76 11 4 14 26 14 90 0 76 -2 86 -25 108 -28 29 -34 30 -60 11z"/> <path d="M8060 2540 c-8 -5 -30 -7 -48 -4 -26 5 -38 2 -57 -16 -14 -13 -22 -27 -18 -33 3 -5 5 -43 4 -83 l-2 -74 31 0 c40 0 49 24 20 55 -29 31 -23 59 14 63 l28 4 -4 -59 c-3 -57 -3 -58 26 -61 l29 -4 -5 79 c-3 44 -1 88 5 101 13 27 -1 46 -23 32z"/> <path d="M3427 2533 c-14 -14 -6 -31 12 -26 23 6 32 -32 24 -108 -4 -42 -2 -58 10 -68 28 -23 37 -2 37 84 0 74 -3 87 -22 105 -22 20 -49 26 -61 13z"/> <path d="M3793 2517 c-25 -27 -26 -31 -24 -119 1 -61 3 -68 21 -68 17 0 20 7 20 53 0 29 6 59 12 65 10 10 10 17 0 33 -19 30 -6 36 26 12 24 -18 27 -27 30 -92 3 -63 5 -71 22 -71 18 0 20 7 20 83 0 81 -1 84 -30 105 -37 28 -69 28 -97 -1z"/> <path d="M3990 2515 c-12 -22 -10 -27 19 -54 30 -28 41 -61 21 -61 -6 0 -24 7 -41 15 -25 14 -30 14 -35 1 -8 -21 61 -86 91 -86 25 0 25 1 25 88 0 73 -3 92 -18 105 -26 24 -46 21 -62 -8z"/> <path d="M4238 2516 c-17 -23 -17 -25 7 -40 22 -15 25 -23 25 -80 0 -72 12 -85 47 -53 21 19 24 19 41 4 20 -19 57 -23 67 -7 3 5 -1 24 -10 41 -10 18 -16 50 -15 78 4 69 1 81 -15 81 -11 0 -15 -17 -17 -72 -3 -70 -4 -73 -28 -73 -24 0 -25 3 -26 57 0 84 -39 115 -76 64z"/> <path d="M4461 2504 c-29 -33 -30 -37 -16 -57 8 -12 15 -43 15 -70 0 -41 3 -48 18 -45 12 3 17 13 17 41 0 26 6 41 18 48 26 15 37 2 37 -47 0 -40 2 -44 24 -44 14 0 27 4 30 8 3 4 1 43 -3 86 -6 66 -11 81 -32 97 -38 29 -72 24 -108 -17z m79 -14 c0 -17 -5 -19 -25 -14 -15 4 -25 2 -25 -5 0 -6 -8 -11 -17 -11 -17 1 -17 1 0 14 9 7 17 18 17 25 0 6 11 11 25 11 18 0 25 -5 25 -20z"/> <path d="M4663 2521 c-19 -16 -22 -28 -21 -82 1 -102 5 -108 83 -107 36 1 68 5 71 10 3 4 14 2 24 -4 31 -20 37 0 32 105 -3 73 -8 97 -18 97 -17 0 -24 -32 -21 -94 1 -32 -2 -50 -10 -53 -9 -3 -13 8 -13 38 0 85 -72 136 -127 90z m67 -37 c6 -14 10 -43 10 -65 0 -31 -4 -39 -18 -39 -11 0 -27 9 -37 20 -17 19 -17 21 -2 38 21 23 22 38 2 46 -24 9 -17 26 10 26 18 0 28 -7 35 -26z"/> <path d="M5258 2521 c-26 -26 -22 -48 12 -60 40 -14 49 -39 22 -62 -25 -20 -29 -64 -7 -73 19 -7 46 3 62 23 14 18 17 93 6 105 -5 4 -8 24 -8 44 0 35 -2 37 -35 39 -23 2 -41 -4 -52 -16z"/> <path d="M5407 2522 c-25 -28 -21 -48 13 -62 22 -9 30 -19 30 -37 0 -13 -7 -26 -15 -29 -9 -4 -15 -19 -15 -35 0 -26 4 -29 30 -29 38 0 54 35 46 98 -3 24 -1 52 4 62 22 42 -59 69 -93 32z"/> <path d="M5544 2516 c-4 -16 0 -34 10 -48 20 -29 20 -62 1 -78 -9 -7 -15 -23 -13 -34 4 -26 47 -35 60 -12 12 21 44 21 52 0 3 -8 14 -14 23 -12 15 3 17 17 18 93 1 100 -1 115 -21 115 -9 0 -14 -20 -16 -72 -3 -65 -5 -73 -23 -73 -17 0 -21 8 -25 60 -3 33 -9 66 -13 73 -14 21 -46 14 -53 -12z"/> <path d="M5764 2514 c-18 -20 -21 -36 -20 -97 2 -78 9 -99 31 -90 11 4 15 21 15 62 0 31 5 62 12 69 9 9 9 15 0 24 -17 17 -15 28 6 21 32 -11 42 -36 42 -105 0 -66 1 -68 25 -68 25 0 25 1 25 78 0 75 -2 80 -30 105 -37 34 -78 34 -106 1z"/> <path d="M6075 2513 c-17 -26 -17 -27 5 -45 12 -10 28 -18 36 -18 24 0 17 -54 -8 -65 -13 -6 -23 -19 -23 -30 0 -17 7 -20 40 -20 l40 0 3 88 c3 99 -4 117 -48 117 -19 0 -33 -8 -45 -27z"/> <path d="M6415 2530 c-9 -15 4 -30 26 -30 17 0 19 -8 19 -84 0 -64 3 -85 15 -89 8 -4 18 -1 22 6 13 20 2 179 -12 194 -16 15 -61 17 -70 3z"/> <path d="M6741 2518 c-6 -17 -4 -28 8 -41 15 -18 22 -92 11 -127 -4 -12 7 -15 65 -15 l70 0 5 83 c5 90 -1 122 -24 122 -12 0 -16 -18 -18 -87 -3 -80 -5 -88 -23 -88 -18 0 -21 9 -26 78 -5 77 -14 96 -47 97 -7 0 -17 -10 -21 -22z"/> <path d="M6950 2447 c0 -96 8 -117 41 -117 29 0 33 20 9 52 -19 25 -21 38 -16 78 7 53 0 80 -20 80 -11 0 -14 -20 -14 -93z"/> <path d="M7038 2523 c-2 -10 -2 -56 1 -103 6 -84 6 -85 34 -88 23 -3 27 0 27 20 0 13 -4 28 -9 34 -6 5 -11 40 -13 79 -2 55 -6 70 -19 73 -9 2 -18 -5 -21 -15z"/> <path d="M7152 2515 c-20 -20 -21 -24 -7 -35 14 -12 14 -15 0 -30 -35 -39 -2 -125 46 -118 31 4 37 36 9 55 -30 21 -23 57 12 61 26 3 27 2 30 -55 2 -46 7 -59 21 -61 15 -3 17 6 17 79 0 75 -2 84 -26 105 -31 30 -72 29 -102 -1z"/> <path d="M7717 2522 c-21 -23 -21 -32 -3 -46 8 -6 18 -23 22 -38 7 -30 -4 -35 -37 -18 -15 8 -21 7 -25 -4 -8 -21 61 -86 91 -86 25 0 25 1 25 88 0 73 -3 92 -18 105 -24 22 -35 21 -55 -1z"/> <path d="M7843 2533 c-16 -6 -18 -155 -3 -184 13 -23 58 -26 67 -4 3 9 -2 24 -10 33 -11 11 -17 41 -19 86 -3 67 -9 80 -35 69z"/> <path d="M8277 2533 c-12 -11 -8 -40 11 -72 16 -30 16 -32 0 -62 -27 -47 -24 -69 11 -69 16 0 31 6 35 15 8 21 28 19 49 -6 33 -37 42 -19 45 89 2 86 0 103 -13 108 -25 10 -30 -3 -30 -74 0 -62 -2 -67 -22 -70 -26 -4 -39 31 -29 72 12 49 -29 98 -57 69z"/> <path d="M4890 2498 c0 -5 5 -18 10 -29 16 -28 86 -26 111 4 10 12 18 24 19 27 0 4 -31 6 -70 7 -39 1 -70 -3 -70 -9z"/> <path d="M7320 2491 c0 -9 5 -22 12 -29 16 -16 85 -15 95 1 4 8 16 17 26 20 35 13 7 24 -63 25 -59 0 -70 -2 -70 -17z"/> <path d="M4903 2392 c-21 -17 -21 -17 -3 -39 24 -30 76 -31 106 -2 31 29 21 49 -22 42 -18 -3 -40 -1 -47 5 -9 8 -18 6 -34 -6z"/> <path d="M7327 2392 c-15 -16 -15 -20 -1 -40 23 -33 86 -31 109 4 20 32 14 39 -31 35 -19 -1 -34 2 -34 8 0 17 -25 13 -43 -7z"/> <path d="M3833 2268 c-4 -7 -8 -69 -8 -138 l0 -125 -25 0 c-24 0 -25 3 -28 72 -2 60 -6 75 -22 83 -15 8 -26 7 -44 -5 -23 -15 -27 -15 -64 3 -39 19 -66 15 -84 -11 -11 -18 8 -51 33 -57 31 -8 36 -37 10 -61 -29 -27 -27 -57 4 -65 44 -11 57 11 53 90 -3 61 -1 71 14 74 10 2 29 -8 43 -22 27 -28 33 -73 13 -106 -7 -10 -9 -22 -5 -26 9 -9 123 -13 136 -5 5 3 11 71 12 150 3 124 1 144 -13 152 -11 6 -19 5 -25 -3z"/> <path d="M7251 2271 c-10 -7 -14 -40 -15 -137 -1 -122 -2 -129 -21 -129 -18 0 -20 8 -23 68 -3 58 -6 69 -27 83 -18 12 -28 13 -44 4 -28 -14 -26 -31 4 -60 27 -25 32 -59 13 -89 -6 -10 -8 -26 -4 -36 5 -14 14 -16 44 -11 20 3 51 6 68 6 l31 0 6 143 c6 147 0 177 -32 158z"/> <path d="M5608 2264 c-3 -3 -3 -61 0 -129 4 -110 3 -125 -12 -131 -30 -12 -43 11 -38 73 3 49 1 61 -16 76 -16 15 -24 16 -41 7 -25 -13 -27 -33 -5 -51 13 -11 15 -26 11 -76 -3 -41 -1 -63 7 -66 19 -7 128 1 137 10 6 6 13 200 10 281 -1 12 -42 17 -53 6z"/> <path d="M5152 2246 c-27 -8 -32 -15 -30 -36 3 -26 4 -27 98 -31 35 -2 46 1 48 14 4 19 -12 38 -45 55 -24 13 -25 13 -71 -2z"/> <path d="M6587 2239 c-13 -18 -19 -20 -31 -10 -17 14 -72 11 -69 -4 1 -5 4 -17 7 -25 4 -10 -10 -24 -40 -43 -39 -23 -45 -31 -39 -50 9 -26 9 -61 0 -104 -7 -32 -6 -33 24 -33 l31 0 2 63 c1 34 2 72 2 85 0 27 17 28 41 2 15 -16 16 -30 11 -78 -5 -46 -3 -62 8 -71 26 -21 36 -2 36 64 0 80 -12 115 -41 115 -34 0 -16 25 20 28 19 2 45 14 59 28 24 22 25 25 10 40 -14 15 -17 14 -31 -7z"/> <path d="M6083 2238 c-5 -7 -7 -24 -3 -38 5 -22 10 -24 45 -22 49 4 87 27 83 50 -5 26 -35 26 -41 0 l-6 -23 -21 23 c-23 25 -43 28 -57 10z"/> <path d="M6832 2189 c-30 -44 -34 -58 -34 -123 -1 -72 7 -96 52 -148 20 -25 50 -23 50 2 0 11 -5 20 -10 20 -17 0 -50 88 -50 134 0 42 21 98 47 124 19 19 16 42 -5 42 -10 0 -31 -21 -50 -51z"/> <path d="M7607 2234 c-4 -4 8 -25 25 -47 30 -37 32 -46 33 -117 0 -68 -3 -80 -27 -113 -33 -42 -35 -57 -8 -57 42 0 100 96 100 166 0 24 -4 46 -10 49 -5 3 -10 16 -10 29 0 12 -16 38 -38 59 -37 36 -52 43 -65 31z"/> <path d="M3284 2165 c-11 -8 -27 -15 -36 -15 -10 0 -18 -6 -19 -12 -12 -153 -5 -187 35 -172 12 4 16 19 16 54 0 26 6 61 13 78 10 25 16 28 30 21 13 -8 17 -24 17 -79 0 -70 12 -94 34 -69 9 10 11 38 8 92 l-4 78 -38 19 c-33 17 -40 17 -56 5z"/> <path d="M3427 2162 c-25 -28 -21 -43 11 -40 l27 3 3 -75 c2 -41 7 -79 11 -83 5 -5 19 -4 31 3 20 11 21 17 18 86 -4 60 -9 79 -28 99 -28 30 -51 32 -73 7z"/> <path d="M4258 2158 l-38 -20 0 -84 0 -84 30 0 30 0 1 63 c1 54 15 134 18 100 1 -7 8 -13 16 -13 12 0 15 -15 15 -74 0 -55 4 -75 14 -79 25 -10 33 16 28 95 -3 65 -7 79 -26 91 -37 24 -50 25 -88 5z"/> <path d="M4811 2159 c-24 -20 -24 -21 -8 -49 22 -36 22 -88 1 -112 -18 -19 -14 -22 31 -30 14 -3 19 -11 17 -27 -1 -12 4 -29 12 -37 8 -7 16 -19 18 -25 3 -8 14 -10 31 -5 29 7 36 33 15 55 -8 7 -14 42 -14 84 -1 40 -3 79 -4 87 -1 8 1 22 4 31 5 12 0 19 -21 27 -15 5 -35 13 -43 16 -8 3 -26 -4 -39 -15z m67 -114 c-4 -56 -28 -58 -28 -2 0 24 3 47 7 51 13 13 24 -12 21 -49z"/> <path d="M4983 2155 c-23 -19 -26 -27 -17 -42 6 -9 22 -20 35 -23 33 -8 36 -37 5 -65 -38 -35 -17 -71 33 -58 24 6 32 40 28 124 -2 50 -5 58 -29 72 -27 15 -29 15 -55 -8z"/> <path d="M5334 2160 l-32 -20 24 -48 c12 -26 25 -64 29 -84 6 -41 27 -53 69 -42 25 6 26 9 26 83 0 83 -2 88 -42 114 -34 21 -36 21 -74 -3z m84 -89 c2 -24 0 -51 -3 -59 -11 -28 -25 7 -25 61 0 62 24 60 28 -2z"/> <path d="M5713 2161 c-32 -26 -29 -51 7 -64 21 -8 30 -18 30 -35 0 -12 -6 -25 -14 -28 -19 -7 -28 -45 -14 -61 16 -20 45 -16 62 9 18 25 21 103 5 113 -7 5 -5 13 6 25 18 19 16 21 -34 47 -28 15 -21 16 -48 -6z"/> <path d="M6964 2165 c-4 -8 -15 -15 -25 -15 -16 0 -19 -8 -19 -44 0 -25 5 -48 11 -52 6 -4 8 -20 5 -40 -5 -26 -3 -35 12 -43 27 -14 42 4 35 43 -3 22 0 36 11 45 9 7 16 24 16 37 0 13 4 24 9 24 12 0 23 -82 16 -112 -4 -15 -1 -29 8 -36 26 -22 36 7 30 93 l-6 80 -37 18 c-45 21 -59 21 -66 2z m36 -30 c0 -8 -4 -15 -9 -15 -13 0 -22 16 -14 24 11 11 23 6 23 -9z"/> <path d="M7374 2165 c-4 -8 -12 -15 -20 -15 -23 0 -36 -36 -22 -65 10 -21 9 -31 -5 -55 -22 -37 -21 -57 3 -65 31 -10 40 2 40 58 0 30 7 60 15 71 11 14 12 23 4 33 -17 19 6 17 26 -3 12 -12 15 -33 14 -79 -2 -74 4 -89 32 -75 15 9 19 21 19 64 0 87 -9 114 -43 131 -38 19 -56 19 -63 0z"/> <path d="M3922 2158 c-25 -25 -6 -68 30 -68 27 0 25 -56 -2 -65 -24 -8 -27 -50 -4 -59 8 -3 26 -3 38 0 19 5 24 14 29 56 4 28 2 58 -3 67 -5 10 -5 23 1 32 13 21 11 25 -16 37 -33 15 -58 15 -73 0z"/> <path d="M4427 2152 c-11 -12 -13 -22 -7 -28 7 -7 7 -28 1 -59 -13 -71 7 -105 62 -105 58 0 67 13 67 100 0 78 -1 80 -30 95 -39 20 -73 19 -93 -3z m88 -93 c0 -51 -1 -54 -25 -54 -30 0 -40 37 -16 61 9 8 16 24 16 36 0 11 5 18 13 16 7 -3 12 -24 12 -59z"/> <path d="M4598 2159 c-23 -13 -23 -24 3 -59 18 -24 21 -37 15 -78 -8 -59 -3 -62 79 -53 l60 6 3 89 c3 92 -3 112 -28 96 -11 -7 -14 -26 -12 -79 3 -62 1 -70 -17 -76 -35 -11 -43 3 -39 70 4 83 -18 111 -64 84z"/> <path d="M6065 2160 c-3 -5 -15 -10 -25 -10 -25 0 -43 -34 -34 -63 4 -12 6 -42 5 -66 -3 -46 13 -68 36 -49 8 6 10 24 6 54 -4 28 -1 49 7 59 7 8 10 25 7 37 -4 12 -1 28 5 35 6 7 8 13 5 13 -3 0 -9 -4 -12 -10z"/> <path d="M6203 2153 c-4 -9 1 -29 10 -45 10 -18 17 -51 17 -84 0 -51 2 -54 25 -54 13 0 29 8 34 18 10 16 12 15 28 -5 13 -16 25 -21 39 -17 21 5 22 10 17 87 -6 101 -8 107 -33 107 -18 0 -20 -6 -20 -60 0 -50 -3 -61 -21 -71 -30 -15 -41 4 -35 61 2 25 0 53 -5 62 -12 23 -48 23 -56 1z"/> <path d="M6638 2159 c-15 -8 -18 -24 -18 -89 0 -90 12 -110 63 -110 56 0 62 10 62 107 0 81 -2 88 -20 88 -18 0 -20 -7 -20 -75 0 -73 -1 -75 -25 -75 -30 0 -39 29 -16 54 9 9 13 26 10 38 -3 11 -1 24 5 27 8 5 8 13 1 27 -12 22 -18 23 -42 8z"/> <path d="M4073 2153 c-16 -6 -17 -49 -2 -58 44 -28 130 11 115 52 -7 17 -8 17 -20 1 -14 -19 -46 -25 -46 -9 0 11 -30 19 -47 14z"/> <path d="M5122 2133 c-11 -25 -7 -152 6 -165 20 -20 32 3 32 61 0 31 5 62 12 69 9 9 7 16 -7 32 -22 25 -32 25 -43 3z"/> <path d="M5205 2128 c4 -13 6 -53 5 -90 l-1 -68 30 0 31 0 0 65 c0 73 -19 115 -52 115 -17 0 -19 -4 -13 -22z"/> <path d="M5847 2143 c-4 -3 -7 -15 -7 -25 0 -39 100 -46 120 -7 15 27 12 39 -10 39 -11 0 -20 -4 -20 -10 0 -5 -7 -10 -15 -10 -8 0 -15 5 -15 10 0 11 -43 14 -53 3z"/> <path d="M6090 2141 c0 -6 5 -13 10 -16 6 -3 10 -40 10 -81 l0 -75 28 3 c26 3 27 4 24 63 -4 81 -18 115 -48 115 -13 0 -24 -4 -24 -9z"/> <path d="M4068 2029 c-10 -5 -18 -13 -18 -18 0 -17 42 -51 64 -51 33 0 81 43 72 65 -6 16 -8 16 -24 2 -15 -13 -20 -14 -42 -2 -30 17 -30 17 -52 4z"/> <path d="M5853 2033 c-7 -2 -13 -15 -13 -28 0 -26 25 -45 58 -45 22 0 72 40 72 57 0 22 -21 25 -41 7 -19 -18 -21 -18 -30 -1 -10 17 -23 20 -46 10z"/> <path d="M7522 2003 c-14 -27 -3 -43 29 -43 33 0 48 22 29 45 -17 20 -47 19 -58 -2z"/> </g> </svg> 