<?xml version="1.0" encoding="utf-8"?>
<!-- Generator: Adobe Illustrator 25.2.1, SVG Export Plug-In . SVG Version: 6.00 Build 0)  -->
<svg version="1.1" id="Layer_1" xmlns="http://www.w3.org/2000/svg" xmlns:xlink="http://www.w3.org/1999/xlink" x="0px" y="0px"
	 viewBox="0 0 900 567" style="enable-background:new 0 0 900 567;" xml:space="preserve">
<style type="text/css">
	.st0{fill:#FFFFFF;}
</style>
<g transform="translate(0.000000,567.000000) scale(0.100000,-0.100000)">
	<path class="st0" d="M4832.5,4235c-11.2-29.2,3.4-53.8,33.6-57.2l30.3-3.4l2.2-546.2c2.2-659.5,4.5-600-20.2-632.5
		c-39.3-51.6-98.7-70.7-218.7-69.5c-100.9,1.1-112.2,3.4-149.2,32.5c-71.8,55-74,69.5-74,447.5c0,185.1-3.4,356.6-6.7,379.1
		c-21.3,126.7-228.8,189.5-321.9,97.6c-25.8-26.9-31.4-39.3-24.7-63.9c7.9-34.8,46-68.4,76.3-69.5c12.3,0,35.9,10.1,55,23.6
		c17.9,13.5,35.9,21.3,39.3,17.9c3.4-3.4,4.5-176.1,4.5-383.6l-2.2-378l38.1-46c56.1-67.3,152.5-112.2,284.9-130.1
		c102.1-14.6,270.3,1.1,311.8,29.2c12.3,7.9,28,14.6,35.9,14.6c30.3,0,105.4,58.3,134.6,104.3l31.4,47.1l5.6,560.8l5.6,560.8
		l30.3,3.4c32.5,3.4,52.7,41.5,33.6,60.6C5151,4250.7,4839.3,4251.8,4832.5,4235z"/>
	<path class="st0" d="M1318.8,4156.5c-25.8-31.4-162.6-188.4-185.1-212c-57.2-63.9-241.1-261.3-264.7-283.7
		c-15.7-15.7-80.7-87.5-144.7-158.1c-63.9-70.7-129-142.4-144.7-158.1c-16.8-15.7-92-96.5-169.3-179.4S238.8,2982.3,200.7,2943
		c-39.3-40.4-70.7-77.4-70.7-84.1c0-6.7,51.6-66.2,115.5-131.2c103.2-106.5,225.4-236.6,450.9-481.1c42.6-46,90.8-97.6,106.5-113.3
		c44.9-47.1,270.3-289.4,342.1-369c37-40.4,83-90.8,103.2-112.2c20.2-21.3,48.2-56.1,62.8-75.1c13.5-20.2,30.3-37,37-37
		s37,29.2,67.3,63.9c29.2,35.9,69.5,80.7,88.6,99.8c32.5,33.6,58.3,61.7,224.3,241.1c139.1,150.3,335.3,360,375.7,401.5
		c21.3,23.6,89.7,96.5,151.4,164.9c61.7,67.3,158.1,170.5,215.3,228.8c57.2,58.3,104.3,112.2,104.3,121.1
		c0,7.9-39.3,53.8-86.4,102.1c-48.2,48.2-137.9,142.4-199.6,209.7c-159.3,172.7-264.7,286-297.2,319.6
		c-71.8,75.1-150.3,160.4-257.9,279.3c-63.9,70.7-129,142.4-144.7,158.1c-50.5,51.6-178.3,194-203,226.5
		c-13.5,16.8-28,30.3-32.5,30.3S1333.4,4173.3,1318.8,4156.5z M1378.3,3970.3c11.2-57.2,19.1-142.4,19.1-188.4
		c1.1-46,7.9-113.3,16.8-150.3c9-37,16.8-93.1,16.8-125.6c0-31.4,7.9-97.6,16.8-145.8s16.8-115.5,16.8-149.2
		c0-33.6,9-94.2,17.9-134.6c22.4-88.6,29.2-457.6,9-483.4c-6.7-9-15.7-74-20.2-145.8c-3.4-75.1-13.5-148-23.6-170.5
		c-11.2-25.8-16.8-77.4-16.8-142.4c0-56.1-5.6-112.2-12.3-124.5c-6.7-12.3-14.6-69.5-17.9-125.6c-6.7-108.8-35.9-244.5-53.8-245.6
		c-13.5,0-33.6,134.6-50.5,321.9c-6.7,74-16.8,139.1-22.4,144.7c-6.7,6.7-11.2,58.3-11.2,115.5c0,65-6.7,123.4-17.9,155.9
		c-16.8,50.5-32.5,196.3-44.9,428.4c-4.5,72.9-1.1,127.9,11.2,181.7c10.1,42.6,17.9,106.5,17.9,142.4c1.1,35.9,7.9,95.3,16.8,132.3
		c9,37,16.8,93.1,16.8,124.5s5.6,85.2,12.3,117.8c6.7,33.6,16.8,113.3,22.4,178.3s14.6,163.7,20.2,218.7
		c5.6,56.1,11.2,117.8,11.2,137.9c1.1,22.4,6.7,35.9,15.7,35.9C1354.7,4074.6,1365.9,4041,1378.3,3970.3z M1493.8,3875
		c-13.5-13.5-21.3-14.6-30.3-5.6c-17.9,17.9-3.4,35.9,24.7,29.2C1509.5,3892.9,1509.5,3890.7,1493.8,3875z M1244.8,3843.6
		c22.4-22.4,13.5-38.1-22.4-38.1c-33.6,0-33.6-1.1,1.1-51.6c21.3-30.3,28-56.1,28-98.7c0-41.5-3.4-52.7-11.2-40.4
		c-5.6,9-11.2,25.8-11.2,35.9c0,22.4-96.5,121.1-118.9,121.1c-24.7,0-17.9,22.4,10.1,32.5c13.5,5.6,34.8,20.2,46,33.6
		C1192.1,3866,1221.2,3868.3,1244.8,3843.6z M1571.2,3805.5c0-9,13.5-23.6,31.4-31.4c32.5-15.7,40.4-35.9,13.5-35.9
		c-9,0-16.8-7.9-16.8-16.8s-4.5-16.8-11.2-16.8c-19.1,0-56.1-38.1-56.1-57.2c0-10.1-7.9-24.7-16.8-32.5s-16.8-32.5-16.8-56.1
		c0-23.6,7.9-48.2,16.8-56.1c10.1-7.9,16.8-32.5,16.8-60.6c0-24.7,7.9-60.6,16.8-77.4c9-17.9,20.2-57.2,23.6-88.6
		c4.5-32.5,14.6-70.7,22.4-86.4c9-15.7,15.7-47.1,15.7-69.5c0-21.3,5.6-44.9,12.3-51.6c5.6-5.6,14.6-40.4,17.9-75.1
		c3.4-34.8,13.5-68.4,21.3-75.1c15.7-13.5,21.3-67.3,9-80.7c-4.5-3.4-21.3,0-39.3,10.1c-33.6,16.8-39.3,30.3-48.2,116.6
		c-7.9,77.4-30.3,194-41.5,218.7c-10.1,22.4-26.9,115.5-42.6,235.5c-4.5,37-14.6,81.9-21.3,98.7c-7.9,17.9-13.5,43.7-13.5,57.2
		c0,38.1,40.4,123.4,72.9,153.6c33.6,32.5,34.8,43.7,5.6,43.7c-24.7,0-67.3-38.1-86.4-79.6c-12.3-24.7-13.5-23.6-13.5,23.6
		c-1.1,77.4,32.5,113.3,105.4,107.7C1561.1,3823.4,1571.2,3814.4,1571.2,3805.5z M1104.6,3749.4c22.4,0,90.8-92,90.8-121.1
		c0-11.2,7.9-30.3,16.8-42.6c19.1-25.8,22.4-108.8,3.4-142.4c-6.7-13.5-16.8-53.8-21.3-92c-15.7-116.6-34.8-212-44.9-232.2
		c-5.6-11.2-10.1-39.3-10.1-61.7c-1.1-23.6-7.9-62.8-16.8-87.5c-9-24.7-16.8-58.3-16.8-76.3c0-22.4-7.9-33.6-28-41.5
		c-37-13.5-35.9-21.3,12.3-62.8c44.9-40.4,41.5-26.9,83-380.2c13.5-111,29.2-244.5,37-297.2c14.6-104.3,16.8-185.1,6.7-195.1
		c-15.7-15.7-81.9,35.9-208.6,167.1c-76.3,76.3-137.9,142.4-137.9,145.8s-31.4,38.1-69.5,77.4c-39.3,40.4-115.5,121.1-171.6,180.6
		c-55,60.6-117.8,125.6-136.8,146.9c-20.2,20.2-37,41.5-37,46c0,5.6-20.2,29.2-44.9,53.8c-23.6,24.7-43.7,52.7-44.9,62.8
		c0,10.1,16.8,26.9,37,38.1c31.4,16.8,41.5,17.9,63.9,5.6c30.3-15.7,222.1-23.6,231-9c3.4,4.5,15.7,9,28,9c15.7,0,21.3,7.9,21.3,28
		c0,15.7,7.9,31.4,16.8,34.8c9,4.5,16.8,15.7,16.8,26.9c0,11.2,7.9,28,16.8,38.1c9,9,16.8,22.4,16.8,29.2c0,7.9,6.7,26.9,15.7,42.6
		c7.9,16.8,30.3,62.8,48.2,103.2c19.1,40.4,51.6,111,74,158.1c23.6,47.1,41.5,89.7,41.5,96.5c0,6.7,7.9,17.9,16.8,25.8
		c20.2,16.8,22.4,70.7,3.4,65c-7.9-3.4-16.8-14.6-19.1-26.9c-2.2-11.2-6.7-23.6-11.2-26.9c-7.9-5.6-72.9-127.9-112.2-209.7
		c-9-20.2-21.3-37-25.8-37s-9-10.1-9-21.3c0-12.3-4.5-25.8-11.2-29.2c-5.6-3.4-24.7-37-41.5-72.9c-16.8-37-34.8-67.3-39.3-67.3
		s-9-9-9-21.3c0-11.2-7.9-26.9-16.8-34.8c-9-7.9-16.8-22.4-16.8-32.5c0-24.7-40.4-68.4-62.8-68.4c-19.1,0-32.5,28-22.4,48.2
		c3.4,6.7,16.8,29.2,29.2,47.1c12.3,19.1,28,46,33.6,61.7c6.7,14.6,15.7,30.3,20.2,33.6c4.5,3.4,14.6,17.9,21.3,33.6
		c7.9,15.7,29.2,53.8,48.2,84.1c17.9,31.4,39.3,69.5,46,87.5c6.7,16.8,16.8,30.3,21.3,30.3c5.6,0,13.5,11.2,17.9,25.8
		c3.4,13.5,21.3,46,39.3,72.9c17.9,26.9,32.5,53.8,32.5,59.4c0,6.7,7.9,19.1,16.8,28c19.1,20.2,22.4,49.3,5.6,49.3
		c-6.7,0-16.8-11.2-22.4-24.7c-11.2-24.7-30.3-57.2-48.2-80.7c-4.5-6.7-39.3-60.6-77.4-118.9c-122.2-190.7-176.1-274.8-185.1-287.1
		c-16.8-21.3-37-55-48.2-77.4c-21.3-46-52.7-76.3-71.8-69.5c-22.4,9-23.6,62.8-1.1,70.7c9,4.5,16.8,13.5,16.8,22.4
		c0,7.9,6.7,19.1,14.6,23.6c9,4.5,19.1,16.8,22.4,25.8c12.3,25.8,172.7,266.9,187.3,280.4c11.2,11.2,56.1,77.4,56.1,84.1
		c0,4.5,6.7,13.5,14.6,21.3c6.7,9,21.3,26.9,30.3,40.4c9,13.5,25.8,37,37,50.5c10.1,14.6,19.1,31.4,19.1,38.1
		c0,6.7,5.6,12.3,11.2,12.3c6.7,0,16.8,12.3,22.4,28c5.6,15.7,15.7,28,22.4,28c16.8,0,13.5,31.4-5.6,41.5
		c-10.1,6.7-12.3,14.6-5.6,25.8c9,13.5,11.2,13.5,17.9-3.4c10.1-26.9,38.1-23.6,38.1,3.4c0,26.9,20.2,29.2,39.3,3.4
		c9-11.2,15.7-13.5,21.3-5.6c3.4,6.7-1.1,19.1-10.1,28c-9,10.1-16.8,22.4-16.8,28c0,6.7-6.7,13.5-13.5,16.8c-9,2.2-10.1,9-4.5,14.6
		s12.3,4.5,14.6-3.4c3.4-7.9,13.5-14.6,24.7-14.6c10.1,0,25.8-11.2,34.8-23.6c9-13.5,22.4-30.3,29.2-37c7.9-7.9,14.6-23.6,16.8-34.8
		c6.7-30.3,32.5-34.8,32.5-5.6c0,12.3-19.1,42.6-41.5,66.2c-23.6,23.6-49.3,55-57.2,68.4c-13.5,22.4-13.5,24.7,3.4,17.9
		C1076.6,3752.8,1093.4,3749.4,1104.6,3749.4z M1681.1,3731.4c6.7-6.7-19.1-41.5-61.7-80.7c-24.7-22.4-25.8-47.1-3.4-47.1
		c9,0,16.8,9,16.8,20.2c0,11.2,15.7,29.2,33.6,39.3c19.1,11.2,33.6,24.7,33.6,31.4c0,5.6,5.6,10.1,11.2,10.1
		c6.7,0,11.2-7.9,11.2-16.8s-4.5-16.8-11.2-16.8c-5.6,0-11.2-5.6-11.2-12.3c0-7.9-9-20.2-19.1-28c-16.8-11.2-17.9-16.8-5.6-29.2
		c11.2-11.2,15.7-10.1,20.2,11.2c4.5,13.5,13.5,24.7,21.3,24.7c7.9,0,16.8,6.7,20.2,14.6c4.5,11.2,7.9,11.2,20.2,0
		c12.3-12.3,11.2-14.6-4.5-14.6c-12.3,0-19.1-9-19.1-28c0-17.9,6.7-28,16.8-28c9,0,16.8,10.1,16.8,22.4s5.6,22.4,11.2,22.4
		c6.7,0,11.2-4.5,11.2-10.1c0-5.6,19.1-30.3,42.6-55c51.6-56.1,100.9-112.2,136.8-160.4c15.7-20.2,35.9-44.9,44.9-55
		c9-9,34.8-40.4,56.1-67.3c21.3-28,66.2-83,99.8-123.4c68.4-83,79.6-97.6,140.2-173.8c24.7-31.4,51.6-61.7,59.4-69.5
		c21.3-16.8,14.6-65-10.1-65c-10.1,0-58.3,52.7-111,123.4c-51.6,68.4-104.3,135.7-118.9,151.4c-14.6,15.7-25.8,31.4-25.8,34.8
		s-12.3,21.3-28,39.3c-15.7,17.9-42.6,52.7-59.4,77.4c-16.8,24.7-32.5,47.1-35.9,50.5c-19.1,17.9-112.2,145.8-112.2,154.8
		c0,5.6-7.9,13.5-16.8,17.9c-9,3.4-16.8,13.5-16.8,23.6c0,9-7.9,16.8-16.8,16.8c-9,0-16.8,10.1-16.8,22.4c0,12.3-7.9,22.4-16.8,22.4
		s-16.8-10.1-16.8-22.4c0-12.3,7.9-22.4,16.8-22.4s16.8-10.1,16.8-22.4s7.9-25.8,16.8-29.2c9-4.5,16.8-14.6,16.8-22.4
		c0-9,7.9-19.1,16.8-22.4c9-4.5,16.8-12.3,16.8-17.9s9-22.4,20.2-37c10.1-13.5,26.9-37,35.9-50.5c9-14.6,33.6-48.2,53.8-75.1
		c19.1-26.9,35.9-51.6,35.9-55s15.7-25.8,33.6-49.3c19.1-23.6,33.6-47.1,33.6-53.8c0-6.7,3.4-13.5,9-15.7c4.5-1.1,28-33.6,52.7-69.5
		c24.7-37,58.3-81.9,76.3-100.9c16.8-19.1,30.3-42.6,30.3-52.7c0-11.2,12.3-21.3,31.4-24.7c60.6-13.5,65-23.6,32.5-77.4
		c-25.8-44.9-57.2-81.9-243.4-281.5c-74-80.7-252.3-269.2-353.3-374.6c-30.3-32.5-74-78.5-95.3-103.2c-21.3-24.7-44.9-44.9-51.6-46
		c-6.7,0-25.8-11.2-42.6-23.6c-37-29.2-44.9-22.4-42.6,32.5c0,22.4,1.1,59.4,1.1,79.6c0,50.5,43.7,416.1,57.2,489
		c6.7,31.4,15.7,94.2,22.4,140.2c15.7,113.3,20.2,123.4,49.3,123.4c14.6,0,32.5,6.7,39.3,15.7c11.2,13.5,41.5,15.7,142.4,12.3
		c116.6-3.4,154.8,4.5,111,21.3c-9,3.4-16.8,13.5-16.8,21.3c0,9-7.9,22.4-16.8,30.3s-16.8,23.6-16.8,33.6c0,11.2-6.7,34.8-15.7,52.7
		c-9,16.8-23.6,49.3-32.5,70.7s-24.7,57.2-33.6,78.5s-22.4,51.6-28,67.3c-6.7,15.7-22.4,53.8-35.9,84.1
		c-13.5,31.4-29.2,68.4-35.9,84.1c-5.6,15.7-17.9,43.7-25.8,61.7c-9,19.1-17.9,44.9-22.4,59.4c-3.4,13.5-12.3,24.7-17.9,24.7
		c-15.7,0-12.3-60.6,6.7-85.2c9-11.2,16.8-30.3,16.8-41.5c0-12.3,7.9-37,16.8-56.1c16.8-39.3,48.2-123.4,58.3-159.3
		c3.4-12.3,12.3-38.1,21.3-58.3c9-19.1,15.7-43.7,15.7-56.1c0-11.2,7.9-30.3,16.8-41.5c9-12.3,16.8-35.9,16.8-52.7s7.9-32.5,16.8-37
		c10.1-3.4,16.8-21.3,16.8-46c0-31.4-4.5-39.3-21.3-39.3c-26.9,0-68.4,56.1-68.4,93.1c0,15.7-7.9,42.6-16.8,59.4
		c-9,17.9-16.8,44.9-16.8,60.6c0,15.7-7.9,38.1-16.8,49.3c-9,12.3-16.8,33.6-16.8,47.1s-7.9,39.3-16.8,56.1
		c-9,17.9-16.8,46-16.8,62.8s-4.5,32.5-10.1,35.9c-5.6,4.5-13.5,26.9-17.9,51.6s-12.3,47.1-17.9,51.6c-5.6,3.4-10.1,25.8-10.1,50.5
		c0,29.2-5.6,47.1-16.8,50.5c-11.2,4.5-16.8,22.4-16.8,49.3c0,23.6,7.9,48.2,16.8,56.1s16.8,21.3,16.8,30.3
		c0,17.9,77.4,93.1,96.5,93.1C1668.7,3738.2,1677.7,3734.8,1681.1,3731.4z M926.3,3586.8c0-9-6.7-16.8-15.7-16.8
		c-7.9,0-19.1-9-22.4-19.1c-14.6-39.3-41.5-81.9-52.7-81.9c-5.6,0-10.1-7.9-10.1-16.8s-4.5-16.8-10.1-16.8s-29.2-29.2-52.7-63.9
		c-43.7-63.9-74-103.2-105.4-136.8c-9-10.1-30.3-38.1-47.1-62.8c-15.7-24.7-47.1-65-69.5-89.7c-22.4-24.7-40.4-50.5-40.4-58.3
		s-6.7-17.9-14.6-22.4c-20.2-13.5-86.4-99.8-86.4-114.4c0-17.9-53.8-49.3-72.9-41.5c-28,10.1-19.1,37,33.6,93.1
		c28,29.2,50.5,56.1,50.5,60.6c0,3.4,10.1,19.1,23.6,33.6c12.3,14.6,33.6,39.3,47.1,55c13.5,15.7,44.9,53.8,69.5,84.1
		c24.7,31.4,50.5,62.8,58.3,70.7s38.1,46,67.3,84.1c30.3,38.1,61.7,77.4,70.7,87.5c19.1,20.2,65,74,122.2,143.6
		C909.5,3605.8,926.3,3614.8,926.3,3586.8z"/>
	<path class="st0" d="M1235.8,2854.4c-7.9-13.5,4.5-58.3,16.8-58.3c13.5,0,13.5,52.7,0,61.7C1247,2861.1,1239.2,2860,1235.8,2854.4z
		"/>
	<path class="st0" d="M1291.9,2788.3c-25.8-292.7-13.5-434,14.6-171.6c7.9,70.7,16.8,155.9,20.2,188.4c5.6,48.2,3.4,58.3-11.2,58.3
		C1302,2863.4,1296.4,2845.4,1291.9,2788.3z"/>
	<path class="st0" d="M1364.8,2655.9c4.5-183.9,6.7-208.6,25.8-226.5c20.2-20.2,20.2-17.9,13.5,51.6c-3.4,39.3-6.7,141.3-6.7,226.5
		c0,135.7-2.2,155.9-17.9,155.9C1363.7,2863.4,1361.4,2841,1364.8,2655.9z"/>
	<path class="st0" d="M1432.1,2799.5c0-35.9,4.5-85.2,9-109.9l9-44.9l7.9,50.5c11.2,69.5,4.5,160.4-12.3,166
		C1434.3,2864.5,1431,2847.7,1432.1,2799.5z"/>
	<path class="st0" d="M1060.9,3604.7c0-22.4,19.1-41.5,30.3-31.4c7.9,9-7.9,52.7-20.2,52.7C1065.3,3626,1060.9,3615.9,1060.9,3604.7
		z"/>
	<path class="st0" d="M993.6,3586.8c0-9,7.9-16.8,16.8-16.8s16.8,7.9,16.8,16.8s-7.9,16.8-16.8,16.8S993.6,3595.7,993.6,3586.8z"/>
	<path class="st0" d="M1161.8,3531.8c0-20.2-7.9-52.7-16.8-69.5c-9-17.9-16.8-44.9-16.8-60.6c0-16.8-4.5-33.6-10.1-39.3
		c-11.2-11.2-25.8-63.9-46-157c-4.5-24.7-14.6-46-21.3-48.2c-6.7-2.2-12.3-20.2-12.3-40.4c0-20.2-7.9-46-16.8-58.3
		c-9-11.2-16.8-34.8-16.8-50.5c0-15.7-7.9-38.1-16.8-50.5c-9-11.2-16.8-39.3-16.8-62.8c0-33.6-4.5-42.6-30.3-51.6
		c-29.2-11.2-28-11.2,19.1-12.3c28,0,56.1,3.4,63.9,7.9s16.8,39.3,21.3,75.1c4.5,37,13.5,75.1,21.3,84.1c7.9,9,16.8,43.7,20.2,77.4
		c4.5,32.5,11.2,65,16.8,72.9c5.6,6.7,13.5,40.4,17.9,74c4.5,33.6,13.5,67.3,19.1,75.1c6.7,6.7,14.6,41.5,17.9,75.1
		c3.4,34.8,13.5,68.4,21.3,75.1c22.4,19.1,21.3,122.2-1.1,122.2C1167.4,3569.9,1161.8,3558.7,1161.8,3531.8z"/>
	<path class="st0" d="M964.4,3543c-4.5-11.2-2.2-24.7,4.5-31.4c9-9,14.6-7.9,20.2,6.7c4.5,11.2,2.2,24.7-4.5,31.4
		C975.6,3558.7,970,3557.6,964.4,3543z"/>
	<path class="st0" d="M1035.1,3552c-12.3-12.3-9-49.3,3.4-49.3c16.8,0,26.9,33.6,14.6,46C1047.4,3554.2,1039.6,3555.4,1035.1,3552z"
		/>
	<path class="st0" d="M1094.5,3531.8c0-14.6-6.7-41.5-15.7-59.4c-16.8-33.6-39.3-84.1-68.4-154.8c-28-67.3-40.4-96.5-58.3-140.2
		c-9-21.3-23.6-56.1-32.5-76.3c-31.4-75.1-51.6-121.1-67.3-151.4c-9-17.9-15.7-44.9-15.7-59.4c0-21.3-9-31.4-33.6-39.3
		c-53.8-19.1-41.5-35.9,20.2-26.9c65,10.1,68.4,12.3,61.7,37c-2.2,11.2,3.4,26.9,12.3,34.8c10.1,9,17.9,25.8,17.9,39.3
		c0,13.5,7.9,34.8,16.8,47.1c9,11.2,16.8,31.4,16.8,44.9c0,12.3,7.9,32.5,16.8,44.9c9,11.2,16.8,33.6,16.8,49.3
		c0,15.7,6.7,38.1,15.7,50.5c7.9,12.3,19.1,40.4,23.6,61.7c4.5,21.3,12.3,46,16.8,56.1c23.6,46,56.1,143.6,56.1,164.9
		c0,12.3,7.9,25.8,16.8,30.3c10.1,3.4,16.8,20.2,16.8,40.4c0,22.4-5.6,33.6-16.8,33.6C1101.2,3558.7,1094.5,3548.6,1094.5,3531.8z"
		/>
	<path class="st0" d="M1573.4,3584.5c-14.6-14.6-7.9-59.4,9-59.4c11.2,0,16.8,11.2,16.8,33.6
		C1599.2,3591.3,1589.1,3601.4,1573.4,3584.5z"/>
	<path class="st0" d="M1637.3,3564.3c-7.9-19.1,4.5-41.5,19.1-33.6c13.5,9,13.5,50.5-1.1,50.5
		C1648.5,3581.2,1640.7,3573.3,1637.3,3564.3z"/>
	<path class="st0" d="M1700.1,3553.1c0-9,7.9-16.8,16.8-16.8s16.8,7.9,16.8,16.8s-7.9,16.8-16.8,16.8S1700.1,3562.1,1700.1,3553.1z"
		/>
	<path class="st0" d="M1666.5,3499.3c0-14.6,7.9-33.6,16.8-41.5s16.8-21.3,16.8-29.2c0-9,14.6-44.9,32.5-79.6
		c68.4-136.8,79.6-161.5,79.6-177.2c0-9,5.6-16.8,11.2-16.8c6.7,0,11.2-6.7,11.2-14.6c0-7.9,10.1-32.5,22.4-56.1
		c12.3-22.4,22.4-48.2,22.4-57.2c0-7.9,7.9-21.3,16.8-29.2s16.8-22.4,16.8-33.6c0-11.2,7.9-25.8,16.8-33.6c9-7.9,16.8-28,16.8-46
		c0-38.1,35.9-66.2,86.4-66.2c41.5,0,60.6,19.1,23.6,24.7c-14.6,2.2-26.9,12.3-30.3,25.8c-2.2,12.3-10.1,26.9-19.1,31.4
		s-15.7,14.6-15.7,21.3c0,17.9-44.9,108.8-57.2,116.6c-5.6,3.4-10.1,15.7-10.1,26.9c0,11.2-4.5,22.4-9,24.7
		c-5.6,2.2-24.7,33.6-43.7,70.7c-85.2,170.5-118.9,229.9-127.9,236.6c-5.6,3.4-10.1,14.6-10.1,25.8c0,11.2-6.7,26.9-15.7,34.8
		c-9,6.7-17.9,23.6-20.2,35.9C1693.4,3528.5,1666.5,3532.9,1666.5,3499.3z"/>
	<path class="st0" d="M1733.8,3503.8c0-13.5,7.9-26.9,16.8-30.3c9-4.5,16.8-13.5,16.8-22.4c0-7.9,14.6-35.9,32.5-62.8
		c17.9-26.9,43.7-70.7,58.3-98.7c14.6-28,29.2-52.7,32.5-56.1c3.4-3.4,12.3-17.9,20.2-33.6c7.9-15.7,29.2-52.7,47.1-84.1
		c19.1-30.3,40.4-68.4,48.2-84.1c6.7-15.7,19.1-34.8,26.9-42.6s14.6-20.2,14.6-26.9c0-6.7,6.7-21.3,15.7-30.3
		c9-10.1,20.2-35.9,25.8-57.2c9-32.5,15.7-39.3,39.3-39.3c16.8,0,33.6-3.4,38.1-7.9c12.3-13.5,38.1-11.2,38.1,3.4
		c0,6.7-10.1,14.6-22.4,17.9s-22.4,15.7-22.4,26.9c0,11.2-5.6,23.6-12.3,26.9c-5.6,4.5-15.7,19.1-22.4,31.4
		c-10.1,24.7-29.2,57.2-47.1,79.6c-5.6,6.7-41.5,62.8-80.7,124.5s-77.4,117.8-84.1,125.6c-5.6,7.9-11.2,17.9-11.2,23.6
		c0,9-9,21.3-55,76.3c-5.6,6.7-13.5,22.4-16.8,35.9c-4.5,13.5-13.5,24.7-19.1,24.7c-5.6,0-10.1,7.9-10.1,16.8
		c0,7.9-6.7,20.2-15.7,24.7c-9,4.5-16.8,19.1-19.1,30.3C1759.6,3526.2,1733.8,3532.9,1733.8,3503.8z"/>
	<path class="st0" d="M3407.1,3907.5c-25.8-4.5-53.8-14.6-60.6-21.3c-7.9-7.9-22.4-13.5-34.8-13.5c-26.9,0-120-61.7-146.9-98.7
		c-21.3-28-22.4-48.2-20.2-418.3c2.2-344.3,1.1-391.4-14.6-407.1c-10.1-10.1-26.9-17.9-38.1-17.9c-10.1,0-24.7-5.6-32.5-13.5
		c-17.9-17.9-16.8-53.8,1.1-53.8c153.6-5.6,337.6,0,346.5,9c15.7,15.7-19.1,58.3-47.1,58.3c-38.1,0-44.9,23.6-44.9,171.6
		c0,133.5,2.2,146.9,29.2,196.3c40.4,72.9,104.3,136.8,136.8,136.8c14.6,0,41.5-12.3,60.6-28c41.5-35.9,66.2-35.9,108.8,1.1
		c42.6,34.8,43.7,67.3,6.7,107.7c-34.8,38.1-94.2,50.5-152.5,31.4c-40.4-13.5-116.6-80.7-159.3-139.1c-26.9-37-34.8,1.1-31.4,154.8
		c3.4,169.3,16.8,206.4,92,251.2c41.5,24.7,61.7,28,143.6,28c107.7,0,170.5-22.4,213.1-77.4c23.6-29.2,23.6-38.1,21.3-429.5
		l-3.4-399.3l-30.3-3.4c-32.5-3.4-52.7-41.5-33.6-60.6c6.7-6.7,80.7-11.2,171.6-11.2h161.5v32.5c0,25.8-5.6,32.5-31.4,34.8
		c-16.8,2.2-35.9,13.5-41.5,25.8c-7.9,13.5-11.2,154.8-10.1,395.9c1.1,343.2-1.1,378-19.1,409.4c-37,62.8-140.2,121.1-256.8,146.9
		C3639.2,3918.7,3476.6,3918.7,3407.1,3907.5z"/>
	<path class="st0" d="M5603,3906.4c-121.1-29.2-212-86.4-264.7-164.9c-21.3-31.4-38.1-68.4-38.1-80.7c0-20.2,6.7-23.6,55-23.6
		c31.4,0,59.4-4.5,62.8-11.2c11.2-17.9-15.7-56.1-39.3-56.1c-12.3,0-32.5-11.2-46-24.7c-23.6-25.8-23.6-30.3-15.7-255.7
		c3.4-126.7,7.9-244.5,9-263.6c2.2-28-1.1-32.5-20.2-30.3c-12.3,2.2-30.3,11.2-40.4,20.2c-26.9,24.7-61.7,19.1-87.5-13.5
		c-58.3-74-6.7-150.3,99.8-151.4c77.4,0,190.7,50.5,190.7,84.1c0,9,7.9,21.3,16.8,29.2c14.6,12.3,16.8,68.4,16.8,383.6V3718
		l34.8,43.7c52.7,67.3,88.6,80.7,206.4,80.7c90.8,0,105.4-3.4,144.7-30.3c86.4-58.3,85.2-49.3,85.2-483.4V2943l-35.9-10.1
		c-29.2-6.7-38.1-15.7-40.4-39.3c-2.2-19.1,2.2-30.3,11.2-31.4c71.8-3.4,319.6,4.5,326.4,11.2c15.7,15.7-4.5,43.7-38.1,56.1
		c-17.9,5.6-32.5,17.9-33.6,25.8c0,7.9,0,166,0,351c1.1,237.8-3.4,352.2-13.5,389.2c-14.6,53.8-79.6,143.6-104.3,143.6
		c-6.7,0-19.1,7.9-26.9,16.8c-7.9,9-22.4,16.8-32.5,16.8s-32.5,7.9-51.6,17.9C5894.6,3910.9,5665.8,3922.1,5603,3906.4z"/>
	<path class="st0" d="M6342.1,2985.6c-37-40.4-40.4-61.7-12.3-95.3c34.8-43.7,65-52.7,107.7-32.5c86.4,41.5,56.1,162.6-39.3,162.6
		C6384.7,3020.4,6360,3004.7,6342.1,2985.6z"/>
	<path class="st0" d="M7958.2,2560.6c0-17.9,5.6-33.6,11.2-33.6c6.7,0,11.2-12.3,11.2-26.9c0-25.8-2.2-26.9-32.5-14.6
		c-28,10.1-37,9-55-6.7c-11.2-10.1-26.9-19.1-33.6-19.1c-14.6,0-17.9-24.7-6.7-37c4.5-3.4,7.9-41.5,9-83l1.1-76.3l37-3.4
		c29.2-3.4,35.9,0,35.9,17.9c0,11.2-10.1,30.3-22.4,41.5c-30.3,28-24.7,66.2,10.1,70.7c35.9,5.6,44.9-13.5,33.6-67.3
		c-12.3-52.7-6.7-65,30.3-65h29.2l-7.9,94.2c-5.6,63.9-4.5,96.5,4.5,100.9c6.7,4.5,12.3,38.1,12.3,75.1c0,66.2,0,66.2-33.6,66.2
		C7961.6,2594.2,7958.2,2590.9,7958.2,2560.6z"/>
	<path class="st0" d="M8550.4,2568.4c-39.3-30.3-29.2-49.3,29.2-55l42.6-3.4l-29.2-31.4c-37-39.3-37-46,4.5-75.1
		c39.3-28,42.6-49.3,11.2-75.1c-26.9-23.6-28-40.4-5.6-62.8c25.8-25.8,60.6-11.2,67.3,30.3c9,49.3-1.1,157-15.7,161.5
		c-21.3,6.7-13.5,22.4,12.3,26.9c38.1,5.6,35.9,25.8-7.9,69.5C8613.2,2601,8591.9,2603.2,8550.4,2568.4z"/>
	<path class="st0" d="M3646,2560.6c-6.7-21.3-9-21.3-31.4-5.6c-31.4,21.3-59.4,21.3-68.4-1.1c-7.9-20.2,11.2-60.6,28-60.6
		c6.7,0,10.1-31.4,7.9-80.7c-3.4-78.5-4.5-81.9-31.4-81.9s-28,3.4-31.4,68.4c-2.2,59.4-6.7,70.7-31.4,83
		c-24.7,13.5-29.2,12.3-51.6-11.2c-21.3-22.4-21.3-26.9-6.7-38.1c29.2-21.3,42.6-59.4,42.6-117.8c0-49.3,3.4-57.2,22.4-57.2
		c11.2,0,25.8,9,32.5,19.1c10.1,19.1,11.2,19.1,31.4,0c22.4-19.1,65-25.8,74-10.1c2.2,4.5,1.1,56.1-3.4,114.4
		c-5.6,78.5-4.5,108.8,5.6,114.4c42.6,25.8,62.8,49.3,56.1,68.4C3680.7,2589.7,3654.9,2588.6,3646,2560.6z"/>
	<path class="st0" d="M6979.1,2560.6c-16.8-23.6-19.1-23.6-35.9-6.7c-10.1,10.1-29.2,17.9-41.5,17.9c-19.1,0-22.4-5.6-17.9-34.8
		c4.5-24.7,0-37-12.3-41.5c-10.1-3.4-31.4-20.2-48.2-35.9c-28-29.2-29.2-33.6-22.4-113.3c6.7-72.9,10.1-83,30.3-83
		c19.1,0,22.4,6.7,20.2,50.5c-2.2,28,2.2,61.7,10.1,76.3c10.1,19.1,10.1,28,0,38.1c-20.2,20.2-16.8,31.4,9,31.4
		c32.5,0,44.9-33.6,44.9-123.4c0-76.3,1.1-79.6,25.8-76.3c23.6,3.4,24.7,7.9,21.3,76.3c-3.4,96.5-10.1,123.4-30.3,123.4
		c-9,0-16.8,7.9-16.8,16.8c0,10.1,10.1,16.8,25.8,16.8c13.5,0,40.4,12.3,58.3,26.9c31.4,25.8,32.5,29.2,15.7,46
		C6998.2,2584.1,6994.8,2583,6979.1,2560.6z"/>
	<path class="st0" d="M3158.1,2561.7c-13.5-9-13.5-14.6-2.2-25.8c20.2-20.2,16.8-42.6-5.6-42.6c-11.2-1.1-34.8-12.3-51.6-26.9
		c-28-22.4-29.2-26.9-13.5-40.4c12.3-10.1,13.5-17.9,4.5-29.2c-16.8-20.2-22.4-79.6-10.1-111c9-23.6,15.7-25.8,89.7-24.7l78.5,1.1
		l-2.2,152.5l-3.4,151.4l-33.6,3.4C3190.6,2570.7,3167.1,2567.3,3158.1,2561.7z M3204.1,2478.7c-1.1-13.5-16.8-10.1-21.3,4.5
		c-3.4,6.7,1.1,11.2,9,9C3198.5,2488.8,3204.1,2483.2,3204.1,2478.7z M3158.1,2448.4c0-5.6-7.9-11.2-16.8-11.2s-16.8,5.6-16.8,11.2
		c0,6.7,7.9,11.2,16.8,11.2S3158.1,2455.2,3158.1,2448.4z M3190.6,2376.7c6.7-7.9,10.1-23.6,6.7-33.6
		c-19.1-58.3-15.7-57.2-44.9-29.2c-26.9,25.8-35.9,56.1-20.2,70.7C3144.6,2398,3177.2,2393.5,3190.6,2376.7z"/>
	<path class="st0" d="M6515.9,2555c-4.5-9-3.4-24.7,0-34.8c4.5-11.2,0-20.2-12.3-23.6c-11.2-3.4-34.8-22.4-51.6-43.7
		c-24.7-29.2-29.2-41.5-20.2-58.3c5.6-11.2,7.9-41.5,4.5-67.3c-4.5-30.3-1.1-52.7,7.9-63.9c23.6-29.2,46,1.1,44.9,60.6
		c-1.1,28,2.2,62.8,5.6,75.1c4.5,13.5,2.2,28-4.5,31.4c-20.2,12.3-14.6,29.2,10.1,29.2c32.5,0,44.9-33.6,44.9-122.2
		c0-77.4,1.1-79.6,26.9-79.6c38.1,0,42.6,11.2,33.6,97.6c-6.7,57.2-13.5,80.7-33.6,98.7l-25.8,24.7l32.5,24.7
		c19.1,13.5,33.6,31.4,33.6,39.3C6612.4,2572.9,6527.1,2584.1,6515.9,2555z"/>
	<path class="st0" d="M4087.8,2495.5c-19.1-3.4-35.9-40.4-23.6-51.6c3.4-3.4,12.3-1.1,20.2,5.6c29.2,24.7,40.4-2.2,37-89.7
		c-4.5-94.2,1.1-114.4,34.8-105.4c20.2,5.6,22.4,15.7,22.4,83C4178.7,2456.3,4148.4,2509,4087.8,2495.5z"/>
	<path class="st0" d="M5199.3,2494.4c-35.9-14.6-65-41.5-67.3-62.8c-1.1-12.3-2.2-57.2-1.1-98.7c1.1-72.9,2.2-76.3,26.9-72.9
		c22.4,3.4,24.7,9,21.3,60.6c-3.4,41.5,1.1,60.6,13.5,71.8c16.8,13.5,16.8,15.7,0,34.8c-28,31.4-9,40.4,26.9,13.5
		c26.9-20.2,30.3-30.3,33.6-103.2c3.4-70.7,5.6-79.6,24.7-79.6c20.2,0,22.4,7.9,22.4,89.7c0,77.4-3.4,92-24.7,112.2
		C5239.6,2493.3,5218.3,2502.3,5199.3,2494.4z"/>
	<path class="st0" d="M6124.5,2488.8c-25.8-19.1-15.7-51.6,14.6-43.7c28,6.7,38.1-28,28-105.4c-6.7-62.8,7.9-96.5,37-85.2
		c12.3,4.5,15.7,29.2,15.7,100.9c0,85.2-2.2,96.5-28,121.1C6160.4,2509,6153.7,2510.1,6124.5,2488.8z"/>
	<path class="st0" d="M8496.5,2493.3c-9-5.6-33.6-7.9-53.8-4.5c-29.2,5.6-42.6,2.2-63.9-17.9c-15.7-14.6-24.7-30.3-20.2-37
		c3.4-5.6,5.6-48.2,4.5-93.1l-2.2-83h34.8c44.9,0,55,26.9,22.4,61.7c-32.5,34.8-25.8,66.2,15.7,70.7l31.4,4.5l-4.5-66.2
		c-3.4-63.9-3.4-65,29.2-68.4l32.5-4.5l-5.6,88.6c-3.4,49.3-1.1,98.7,5.6,113.3C8536.9,2487.7,8521.2,2509,8496.5,2493.3z"/>
	<path class="st0" d="M3300.5,2485.4c-15.7-15.7-6.7-34.8,13.5-29.2c25.8,6.7,35.9-35.9,26.9-121.1c-4.5-47.1-2.2-65,11.2-76.3
		c31.4-25.8,41.5-2.2,41.5,94.2c0,83-3.4,97.6-24.7,117.8C3344.3,2493.3,3314,2500,3300.5,2485.4z"/>
	<path class="st0" d="M3711,2467.5c-28-30.3-29.2-34.8-26.9-133.5c1.1-68.4,3.4-76.3,23.6-76.3c19.1,0,22.4,7.9,22.4,59.4
		c0,32.5,6.7,66.2,13.5,72.9c11.2,11.2,11.2,19.1,0,37c-21.3,33.6-6.7,40.4,29.2,13.5c26.9-20.2,30.3-30.3,33.6-103.2
		c3.4-70.7,5.6-79.6,24.7-79.6c20.2,0,22.4,7.9,22.4,93.1c0,90.8-1.1,94.2-33.6,117.8C3778.3,2500,3742.4,2500,3711,2467.5z"/>
	<path class="st0" d="M3932,2465.3c-13.5-24.7-11.2-30.3,21.3-60.6c33.6-31.4,46-68.4,23.6-68.4c-6.7,0-26.9,7.9-46,16.8
		c-28,15.7-33.6,15.7-39.3,1.1c-9-23.6,68.4-96.5,102.1-96.5c28,0,28,1.1,28,98.7c0,81.9-3.4,103.2-20.2,117.8
		C3972.3,2501.1,3949.9,2497.8,3932,2465.3z"/>
	<path class="st0" d="M4210.1,2466.4c-19.1-25.8-19.1-28,7.9-44.9c24.7-16.8,28-25.8,28-89.7c0-80.7,13.5-95.3,52.7-59.4
		c23.6,21.3,26.9,21.3,46,4.5c22.4-21.3,63.9-25.8,75.1-7.9c3.4,5.6-1.1,26.9-11.2,46c-11.2,20.2-17.9,56.1-16.8,87.5
		c4.5,77.4,1.1,90.8-16.8,90.8c-12.3,0-16.8-19.1-19.1-80.7c-3.4-78.5-4.5-81.9-31.4-81.9c-26.9,0-28,3.4-29.2,63.9
		C4295.3,2488.8,4251.6,2523.6,4210.1,2466.4z"/>
	<path class="st0" d="M4460.2,2452.9c-32.5-37-33.6-41.5-17.9-63.9c9-13.5,16.8-48.2,16.8-78.5c0-46,3.4-53.8,20.2-50.5
		c13.5,3.4,19.1,14.6,19.1,46c0,29.2,6.7,46,20.2,53.8c29.2,16.8,41.5,2.2,41.5-52.7c0-44.9,2.2-49.3,26.9-49.3
		c15.7,0,30.3,4.5,33.6,9c3.4,4.5,1.1,48.2-3.4,96.5c-6.7,74-12.3,90.8-35.9,108.8C4538.7,2504.5,4500.6,2498.9,4460.2,2452.9z
		 M4548.8,2437.2c0-19.1-5.6-21.3-28-15.7c-16.8,4.5-28,2.2-28-5.6c0-6.7-9-12.3-19.1-12.3c-19.1,1.1-19.1,1.1,0,15.7
		c10.1,7.9,19.1,20.2,19.1,28c0,6.7,12.3,12.3,28,12.3C4540.9,2459.6,4548.8,2454,4548.8,2437.2z"/>
	<path class="st0" d="M4686.7,2472c-21.3-17.9-24.7-31.4-23.6-92c1.1-114.4,5.6-121.1,93.1-120c40.4,1.1,76.3,5.6,79.6,11.2
		c3.4,4.5,15.7,2.2,26.9-4.5c34.8-22.4,41.5,0,35.9,117.8c-3.4,81.9-9,108.8-20.2,108.8c-19.1,0-26.9-35.9-23.6-105.4
		c1.1-35.9-2.2-56.1-11.2-59.4c-10.1-3.4-14.6,9-14.6,42.6C4829.2,2466.4,4748.4,2523.6,4686.7,2472z M4761.9,2430.5
		c6.7-15.7,11.2-48.2,11.2-72.9c0-34.8-4.5-43.7-20.2-43.7c-12.3,0-30.3,10.1-41.5,22.4c-19.1,21.3-19.1,23.6-2.2,42.6
		c23.6,25.8,24.7,42.6,2.2,51.6c-26.9,10.1-19.1,29.2,11.2,29.2C4742.8,2459.6,4754,2451.8,4761.9,2430.5z"/>
	<path class="st0" d="M5354,2472c-29.2-29.2-24.7-53.8,13.5-67.3c44.9-15.7,55-43.7,24.7-69.5c-28-22.4-32.5-71.8-7.9-81.9
		c21.3-7.9,51.6,3.4,69.5,25.8c15.7,20.2,19.1,104.3,6.7,117.8c-5.6,4.5-9,26.9-9,49.3c0,39.3-2.2,41.5-39.3,43.7
		C5386.6,2492.2,5366.4,2485.4,5354,2472z"/>
	<path class="st0" d="M5521.1,2473.1c-28-31.4-23.6-53.8,14.6-69.5c24.7-10.1,33.6-21.3,33.6-41.5c0-14.6-7.9-29.2-16.8-32.5
		c-10.1-4.5-16.8-21.3-16.8-39.3c0-29.2,4.5-32.5,33.6-32.5c42.6,0,60.6,39.3,51.6,109.9c-3.4,26.9-1.1,58.3,4.5,69.5
		C5650.1,2484.3,5559.3,2514.6,5521.1,2473.1z"/>
	<path class="st0" d="M5674.8,2466.4c-4.5-17.9,0-38.1,11.2-53.8c22.4-32.5,22.4-69.5,1.1-87.5c-10.1-7.9-16.8-25.8-14.6-38.1
		c4.5-29.2,52.7-39.3,67.3-13.5c13.5,23.6,49.3,23.6,58.3,0c3.4-9,15.7-15.7,25.8-13.5c16.8,3.4,19.1,19.1,20.2,104.3
		c1.1,112.2-1.1,129-23.6,129c-10.1,0-15.7-22.4-17.9-80.7c-3.4-72.9-5.6-81.9-25.8-81.9c-19.1,0-23.6,9-28,67.3
		c-3.4,37-10.1,74-14.6,81.9C5718.5,2503.4,5682.6,2495.5,5674.8,2466.4z"/>
	<path class="st0" d="M5921.5,2464.1c-20.2-22.4-23.6-40.4-22.4-108.8c2.2-87.5,10.1-111,34.8-100.9c12.3,4.5,16.8,23.6,16.8,69.5
		c0,34.8,5.6,69.5,13.5,77.4c10.1,10.1,10.1,16.8,0,26.9c-19.1,19.1-16.8,31.4,6.7,23.6c35.9-12.3,47.1-40.4,47.1-117.8
		c0-74,1.1-76.3,28-76.3c28,0,28,1.1,28,87.5c0,84.1-2.2,89.7-33.6,117.8C5998.9,2501.1,5952.9,2501.1,5921.5,2464.1z"/>
	<path class="st0" d="M6270.3,2463c-19.1-29.2-19.1-30.3,5.6-50.5c13.5-11.2,31.4-20.2,40.4-20.2c26.9,0,19.1-60.6-9-72.9
		c-14.6-6.7-25.8-21.3-25.8-33.6c0-19.1,7.9-22.4,44.9-22.4h44.9l3.4,98.7c3.4,111-4.5,131.2-53.8,131.2
		C6299.5,2493.3,6283.8,2484.3,6270.3,2463z"/>
	<path class="st0" d="M6651.6,2482.1c-10.1-16.8,4.5-33.6,29.2-33.6c19.1,0,21.3-9,21.3-94.2c0-71.8,3.4-95.3,16.8-99.8
		c9-4.5,20.2-1.1,24.7,6.7c14.6,22.4,2.2,200.8-13.5,217.6C6712.2,2495.5,6661.7,2497.8,6651.6,2482.1z"/>
	<path class="st0" d="M7017.2,2468.6c-6.7-19.1-4.5-31.4,9-46c16.8-20.2,24.7-103.2,12.3-142.4c-4.5-13.5,7.9-16.8,72.9-16.8h78.5
		l5.6,93.1c5.6,100.9-1.1,136.8-26.9,136.8c-13.5,0-17.9-20.2-20.2-97.6c-3.4-89.7-5.6-98.7-25.8-98.7s-23.6,10.1-29.2,87.5
		c-5.6,86.4-15.7,107.7-52.7,108.8C7033,2493.3,7021.7,2482.1,7017.2,2468.6z"/>
	<path class="st0" d="M7251.6,2389c0-107.7,9-131.2,46-131.2c32.5,0,37,22.4,10.1,58.3c-21.3,28-23.6,42.6-17.9,87.5
		c7.9,59.4,0,89.7-22.4,89.7C7255,2493.3,7251.6,2470.9,7251.6,2389z"/>
	<path class="st0" d="M7350.3,2474.2c-2.2-11.2-2.2-62.8,1.1-115.5c6.7-94.2,6.7-95.3,38.1-98.7c25.8-3.4,30.3,0,30.3,22.4
		c0,14.6-4.5,31.4-10.1,38.1c-6.7,5.6-12.3,44.9-14.6,88.6c-2.2,61.7-6.7,78.5-21.3,81.9C7363.8,2493.3,7353.7,2485.4,7350.3,2474.2
		z"/>
	<path class="st0" d="M7478.2,2465.3c-22.4-22.4-23.6-26.9-7.9-39.3c15.7-13.5,15.7-16.8,0-33.6c-39.3-43.7-2.2-140.2,51.6-132.3
		c34.8,4.5,41.5,40.4,10.1,61.7c-33.6,23.6-25.8,63.9,13.5,68.4c29.2,3.4,30.3,2.2,33.6-61.7c2.2-51.6,7.9-66.2,23.6-68.4
		c16.8-3.4,19.1,6.7,19.1,88.6c0,84.1-2.2,94.2-29.2,117.8C7557.8,2500,7511.8,2498.9,7478.2,2465.3z"/>
	<path class="st0" d="M8111.9,2473.1c-23.6-25.8-23.6-35.9-3.4-51.6c9-6.7,20.2-25.8,24.7-42.6c7.9-33.6-4.5-39.3-41.5-20.2
		c-16.8,9-23.6,7.9-28-4.5c-9-23.6,68.4-96.5,102.1-96.5c28,0,28,1.1,28,98.7c0,81.9-3.4,103.2-20.2,117.8
		C8146.6,2498.9,8134.3,2497.8,8111.9,2473.1z"/>
	<path class="st0" d="M8253.2,2485.4c-17.9-6.7-20.2-173.8-3.4-206.4c14.6-25.8,65-29.2,75.1-4.5c3.4,10.1-2.2,26.9-11.2,37
		c-12.3,12.3-19.1,46-21.3,96.5C8289.1,2483.2,8282.3,2497.8,8253.2,2485.4z"/>
	<path class="st0" d="M8739.9,2485.4c-13.5-12.3-9-44.9,12.3-80.7c17.9-33.6,17.9-35.9,0-69.5c-30.3-52.7-26.9-77.4,12.3-77.4
		c17.9,0,34.8,6.7,39.3,16.8c9,23.6,31.4,21.3,55-6.7c37-41.5,47.1-21.3,50.5,99.8c2.2,96.5,0,115.5-14.6,121.1
		c-28,11.2-33.6-3.4-33.6-83c0-69.5-2.2-75.1-24.7-78.5c-29.2-4.5-43.7,34.8-32.5,80.7C8817.3,2463,8771.3,2518,8739.9,2485.4z"/>
	<path class="st0" d="M4941.3,2446.2c0-5.6,5.6-20.2,11.2-32.5c17.9-31.4,96.5-29.2,124.5,4.5c11.2,13.5,20.2,26.9,21.3,30.3
		c0,4.5-34.8,6.7-78.5,7.9S4941.3,2452.9,4941.3,2446.2z"/>
	<path class="st0" d="M7666.6,2438.3c0-10.1,5.6-24.7,13.5-32.5c17.9-17.9,95.3-16.8,106.5,1.1c4.5,9,17.9,19.1,29.2,22.4
		c39.3,14.6,7.9,26.9-70.7,28C7678.9,2457.4,7666.6,2455.2,7666.6,2438.3z"/>
	<path class="st0" d="M4955.9,2327.3c-23.6-19.1-23.6-19.1-3.4-43.7c26.9-33.6,85.2-34.8,118.9-2.2c34.8,32.5,23.6,55-24.7,47.1
		c-20.2-3.4-44.9-1.1-52.7,5.6C4983.9,2343,4973.8,2340.8,4955.9,2327.3z"/>
	<path class="st0" d="M7674.5,2327.3c-16.8-17.9-16.8-22.4-1.1-44.9c25.8-37,96.5-34.8,122.2,4.5c22.4,35.9,15.7,43.7-34.8,39.3
		c-21.3-1.1-38.1,2.2-38.1,9C7722.7,2354.2,7694.6,2349.7,7674.5,2327.3z"/>
	<path class="st0" d="M3755.9,2188.2c-4.5-7.9-9-77.4-9-154.8v-140.2h-28c-26.9,0-28,3.4-31.4,80.7c-2.2,67.3-6.7,84.1-24.7,93.1
		c-16.8,9-29.2,7.9-49.3-5.6c-25.8-16.8-30.3-16.8-71.8,3.4c-43.7,21.3-74,16.8-94.2-12.3c-12.3-20.2,9-57.2,37-63.9
		c34.8-9,40.4-41.5,11.2-68.4c-32.5-30.3-30.3-63.9,4.5-72.9c49.3-12.3,63.9,12.3,59.4,100.9c-3.4,68.4-1.1,79.6,15.7,83
		c11.2,2.2,32.5-9,48.2-24.7c30.3-31.4,37-81.9,14.6-118.9c-7.9-11.2-10.1-24.7-5.6-29.2c10.1-10.1,137.9-14.6,152.5-5.6
		c5.6,3.4,12.3,79.6,13.5,168.2c3.4,139.1,1.1,161.5-14.6,170.5C3771.6,2198.3,3762.6,2197.2,3755.9,2188.2z"/>
	<path class="st0" d="M7589.2,2191.6c-11.2-7.9-15.7-44.9-16.8-153.6c-1.1-136.8-2.2-144.7-23.6-144.7c-20.2,0-22.4,9-25.8,76.3
		c-3.4,65-6.7,77.4-30.3,93.1c-20.2,13.5-31.4,14.6-49.3,4.5c-31.4-15.7-29.2-34.8,4.5-67.3c30.3-28,35.9-66.2,14.6-99.8
		c-6.7-11.2-9-29.2-4.5-40.4c5.6-15.7,15.7-17.9,49.3-12.3c22.4,3.4,57.2,6.7,76.3,6.7h34.8l6.7,160.4
		C7631.8,2179.3,7625.1,2212.9,7589.2,2191.6z"/>
	<path class="st0" d="M5746.6,2183.8c-3.4-3.4-3.4-68.4,0-144.7c4.5-123.4,3.4-140.2-13.5-146.9c-33.6-13.5-48.2,12.3-42.6,81.9
		c3.4,55,1.1,68.4-17.9,85.2c-17.9,16.8-26.9,17.9-46,7.9c-28-14.6-30.3-37-5.6-57.2c14.6-12.3,16.8-29.2,12.3-85.2
		c-3.4-46-1.1-70.7,7.9-74c21.3-7.9,143.6,1.1,153.6,11.2c6.7,6.7,14.6,224.3,11.2,315.1C5804.9,2190.5,5758.9,2196.1,5746.6,2183.8
		z"/>
	<path class="st0" d="M5235.2,2163.6c-30.3-9-35.9-16.8-33.6-40.4c3.4-29.2,4.5-30.3,109.9-34.8c39.3-2.2,51.6,1.1,53.8,15.7
		c4.5,21.3-13.5,42.6-50.5,61.7C5287.9,2180.4,5286.7,2180.4,5235.2,2163.6z"/>
	<path class="st0" d="M6844.5,2155.7c-14.6-20.2-21.3-22.4-34.8-11.2c-19.1,15.7-80.7,12.3-77.4-4.5c1.1-5.6,4.5-19.1,7.9-28
		c4.5-11.2-11.2-26.9-44.9-48.2c-43.7-25.8-50.5-34.8-43.7-56.1c10.1-29.2,10.1-68.4,0-116.6c-7.9-35.9-6.7-37,26.9-37h34.8
		l2.2,70.7c1.1,38.1,2.2,80.7,2.2,95.3c0,30.3,19.1,31.4,46,2.2c16.8-17.9,17.9-33.6,12.3-87.5c-5.6-51.6-3.4-69.5,9-79.6
		c29.2-23.6,40.4-2.2,40.4,71.8c0,89.7-13.5,129-46,129c-38.1,0-17.9,28,22.4,31.4c21.3,2.2,50.5,15.7,66.2,31.4
		c26.9,24.7,28,28,11.2,44.9C6863.6,2180.4,6860.2,2179.3,6844.5,2155.7z"/>
	<path class="st0" d="M6279.3,2154.6c-5.6-7.9-7.9-26.9-3.4-42.6c5.6-24.7,11.2-26.9,50.5-24.7c55,4.5,97.6,30.3,93.1,56.1
		c-5.6,29.2-39.3,29.2-46,0l-6.7-25.8l-23.6,25.8C6317.4,2171.4,6295,2174.8,6279.3,2154.6z"/>
	<path class="st0" d="M7119.3,2099.6c-33.6-49.3-38.1-65-38.1-137.9c-1.1-80.7,7.9-107.7,58.3-166c22.4-28,56.1-25.8,56.1,2.2
		c0,12.3-5.6,22.4-11.2,22.4c-19.1,0-56.1,98.7-56.1,150.3c0,47.1,23.6,109.9,52.7,139.1c21.3,21.3,17.9,47.1-5.6,47.1
		C7164.2,2156.8,7140.6,2133.3,7119.3,2099.6z"/>
	<path class="st0" d="M7988.5,2150.1c-4.5-4.5,9-28,28-52.7c33.6-41.5,35.9-51.6,37-131.2c0-76.3-3.4-89.7-30.3-126.7
		c-37-47.1-39.3-63.9-9-63.9c47.1,0,112.2,107.7,112.2,186.2c0,26.9-4.5,51.6-11.2,55c-5.6,3.4-11.2,17.9-11.2,32.5
		c0,13.5-17.9,42.6-42.6,66.2C8019.9,2155.7,8003.1,2163.6,7988.5,2150.1z"/>
	<path class="st0" d="M3140.2,2072.7c-12.3-9-30.3-16.8-40.4-16.8c-11.2,0-20.2-6.7-21.3-13.5c-13.5-171.6-5.6-209.7,39.3-192.9
		c13.5,4.5,17.9,21.3,17.9,60.6c0,29.2,6.7,68.4,14.6,87.5c11.2,28,17.9,31.4,33.6,23.6c14.6-9,19.1-26.9,19.1-88.6
		c0-78.5,13.5-105.4,38.1-77.4c10.1,11.2,12.3,42.6,9,103.2l-4.5,87.5l-42.6,21.3C3166,2086.2,3158.1,2086.2,3140.2,2072.7z"/>
	<path class="st0" d="M3300.5,2069.4c-28-31.4-23.6-48.2,12.3-44.9l30.3,3.4l3.4-84.1c2.2-46,7.9-88.6,12.3-93.1
		c5.6-5.6,21.3-4.5,34.8,3.4c22.4,12.3,23.6,19.1,20.2,96.5c-4.5,67.3-10.1,88.6-31.4,111C3351,2095.2,3325.2,2097.4,3300.5,2069.4z
		"/>
	<path class="st0" d="M4232.5,2064.9l-42.6-22.4v-94.2V1854h33.6h33.6l1.1,70.7c1.1,60.6,16.8,150.3,20.2,112.2
		c1.1-7.9,9-14.6,17.9-14.6c13.5,0,16.8-16.8,16.8-83c0-61.7,4.5-84.1,15.7-88.6c28-11.2,37,17.9,31.4,106.5
		c-3.4,72.9-7.9,88.6-29.2,102.1C4289.7,2086.2,4275.1,2087.3,4232.5,2064.9z"/>
	<path class="st0" d="M4852.7,2066c-26.9-22.4-26.9-23.6-9-55c24.7-40.4,24.7-98.7,1.1-125.6c-20.2-21.3-15.7-24.7,34.8-33.6
		c15.7-3.4,21.3-12.3,19.1-30.3c-1.1-13.5,4.5-32.5,13.5-41.5c9-7.9,17.9-21.3,20.2-28c3.4-9,15.7-11.2,34.8-5.6
		c32.5,7.9,40.4,37,16.8,61.7c-9,7.9-15.7,47.1-15.7,94.2c-1.1,44.9-3.4,88.6-4.5,97.6c-1.1,9,1.1,24.7,4.5,34.8
		c5.6,13.5,0,21.3-23.6,30.3c-16.8,5.6-39.3,14.6-48.2,17.9S4867.3,2078.3,4852.7,2066z M4927.9,1938.1c-4.5-62.8-31.4-65-31.4-2.2
		c0,26.9,3.4,52.7,7.9,57.2C4918.9,2007.7,4931.2,1979.6,4927.9,1938.1z"/>
	<path class="st0" d="M5045.6,2061.5c-25.8-21.3-29.2-30.3-19.1-47.1c6.7-10.1,24.7-22.4,39.3-25.8c37-9,40.4-41.5,5.6-72.9
		c-42.6-39.3-19.1-79.6,37-65c26.9,6.7,35.9,44.9,31.4,139.1c-2.2,56.1-5.6,65-32.5,80.7C5077,2087.3,5074.8,2087.3,5045.6,2061.5z"
		/>
	<path class="st0" d="M5439.3,2067.1l-35.9-22.4l26.9-53.8c13.5-29.2,28-71.8,32.5-94.2c6.7-46,30.3-59.4,77.4-47.1
		c28,6.7,29.2,10.1,29.2,93.1c0,93.1-2.2,98.7-47.1,127.9C5484.1,2094,5481.9,2094,5439.3,2067.1z M5533.5,1967.3
		c2.2-26.9,0-57.2-3.4-66.2c-12.3-31.4-28,7.9-28,68.4C5502.1,2039.1,5529,2036.8,5533.5,1967.3z"/>
	<path class="st0" d="M5864.3,2068.2c-35.9-29.2-32.5-57.2,7.9-71.8c23.6-9,33.6-20.2,33.6-39.3c0-13.5-6.7-28-15.7-31.4
		c-21.3-7.9-31.4-50.5-15.7-68.4c17.9-22.4,50.5-17.9,69.5,10.1c20.2,28,23.6,115.5,5.6,126.7c-7.9,5.6-5.6,14.6,6.7,28
		c20.2,21.3,17.9,23.6-38.1,52.7C5886.8,2091.8,5894.6,2092.9,5864.3,2068.2z"/>
	<path class="st0" d="M7267.3,2072.7c-4.5-9-16.8-16.8-28-16.8c-17.9,0-21.3-9-21.3-49.3c0-28,5.6-53.8,12.3-58.3
		c6.7-4.5,9-22.4,5.6-44.9c-5.6-29.2-3.4-39.3,13.5-48.2c30.3-15.7,47.1,4.5,39.3,48.2c-3.4,24.7,0,40.4,12.3,50.5
		c10.1,7.9,17.9,26.9,17.9,41.5c0,14.6,4.5,26.9,10.1,26.9c13.5,0,25.8-92,17.9-125.6c-4.5-16.8-1.1-32.5,9-40.4
		c29.2-24.7,40.4,7.9,33.6,104.3l-6.7,89.7l-41.5,20.2C7290.9,2094,7275.2,2094,7267.3,2072.7z M7307.7,2039.1
		c0-9-4.5-16.8-10.1-16.8c-14.6,0-24.7,17.9-15.7,26.9C7294.3,2061.5,7307.7,2055.9,7307.7,2039.1z"/>
	<path class="st0" d="M7727.2,2072.7c-4.5-9-13.5-16.8-22.4-16.8c-25.8,0-40.4-40.4-24.7-72.9c11.2-23.6,10.1-34.8-5.6-61.7
		c-24.7-41.5-23.6-63.9,3.4-72.9c34.8-11.2,44.9,2.2,44.9,65c0,33.6,7.9,67.3,16.8,79.6c12.3,15.7,13.5,25.8,4.5,37
		c-19.1,21.3,6.7,19.1,29.2-3.4c13.5-13.5,16.8-37,15.7-88.6c-2.2-83,4.5-99.8,35.9-84.1c16.8,10.1,21.3,23.6,21.3,71.8
		c0,97.6-10.1,127.9-48.2,146.9C7755.2,2094,7735,2094,7727.2,2072.7z"/>
	<path class="st0" d="M3855.7,2064.9c-28-28-6.7-76.3,33.6-76.3c30.3,0,28-62.8-2.2-72.9c-26.9-9-30.3-56.1-4.5-66.2
		c9-3.4,29.2-3.4,42.6,0c21.3,5.6,26.9,15.7,32.5,62.8c4.5,31.4,2.2,65-3.4,75.1c-5.6,11.2-5.6,25.8,1.1,35.9
		c14.6,23.6,12.3,28-17.9,41.5C3900.5,2081.7,3872.5,2081.7,3855.7,2064.9z"/>
	<path class="st0" d="M4422.1,2058.1c-12.3-13.5-14.6-24.7-7.9-31.4c7.9-7.9,7.9-31.4,1.1-66.2c-14.6-79.6,7.9-117.8,69.5-117.8
		c65,0,75.1,14.6,75.1,112.2c0,87.5-1.1,89.7-33.6,106.5C4482.6,2083.9,4444.5,2082.8,4422.1,2058.1z M4520.7,1953.8
		c0-57.2-1.1-60.6-28-60.6c-33.6,0-44.9,41.5-17.9,68.4c10.1,9,17.9,26.9,17.9,40.4c0,12.3,5.6,20.2,14.6,17.9
		C4515.1,2016.6,4520.7,1993.1,4520.7,1953.8z"/>
	<path class="st0" d="M4613.8,2066c-25.8-14.6-25.8-26.9,3.4-66.2c20.2-26.9,23.6-41.5,16.8-87.5c-9-66.2-3.4-69.5,88.6-59.4
		l67.3,6.7l3.4,99.8c3.4,103.2-3.4,125.6-31.4,107.7c-12.3-7.9-15.7-29.2-13.5-88.6c3.4-69.5,1.1-78.5-19.1-85.2
		c-39.3-12.3-48.2,3.4-43.7,78.5C4690.1,2064.9,4665.4,2096.3,4613.8,2066z"/>
	<path class="st0" d="M6259.1,2067.1c-3.4-5.6-16.8-11.2-28-11.2c-28,0-48.2-38.1-38.1-70.7c4.5-13.5,6.7-47.1,5.6-74
		c-3.4-51.6,14.6-76.3,40.4-55c9,6.7,11.2,26.9,6.7,60.6c-4.5,31.4-1.1,55,7.9,66.2c7.9,9,11.2,28,7.9,41.5
		c-4.5,13.5-1.1,31.4,5.6,39.3s9,14.6,5.6,14.6C6269.2,2078.3,6262.5,2073.8,6259.1,2067.1z"/>
	<path class="st0" d="M6413.9,2059.3c-4.5-10.1,1.1-32.5,11.2-50.5c11.2-20.2,19.1-57.2,19.1-94.2c0-57.2,2.2-60.6,28-60.6
		c14.6,0,32.5,9,38.1,20.2c11.2,17.9,13.5,16.8,31.4-5.6c14.6-17.9,28-23.6,43.7-19.1c23.6,5.6,24.7,11.2,19.1,97.6
		c-6.7,113.3-9,120-37,120c-20.2,0-22.4-6.7-22.4-67.3c0-56.1-3.4-68.4-23.6-79.6c-33.6-16.8-46,4.5-39.3,68.4
		c2.2,28,0,59.4-5.6,69.5C6463.2,2083.9,6422.8,2083.9,6413.9,2059.3z"/>
	<path class="st0" d="M6901.7,2066c-16.8-9-20.2-26.9-20.2-99.8c0-100.9,13.5-123.4,70.7-123.4c62.8,0,69.5,11.2,69.5,120
		c0,90.8-2.2,98.7-22.4,98.7s-22.4-7.9-22.4-84.1c0-81.9-1.1-84.1-28-84.1c-33.6,0-43.7,32.5-17.9,60.6
		c10.1,10.1,14.6,29.2,11.2,42.6c-3.4,12.3-1.1,26.9,5.6,30.3c9,5.6,9,14.6,1.1,30.3C6935.4,2081.7,6928.6,2082.8,6901.7,2066z"/>
	<path class="st0" d="M4025,2059.3c-17.9-6.7-19.1-55-2.2-65c49.3-31.4,145.8,12.3,129,58.3c-7.9,19.1-9,19.1-22.4,1.1
		c-15.7-21.3-51.6-28-51.6-10.1C4077.7,2055.9,4044.1,2064.9,4025,2059.3z"/>
	<path class="st0" d="M5201.5,2036.8c-12.3-28-7.9-170.5,6.7-185.1c22.4-22.4,35.9,3.4,35.9,68.4c0,34.8,5.6,69.5,13.5,77.4
		c10.1,10.1,7.9,17.9-7.9,35.9C5225.1,2061.5,5213.8,2061.5,5201.5,2036.8z"/>
	<path class="st0" d="M5294.6,2031.2c4.5-14.6,6.7-59.4,5.6-100.9l-1.1-76.3h33.6h34.8v72.9c0,81.9-21.3,129-58.3,129
		C5290.1,2055.9,5287.9,2051.4,5294.6,2031.2z"/>
	<path class="st0" d="M6014.6,2048c-4.5-3.4-7.9-16.8-7.9-28c0-43.7,112.2-51.6,134.6-7.9c16.8,30.3,13.5,43.7-11.2,43.7
		c-12.3,0-22.4-4.5-22.4-11.2c0-5.6-7.9-11.2-16.8-11.2s-16.8,5.6-16.8,11.2C6074.1,2057,6025.8,2060.4,6014.6,2048z"/>
	<path class="st0" d="M6287.1,2045.8c0-6.7,5.6-14.6,11.2-17.9c6.7-3.4,11.2-44.9,11.2-90.8v-84.1l31.4,3.4
		c29.2,3.4,30.3,4.5,26.9,70.7c-4.5,90.8-20.2,129-53.8,129C6299.5,2055.9,6287.1,2051.4,6287.1,2045.8z"/>
	<path class="st0" d="M4019.4,1920.2c-11.2-5.6-20.2-14.6-20.2-20.2c0-19.1,47.1-57.2,71.8-57.2c37,0,90.8,48.2,80.7,72.9
		c-6.7,17.9-9,17.9-26.9,2.2c-16.8-14.6-22.4-15.7-47.1-2.2C4044.1,1934.8,4044.1,1934.8,4019.4,1920.2z"/>
	<path class="st0" d="M6021.3,1924.7c-7.9-2.2-14.6-16.8-14.6-31.4c0-29.2,28-50.5,65-50.5c24.7,0,80.7,44.9,80.7,63.9
		c0,24.7-23.6,28-46,7.9c-21.3-20.2-23.6-20.2-33.6-1.1C6061.7,1932.5,6047.1,1935.9,6021.3,1924.7z"/>
	<path class="st0" d="M7893.2,1891c-15.7-30.3-3.4-48.2,32.5-48.2c37,0,53.8,24.7,32.5,50.5
		C7939.1,1915.7,7905.5,1914.6,7893.2,1891z"/>
</g>
</svg>
