<?xml version="1.0" standalone="no"?>
<!DOCTYPE svg PUBLIC "-//W3C//DTD SVG 20010904//EN"
 "http://www.w3.org/TR/2001/REC-SVG-20010904/DTD/svg10.dtd">
<svg version="1.0" xmlns="http://www.w3.org/2000/svg"
 width="272.000000pt" height="324.000000pt" viewBox="0 0 272.000000 324.000000"
 preserveAspectRatio="xMidYMid meet">
<metadata>
Created by potrace 1.16, written by Peter Selinger 2001-2019
</metadata>
<g transform="translate(0.000000,324.000000) scale(0.100000,-0.100000)"
fill="#ffffff" stroke="none">
<path d="M1359 3163 c-21 -25 -49 -71 -49 -80 0 -4 10 7 21 25 12 17 24 32 27
32 4 0 9 -68 11 -150 2 -83 -1 -150 -5 -150 -5 0 -17 46 -28 103 -22 122 -24
131 -25 91 -1 -29 -3 -31 -37 -30 -23 1 -39 -4 -42 -13 -3 -8 0 -11 7 -7 6 4
14 -1 17 -11 4 -10 24 -56 45 -102 22 -46 38 -86 36 -87 -2 -2 -29 31 -60 72
-31 42 -57 72 -57 66 0 -6 -13 -13 -29 -17 -26 -5 -30 -12 -33 -43 -3 -33 -6
-37 -40 -45 -22 -5 -38 -15 -38 -23 0 -8 4 -13 8 -12 13 5 192 -83 192 -94 0
-6 -8 -7 -17 -3 -10 4 -54 16 -98 27 -43 10 -83 24 -87 31 -6 9 -8 9 -8 -1 0
-7 -25 -24 -55 -39 -30 -15 -55 -30 -55 -33 0 -3 26 -6 58 -7 145 -6 242 -16
242 -24 0 -13 -264 -11 -277 2 -8 8 -11 6 -10 -7 2 -16 -7 -20 -50 -24 -41 -4
-56 -11 -73 -33 -19 -24 -21 -32 -11 -53 6 -14 11 -26 11 -28 0 -2 -34 -13
-75 -25 -74 -22 -76 -24 -101 -74 -25 -49 -26 -51 -8 -64 18 -14 18 -15 -1
-29 -11 -8 -29 -17 -41 -20 -12 -3 -36 -32 -57 -68 -42 -71 -43 -76 -22 -76 8
0 15 5 15 10 0 6 4 10 8 10 7 0 234 122 530 287 110 61 60 47 -75 -21 -95 -47
-133 -62 -144 -54 -12 8 -12 9 1 6 8 -3 22 2 31 11 29 24 231 112 267 115 42
4 43 5 -113 -98 -309 -203 -415 -278 -410 -286 5 -9 -41 -48 -83 -70 -19 -9
-27 -9 -41 4 -22 20 -29 20 -47 1 -22 -21 -37 -19 -31 5 3 11 1 18 -4 14 -18
-11 -9 -43 13 -46 20 -3 15 -9 -37 -52 -33 -26 -69 -62 -80 -79 -14 -23 -4
-16 35 23 111 110 140 132 156 120 7 -7 19 -29 25 -50 16 -52 -1 -82 -43 -78
-38 4 -48 25 -17 36 16 6 19 11 10 16 -14 9 -51 -20 -51 -41 0 -8 -21 -38 -47
-68 -40 -45 -49 -51 -65 -41 -10 6 -18 18 -18 26 -1 12 -2 12 -10 -2 -7 -10
-18 -14 -32 -11 -13 3 -20 2 -16 -2 9 -9 -9 -35 -24 -35 -6 0 -7 7 -4 16 3 8
2 12 -4 9 -6 -3 -10 -13 -10 -21 0 -16 26 -19 35 -4 10 16 25 12 25 -7 0 -9
-6 -24 -13 -33 -6 -9 -2 -5 11 8 13 14 21 31 18 38 -9 23 23 16 50 -11 30 -30
30 -78 0 -83 -16 -3 -18 0 -12 22 7 29 -11 37 -20 9 -3 -10 -14 -39 -25 -65
-10 -26 -19 -63 -19 -82 0 -39 -2 -41 -31 -26 -24 13 -26 74 -5 125 8 19 13
35 10 35 -12 0 -34 -72 -34 -110 0 -33 -3 -40 -20 -40 -11 0 -20 -4 -20 -8 0
-9 -59 -36 -77 -35 -7 0 -10 -3 -7 -9 3 -5 14 -6 24 -3 12 4 22 -1 29 -12 10
-16 10 -15 8 6 -2 19 4 26 28 32 51 15 125 -22 125 -62 0 -16 -6 -17 -50 -12
-53 6 -56 4 -39 -28 5 -11 16 -60 24 -109 7 -53 22 -105 35 -126 22 -39 16
-54 -22 -54 -10 0 -18 -5 -18 -11 0 -6 -11 -20 -25 -31 -14 -11 -25 -24 -25
-30 0 -6 9 0 21 13 l21 24 -6 -25 c-3 -14 -6 -40 -6 -58 0 -20 -4 -31 -10 -27
-6 3 -10 1 -10 -5 0 -22 25 -3 28 21 8 58 45 49 96 -25 20 -29 46 -62 58 -72
11 -11 -6 16 -38 59 -33 45 -67 80 -81 83 -28 7 -29 24 -4 55 17 21 28 24 88
24 l68 0 0 -30 c0 -26 -4 -30 -32 -33 l-32 -3 34 -35 c19 -19 35 -40 35 -47 0
-28 70 -155 96 -176 26 -20 38 -22 106 -19 42 2 73 -1 69 -5 -11 -11 -110 -24
-163 -21 -24 1 -33 0 -20 -3 26 -5 28 -16 6 -33 -18 -16 -41 -56 -26 -46 16
10 44 -5 38 -21 -4 -8 -1 -11 5 -7 6 3 24 -7 41 -22 24 -23 28 -25 20 -8 -6
12 -28 36 -49 54 l-37 33 23 18 c13 11 35 19 50 19 15 0 51 6 81 14 49 13 57
13 73 -1 36 -33 7 -108 -33 -83 -12 7 -12 11 0 25 11 13 11 18 -2 32 -19 18
-79 11 -98 -12 -16 -19 8 -58 53 -85 58 -36 112 -20 137 40 15 35 15 35 63 12
l36 -17 -40 -33 c-21 -18 -49 -39 -62 -45 -12 -7 -22 -22 -23 -34 0 -21 2 -20
37 12 48 43 109 61 146 43 37 -18 51 -43 37 -65 -17 -28 -39 -22 -36 9 1 14
-2 29 -8 33 -15 9 -80 -14 -80 -29 0 -27 72 -76 110 -76 40 0 91 32 108 67 15
32 19 34 52 28 74 -13 76 -15 44 -42 -16 -13 -49 -38 -74 -55 -25 -17 -36 -27
-25 -23 40 15 50 11 56 -25 l6 -35 2 38 c0 21 6 47 11 58 16 28 63 49 115 49
38 0 52 -5 76 -29 34 -34 39 -79 11 -104 -22 -20 -53 -22 -70 -5 -17 17 -15
38 3 38 8 0 15 -7 15 -15 0 -19 14 -19 30 0 28 34 -32 94 -77 78 -60 -21 -86
-100 -41 -124 l22 -12 -24 -19 c-12 -10 -20 -22 -16 -26 9 -9 46 35 46 54 0 8
-6 14 -14 14 -25 0 -30 40 -9 69 23 30 52 37 82 21 29 -15 26 -32 -3 -24 -33
8 -47 -18 -33 -61 7 -23 6 -43 -1 -64 -14 -39 -1 -77 28 -86 29 -9 47 9 30 30
-16 19 0 41 24 32 37 -15 11 -82 -39 -103 -42 -17 -45 -17 -45 0 0 8 -9 24
-20 37 l-20 24 17 -33 c17 -31 17 -33 1 -43 -10 -5 -18 -15 -18 -22 0 -8 2 -9
8 -1 4 6 26 14 50 17 42 5 43 5 26 -14 -10 -11 -12 -19 -6 -19 7 0 12 -6 12
-13 0 -8 12 -24 28 -38 l27 -24 -22 26 c-28 31 -29 56 -4 87 24 27 35 28 28 2
-3 -11 -1 -23 4 -26 5 -3 9 7 9 23 l1 28 30 -33 c17 -19 33 -31 37 -27 4 4 1
10 -5 12 -7 3 -13 8 -13 12 0 11 74 0 82 -13 5 -8 8 -7 8 2 0 7 -7 15 -15 18
-20 8 -19 26 5 57 11 14 20 29 20 33 0 4 -11 -7 -25 -26 -14 -19 -25 -40 -25
-47 0 -17 -14 -16 -50 2 -47 24 -69 88 -34 102 24 9 40 -13 24 -32 -12 -14
-11 -18 1 -26 20 -13 27 -11 49 11 23 23 24 32 10 80 -7 25 -7 43 1 63 10 24
9 31 -5 45 -14 14 -20 15 -37 4 -18 -12 -20 -11 -17 5 2 10 16 22 31 27 22 8
32 6 55 -11 32 -24 39 -79 10 -77 -11 1 -18 -5 -18 -16 0 -22 36 -68 45 -58 4
4 0 14 -9 23 -20 20 -20 31 -1 39 23 8 19 72 -5 96 -25 25 -82 27 -105 4 -18
-19 -17 -65 3 -72 6 -2 12 3 12 12 0 17 25 22 35 6 9 -15 -32 -50 -52 -43 -34
12 -43 26 -43 68 0 35 5 48 26 64 49 39 151 22 188 -31 9 -12 25 -22 37 -23
18 -2 19 0 7 9 -8 6 -34 27 -57 48 -46 40 -46 40 31 54 33 5 39 3 47 -17 16
-41 57 -71 104 -76 42 -5 48 -2 88 35 l44 40 -37 17 c-46 23 -70 14 -66 -22 3
-32 -18 -39 -35 -12 -8 13 -6 24 7 44 17 26 22 27 77 23 53 -4 64 -9 99 -43
22 -22 40 -42 40 -45 0 -3 -12 -7 -26 -8 -15 -1 -42 -12 -62 -24 -19 -12 -51
-27 -71 -34 -20 -8 -28 -13 -17 -14 11 0 43 14 73 30 56 32 83 38 83 18 0 -9
4 -8 10 2 9 13 11 13 20 0 16 -25 12 7 -5 40 l-16 30 48 1 48 2 -51 6 c-48 6
-61 13 -146 81 -18 15 -17 17 26 37 l44 22 10 -28 c15 -42 51 -71 89 -71 25 0
44 10 78 41 24 22 42 46 39 53 -7 17 -48 36 -78 36 -31 0 -54 -26 -38 -42 16
-16 15 -25 -3 -32 -37 -14 -60 57 -27 87 15 14 23 14 72 1 30 -8 68 -14 84
-14 16 0 39 -8 50 -17 12 -10 15 -11 9 -3 -18 20 -16 28 10 32 12 2 -15 4 -59
4 -108 2 -150 23 -47 24 66 0 75 3 107 31 24 20 46 57 68 111 18 45 45 94 60
108 l27 28 -28 5 c-32 7 -47 33 -30 53 18 22 111 18 141 -6 33 -26 43 -60 18
-60 -11 0 -21 -4 -24 -8 -3 -5 5 -8 17 -8 16 1 23 -6 25 -24 5 -34 20 -49 32
-30 5 8 10 20 10 25 0 6 -4 3 -10 -5 -12 -20 -17 -12 -22 43 -5 44 -4 47 11
35 9 -7 7 -3 -6 9 -28 26 -29 35 -5 49 16 11 68 94 58 94 -2 0 -15 -18 -27
-40 -29 -51 -57 -70 -86 -59 l-22 8 24 53 c13 29 28 88 34 131 5 46 16 86 25
96 26 29 19 34 -39 27 -50 -6 -55 -4 -55 13 0 35 48 62 104 59 l51 -3 -2 -45
c-1 -42 -1 -42 5 -10 6 30 11 35 32 32 24 -2 24 -2 -5 18 -16 11 -39 20 -50
21 -11 1 -4 5 15 9 34 7 34 7 -12 9 l-48 1 0 48 c0 26 -4 53 -9 60 -4 7 -6
-13 -3 -44 4 -47 2 -60 -14 -71 -27 -19 -29 -17 -31 33 -1 25 -11 62 -23 81
-11 19 -20 40 -20 48 0 16 -18 30 -28 20 -3 -3 0 -10 7 -14 16 -10 6 -31 -14
-31 -19 0 -27 32 -16 62 12 31 55 60 68 47 6 -6 14 -4 23 6 11 13 9 15 -16 13
-16 -1 -38 -8 -49 -14 -18 -12 -25 -7 -67 47 -27 33 -48 64 -48 69 0 17 -31
39 -47 33 -14 -5 -13 -8 5 -14 30 -11 28 -39 -2 -39 -43 0 -56 10 -56 45 0 19
4 45 10 60 10 27 41 46 47 28 2 -6 40 -43 84 -83 43 -39 76 -65 73 -56 -3 9
-36 39 -72 68 -64 50 -66 52 -42 59 14 4 18 7 8 8 -9 1 -24 8 -33 17 -14 15
-18 15 -40 0 -27 -18 -41 -14 -97 28 -34 24 -35 34 -5 46 l22 9 -24 0 c-12 1
-75 38 -140 82 -120 85 -152 110 -113 90 12 -6 22 -9 22 -6 0 8 294 -147 298
-157 2 -4 12 -8 23 -8 19 0 19 1 -1 40 -11 22 -23 40 -26 40 -2 0 0 -9 6 -21
24 -44 52 -57 -460 226 -96 53 -165 94 -153 90 12 -3 135 -55 273 -114 138
-60 245 -102 238 -94 -10 12 -9 18 7 29 18 14 14 29 -8 29 -18 0 -568 207
-563 212 4 5 120 -23 281 -67 116 -31 139 -35 115 -20 -12 7 -12 12 0 34 12
24 11 28 -15 56 -22 23 -37 30 -64 28 l-36 -1 36 -4 c41 -5 89 -43 53 -43 -44
1 -345 48 -352 55 -4 4 51 4 122 0 92 -5 127 -4 122 4 -4 6 -2 20 5 32 9 17 8
23 -2 30 -17 11 -42 12 -36 2 3 -5 -14 -8 -36 -8 -23 0 -85 -3 -137 -8 -53 -4
-90 -3 -85 2 6 4 51 18 102 31 71 17 96 19 112 11 28 -16 27 -7 -3 12 -19 13
-31 14 -64 5 -23 -6 -49 -7 -59 -4 -14 6 -7 13 32 34 49 27 50 27 57 7 4 -15
6 -12 7 13 1 21 -4 32 -13 32 -8 0 -16 -4 -18 -8 -3 -9 -130 -75 -165 -86 -45
-14 -22 15 45 59 48 31 76 43 93 39 24 -5 24 -4 2 5 -18 8 -23 19 -23 46 0 31
-13 47 -22 28 -7 -17 -149 -145 -154 -140 -9 9 108 147 125 148 10 0 11 2 4 6
-7 2 -13 15 -13 28 0 33 -20 75 -37 75 -7 0 -12 -3 -11 -7 3 -10 -75 -194 -80
-188 -2 2 4 39 13 82 33 159 30 194 -23 261 -17 22 -19 22 -33 5z m65 -435
c40 -47 85 -156 112 -269 10 -45 22 -76 29 -75 15 1 163 -114 222 -172 71 -71
52 -101 -21 -34 -23 20 -77 66 -119 102 -42 35 -77 71 -77 79 0 8 -3 12 -6 9
-3 -3 -2 -23 2 -43 5 -26 26 -58 75 -111 38 -40 69 -79 69 -85 0 -7 19 -10 52
-7 34 2 52 -1 55 -9 3 -10 -13 -13 -59 -14 -38 -1 -54 -4 -40 -7 21 -6 22 -9
8 -27 -16 -21 -22 -80 -8 -89 4 -2 6 12 4 33 -4 42 15 65 62 77 24 6 28 4 24
-8 -4 -8 3 -20 15 -28 20 -12 21 -12 8 3 -7 10 -10 17 -5 17 5 0 9 24 9 53 0
49 -20 98 -50 119 -6 5 -3 8 7 8 10 0 22 -9 28 -20 6 -11 17 -20 25 -20 18 0
35 -31 35 -63 0 -25 35 -65 47 -54 3 4 -2 16 -12 27 -21 23 -23 23 44 10 45
-8 61 -19 123 -80 70 -69 80 -85 33 -54 -22 15 -23 14 -18 -5 3 -12 13 -21 22
-21 22 0 42 -14 44 -31 2 -8 7 -20 12 -28 5 -9 5 -16 -2 -18 -6 -2 -19 -10
-29 -18 -18 -13 -16 -14 19 -15 48 0 93 -26 109 -61 7 -15 25 -34 40 -44 15
-9 33 -26 39 -38 16 -29 30 -38 52 -31 13 4 21 -4 32 -30 17 -41 20 -122 5
-131 -20 -13 -40 17 -40 60 0 51 -33 105 -73 119 -31 11 -78 -1 -85 -22 -3
-11 0 -12 16 -3 61 32 122 -7 122 -79 0 -57 -14 -57 -25 1 -5 29 -16 54 -22
57 -9 2 -9 -6 2 -32 20 -46 19 -126 -1 -154 -19 -28 -39 -29 -24 -1 6 11 9 25
6 32 -2 7 -5 4 -5 -5 -1 -26 -9 -23 -57 22 -36 33 -50 40 -81 39 l-38 -2 44
-7 c33 -5 53 -16 78 -43 43 -48 43 -65 -1 -21 -24 24 -43 34 -65 34 -17 0 -31
-4 -31 -10 0 -5 3 -9 8 -9 30 5 58 -5 83 -30 28 -28 29 -33 29 -120 0 -107
-17 -133 -23 -34 l-3 68 -2 -72 c-1 -40 -7 -83 -13 -97 -10 -20 -9 -28 5 -41
15 -15 13 -20 -31 -60 -27 -24 -52 -44 -56 -45 -12 0 12 41 42 74 l26 29 -27
-17 c-26 -17 -26 -17 -21 6 3 14 -7 4 -26 -25 l-31 -48 -45 36 -44 37 39 49
c45 57 64 107 58 155 -5 40 -2 41 30 12 22 -21 24 -21 14 -3 -15 28 -65 75
-56 52 6 -15 3 -16 -22 -7 -16 6 -32 17 -36 23 -6 9 -8 9 -8 -1 0 -7 14 -21
30 -30 17 -9 33 -28 37 -40 7 -30 -11 -93 -37 -124 l-19 -23 -1 50 c-1 100
-26 154 -72 155 -29 0 -33 -23 -7 -39 59 -39 69 -57 69 -124 0 -82 -14 -98
-52 -56 -33 36 -45 34 -75 -12 -51 -79 -105 -129 -140 -129 -32 0 -5 39 91
133 57 56 109 113 115 127 10 21 8 20 -11 -5 -12 -16 -66 -73 -120 -126 -104
-102 -111 -116 -82 -170 19 -37 10 -50 -55 -84 -25 -13 -41 -24 -36 -24 42 -2
240 161 286 235 l21 34 49 -51 c27 -28 73 -61 104 -75 l55 -26 -22 -39 c-53
-95 -170 -210 -276 -272 -163 -95 -340 -142 -537 -142 -155 0 -255 19 -382 72
-125 53 -197 98 -282 178 -64 61 -151 173 -151 196 0 4 21 18 48 30 26 13 71
47 99 75 l53 53 30 -43 c35 -51 144 -153 191 -180 l34 -18 -30 25 c-24 21 -28
28 -18 38 7 7 13 18 13 23 0 6 -5 3 -11 -6 -15 -27 -25 -23 -86 35 -86 81
-132 157 -94 157 4 0 26 -27 49 -60 46 -64 71 -85 121 -100 24 -6 31 -5 31 5
0 8 -7 11 -19 8 -23 -6 -101 62 -138 119 -27 44 -50 48 -83 13 -21 -23 -24
-23 -36 -7 -7 9 -14 40 -15 67 -2 50 -2 50 -6 8 -3 -34 -7 -41 -21 -36 -15 6
-16 5 -2 -13 8 -10 22 -28 32 -40 18 -21 18 -22 -25 -57 -42 -34 -46 -35 -60
-19 -8 9 -25 40 -37 67 -18 44 -20 36 -3 -19 5 -16 3 -17 -16 -7 -11 7 -21 17
-21 23 0 6 -3 8 -6 5 -4 -4 10 -25 30 -47 33 -37 45 -60 30 -60 -3 0 -20 15
-37 32 -18 18 -41 38 -51 43 -17 10 -18 12 -2 27 21 21 20 38 -1 39 -10 1 -25
2 -33 3 -8 0 -16 9 -18 19 -3 15 0 16 24 7 15 -6 27 -9 28 -8 0 2 -2 32 -5 68
l-6 65 -1 -59 c-2 -44 -5 -57 -13 -49 -7 7 -10 45 -8 103 4 86 6 93 32 116 18
15 41 24 63 24 19 0 34 5 34 10 0 18 -54 11 -90 -12 -19 -12 -43 -21 -52 -19
-13 2 -16 -2 -11 -15 10 -26 -20 -12 -35 17 -14 27 -9 127 8 159 7 13 7 20 1
20 -10 0 -31 -62 -31 -93 0 -10 -4 -15 -10 -12 -27 17 1 114 39 135 24 12 32
12 50 1 11 -7 10 -14 -4 -37 l-17 -29 22 28 c19 23 25 26 38 15 13 -11 14 -10
4 9 -25 46 -98 41 -134 -10 -14 -19 -23 -48 -24 -75 -2 -47 -24 -80 -44 -67
-9 5 -11 24 -7 59 6 64 26 107 46 105 30 -3 38 1 49 25 6 13 24 32 41 42 17
10 31 23 31 29 0 27 61 69 108 75 45 5 46 6 23 19 -14 7 -21 8 -17 2 5 -7 -4
-11 -25 -11 -26 0 -43 -11 -92 -62 -50 -53 -60 -59 -68 -45 -12 21 1 48 38 77
16 12 29 26 29 31 1 5 2 14 3 19 0 6 6 10 12 10 8 0 7 -6 -2 -17 -12 -15 -12
-16 6 -9 11 4 35 10 52 13 18 3 33 9 33 14 0 5 12 16 28 24 15 9 19 14 9 11
-10 -3 -17 0 -17 9 0 7 13 16 30 20 17 4 30 12 30 19 0 7 18 21 40 31 22 10
38 20 36 23 -3 2 -30 -10 -60 -27 -31 -17 -59 -31 -62 -31 -4 0 25 32 65 71
63 62 77 71 121 78 51 8 59 4 38 -17 -16 -16 -3 -26 19 -14 10 6 22 31 28 59
8 37 15 49 32 51 11 2 23 12 26 23 3 12 13 19 29 18 15 -1 17 -3 6 -6 -9 -2
-21 -17 -27 -34 -5 -16 -14 -29 -20 -29 -6 0 -9 -24 -8 -55 1 -30 5 -55 10
-55 4 0 0 -12 -9 -27 l-16 -28 21 25 c11 14 21 31 21 38 0 6 7 12 15 12 27 0
85 -28 85 -41 0 -7 3 -9 7 -6 3 4 -2 16 -12 27 -18 20 -17 20 11 20 16 0 41
-7 54 -16 l25 -16 -24 21 c-19 17 -36 21 -98 21 -55 0 -74 3 -70 13 3 8 22 11
61 9 42 -2 56 1 56 12 0 7 7 19 15 26 9 7 38 40 66 74 45 53 41 51 -27 -20
-62 -63 -84 -80 -101 -77 -13 3 -23 7 -22 11 1 15 199 172 200 160 1 -7 7 14
15 47 15 70 17 84 6 70 -9 -14 -178 -145 -186 -145 -32 0 105 115 184 155 11
5 20 16 20 24 0 9 -4 10 -12 4 -54 -42 -250 -174 -278 -187 -19 -9 -26 -11
-16 -4 10 7 37 27 60 43 73 55 238 165 245 165 7 0 31 66 31 85 0 11 -41 -1
-174 -51 -65 -25 -121 -43 -123 -40 -3 2 5 7 18 11 15 5 18 10 9 15 -8 5 -2
10 17 14 15 4 81 21 145 39 l118 32 17 49 c19 52 86 136 108 136 7 0 30 -19
49 -42z m-1025 -1271 c43 -48 52 -64 49 -89 -4 -44 -45 -73 -91 -64 -47 9 -56
34 -17 48 38 13 40 45 5 78 -27 25 -32 59 -13 78 6 6 12 11 13 9 1 -1 25 -28
54 -60z m2021 19 c0 -13 -11 -33 -25 -46 -31 -29 -31 -73 0 -78 48 -9 37 -40
-18 -49 -30 -4 -40 -1 -62 21 -37 37 -28 73 32 141 50 54 73 58 73 11z m-2138
-26 c46 -13 84 -56 67 -76 -6 -8 -20 -14 -30 -14 -11 0 -19 -6 -19 -12 0 -31
23 -89 50 -129 l29 -44 -22 -6 c-50 -13 -77 34 -101 176 -7 44 -17 88 -21 98
-8 20 -3 21 47 7z m2223 -7 c-4 -10 -13 -52 -21 -93 -15 -86 -41 -167 -57
-177 -14 -9 -67 -11 -67 -2 0 3 13 23 29 45 49 68 66 144 32 144 -10 0 -24 7
-31 15 -17 20 2 42 55 66 52 24 69 24 60 2z m-2020 -305 c15 -13 39 -34 54
-48 22 -21 24 -25 9 -28 -10 -2 -18 -8 -18 -13 0 -24 31 -80 74 -132 25 -31
46 -59 46 -62 0 -11 -53 -4 -84 10 -49 24 -86 102 -56 120 29 18 -12 95 -52
95 -21 0 -26 27 -13 68 6 16 9 16 40 -10z m1823 -33 c-2 -11 -12 -21 -23 -23
-46 -9 -86 -78 -55 -97 15 -9 12 -43 -7 -75 -21 -36 -70 -63 -106 -58 l-28 3
46 60 c26 33 56 77 67 98 l19 39 -22 5 c-21 6 -19 10 32 55 49 44 55 46 67 30
7 -9 11 -26 10 -37z m-1819 -59 c19 -20 21 -28 12 -44 -24 -45 -4 -112 43
-143 11 -7 48 -16 81 -19 69 -6 76 -23 13 -28 -97 -8 -146 30 -187 143 -12 33
-31 72 -42 88 l-20 27 39 0 c28 0 45 -7 61 -24z m1861 19 c0 -3 -8 -14 -17
-25 -10 -10 -29 -47 -42 -82 -45 -117 -85 -151 -172 -146 -68 4 -66 22 3 28
68 6 107 32 127 85 13 34 13 41 -3 69 -18 30 -18 31 9 53 23 20 95 34 95 18z
m-963 -656 c5 -5 23 -11 38 -13 24 -3 32 -11 44 -44 12 -33 12 -43 2 -56 -8
-9 -20 -16 -28 -16 -13 0 -13 3 -3 16 11 13 10 18 -7 36 -17 16 -24 18 -42 9
-14 -8 -27 -9 -39 -2 -28 15 -66 -13 -52 -39 14 -26 13 -30 -5 -24 -28 11 -36
39 -21 80 10 32 18 39 41 41 15 1 33 7 39 13 13 13 19 13 33 -1z"/>
<path d="M678 1879 c-26 -26 -59 -43 -123 -64 -56 -18 -81 -31 -73 -36 10 -7
9 -9 -3 -9 -9 0 -24 -9 -34 -20 -16 -18 -16 -20 -2 -20 32 0 66 -24 77 -53 12
-35 27 -27 32 18 l4 30 14 -27 c12 -25 11 -30 -5 -48 -21 -23 -41 -26 -48 -7
-4 9 -6 9 -6 -1 -2 -21 28 -25 55 -7 23 14 25 22 22 63 -3 42 -1 47 20 50 12
2 22 9 22 17 0 7 11 20 24 28 31 20 68 82 64 104 -2 15 -9 12 -40 -18z"/>
<path d="M2020 1898 c0 -10 3 -17 8 -16 4 2 23 -10 43 -25 20 -15 67 -38 105
-51 69 -24 56 -37 -15 -16 -50 14 -51 3 -3 -18 23 -9 42 -22 42 -29 0 -14 -58
16 -100 51 l-25 21 18 -21 c9 -11 17 -25 17 -31 0 -6 14 -13 32 -17 35 -7 31
-18 -8 -22 -56 -6 -76 -64 -29 -86 15 -7 24 -17 21 -25 -3 -7 -1 -13 4 -13 22
0 9 41 -15 50 -40 15 -28 53 20 62 17 2 19 -2 17 -29 -3 -25 2 -35 22 -48 36
-24 57 -14 50 23 -5 24 -1 33 21 51 15 11 36 21 46 21 30 0 22 20 -12 34 -20
8 -27 15 -18 18 8 3 -26 17 -74 33 -67 20 -98 36 -128 65 -31 29 -39 33 -39
18z"/>
<path d="M865 1861 c-17 -10 -44 -33 -60 -52 -15 -19 -32 -33 -37 -31 -11 3
-10 -25 1 -32 5 -4 12 0 14 6 3 7 6 -17 6 -54 1 -77 -16 -92 -22 -20 -2 26 -3
19 -2 -16 2 -34 -1 -65 -6 -68 -5 -3 -9 -10 -9 -15 0 -5 22 12 48 38 27 27 63
59 81 73 77 59 111 102 111 136 0 13 5 24 11 24 18 0 1 -72 -23 -97 -11 -12
-18 -28 -15 -35 4 -10 6 -10 6 0 1 6 10 12 21 12 19 0 20 -4 14 -37 -4 -21 -9
-41 -11 -45 -9 -17 -22 -7 -26 20 -4 27 -4 27 -6 -4 0 -19 -11 -39 -26 -52
-14 -12 -25 -27 -25 -33 0 -6 19 6 42 25 23 20 45 36 49 36 4 0 9 -21 11 -47
2 -31 8 -48 18 -51 12 -4 13 -2 3 9 -22 23 -16 85 10 102 12 8 18 19 14 23 -5
5 -13 1 -18 -9 -14 -25 -29 -21 -29 8 0 14 4 25 9 25 5 0 7 8 4 19 -3 10 0 22
6 25 6 4 11 17 10 29 l0 22 -9 -21 c-15 -39 -33 -41 -25 -3 11 51 18 53 53 14
18 -19 37 -35 42 -35 16 0 12 -20 -11 -51 -11 -16 -16 -29 -11 -29 5 0 17 10
25 23 16 21 16 21 18 -23 2 -25 3 -55 3 -67 0 -13 6 -23 12 -23 9 0 9 11 2 43
-5 23 -8 65 -6 93 2 43 0 50 -13 47 -15 -4 -89 62 -89 79 0 15 -60 38 -97 38
-21 0 -52 -8 -68 -19z m39 -48 c-1 -32 0 -42 2 -23 11 91 34 113 34 31 0 -58
-7 -81 -25 -81 -7 0 -15 -7 -19 -15 -12 -33 -25 -12 -29 48 -3 61 -3 61 -5
-15 -2 -93 -21 -105 -24 -15 l-2 62 -5 -74 c-4 -46 -11 -76 -18 -79 -10 -3
-13 12 -13 55 0 69 8 103 24 103 6 0 17 9 24 20 7 12 17 18 21 15 5 -2 11 2
15 10 12 33 22 12 20 -42z"/>
<path d="M1634 1821 c-17 -10 -41 -33 -54 -51 -13 -18 -37 -41 -54 -51 -17
-10 -24 -19 -16 -19 22 -1 108 -82 92 -87 -9 -3 -5 -13 12 -34 13 -15 26 -34
29 -41 2 -7 7 -10 10 -7 4 3 -5 22 -19 42 -30 45 -8 53 26 10 l22 -28 -7 28
c-7 27 0 33 22 19 17 -11 35 -63 28 -81 -5 -12 -3 -13 6 -4 9 9 9 19 0 44 -14
41 -5 51 21 20 18 -24 19 -31 3 -76 -4 -14 -1 -12 9 5 9 15 13 36 10 53 -3 15
-1 27 5 27 15 0 31 -34 31 -66 0 -15 3 -25 6 -21 4 3 3 26 0 51 -5 31 -13 47
-25 51 -10 3 -23 15 -30 28 -11 21 -11 21 -6 -5 3 -16 1 -28 -3 -28 -16 0 -40
34 -47 68 -6 28 -4 32 14 32 13 0 21 -7 21 -17 1 -16 2 -16 11 1 8 12 8 20 1
25 -5 3 -23 34 -38 69 -16 34 -33 62 -39 62 -5 0 -24 -9 -41 -19z"/>
<path d="M1500 1425 c0 -29 -3 -36 -10 -25 -5 8 -12 11 -17 7 -4 -5 -1 -12 6
-16 7 -5 11 -17 9 -27 -2 -15 -14 -20 -53 -24 -28 -3 -45 -8 -38 -13 6 -4 18
-4 27 -1 21 8 46 -13 46 -37 0 -11 5 -19 11 -19 6 0 8 7 5 15 -3 8 -9 22 -12
30 -3 8 -2 15 3 15 16 0 33 -49 33 -95 0 -48 -27 -118 -43 -108 -5 3 -7 -3 -5
-13 2 -10 16 -23 31 -28 38 -14 76 8 95 53 12 32 12 34 -2 22 -9 -8 -16 -20
-16 -27 0 -16 -48 -50 -57 -40 -3 3 -2 6 4 6 6 0 16 14 22 31 16 45 14 48 -8
13 -20 -33 -39 -49 -47 -41 -3 3 4 20 15 38 25 41 28 130 6 173 -17 33 -18 36
-7 36 19 0 52 -79 52 -124 0 -26 5 -46 11 -46 7 0 8 16 4 48 -7 44 -6 46 9 27
8 -11 16 -26 16 -32 0 -22 20 -14 20 7 0 11 -6 20 -13 20 -7 0 -28 23 -47 51
-19 28 -39 58 -45 65 -5 7 -6 16 -2 20 9 10 43 -22 69 -65 12 -19 23 -30 25
-24 6 16 -31 84 -57 108 -12 11 -26 29 -31 40 -6 15 -8 11 -9 -20z"/>
<path d="M1871 1009 c-10 -23 -10 -34 -2 -42 15 -15 14 -27 -4 -27 -8 0 -19
-8 -24 -19 -8 -15 -3 -28 26 -65 19 -25 39 -46 43 -46 20 0 32 33 27 73 l-6
42 24 -29 c20 -26 26 -28 40 -16 14 12 12 18 -27 57 -23 23 -48 43 -55 43 -13
0 -17 11 -14 43 3 27 -13 20 -28 -14z"/>
<path d="M1753 867 c-4 -8 -17 -16 -28 -19 -29 -5 -30 -33 -3 -86 12 -26 24
-48 25 -50 0 -2 11 3 22 10 14 8 24 28 28 53 6 38 7 38 17 15 5 -14 11 -26 12
-28 1 -2 12 1 23 7 20 11 20 12 -12 59 -34 48 -69 64 -84 39z"/>
<path d="M1632 812 c-10 -7 -9 -16 3 -45 19 -47 19 -50 -5 -37 -11 6 -20 17
-20 24 0 26 -28 40 -55 28 -30 -14 -32 -37 -6 -53 12 -8 16 -19 13 -32 -6 -24
21 -47 48 -40 13 4 20 14 20 31 0 24 1 24 19 8 12 -11 27 -15 40 -11 19 6 19
6 1 48 -11 23 -20 52 -20 65 0 22 -15 28 -38 14z"/>
</g>
</svg>
