 <svg  version="1.0" xmlns="http://www.w3.org/2000/svg"  width="660.000000pt" height="540.000000pt" viewBox="0 0 660.000000 540.000000"  preserveAspectRatio="xMidYMid meet">  <g transform="translate(0.000000,540.000000) scale(0.100000,-0.100000)" fill="#ffffff" stroke="none"> <path d="M6148 3780 c-14 -11 -35 -37 -45 -58 -17 -32 -18 -41 -7 -68 15 -36 80 -94 106 -94 29 0 82 30 103 58 13 18 20 41 19 69 -1 34 -8 49 -36 77 -29 29 -43 36 -74 36 -23 -1 -50 -9 -66 -20z m90 -27 c-10 -2 -28 -2 -40 0 -13 2 -5 4 17 4 22 1 32 -1 23 -4z m-68 -74 c0 -36 -4 -49 -12 -47 -21 7 -31 50 -19 81 16 41 31 24 31 -34z m118 11 c4 -36 -12 -60 -28 -44 -13 13 0 86 14 81 6 -2 12 -18 14 -37z m-60 -76 c-4 -23 -26 -30 -34 -10 -8 20 15 51 29 37 5 -5 7 -17 5 -27z"/> <path d="M3175 3778 c-53 -11 -102 -27 -175 -61 -54 -24 -178 -147 -204 -202 -10 -22 -25 -52 -32 -67 -8 -14 -14 -35 -14 -46 0 -11 -7 -36 -16 -57 -12 -30 -15 -66 -11 -179 6 -207 51 -330 157 -437 38 -39 132 -99 154 -99 7 0 19 -7 26 -15 7 -8 20 -15 30 -15 10 0 34 -7 53 -15 57 -24 242 -20 318 5 33 12 68 25 77 30 9 5 24 11 32 15 58 23 130 84 186 157 24 31 44 63 44 70 0 8 7 23 15 34 8 10 15 29 15 40 0 12 7 38 15 57 11 27 15 76 15 187 0 111 -4 160 -15 187 -8 19 -15 45 -15 57 0 11 -7 30 -15 40 -8 11 -15 26 -15 33 0 38 -171 213 -207 213 -5 0 -14 5 -21 12 -30 30 -198 68 -292 66 -30 0 -77 -5 -105 -10z m-103 -216 c-111 -111 -152 -212 -152 -374 0 -172 35 -273 130 -378 27 -30 50 -58 50 -62 0 -31 -105 29 -158 90 -83 95 -97 147 -97 357 l1 170 34 65 c43 81 125 163 182 183 79 28 81 20 10 -51z m477 38 c53 -27 102 -76 139 -142 50 -87 62 -139 62 -274 0 -124 -13 -191 -51 -265 -29 -59 -114 -144 -161 -163 -24 -10 -51 -22 -60 -27 -24 -12 -28 -11 -28 6 0 8 6 15 14 15 39 0 158 169 181 257 56 212 13 407 -120 545 -30 31 -55 60 -55 63 0 12 43 4 79 -15z m-179 -70 c39 0 131 -88 153 -145 2 -5 10 -26 18 -45 19 -48 19 -272 0 -320 -37 -93 -100 -180 -131 -180 -8 0 -24 -7 -34 -15 -50 -38 -192 -7 -254 55 -32 31 -72 106 -72 132 0 9 -7 32 -15 51 -19 46 -19 178 0 232 8 22 15 50 15 61 0 12 7 27 15 34 8 7 15 18 15 24 1 15 28 46 76 83 41 32 88 44 154 37 19 -2 46 -4 60 -4z"/> <path d="M375 3767 c-10 -5 -13 -33 -10 -115 3 -124 8 -140 44 -148 14 -3 42 -12 61 -19 67 -26 75 -26 100 0 l24 25 -30 33 c-43 45 -94 113 -94 124 0 16 40 43 63 42 16 0 34 -19 70 -75 48 -75 72 -90 96 -60 8 9 11 47 9 106 l-3 92 -158 2 c-87 0 -164 -2 -172 -7z"/> <path d="M798 3763 c-10 -13 -2 -73 10 -73 4 0 18 9 32 20 31 25 66 25 79 2 13 -25 5 -35 -59 -70 l-55 -30 -5 -79 c-9 -119 -6 -122 79 -67 77 51 79 54 74 128 -5 58 -4 65 16 76 46 24 81 -12 61 -64 -13 -36 -13 -36 9 -36 10 0 24 7 31 15 20 24 48 18 65 -14 19 -37 12 -57 -26 -70 -40 -14 -36 -26 16 -48 33 -13 45 -24 45 -38 0 -54 -50 -58 -113 -10 -25 19 -50 35 -56 35 -5 0 -30 -13 -54 -30 -25 -16 -52 -30 -61 -30 -18 0 -35 -29 -29 -47 3 -7 11 -13 19 -13 16 0 92 -39 100 -51 8 -14 41 -11 58 6 8 8 18 15 21 15 4 0 18 9 32 20 38 29 82 12 83 -32 0 -10 -17 -23 -45 -35 -42 -17 -61 -43 -31 -43 7 0 25 -10 40 -21 25 -19 26 -23 12 -38 -9 -10 -16 -23 -16 -29 0 -17 -45 -15 -60 3 -26 32 -41 18 -38 -37 l3 -53 -40 0 -40 0 -2 65 c0 36 -1 73 -2 83 -1 10 -11 22 -23 28 -36 16 -66 34 -86 52 -41 38 -49 22 -44 -88 l3 -81 48 -22 c59 -27 85 -54 76 -81 -10 -33 -42 -36 -76 -7 -38 32 -49 26 -49 -25 l0 -39 -44 0 c-27 0 -46 5 -49 13 -2 6 -2 50 1 97 4 77 2 87 -17 104 -21 19 -21 19 -42 0 -12 -10 -39 -49 -61 -87 -35 -57 -44 -67 -62 -61 -24 7 -56 38 -56 54 0 6 27 43 59 82 57 70 59 72 43 96 -12 19 -22 23 -46 19 -36 -5 -136 -43 -148 -55 -9 -9 -15 -559 -6 -567 3 -3 267 -5 588 -6 l583 0 1 585 c1 385 -2 586 -9 586 -5 0 -171 1 -368 2 -271 2 -361 0 -369 -9z m612 -129 l25 -24 3 -393 c2 -215 0 -406 -3 -424 -3 -18 -17 -46 -32 -63 l-25 -31 -287 0 c-588 0 -577 -1 -604 56 -22 47 -13 119 18 139 12 8 44 16 72 17 44 2 55 -2 99 -35 47 -37 51 -38 108 -32 32 3 65 11 72 17 7 6 28 18 46 28 18 9 42 22 53 28 43 25 152 73 164 73 9 0 11 8 7 24 -5 20 0 26 28 40 24 11 38 28 49 58 26 67 36 153 23 198 -7 29 -7 52 1 82 7 26 8 50 2 65 -5 14 -6 36 -3 49 4 16 -2 40 -17 69 -32 60 -21 78 52 86 77 9 120 1 149 -27z"/> <path d="M1703 3769 c-9 -9 -5 -21 21 -53 18 -23 36 -48 40 -56 3 -8 15 -28 26 -45 11 -16 23 -37 27 -45 3 -8 19 -31 35 -51 15 -20 28 -42 28 -47 0 -6 14 -31 30 -55 17 -25 30 -49 30 -55 0 -5 7 -12 15 -16 8 -3 15 -12 15 -20 0 -8 12 -32 26 -53 14 -21 30 -47 35 -58 5 -11 18 -33 29 -50 54 -83 52 -75 50 -294 -2 -113 -3 -224 -4 -246 l-1 -39 158 -1 157 -1 0 263 c0 173 4 263 10 263 6 0 15 10 20 23 10 23 15 31 63 105 15 24 27 48 27 54 0 5 13 27 28 47 16 20 32 43 35 51 4 8 16 29 27 45 10 17 29 50 42 75 13 25 29 51 36 58 6 7 12 18 12 24 0 5 14 27 30 48 17 21 30 43 30 48 0 6 6 15 14 19 17 10 39 53 32 61 -10 10 -340 1 -353 -10 -7 -5 -24 -33 -38 -62 -14 -28 -35 -64 -45 -81 -11 -16 -22 -36 -25 -42 -3 -7 -7 -19 -10 -25 -3 -7 -16 -31 -30 -53 -13 -22 -24 -48 -25 -57 0 -15 -27 -38 -44 -38 -3 0 -24 37 -46 83 -23 45 -50 96 -60 112 -32 50 -47 78 -72 128 l-23 47 -150 0 c-82 0 -159 3 -170 6 -11 3 -25 0 -32 -7z m281 -145 c9 -3 46 -51 83 -107 64 -95 146 -177 178 -177 7 0 20 -2 27 -5 8 -3 36 11 62 32 45 36 72 71 151 191 31 46 65 72 96 72 28 0 -12 -89 -109 -245 -56 -91 -132 -232 -147 -275 -11 -30 -15 -84 -15 -184 0 -151 -9 -189 -46 -194 -33 -5 -43 38 -46 203 l-3 150 -47 98 c-26 53 -67 130 -91 170 -70 115 -137 242 -137 260 0 18 17 22 44 11z"/> <path d="M5829 3770 l-156 -5 -51 -65 c-155 -195 -232 -302 -232 -319 0 -4 -11 -14 -25 -21 -39 -21 -48 -4 -36 66 5 33 12 123 15 202 l6 142 -159 0 c-97 0 -161 -4 -163 -10 -1 -5 -2 -272 0 -593 l2 -583 156 1 c113 1 158 5 163 14 5 7 4 31 0 54 -4 23 -8 97 -9 165 0 122 7 158 36 175 8 4 14 14 14 21 0 20 38 49 55 42 9 -3 23 -20 31 -38 21 -46 40 -78 53 -91 6 -6 11 -17 11 -23 0 -7 20 -42 45 -78 25 -37 45 -70 45 -76 0 -5 14 -29 30 -53 17 -25 30 -48 30 -52 0 -4 9 -19 21 -33 20 -26 22 -27 152 -27 73 -1 151 -5 175 -9 56 -11 55 4 -1 80 -24 33 -46 66 -50 74 -12 24 -30 53 -56 88 -13 18 -33 52 -46 75 -40 77 -50 92 -62 100 -7 4 -13 14 -13 22 0 8 -20 44 -45 81 -25 36 -45 70 -45 75 0 9 -36 66 -50 79 -3 3 -13 17 -22 31 -16 25 -16 26 41 85 31 32 72 79 91 104 19 25 44 56 57 70 12 14 34 39 49 55 14 17 53 58 86 92 59 62 71 96 31 91 -10 -1 -88 -5 -174 -8z m-623 -155 c17 -12 22 -29 28 -100 7 -97 28 -148 76 -189 41 -34 77 -33 130 5 54 39 197 184 204 207 7 21 43 45 51 33 3 -5 -5 -22 -18 -38 -47 -57 -98 -144 -112 -188 -16 -56 -8 -91 46 -193 22 -41 39 -77 39 -81 0 -5 23 -42 50 -84 28 -42 50 -79 50 -83 0 -4 16 -31 35 -60 62 -93 36 -158 -31 -76 -17 20 -57 82 -89 137 -67 114 -163 219 -212 229 -42 10 -99 -20 -145 -76 -54 -66 -65 -95 -77 -198 -7 -52 -14 -103 -17 -112 -8 -26 -41 -22 -59 6 -14 20 -15 77 -13 440 3 357 5 418 18 426 20 13 22 12 46 -5z"/> <path d="M3968 3241 c2 -294 -1 -551 -6 -579 -5 -28 -5 -57 -1 -64 10 -16 306 -20 312 -3 2 5 0 98 -3 205 -5 124 -4 200 3 208 13 17 58 15 86 -4 13 -9 29 -32 37 -50 8 -19 19 -34 24 -34 6 0 10 -6 10 -14 0 -8 20 -44 44 -79 24 -35 47 -73 50 -85 4 -12 11 -22 16 -22 4 0 10 -8 14 -17 3 -10 19 -40 35 -68 l29 -50 124 0 c68 -1 140 -4 161 -9 35 -8 37 -7 37 17 0 14 -12 39 -26 54 -14 15 -30 37 -36 48 -13 29 -29 55 -58 95 -30 41 -46 67 -59 97 -6 12 -28 49 -51 81 -22 33 -40 64 -40 69 0 5 25 20 55 33 56 24 125 77 125 97 0 6 7 16 15 23 8 7 15 24 15 39 1 14 7 37 15 51 20 34 20 170 0 217 -8 19 -15 46 -15 59 0 28 -119 154 -145 154 -9 0 -26 5 -38 12 -12 7 -58 20 -102 30 -65 14 -133 17 -355 18 l-275 0 3 -529z m266 409 c37 -14 32 -34 -19 -89 -42 -45 -46 -54 -54 -121 -6 -47 -6 -94 1 -132 9 -51 18 -67 64 -118 30 -32 54 -64 54 -72 0 -8 -18 -32 -41 -53 -61 -60 -81 -106 -83 -194 -3 -83 -17 -131 -40 -131 -32 0 -37 38 -38 295 -2 347 5 560 19 583 24 38 84 53 137 32z m453 -51 c76 -47 104 -109 99 -219 -5 -99 -16 -124 -86 -201 -77 -85 -110 -135 -110 -169 0 -14 11 -49 25 -78 14 -30 25 -58 25 -62 0 -5 14 -32 32 -59 17 -28 28 -54 25 -57 -15 -15 -91 64 -134 138 -25 44 -70 104 -98 134 -57 58 -71 83 -52 89 6 2 44 13 84 25 84 24 159 84 194 156 42 88 7 202 -86 279 -25 20 -45 41 -45 47 0 16 90 -1 127 -23z m-172 -89 c17 -8 45 -27 63 -44 29 -27 32 -36 32 -85 0 -70 -26 -106 -96 -132 -59 -23 -239 -28 -246 -6 -3 10 -2 231 1 276 1 11 22 13 109 9 59 -3 121 -11 137 -18z"/> <path d="M655 3459 c-39 -37 -53 -87 -41 -152 7 -36 74 -113 87 -100 12 12 13 263 1 275 -7 7 -22 -1 -47 -23z"/> <path d="M360 3346 c0 -74 1 -76 24 -76 14 0 27 4 30 9 3 5 21 12 39 15 44 8 77 33 77 57 0 22 -65 55 -131 65 l-39 7 0 -77z"/> <path d="M375 2060 c-9 -14 -9 -325 -1 -339 9 -14 53 -14 61 -1 9 14 9 326 0 340 -8 13 -52 13 -60 0z"/> <path d="M555 2060 c-12 -19 -10 -329 2 -341 7 -7 23 -9 39 -5 l27 7 -7 99 c-4 60 -3 101 3 104 8 6 39 -29 66 -76 37 -63 88 -128 106 -133 40 -13 44 5 44 182 l0 168 -32 3 c-22 2 -33 -1 -34 -10 -2 -28 2 -154 6 -168 3 -8 0 -22 -5 -30 -8 -13 -14 -10 -35 15 -13 17 -24 33 -25 38 0 4 -13 26 -30 49 -16 22 -30 46 -30 53 0 34 -79 71 -95 45z"/> <path d="M1000 2063 c-34 -14 -60 -54 -60 -94 0 -51 28 -75 117 -104 54 -18 69 -27 71 -44 8 -54 -60 -68 -123 -25 -42 28 -68 28 -73 0 -5 -26 35 -64 80 -77 137 -36 248 77 157 160 -18 16 -48 31 -70 35 -65 10 -89 26 -89 57 0 22 6 30 24 35 29 7 64 -2 88 -23 23 -21 62 -13 66 13 5 34 -50 67 -117 71 -31 1 -63 0 -71 -4z"/> <path d="M1275 2061 c-3 -2 -5 -17 -5 -33 0 -27 2 -28 51 -28 l50 0 -2 -134 c-1 -73 1 -138 5 -145 11 -17 51 -13 68 7 12 14 13 35 6 131 -5 63 -7 120 -4 128 4 8 23 13 55 13 40 0 51 4 56 19 14 44 2 48 -141 47 -74 0 -137 -2 -139 -5z"/> <path d="M1689 2058 c-9 -7 -19 -26 -22 -43 -6 -34 -32 -112 -47 -137 -6 -10 -10 -25 -10 -33 0 -8 -9 -32 -20 -52 -33 -62 -23 -91 26 -79 16 4 24 13 24 29 0 36 15 49 64 53 57 5 86 -8 86 -41 0 -26 25 -45 58 -45 32 0 33 26 2 84 -17 31 -30 62 -30 70 0 9 -6 30 -14 48 -7 18 -23 60 -33 93 -16 49 -24 61 -44 63 -13 2 -31 -3 -40 -10z m56 -145 c23 -55 20 -63 -24 -63 -22 0 -42 4 -45 9 -9 13 34 102 45 96 5 -4 16 -22 24 -42z"/> <path d="M1963 2058 c-5 -8 -7 -82 -3 -173 l5 -160 95 -6 c103 -7 116 -5 124 18 13 34 -10 48 -81 48 l-68 0 -2 130 c-1 72 -2 136 -2 143 -1 6 -14 12 -30 12 -16 0 -33 -6 -38 -12z"/> <path d="M2265 2058 c-3 -8 -4 -86 -3 -173 l3 -160 100 -6 c112 -7 132 0 121 45 -6 25 -8 26 -79 24 l-72 -3 0 140 0 140 -33 3 c-20 2 -34 -2 -37 -10z"/> <path d="M2805 2061 c-42 -18 -84 -73 -91 -118 -12 -81 1 -138 41 -182 60 -65 165 -65 219 0 31 36 33 64 7 79 -28 14 -41 13 -48 -7 -11 -32 -46 -63 -71 -63 -13 0 -37 13 -53 29 -25 26 -29 37 -29 88 0 65 17 98 56 113 32 13 66 -2 83 -34 19 -35 57 -35 73 0 11 23 8 28 -24 61 -31 31 -44 37 -90 40 -29 1 -62 -1 -73 -6z"/> <path d="M3180 2063 c-24 -9 -51 -35 -76 -75 -19 -29 -24 -52 -24 -98 0 -122 89 -200 197 -171 52 14 93 57 114 119 16 48 16 55 1 104 -17 56 -56 102 -98 118 -27 11 -89 12 -114 3z m118 -85 c19 -18 22 -32 22 -89 0 -63 -2 -69 -31 -93 -35 -30 -65 -33 -95 -8 -31 25 -44 55 -44 102 0 103 80 151 148 88z"/> <path d="M3499 2068 c-4 -11 -7 -327 -3 -340 7 -22 50 -24 61 -3 5 8 5 54 2 102 -10 121 1 133 48 57 46 -75 47 -77 77 -121 15 -23 37 -45 48 -49 39 -12 43 7 43 183 l0 168 -30 0 -30 0 2 -107 c2 -85 0 -108 -11 -108 -12 0 -55 60 -100 142 -32 57 -53 78 -81 78 -14 0 -25 -1 -26 -2z"/> <path d="M3895 2060 c-3 -5 -7 -83 -7 -172 -1 -141 1 -163 15 -172 33 -21 52 5 52 70 l0 59 55 5 c51 5 55 7 58 32 3 26 2 27 -55 30 l-58 3 0 40 0 40 77 3 c67 2 78 5 83 23 13 39 -10 49 -116 49 -54 0 -101 -4 -104 -10z"/> <path d="M4197 2062 c-3 -4 -7 -82 -8 -171 -2 -173 1 -184 46 -179 19 3 20 11 20 178 l0 175 -27 3 c-14 2 -29 -1 -31 -6z"/> <path d="M4378 2064 c-5 -4 -8 -84 -8 -177 l0 -169 98 4 c97 3 99 4 135 38 84 81 70 229 -27 284 -32 18 -185 34 -198 20z m176 -85 c23 -18 26 -27 26 -87 0 -37 -4 -73 -9 -80 -12 -20 -94 -42 -114 -30 -14 7 -17 25 -17 107 0 54 3 101 7 104 14 15 81 6 107 -14z"/> <path d="M4756 2061 c-1 -3 -2 -80 -2 -171 l1 -165 105 -6 c111 -6 140 0 140 31 0 28 -17 34 -100 35 l-75 0 -3 43 -3 42 59 0 c44 0 61 4 66 15 10 27 -19 43 -73 37 l-51 -5 0 42 0 41 80 0 c65 0 82 3 87 16 3 9 2 24 -4 33 -8 13 -30 16 -117 17 -59 1 -108 -2 -110 -5z"/> <path d="M5087 2063 c-4 -3 -7 -82 -7 -175 0 -147 2 -169 16 -175 9 -3 24 -2 33 4 17 11 18 30 10 143 -3 52 -1 65 10 65 14 0 102 -118 121 -162 13 -31 58 -59 77 -47 12 7 15 41 16 179 l1 170 -34 0 -35 0 4 -107 c2 -63 0 -108 -6 -108 -9 0 -53 54 -53 65 0 3 -13 24 -30 47 -16 22 -30 45 -30 49 0 5 -10 20 -22 34 -20 24 -57 33 -71 18z"/> <path d="M5525 2042 c-41 -29 -75 -100 -75 -153 0 -34 30 -110 54 -137 49 -55 160 -52 213 6 35 38 41 60 21 80 -21 21 -42 13 -65 -23 -27 -42 -60 -52 -100 -32 -64 34 -59 192 6 215 40 14 64 6 90 -29 23 -31 49 -37 69 -17 19 19 14 37 -22 75 -30 32 -41 37 -93 41 -52 3 -62 1 -98 -26z"/> <path d="M5846 2062 c-3 -3 -6 -81 -6 -174 l0 -168 95 -2 c52 -1 105 -2 116 -2 29 -1 48 28 33 52 -9 14 -26 17 -90 17 l-79 0 0 40 0 40 55 5 c48 4 55 8 58 28 4 23 3 24 -68 26 -45 1 -45 1 -45 36 l0 35 83 3 83 3 -3 32 -3 32 -112 2 c-61 1 -114 -1 -117 -5z"/> <path d="M6169 1779 c-8 -16 -8 -28 0 -47 10 -21 16 -24 48 -19 41 7 55 23 46 52 -7 26 -22 35 -55 35 -18 0 -31 -8 -39 -21z"/> </g> </svg> 