 <svg  version="1.0" xmlns="http://www.w3.org/2000/svg"  width="900.000000pt" height="471.000000pt" viewBox="0 0 900.000000 471.000000"  preserveAspectRatio="xMidYMid meet">  <g transform="translate(0.000000,471.000000) scale(0.100000,-0.100000)" fill="#ffffff" stroke="none"> <path d="M2280 3980 c-19 -10 -44 -24 -55 -30 -11 -5 -33 -19 -50 -30 -16 -11 -43 -26 -60 -34 -16 -8 -52 -29 -80 -45 -27 -17 -57 -34 -65 -38 -8 -3 -58 -32 -110 -63 -52 -31 -102 -59 -110 -63 -8 -4 -42 -23 -75 -42 -33 -19 -69 -40 -80 -45 -11 -6 -33 -19 -50 -29 -16 -11 -50 -31 -75 -44 -25 -14 -61 -34 -80 -45 -19 -12 -50 -29 -68 -38 -18 -9 -41 -29 -52 -44 -19 -26 -20 -45 -20 -303 0 -152 3 -278 8 -281 4 -2 64 -1 132 3 69 4 132 5 140 4 12 -3 15 -27 15 -139 l0 -134 -126 0 -125 0 -22 -30 c-22 -29 -22 -33 -22 -433 l0 -403 33 -32 33 -32 188 0 c124 0 195 -4 209 -12 12 -6 38 -15 57 -19 37 -8 85 -23 138 -45 18 -8 41 -14 51 -14 10 0 32 -7 47 -15 16 -8 38 -15 49 -15 11 -1 31 -7 45 -15 14 -8 36 -14 50 -15 15 0 31 -5 37 -11 6 -6 29 -15 50 -19 21 -5 54 -14 73 -20 19 -7 51 -18 70 -25 19 -7 51 -18 70 -25 54 -20 157 -24 199 -7 59 23 137 47 156 47 9 0 31 6 48 14 34 14 95 31 167 47 24 5 49 14 54 19 6 6 21 10 34 10 13 0 38 6 55 14 18 8 46 16 62 19 17 3 45 10 63 16 17 6 47 16 65 22 17 6 50 15 72 19 22 4 53 12 68 19 16 6 38 11 50 11 12 1 35 11 50 24 l28 23 0 212 c1 266 9 253 -149 251 -59 -1 -112 -1 -118 -1 -8 1 -11 38 -10 124 l1 122 115 -3 c112 -4 116 -3 139 21 l23 25 -1 408 c-2 425 -2 426 -46 445 -11 5 -33 18 -50 29 -16 11 -39 24 -50 30 -11 6 -33 19 -50 30 -16 11 -39 24 -50 30 -11 6 -33 19 -50 30 -16 11 -39 24 -50 30 -11 6 -33 19 -50 30 -16 11 -39 24 -50 29 -11 5 -36 20 -55 33 -19 13 -42 27 -50 31 -8 4 -28 16 -45 27 -16 11 -37 23 -45 27 -8 3 -33 18 -55 32 -22 14 -49 30 -60 36 -27 15 -409 245 -443 267 -67 44 -101 50 -142 28z m87 -210 c24 -16 46 -30 49 -30 2 0 23 -13 46 -30 22 -16 45 -30 49 -30 4 0 25 -12 46 -26 21 -14 47 -30 58 -35 11 -5 34 -18 50 -29 17 -11 39 -24 50 -30 11 -6 34 -19 50 -30 17 -11 39 -24 50 -30 11 -6 34 -19 50 -30 17 -11 39 -24 50 -30 23 -12 44 -25 100 -61 22 -14 47 -29 55 -32 8 -4 29 -16 45 -27 17 -11 39 -24 50 -30 11 -6 34 -19 50 -30 17 -11 39 -24 50 -30 11 -6 34 -19 50 -30 17 -10 50 -29 75 -42 25 -12 46 -23 48 -24 2 -1 4 -135 5 -298 l2 -296 -312 0 c-209 0 -314 3 -318 11 -4 5 -17 15 -28 20 -12 5 -34 17 -49 27 -94 60 -197 122 -203 122 -4 0 -24 14 -45 30 -21 17 -41 30 -44 30 -3 0 -44 23 -90 51 -67 42 -87 60 -101 91 -16 38 -16 42 0 78 24 53 64 80 118 80 27 0 49 -6 57 -15 7 -8 16 -15 20 -15 4 0 45 -25 90 -55 102 -68 142 -70 192 -11 39 47 14 107 -60 149 -22 12 -117 69 -212 127 -271 165 -248 154 -275 136 -14 -9 -33 -16 -44 -16 -11 0 -35 -6 -53 -14 -64 -26 -174 -61 -241 -75 -21 -5 -44 -14 -50 -20 -6 -6 -22 -11 -36 -11 -15 0 -39 -7 -55 -15 -15 -8 -36 -15 -45 -15 -9 0 -29 -7 -45 -15 -15 -8 -35 -15 -43 -15 -7 0 -31 -9 -53 -20 -40 -21 -85 -26 -94 -12 -3 5 -2 34 1 65 6 54 7 57 47 77 47 24 126 68 176 99 19 11 45 25 57 30 11 5 24 15 28 20 3 6 12 11 20 11 8 0 31 12 52 26 21 14 47 30 58 35 11 6 29 15 40 22 11 7 52 30 90 52 39 22 79 45 90 52 11 7 27 15 35 19 8 4 33 19 55 33 22 14 57 34 77 44 20 10 42 25 49 33 15 18 14 19 66 -16z m-987 -444 c0 -8 -4 -17 -9 -20 -10 -7 -23 19 -14 28 11 11 23 6 23 -8z m900 -56 c14 -11 39 -27 55 -34 17 -8 39 -24 50 -36 19 -22 19 -22 0 -36 -10 -8 -32 -14 -48 -14 -37 0 -113 -62 -134 -109 -35 -83 -35 -90 1 -155 44 -77 140 -166 180 -166 9 0 30 -13 48 -29 18 -15 53 -39 77 -52 24 -13 65 -36 90 -51 25 -14 69 -39 96 -53 28 -15 64 -37 80 -49 28 -20 45 -21 290 -26 153 -3 267 -9 278 -15 15 -10 13 -15 -23 -50 -28 -28 -40 -47 -40 -68 0 -15 -5 -38 -11 -49 -18 -34 8 -135 48 -184 18 -23 33 -46 33 -52 0 -18 -115 -24 -422 -20 -204 2 -301 7 -308 14 -15 15 5 48 35 62 11 5 26 22 34 38 7 16 17 36 21 44 4 9 11 30 15 48 15 69 -70 177 -158 201 -28 8 -198 12 -529 14 -267 1 -489 5 -493 9 -11 11 3 41 34 76 20 21 32 48 37 78 9 62 -2 163 -21 188 -9 12 -25 35 -36 52 -21 34 -42 42 -134 50 -33 3 -66 10 -72 16 -9 7 -13 43 -13 113 0 134 25 206 49 143 17 -44 49 -63 101 -61 62 3 215 40 260 63 29 15 67 28 100 34 3 1 19 6 35 12 64 24 102 34 126 34 13 0 34 6 44 14 55 38 181 41 225 6z m1245 -750 c9 -15 -20 -56 -43 -62 -39 -10 -44 7 -13 40 30 33 45 39 56 22z m-2115 -96 c0 -12 -10 -30 -22 -39 -21 -14 -24 -14 -35 2 -17 23 -16 30 7 53 24 24 50 16 50 -16z m1195 -82 c54 -40 69 -106 36 -156 -40 -61 -59 -66 -247 -66 l-170 0 -22 -30 c-29 -39 -28 -76 4 -117 l25 -34 597 1 c328 0 603 0 610 0 13 0 18 -146 4 -166 -4 -6 -28 -14 -54 -17 -26 -4 -56 -11 -65 -16 -19 -9 -80 -26 -153 -42 -24 -5 -49 -14 -54 -19 -6 -6 -19 -10 -30 -10 -12 0 -41 -6 -66 -14 -25 -8 -72 -22 -105 -31 -33 -9 -78 -23 -100 -31 -23 -8 -50 -14 -60 -14 -11 0 -33 -7 -49 -15 -15 -8 -38 -15 -50 -15 -12 0 -32 -7 -44 -16 -28 -19 -62 -15 -157 19 -38 13 -97 33 -130 42 -33 10 -72 24 -87 31 -14 8 -37 14 -50 14 -12 1 -34 7 -48 15 -14 8 -35 14 -46 15 -12 0 -35 7 -50 15 -16 8 -38 15 -49 15 -11 1 -31 7 -45 15 -14 8 -36 15 -50 15 -14 0 -34 7 -44 15 -11 8 -30 15 -43 15 -13 0 -38 8 -56 18 -27 14 -55 17 -179 15 l-148 -3 0 284 c0 155 2 285 4 287 2 2 262 3 576 1 520 -3 575 -4 595 -20z m913 -320 c13 -9 6 -72 -8 -72 -14 0 -60 49 -60 65 0 16 45 21 68 7z m-2118 -256 c25 -28 21 -56 -8 -56 -26 0 -42 20 -42 52 0 35 19 36 50 4z m2108 -39 c2 -10 -3 -17 -12 -17 -10 0 -16 9 -16 21 0 24 23 21 28 -4z"/> <path d="M7745 3548 c-16 -5 -86 -10 -154 -11 l-123 -2 -26 -48 c-24 -47 -26 -49 -61 -43 -162 25 -340 10 -466 -41 -94 -38 -194 -150 -209 -237 -4 -21 -12 -46 -18 -56 -6 -10 -8 -25 -4 -35 5 -15 13 -16 54 -9 26 5 89 8 141 7 53 -2 99 2 106 7 7 6 16 32 20 58 6 44 37 92 58 92 6 0 18 7 27 15 13 12 44 16 139 16 117 1 123 -1 157 -26 36 -27 74 -91 74 -123 0 -29 -60 -87 -105 -101 -22 -7 -96 -19 -165 -27 -245 -30 -303 -43 -332 -72 -7 -7 -17 -12 -23 -12 -16 0 -84 -67 -96 -94 -5 -11 -13 -28 -18 -36 -5 -8 -15 -47 -22 -87 -15 -89 -3 -144 48 -221 46 -68 91 -107 161 -139 53 -23 68 -25 203 -25 180 0 193 3 184 45 -3 18 -9 62 -12 99 -6 79 -16 91 -64 78 -18 -6 -65 -10 -102 -10 -64 0 -71 2 -104 33 -30 29 -35 40 -36 84 -2 40 3 56 26 86 15 20 33 37 38 37 6 0 25 6 42 14 18 8 77 17 133 20 102 5 124 11 202 49 58 30 52 50 -15 57 -78 8 -83 27 -15 56 44 18 66 37 103 88 59 80 29 185 -72 256 -32 23 -59 45 -59 49 0 4 19 18 43 30 23 12 57 33 76 47 45 32 76 39 107 25 21 -9 24 -17 24 -63 0 -49 7 -81 36 -158 9 -27 12 -123 11 -406 -2 -341 -3 -374 -20 -392 -12 -13 -26 -18 -43 -14 -47 9 -56 39 -63 216 -6 130 -10 169 -24 190 -40 60 -46 32 -56 -259 -4 -126 -4 -234 0 -239 6 -7 183 -11 285 -6 16 0 11 881 -5 931 -6 20 -22 48 -36 63 -14 15 -25 34 -25 42 0 16 75 119 104 143 16 14 22 56 9 64 -5 2 -21 0 -38 -5z m-667 -216 c2 -7 -3 -12 -12 -12 -8 0 -50 -34 -92 -75 -42 -41 -82 -75 -88 -75 -7 0 -23 5 -37 12 l-24 11 20 43 c19 42 30 50 75 59 12 2 28 12 35 21 8 12 20 15 37 11 15 -4 32 -1 44 8 21 16 36 15 42 -3z m12 -467 c0 -8 -7 -15 -14 -15 -23 0 -101 -57 -122 -87 -10 -16 -29 -48 -42 -72 -23 -43 -23 -45 -7 -95 21 -64 73 -119 148 -157 72 -37 70 -54 -7 -53 -41 1 -74 10 -125 34 -65 31 -72 38 -102 97 -30 59 -32 67 -26 139 3 41 11 82 18 91 7 8 18 25 24 37 6 11 25 28 43 37 17 9 39 22 47 29 13 11 43 17 153 29 6 0 12 -6 12 -14z"/> <path d="M4660 3445 c-81 -13 -113 -23 -190 -57 -55 -25 -160 -135 -160 -169 0 -9 -7 -34 -16 -54 -18 -44 -15 -109 8 -168 18 -45 83 -127 102 -127 8 0 19 -7 26 -15 7 -8 22 -15 34 -15 12 0 26 -4 31 -9 6 -5 30 -14 55 -19 25 -6 65 -16 90 -22 105 -26 137 -33 170 -37 19 -3 49 -11 67 -19 17 -8 36 -14 41 -14 24 0 62 -62 62 -100 0 -64 -31 -78 -192 -90 -73 -6 -141 -13 -152 -16 -30 -10 -36 15 -29 112 4 59 2 93 -5 98 -5 3 -70 7 -143 9 l-132 2 -1 -212 c-1 -138 2 -213 9 -214 55 -4 382 4 500 12 171 13 246 33 318 86 93 68 131 200 93 324 -32 106 -70 140 -239 213 -21 9 -51 16 -68 16 -17 0 -39 5 -49 10 -11 6 -50 15 -87 20 -102 14 -161 33 -200 65 -32 25 -35 32 -30 65 10 74 81 114 202 113 96 0 155 -23 204 -79 17 -19 34 -34 38 -34 5 0 26 17 48 38 50 47 115 97 138 105 39 14 1 68 -78 108 -22 11 -47 24 -55 28 -85 46 -276 68 -410 46z m310 -108 c52 -18 67 -27 74 -49 13 -37 2 -45 -37 -29 -116 48 -173 61 -242 57 -117 -7 -183 -44 -242 -135 -38 -59 -38 -54 8 -131 31 -51 53 -72 101 -97 43 -21 172 -56 278 -74 30 -6 59 -14 65 -18 5 -5 23 -11 38 -15 31 -7 101 -49 112 -66 4 -6 8 -24 10 -41 3 -17 9 -37 15 -44 7 -9 9 -40 4 -90 -11 -124 -48 -153 -236 -184 -37 -6 -80 -8 -95 -5 l-28 7 30 13 c17 7 40 13 51 14 12 0 47 18 79 39 57 39 105 108 105 152 0 9 -25 44 -55 78 -30 34 -55 66 -55 71 0 6 -7 10 -15 10 -8 0 -35 9 -60 21 -24 11 -49 18 -54 15 -6 -4 -18 -3 -28 2 -35 18 -90 32 -126 32 -20 0 -51 6 -69 14 -18 8 -51 18 -73 21 -30 5 -53 19 -92 59 l-53 53 5 77 c2 42 10 87 17 100 40 70 62 97 87 103 14 3 35 12 46 19 11 8 29 14 40 14 12 0 25 4 31 9 9 10 79 16 224 19 55 1 93 -5 140 -21z m-460 -702 c7 -9 14 -32 15 -52 1 -38 7 -44 118 -133 26 -21 43 -41 38 -44 -5 -4 -35 -6 -68 -5 -32 1 -79 1 -105 1 -46 -1 -49 1 -74 43 -20 35 -23 48 -15 63 6 11 10 41 9 67 -2 36 2 50 17 61 25 18 49 18 65 -1z m259 -204 c9 -6 10 -10 2 -15 -16 -10 -73 3 -65 15 7 11 45 12 63 0z"/> <path d="M5910 3451 c-14 -5 -43 -9 -65 -10 -89 -2 -241 -72 -315 -144 -27 -28 -50 -55 -50 -60 0 -6 -6 -18 -13 -26 -18 -23 -50 -124 -45 -147 3 -18 12 -19 138 -15 74 2 141 8 148 13 6 6 12 21 12 33 0 33 69 97 126 118 102 36 222 12 299 -62 83 -79 115 -199 94 -355 -6 -50 -18 -98 -25 -107 -8 -8 -14 -19 -14 -23 0 -16 -56 -80 -90 -101 -19 -12 -68 -30 -108 -40 -71 -19 -74 -19 -130 0 -68 22 -138 88 -164 152 -23 60 -13 65 104 51 53 -6 103 -8 110 -5 11 4 14 27 12 102 -1 53 -5 99 -10 103 -5 4 -125 6 -268 4 l-258 -3 6 -37 c4 -20 9 -68 12 -107 6 -72 25 -148 50 -198 8 -16 14 -33 14 -39 0 -16 89 -126 125 -154 44 -33 104 -64 127 -64 9 0 19 -4 22 -9 10 -16 80 -23 229 -22 102 0 158 5 180 14 18 8 46 20 62 26 81 33 180 120 220 192 22 40 51 102 64 139 48 128 32 370 -32 483 -27 49 -100 138 -144 177 -45 39 -69 53 -153 88 -63 25 -231 46 -270 33z m172 -103 c38 -5 70 -14 73 -18 3 -5 28 -16 56 -25 42 -14 61 -30 116 -94 61 -72 81 -111 114 -220 17 -55 7 -249 -15 -291 -10 -19 -24 -56 -32 -82 -17 -56 -128 -174 -172 -184 -15 -3 -49 -15 -76 -27 -44 -19 -66 -22 -184 -20 -107 1 -137 4 -151 17 -10 9 -25 14 -34 11 -8 -4 -18 -2 -22 4 -3 6 -16 11 -27 11 -37 0 -117 71 -152 135 -51 91 -78 219 -55 261 12 22 18 24 96 24 58 0 94 -5 116 -16 30 -16 30 -18 12 -28 -10 -6 -41 -31 -67 -55 -60 -55 -65 -93 -18 -141 17 -17 30 -34 30 -39 0 -4 22 -30 49 -57 42 -42 59 -52 113 -64 72 -16 144 -16 197 1 60 19 149 78 170 112 11 18 28 41 38 52 32 37 53 82 53 118 0 19 6 40 14 46 27 23 13 176 -24 266 -5 11 -12 30 -15 42 -7 27 -52 81 -118 144 -56 53 -102 68 -217 70 -111 3 -167 -17 -232 -83 -80 -83 -159 -112 -166 -62 -2 11 6 28 18 39 11 10 20 24 20 31 0 16 57 64 76 64 8 0 22 4 32 9 56 29 194 67 210 57 4 -2 14 -1 22 4 13 8 31 7 152 -12z"/> <path d="M4510 2181 c-19 -4 -51 -14 -71 -24 -44 -20 -129 -113 -129 -142 -1 -11 -7 -31 -15 -45 -19 -32 -19 -101 -1 -142 8 -18 17 -45 20 -59 7 -33 92 -129 114 -129 10 0 26 -7 36 -15 14 -11 47 -15 116 -15 85 0 103 3 146 26 81 43 105 76 135 187 27 96 24 101 -56 92 -39 -4 -87 -2 -122 5 -51 11 -58 10 -70 -6 -13 -18 -9 -70 6 -87 5 -4 28 -3 52 2 37 9 46 8 56 -6 27 -36 -64 -122 -129 -123 -31 0 -94 27 -118 50 -46 46 -65 113 -53 195 5 39 15 56 55 96 48 48 50 49 112 49 59 0 65 -2 99 -37 21 -20 37 -40 37 -45 0 -4 29 -8 65 -8 61 0 65 1 65 23 0 24 -35 78 -67 103 -60 46 -195 73 -283 55z"/> <path d="M7683 2182 c-59 -3 -63 -5 -107 -50 -67 -70 -103 -113 -128 -154 -13 -21 -31 -38 -42 -38 -17 0 -18 7 -11 120 l7 121 -68 -3 -69 -3 1 -113 c1 -62 7 -140 12 -175 20 -115 23 -147 12 -147 -5 0 -10 5 -10 11 0 6 -12 20 -26 31 -14 11 -38 48 -54 82 -16 33 -43 84 -60 111 -16 28 -34 59 -40 70 -30 59 -68 118 -81 126 -8 5 -46 9 -85 9 -81 0 -87 -6 -79 -68 2 -20 7 -120 10 -222 5 -194 -1 -234 -30 -196 -8 11 -22 40 -31 65 -9 25 -20 55 -24 66 -51 132 -55 142 -99 237 -17 37 -31 74 -31 81 0 24 -23 37 -66 37 -38 0 -44 -4 -63 -36 -12 -19 -21 -41 -21 -49 0 -7 -8 -28 -17 -47 -28 -57 -33 -67 -48 -110 -35 -97 -44 -124 -47 -148 -3 -28 -38 -42 -38 -15 0 36 -34 88 -67 101 -18 8 -33 19 -33 26 0 6 19 28 41 49 41 38 41 39 37 94 -8 100 -52 121 -261 126 l-142 4 -5 -275 c-3 -151 -4 -278 -2 -282 2 -5 67 -8 146 -8 109 0 147 3 162 15 10 8 27 15 36 15 9 0 23 7 32 15 13 14 15 12 13 -12 -2 -28 -2 -28 63 -28 63 0 64 0 70 30 4 17 13 43 21 59 l14 30 110 -3 c60 -1 113 -5 117 -7 5 -3 8 -14 8 -25 0 -11 7 -35 14 -54 l15 -35 122 0 122 0 -7 200 c-7 197 -7 200 13 200 14 0 23 -9 27 -27 4 -16 10 -32 14 -38 4 -5 24 -41 45 -80 21 -38 55 -96 76 -129 22 -32 39 -63 39 -70 1 -6 9 -21 19 -33 17 -21 28 -23 106 -23 l87 0 -7 135 c-7 132 -7 135 13 135 13 0 23 -9 28 -22 4 -13 10 -25 13 -28 4 -3 35 -41 69 -85 107 -139 96 -132 188 -139 63 -5 83 -3 87 7 3 7 -52 71 -129 150 -74 75 -134 142 -134 149 0 7 54 64 120 128 66 64 120 121 120 127 0 15 -17 18 -87 15z m-1516 -118 c49 -7 60 -65 19 -103 -20 -19 -33 -22 -87 -19 l-64 3 -3 55 c-5 79 5 84 135 64z m459 -139 c3 -16 13 -38 21 -47 8 -9 13 -25 11 -35 -3 -15 -15 -19 -67 -21 -89 -4 -92 -2 -75 50 8 24 18 52 23 63 5 11 14 34 21 50 l12 30 24 -30 c13 -16 26 -43 30 -60z m-415 -96 c29 -20 39 -59 21 -85 -20 -30 -165 -47 -190 -22 -7 7 -12 38 -12 70 l0 58 76 0 c61 0 82 -4 105 -21z"/> <path d="M5136 2165 c-3 -9 -4 -21 0 -26 5 -8 6 -461 1 -504 -2 -18 5 -20 66 -23 l68 -3 -3 123 -3 123 120 0 120 0 -3 -122 -2 -123 62 0 63 0 -1 283 0 282 -60 0 -59 0 3 -108 4 -108 -124 3 -123 3 0 105 0 105 -61 3 c-50 2 -63 0 -68 -13z"/> <path d="M7708 1161 c-40 -9 -80 -48 -76 -74 4 -28 52 -36 77 -13 10 9 39 19 64 22 43 6 47 9 47 34 0 39 -37 49 -112 31z"/> <path d="M5420 1025 c-8 -10 -31 -15 -71 -15 -66 0 -132 -32 -144 -70 -16 -50 49 -62 90 -15 38 43 110 42 121 -2 9 -35 -3 -42 -90 -58 -96 -16 -116 -32 -116 -95 0 -36 5 -52 23 -68 27 -25 75 -37 112 -28 21 5 26 12 23 34 -2 22 -9 28 -35 30 -41 4 -63 37 -40 59 14 14 75 32 110 33 15 0 17 -10 17 -75 l0 -75 45 0 45 0 -1 43 c0 23 -4 92 -9 152 -5 66 -5 114 1 120 5 5 9 17 9 27 0 14 -8 18 -39 18 -22 0 -44 -6 -51 -15z"/> <path d="M5703 1014 c-7 -3 -13 -19 -13 -35 0 -24 4 -29 25 -29 31 0 72 -38 81 -74 14 -56 -25 -144 -59 -133 -17 5 -46 67 -47 100 0 52 -27 87 -67 87 -34 0 -36 -16 -13 -93 13 -40 28 -90 35 -112 l12 -40 69 -3 c68 -3 71 -2 106 32 28 27 36 44 41 83 14 128 -26 206 -113 217 -25 3 -51 3 -57 0z"/> <path d="M1295 982 c-33 -23 -41 -34 -43 -66 -3 -33 1 -43 25 -62 15 -13 37 -24 48 -24 30 -1 103 -24 116 -37 8 -8 8 -17 -1 -32 -9 -18 -19 -22 -53 -19 -35 3 -42 7 -47 28 -5 20 -13 26 -42 28 l-35 3 -6 -53 c-2 -29 -3 -56 0 -60 2 -5 47 -8 100 -8 111 0 157 19 168 70 14 63 -21 104 -97 113 -79 10 -110 41 -76 75 17 17 63 15 78 -3 17 -20 53 -19 73 3 23 25 22 29 -15 52 -51 31 -142 27 -193 -8z"/> <path d="M1605 999 c-4 -6 -4 -69 0 -140 6 -115 10 -131 31 -156 21 -24 31 -28 79 -27 37 0 60 6 74 18 18 16 20 16 28 1 7 -12 20 -16 44 -13 l34 3 -4 155 c-2 85 -5 158 -8 163 -2 4 -20 7 -39 7 -39 0 -37 7 -34 -130 1 -79 0 -88 -24 -113 -28 -30 -57 -35 -80 -11 -24 23 -29 58 -24 148 3 44 4 87 1 94 -6 15 -69 16 -78 1z"/> <path d="M2004 990 c-32 -21 -61 -71 -50 -88 3 -6 18 -13 33 -16 21 -6 31 -2 50 18 29 31 63 33 89 5 16 -17 18 -34 16 -124 -3 -104 -3 -104 21 -111 14 -3 35 -1 46 6 20 10 21 16 16 108 -9 149 -12 158 -53 192 -30 25 -45 30 -87 30 -33 0 -61 -7 -81 -20z"/> <path d="M2373 972 c-52 -47 -63 -82 -63 -198 l0 -92 31 -7 c40 -9 47 -1 51 60 l3 50 40 0 c38 0 40 2 43 33 3 31 2 32 -38 32 -29 0 -42 5 -47 17 -8 21 39 63 72 63 76 0 104 -51 88 -164 -5 -36 -7 -70 -4 -75 11 -17 60 -24 76 -11 23 19 9 211 -17 257 -28 46 -79 73 -141 73 -46 0 -57 -4 -94 -38z"/> <path d="M2747 992 c-59 -40 -74 -86 -31 -102 35 -14 38 -13 68 15 31 29 58 32 81 8 15 -14 17 -33 14 -122 l-4 -104 30 -9 c17 -4 38 -5 49 -2 17 6 18 16 14 128 -4 132 -13 157 -70 190 -36 22 -116 20 -151 -2z"/> <path d="M3116 991 c-34 -22 -55 -56 -56 -87 0 -23 35 -74 52 -74 5 0 34 -7 64 -16 46 -13 54 -19 54 -39 0 -13 -5 -27 -11 -31 -20 -12 -66 -6 -94 12 -26 17 -27 17 -52 -9 l-27 -26 25 -20 c45 -38 162 -39 203 -3 29 26 48 71 40 95 -10 34 -45 67 -71 67 -29 0 -88 24 -98 40 -9 15 23 50 45 50 10 0 23 -7 30 -15 18 -21 57 -19 70 4 16 30 12 39 -20 56 -41 21 -118 19 -154 -4z"/> <path d="M3458 990 c-41 -22 -68 -55 -68 -82 0 -27 55 -23 94 7 18 14 44 25 57 25 77 0 112 -119 52 -175 -34 -31 -82 -33 -107 -6 -20 22 -14 41 14 41 23 0 42 31 31 49 -5 8 -30 11 -77 9 -65 -3 -69 -4 -71 -28 -3 -34 36 -109 70 -134 39 -28 139 -29 181 -1 137 92 73 316 -91 315 -27 -1 -64 -9 -85 -20z"/> <path d="M3807 979 c-42 -34 -49 -72 -18 -89 28 -15 37 -13 67 15 32 30 57 32 83 6 17 -17 18 -30 14 -124 l-6 -104 34 -5 c58 -9 59 -7 59 121 0 94 -3 121 -18 143 -33 50 -66 68 -124 68 -45 0 -59 -5 -91 -31z"/> <path d="M4197 979 c-58 -48 -67 -74 -67 -194 0 -116 5 -125 57 -108 26 9 28 14 28 59 l0 49 42 -3 c38 -2 43 0 49 24 8 33 -2 42 -51 46 -69 5 -53 65 20 75 31 4 46 0 68 -17 27 -22 28 -25 27 -114 -1 -50 -1 -96 -1 -103 1 -16 34 -25 65 -17 23 6 26 11 26 53 -2 198 -53 281 -174 281 -43 0 -58 -5 -89 -31z"/> <path d="M4559 985 c-44 -29 -59 -73 -33 -92 27 -19 48 -16 74 12 28 30 60 32 84 6 14 -16 17 -36 15 -121 -3 -121 -1 -124 84 -111 4 0 7 48 7 106 0 119 -16 167 -69 204 -42 30 -115 29 -162 -4z"/> <path d="M4917 979 c-31 -25 -37 -37 -37 -68 0 -48 24 -71 98 -92 58 -16 79 -35 69 -63 -9 -22 -74 -21 -99 1 -16 14 -22 14 -43 3 -78 -42 13 -102 128 -85 62 10 92 42 92 102 0 51 -28 83 -74 83 -25 0 -91 33 -91 46 0 38 56 58 80 29 7 -8 20 -15 30 -15 18 0 50 30 50 46 0 21 -59 44 -112 44 -45 0 -59 -5 -91 -31z"/> <path d="M5960 846 c0 -152 1 -165 19 -171 10 -3 28 -2 41 3 22 8 22 12 24 168 l1 159 -42 3 -43 3 0 -165z"/> <path d="M6205 993 c-61 -33 -74 -66 -82 -204 l-5 -106 25 -7 c44 -11 56 1 59 57 l3 52 40 0 c38 0 40 2 43 33 3 34 1 35 -55 32 -27 -1 -33 2 -33 19 0 24 45 61 76 61 75 0 103 -52 87 -164 -5 -36 -7 -70 -4 -74 11 -16 50 -23 70 -13 17 10 18 19 14 118 -6 123 -21 158 -79 192 -43 25 -116 27 -159 4z"/> <path d="M6562 982 c-28 -23 -32 -33 -32 -73 0 -47 21 -79 52 -79 8 0 35 -7 61 -16 38 -13 47 -20 47 -39 0 -13 -5 -27 -11 -31 -21 -12 -70 -6 -90 12 -17 16 -20 16 -44 0 -58 -38 10 -91 106 -83 70 6 116 36 125 83 8 42 -14 87 -46 95 -104 28 -115 34 -115 58 0 37 28 49 64 28 39 -23 56 -21 75 7 15 24 15 26 -13 45 -45 33 -136 29 -179 -7z"/> <path d="M6889 993 c-29 -17 -59 -62 -59 -86 0 -9 14 -17 36 -21 30 -6 39 -3 59 18 24 26 50 32 71 18 27 -18 33 -51 26 -136 -4 -48 -5 -90 -2 -95 9 -14 49 -23 70 -16 20 6 21 13 17 129 -4 133 -13 157 -69 190 -34 21 -116 20 -149 -1z"/> <path d="M7427 1003 c-2 -4 -5 -78 -6 -164 -1 -149 0 -157 19 -162 11 -3 33 -2 48 2 26 7 27 10 23 62 -10 119 -12 114 40 117 40 3 50 -1 67 -23 18 -23 20 -36 15 -90 l-6 -63 31 -7 c18 -3 40 -1 53 5 20 11 21 17 15 83 -4 40 -13 78 -21 87 -20 22 -18 50 5 80 27 35 25 59 -6 71 -37 14 -56 5 -79 -38 -18 -35 -24 -38 -67 -41 l-47 -3 -3 43 c-3 42 -4 43 -40 46 -20 2 -38 -1 -41 -5z"/> <path d="M7191 981 c-9 -6 -11 -18 -6 -41 6 -25 16 -35 52 -51 67 -28 113 -21 113 17 0 20 -29 44 -52 44 -12 0 -29 6 -37 14 -22 19 -54 27 -70 17z"/> <path d="M7186 795 c-17 -46 52 -99 122 -93 34 3 37 6 37 33 0 27 -4 30 -37 36 -21 3 -46 13 -56 22 -23 21 -58 22 -66 2z"/> </g> </svg> 