<?xml version="1.0" standalone="no"?>
<!DOCTYPE svg PUBLIC "-//W3C//DTD SVG 20010904//EN"
 "http://www.w3.org/TR/2001/REC-SVG-20010904/DTD/svg10.dtd">
<svg version="1.0" xmlns="http://www.w3.org/2000/svg"
 width="709.000000pt" height="354.000000pt" viewBox="0 0 709.000000 354.000000"
 preserveAspectRatio="xMidYMid meet">
<metadata>
Created by potrace 1.16, written by Peter Selinger 2001-2019
</metadata>
<g transform="translate(0.000000,354.000000) scale(0.100000,-0.100000)"
fill="#ffffff" stroke="none">
<path d="M740 2966 c-86 -24 -119 -53 -127 -113 -12 -93 49 -159 237 -253 188
-94 243 -141 270 -228 62 -199 -34 -598 -219 -911 -90 -151 -174 -221 -308
-256 -80 -21 -123 -20 -123 3 0 17 82 243 230 632 34 91 81 217 105 280 23 63
56 152 73 196 37 98 45 92 -122 90 l-118 -1 -22 -60 c-24 -62 -102 -254 -226
-555 -201 -485 -268 -656 -260 -664 14 -14 275 -28 404 -22 179 9 338 65 498
175 91 63 101 72 164 146 77 92 100 134 144 261 51 149 70 256 70 400 0 282
-71 384 -370 534 -58 29 -116 61 -130 72 -57 45 -78 118 -42 151 36 33 80 39
377 48 165 5 310 11 322 14 35 8 55 33 43 56 -10 18 -25 19 -418 18 -291 -1
-420 -4 -452 -13z"/>
<path d="M6715 2951 c-73 -33 -115 -86 -139 -175 -9 -33 -17 -41 -43 -48 -48
-12 -37 9 -258 -503 -103 -237 -192 -435 -199 -442 -5 -5 -208 -24 -212 -20
-4 4 15 54 121 327 93 240 140 386 138 435 -1 63 -23 114 -70 166 -63 70 -102
84 -223 83 -113 0 -166 -14 -379 -101 -116 -47 -127 -60 -83 -106 17 -18 32
-42 32 -52 0 -11 -26 -45 -57 -75 -50 -48 -66 -74 -112 -181 -30 -68 -63 -142
-73 -164 -62 -141 -139 -332 -152 -376 -33 -109 -15 -161 59 -175 39 -7 156
-1 173 9 6 4 6 24 0 55 -9 46 -7 54 62 217 39 94 96 231 127 305 77 188 75
186 143 220 33 17 60 33 60 36 0 3 -11 19 -25 36 -35 41 -35 111 0 159 28 37
94 92 137 115 44 23 101 18 131 -12 55 -55 47 -111 -51 -364 -162 -415 -311
-814 -307 -819 3 -2 40 10 83 28 185 80 279 113 339 118 93 8 93 2 17 -181
-69 -168 -56 -262 46 -340 146 -111 325 -99 506 34 89 67 145 149 176 259 27
98 24 158 -11 213 -16 25 -42 55 -59 67 -37 26 -124 57 -187 67 -26 3 -49 12
-51 18 -3 7 25 86 62 176 37 91 113 280 169 420 l103 255 104 6 c56 4 118 7
136 8 l34 1 -51 40 c-66 52 -84 88 -79 156 3 37 12 63 32 88 l27 36 -78 0
c-54 0 -90 -6 -118 -19z m-329 -1281 c64 -36 100 -78 115 -133 49 -181 -106
-408 -290 -424 -51 -5 -60 -3 -79 18 -42 44 -26 102 108 394 18 38 43 93 56
122 12 29 27 53 31 53 4 0 31 -13 59 -30z"/>
<path d="M2459 2430 c-86 -15 -156 -65 -193 -137 -17 -35 -21 -113 -7 -141 5
-9 13 -28 19 -42 6 -14 43 -99 82 -189 86 -196 93 -229 57 -265 -22 -21 -35
-26 -79 -26 -71 0 -117 25 -146 78 -45 81 -72 36 -29 -48 54 -108 221 -150
354 -88 108 50 154 141 133 259 -15 80 -27 113 -99 259 -46 93 -62 139 -66
180 l-4 55 38 19 c59 28 98 11 142 -60 19 -31 42 -66 52 -77 18 -22 18 -22 13
18 -3 22 -18 65 -33 95 -47 91 -127 129 -234 110z"/>
<path d="M1769 2417 c-20 -8 -53 -24 -72 -36 -37 -23 -127 -116 -127 -132 0
-23 46 -5 90 37 88 82 193 101 235 41 33 -47 15 -107 -165 -555 -43 -105 -75
-194 -71 -195 3 -2 58 -5 122 -6 l117 -3 42 109 c23 59 57 149 75 198 18 50
51 136 74 193 60 150 53 226 -25 291 -66 54 -223 85 -295 58z"/>
<path d="M3020 2417 c-26 -7 -62 -23 -83 -35 -44 -28 -129 -121 -121 -133 11
-18 35 -8 79 32 59 54 148 91 184 76 47 -20 71 -48 71 -84 0 -34 -52 -178
-180 -497 -39 -98 -69 -185 -66 -192 4 -11 33 -14 120 -14 99 0 115 2 121 18
6 14 89 232 211 552 18 47 17 124 -1 159 -23 45 -70 79 -139 100 -88 27 -144
32 -196 18z"/>
<path d="M3668 2415 c-140 -52 -196 -163 -145 -290 13 -33 59 -138 101 -233
73 -163 77 -175 66 -208 -14 -43 -35 -54 -100 -54 -73 0 -115 21 -139 69 -24
45 -38 58 -53 43 -21 -21 3 -86 48 -129 117 -114 342 -90 435 45 28 41 36 123
20 201 -7 31 -44 121 -82 201 -89 187 -100 253 -47 281 55 30 116 2 153 -70
12 -25 32 -57 44 -71 l21 -25 -6 30 c-16 78 -26 105 -54 144 -46 62 -83 81
-160 80 -36 0 -82 -7 -102 -14z"/>
<path d="M4275 2382 c-2 -2 1 -18 6 -35 11 -38 7 -51 -78 -262 -167 -412 -184
-451 -227 -500 -33 -38 -28 -40 117 -44 l112 -2 25 45 c31 57 41 58 158 6 154
-69 219 -65 314 20 43 38 66 70 96 133 44 91 140 305 209 467 24 58 51 118 59
134 8 16 14 31 14 33 0 1 -58 3 -130 3 l-130 0 -16 -37 c-9 -21 -34 -83 -55
-138 -22 -55 -44 -109 -49 -120 -10 -22 -70 -168 -120 -292 -18 -46 -46 -95
-62 -110 -25 -24 -37 -28 -88 -28 -52 0 -64 4 -87 28 -39 39 -35 86 22 232 26
66 55 143 65 170 10 28 39 104 64 169 25 65 46 120 46 122 0 4 -261 10 -265 6z"/>
<path d="M1377 1303 c-4 -3 -7 -19 -7 -35 l0 -28 2145 0 2145 0 0 35 0 35
-2138 0 c-1176 0 -2142 -3 -2145 -7z"/>
<path d="M1968 1035 c-8 -36 -13 -65 -11 -65 2 0 26 18 52 40 53 44 116 64
126 38 3 -8 -8 -67 -25 -131 -16 -64 -44 -170 -60 -234 -17 -65 -34 -119 -38
-121 -23 -8 -72 -43 -72 -52 0 -6 52 -10 140 -10 115 0 140 3 140 14 0 8 -13
23 -30 33 -16 9 -30 21 -30 25 0 16 72 299 97 381 31 102 50 121 92 90 14 -11
35 -37 46 -59 l19 -39 12 40 c6 22 14 57 18 78 l7 37 -234 0 -233 0 -16 -65z"/>
<path d="M2980 916 c-25 -7 -56 -18 -68 -25 -22 -12 -23 -14 -7 -31 20 -22 14
-69 -31 -258 -13 -57 -24 -106 -24 -108 0 -2 24 -4 54 -4 l53 0 13 48 c38 146
86 262 109 262 5 0 14 -7 21 -15 31 -38 83 -3 96 64 5 21 1 34 -15 50 -31 31
-49 26 -94 -24 -22 -25 -44 -45 -49 -45 -5 0 -6 23 -2 50 4 28 3 50 -2 49 -5
0 -29 -6 -54 -13z"/>
<path d="M2605 905 c-43 -18 -128 -112 -160 -176 -33 -63 -45 -166 -25 -204
30 -56 91 -54 159 5 l34 30 18 -40 c20 -44 25 -46 73 -26 43 18 89 81 54 73
-30 -6 -16 121 28 260 13 42 24 80 24 84 0 19 -74 9 -97 -13 -21 -19 -25 -20
-40 -6 -29 24 -36 26 -68 13z m76 -37 c36 -67 -52 -298 -115 -298 -67 0 -38
207 40 286 40 39 59 43 75 12z"/>
<path d="M3369 891 c-93 -59 -161 -174 -167 -284 -4 -60 -2 -71 19 -93 34 -37
84 -33 134 11 22 19 43 35 46 35 3 0 14 -18 24 -40 10 -22 24 -40 32 -40 25 0
69 28 87 54 20 31 20 36 2 36 -8 0 -16 6 -19 14 -7 18 28 193 54 265 10 30 19
59 19 63 0 17 -77 8 -95 -12 -17 -19 -18 -19 -43 0 -32 26 -40 25 -93 -9z
m102 -25 c38 -82 -81 -332 -135 -287 -53 44 -3 240 76 295 31 22 47 20 59 -8z"/>
<path d="M3755 906 c-22 -7 -50 -18 -63 -25 -22 -12 -22 -14 -6 -25 14 -11 16
-22 10 -65 -6 -49 -50 -256 -62 -293 -5 -16 2 -18 50 -18 43 0 56 4 60 18 3 9
17 59 31 111 23 82 67 181 81 181 3 0 16 -7 29 -16 32 -21 60 -11 79 30 20 43
20 70 0 90 -27 28 -57 19 -102 -31 l-42 -48 2 50 c3 57 -4 61 -67 41z"/>
<path d="M4225 911 c-129 -32 -215 -134 -231 -276 -16 -136 93 -195 232 -125
154 78 216 284 113 376 -28 26 -72 35 -114 25z m43 -33 c28 -28 1 -203 -47
-296 -22 -43 -58 -66 -86 -56 -53 21 -10 255 60 327 38 39 54 44 73 25z"/>
<path d="M4560 894 c-84 -22 -85 -23 -72 -36 25 -25 0 -174 -53 -309 -8 -20
-12 -39 -10 -41 2 -2 28 -1 57 2 l52 5 33 80 c61 147 101 213 122 201 6 -4 11
-19 11 -34 0 -32 -46 -216 -61 -243 -9 -18 -6 -19 44 -19 l54 0 28 68 c71 169
128 262 160 262 17 0 20 -37 5 -72 -72 -175 -81 -217 -54 -256 28 -41 110 -19
139 38 19 36 21 60 3 42 -16 -16 -48 -15 -49 1 -3 28 4 53 42 143 46 112 50
159 14 176 -35 16 -75 -4 -138 -68 -28 -30 -55 -54 -58 -54 -4 0 -4 20 -2 44
6 51 -10 86 -38 86 -23 0 -52 -20 -117 -82 -23 -22 -45 -38 -48 -35 -3 3 2 29
10 58 9 29 16 54 16 56 0 6 -36 1 -90 -13z"/>
</g>
</svg>
