<?xml version="1.0" standalone="no"?>
<!DOCTYPE svg PUBLIC "-//W3C//DTD SVG 20010904//EN"
 "http://www.w3.org/TR/2001/REC-SVG-20010904/DTD/svg10.dtd">
<svg version="1.0" xmlns="http://www.w3.org/2000/svg"
 width="589.000000pt" height="264.000000pt" viewBox="0 0 589.000000 264.000000"
 preserveAspectRatio="xMidYMid meet">
<metadata>
Created by potrace 1.16, written by Peter Selinger 2001-2019
</metadata>
<g transform="translate(0.000000,264.000000) scale(0.100000,-0.100000)"
fill="#ffffff" stroke="none">
<path d="M1322 1940 c-156 -22 -295 -87 -407 -192 -160 -150 -228 -301 -228
-508 0 -208 68 -358 229 -509 88 -82 212 -149 329 -177 113 -27 288 -23 400
10 232 69 411 235 489 455 29 80 31 96 31 221 0 125 -2 141 -31 221 -99 277
-356 465 -659 482 -50 3 -118 2 -153 -3z m-82 -160 c-3 -8 -6 -187 -8 -397
l-3 -383 -135 0 -135 0 3 321 3 322 50 44 c88 77 241 141 225 93z m563 -61
c55 -36 159 -146 154 -163 -2 -6 -26 -13 -53 -17 -33 -3 -138 -46 -329 -133
-154 -71 -288 -133 -297 -138 -17 -8 -18 2 -18 142 l0 151 58 26 c214 99 371
162 403 163 24 0 51 -10 82 -31z m36 -449 c97 -176 107 -212 70 -246 -18 -16
-37 -19 -136 -19 l-114 0 -85 159 c-46 87 -84 161 -84 165 0 10 244 120 252
112 3 -3 47 -80 97 -171z m141 -302 c0 -39 -130 -178 -202 -214 -47 -24 -51
-24 -348 -24 -286 0 -303 1 -342 21 -71 36 -208 181 -208 220 0 12 92 14 550
14 506 0 550 -1 550 -17z"/>
<path d="M2481 1740 c-70 -16 -109 -67 -88 -111 13 -25 53 -42 131 -56 63 -10
82 -36 47 -64 -13 -10 -38 -19 -57 -19 -33 0 -34 1 -34 40 0 44 -13 50 -64 30
-23 -8 -26 -15 -26 -59 0 -27 5 -53 11 -57 17 -10 142 -17 182 -10 51 10 87
47 87 91 0 68 -35 98 -127 111 -58 7 -78 17 -69 33 10 16 82 13 100 -4 15 -15
96 -21 96 -7 0 16 -32 53 -58 66 -38 19 -91 25 -131 16z"/>
<path d="M3083 1739 c-29 -9 -33 -14 -33 -45 0 -30 3 -35 18 -29 49 19 71 17
96 -8 24 -25 26 -32 26 -127 l0 -100 35 0 35 0 0 124 c0 141 -11 167 -78 186
-43 12 -56 11 -99 -1z"/>
<path d="M3415 1735 c-22 -8 -50 -26 -62 -40 -21 -24 -23 -36 -23 -146 l0
-119 40 0 40 0 0 60 0 60 45 0 c43 0 45 1 45 30 0 29 -2 30 -45 30 -41 0 -45
2 -45 25 0 29 26 45 73 45 57 0 67 -21 67 -143 l0 -107 40 0 40 0 0 110 c0
123 -11 160 -58 184 -44 23 -112 28 -157 11z"/>
<path d="M3703 1739 c-29 -8 -33 -14 -33 -43 l0 -33 39 10 c32 9 44 8 65 -6
25 -17 26 -20 26 -127 l0 -110 40 0 40 0 0 111 c0 135 -13 170 -71 193 -44 18
-59 18 -106 5z"/>
<path d="M4018 1738 c-41 -11 -88 -58 -88 -88 0 -51 36 -76 124 -86 31 -4 64
-13 73 -20 17 -13 17 -15 -6 -34 -32 -28 -77 -26 -105 5 -17 18 -34 25 -60 25
-40 0 -43 -7 -20 -51 20 -39 68 -59 139 -59 90 0 145 41 145 107 0 46 -28 69
-97 82 -104 21 -104 21 -101 39 4 23 72 28 103 8 26 -17 95 -22 95 -7 0 25
-53 69 -94 80 -51 13 -57 13 -108 -1z"/>
<path d="M2720 1611 l0 -129 31 -26 c35 -30 112 -36 145 -11 25 19 34 19 34 0
0 -11 11 -15 40 -15 l40 0 0 155 0 155 -40 0 -40 0 0 -105 c0 -120 -12 -145
-73 -145 -52 0 -57 12 -57 137 l0 113 -40 0 -40 0 0 -129z"/>
<path d="M2740 1375 c0 -12 -18 -15 -100 -15 l-100 0 0 -30 0 -30 140 0 140 0
0 45 0 45 -40 0 c-29 0 -40 -4 -40 -15z"/>
<path d="M3590 1330 l0 -30 140 0 140 0 0 30 0 30 -140 0 -140 0 0 -30z"/>
<path d="M4570 1330 l0 -30 140 0 140 0 0 30 0 30 -140 0 -140 0 0 -30z"/>
<path d="M2607 1256 c-75 -28 -78 -34 -75 -175 l3 -126 40 0 40 0 5 120 5 120
46 3 c29 2 50 -2 57 -11 6 -7 13 -60 14 -123 l3 -109 40 0 40 0 3 110 c2 119
-5 145 -49 177 -34 25 -123 33 -172 14z"/>
<path d="M2953 1263 c-61 -12 -96 -95 -53 -126 19 -14 19 -14 -5 -37 -67 -63
11 -150 135 -150 57 0 96 13 128 42 20 20 22 30 22 145 l0 123 -45 0 -45 0 0
-120 0 -119 -34 -7 c-43 -8 -90 7 -94 30 -6 28 18 46 59 46 37 0 39 1 39 33 0
31 -2 32 -40 32 -41 0 -67 16 -56 34 4 6 27 11 52 11 42 0 44 1 44 29 0 37
-34 48 -107 34z"/>
<path d="M3293 1251 c-46 -22 -63 -45 -63 -90 0 -38 26 -56 100 -71 30 -6 65
-13 78 -16 14 -3 22 -12 22 -24 0 -43 -98 -50 -123 -9 -17 27 -87 27 -87 0 0
-29 37 -68 76 -81 50 -17 139 -8 172 17 92 69 55 154 -76 171 -69 10 -97 26
-72 42 23 15 87 12 104 -5 16 -16 96 -21 96 -6 0 22 -54 71 -88 81 -54 15 -92
12 -139 -9z"/>
<path d="M3645 1247 c-101 -57 -115 -220 -23 -277 25 -16 45 -20 81 -17 61 5
84 24 63 52 -11 15 -26 20 -58 20 -37 0 -44 4 -56 28 -17 34 -9 86 17 118 17
21 18 21 44 4 26 -16 29 -16 46 -1 35 32 40 21 43 -101 l3 -118 40 0 40 0 0
123 0 124 -33 29 c-34 31 -79 38 -100 17 -10 -10 -18 -9 -40 4 -26 16 -30 16
-67 -5z"/>
<path d="M4310 1261 c-20 -5 -26 -14 -28 -44 -3 -36 -3 -37 23 -27 14 6 36 10
48 10 46 0 52 -13 57 -132 l5 -113 38 -3 37 -3 0 123 c0 138 -8 160 -66 184
-35 15 -73 16 -114 5z"/>
<path d="M4620 1248 c-59 -30 -72 -68 -68 -197 l3 -96 43 -3 42 -3 0 60 0 61
45 0 c45 0 45 0 45 35 0 35 0 35 -45 35 -37 0 -45 3 -45 18 0 10 5 23 12 30
16 16 93 15 106 -1 6 -7 13 -62 14 -123 l3 -109 40 0 40 0 3 107 c3 129 -8
160 -71 189 -56 25 -113 24 -167 -3z"/>
<path d="M2390 1105 l0 -155 40 0 40 0 0 155 0 155 -40 0 -40 0 0 -155z"/>
<path d="M3950 1134 c0 -125 0 -126 29 -155 24 -23 38 -29 73 -29 24 1 54 7
68 15 32 18 40 18 40 0 0 -11 11 -15 40 -15 l40 0 0 155 0 155 -40 0 -40 0 0
-102 c0 -57 -4 -108 -8 -114 -10 -16 -48 -34 -71 -34 -42 0 -51 24 -51 141 l0
109 -40 0 -40 0 0 -126z"/>
<path d="M4920 1134 c0 -125 0 -126 29 -155 24 -23 38 -29 73 -29 24 0 56 7
72 15 35 18 36 18 36 0 0 -11 11 -15 40 -15 l40 0 0 155 0 155 -40 0 -40 0 0
-105 c0 -94 -2 -106 -22 -125 -26 -24 -70 -26 -92 -4 -13 12 -16 39 -16 125
l0 109 -40 0 -40 0 0 -126z"/>
</g>
</svg>
