<?xml version="1.0" standalone="no"?>
<!DOCTYPE svg PUBLIC "-//W3C//DTD SVG 20010904//EN"
 "http://www.w3.org/TR/2001/REC-SVG-20010904/DTD/svg10.dtd">
<svg version="1.0" xmlns="http://www.w3.org/2000/svg"
 width="202.000000pt" height="200.000000pt" viewBox="0 0 202.000000 200.000000"
 preserveAspectRatio="xMidYMid meet">
<metadata>
Created by potrace 1.16, written by Peter Selinger 2001-2019
</metadata>
<g transform="translate(0.000000,200.000000) scale(0.100000,-0.100000)"
fill="#ffffff" stroke="none">
<path d="M270 1901 c-74 -23 -127 -71 -161 -146 -17 -38 -19 -85 -19 -770 0
-713 1 -731 21 -775 25 -56 44 -77 94 -104 40 -21 45 -21 769 -24 806 -3 800
-3 872 60 19 17 45 50 57 72 22 41 22 42 25 749 2 461 -1 707 -7 707 -6 0 -52
-18 -103 -41 -51 -22 -99 -43 -105 -46 -10 -4 -13 13 -13 65 l0 70 90 22 c147
34 140 29 140 105 0 77 4 75 -122 45 -103 -25 -108 -25 -108 0 0 20 -6 20
-702 19 -387 0 -714 -4 -728 -8z m980 -129 c0 -5 -35 -16 -77 -26 -122 -29
-306 -92 -408 -140 -313 -148 -469 -354 -482 -636 -8 -176 33 -313 130 -432
26 -32 47 -60 47 -62 0 -13 -133 -246 -140 -246 -5 0 -20 5 -33 11 -54 24 -52
2 -55 722 -2 448 1 681 8 707 6 22 21 52 34 67 l24 28 474 5 c260 3 474 6 476
8 1 1 2 -2 2 -6z m528 -906 l-3 -584 -24 -26 -24 -26 -619 0 -618 0 46 78 c25
42 47 78 48 79 2 2 27 -10 57 -26 30 -16 90 -42 134 -58 76 -26 89 -28 250
-27 157 0 175 2 242 26 101 36 158 72 228 142 72 73 117 161 150 291 36 143
45 223 52 463 l6 223 26 14 c54 30 52 60 49 -569z"/>
</g>
</svg>
