<?xml version="1.0" standalone="no"?>
<!DOCTYPE svg PUBLIC "-//W3C//DTD SVG 20010904//EN"
 "http://www.w3.org/TR/2001/REC-SVG-20010904/DTD/svg10.dtd">
<svg version="1.0" xmlns="http://www.w3.org/2000/svg"
 width="217.000000pt" height="216.000000pt" viewBox="0 0 217.000000 216.000000"
 preserveAspectRatio="xMidYMid meet">
<metadata>
Created by potrace 1.16, written by Peter Selinger 2001-2019
</metadata>
<g transform="translate(0.000000,216.000000) scale(0.100000,-0.100000)"
fill="#ffffff" stroke="none">
<path d="M820 1513 c-8 -3 -25 -15 -37 -26 -23 -20 -23 -23 -23 -288 l0 -268
26 -20 c25 -20 39 -21 280 -21 164 0 262 4 277 11 43 19 47 46 47 296 0 231 0
235 -20 229 -11 -3 -29 -9 -40 -12 -16 -5 -20 -2 -20 14 0 16 10 24 40 32 33
9 40 15 40 36 0 21 -4 24 -20 20 -11 -3 -29 -9 -40 -12 -11 -3 -20 -1 -20 5 0
11 -460 15 -490 4z m233 -77 c-136 -48 -200 -105 -224 -199 -14 -59 0 -141 33
-182 l21 -27 -21 -44 c-15 -31 -26 -42 -37 -38 -13 5 -15 41 -15 253 0 179 3
250 12 259 8 8 59 12 168 11 l155 0 -92 -33z m287 -274 c0 -141 -3 -201 -12
-210 -13 -13 -428 -18 -428 -4 0 4 7 15 15 26 13 18 15 18 62 0 105 -41 228
-12 280 65 32 48 43 92 49 201 6 106 9 120 24 120 6 0 10 -69 10 -198z"/>
</g>
</svg>
