<?xml version="1.0" standalone="no"?>
<!DOCTYPE svg PUBLIC "-//W3C//DTD SVG 20010904//EN"
 "http://www.w3.org/TR/2001/REC-SVG-20010904/DTD/svg10.dtd">
<svg version="1.0" xmlns="http://www.w3.org/2000/svg"
 width="1334.000000pt" height="1334.000000pt" viewBox="0 0 1334.000000 1334.000000"
 preserveAspectRatio="xMidYMid meet">
<metadata>
Created by potrace 1.16, written by Peter Selinger 2001-2019
</metadata>
<g transform="translate(0.000000,1334.000000) scale(0.100000,-0.100000)"
fill="#ffffff" stroke="none">
<path d="M6430 11074 c-85 -8 -171 -16 -190 -18 -56 -6 -204 -37 -215 -45 -5
-4 -29 -9 -53 -10 -23 -1 -62 -10 -87 -21 -24 -10 -61 -22 -81 -26 -21 -4 -49
-13 -63 -20 -14 -8 -30 -14 -36 -14 -15 0 -151 -54 -166 -66 -8 -6 -30 -17
-49 -24 -37 -14 -258 -129 -275 -142 -5 -5 -39 -27 -75 -51 -36 -23 -66 -45
-68 -49 -2 -5 -9 -8 -17 -8 -7 0 -18 -7 -25 -15 -7 -9 -43 -37 -80 -63 -41
-29 -65 -52 -62 -61 3 -8 0 -11 -5 -8 -5 3 -38 -19 -74 -50 -77 -67 -273 -264
-311 -313 -15 -19 -48 -61 -73 -94 -25 -32 -45 -62 -45 -67 0 -4 -11 -20 -25
-35 -14 -15 -31 -38 -38 -50 -28 -52 -81 -139 -87 -144 -4 -3 -24 -39 -44 -80
-21 -41 -53 -104 -71 -140 -47 -92 -78 -189 -71 -222 3 -15 1 -28 -4 -28 -6 0
-10 6 -10 13 0 24 -26 -39 -44 -108 -11 -38 -23 -78 -28 -88 -5 -10 -13 -41
-18 -70 -5 -29 -17 -88 -25 -132 -17 -83 -28 -158 -45 -285 -10 -81 -6 -542 5
-561 4 -6 11 -36 16 -67 4 -32 15 -93 23 -137 8 -44 20 -107 26 -140 6 -32 15
-64 19 -70 5 -5 16 -44 26 -85 10 -41 21 -77 24 -80 4 -3 19 -43 35 -90 15
-47 36 -103 46 -125 10 -22 20 -48 23 -57 4 -10 11 -18 17 -18 5 0 10 -10 10
-22 0 -13 16 -49 35 -81 19 -32 35 -64 35 -71 0 -7 11 -23 25 -36 14 -13 25
-28 25 -33 0 -5 18 -36 40 -69 22 -33 40 -65 40 -70 0 -20 25 0 35 28 5 16 16
35 22 42 7 7 13 19 13 26 0 8 7 20 17 27 9 8 22 28 29 44 7 17 42 68 78 115
35 47 60 87 55 90 -4 3 5 11 22 19 16 7 36 25 43 40 21 41 270 301 288 301 5
0 8 7 8 15 0 8 4 14 8 12 5 -1 41 24 80 56 40 31 77 57 82 57 6 0 10 4 10 9 0
5 17 20 38 32 20 13 39 27 40 31 2 4 12 8 23 8 10 0 19 4 19 10 0 5 16 16 35
25 19 9 39 23 46 31 6 8 20 14 29 14 10 0 20 3 22 8 2 4 18 15 36 25 17 9 44
24 60 32 44 24 203 95 213 95 5 0 17 4 27 9 42 21 94 41 107 41 8 0 15 4 15 9
0 5 21 12 48 16 26 4 61 12 77 19 35 15 101 30 201 46 169 27 315 176 411 420
28 74 50 139 58 173 4 22 11 28 28 25 18 -2 25 -15 39 -68 9 -36 22 -73 28
-82 5 -10 10 -23 10 -30 0 -7 11 -33 24 -58 14 -25 34 -64 45 -88 13 -28 25
-41 32 -36 8 5 10 2 7 -7 -3 -9 3 -26 13 -40 10 -13 19 -30 19 -36 0 -7 4 -13
9 -13 6 0 24 -20 42 -45 18 -25 37 -45 42 -45 5 0 22 -11 39 -25 20 -17 42
-25 68 -25 51 0 220 -34 290 -58 30 -10 72 -22 93 -26 21 -4 75 -23 120 -42
45 -18 86 -34 91 -34 5 0 39 -14 75 -31 36 -18 84 -40 106 -50 72 -33 159 -83
219 -126 33 -24 63 -43 68 -43 5 0 28 -15 51 -34 23 -18 52 -37 65 -41 13 -4
21 -9 19 -11 -6 -6 48 -60 68 -67 8 -4 15 -11 15 -17 0 -5 7 -10 15 -10 9 0
12 6 9 15 -5 11 -2 13 10 9 10 -4 14 -14 11 -28 -4 -16 6 -32 47 -68 90 -79
183 -172 202 -200 12 -18 27 -28 43 -28 22 0 24 -3 19 -24 -3 -14 -1 -30 6
-38 23 -24 74 -92 104 -137 16 -24 36 -54 44 -66 8 -12 32 -52 53 -88 54 -94
57 -95 92 -34 16 29 29 55 27 60 -1 4 2 7 7 7 4 0 19 21 32 48 13 26 26 49 29
52 10 9 60 112 60 123 0 6 6 18 13 26 7 9 21 36 31 61 10 25 25 59 32 75 28
63 85 231 91 267 3 21 10 41 14 44 5 3 9 20 9 38 0 17 5 37 12 44 7 7 9 12 5
12 -4 0 -3 8 2 18 5 10 12 36 16 59 3 23 8 57 11 75 3 18 10 58 15 88 33 200
32 604 -2 795 -6 33 -13 78 -15 100 -5 37 -16 89 -30 140 -3 11 -10 36 -14 55
-26 106 -34 134 -70 230 -51 137 -94 238 -109 253 -6 6 -11 17 -11 25 0 13
-107 222 -119 232 -3 3 -13 19 -21 35 -8 17 -26 46 -41 65 -14 19 -66 89 -115
155 -91 124 -390 435 -417 435 -3 0 -19 12 -35 28 -69 65 -99 89 -189 149 -52
35 -97 63 -100 63 -3 0 -21 11 -39 25 -18 14 -35 25 -37 25 -3 0 -34 17 -68
38 -58 35 -225 112 -339 157 -25 9 -54 21 -65 26 -48 20 -262 78 -350 94 -11
2 -54 11 -95 20 -83 17 -410 46 -498 44 -31 -1 -127 -8 -212 -15z m518 -35
c46 -6 86 -9 89 -5 3 3 11 2 18 -4 6 -5 60 -16 120 -25 61 -9 121 -19 135 -24
30 -10 119 -36 180 -51 79 -21 115 -39 102 -52 -15 -15 -866 -18 -898 -4 -14
7 -19 17 -16 33 2 12 1 31 -3 40 -5 14 -11 6 -21 -29 -10 -32 -20 -48 -32 -49
-9 -1 -214 -2 -455 -3 -347 -2 -440 1 -448 11 -9 10 -4 15 17 23 16 6 40 15
54 20 14 5 52 16 85 25 33 8 85 21 115 30 110 31 407 73 545 78 127 4 329 -3
413 -14z m-339 -223 c11 -13 -11 -97 -40 -151 -5 -12 -11 -29 -13 -39 -1 -10
-9 -22 -17 -27 -15 -9 -1341 -11 -1366 -2 -21 8 29 56 80 79 23 10 49 23 57
30 24 20 192 104 225 113 17 4 262 9 546 9 418 1 519 -1 528 -12z m1201 -5
c14 -8 27 -17 30 -20 3 -4 25 -15 50 -26 96 -41 267 -146 262 -161 -3 -12
-1351 -15 -1374 -3 -10 5 -17 13 -16 17 1 4 -2 14 -5 22 -3 8 -15 49 -26 90
-19 70 -19 76 -3 88 25 20 1045 13 1082 -7z m388 -233 c-2 -8 9 -14 25 -16 15
-2 27 -8 27 -13 0 -5 6 -9 14 -9 8 0 32 -16 53 -35 21 -19 42 -35 46 -35 5 0
21 -12 37 -27 16 -16 47 -46 69 -67 22 -21 38 -43 35 -47 -3 -5 -366 -9 -808
-9 -903 0 -820 -8 -845 77 -6 24 -21 48 -33 54 -13 7 -17 14 -9 18 8 5 8 15
-1 39 -8 21 -9 35 -2 42 6 6 249 10 682 10 583 1 672 3 672 15 0 8 9 15 20 15
11 0 19 -6 18 -12z m-3043 -8 c-4 -7 221 -10 669 -10 371 0 681 -3 690 -6 13
-5 11 -14 -14 -62 -17 -32 -30 -62 -30 -68 0 -22 -40 -92 -56 -98 -30 -11
-1626 -7 -1618 5 3 6 27 29 52 52 25 23 53 49 62 57 51 47 173 120 199 120 17
0 33 5 36 10 3 6 8 10 11 10 3 0 2 -4 -1 -10z m1235 -290 c0 -12 -10 -35 -22
-53 -48 -70 -58 -86 -58 -91 0 -6 -26 -39 -52 -68 -17 -17 -54 -18 -852 -18
-459 0 -841 3 -850 6 -27 11 -12 32 122 169 l63 64 811 1 c446 0 814 3 817 5
11 11 21 4 21 -15z m2185 -4 c11 -8 57 -51 103 -96 76 -77 96 -110 73 -125
-18 -10 -1696 -6 -1699 5 -2 6 -10 10 -18 10 -8 0 -14 5 -14 11 0 6 -17 37
-38 68 -45 66 -67 116 -57 130 4 8 257 11 818 11 678 0 816 -2 832 -14z
m-2371 -268 c2 -10 0 -18 -5 -18 -5 0 -9 -6 -9 -14 0 -8 -7 -16 -15 -20 -8 -3
-15 -12 -15 -21 0 -8 -4 -15 -10 -15 -5 0 -20 -10 -33 -22 -54 -53 -95 -84
-132 -103 -39 -20 -59 -20 -837 -20 -538 0 -800 3 -807 10 -8 8 1 28 29 65 22
30 50 70 62 88 51 74 60 81 124 84 32 2 415 3 851 3 746 0 792 -1 797 -17z
m2646 -36 c25 -27 50 -56 55 -65 6 -9 22 -33 37 -54 14 -21 28 -47 30 -58 3
-20 -3 -20 -770 -20 -816 -1 -815 -1 -881 44 -14 10 -44 30 -66 44 -22 15 -52
37 -66 49 -15 13 -41 35 -59 50 -27 23 -31 30 -21 42 17 21 51 21 936 19 l760
-2 45 -49z m-3015 -243 c9 -9 -39 -58 -59 -59 -5 0 -17 -6 -25 -14 -9 -8 -29
-21 -44 -29 -16 -8 -45 -28 -64 -44 -19 -15 -49 -39 -66 -53 l-31 -25 -660 -2
c-364 -1 -671 0 -683 3 -23 4 -31 32 -14 50 9 9 37 58 73 126 11 20 25 41 32
47 17 14 173 17 901 13 376 -2 634 -8 640 -13z m3166 11 c9 0 22 -12 29 -27 8
-16 19 -35 25 -43 7 -8 30 -50 53 -92 l41 -77 -661 0 c-629 0 -664 1 -705 19
-24 10 -43 23 -43 28 0 5 -21 24 -47 42 -27 19 -59 45 -73 57 -14 13 -30 23
-37 23 -7 0 -13 4 -13 9 0 5 -9 13 -21 16 -32 11 -19 39 21 45 25 4 1194 4
1431 0z m198 -355 c19 -44 35 -95 35 -113 l1 -34 -565 -2 c-311 -2 -584 -1
-608 2 -35 4 -46 10 -58 33 -8 16 -28 42 -44 59 -17 17 -30 33 -30 37 0 3 -16
21 -36 40 -69 64 -85 63 605 65 339 2 627 0 641 -3 20 -4 32 -21 59 -84z
m-3719 68 c0 -10 -14 -34 -31 -53 -17 -19 -42 -51 -57 -70 -45 -60 -76 -89
-94 -90 -10 0 -18 -4 -18 -9 0 -6 -12 -6 -31 -1 -18 5 -290 8 -610 7 -429 -2
-580 1 -583 9 -3 7 1 20 8 30 7 11 18 35 26 54 28 73 53 125 64 132 6 4 307 8
669 8 619 0 657 -1 657 -17z m-215 -297 c-14 -17 -41 -64 -60 -104 -25 -51
-43 -75 -61 -82 -31 -12 -1133 -13 -1152 -1 -14 8 -11 59 6 101 5 14 10 28 11
32 4 20 14 45 26 68 l14 25 593 5 c326 3 606 1 621 -4 l28 -8 -26 -32z m3996
44 c10 -6 19 -21 19 -33 0 -13 4 -27 9 -32 14 -15 53 -156 46 -163 -4 -4 -257
-8 -563 -10 -582 -3 -594 -2 -608 40 -3 10 -8 16 -12 14 -4 -2 -8 7 -8 21 -1
13 -16 47 -33 74 -60 97 -111 88 547 92 317 1 578 3 580 5 2 1 12 -3 23 -8z
m-4124 -298 c-3 -15 -14 -51 -25 -80 -11 -29 -21 -56 -21 -60 -1 -4 -6 -22
-12 -40 l-11 -33 -506 1 c-279 1 -514 -1 -523 -5 -22 -8 -55 64 -71 156 -11
62 -10 72 3 83 12 8 171 10 594 8 l577 -2 -5 -28z m4217 18 c22 -22 3 -162
-30 -208 l-16 -23 -508 1 -508 1 -16 34 c-9 18 -16 40 -16 49 0 8 -8 30 -19
49 -10 18 -22 48 -26 65 -5 27 -3 33 14 40 30 11 1113 4 1125 -8z m-4296 -265
c3 -3 -3 -54 -14 -113 l-19 -107 -410 -5 c-225 -3 -419 -2 -431 2 -22 7 -77
78 -121 157 -21 37 -25 52 -16 62 9 12 97 14 509 12 273 -2 500 -5 502 -8z
m4225 5 c17 0 25 -35 10 -42 -5 -1 -17 -21 -28 -43 -10 -22 -32 -56 -47 -76
-15 -20 -25 -39 -23 -43 3 -3 2 -4 -2 -1 -3 3 -14 -2 -23 -10 -15 -13 -73 -15
-431 -13 l-414 3 -7 68 c-3 38 -11 82 -17 99 -15 42 -14 48 8 56 15 5 775 7
974 2z m-4263 -280 c9 -15 4 -215 -6 -232 -3 -4 -95 -8 -206 -8 l-200 0 -92
45 c-119 60 -179 95 -208 123 -14 12 -29 22 -35 22 -10 0 -25 24 -27 45 -1 6
7 12 18 15 11 3 183 5 383 5 312 0 365 -2 373 -15z m4048 10 c15 0 22 -6 22
-20 0 -11 -4 -20 -9 -20 -5 0 -23 -13 -40 -29 -17 -16 -60 -44 -96 -62 -36
-18 -65 -36 -65 -41 0 -4 -7 -8 -16 -8 -9 0 -47 -15 -84 -34 l-67 -34 -194 -4
-194 -3 2 120 c2 66 3 123 3 127 0 12 31 13 374 10 188 -1 351 -2 364 -2z
m-4050 -284 c7 -4 12 -22 12 -39 0 -18 6 -55 13 -82 26 -104 -10 -113 -100
-27 -19 17 -41 32 -48 32 -7 0 -18 7 -26 16 -8 10 -21 13 -38 9 -17 -4 -21 -2
-13 3 10 7 5 14 -20 29 -18 10 -41 22 -50 26 -33 12 -21 36 20 39 68 6 238 2
250 -6z m3580 0 c11 -12 -10 -35 -47 -52 -23 -10 -41 -21 -41 -26 0 -4 -5 -8
-11 -8 -7 0 -34 -16 -60 -35 -27 -19 -52 -35 -55 -35 -4 0 -18 -12 -31 -26
-19 -21 -26 -24 -38 -14 -17 14 -21 90 -6 106 5 5 11 27 13 49 l3 40 85 6 c86
6 179 4 188 -5z"/>
<path d="M6450 7865 c-63 -7 -137 -16 -165 -19 -27 -3 -97 -17 -155 -32 -58
-14 -112 -27 -120 -29 -30 -4 -75 -18 -85 -25 -5 -4 -25 -10 -44 -14 -19 -3
-67 -22 -107 -41 -40 -19 -77 -35 -84 -35 -6 0 -32 -11 -58 -25 -121 -66 -167
-95 -170 -107 -1 -8 11 -33 28 -56 16 -23 30 -44 30 -47 0 -3 9 -16 21 -28 11
-12 35 -39 52 -61 58 -71 226 -226 245 -226 5 0 16 -8 26 -19 9 -10 38 -29 64
-42 26 -13 61 -33 77 -45 17 -13 44 -26 60 -29 17 -4 52 -18 79 -31 28 -13 58
-24 67 -24 10 0 20 -4 23 -9 3 -5 20 -11 38 -14 18 -3 51 -10 73 -15 151 -38
434 -50 565 -24 123 25 290 74 290 84 0 5 8 8 18 8 24 0 152 67 232 121 109
74 142 101 218 179 64 66 87 91 139 153 6 8 30 41 53 73 38 54 40 60 24 71
-10 7 -26 13 -36 13 -10 0 -18 3 -18 8 0 4 -8 12 -19 17 -10 6 -43 23 -72 39
-30 17 -61 31 -70 33 -9 1 -39 14 -67 28 -27 14 -65 28 -84 31 -18 4 -37 10
-43 14 -37 27 -287 88 -475 116 -141 21 -413 25 -550 9z"/>
<path d="M5208 7382 c-7 -9 -25 -25 -39 -34 -56 -36 -260 -250 -337 -353 -28
-39 -58 -77 -65 -85 -16 -18 -41 -54 -92 -135 -21 -33 -51 -79 -67 -103 -15
-24 -26 -47 -23 -52 3 -5 -1 -12 -9 -17 -15 -9 -56 -81 -56 -100 0 -6 59 -72
130 -145 107 -109 132 -130 141 -118 8 12 9 11 5 -5 -4 -16 19 -39 114 -115
65 -52 121 -93 124 -90 3 3 11 -2 18 -11 18 -22 125 -99 138 -99 5 0 10 -4 10
-10 0 -5 6 -10 14 -10 8 0 16 -4 18 -9 6 -15 371 -190 430 -205 31 -8 67 -21
80 -29 13 -8 48 -20 78 -27 30 -6 64 -15 75 -20 25 -11 176 -46 235 -55 25 -3
59 -10 75 -15 27 -8 73 -13 247 -25 29 -2 85 -6 123 -10 75 -7 467 19 507 34
13 4 52 11 88 15 57 6 113 20 340 82 30 8 78 25 105 39 28 13 71 30 98 37 26
6 47 16 47 20 0 4 4 8 10 8 21 0 149 63 144 71 -3 5 2 6 10 3 9 -3 16 -1 16 5
0 6 7 11 15 11 17 0 84 34 125 63 63 44 163 107 171 107 5 0 9 4 9 9 0 5 8 12
18 15 9 4 33 20 52 36 19 17 57 50 84 73 26 23 64 57 83 75 19 17 39 32 44 32
5 0 9 7 9 15 0 8 4 14 9 12 10 -2 194 181 235 235 l28 37 -31 53 c-17 29 -38
70 -47 91 -9 20 -20 37 -25 37 -5 0 -9 5 -9 12 0 12 -127 207 -146 223 -6 6
-15 17 -20 27 -9 16 -195 220 -222 242 -7 6 -27 25 -44 43 -16 17 -49 44 -71
60 -23 15 -44 30 -47 33 -3 3 -15 13 -27 24 -22 18 -22 18 -35 -10 -7 -16 -23
-40 -34 -53 -12 -13 -28 -35 -35 -49 -42 -77 -315 -340 -407 -392 -15 -8 -29
-17 -32 -21 -24 -26 -216 -120 -310 -152 -243 -81 -370 -102 -610 -102 -112 0
-212 5 -255 13 -172 33 -217 43 -233 51 -19 9 -78 30 -102 36 -53 12 -220 95
-304 151 -32 21 -68 44 -80 51 -72 41 -271 227 -330 308 -16 22 -37 47 -45 56
-33 35 -51 60 -65 94 -17 39 -29 43 -48 17z"/>
<path d="M1960 7222 c0 -5 11 -19 24 -31 13 -13 38 -51 56 -87 17 -35 35 -66
40 -69 12 -8 59 -160 71 -235 22 -138 6 -357 -29 -379 -14 -9 -52 -3 -146 23
-156 43 -476 64 -641 41 -153 -20 -162 -22 -255 -57 -56 -21 -96 -47 -120 -79
l-25 -33 25 8 c112 33 206 35 282 6 29 -11 58 -20 64 -20 33 0 231 -132 318
-213 16 -15 36 -27 45 -28 9 0 11 -3 4 -5 -6 -3 9 -23 35 -47 26 -23 64 -61
86 -84 21 -24 43 -40 49 -36 5 3 7 1 3 -5 -3 -6 8 -25 24 -44 17 -18 41 -46
53 -62 12 -17 39 -48 60 -69 20 -22 37 -44 37 -50 0 -6 7 -17 16 -26 39 -40
104 -117 104 -123 0 -4 22 -38 50 -75 27 -37 53 -73 57 -79 14 -18 32 -48 49
-79 9 -16 30 -46 45 -66 16 -20 29 -41 29 -46 0 -6 9 -18 20 -28 11 -10 20
-23 20 -30 0 -7 9 -20 20 -30 11 -10 20 -23 20 -30 0 -6 9 -20 19 -32 11 -11
29 -43 41 -71 12 -28 28 -53 36 -56 8 -3 14 -12 14 -21 0 -19 147 -165 166
-165 8 0 14 -3 14 -8 0 -9 41 -27 92 -40 38 -10 60 -7 139 25 52 21 121 98
169 190 53 99 64 108 101 86 16 -10 29 -20 29 -24 0 -4 15 -17 33 -28 18 -11
46 -31 62 -45 34 -30 50 -32 71 -12 19 20 18 33 -4 40 -10 4 -27 15 -39 25
-11 10 -39 31 -64 46 -24 15 -51 34 -59 41 -34 32 -104 86 -124 96 -12 6 -30
21 -42 33 -11 12 -34 31 -50 41 -43 27 -194 156 -194 166 0 4 -5 8 -11 8 -6 0
-16 6 -24 13 -7 6 -31 28 -53 47 -88 77 -292 277 -292 287 0 13 11 34 73 138
67 112 71 119 77 125 3 3 24 33 48 68 32 46 41 69 37 85 -5 16 -4 18 3 8 10
-14 32 -7 32 10 0 6 11 20 25 33 14 13 25 26 25 30 0 6 40 44 144 140 16 14
33 26 39 26 5 0 7 6 4 14 -4 10 0 12 14 9 10 -3 19 0 19 6 0 6 9 11 20 11 11
0 20 4 20 9 0 12 97 36 130 32 14 -1 37 -17 53 -37 16 -19 33 -31 38 -28 5 3
8 1 7 -5 -3 -10 180 -193 208 -209 11 -6 119 -100 166 -144 10 -10 22 -18 28
-18 5 0 13 -6 17 -13 4 -8 22 -22 38 -33 17 -10 34 -24 38 -31 4 -7 15 -13 22
-13 8 0 15 -4 15 -9 0 -14 101 -73 127 -75 24 -1 33 -16 11 -16 -17 0 43 -49
60 -50 6 0 12 -3 12 -7 0 -8 11 -16 140 -99 67 -43 114 -70 187 -108 13 -6 23
-14 23 -18 0 -5 8 -8 19 -8 10 0 24 -6 30 -14 7 -8 35 -25 64 -39 29 -14 70
-37 91 -51 21 -14 45 -26 52 -26 7 0 37 -14 65 -31 37 -22 60 -29 78 -24 19 4
22 3 11 -4 -12 -8 -11 -11 5 -17 11 -4 45 -18 75 -31 68 -31 81 -37 150 -63
30 -12 64 -26 75 -31 23 -10 142 -51 233 -80 35 -11 81 -21 102 -22 22 -1 40
-6 40 -12 0 -20 357 -102 545 -125 44 -5 98 -12 120 -15 158 -21 237 -25 531
-25 316 0 439 6 619 31 114 15 230 39 232 47 2 4 22 6 45 6 24 -1 66 5 93 13
28 8 86 23 130 33 44 10 98 24 120 33 22 8 76 25 120 37 44 12 89 28 100 35
11 7 36 16 55 20 19 4 40 11 45 15 6 4 28 13 50 20 22 7 69 26 105 42 36 16
90 40 120 52 90 39 104 45 120 56 8 6 44 24 80 40 36 17 106 53 155 80 50 27
97 53 105 56 8 4 36 22 63 41 26 18 51 33 55 33 5 0 53 29 107 65 53 36 101
65 106 65 5 0 9 5 9 10 0 6 6 10 13 10 6 0 26 11 42 25 17 13 91 69 165 124
149 110 174 130 230 181 22 19 65 58 96 85 32 28 110 100 173 161 64 61 123
113 131 116 43 14 182 -50 260 -121 30 -28 58 -50 61 -51 4 0 25 -24 47 -52
21 -29 51 -66 66 -81 29 -31 196 -273 196 -284 0 -3 6 -14 14 -22 7 -9 28 -43
45 -76 l31 -60 -93 -92 c-50 -51 -95 -93 -99 -93 -4 0 -38 -30 -76 -68 -38
-37 -96 -91 -130 -121 -46 -40 -59 -57 -50 -64 9 -6 6 -7 -8 -4 -19 4 -48 -16
-224 -156 -8 -7 -35 -28 -60 -47 -25 -19 -47 -37 -50 -40 -5 -5 -17 -13 -82
-52 -21 -13 -43 -33 -49 -46 -7 -12 -17 -21 -23 -19 -6 2 -27 -9 -47 -24 -20
-16 -40 -29 -43 -29 -15 0 -76 -46 -76 -57 0 -7 -9 -13 -20 -13 -11 0 -51 -20
-89 -45 -38 -25 -73 -45 -78 -45 -4 0 -20 -11 -35 -25 -15 -14 -33 -25 -39
-25 -7 0 -20 -6 -28 -14 -15 -12 -97 -57 -341 -183 -52 -27 -104 -54 -115 -60
-11 -6 -44 -21 -72 -34 -29 -12 -53 -26 -53 -31 0 -4 -9 -8 -21 -8 -11 0 -54
-15 -94 -34 -39 -19 -84 -38 -99 -42 -15 -3 -50 -17 -78 -31 -27 -13 -64 -27
-81 -30 -18 -3 -52 -15 -77 -26 -25 -10 -81 -30 -125 -43 -44 -14 -88 -29 -97
-34 -10 -6 -34 -14 -55 -19 -21 -6 -74 -20 -118 -31 -44 -12 -90 -24 -102 -27
-13 -3 -21 -8 -19 -12 2 -3 -15 -7 -37 -9 -46 -3 -224 -39 -240 -49 -5 -3 -37
-9 -71 -14 -33 -4 -99 -12 -146 -18 -47 -6 -107 -15 -135 -21 -154 -29 -744
-41 -1010 -20 -195 16 -463 51 -600 80 -54 12 -65 14 -165 33 -36 7 -69 15
-75 18 -5 3 -41 14 -80 23 -38 10 -90 23 -115 31 -25 8 -61 17 -80 21 -19 3
-40 10 -46 15 -6 5 -53 22 -105 38 -52 16 -146 48 -209 71 -63 23 -133 47
-155 53 -22 7 -46 17 -53 24 -6 6 -22 15 -35 19 -29 9 -127 54 -261 120 -59
30 -114 54 -122 54 -7 0 -17 6 -21 13 -12 18 -60 40 -72 33 -6 -4 -11 -3 -11
2 0 5 -20 19 -45 32 -25 13 -50 29 -56 37 -6 7 -17 13 -23 13 -6 0 -31 14 -56
30 -25 16 -51 30 -58 30 -8 0 -26 9 -40 20 -15 12 -61 42 -102 69 -41 26 -107
69 -146 95 -79 51 -98 55 -113 27 -8 -14 -6 -22 8 -35 9 -9 23 -16 30 -16 6 0
42 -22 78 -50 36 -27 72 -50 78 -50 7 0 18 -7 25 -15 7 -8 16 -12 21 -9 5 3 9
0 9 -6 0 -5 17 -18 38 -27 20 -10 46 -25 58 -35 11 -10 47 -31 80 -48 32 -17
73 -38 89 -48 17 -10 55 -31 85 -46 30 -16 62 -32 70 -37 8 -5 44 -23 80 -40
36 -17 82 -39 102 -49 111 -57 223 -110 231 -110 4 0 29 -9 54 -21 25 -11 53
-22 62 -24 9 -2 41 -14 71 -27 30 -14 93 -37 140 -52 47 -15 94 -31 105 -36
11 -5 36 -13 55 -19 19 -6 64 -20 100 -31 36 -12 101 -31 145 -42 44 -11 100
-27 125 -35 25 -8 77 -20 115 -25 39 -6 72 -14 75 -18 8 -12 242 -54 390 -70
47 -5 105 -12 130 -15 164 -20 248 -26 430 -31 113 -3 214 -6 225 -7 11 -1 92
2 180 7 88 5 172 9 187 10 15 1 30 5 34 9 4 4 40 7 80 7 40 0 75 4 78 8 3 5
45 12 93 16 48 4 97 8 108 10 80 11 179 30 230 43 33 8 80 19 105 24 25 5 61
13 80 18 19 5 70 18 112 30 97 25 207 58 233 70 11 5 39 14 62 20 31 8 41 16
37 26 -7 17 7 20 22 5 10 -10 27 -6 139 36 33 12 72 26 88 29 15 4 27 10 27
14 0 4 21 13 48 20 51 15 88 31 232 98 52 25 112 52 133 60 20 8 37 19 37 24
0 5 6 9 13 9 31 0 476 240 485 262 2 4 9 8 15 8 7 0 37 17 69 38 31 20 78 51
104 67 62 39 73 46 195 130 144 99 153 105 166 105 7 0 26 -29 43 -65 17 -36
35 -65 41 -65 5 0 9 -8 9 -19 0 -14 6 -17 28 -15 15 2 21 1 15 -2 -7 -3 -13
-12 -13 -19 0 -16 68 -78 108 -99 36 -19 149 -31 165 -18 7 5 28 15 49 21 37
12 198 162 198 184 0 7 12 23 25 36 14 12 23 27 20 31 -3 5 1 14 8 22 26 28
47 68 41 81 -4 10 1 15 13 14 13 -2 18 5 17 21 0 12 3 22 8 22 12 0 78 106 78
125 0 8 5 15 11 15 16 0 32 21 53 68 11 23 22 42 26 42 4 0 26 29 49 65 23 35
48 70 55 77 6 7 32 40 56 73 24 33 49 67 57 75 7 8 39 47 69 85 31 39 60 72
65 73 5 2 9 7 9 11 0 22 291 316 351 355 24 16 53 36 64 46 11 9 54 35 95 56
41 21 77 42 80 45 3 3 29 12 58 19 28 6 56 19 62 29 5 9 10 11 10 4 0 -9 16
-13 45 -13 35 0 43 3 39 15 -4 8 -1 15 5 15 6 0 11 -6 11 -14 0 -9 19 -18 52
-26 29 -6 64 -18 78 -27 21 -14 19 -9 -11 28 -39 47 -115 91 -189 109 -134 33
-500 55 -580 34 -14 -3 -54 -10 -90 -14 -36 -5 -74 -11 -85 -14 -117 -31 -208
-46 -220 -36 -18 15 -35 86 -38 157 -1 35 -5 63 -9 63 -5 0 -8 9 -8 20 0 11 5
20 11 20 6 0 9 6 6 13 -12 31 25 217 54 269 5 10 9 23 9 29 0 17 100 189 124
213 l21 21 -48 3 c-48 3 -58 0 -184 -59 -24 -11 -43 -25 -43 -30 0 -5 -5 -9
-11 -9 -25 0 -319 -256 -319 -278 0 -2 -16 -19 -35 -38 -19 -18 -35 -38 -35
-44 0 -6 -9 -14 -19 -18 -22 -8 -248 -275 -261 -309 -13 -32 -42 -29 -119 13
-49 27 -82 38 -128 42 l-61 5 -96 -94 c-101 -100 -228 -218 -279 -259 -17 -14
-61 -51 -98 -82 -38 -32 -72 -58 -76 -58 -4 0 -33 -22 -63 -50 -30 -27 -61
-49 -68 -50 -7 0 -10 -4 -7 -10 3 -5 0 -10 -7 -10 -7 0 -50 -27 -95 -59 -45
-32 -96 -67 -114 -77 -19 -11 -40 -25 -47 -32 -8 -7 -31 -21 -52 -32 -21 -11
-41 -24 -44 -29 -3 -5 -29 -21 -58 -36 -29 -15 -60 -33 -68 -40 -8 -7 -24 -15
-35 -19 -11 -3 -44 -22 -73 -41 -30 -19 -56 -35 -58 -35 -9 0 -172 -81 -199
-100 -16 -11 -36 -20 -44 -20 -7 0 -45 -16 -82 -35 -38 -19 -74 -35 -81 -35
-6 0 -31 -9 -54 -21 -41 -19 -278 -106 -319 -116 -11 -2 -29 -8 -40 -13 -11
-5 -31 -11 -45 -13 -14 -3 -50 -13 -80 -22 -30 -9 -59 -17 -65 -19 -5 -2 -17
-6 -25 -9 -32 -12 -209 -48 -277 -56 -39 -5 -78 -13 -85 -17 -7 -5 -26 -9 -43
-10 -16 -1 -111 -11 -210 -22 -152 -17 -229 -20 -500 -17 -219 2 -364 8 -460
19 -77 10 -154 18 -171 20 -17 2 -36 6 -42 10 -6 3 -32 9 -59 12 -71 8 -281
55 -413 93 -41 12 -100 29 -130 37 -30 9 -65 16 -77 16 -12 0 -24 6 -27 14 -3
8 -10 14 -17 14 -16 0 -290 107 -389 152 -47 22 -133 64 -193 94 -59 30 -112
52 -119 48 -7 -4 -8 -3 -4 5 5 7 -8 18 -37 31 -24 11 -54 28 -68 37 -13 10
-37 25 -54 33 -16 8 -43 24 -60 36 -16 11 -55 33 -85 48 -30 15 -59 33 -65 40
-21 25 -88 56 -109 51 -11 -2 -15 -2 -9 1 22 10 -3 40 -60 72 -30 17 -60 36
-68 44 -8 7 -50 40 -94 72 -44 33 -87 66 -96 75 -9 9 -31 27 -49 41 -18 14
-45 36 -59 50 -14 14 -53 48 -86 75 -33 28 -115 105 -184 173 l-124 122 -53 0
c-30 0 -54 -4 -54 -9 0 -5 -8 -7 -18 -4 -20 5 -110 -41 -128 -66 -10 -13 -14
-13 -38 2 -14 10 -26 21 -26 25 0 5 -8 17 -17 28 -10 10 -36 42 -58 69 -22 28
-54 66 -72 85 -18 19 -33 38 -33 41 0 10 -88 98 -93 92 -3 -2 -8 5 -12 17 -9
28 -227 243 -305 300 -34 25 -67 50 -74 56 -17 16 -76 46 -76 39 0 -4 -12 2
-27 12 -16 11 -41 24 -56 31 -32 14 -127 16 -127 4z m191 -76 c-9 -10 -8 -15
3 -19 23 -9 166 -117 166 -125 0 -4 12 -15 28 -24 33 -19 201 -185 257 -254
22 -26 55 -63 73 -81 17 -18 32 -35 32 -37 0 -3 15 -21 33 -40 81 -88 150
-182 145 -196 -2 -5 -41 -49 -88 -99 -95 -100 -155 -176 -170 -215 -5 -14 -14
-26 -20 -26 -5 0 -19 -19 -31 -42 -12 -24 -30 -52 -40 -63 -10 -11 -25 -36
-33 -56 -8 -19 -31 -60 -50 -89 -20 -30 -36 -60 -36 -67 0 -7 -4 -13 -9 -13
-14 0 -34 -97 -27 -133 11 -58 46 -115 105 -170 168 -155 303 -332 345 -452
12 -33 24 -64 27 -70 3 -5 7 -33 8 -61 2 -36 -3 -56 -16 -73 l-19 -23 -49 23
c-34 16 -50 19 -53 11 -2 -7 -8 -12 -14 -12 -6 0 -5 6 3 16 11 13 5 22 -37 62
-27 26 -67 74 -89 107 -22 33 -42 62 -45 65 -3 3 -16 27 -30 55 -14 27 -32 57
-40 66 -15 15 -23 28 -60 93 -21 38 -92 142 -119 176 -11 14 -21 29 -21 33 0
7 -40 64 -119 170 -19 26 -41 47 -48 47 -7 0 -13 9 -13 20 0 10 -6 23 -13 27
-8 4 -30 30 -50 56 -21 27 -37 45 -37 40 -1 -4 -6 4 -13 18 -15 33 -111 143
-192 221 -33 32 -79 76 -102 98 -23 22 -43 40 -46 40 -2 0 -26 20 -53 45 -27
25 -59 48 -71 51 -13 4 -23 10 -23 15 0 5 -12 15 -27 22 -16 6 -32 15 -38 20
-26 20 -149 76 -156 71 -5 -3 -9 6 -9 19 0 29 20 37 97 37 28 0 54 4 57 8 6
10 373 -14 413 -28 18 -6 52 -12 75 -14 24 -1 53 -7 64 -14 12 -6 23 -9 26 -7
2 3 39 -6 81 -19 43 -13 79 -21 81 -17 2 3 11 30 20 60 17 59 21 105 7 97 -4
-3 -6 7 -3 22 5 23 6 24 12 7 6 -17 9 -13 19 20 15 56 15 155 -1 155 -10 0
-10 2 -1 8 10 6 10 23 -2 78 -26 125 -55 227 -68 243 -25 30 -40 80 -28 94 8
10 7 17 -1 25 -9 9 -5 12 16 12 23 0 26 -3 17 -14z m9081 -44 c-6 -2 -12 -10
-12 -18 0 -8 -7 -25 -15 -37 -8 -13 -29 -65 -46 -117 -28 -84 -32 -112 -37
-238 -3 -86 -1 -158 6 -180 17 -61 33 -125 39 -154 6 -32 6 -32 64 -14 91 29
155 46 194 52 22 3 67 10 100 16 103 16 443 21 503 7 28 -7 52 -15 52 -19 0
-13 -48 -40 -71 -40 -15 0 -19 -4 -15 -16 3 -8 2 -13 -3 -10 -22 14 -172 -77
-251 -151 -19 -18 -39 -33 -44 -33 -11 0 -86 -80 -86 -91 0 -5 -6 -9 -12 -9
-7 0 -49 -39 -93 -86 -44 -48 -89 -96 -100 -108 -65 -67 -115 -141 -116 -170
-1 -17 -3 -23 -6 -13 -6 21 -22 22 -30 1 -3 -9 -17 -28 -31 -43 -13 -14 -36
-44 -50 -66 -13 -22 -31 -47 -38 -55 -43 -49 -72 -87 -78 -105 -3 -11 -21 -38
-41 -60 -19 -22 -37 -54 -41 -72 -3 -17 -13 -33 -22 -36 -10 -2 -28 -26 -42
-53 -14 -27 -28 -50 -32 -52 -4 -2 -28 -41 -53 -87 -25 -46 -52 -88 -60 -95
-8 -7 -15 -18 -15 -26 0 -7 -7 -17 -15 -22 -9 -4 -17 -18 -18 -29 0 -12 -5
-19 -9 -17 -4 3 -30 -18 -57 -45 -26 -28 -53 -51 -59 -51 -6 0 -17 -6 -24 -14
-8 -7 -28 -17 -45 -20 -27 -6 -32 -4 -42 21 -6 15 -11 39 -12 53 -2 39 32 152
52 179 11 13 19 32 19 42 0 11 4 19 8 19 5 0 14 12 21 28 19 43 63 104 99 138
17 17 32 34 32 38 0 3 28 32 61 64 106 98 149 144 149 158 0 8 4 14 9 14 32 0
39 183 9 217 -10 11 -18 25 -18 31 0 10 -25 55 -78 142 -9 14 -14 25 -12 25 8
0 -93 140 -106 148 -8 4 -14 15 -14 24 0 8 -12 30 -27 48 -16 18 -44 52 -63
76 -19 24 -63 73 -97 108 -67 68 -72 81 -47 102 8 7 13 20 11 30 -3 11 0 16 7
13 7 -3 28 17 46 43 19 26 47 61 62 77 16 16 49 53 75 83 27 30 74 81 106 114
31 32 57 60 57 63 0 7 142 142 195 185 28 22 62 51 76 65 15 14 30 22 33 19 3
-4 12 1 19 9 6 9 21 18 32 20 23 5 67 -13 47 -20z m-332 -1527 c0 -53 -32 -94
-172 -221 -12 -12 -28 -29 -35 -37 -7 -8 -16 -17 -20 -18 -15 -7 -101 -119
-115 -149 -7 -17 -16 -30 -19 -30 -14 0 -59 -100 -52 -116 4 -11 3 -15 -5 -10
-9 6 -24 -21 -28 -49 0 -5 -7 -23 -14 -40 -7 -16 -15 -58 -19 -93 -9 -81 -18
-89 -63 -55 -38 30 -138 162 -138 183 0 6 -8 25 -17 42 l-18 29 41 37 c23 20
67 57 98 82 62 49 175 141 218 179 15 13 25 29 21 34 -3 6 -2 7 4 4 6 -4 30
11 54 33 27 24 38 40 29 41 -8 0 -6 4 6 7 32 10 134 101 134 120 0 8 3 12 6 9
4 -3 25 9 47 28 22 19 44 32 48 29 5 -3 9 -20 9 -39z m-8316 -67 c115 -114
196 -188 205 -188 3 0 26 -20 51 -45 25 -24 48 -44 52 -45 4 0 23 -15 43 -34
20 -19 62 -54 93 -77 83 -63 112 -91 112 -109 0 -19 -42 -100 -89 -175 -30
-48 -94 -100 -110 -91 -4 3 -11 35 -14 72 -2 36 -10 71 -16 77 -6 6 -11 19
-11 30 0 10 -4 16 -9 12 -5 -3 -13 0 -17 6 -4 8 -3 9 4 5 19 -12 14 18 -12 65
-13 24 -34 64 -47 88 -13 24 -36 53 -51 64 -15 11 -25 24 -22 29 10 15 -80
117 -201 229 -68 63 -96 104 -102 150 -9 67 23 52 141 -63z"/>
<path d="M8417 5004 c-3 -3 -1 -18 4 -33 16 -42 27 -111 18 -111 -5 0 -9 4 -9
9 0 5 -7 11 -14 14 -10 4 -13 1 -9 -9 3 -8 0 -21 -6 -28 -10 -12 -6 -13 26 -9
35 5 39 3 50 -27 11 -29 10 -34 -11 -53 -13 -11 -41 -26 -64 -32 -36 -11 -43
-10 -57 4 -8 10 -15 23 -15 30 0 7 -5 9 -11 5 -6 -4 -10 1 -8 12 1 11 -1 31
-5 46 -8 26 -11 27 -66 25 -64 -2 -72 -17 -10 -17 36 0 41 -3 54 -35 9 -20 18
-51 22 -70 3 -20 10 -37 14 -40 4 -3 30 2 56 11 158 53 160 54 146 80 -32 62
-42 98 -33 107 16 16 13 34 -7 39 -10 3 -24 23 -32 47 -13 40 -20 48 -33 35z"/>
<path d="M4940 4967 c-14 -7 -26 -22 -28 -34 -4 -25 26 -72 46 -73 6 0 12 -6
12 -14 0 -23 -25 -36 -61 -30 -38 7 -53 -4 -64 -46 -5 -20 0 -31 20 -50 26
-24 26 -24 73 -7 45 17 47 17 60 0 29 -41 65 -73 81 -73 24 0 109 246 91 264
-13 13 -30 -8 -30 -41 0 -12 -4 -24 -9 -27 -5 -3 -12 -18 -15 -33 -17 -69 -39
-113 -57 -113 -11 0 -19 4 -19 9 0 4 -15 24 -34 44 -18 20 -30 39 -26 44 13
14 40 105 40 134 0 17 -8 34 -22 43 -27 19 -26 19 -58 3z"/>
<path d="M7945 4858 c-35 -12 -105 -76 -105 -95 0 -7 6 -13 14 -13 11 0 26
-40 63 -172 4 -18 15 -23 25 -13 13 13 -38 185 -59 200 -40 30 54 83 134 76
19 -2 40 -49 64 -145 23 -93 46 -118 35 -40 -3 26 -10 52 -15 58 -4 6 -9 18
-10 26 -5 55 -15 91 -31 105 -23 21 -77 27 -115 13z"/>
<path d="M5293 4830 c-13 -5 -23 -13 -23 -18 0 -19 14 -20 44 -5 49 26 114 18
148 -18 25 -26 29 -37 26 -77 -2 -32 -8 -48 -18 -49 -24 -4 -40 11 -46 42 -3
16 -10 35 -16 42 -14 17 -72 18 -62 1 5 -7 2 -9 -9 -5 -43 16 -102 -88 -78
-139 6 -15 14 -24 18 -21 3 4 0 13 -7 22 -11 13 -10 19 5 35 22 24 43 25 67 3
11 -10 18 -12 18 -4 0 7 -12 22 -27 35 -24 20 -25 26 -14 40 7 9 20 16 27 16
8 0 14 5 14 11 0 17 29 -10 46 -42 8 -16 14 -56 14 -94 0 -57 2 -65 19 -65 21
0 61 74 61 114 0 14 5 28 10 31 14 9 13 56 -2 88 -25 53 -145 85 -215 57z"/>
<path d="M7615 4775 c-27 -8 -53 -14 -57 -15 -15 0 -26 -105 -13 -118 2 -2 20
6 41 17 92 50 173 0 84 -51 -33 -19 -39 -50 -16 -80 14 -18 52 -24 73 -10 18
12 34 60 22 68 -6 3 -8 12 -5 19 3 8 0 31 -6 52 -7 21 -11 42 -9 47 1 4 -10 5
-25 2 -94 -24 -149 -24 -143 -1 8 29 43 50 91 55 28 3 53 11 56 18 5 16 -29
15 -93 -3z"/>
<path d="M5687 4760 c30 -12 42 -59 19 -75 -25 -19 -52 -7 -70 28 l-16 32 0
-27 c0 -22 9 -33 40 -53 34 -21 38 -28 31 -47 -4 -13 -11 -46 -15 -74 -6 -50
-6 -52 21 -57 15 -3 36 1 47 8 52 32 106 22 106 -21 0 -21 47 -37 71 -24 23
13 34 52 22 75 -5 9 -21 22 -34 29 -21 11 -24 18 -21 61 1 27 7 54 12 59 13
13 13 53 -1 61 -15 10 -18 4 -23 -41 -11 -94 -28 -144 -48 -144 -7 0 -31 -10
-55 -21 -42 -20 -45 -20 -63 -4 -17 15 -17 20 -6 29 7 6 16 36 20 66 3 30 8
69 11 87 3 25 0 36 -17 48 -13 8 -29 15 -38 14 -9 0 -6 -4 7 -9z"/>
<path d="M7390 4732 c0 -4 5 -13 12 -20 9 -9 9 -12 -1 -12 -7 0 -9 -5 -5 -11
4 -7 9 -39 11 -73 2 -33 5 -74 6 -90 2 -32 -7 -39 -72 -54 -58 -13 -75 0 -56
45 7 17 21 36 32 42 16 9 16 10 -7 11 -35 0 -52 14 -44 33 3 9 10 14 15 11 5
-3 9 0 9 5 0 6 -13 11 -28 11 -15 0 -33 5 -39 11 -15 15 -4 49 21 58 35 13 56
2 56 -30 0 -16 5 -29 10 -29 16 0 12 47 -6 64 -20 20 -71 21 -91 0 -34 -34 -8
-134 35 -134 21 0 25 -27 8 -52 -9 -12 -16 -36 -16 -52 l0 -29 53 8 c28 4 72
9 97 12 25 2 49 8 53 13 14 13 -25 270 -40 270 -7 0 -13 -4 -13 -8z"/>
<path d="M6114 4691 c-37 -23 -39 -26 -48 -67 -6 -24 -3 -33 10 -38 9 -3 23
-1 31 5 21 18 101 15 120 -4 17 -16 21 -86 8 -126 -5 -18 -15 -21 -56 -21 -75
0 -92 13 -84 61 6 32 4 39 -9 39 -11 0 -16 -10 -16 -32 0 -18 -3 -42 -6 -54
-5 -19 0 -21 93 -30 59 -6 100 -7 104 -1 4 5 7 31 8 59 0 27 3 53 6 58 9 15
-13 58 -36 71 -28 15 -107 13 -125 -2 -23 -19 -27 -4 -9 31 9 18 25 35 36 37
10 3 19 12 19 19 0 19 -9 18 -46 -5z"/>
<path d="M6467 4669 c-18 -10 -40 -21 -49 -25 -21 -8 -24 -37 -5 -53 9 -7 13
-31 11 -78 -3 -58 0 -71 18 -90 22 -24 48 -31 48 -13 0 6 -5 9 -11 8 -19 -5
-38 35 -28 60 13 35 57 28 73 -13 6 -15 10 -17 14 -6 6 17 -33 51 -59 51 -10
0 -19 3 -20 8 -1 4 -2 25 -3 47 -1 22 -5 45 -9 51 -3 6 4 20 16 32 17 15 33
20 70 18 73 -3 78 -13 78 -150 -1 -93 2 -116 13 -116 21 0 34 202 15 237 -28
52 -110 67 -172 32z"/>
<path d="M7001 4612 c2 -79 -10 -122 -35 -122 -7 0 -21 -9 -31 -20 -22 -25
-52 -26 -59 -2 -2 9 -8 55 -11 102 -4 47 -12 91 -17 98 -13 15 -74 16 -83 2
-4 -7 2 -9 19 -4 34 8 56 -10 56 -47 0 -25 -4 -29 -28 -29 -33 0 -52 16 -52
44 0 14 -3 17 -10 10 -21 -21 6 -61 47 -71 27 -6 39 -14 40 -28 1 -11 5 -46 8
-79 l7 -58 30 6 c16 3 41 15 55 26 34 26 49 25 85 -5 30 -25 58 -26 82 -4 15
14 -2 23 -18 10 -19 -16 -66 3 -66 27 0 10 11 24 25 30 23 11 29 9 51 -13 20
-21 25 -22 22 -8 -2 10 -21 27 -43 39 -40 20 -40 21 -43 85 -3 73 -7 89 -22
89 -7 0 -11 -27 -9 -78z"/>
</g>
</svg>
