<?xml version="1.0" standalone="no"?>
<!DOCTYPE svg PUBLIC "-//W3C//DTD SVG 20010904//EN"
 "http://www.w3.org/TR/2001/REC-SVG-20010904/DTD/svg10.dtd">
<svg version="1.0" xmlns="http://www.w3.org/2000/svg"
 width="1024.000000pt" height="410.000000pt" viewBox="0 0 1024.000000 410.000000"
 preserveAspectRatio="xMidYMid meet">
<metadata>
Created by potrace 1.16, written by Peter Selinger 2001-2019
</metadata>
<g transform="translate(0.000000,410.000000) scale(0.100000,-0.100000)"
fill="#ffffff" stroke="none">
<path d="M1788 3771 c-224 -131 -396 -335 -553 -656 -105 -214 -165 -394 -249
-735 -25 -102 -61 -230 -81 -284 -98 -271 -261 -497 -430 -596 l-50 -29 35 4
c225 27 468 5 821 -76 215 -49 429 -72 614 -66 89 3 191 13 230 22 86 19 205
74 261 120 47 39 108 117 124 159 l10 28 -39 -34 c-109 -93 -273 -140 -491
-141 -147 -1 -193 5 -395 51 -272 61 -307 65 -550 66 -200 0 -242 -2 -320 -21
-49 -11 -91 -20 -93 -18 -2 2 25 22 59 46 249 169 422 491 574 1069 116 442
201 665 326 856 55 84 156 188 234 240 68 46 45 43 -37 -5z"/>
<path d="M6871 3722 c-17 -27 -31 -54 -31 -60 0 -9 98 -12 380 -12 l380 0 0
60 0 60 -349 0 -349 0 -31 -48z"/>
<path d="M5320 3740 c-41 -12 -104 -34 -139 -50 -69 -33 -122 -38 -141 -15 -7
8 -16 15 -21 15 -5 0 -9 -63 -9 -140 l0 -140 43 0 c42 0 43 1 55 43 17 57 85
127 159 163 50 25 70 29 143 29 90 0 117 -10 172 -58 56 -49 75 -165 38 -237
-36 -70 -136 -120 -349 -175 -228 -59 -351 -210 -351 -435 0 -122 37 -214 111
-282 74 -68 141 -91 249 -86 68 2 93 8 123 26 l37 24 0 74 c0 41 -3 74 -6 74
-3 0 -20 -12 -37 -26 -27 -23 -38 -26 -88 -22 -67 5 -116 39 -145 103 -29 60
-27 225 3 281 31 58 118 134 199 173 38 19 118 58 177 87 l108 52 -3 -353 c-3
-324 -4 -355 -21 -373 -10 -11 -31 -22 -48 -26 -26 -5 -29 -9 -29 -46 l0 -40
205 0 205 0 0 40 c0 35 -3 40 -27 46 -66 16 -63 -10 -63 493 0 567 -4 591
-115 696 -69 66 -148 96 -270 101 -69 3 -107 -1 -165 -16z"/>
<path d="M7110 3497 c-36 -13 -82 -31 -104 -40 -48 -21 -70 -21 -86 -2 -7 8
-16 15 -21 15 -5 0 -9 -54 -9 -121 l0 -120 37 3 c33 3 38 7 51 45 40 121 241
192 355 126 80 -47 103 -179 41 -244 -36 -40 -124 -80 -232 -108 -175 -45
-270 -121 -310 -248 -28 -86 -28 -149 -1 -235 24 -76 78 -140 144 -173 55 -27
198 -28 238 -2 25 16 27 23 27 83 l0 65 -26 -20 c-30 -23 -88 -28 -128 -10
-62 29 -104 142 -87 236 20 106 89 171 271 253 52 24 107 52 123 62 l27 19 0
-283 c0 -312 -3 -326 -58 -343 -28 -8 -32 -14 -32 -42 l0 -33 175 0 175 0 0
34 c0 30 -4 35 -30 41 -17 4 -35 15 -40 25 -6 11 -10 167 -10 399 0 224 -4
400 -10 428 -16 71 -73 141 -145 178 -54 27 -71 30 -165 33 -90 2 -114 -1
-170 -21z"/>
<path d="M8700 3497 c-36 -13 -82 -31 -104 -40 -48 -21 -70 -21 -86 -2 -7 8
-16 15 -21 15 -5 0 -9 -54 -9 -121 l0 -120 37 3 c33 3 38 7 50 44 41 122 239
194 355 127 40 -23 78 -94 78 -146 0 -99 -70 -152 -275 -208 -212 -57 -305
-157 -322 -345 -11 -126 58 -258 162 -309 55 -27 198 -28 238 -2 25 16 27 23
27 83 l0 65 -26 -20 c-30 -23 -88 -28 -128 -10 -57 26 -104 141 -90 224 9 57
52 132 95 166 20 16 103 62 183 102 l146 73 0 -281 c0 -308 -3 -323 -58 -340
-28 -8 -32 -14 -32 -42 l0 -33 175 0 175 0 0 34 c0 30 -4 35 -30 41 -17 4 -35
15 -40 25 -6 11 -10 168 -10 403 0 425 -3 450 -63 529 -21 27 -55 54 -92 73
-54 27 -71 30 -165 33 -90 2 -114 -1 -170 -21z"/>
<path d="M9880 2135 c0 -18 5 -25 20 -25 14 0 20 -7 20 -21 0 -12 -8 -23 -20
-26 -11 -3 -20 -14 -20 -25 0 -19 6 -19 128 -16 120 3 129 5 168 31 40 27 64
62 64 92 0 11 -13 15 -48 15 -45 0 -49 -2 -60 -34 -13 -35 -60 -66 -101 -66
-19 0 -21 6 -21 50 l0 50 -65 0 c-63 0 -65 -1 -65 -25z"/>
<path d="M5078 2123 c-4 -39 -39 -53 -136 -53 -70 0 -88 -4 -122 -25 -70 -44
-79 -143 -17 -189 41 -31 124 -29 168 3 l32 24 48 -26 c32 -18 62 -27 93 -27
l46 0 0 39 c0 21 3 59 6 85 l7 46 -72 0 -71 0 0 -30 c0 -20 5 -30 15 -30 8 0
15 -9 15 -21 0 -19 -2 -19 -49 7 l-49 28 -24 -29 c-29 -34 -67 -30 -88 9 -11
22 -11 29 4 51 25 38 60 48 147 40 93 -8 125 3 144 50 28 65 22 75 -39 75 -52
0 -55 -1 -58 -27z"/>
<path d="M9270 2022 c0 -27 -29 -49 -83 -63 -59 -14 -87 -47 -87 -100 l0 -39
85 0 85 0 0 30 c0 23 -4 30 -20 30 -11 0 -20 6 -20 13 0 26 19 39 66 48 53 10
94 45 94 80 0 17 -7 19 -60 19 -52 0 -60 -3 -60 -18z"/>
<path d="M10010 1950 l0 -40 -157 0 -158 0 -22 -35 c-13 -19 -23 -39 -23 -45
0 -7 79 -9 238 -8 l237 3 3 83 3 82 -61 0 -60 0 0 -40z"/>
<path d="M4923 1771 c-44 -11 -93 -42 -116 -72 -25 -34 -37 -100 -27 -146 12
-51 49 -85 153 -138 122 -62 144 -79 168 -127 24 -47 16 -78 -32 -124 -26 -25
-38 -29 -89 -29 -50 0 -64 4 -97 31 -21 17 -47 47 -58 67 -34 63 -45 48 -45
-60 l0 -96 23 20 22 21 60 -24 c146 -61 291 -4 326 127 7 27 9 64 5 91 -10 69
-54 112 -183 178 -150 78 -183 131 -121 197 32 34 79 46 129 33 47 -13 99 -61
99 -91 0 -12 7 -19 20 -19 18 0 20 7 20 82 0 80 0 81 -20 63 -18 -17 -22 -17
-62 -2 -54 20 -133 28 -175 18z"/>
<path d="M9086 1769 c-108 -26 -177 -150 -132 -237 21 -41 53 -66 141 -113
112 -59 154 -88 171 -120 24 -47 18 -85 -20 -127 -32 -35 -38 -37 -93 -37 -73
0 -122 29 -155 93 -14 25 -30 42 -40 42 -16 0 -18 -11 -18 -95 0 -52 3 -95 6
-95 3 0 12 7 20 15 21 20 47 19 97 -6 87 -42 203 -22 269 48 37 38 48 73 48
147 0 95 -27 126 -179 206 -149 78 -173 109 -136 180 22 42 89 65 145 50 46
-12 87 -49 96 -87 4 -14 14 -23 25 -23 17 0 19 8 19 75 0 74 -5 86 -28 63 -8
-8 -22 -7 -54 5 -57 21 -134 28 -182 16z"/>
<path d="M3920 1740 c0 -25 4 -30 25 -30 l25 0 0 -256 c0 -293 5 -323 59 -360
49 -33 130 -33 187 0 l41 23 39 -23 c28 -17 54 -24 92 -24 64 0 106 20 132 63
18 30 20 52 20 289 0 141 3 263 6 272 3 9 15 16 25 16 14 0 19 7 19 30 l0 31
-107 -3 c-103 -3 -108 -4 -111 -25 -3 -17 3 -26 22 -33 14 -5 28 -20 32 -34 3
-13 4 -131 2 -262 -3 -269 -7 -287 -61 -282 -54 5 -57 21 -57 346 l0 292 -55
0 -55 0 0 -298 c0 -256 -2 -301 -16 -320 -24 -35 -64 -26 -86 18 -16 31 -18
69 -18 318 l0 282 -80 0 -80 0 0 -30z"/>
<path d="M5550 1743 c-43 -19 -59 -22 -72 -14 -10 6 -20 11 -23 11 -3 0 -5
-34 -5 -75 l0 -75 30 0 c24 0 30 4 30 21 0 27 68 96 103 104 105 27 183 -99
181 -295 0 -185 -69 -290 -189 -290 l-45 0 0 150 0 150 30 0 c27 0 30 3 30 30
l0 30 -90 0 -90 0 0 -206 0 -205 23 7 c30 9 78 7 111 -6 15 -5 58 -10 95 -10
56 0 74 4 112 28 90 58 129 153 129 318 0 57 -5 125 -11 153 -14 68 -60 136
-116 171 -40 26 -56 30 -112 29 -48 0 -81 -8 -121 -26z"/>
<path d="M6110 1740 c0 -25 4 -30 25 -30 l25 0 0 -256 c0 -293 5 -323 59 -360
48 -33 130 -33 186 -1 l40 23 40 -23 c48 -27 131 -31 176 -8 16 9 39 30 49 48
18 30 20 52 20 289 0 141 3 263 6 272 3 9 15 16 25 16 14 0 19 7 19 30 l0 31
-107 -3 c-103 -3 -108 -4 -111 -25 -3 -17 3 -26 22 -33 l26 -10 0 -265 c0
-165 -4 -274 -10 -286 -7 -12 -21 -19 -38 -19 -58 0 -57 -8 -60 330 l-3 310
-54 0 -55 0 0 -298 c0 -321 -3 -342 -53 -342 -62 1 -67 27 -67 356 l0 284 -80
0 -80 0 0 -30z"/>
<path d="M6977 1763 c-4 -3 -7 -17 -7 -29 0 -16 7 -24 23 -26 l22 -3 3 -312 2
-313 85 0 c84 0 85 0 85 25 0 20 -5 25 -25 25 l-25 0 0 274 c0 151 3 281 6
290 3 9 15 16 25 16 14 0 19 7 19 30 l0 30 -103 0 c-57 0 -107 -3 -110 -7z"/>
<path d="M7380 1740 c0 -25 4 -30 24 -30 l24 0 4 -272 c3 -209 7 -280 18 -301
32 -65 149 -87 226 -43 l41 23 39 -23 c28 -17 54 -24 92 -24 64 0 106 20 132
63 18 29 20 52 20 284 0 138 3 259 6 268 4 9 18 21 31 26 18 6 23 15 21 32 -3
21 -8 22 -110 25 l-108 3 0 -31 c0 -23 5 -30 19 -30 10 0 22 -7 25 -16 3 -9 6
-127 6 -262 0 -275 -4 -295 -56 -300 -17 -2 -36 3 -42 11 -8 9 -13 107 -14
318 l-3 304 -57 3 -58 3 0 -301 c0 -189 -4 -309 -10 -321 -14 -25 -61 -25 -83
-1 -15 16 -17 54 -17 320 l0 302 -85 0 -85 0 0 -30z"/>
<path d="M8377 1744 c-45 -19 -62 -22 -77 -14 -19 10 -20 7 -20 -65 0 -73 1
-75 24 -75 19 0 27 8 36 35 13 41 58 81 100 90 106 23 179 -94 180 -290 0
-186 -64 -290 -180 -290 l-55 0 -3 148 -3 147 36 0 c32 0 35 2 35 30 l0 30
-95 0 -95 0 0 -206 0 -205 23 7 c29 9 89 7 122 -6 39 -15 137 -12 178 5 53 22
111 94 135 170 45 135 23 336 -47 430 -62 85 -179 109 -294 59z"/>
<path d="M9709 1747 c-80 -43 -83 -55 -89 -352 l-5 -260 -22 -3 c-17 -3 -23
-10 -23 -28 0 -25 0 -25 87 -22 l88 3 52 70 c115 155 172 316 126 357 -32 29
-75 33 -106 8 -31 -25 -34 -48 -9 -76 49 -52 44 -94 -24 -206 l-39 -63 -3 229
c-2 196 0 231 13 246 15 16 18 16 53 -1 46 -24 89 -24 128 0 26 16 33 17 50 4
18 -13 19 -30 22 -246 2 -127 0 -242 -3 -254 -3 -14 -13 -23 -25 -23 -15 0
-20 -7 -20 -25 l0 -25 105 0 c104 0 105 0 105 24 0 15 -7 26 -20 29 -19 5 -20
14 -20 229 -1 240 -7 295 -37 337 -22 29 -97 71 -128 71 -13 0 -25 -12 -35
-32 -8 -17 -23 -36 -32 -42 -27 -16 -71 4 -87 42 -18 39 -41 41 -102 9z"/>
<path d="M8359 697 c-28 -19 -34 -29 -34 -57 0 -29 5 -36 27 -44 52 -18 138
49 96 75 -19 13 -28 11 -28 -5 0 -21 -28 -46 -51 -46 -28 0 -24 36 7 57 74 48
170 -14 98 -64 -73 -52 -72 -49 -104 -208 -16 -82 -36 -179 -44 -215 -21 -92
-22 -90 28 -90 43 0 71 15 43 22 -11 2 -11 18 3 88 58 287 70 332 95 362 29
34 40 68 31 101 -12 49 -109 63 -167 24z"/>
<path d="M2445 518 c-10 -34 -36 -153 -51 -238 -18 -103 -33 -136 -67 -149
-18 -7 -46 -1 -65 14 -1 1 9 55 22 121 13 65 26 134 29 152 l7 32 -50 0 c-45
0 -67 -13 -39 -22 7 -2 4 -38 -10 -113 -28 -145 -27 -170 3 -190 55 -37 157
-24 201 25 11 12 30 81 51 182 18 90 34 166 34 171 0 4 7 7 15 7 8 0 15 5 15
10 0 15 -90 12 -95 -2z"/>
<path d="M35 440 c-3 -5 1 -10 10 -10 11 0 15 -5 12 -14 -15 -40 -49 -238 -44
-258 12 -46 104 -72 164 -46 67 28 80 52 105 186 18 98 27 126 41 130 39 10
13 22 -48 22 -37 0 -65 -4 -65 -10 0 -5 6 -10 14 -10 20 0 -35 -269 -60 -287
-25 -18 -73 -17 -81 3 -5 13 10 109 43 272 l7 32 -46 0 c-25 0 -49 -4 -52 -10z"/>
<path d="M608 438 c-19 -15 -34 -88 -18 -88 5 0 10 6 10 13 0 18 48 67 65 67
19 0 19 -42 0 -105 -8 -27 -20 -82 -26 -123 -9 -58 -16 -76 -30 -79 -11 -3
-16 -9 -13 -14 7 -12 111 -11 119 1 3 6 0 10 -8 10 -12 0 -10 20 10 113 38
180 39 188 18 204 -24 16 -106 17 -127 1z"/>
<path d="M1075 440 c-3 -5 1 -10 11 -10 12 0 15 -6 10 -22 -15 -55 -46 -213
-46 -238 0 -61 90 -91 144 -49 l26 20 0 -20 c0 -18 6 -21 45 -21 40 0 61 13
36 22 -5 2 4 70 20 153 16 83 29 151 29 153 0 1 7 2 15 2 8 0 15 5 15 10 0 6
-26 10 -59 10 -33 0 -63 -4 -66 -10 -3 -5 1 -10 11 -10 12 0 15 -6 11 -22 -2
-13 -12 -59 -22 -103 -9 -44 -21 -89 -27 -100 -17 -33 -61 -75 -78 -75 -37 0
-38 18 -9 158 16 75 29 143 29 150 0 15 -86 17 -95 2z"/>
<path d="M1660 441 c0 -5 4 -11 8 -13 5 -1 0 -43 -10 -93 -10 -49 -24 -116
-30 -149 -7 -32 -18 -60 -25 -63 -31 -12 -8 -23 47 -23 33 0 60 4 60 10 0 6
-6 10 -14 10 -8 0 -13 7 -10 18 44 199 63 248 109 278 12 8 30 11 40 8 15 -6
16 -15 11 -58 -3 -28 -15 -85 -26 -126 -11 -41 -20 -85 -20 -97 0 -14 -6 -23
-15 -23 -8 0 -15 -4 -15 -10 0 -6 27 -10 60 -10 53 0 80 12 49 22 -10 3 3 91
31 203 14 60 12 74 -15 100 -28 29 -95 35 -115 10 -7 -8 -16 -15 -21 -15 -5 0
-9 7 -9 15 0 11 -12 15 -45 15 -25 0 -45 -4 -45 -9z"/>
<path d="M2833 427 c-34 -16 -44 -28 -49 -53 -8 -44 1 -66 14 -34 19 48 82 90
135 90 37 0 65 -26 60 -54 -5 -26 -22 -34 -133 -67 -25 -8 -58 -25 -74 -40
-52 -46 -45 -169 11 -169 7 0 13 -7 13 -15 0 -8 4 -15 10 -15 5 0 7 -6 4 -14
-3 -8 0 -24 6 -36 10 -18 19 -21 73 -18 57 3 63 5 84 37 13 19 23 38 23 42 0
5 -18 9 -40 9 -35 0 -40 -3 -40 -23 0 -23 -17 -47 -32 -47 -4 0 -8 16 -8 35 0
30 -3 35 -22 35 -19 0 -17 3 12 19 24 12 36 26 38 45 4 30 -17 36 -25 7 -6
-23 -47 -46 -63 -36 -15 10 -7 83 15 124 11 22 29 34 75 49 l60 21 -5 -22
c-14 -61 -35 -170 -35 -183 0 -10 13 -14 45 -14 40 0 61 13 36 22 -9 3 8 113
30 195 6 23 8 54 5 68 -16 62 -137 86 -223 42z"/>
<path d="M3480 440 c-14 -4 -48 -8 -77 -9 -53 -1 -74 -13 -50 -28 11 -7 8 -33
-17 -145 -20 -93 -34 -138 -43 -138 -7 0 -13 -4 -13 -10 0 -6 27 -10 60 -10
33 0 60 4 60 9 0 5 -4 11 -9 13 -13 4 37 260 54 276 14 14 90 31 99 22 5 -5 0
-45 -12 -97 -11 -48 -26 -114 -32 -145 -7 -38 -16 -58 -26 -58 -8 0 -14 -4
-14 -10 0 -6 27 -10 60 -10 33 0 60 4 60 9 0 5 -4 11 -9 13 -10 3 8 113 35
215 9 34 14 73 10 87 -6 24 -10 26 -59 25 -28 -1 -63 -5 -77 -9z"/>
<path d="M3940 440 c0 -5 7 -10 16 -10 11 0 14 -5 9 -17 -15 -40 -46 -215 -43
-245 2 -26 10 -36 38 -50 46 -22 85 -22 137 1 56 26 68 48 92 171 24 125 29
140 47 140 8 0 14 5 14 10 0 6 -28 10 -65 10 -37 0 -65 -4 -65 -10 0 -5 7 -10
16 -10 11 0 14 -5 9 -17 -4 -10 -18 -71 -31 -136 -13 -65 -26 -122 -29 -127
-3 -4 -18 -13 -35 -18 -24 -9 -33 -7 -49 6 -20 17 -20 17 5 132 13 63 27 130
30 148 l7 32 -52 0 c-28 0 -51 -4 -51 -10z"/>
<path d="M4520 441 c0 -5 5 -11 12 -13 8 -3 6 -33 -11 -114 -13 -60 -25 -120
-28 -134 -3 -19 3 -33 23 -53 31 -32 81 -36 119 -11 23 15 25 15 25 0 0 -12
10 -16 45 -16 25 0 45 5 45 10 0 6 -4 10 -9 10 -5 0 -3 26 4 58 7 31 20 91 29
132 9 41 18 85 21 98 3 12 12 22 21 22 8 0 12 5 9 10 -8 13 -125 13 -125 1 0
-5 6 -11 14 -13 11 -2 10 -19 -5 -93 -29 -140 -67 -205 -121 -205 -30 0 -32
24 -10 118 11 48 24 105 27 127 4 22 9 48 12 58 4 14 -3 17 -46 17 -28 0 -51
-4 -51 -9z"/>
<path d="M5174 440 c-56 -18 -72 -46 -99 -181 -15 -73 -31 -129 -40 -135 -8
-6 -15 -14 -15 -18 0 -10 118 -7 125 4 3 6 -3 10 -13 10 -17 0 -19 4 -12 33 5
17 13 48 18 67 18 73 55 106 87 80 27 -22 38 1 13 27 -16 18 -31 23 -50 21
-16 -3 -28 -4 -28 -3 0 1 5 16 11 33 12 34 53 54 90 45 19 -5 21 -11 16 -52
-13 -104 -50 -251 -63 -251 -8 0 -14 -4 -14 -10 0 -6 27 -10 60 -10 53 0 79
12 49 22 -9 3 -7 22 4 68 9 36 22 98 29 138 11 68 11 73 -8 93 -24 23 -111 34
-160 19z"/>
<path d="M5714 428 c-35 -17 -43 -27 -47 -57 -3 -20 -9 -46 -13 -58 -12 -43
11 -23 36 30 40 82 116 108 135 46 4 -12 -1 -62 -11 -112 -14 -75 -23 -97 -49
-126 -32 -34 -33 -35 -58 -18 -14 9 -28 30 -32 48 -9 41 -22 26 -31 -36 -6
-46 -6 -49 10 -36 13 11 20 11 28 3 19 -19 84 -14 121 8 46 27 84 83 98 146
24 105 -20 185 -103 183 -24 0 -62 -10 -84 -21z"/>
<path d="M6241 441 c-13 -9 -34 -91 -22 -91 4 0 15 16 25 35 18 32 50 54 63
41 11 -11 -54 -306 -68 -306 -5 0 -9 -4 -9 -10 0 -5 24 -10 54 -10 30 0 58 5
61 10 3 6 -1 10 -10 10 -11 0 -15 6 -11 18 11 39 56 251 56 265 0 29 -30 47
-78 47 -26 0 -53 -4 -61 -9z"/>
<path d="M6680 440 c0 -5 3 -10 8 -10 4 0 -4 -60 -19 -132 -30 -153 -37 -178
-50 -178 -5 0 -9 -4 -9 -10 0 -5 20 -10 44 -10 36 0 45 4 49 21 l6 20 20 -20
c27 -27 76 -27 118 -1 41 25 50 43 69 137 29 150 36 173 50 173 8 0 14 5 14
10 0 6 -27 10 -60 10 -33 0 -60 -4 -60 -9 0 -5 4 -11 9 -13 5 -1 -3 -63 -18
-137 -21 -107 -31 -137 -49 -152 -27 -22 -45 -17 -61 17 -15 35 -14 63 9 184
11 58 20 106 20 107 0 2 -20 3 -45 3 -25 0 -45 -4 -45 -10z"/>
<path d="M7291 425 c-42 -36 -69 -83 -82 -144 -20 -97 10 -181 65 -181 23 0
66 37 66 58 0 18 -15 14 -35 -8 -10 -11 -22 -20 -27 -20 -26 0 19 231 55 276
l21 27 17 -22 c9 -11 24 -19 32 -16 12 5 11 -10 -4 -92 -27 -140 -40 -183 -55
-183 -8 0 -14 -4 -14 -10 0 -13 117 -13 125 0 3 5 -1 10 -11 10 -12 0 -15 6
-10 23 4 12 19 82 34 155 17 87 31 132 39 132 7 0 13 5 13 10 0 13 -76 13
-102 -1 -14 -8 -23 -8 -31 0 -19 19 -64 12 -96 -14z"/>
<path d="M7810 440 c0 -5 8 -10 19 -10 15 0 19 -11 24 -67 17 -177 26 -255 30
-260 5 -4 69 116 140 261 15 32 26 65 23 72 -4 9 -21 14 -51 14 -41 0 -61 -13
-33 -22 8 -3 -2 -31 -28 -84 l-39 -79 -7 45 c-12 80 -10 120 7 120 8 0 15 5
15 10 0 6 -22 10 -50 10 -27 0 -50 -4 -50 -10z"/>
<path d="M8820 444 c-67 -25 -77 -34 -83 -71 -6 -37 1 -61 11 -33 8 25 70 78
94 82 13 2 35 0 51 -5 21 -7 27 -15 27 -38 0 -28 -2 -30 -34 -24 -39 8 -96
-17 -96 -40 0 -18 5 -19 29 -3 14 9 26 8 51 -2 35 -15 35 -10 9 -132 -8 -36
-18 -58 -26 -58 -7 0 -13 -4 -13 -10 0 -6 27 -10 60 -10 33 0 60 4 60 10 0 6
-5 10 -10 10 -13 0 -7 39 22 157 23 93 19 120 -19 147 -26 19 -104 31 -133 20z"/>
<path d="M9320 441 c0 -5 5 -11 12 -13 8 -3 6 -29 -10 -94 -11 -49 -26 -117
-33 -151 -8 -42 -16 -63 -26 -63 -8 0 -11 -4 -8 -10 8 -13 112 -13 120 0 3 5
-1 10 -9 10 -19 0 -20 -11 4 106 21 101 51 161 96 190 17 12 23 12 38 1 17
-12 17 -17 2 -78 -8 -35 -20 -91 -26 -124 -16 -86 -20 -95 -36 -95 -8 0 -14
-4 -14 -10 0 -6 27 -10 60 -10 33 0 60 4 60 9 0 5 -4 11 -9 13 -5 2 1 54 14
118 13 63 24 127 25 141 1 63 -87 92 -145 47 l-27 -21 6 21 c7 21 4 22 -43 22
-28 0 -51 -4 -51 -9z"/>
<path d="M9984 440 c-39 -15 -91 -77 -108 -126 -48 -140 25 -274 103 -190 31
33 18 53 -17 25 l-27 -21 -3 42 c-3 44 31 194 51 221 16 21 51 39 76 39 25 0
25 3 6 -85 -42 -203 -48 -225 -61 -225 -8 0 -14 -4 -14 -10 0 -6 27 -10 60
-10 33 0 60 4 60 9 0 5 -5 11 -10 13 -16 5 51 308 68 308 6 0 12 5 12 10 0 12
-166 12 -196 0z"/>
</g>
</svg>
