<?xml version="1.0" standalone="no"?>
<!DOCTYPE svg PUBLIC "-//W3C//DTD SVG 20010904//EN"
 "http://www.w3.org/TR/2001/REC-SVG-20010904/DTD/svg10.dtd">
<svg version="1.0" xmlns="http://www.w3.org/2000/svg"
 width="900.000000pt" height="333.000000pt" viewBox="0 0 900.000000 333.000000"
 preserveAspectRatio="xMidYMid meet">
<metadata>
Created by potrace 1.10, written by Peter Selinger 2001-2011
</metadata>
<g transform="translate(0.000000,333.000000) scale(0.100000,-0.100000)"
fill="#ffffff" stroke="none">
<path d="M1595 2734 c-132 -24 -228 -45 -270 -60 -23 -8 -50 -14 -61 -14 -11
0 -29 -7 -40 -15 -10 -8 -28 -15 -40 -15 -11 0 -29 -7 -40 -15 -10 -8 -27 -15
-37 -15 -11 0 -31 -6 -45 -13 -15 -8 -43 -21 -62 -29 -90 -39 -227 -112 -347
-185 -39 -23 -75 -43 -80 -43 -15 -1 -44 -48 -33 -55 6 -3 72 -1 148 5 130 11
1866 10 1917 -1 74 -16 -53 211 -168 300 -29 22 -63 44 -77 50 -14 6 -32 15
-40 20 -50 28 -148 62 -210 72 -25 4 -63 12 -85 18 -57 15 -335 12 -430 -5z
m345 -89 c41 -4 80 -10 85 -15 6 -5 21 -9 35 -9 57 -1 117 -14 140 -31 14 -9
51 -28 83 -41 33 -13 71 -37 86 -54 15 -17 35 -34 44 -38 17 -6 23 -43 9 -63
-5 -8 -204 -11 -705 -11 l-697 -1 -16 22 c-14 20 -13 23 14 47 18 16 47 29 75
33 25 4 48 13 51 21 3 8 12 15 21 15 8 0 15 5 15 10 0 6 15 10 34 10 19 0 38
5 41 10 4 6 15 8 25 5 10 -3 21 -1 25 5 13 20 79 40 169 50 50 5 116 15 146
20 71 14 199 27 225 24 11 -2 54 -6 95 -9z"/>
<path d="M3870 2528 c-174 -10 -293 -24 -317 -36 -12 -7 -31 -12 -43 -12 -31
0 -136 -55 -176 -92 -34 -32 -50 -60 -90 -158 -16 -37 -19 -72 -19 -225 0
-155 2 -185 18 -208 9 -14 17 -32 17 -39 0 -17 88 -118 102 -118 7 0 19 -6 27
-13 60 -49 286 -72 601 -62 341 12 545 -13 613 -75 53 -47 67 -91 67 -217 0
-101 -3 -120 -25 -167 -38 -81 -78 -107 -210 -137 -88 -20 -775 -19 -860 2
-75 18 -114 39 -141 76 -28 38 -36 72 -43 178 l-6 90 -85 0 -85 0 -4 -30 c-2
-16 3 -82 10 -145 19 -168 66 -251 174 -304 78 -38 195 -57 395 -66 258 -11
643 -2 707 16 28 7 60 14 71 14 29 0 117 46 158 82 45 39 78 96 103 178 27 84
30 338 6 397 -8 19 -15 44 -15 54 0 24 -41 90 -74 121 -33 30 -97 61 -169 82
-48 15 -115 18 -380 22 -415 6 -636 20 -694 46 -86 38 -125 156 -102 311 18
124 67 186 169 215 120 35 519 52 739 31 250 -22 331 -82 331 -244 0 -38 5
-66 13 -72 6 -5 46 -9 87 -9 l75 1 0 65 c0 36 -6 92 -14 125 -36 165 -116 244
-286 288 -115 30 -436 47 -645 35z"/>
<path d="M5240 2511 c-91 -21 -135 -54 -144 -107 -10 -57 5 -68 74 -53 56 12
95 9 200 -15 83 -18 94 -9 84 74 -9 79 -33 101 -115 105 -35 2 -80 0 -99 -4z
m127 -82 c21 -8 24 -12 13 -19 -40 -25 -216 -22 -207 4 8 23 144 34 194 15z"/>
<path d="M5574 2511 c-2 -2 -4 -395 -4 -873 l0 -868 91 0 91 0 -3 346 -3 346
557 -1 c599 -2 600 -2 714 51 46 21 99 69 114 102 5 12 13 28 18 36 34 58 41
117 41 339 0 234 -4 262 -52 368 -20 45 -102 123 -129 123 -9 0 -32 7 -52 15
-29 12 -142 15 -707 17 -369 2 -674 1 -676 -1z m871 -174 c373 -3 392 -4 435
-25 51 -24 90 -61 115 -112 28 -54 28 -323 0 -403 -24 -70 -64 -113 -130 -138
-43 -16 -93 -18 -582 -20 l-535 -1 0 348 c1 192 1 351 2 354 0 3 69 4 152 3
84 -2 329 -4 543 -6z"/>
<path d="M7840 2488 c-11 -18 -20 -37 -20 -42 0 -5 -40 -91 -89 -190 -49 -100
-91 -188 -95 -196 -3 -8 -10 -22 -15 -30 -5 -8 -44 -87 -87 -175 -42 -88 -117
-242 -165 -342 -49 -101 -130 -267 -180 -370 -50 -104 -95 -195 -100 -203 -5
-8 -13 -25 -19 -37 -5 -12 -21 -40 -35 -62 -41 -66 -37 -71 61 -71 89 0 124
10 124 36 0 9 6 28 14 42 8 15 42 86 76 157 33 72 64 137 69 145 7 13 86 15
598 18 l589 2 31 -62 c17 -35 52 -108 78 -163 26 -55 55 -116 65 -135 l19 -35
87 -3 c48 -2 91 1 95 5 4 4 0 23 -9 40 -56 108 -193 385 -271 548 -51 105 -97
197 -102 205 -5 8 -12 22 -15 30 -6 15 -72 151 -289 595 -115 237 -131 271
-139 298 -5 15 -19 17 -115 17 -60 0 -116 3 -125 6 -10 4 -22 -5 -36 -28z
m160 -145 c12 -33 19 -48 58 -133 16 -36 33 -72 36 -80 3 -8 10 -22 15 -30 10
-15 273 -553 285 -580 3 -8 10 -22 15 -30 5 -8 12 -22 16 -30 7 -17 22 -42 49
-83 30 -44 12 -55 -81 -45 -43 5 -267 7 -497 6 -292 -2 -420 0 -423 8 -2 6 7
26 20 45 43 63 447 894 447 919 0 16 31 60 41 60 5 0 14 -12 19 -27z"/>
<path d="M5002 2323 c-6 -10 -9 -44 -8 -77 2 -67 22 -91 95 -116 38 -12 48
-12 99 4 81 26 182 78 182 93 0 10 -34 12 -157 10 -154 -2 -201 5 -172 24 8 5
74 9 147 8 137 -2 162 4 140 34 -11 15 -21 16 -74 7 -58 -10 -169 3 -226 25
-11 4 -20 0 -26 -12z"/>
<path d="M1617 2123 c-857 -3 -940 -5 -965 -20 -81 -50 -122 -121 -122 -209 0
-67 23 -107 81 -142 52 -31 35 -30 939 -37 366 -3 694 -9 730 -14 73 -9 113
-22 183 -58 52 -27 70 -22 80 20 3 12 15 47 27 77 12 30 26 73 30 95 5 22 13
51 18 65 5 14 11 70 13 125 l4 100 -40 0 c-22 0 -462 -1 -978 -2z m842 -100
c26 -4 36 -13 47 -40 10 -24 12 -39 4 -53 -5 -10 -10 -32 -10 -48 0 -57 -77
-121 -122 -102 -39 16 -139 32 -228 37 -47 2 -389 5 -761 6 l-676 2 -31 32
c-31 31 -39 62 -26 97 8 22 88 58 144 66 53 8 1610 11 1659 3z"/>
<path d="M5145 1980 c-3 -5 -6 -279 -6 -607 l-1 -598 83 0 82 0 0 605 -1 605
-75 3 c-45 2 -78 -1 -82 -8z"/>
<path d="M118 1703 c-6 -16 -16 -41 -23 -58 -14 -32 -34 -87 -54 -145 -7 -19
-15 -66 -18 -103 -3 -37 -10 -70 -14 -73 -5 -3 -9 -20 -9 -37 l0 -32 892 -2
c787 -1 897 1 933 14 100 39 146 105 147 212 0 63 -1 67 -36 97 -20 18 -54 35
-74 39 -20 4 -374 10 -787 14 -688 5 -753 7 -782 24 -18 9 -38 17 -46 17 -8 0
-33 14 -55 30 -51 37 -60 37 -74 3z m172 -153 c0 -6 17 -10 38 -9 21 2 45 -1
52 -6 9 -5 305 -8 695 -7 l680 3 48 -22 c26 -13 47 -26 47 -29 0 -4 -9 -28
-20 -53 -19 -42 -24 -46 -73 -57 -67 -14 -1554 -14 -1592 0 -35 13 -39 30 -25
92 20 86 31 98 95 98 31 0 55 -4 55 -10z"/>
<path d="M1036 1093 l-1038 -3 5 -33 c16 -93 26 -127 51 -178 46 -93 150 -189
256 -236 97 -44 121 -53 138 -53 9 0 34 -6 57 -14 72 -25 281 -38 422 -26 71
6 146 16 168 21 22 6 65 14 97 19 31 4 62 11 69 15 7 5 29 12 48 16 34 7 54
13 144 45 125 46 150 56 257 109 102 49 172 89 239 134 31 21 85 57 121 81 78
51 121 90 114 102 -3 4 -29 7 -57 6 -29 -2 -519 -4 -1091 -5z m782 -107 c11
-6 10 -12 -4 -27 -9 -10 -23 -19 -31 -19 -8 0 -26 -13 -41 -29 -15 -16 -52
-38 -82 -48 -30 -10 -66 -26 -80 -36 -13 -9 -30 -17 -36 -17 -6 0 -17 -7 -24
-15 -7 -8 -23 -15 -36 -15 -12 0 -25 -4 -28 -9 -3 -4 -24 -11 -47 -15 -23 -4
-51 -13 -62 -21 -12 -8 -34 -15 -50 -15 -16 0 -35 -7 -43 -15 -9 -9 -34 -15
-60 -15 -25 0 -55 -5 -67 -12 -31 -17 -214 -30 -390 -29 -121 1 -156 5 -198
21 -27 11 -62 20 -78 20 -16 0 -40 9 -54 20 -14 11 -37 20 -51 20 -31 0 -120
77 -183 158 -46 59 -47 91 -2 103 34 10 1631 5 1647 -5z"/>
</g>
</svg>
