<?xml version="1.0" encoding="utf-8"?>
<!-- Generator: Adobe Illustrator 16.0.0, SVG Export Plug-In . SVG Version: 6.00 Build 0)  -->
<!DOCTYPE svg PUBLIC "-//W3C//DTD SVG 1.1//EN" "http://www.w3.org/Graphics/SVG/1.1/DTD/svg11.dtd">
<svg version="1.1" id="Layer_1" xmlns="http://www.w3.org/2000/svg" xmlns:xlink="http://www.w3.org/1999/xlink" x="0px" y="0px"
	 width="601.003px" height="191.25px" viewBox="0 300.375 601.003 191.25" enable-background="new 0 300.375 601.003 191.25"
	 xml:space="preserve">
<g>
	<path fill="#184E84" d="M267.052,395.522H244.82v-3.586c4.303,0,4.781-1.435,4.781-4.781v-46.856
		c0-8.128-7.889-11.714-15.778-11.714c-7.889,0-15.778,3.586-15.778,11.714v20.56c0.957-2.391,4.781-6.455,6.933-8.128
		c2.391-1.912,5.259-3.586,9.084-3.586c5.259,0,7.889,2.869,7.889,6.216c0,2.869-2.391,4.781-4.781,5.259
		c-4.064,0.717-4.781-3.347-7.889-3.347c-6.216,0-11.475,10.28-11.475,14.344v16.017c0,3.347,0.478,4.781,4.781,4.781V396h-22.233
		v-3.586c4.303,0,4.781-1.435,4.781-4.781v-46.378c0-10.758,13.626-16.734,28.448-16.734s28.449,5.737,28.449,16.734v46.139
		c0,3.347,0.478,4.781,4.781,4.781v3.347H267.052z M432.722,390.741c0,3.108-2.391,5.737-5.26,5.737
		c-3.107,0-5.736-2.391-5.736-5.737c0-3.108,2.391-5.259,5.977-5.259C430.093,385.481,432.722,388.111,432.722,390.741z
		 M350.724,396.479c-5.498,0-8.367-3.107-8.367-6.455c0-2.869,2.391-4.781,5.021-5.499c3.346-0.478,4.541,1.913,6.453,3.108
		l-0.238-36.337c0-4.064,7.648-3.586,7.172-6.216c-0.479-2.151-7.891-1.913-7.891-1.913c0-11.714,14.584-18.646,28.928-18.646
		c14.584,0,28.447,5.498,28.447,18.646v43.988c0,3.347,0.48,4.781,4.781,4.781v3.586h-22.232v-3.586
		c4.303,0,4.781-1.435,4.781-4.781v-45.9c0-7.411-5.498-12.67-15.777-12.67s-15.779,5.259-15.779,12.67v41.836
		C364.828,397.435,350.724,396.479,350.724,396.479z M281.396,332.409c-1.912,0.957-3.107,3.586-6.455,3.108
		c-2.629-0.478-5.02-2.391-5.02-5.259c0-3.108,2.629-5.977,7.65-6.216c0,0,16.734-2.151,16.256,15.061l0.239,41.597
		c0,8.128,7.65,11.714,15.777,11.714c8.129,0,15.777-3.586,15.777-11.714v-69.807c0-3.347-0.477-4.781-4.779-4.781v-3.347h22.232
		v3.586c-4.305,0-4.781,1.435-4.781,4.781v68.85c0,10.758-13.148,16.734-28.449,16.734c-15.299,0-28.447-5.737-28.447-16.734
		V332.409L281.396,332.409z"/>
	<g>
		<g>
			<g>
				<path fill="#184E84" d="M210.395,454.092v10.041h1.913v-10.041c-0.239-5.977-10.997-5.259-10.997,0.479h1.913
					c0,0-0.717,0.238-0.717,1.194v8.367h1.913v-8.367c0,0,0-1.194,0.957-1.194h1.195v-1.195h-3.825
					C203.701,450.028,210.395,449.789,210.395,454.092z"/>
				<path fill="#184E84" d="M222.826,463.894v-11.234c0-2.392-1.434-3.108-3.825-3.108c-2.152,0-3.347,1.436-3.586,1.674v0.956
					c0,0,1.434-1.674,3.347-1.435c1.673,0,2.152,0.718,2.152,2.151v11.235h1.912V463.894z"/>
				<path fill="#184E84" d="M233.823,454.81c0-0.718-0.956-1.194-1.195-1.194l-5.259-1.195c0.478-1.195,1.195-1.674,4.542-0.718
					c0,0,2.391,0.718,3.108-1.673c0-0.479-0.239-0.479-0.478-0.239c-0.957,0.956-3.108-0.479-5.021-0.479
					c-2.629,0-3.586,3.108-3.825,3.586l5.259,1.195c0.478,0,0.717,0.479,0.478,0.957v4.781c0-0.239-0.478-0.239-0.956-0.239
					c-2.869,0-3.108,4.063,0.239,4.063c3.108,0,2.869-2.151,2.869-2.392v-6.454L233.823,454.81L233.823,454.81z M230.954,460.786
					c0.717,0,1.195,0.478,1.195,0.956c0,0.478-0.478,0.956-0.957,1.195c-0.478,0-1.195-0.479-1.195-0.956
					C229.759,461.264,230.237,460.786,230.954,460.786z"/>
				<path fill="#184E84" d="M239.56,450.745c0.717,0,1.195,0.479,1.195,0.956c0,0.479-0.478,1.195-0.956,1.195
					c-0.717,0-1.195-0.479-1.195-0.956C238.365,451.224,238.843,450.745,239.56,450.745z M247.927,461.264
					c0,0.957-0.717,1.436-1.673,1.436h-3.825V451.94c0-0.239,0.239-2.392-2.869-2.392c-3.347,0-3.107,4.064-0.239,4.064
					c0.239,0,0.717,0,0.956-0.239v9.563h-1.195v1.195h8.367c1.913,0,2.63-1.435,2.63-2.391v-20.32h-1.913L247.927,461.264z"/>
				<path fill="#184E84" d="M260.598,454.81c0-0.718-0.956-1.194-1.195-1.194l-5.259-1.195c0.478-1.195,1.195-1.674,4.542-0.718
					c0,0,2.391,0.718,3.108-1.673c0-0.479-0.239-0.479-0.478-0.239c-0.956,0.956-3.108-0.479-5.021-0.479
					c-2.629,0-3.586,3.108-3.825,3.586l5.259,1.195c0.478,0,0.717,0.479,0.478,0.957v4.781c0-0.239-0.478-0.239-0.956-0.239
					c-2.869,0-3.108,4.063,0,4.063s2.869-2.151,2.869-2.392v-6.454L260.598,454.81L260.598,454.81z M257.729,460.786
					c0.717,0,1.195,0.478,1.195,0.956c0,0.478-0.478,0.956-0.956,1.195c-0.479,0-1.195-0.479-1.195-0.956
					C256.773,461.264,257.251,460.786,257.729,460.786z"/>
				<path fill="#184E84" d="M267.052,450.745c-2.629,0-2.151,2.391-2.151,2.391c0.239,1.674,2.869,1.913,2.869,1.913
					c2.869,0.238,5.738-0.718,6.216-4.304h-1.435c0,0,0,3.107-3.825,3.107c0,0,0.478-0.479,0.239-1.674
					C268.965,451.224,268.248,450.745,267.052,450.745z M267.052,459.112c-2.629,0-2.151,2.391-2.151,2.391
					c0.239,1.674,2.869,1.913,2.869,1.913c2.869,0.238,5.738-0.718,6.216-4.304h-1.435c0,0,0,3.107-3.825,3.107
					c0,0,0.478-0.479,0.239-1.674C268.965,459.591,268.248,459.112,267.052,459.112z M267.052,459.83
					c0.717,0,1.195,0.478,1.195,0.956c0,0.478-0.478,1.195-1.195,1.195c-0.478,0-1.195-0.479-1.195-0.956
					C266.096,460.547,266.574,460.068,267.052,459.83z M267.052,451.463c0.479,0,1.195,0.479,1.195,0.956
					c0,0.479-0.478,1.195-1.195,1.195c-0.478,0-1.195-0.479-1.195-0.956C265.857,452.18,266.335,451.463,267.052,451.463z"/>
				<path fill="#184E84" d="M285.938,454.092v10.041h1.913v-10.041c-0.239-5.977-10.997-5.259-10.997,0.479h1.913
					c0,0-0.717,0.238-0.717,1.194v8.367h1.913v-8.367c0,0,0-1.194,0.956-1.194h1.195v-1.195h-4.064
					C279.245,450.028,285.938,449.789,285.938,454.092z"/>
				<path fill="#184E84" d="M296.218,449.55c-3.347,0-4.781,2.63-4.781,2.63l0.717,0.479c0.238,0,1.195-1.913,4.064-1.913
					c2.867,0,3.346,1.674,3.346,1.913c0,0,0.24,0.717,0.24,1.194v7.173c0,2.867-5.26,2.867-5.26,0v-4.305
					c3.586,0.956,4.063-3.586,0.957-3.824c-2.151,0-2.869,1.674-2.869,2.63v5.021c0,3.107,3.106,3.586,4.78,3.586
					c1.195,0,4.543-0.717,4.543-3.586v-6.933c0-1.436-0.238-1.913-0.238-1.913C301,451.463,299.804,449.55,296.218,449.55z
					 M295.023,453.854c0.717,0,1.195,0.479,1.195,0.956c0,0.479-0.48,1.195-0.957,1.195c-0.718,0-1.195-0.479-1.195-0.956
					C294.066,454.331,294.544,453.854,295.023,453.854z"/>
				<path fill="#184E84" d="M307.214,450.506c0.479,0,1.195,0.479,1.195,0.957c0,0.479-0.479,1.195-0.957,1.195
					s-1.195-0.479-1.195-0.957C306.019,451.224,306.498,450.745,307.214,450.506z M317.255,449.55h-2.152v11.477
					c0,1.194-0.717,1.673-1.434,1.673h-3.826V451.94c0-0.239,0.238-2.392-2.867-2.392c-3.348,0-3.109,4.064-0.24,4.064
					c0.24,0,0.717,0,0.957-0.239v9.563h-1.195v1.195h8.127c1.914,0,2.631-0.717,2.631-2.391V449.55L317.255,449.55z"/>
				<path fill="#184E84" d="M325.861,462.938h-1.674v-8.128h-1.912v8.128h-0.955v1.195h5.977c2.631,0,2.867-1.195,2.867-2.869
					v-5.977c0-0.717-0.717-1.195-1.193-1.195l-6.693-1.673c0.479-1.195,1.436-1.435,5.021-0.479c0,0,2.867,0.956,3.586-1.674
					c0.238-0.479-0.24-0.479-0.24-0.238c-0.955,1.194-4.064-0.239-5.736-0.239c-2.869,0-3.586,2.869-3.826,3.586l6.693,1.674
					c0.48,0.238,0.48,0.479,0.48,0.956v5.737C327.535,462.459,327.056,462.938,325.861,462.938z"/>
				<path fill="#184E84" d="M328.013,468.436v2.631h2.15v-3.825c-0.238-1.435-1.195-2.151-2.867-1.912
					c-2.393,0.239-2.393,3.586,0,3.586C327.773,468.675,327.773,468.436,328.013,468.436z M327.056,467.719
					c-1.195,0-1.195-1.674,0-1.674C328.492,466.045,328.492,467.719,327.056,467.719z"/>
				<path fill="#184E84" d="M340.921,454.81c0-0.718-0.955-1.194-1.195-1.194l-5.258-1.195c0.477-1.195,1.193-1.674,4.541-0.718
					c0,0,2.391,0.718,3.107-1.673c0-0.479-0.238-0.479-0.479-0.239c-0.955,0.956-3.107-0.479-5.021-0.479
					c-2.629,0-3.586,3.108-3.824,3.586l5.26,1.195c0.479,0,0.717,0.479,0.479,0.957v4.781c0-0.239-0.479-0.239-0.957-0.239
					c-2.867,0-3.105,4.063,0,4.063c3.109,0,2.869-2.151,2.869-2.392v-6.454L340.921,454.81L340.921,454.81z M338.054,460.786
					c0.717,0,1.193,0.478,1.193,0.956c0,0.478-0.479,0.956-0.955,1.195c-0.479,0-1.195-0.479-1.195-0.956
					C337.097,461.264,337.335,460.786,338.054,460.786z"/>
				<path fill="#184E84" d="M353.593,454.092v10.041h1.912v-10.041c-0.24-5.977-10.998-5.259-10.998,0.479h1.914
					c0,0-0.719,0.238-0.719,1.194v8.367h1.912v-8.367c0,0,0-1.194,0.957-1.194h1.195v-1.195h-4.064
					C346.898,450.028,353.593,449.789,353.593,454.092z"/>
				<path fill="#184E84" d="M350.724,443.096c-2.631-0.238-5.021,1.673-5.498,3.824c0,0,2.391-0.478,5.258,0
					c2.152,0.239,5.738,1.913,5.738,1.913C356.222,445.247,353.832,443.334,350.724,443.096z M355.027,447.159
					c0,0-1.912-0.956-4.303-1.195c-1.436-0.239-3.826,0-3.826,0c0.719-0.956,2.152-1.673,3.826-1.435
					C352.636,444.769,354.31,445.486,355.027,447.159z"/>
				<path fill="#184E84" d="M369.849,453.854c0-2.63-2.152-4.304-5.498-4.304c-2.869,0-4.781,2.151-5.021,3.348l0.955,0.479
					c0.24-0.479,1.676-2.391,4.305-2.391c1.912,0,3.348,1.194,3.348,2.63v8.367c0,0.478-0.48,0.956-0.957,0.956
					c-0.717,0-0.957-0.479-0.957-0.956v-6.934c0-1.195-0.477-2.151-2.629-2.151c-1.195,0-2.152,0.718-2.152,1.674
					c0,1.194,0.719,2.15,2.152,2.15c0.238,0,0.479,0,0.717,0v4.781c0,1.436,1.436,2.63,3.107,2.63c1.914,0,3.107-1.194,3.107-2.63
					v-7.648L369.849,453.854L369.849,453.854z M363.156,453.854c0.717,0,1.195,0.479,1.195,0.956c0,0.479-0.48,1.195-0.957,1.195
					c-0.717,0-1.195-0.479-1.195-0.956C361.96,454.331,362.437,453.854,363.156,453.854z"/>
				<path fill="#184E84" d="M375.347,450.745c0.717,0,1.195,0.479,1.195,0.956c0,0.479-0.479,1.195-0.957,1.195
					c-0.717,0-1.195-0.479-1.195-0.956C374.152,451.224,374.63,450.745,375.347,450.745z M383.714,461.264
					c0,0.957-0.719,1.436-1.674,1.436h-3.824V451.94c0-0.239,0.238-2.392-2.869-2.392c-3.348,0-3.107,4.064-0.238,4.064
					c0.238,0,0.717,0,0.955-0.239v9.563h-1.195v1.195h8.367c1.912,0,2.631-1.435,2.631-2.391v-20.32h-1.914L383.714,461.264z"/>
				<path fill="#184E84" d="M396.384,454.81c0-0.718-0.955-1.194-1.195-1.194l-5.26-1.195c0.479-1.195,1.195-1.674,4.543-0.718
					c0,0,2.391,0.718,3.107-1.673c0-0.479-0.238-0.479-0.479-0.239c-0.957,0.956-3.107-0.479-5.021-0.479
					c-2.629,0-3.586,3.108-3.824,3.586l5.26,1.195c0.479,0,0.717,0.479,0.479,0.957v4.781c-0.238-0.239-0.479-0.239-0.957-0.239
					c-2.867,0-3.107,4.063,0,4.063s2.869-2.151,2.869-2.392v-6.454L396.384,454.81L396.384,454.81z M393.515,460.786
					c0.719,0,1.195,0.478,1.195,0.956c0,0.478-0.479,0.956-0.955,1.195c-0.479,0-1.195-0.479-1.195-0.956
					C392.56,461.264,393.039,460.786,393.515,460.786z"/>
				<path fill="#184E84" d="M402.839,450.745c-2.629,0-2.152,2.391-2.152,2.391c0.24,1.674,2.869,1.913,2.869,1.913
					c2.869,0.238,5.738-0.718,6.217-4.304h-1.436c0,0,0,3.107-3.824,3.107c0,0,0.479-0.479,0.238-1.674
					C404.751,451.224,404.035,450.745,402.839,450.745z M402.839,459.112c-2.629,0-2.152,2.391-2.152,2.391
					c0.24,1.674,2.869,1.913,2.869,1.913c2.869,0.238,5.738-0.718,6.217-4.304h-1.436c0,0,0,3.107-3.824,3.107
					c0,0,0.479-0.479,0.238-1.674C404.751,459.591,404.035,459.112,402.839,459.112z M402.839,459.83
					c0.717,0,1.195,0.478,1.195,0.956c0,0.478-0.479,1.195-1.195,1.195c-0.479,0-1.195-0.479-1.195-0.956
					C401.882,460.547,402.361,460.068,402.839,459.83z M402.839,451.463c0.479,0,1.195,0.479,1.195,0.956
					c0,0.479-0.479,1.195-1.195,1.195c-0.479,0-1.195-0.479-1.195-0.956C401.644,452.18,402.123,451.463,402.839,451.463z"/>
				<path fill="#184E84" d="M421.726,454.092v10.041h1.912v-10.041c-0.24-5.977-10.998-5.259-10.998,0.479h1.914
					c0,0-0.719,0.238-0.719,1.194v8.367h1.912v-8.367c0,0,0-1.194,0.957-1.194h1.195v-1.195h-4.064
					C415.031,450.028,421.726,449.789,421.726,454.092z"/>
				<path fill="#184E84" d="M420.769,443.573c-2.391,0-1.912,2.391-1.912,2.391c0.238,1.674,2.629,1.674,2.629,1.674
					c2.631,0.479,6.217-0.718,6.693-4.542h-1.434c0,0,0,3.348-3.824,3.348c0,0,0.477-0.479,0.238-1.436
					C422.681,444.052,421.964,443.573,420.769,443.573z M420.769,444.291c0.479,0,1.195,0.478,1.195,0.956
					c0,0.478-0.479,1.195-0.957,1.195c-0.717,0-1.195-0.479-1.195-0.956C419.812,445.008,420.291,444.529,420.769,444.291z"/>
				<path fill="#184E84" d="M438.699,463.177c-1.193,0-1.193-1.913,0-1.913C440.132,461.264,440.132,463.177,438.699,463.177z
					 M429.615,450.506c0.479,0,1.195,0.479,1.195,0.957c0,0.479-0.479,1.195-0.957,1.195c-0.477,0-1.195-0.479-1.195-0.957
					S429.136,450.506,429.615,450.506z M439.894,449.55h-2.152v10.28c-3.822-0.239-5.258,1.912-5.258,1.912s0-9.802,0-10.041
					c0-0.238,0.238-2.392-2.869-2.392c-3.348,0-3.107,4.305-0.24,4.064c0.24,0,0.719,0,0.957-0.239v10.28h1.912
					c0,0,1.195-2.869,4.543-2.869c0,0-0.479,0.717-0.238,1.674c0.238,0.956,0.957,1.435,1.912,1.435
					c2.631,0,2.867-3.348,0.717-3.824l0.479-0.479v-9.802L439.894,449.55L439.894,449.55z"/>
				<path fill="#184E84" d="M445.632,460.068c-2.869,0-2.869,3.824,0,3.824c1.193,0,2.15-0.717,2.15-1.911v-6.694
					c0,0,0-1.195,0.955-1.195h0.957v-1.194h-4.303c0.955-3.107,7.648-3.587,7.648,0.718v10.04h2.152v-10.279
					c-0.479-5.977-10.998-5.26-10.998,0.479h2.152c0,0-0.717,0.237-0.717,1.194v5.019H445.632z M445.392,461.025
					c0.479,0,1.195,0.478,1.195,0.956c0,0.478-0.479,1.194-0.955,1.194c-0.719,0-1.195-0.479-1.195-0.956
					C444.437,461.503,444.914,461.025,445.392,461.025z"/>
				<path fill="#184E84" d="M452.085,443.573c-2.391,0-1.912,2.391-1.912,2.391c0.238,1.674,2.631,1.674,2.631,1.674
					c2.629,0.479,6.215-0.718,6.691-4.542h-1.434c0,0,0,3.348-3.824,3.348c0,0,0.479-0.479,0.238-1.436
					C454,444.052,453.042,443.573,452.085,443.573z M452.085,444.291c0.479,0,1.195,0.478,1.195,0.956
					c0,0.478-0.479,1.195-0.957,1.195c-0.717,0-1.193-0.479-1.193-0.956C450.89,445.008,451.369,444.529,452.085,444.291z"/>
				<path fill="#184E84" d="M462.605,450.506c0.479,0,1.195,0.479,1.195,0.957c0,0.479-0.479,1.195-0.957,1.195
					s-1.195-0.479-1.195-0.957S462.126,450.745,462.605,450.506z M469.298,449.55h-1.912v10.758c0,1.436-0.717,2.63-2.629,2.392
					c-1.436,0-2.631-0.956-2.631-2.151v-2.63c0-0.717,0.479-1.673,1.436-1.673h0.955v-1.195h-1.195
					c-0.955,0-1.674-0.957-1.674-1.913c0,0,0.48,0.479,1.436,0.479c2.869,0,2.869-4.064,0-4.064c-1.674,0-2.631,0.956-2.867,2.151
					c-0.48,0.957-0.24,1.913,0,2.869c0.236,0.479,0.717,0.956,1.434,1.194c-0.479,0.239-1.195,0.718-1.434,2.151v2.391
					c0,2.392,2.15,3.825,4.779,3.825s4.543-1.674,4.543-4.063V449.55H469.298z"/>
				<path fill="#184E84" d="M480.773,468.675c-4.541-3.347-5.02-7.648-5.02-12.431c0-4.543,0.957-8.606,5.02-11.236l-0.238-0.479
					c-4.779,2.869-7.41,6.934-7.41,11.953c0,6.216,3.348,10.279,7.172,12.671L480.773,468.675z"/>
				<path fill="#184E84" d="M483.642,453.854c0-1.435,1.674-3.107,4.064-3.107c2.15,0,3.824,0.718,3.824,3.347v9.802h2.152v-9.802
					c0-3.347-2.869-4.542-5.979-4.542c-2.629,0-5.26,1.913-5.26,4.305c0,2.15,1.436,3.106,1.436,4.063v5.977h1.912v-5.977
					c0-0.239,0-1.195,0.238-1.435c0,0,0.48,0.479,1.436,0.479c2.869,0.239,3.107-3.825,0-3.825c-2.391,0-2.869,1.913-3.107,2.869
					C484.837,455.766,483.642,455.526,483.642,453.854z M487.945,453.854c0.719,0,1.195,0.479,1.195,0.956
					c0,0.479-0.479,1.195-0.955,1.195c-0.717,0-1.195-0.479-1.195-0.956C486.75,454.331,487.228,453.854,487.945,453.854z"/>
				<path fill="#184E84" d="M499.181,450.745c0.717,0,1.195,0.479,1.195,0.956c0,0.479-0.479,1.195-0.955,1.195
					c-0.719,0-1.195-0.479-1.195-0.956C497.986,451.224,498.464,450.745,499.181,450.745z M507.548,461.264
					c0,0.957-0.717,1.436-1.674,1.436h-3.824V451.94c0-0.239,0.238-2.392-2.869-2.392c-3.346,0-3.107,4.064-0.238,4.064
					c0.238,0,0.717,0,0.955-0.239v9.563h-1.195v1.195h8.367c1.914,0,2.631-1.435,2.631-2.391v-20.32h-1.912L507.548,461.264z"/>
				<path fill="#184E84" d="M514.72,460.068c-2.869,0-2.869,3.824,0,3.824c1.195,0,2.15-0.717,2.15-1.911v-6.694
					c0,0,0-1.195,0.957-1.195h0.957v-1.194h-4.305c0.957-3.107,7.65-3.587,7.65,0.718v10.04h2.15v-10.279
					c-0.479-5.977-10.996-5.26-10.996,0.479h2.15c0,0-0.717,0.237-0.717,1.194v5.019H514.72z M514.72,461.025
					c0.479,0,1.195,0.478,1.195,0.956c0,0.478-0.479,1.194-0.955,1.194c-0.719,0-1.195-0.479-1.195-0.956
					C513.525,461.503,514.003,461.025,514.72,461.025z"/>
				<path fill="#184E84" d="M530.5,461.025c-0.955,0-1.674,0.717-1.674,1.673c0,0.718,0.719,1.674,1.674,1.674
					s1.674-0.718,1.674-1.674S531.455,461.025,530.5,461.025z"/>
				<path fill="#184E84" d="M535.757,469.153c4.305-2.392,7.172-6.934,7.172-11.714c0-8.13-5.977-12.433-7.172-12.91l-0.238,0.479
					c4.303,3.107,5.02,7.65,5.02,12.433c0,4.542-0.955,8.604-5.02,11.234L535.757,469.153z"/>
			</g>
			<g>
				<path fill="#184E84" d="M210.395,423.014c0,0-1.434-0.956-3.825-0.956c-2.391,0-4.542,1.436-5.499,3.108l0.717,0.478
					c0.478-0.717,1.673-2.15,4.064-2.15c2.629,0,3.347,0.956,3.347,0.956c-0.239,0-0.956,0.956-2.629,0.956
					c-2.63,0-4.303,1.674-4.303,3.586v5.021c0,0.956,0.717,2.63,2.869,2.63c3.108,0,2.63-4.78-0.956-3.824v-3.586
					c0-1.195,0.956-2.392,2.629-2.392s2.869,0.956,2.869,2.392v7.172h1.913v-10.279c0-1.195-0.478-1.913-0.478-1.913
					c1.435-1.434,1.435-3.347,1.435-3.347h-1.674C211.112,420.623,211.112,421.818,210.395,423.014z M208.482,425.644
					c0,0,0.717,0,1.195-0.478c0,0,0.239,0.478,0.239,1.434C209.917,426.361,209.199,425.883,208.482,425.644z M205.135,433.294
					c0.717,0,1.195,0.479,1.195,0.956s-0.478,1.195-0.956,1.195c-0.717,0-1.195-0.479-1.195-0.956
					C203.94,433.771,204.418,433.294,205.135,433.294z"/>
				<path fill="#184E84" d="M209.677,420.385c3.108,0,3.108-4.543,0-4.543C206.57,415.842,206.57,420.385,209.677,420.385z
					 M222.348,436.401v-11.235c0-2.391-1.434-3.108-4.064-3.108c-2.151,0-3.347,1.436-3.586,1.675v0.956
					c0,0,1.435-1.436,3.347-1.436c1.674,0,2.152,0.718,2.152,2.151v10.997H222.348L222.348,436.401z M209.677,417.037
					c0.479,0,1.195,0.479,1.195,0.957c0,0.478-0.478,1.195-0.956,1.195c-0.717,0-1.195-0.479-1.195-0.957
					C208.721,417.516,209.199,417.037,209.677,417.037z"/>
				<path fill="#184E84" d="M236.691,435.445c-1.195,0-1.195-1.912,0-1.912C238.365,433.533,238.365,435.445,236.691,435.445z
					 M227.846,422.775c0.478,0,1.195,0.478,1.195,0.956c0,0.478-0.478,1.194-0.956,1.194c-0.479,0-1.195-0.479-1.195-0.956
					C226.651,423.492,227.129,423.014,227.846,422.775z M237.887,422.058h-2.151v10.28c-3.825-0.239-5.259,1.912-5.259,1.912
					s0-9.802,0-10.041c0-0.238,0.239-2.391-2.869-2.391c-3.347,0-3.107,4.304-0.239,4.063c0.239,0,0.717,0,0.956-0.239v10.28h1.913
					c0,0,1.195-2.869,4.542-2.869c0,0-0.478,0.718-0.239,1.674s0.956,1.435,1.913,1.435c2.629,0,2.869-3.347,0.717-3.824
					l0.479-0.479v-9.803L237.887,422.058L237.887,422.058z"/>
				<path fill="#184E84" d="M235.257,415.842c-2.391,0-1.913,2.392-1.913,2.392c0.239,1.674,2.629,1.674,2.629,1.674
					c2.63,0.479,6.216-0.717,6.694-4.542h-1.673c0,0,0,3.347-3.825,3.347c0,0,0.479-0.479,0.239-1.435
					C237.169,416.56,236.453,415.842,235.257,415.842z M235.257,416.799c0.478,0,1.195,0.479,1.195,0.956
					c0,0.479-0.479,1.195-0.957,1.195c-0.717,0-1.195-0.479-1.195-0.956C234.062,417.276,234.779,416.799,235.257,416.799z"/>
				<path fill="#184E84" d="M251.035,426.361v10.04h1.913v-10.04c-0.239-5.978-10.997-5.261-10.997,0.478h1.913
					c0,0-0.717,0.239-0.717,1.195v8.367h1.913v-8.367c0,0,0-1.195,0.957-1.195h1.195v-1.195h-3.825
					C244.341,422.297,251.035,422.058,251.035,426.361z"/>
				<path fill="#184E84" d="M264.662,424.448c0-0.239,0.239-2.392-2.869-2.392s-3.108,4.064,0,4.064c0.239,0,0.717,0,0.957-0.239
					v8.128l-5.977-5.259v1.434l5.977,5.978h2.151C264.662,436.401,264.662,424.448,264.662,424.448z M262.032,423.014
					c0.717,0,1.195,0.479,1.195,0.957c0,0.479-0.478,1.195-0.957,1.195c-0.717,0-1.195-0.479-1.195-0.957
					C260.837,423.492,261.315,423.014,262.032,423.014z"/>
				<path fill="#184E84" d="M275.181,436.401v-11.235c0-2.391-1.435-3.108-3.825-3.108c-2.151,0-3.347,1.436-3.586,1.675v0.956
					c0,0,1.435-1.675,3.347-1.436c1.673,0,2.151,0.718,2.151,2.151v11.235h1.913V436.401L275.181,436.401z"/>
				<path fill="#184E84" d="M289.763,435.445c-1.195,0-1.195-1.912,0-1.912C291.197,433.533,291.197,435.445,289.763,435.445z
					 M280.679,422.775c0.478,0,1.195,0.478,1.195,0.956c0,0.478-0.479,1.194-0.957,1.194s-1.195-0.479-1.195-0.956
					C279.723,423.492,280.201,423.014,280.679,422.775z M290.958,422.058h-2.151v10.28c-3.825-0.239-5.259,1.912-5.259,1.912
					s0-9.802,0-10.041c0-0.238,0.239-2.391-2.869-2.391c-3.347,0-3.108,4.304-0.239,4.063c0.239,0,0.717,0,0.956-0.239v10.28h1.913
					c0,0,1.195-2.869,4.542-2.869c0,0-0.479,0.718-0.239,1.674c0.239,0.956,0.956,1.435,1.913,1.435c2.629,0,2.87-3.347,0.717-3.824
					l0.478-0.479v-9.803L290.958,422.058L290.958,422.058z"/>
				<path fill="#184E84" d="M295.501,426.122c0-1.435,1.672-3.108,4.063-3.108c2.152,0,3.826,0.719,3.826,3.349v9.801h2.15v-9.801
					c0-3.349-2.869-4.543-5.977-4.543c-2.631,0-5.259,1.913-5.259,4.304c0,2.151,1.434,3.107,1.434,4.063v5.978h1.914v-5.978
					c0-0.237,0-1.194,0.238-1.434c0,0,0.479,0.479,1.434,0.479c2.869,0.238,3.109-3.825,0-3.825c-2.391,0-2.867,1.913-3.105,2.869
					C296.457,428.273,295.501,428.034,295.501,426.122z M299.564,426.122c0.717,0,1.195,0.478,1.195,0.956
					c0,0.478-0.479,1.195-0.955,1.195c-0.719,0-1.195-0.479-1.195-0.956C298.369,426.839,299.085,426.361,299.564,426.122z"/>
				<path fill="#184E84" d="M323.47,435.445c-1.436,0-1.436-1.912,0-1.912S324.906,435.445,323.47,435.445z M312.712,433.294
					c0.479,0,1.195,0.479,1.195,0.956s-0.479,1.195-0.957,1.195s-1.193-0.479-1.193-0.956
					C311.517,434.011,311.996,433.533,312.712,433.294z M324.427,422.058h-2.152v10.28c-2.391,0-3.346,1.435-3.346,1.435v-7.649
					c-0.24-5.977-10.281-5.26-10.281,0.478h1.914c0,0-0.719,0.239-0.719,1.195v5.978c0,0.957,0.479,2.868,2.869,2.63
					c3.107,0,2.631-4.781-0.955-3.825v-5.021c0,0,0-0.957,0.955-0.957h1.195v-1.194h-4.064c0.957-3.107,6.934-3.586,7.172,0.718
					v10.04h1.914c0,0,0.717-2.629,2.629-2.868c0,0-0.717,0.717-0.238,1.673c0.238,0.957,0.955,1.436,1.912,1.436
					c2.629,0,2.629-3.348,0.479-3.825c0,0,0.479,0,0.479-0.479V422.06h0.238V422.058z"/>
				<path fill="#184E84" d="M330.642,423.014c-2.629,0-2.15,2.392-2.15,2.392c0.238,1.674,2.867,1.913,2.867,1.913
					c2.869,0.238,5.738-0.719,6.217-4.305h-1.436c0,0,0,3.108-3.824,3.108c0,0,0.479-0.479,0.238-1.674
					C332.554,423.492,331.837,423.014,330.642,423.014z M330.642,431.381c-2.629,0-2.15,2.392-2.15,2.392
					c0.238,1.674,2.867,1.912,2.867,1.912c2.869,0.239,5.738-0.718,6.217-4.304h-1.436c0,0,0,3.108-3.824,3.108
					c0,0,0.479-0.479,0.238-1.674C332.554,432.099,331.837,431.381,330.642,431.381z M330.642,432.338
					c0.717,0,1.195,0.479,1.195,0.956c0,0.479-0.479,1.195-1.195,1.195c-0.479,0-1.195-0.479-1.195-0.956
					C329.687,432.815,330.164,432.338,330.642,432.338z M330.642,423.971c0.479,0,1.195,0.479,1.195,0.956
					c0,0.479-0.479,1.195-1.195,1.195c-0.479,0-1.195-0.479-1.195-0.956C329.447,424.448,329.925,423.971,330.642,423.971z"/>
				<path fill="#184E84" d="M349.529,426.361v10.04h1.912v-10.04c-0.238-5.978-10.996-5.261-10.996,0.478h1.912
					c0,0-0.717,0.239-0.717,1.195v8.367h1.912v-8.367c0,0,0-1.195,0.955-1.195h1.195v-1.195h-4.063
					C342.835,422.297,349.529,422.058,349.529,426.361z"/>
				<path fill="#184E84" d="M362.437,427.078c0-0.717-0.955-1.195-1.195-1.195l-5.258-1.195c0.479-1.194,1.195-1.674,4.541-0.717
					c0,0,2.391,0.717,3.107-1.674c0-0.479-0.238-0.479-0.479-0.239c-0.955,0.956-3.107-0.478-5.02-0.478
					c-2.631,0-3.586,3.106-3.826,3.586l5.26,1.195c0.479,0,0.717,0.478,0.479,0.956v4.78c-0.238-0.238-0.479-0.238-0.955-0.238
					c-2.869,0-3.107,4.063,0,4.063s2.869-2.152,2.869-2.391v-6.455L362.437,427.078L362.437,427.078z M359.57,433.055
					c0.717,0,1.195,0.479,1.195,0.956c0,0.479-0.48,0.956-0.957,1.195c-0.479,0-1.195-0.479-1.195-0.956
					S359.091,433.294,359.57,433.055z"/>
				<path fill="#184E84" d="M373.673,427.078c0-0.717-0.955-1.195-1.195-1.195l-5.26-1.195c0.479-1.194,1.195-1.674,4.543-0.717
					c0,0,2.391,0.717,3.107-1.674c0-0.479-0.238-0.479-0.479-0.239c-0.957,0.956-3.107-0.478-5.021-0.478
					c-2.629,0-3.586,3.106-3.824,3.586l5.26,1.195c0.479,0,0.717,0.478,0.479,0.956v4.78c0-0.238-0.479-0.238-0.957-0.238
					c-2.869,0-3.107,4.063,0,4.063s2.869-2.152,2.869-2.391v-6.455L373.673,427.078L373.673,427.078z M370.804,433.055
					c0.719,0,1.195,0.479,1.195,0.956c0,0.479-0.479,0.956-0.955,1.195c-0.479,0-1.195-0.479-1.195-0.956
					S370.328,433.294,370.804,433.055z"/>
				<path fill="#184E84" d="M380.367,434.729c0,0.479-0.477,0.479-0.717,0.479c-0.717-0.479-0.717-2.63,0.717-2.391V434.729z
					 M379.412,423.014c0.479,0,1.195,0.479,1.195,0.957c0,0.479-0.479,1.195-0.957,1.195c-0.717,0-1.195-0.479-1.195-0.957
					C378.216,423.492,378.695,423.014,379.412,423.014z M389.212,422.058H387.3v12.192c-1.674-1.912-4.781-2.63-4.781-2.63v-7.411
					c0-0.238,0.238-2.391-2.869-2.391c-3.346,0-3.105,4.063-0.238,4.063c0.238,0,0.719,0,0.955-0.239v5.499
					c-3.346,0-3.586,5.021,0,5.021c2.152,0,2.152-1.195,2.152-3.347c0,0,3.107,0.479,4.781,3.347h2.15v-14.104H389.212
					L389.212,422.058z"/>
				<path fill="#184E84" d="M401.644,426.361v10.04h1.912v-10.04c-0.238-5.978-10.996-5.261-10.996,0.478h1.912
					c0,0-0.717,0.239-0.717,1.195v8.367h1.912v-8.367c0,0,0-1.195,0.955-1.195h1.195v-1.195h-3.824
					C394.951,422.297,401.644,422.058,401.644,426.361z"/>
				<path fill="#184E84" d="M414.076,436.401v-11.235c0-2.391-1.436-3.108-3.826-3.108c-2.15,0-3.346,1.436-3.586,1.675v0.956
					c0,0,1.436-1.675,3.35-1.436c1.672,0,2.15,0.718,2.15,2.151v11.235h1.912V436.401L414.076,436.401z"/>
				<path fill="#184E84" d="M425.072,427.078c0-0.717-0.955-1.195-1.193-1.195l-5.262-1.195c0.48-1.194,1.195-1.674,4.543-0.717
					c0,0,2.393,0.717,3.107-1.674c0-0.479-0.238-0.479-0.479-0.239c-0.957,0.956-3.107-0.478-5.02-0.478
					c-2.631,0-3.586,3.106-3.826,3.586l5.26,1.195c0.479,0,0.719,0.478,0.479,0.956v4.78c0-0.238-0.479-0.238-0.955-0.238
					c-2.869,0-3.109,4.063,0,4.063c3.105,0,2.867-2.152,2.867-2.391v-6.455L425.072,427.078L425.072,427.078z M422.203,433.055
					c0.719,0,1.195,0.479,1.195,0.956c0,0.479-0.477,0.956-0.955,1.195c-0.479,0-1.195-0.479-1.195-0.956
					S421.726,433.294,422.203,433.055z"/>
				<path fill="#184E84" d="M437.742,426.361v10.04h1.914v-10.04c-0.24-5.978-10.998-5.261-10.998,0.478h1.912
					c0,0-0.717,0.239-0.717,1.195v8.367h1.912v-8.367c0,0,0-1.195,0.957-1.195h1.195v-1.195h-4.064
					C431.048,422.297,437.742,422.058,437.742,426.361z"/>
				<path fill="#184E84" d="M437.742,420.385c3.109,0,3.109-4.543,0-4.543C434.634,415.842,434.634,420.385,437.742,420.385z
					 M450.173,436.401v-11.235c0-2.391-1.436-3.108-4.064-3.108c-2.15,0-3.346,1.436-3.586,1.675v0.956c0,0,1.436-1.436,3.348-1.436
					c1.674,0,2.152,0.718,2.152,2.151v10.997H450.173L450.173,436.401z M437.742,417.037c0.48,0,1.195,0.479,1.195,0.957
					c0,0.478-0.477,1.195-0.955,1.195c-0.717,0-1.195-0.479-1.195-0.957C436.546,417.516,437.025,417.037,437.742,417.037z"/>
				<path fill="#184E84" d="M462.605,426.361v10.04h1.912v-10.04c-0.238-5.978-10.996-5.261-10.996,0.478h1.912
					c0,0-0.717,0.239-0.717,1.195v8.367h1.912v-8.367c0,0,0-1.195,0.957-1.195h1.193v-1.195h-4.063
					C455.912,422.297,462.605,422.058,462.605,426.361z"/>
				<path fill="#184E84" d="M461.648,415.842c-2.391,0-1.912,2.392-1.912,2.392c0.24,1.674,2.631,1.674,2.631,1.674
					c2.629,0.479,6.217-0.717,6.693-4.542h-1.436c0,0,0,3.347-3.824,3.347c0,0,0.479-0.479,0.238-1.435
					C463.562,416.56,462.843,415.842,461.648,415.842z M461.648,416.799c0.48,0,1.195,0.479,1.195,0.956
					c0,0.479-0.479,1.195-0.955,1.195c-0.717,0-1.195-0.479-1.195-0.956C460.693,417.276,461.171,416.799,461.648,416.799z"/>
				<path fill="#184E84" d="M470.494,423.014c0.48,0,1.195,0.479,1.195,0.957c0,0.479-0.479,1.195-0.955,1.195
					c-0.479,0-1.195-0.479-1.195-0.957C469.539,423.492,470.015,423.014,470.494,423.014z M480.773,422.058h-2.15v11.477
					c0,1.195-0.717,1.673-1.436,1.673h-3.824v-10.758c0-0.239,0.238-2.392-2.869-2.392c-3.346,0-3.105,4.064-0.238,4.064
					c0.238,0,0.719,0,0.957-0.239v9.323h-1.195v1.195h8.129c1.912,0,2.629-0.718,2.629-2.392v-11.952H480.773z"/>
				<path fill="#184E84" d="M487.468,422.058h-1.914v11.953c0,1.195,0.957,2.63,2.631,2.63c2.869,0,2.869-3.824,0-3.824
					c-0.24,0-0.24,0-0.479,0v-10.759H487.468z M493.921,422.058h-1.912v11.953c0,1.195,0.957,2.63,2.631,2.63
					c2.867,0,2.629-3.824,0-3.824c-0.24,0-0.24,0-0.48,0v-10.759H493.921z M487.945,433.294c0.719,0,1.195,0.479,1.195,0.956
					s-0.479,1.195-0.955,1.195c-0.717,0-1.195-0.479-1.195-0.956C486.75,434.011,487.228,433.533,487.945,433.294z M494.64,433.533
					c0.477,0,1.195,0.478,1.195,0.956c0,0.478-0.48,1.194-0.957,1.194c-0.479,0-1.195-0.479-1.195-0.956
					C493.445,434.011,493.921,433.533,494.64,433.533z"/>
				<path fill="#184E84" d="M507.31,426.361c0,0-1.195-1.195-3.348-1.195c-2.631,0-4.303,1.673-4.303,3.586v5.02
					c0,0.957,0.717,2.631,2.867,2.631c3.109,0,2.631-4.781-0.955-3.825v-3.824c0-1.195,0.955-2.391,2.629-2.391
					s2.869,0.956,2.869,2.391v7.41h1.912v-10.52c0.479-4.063-7.41-5.977-10.996-0.956l0.717,0.479
					c0.479-0.718,1.674-2.152,4.064-2.152C505.158,423.253,507.548,423.731,507.31,426.361z M502.529,433.294
					c0.717,0,1.195,0.479,1.195,0.956s-0.479,1.195-0.957,1.195c-0.717,0-1.195-0.479-1.195-0.956
					C501.332,434.011,501.812,433.533,502.529,433.294z"/>
				<path fill="#184E84" d="M515.437,423.014c-2.629,0-2.15,2.392-2.15,2.392c0.238,1.674,2.869,1.913,2.869,1.913
					c2.867,0.238,5.736-0.719,6.215-4.305h-1.434c0,0,0,3.108-3.826,3.108c0,0,0.48-0.479,0.24-1.674
					C517.351,423.492,516.632,423.014,515.437,423.014z M515.437,431.381c-2.629,0-2.15,2.392-2.15,2.392
					c0.238,1.674,2.869,1.912,2.869,1.912c2.867,0.239,5.736-0.718,6.215-4.304h-1.434c0,0,0,3.108-3.826,3.108
					c0,0,0.48-0.479,0.24-1.674C517.351,432.099,516.632,431.381,515.437,431.381z M515.437,432.338
					c0.719,0,1.195,0.479,1.195,0.956c0,0.479-0.479,1.195-1.195,1.195c-0.479,0-1.195-0.479-1.195-0.956
					C514.482,432.815,514.96,432.338,515.437,432.338z M515.437,423.971c0.479,0,1.195,0.479,1.195,0.956
					c0,0.479-0.479,1.195-1.195,1.195c-0.479,0-1.195-0.479-1.195-0.956C514.242,424.448,514.72,423.971,515.437,423.971z"/>
				<path fill="#184E84" d="M534.324,423.014c0,0-1.434-0.956-3.824-0.956s-4.543,1.436-5.5,3.108l0.719,0.478
					c0.479-0.717,1.674-2.15,4.063-2.15c2.631,0,3.35,0.956,3.35,0.956c-0.24,0-0.957,0.956-2.631,0.956
					c-2.631,0-4.305,1.674-4.305,3.586v5.021c0,0.956,0.719,2.63,2.869,2.63c3.107,0,2.631-4.78-0.955-3.824v-3.586
					c0-1.195,0.955-2.392,2.629-2.392s2.869,0.956,2.869,2.392v7.172h1.912v-10.279c0-1.195-0.479-1.913-0.479-1.913
					c1.436-1.434,1.436-3.347,1.436-3.347h-1.436C535.041,420.623,535.281,421.818,534.324,423.014z M532.412,425.644
					c0,0,0.719,0,1.195-0.478c0,0,0.238,0.478,0.238,1.434C533.845,426.361,533.367,425.883,532.412,425.644z M529.064,433.294
					c0.717,0,1.195,0.479,1.195,0.956s-0.479,1.195-0.955,1.195c-0.719,0-1.195-0.479-1.195-0.956
					C527.869,433.771,528.347,433.294,529.064,433.294z"/>
				<polygon fill="#184E84" points="534.562,420.385 536.236,420.385 536.476,414.886 534.085,414.886 				"/>
				<path fill="#184E84" d="M547.951,424.448c0-0.239,0.238-2.392-2.869-2.392s-3.107,4.064,0,4.064c0.238,0,0.719,0,0.957-0.239
					v8.128l-5.977-5.259v1.434l5.977,5.978h2.15C547.951,436.401,547.951,424.448,547.951,424.448z M545.082,423.014
					c0.719,0,1.195,0.479,1.195,0.957c0,0.479-0.479,1.195-0.957,1.195c-0.717,0-1.193-0.479-1.193-0.957
					C543.886,423.492,544.365,423.014,545.082,423.014z"/>
				<path fill="#184E84" d="M554.644,422.058h-1.912v11.953c0,1.195,0.955,2.63,2.629,2.63c2.869,0,2.869-3.824,0-3.824
					c-0.238,0-0.238,0-0.479,0v-10.759H554.644z M555.123,433.294c0.719,0,1.195,0.479,1.195,0.956s-0.479,1.195-0.957,1.195
					c-0.477,0-1.195-0.479-1.195-0.956C553.927,434.011,554.406,433.294,555.123,433.294z"/>
				<path fill="#184E84" d="M568.509,423.014c0,0-1.436-0.956-3.824-0.956c-2.391,0-4.543,1.436-5.498,3.108l0.717,0.478
					c0.479-0.717,1.674-2.15,4.064-2.15c2.629,0,3.346,0.956,3.346,0.956c-0.238,0-0.955,0.956-2.629,0.956
					c-2.631,0-4.303,1.674-4.303,3.586v5.021c0,0.956,0.717,2.63,2.867,2.63c3.107,0,2.631-4.78-0.955-3.824v-3.586
					c0-1.195,0.955-2.392,2.629-2.392s2.869,0.956,2.869,2.392v7.172h1.912v-10.279c0-1.195-0.479-1.913-0.479-1.913
					c1.434-1.434,1.434-3.347,1.434-3.347h-1.672C569.226,420.623,569.466,421.818,568.509,423.014z M566.597,425.644
					c0,0,0.717,0,1.195-0.478c0,0,0.238,0.478,0.238,1.434C568.031,426.361,567.554,425.883,566.597,425.644z M563.25,433.294
					c0.719,0,1.195,0.479,1.195,0.956s-0.479,1.195-0.957,1.195c-0.717,0-1.193-0.479-1.193-0.956
					C562.054,433.771,562.533,433.294,563.25,433.294z"/>
				<path fill="#184E84" d="M580.941,427.078c0-0.717-0.957-1.195-1.195-1.195l-5.26-1.195c0.48-1.194,1.195-1.674,4.543-0.717
					c0,0,2.391,0.717,3.107-1.674c0-0.479-0.238-0.479-0.479-0.239c-0.957,0.956-3.107-0.478-5.021-0.478
					c-2.629,0-3.586,3.106-3.824,3.586l5.26,1.195c0.479,0,0.717,0.478,0.479,0.956v4.78c0-0.238-0.479-0.238-0.957-0.238
					c-2.867,0-3.107,4.063,0,4.063s2.869-2.152,2.869-2.391v-6.455L580.941,427.078L580.941,427.078z M578.072,433.055
					c0.717,0,1.195,0.479,1.195,0.956c0,0.479-0.479,0.956-0.955,1.195c-0.48,0-1.195-0.479-1.195-0.956
					S577.593,433.294,578.072,433.055z"/>
				<path fill="#184E84" d="M576.398,415.364c-2.629-0.239-5.02,1.673-5.498,3.825c0,0,2.391-0.479,5.26,0
					c2.152,0.237,5.738,1.911,5.738,1.911C581.898,417.755,579.507,415.604,576.398,415.364z M580.703,419.667
					c0,0-1.914-0.956-4.305-1.195c-1.434-0.238-3.824,0-3.824,0c0.717-0.956,2.152-1.673,3.824-1.435
					C578.312,417.037,579.984,417.755,580.703,419.667z"/>
				<path fill="#184E84" d="M588.113,434.729c0,0.479-0.479,0.479-0.717,0.479c-0.717-0.479-0.717-2.63,0.717-2.391V434.729z
					 M587.156,423.014c0.48,0,1.195,0.479,1.195,0.957c0,0.479-0.479,1.195-0.955,1.195c-0.717,0-1.195-0.479-1.195-0.957
					C585.96,423.492,586.439,423.014,587.156,423.014z M596.957,422.058h-2.15v12.192c-1.674-1.912-4.781-2.63-4.781-2.63v-7.411
					c0-0.238,0.24-2.391-2.869-2.391c-3.346,0-3.105,4.063-0.236,4.063c0.236,0,0.717,0,0.955-0.239v5.499
					c-3.348,0-3.586,5.021,0,5.021c2.15,0,2.15-1.195,2.15-3.347c0,0,3.107,0.479,4.781,3.347h2.15V422.058L596.957,422.058z"/>
			</g>
		</g>
	</g>
	<g>
		<polygon fill="#FFFFFF" points="-5,396 84.409,300.375 173.579,396 84.409,491.625 		"/>
		<g>
			<g>
				<g>
					<g>
						<polygon id="SVGID_1_" fill="#184E84" points="0.976,396 84.409,306.83 167.603,396 84.409,485.17 						"/>
					</g>
					<g>
						<g>
							<defs>
								<polygon id="SVGID_2_" points="0.976,396 84.409,306.83 167.603,396 84.409,485.17 								"/>
							</defs>
							<clipPath id="SVGID_3_">
								<use xlink:href="#SVGID_2_"  overflow="visible"/>
							</clipPath>
							<path clip-path="url(#SVGID_3_)" fill="#EFD395" d="M84.409,483.019l3.347-87.257h-2.391L84.409,483.019z M89.907,395.761
								l-5.738,87.258l8.128-87.258H89.907z M84.409,483.019l-5.499-87.257h-2.629L84.409,483.019z M80.823,395.761l3.347,87.258
								l-0.956-87.258H80.823z M84.409,483.019l-10.28-87.257l10.28-86.301l10.28,86.301L84.409,483.019z M84.409,308.264
								l-68.372,87.497h-1.673L84.409,308.264l69.806,87.497h-1.913L84.409,308.264l59.048,87.497h-1.673L84.409,308.264
								l49.247,87.497h-1.674L84.409,308.264l39.685,87.497h-1.674L84.409,308.264l29.883,87.497h-1.673L84.409,308.264
								l20.32,87.497h-1.673L84.409,308.264l-18.408,87.497h-1.913L84.409,308.264l-28.21,87.497h-1.673L84.409,308.264
								l-38.011,87.497h-1.674L84.409,308.264l-47.573,87.497h-1.674L84.409,308.264l-57.375,87.497h-1.673L84.409,308.264z"/>
						</g>
					</g>
				</g>
			</g>
		</g>
	</g>
</g>
</svg>
