 <svg  version="1.0" xmlns="http://www.w3.org/2000/svg"  width="900.000000pt" height="837.000000pt" viewBox="0 0 900.000000 837.000000"  preserveAspectRatio="xMidYMid meet">  <g transform="translate(0.000000,837.000000) scale(0.100000,-0.100000)" fill="#ffffff" stroke="none"> <path d="M4200 8225 c-47 -7 -112 -14 -146 -14 -33 -1 -83 -8 -110 -16 -27 -8 -68 -15 -90 -15 -23 0 -61 -7 -84 -15 -23 -8 -56 -15 -72 -15 -16 0 -38 -5 -49 -11 -11 -6 -41 -14 -67 -19 -26 -4 -62 -13 -79 -19 -18 -6 -48 -16 -65 -22 -18 -6 -50 -14 -70 -19 -21 -4 -43 -12 -50 -17 -7 -6 -24 -13 -38 -16 -28 -6 -79 -23 -130 -45 -19 -8 -50 -21 -67 -28 -61 -26 -108 -47 -123 -56 -8 -4 -22 -11 -30 -14 -31 -13 -157 -77 -215 -110 -33 -18 -69 -38 -80 -44 -11 -6 -33 -19 -50 -30 -16 -11 -37 -23 -45 -27 -8 -3 -31 -19 -51 -35 -20 -15 -40 -28 -43 -28 -8 0 -244 -176 -267 -199 -9 -9 -38 -34 -65 -56 -82 -66 -291 -274 -383 -380 -86 -99 -271 -338 -271 -351 0 -3 -13 -23 -28 -43 -16 -20 -32 -43 -35 -51 -4 -8 -16 -28 -27 -45 -11 -16 -24 -39 -30 -50 -6 -11 -19 -33 -29 -50 -30 -46 -151 -289 -151 -301 0 -6 -7 -17 -15 -24 -8 -7 -15 -23 -15 -35 0 -12 -7 -28 -15 -35 -8 -7 -15 -22 -15 -34 0 -11 -7 -30 -15 -40 -8 -11 -15 -29 -15 -40 0 -12 -7 -30 -15 -40 -8 -11 -15 -29 -15 -40 0 -12 -7 -30 -15 -40 -8 -11 -15 -32 -15 -46 0 -14 -7 -35 -15 -46 -8 -10 -15 -32 -15 -49 0 -16 -7 -41 -15 -55 -8 -14 -15 -38 -15 -55 0 -16 -7 -41 -15 -55 -8 -14 -14 -41 -15 -61 0 -20 -7 -53 -15 -72 -8 -20 -15 -54 -15 -75 0 -22 -7 -59 -15 -82 -8 -23 -15 -68 -15 -99 0 -31 -7 -92 -15 -136 -10 -57 -14 -159 -14 -360 0 -201 4 -303 14 -360 8 -44 15 -103 15 -131 0 -28 7 -73 15 -100 8 -27 15 -66 15 -87 0 -21 7 -54 15 -74 8 -19 15 -52 15 -72 1 -20 7 -47 15 -61 8 -14 15 -38 15 -55 0 -16 7 -41 15 -55 8 -14 15 -38 15 -55 0 -16 7 -39 15 -49 8 -11 15 -31 15 -45 0 -14 7 -35 15 -45 8 -11 15 -29 15 -41 0 -12 7 -30 15 -41 8 -10 15 -28 15 -40 0 -11 7 -29 15 -40 8 -10 15 -29 15 -40 0 -12 7 -27 15 -34 8 -7 15 -23 15 -35 0 -12 7 -28 15 -35 8 -7 15 -17 15 -23 0 -10 85 -186 110 -227 5 -8 11 -22 14 -30 4 -8 15 -28 26 -45 11 -16 24 -39 30 -50 6 -11 19 -33 30 -50 11 -16 23 -37 27 -45 3 -8 19 -31 35 -51 15 -20 28 -40 28 -43 0 -8 176 -243 199 -267 9 -9 34 -38 56 -65 51 -64 302 -315 384 -385 35 -30 71 -61 80 -70 29 -29 220 -169 230 -169 5 0 11 -3 13 -7 5 -11 66 -53 77 -53 5 0 11 -3 13 -7 4 -10 65 -53 74 -53 3 0 26 -13 51 -30 24 -16 50 -30 58 -30 8 0 17 -5 20 -11 4 -5 17 -14 28 -20 12 -5 30 -13 40 -19 9 -5 25 -15 35 -20 9 -6 24 -13 32 -16 8 -3 22 -10 30 -15 8 -5 22 -12 30 -15 8 -3 22 -10 30 -15 8 -5 22 -12 30 -15 24 -9 83 -35 113 -50 16 -8 37 -14 47 -14 9 0 23 -6 29 -14 6 -8 24 -16 39 -19 29 -5 80 -22 127 -42 17 -8 41 -16 55 -18 24 -5 40 -10 120 -37 19 -7 56 -16 82 -20 26 -5 56 -13 67 -19 11 -6 36 -11 56 -11 19 0 52 -7 72 -15 19 -8 54 -15 77 -15 23 0 57 -5 76 -11 19 -6 85 -15 145 -20 61 -5 142 -13 180 -18 104 -15 384 -13 510 4 61 8 135 15 165 15 30 0 80 7 110 15 30 8 72 15 92 15 20 0 49 5 65 11 15 6 51 15 78 19 57 10 126 27 170 42 17 6 46 13 65 16 19 2 44 11 55 18 11 8 31 14 45 14 15 0 35 7 46 15 10 8 30 15 44 15 14 0 34 7 44 15 11 8 28 15 37 15 10 0 30 6 46 14 15 7 44 20 63 28 58 24 114 50 130 59 8 5 22 12 30 15 20 8 151 73 170 84 8 5 22 11 30 14 8 4 29 15 45 26 17 11 39 24 50 30 11 6 34 19 50 30 17 11 37 23 45 27 8 3 31 19 51 35 20 15 40 28 43 28 13 0 251 184 356 274 128 110 237 218 331 328 40 46 75 85 78 88 4 3 36 43 71 90 35 47 68 88 73 91 5 4 14 16 20 27 7 12 36 55 65 97 28 41 52 78 52 81 0 3 11 20 24 37 14 18 30 43 35 57 6 14 20 39 31 55 11 17 31 53 45 80 27 52 38 74 55 103 6 9 13 24 16 32 3 8 10 22 15 30 5 8 12 22 15 30 3 8 12 30 20 48 8 17 21 49 30 70 9 20 23 50 30 65 8 16 14 36 14 45 0 9 7 26 15 36 8 11 15 29 15 41 0 12 7 30 15 41 8 10 15 31 15 45 0 14 7 34 15 45 8 10 15 33 15 49 0 17 7 41 15 55 8 14 15 39 15 55 0 17 7 41 15 55 8 14 14 40 15 58 0 18 7 49 15 69 8 19 15 52 15 73 0 20 7 59 15 86 8 27 15 69 15 94 0 25 7 81 15 125 18 99 21 658 4 750 -6 33 -14 96 -19 140 -7 78 -20 155 -42 245 -6 25 -14 65 -17 90 -4 25 -13 55 -19 67 -7 12 -12 34 -12 50 -1 15 -7 39 -15 53 -8 14 -15 39 -15 55 0 17 -7 39 -15 49 -8 11 -15 31 -15 45 0 14 -7 35 -15 45 -8 11 -15 29 -15 41 0 12 -7 30 -15 41 -8 10 -15 27 -15 36 0 9 -6 29 -14 45 -7 15 -21 46 -31 68 -9 22 -24 56 -32 75 -8 19 -19 42 -24 50 -5 8 -12 22 -15 30 -9 22 -44 93 -54 110 -5 8 -11 22 -14 30 -4 8 -15 29 -26 45 -10 17 -30 50 -42 75 -13 25 -59 98 -103 163 -44 66 -86 130 -93 143 -7 13 -17 24 -23 24 -5 0 -9 7 -9 15 0 8 -4 15 -8 15 -5 0 -30 29 -56 65 -26 36 -54 71 -61 79 -7 7 -35 39 -63 72 -73 88 -225 241 -322 324 -47 40 -87 76 -90 80 -8 11 -289 220 -296 220 -3 0 -23 13 -43 28 -20 16 -43 32 -51 35 -8 4 -28 16 -45 27 -16 11 -39 24 -50 30 -11 6 -33 19 -50 29 -16 11 -91 50 -165 86 -130 65 -155 77 -237 111 -21 9 -51 23 -66 30 -16 8 -35 14 -44 14 -8 0 -27 6 -41 14 -37 19 -91 37 -127 44 -16 2 -39 11 -50 18 -11 8 -33 14 -50 14 -16 1 -41 7 -55 15 -14 8 -38 15 -55 15 -16 0 -41 7 -55 15 -14 8 -41 14 -61 15 -20 0 -56 7 -79 15 -23 8 -57 15 -76 15 -18 0 -59 7 -91 15 -31 8 -82 15 -113 15 -30 0 -100 7 -155 15 -124 18 -456 18 -575 0z m550 -165 c138 -8 217 -18 340 -42 30 -5 78 -14 105 -18 28 -5 70 -14 95 -20 101 -27 157 -42 185 -52 17 -5 41 -12 55 -15 14 -3 39 -11 57 -19 17 -8 39 -14 50 -14 10 0 27 -7 37 -15 11 -8 28 -15 37 -15 10 0 30 -6 46 -14 15 -7 45 -21 66 -30 74 -31 104 -45 237 -111 74 -37 149 -75 165 -86 17 -10 39 -23 50 -29 44 -24 256 -163 277 -183 8 -7 29 -23 48 -37 132 -93 431 -374 535 -502 28 -34 57 -69 66 -79 9 -9 46 -57 83 -105 36 -49 70 -94 76 -101 5 -7 10 -15 10 -19 0 -3 14 -23 30 -44 17 -21 30 -40 30 -43 0 -3 13 -25 29 -49 16 -24 39 -61 51 -83 12 -22 30 -53 40 -70 18 -30 110 -214 134 -270 34 -77 49 -112 62 -138 8 -16 14 -35 14 -44 0 -8 6 -27 14 -41 15 -30 33 -81 46 -127 5 -16 14 -46 20 -65 7 -19 16 -48 22 -65 6 -16 13 -48 17 -70 4 -22 12 -56 18 -75 15 -46 34 -141 43 -215 4 -33 12 -85 18 -115 15 -76 34 -334 34 -466 1 -132 -19 -408 -34 -484 -6 -30 -14 -82 -18 -115 -9 -71 -27 -160 -45 -230 -29 -108 -47 -171 -57 -200 -5 -16 -13 -43 -18 -60 -13 -46 -31 -97 -46 -127 -8 -14 -14 -33 -14 -41 0 -9 -6 -28 -14 -44 -7 -15 -21 -45 -30 -65 -34 -80 -46 -106 -96 -208 -29 -58 -60 -118 -70 -135 -10 -16 -28 -47 -39 -67 -11 -21 -33 -57 -48 -80 -15 -24 -32 -51 -38 -60 -34 -57 -193 -276 -224 -308 -9 -9 -34 -38 -56 -66 -66 -83 -310 -325 -397 -394 -44 -36 -87 -71 -95 -79 -8 -8 -29 -24 -47 -36 -18 -12 -44 -32 -58 -45 -15 -12 -36 -28 -47 -34 -11 -6 -53 -33 -93 -61 -77 -53 -101 -67 -133 -85 -11 -6 -47 -26 -80 -44 -63 -35 -246 -127 -303 -151 -18 -8 -47 -21 -65 -28 -17 -8 -52 -22 -77 -32 -25 -9 -58 -23 -73 -31 -16 -8 -39 -14 -51 -14 -12 0 -31 -7 -42 -15 -10 -8 -29 -15 -41 -15 -12 0 -37 -6 -55 -14 -36 -15 -99 -32 -163 -45 -22 -5 -60 -13 -85 -19 -177 -42 -315 -61 -520 -73 -203 -11 -561 -2 -653 17 -38 8 -85 14 -105 14 -33 0 -81 9 -222 42 -25 6 -63 14 -85 17 -22 4 -50 13 -62 19 -12 7 -34 12 -48 12 -14 0 -36 5 -48 12 -12 6 -35 15 -52 19 -50 12 -221 74 -295 107 -46 20 -92 39 -110 46 -8 3 -22 10 -30 15 -8 5 -49 26 -90 46 -91 45 -155 82 -345 198 -29 18 -295 217 -314 236 -10 9 -45 38 -78 65 -118 96 -327 319 -443 471 -29 39 -56 72 -59 75 -4 3 -22 28 -41 55 -18 28 -52 77 -74 110 -44 65 -59 89 -76 120 -6 11 -19 34 -29 50 -19 29 -169 329 -195 390 -8 17 -21 50 -31 75 -9 25 -23 60 -31 78 -8 18 -14 41 -14 50 0 10 -6 26 -14 37 -7 11 -16 34 -18 50 -3 17 -10 44 -16 60 -6 17 -17 55 -25 85 -8 30 -22 80 -31 111 -9 31 -16 66 -16 79 0 13 -6 46 -14 74 -27 96 -43 233 -61 549 -9 148 8 472 30 585 8 40 15 88 15 107 0 20 6 61 14 93 34 137 39 159 46 197 4 22 13 55 19 73 6 17 16 47 22 65 6 17 14 46 17 62 2 17 11 39 18 50 8 11 14 27 14 37 0 9 6 32 14 50 8 18 22 53 31 78 22 57 36 89 73 170 17 36 33 72 36 80 3 8 10 23 16 32 21 37 30 55 55 103 15 28 35 64 45 80 11 17 24 39 30 50 17 32 32 55 85 133 28 40 55 82 61 93 6 11 22 32 34 47 13 14 33 40 44 56 12 17 31 42 43 56 11 14 53 63 93 110 132 156 337 350 495 470 39 29 72 56 73 61 2 5 8 9 14 9 5 0 36 20 68 45 32 25 62 45 65 45 4 0 24 14 45 30 21 17 43 30 48 30 6 0 17 6 24 13 7 7 24 18 38 24 14 7 48 26 75 42 46 27 169 90 205 105 8 3 22 10 30 14 8 5 31 16 50 24 40 17 89 38 140 60 48 20 99 38 138 48 18 4 38 12 45 18 7 5 26 12 42 15 17 2 44 9 60 15 29 10 88 26 185 52 25 6 72 15 105 20 33 5 73 13 88 19 16 6 47 11 70 11 23 0 60 5 82 11 89 24 468 34 715 19z"/> <path d="M4295 7965 c-5 -2 -64 -8 -130 -14 -125 -12 -281 -35 -350 -53 -22 -5 -60 -13 -85 -17 -44 -7 -57 -11 -166 -45 -29 -9 -57 -16 -64 -16 -7 0 -26 -6 -43 -13 -46 -20 -98 -38 -132 -46 -17 -4 -39 -13 -50 -18 -11 -6 -40 -19 -65 -28 -71 -28 -289 -130 -330 -155 -8 -6 -44 -26 -80 -47 -149 -84 -351 -226 -495 -347 -105 -89 -348 -333 -420 -424 -88 -109 -191 -247 -222 -297 -71 -113 -103 -165 -130 -213 -32 -55 -121 -235 -148 -297 -76 -175 -76 -175 -117 -305 -11 -36 -27 -80 -34 -98 -8 -18 -14 -40 -14 -50 0 -9 -6 -37 -14 -62 -20 -65 -38 -137 -47 -195 -4 -27 -12 -79 -18 -115 -35 -209 -41 -288 -41 -545 0 -257 6 -336 41 -545 6 -36 14 -87 18 -115 9 -58 27 -130 47 -195 8 -25 14 -53 14 -62 0 -10 6 -32 14 -50 7 -18 23 -62 34 -98 28 -87 42 -128 60 -170 8 -19 21 -51 29 -70 32 -75 43 -98 93 -200 61 -124 98 -194 124 -235 107 -166 140 -213 205 -300 41 -55 97 -127 125 -160 65 -78 324 -336 401 -401 106 -89 346 -264 361 -264 3 0 20 -11 37 -24 33 -25 104 -66 192 -111 62 -32 75 -39 100 -53 11 -7 27 -15 35 -18 8 -4 38 -17 65 -29 28 -13 75 -33 105 -45 30 -12 69 -27 85 -34 42 -18 95 -36 130 -46 17 -4 41 -12 55 -18 14 -5 52 -18 85 -27 33 -9 75 -21 92 -26 18 -6 54 -14 80 -19 27 -5 68 -13 93 -19 79 -17 223 -40 290 -46 36 -3 99 -10 140 -15 96 -12 382 -12 480 0 41 5 107 12 145 15 65 5 144 18 275 45 30 6 75 14 100 19 25 4 61 12 80 18 19 6 62 19 95 28 33 9 74 21 90 27 17 5 45 14 64 18 18 5 38 13 44 19 6 6 20 11 30 11 10 0 31 6 45 14 15 8 47 22 72 31 72 28 289 130 330 155 8 6 44 26 80 47 151 85 324 206 485 337 175 144 425 408 540 571 17 23 39 54 50 70 78 107 98 137 115 170 6 11 19 34 30 50 11 17 24 39 30 50 6 11 26 47 45 80 58 103 140 279 180 385 9 25 23 60 31 78 8 18 14 41 14 50 0 10 4 22 9 28 6 5 14 27 20 49 5 22 19 72 31 110 12 39 25 91 30 117 5 27 12 53 16 59 3 6 10 36 14 67 4 32 13 82 19 112 33 174 41 282 41 569 0 286 -8 388 -41 561 -6 30 -15 78 -19 105 -8 57 -25 129 -46 195 -8 25 -14 53 -14 62 0 10 -6 32 -14 50 -7 18 -21 58 -30 88 -9 30 -23 71 -30 90 -8 19 -21 55 -31 80 -31 82 -95 226 -116 260 -5 8 -12 22 -15 30 -3 8 -9 22 -14 30 -5 8 -21 38 -35 65 -14 28 -34 64 -45 80 -11 17 -24 39 -30 50 -6 11 -19 34 -30 50 -11 17 -23 37 -27 45 -3 8 -20 34 -37 56 -17 23 -37 50 -43 60 -137 207 -453 543 -648 690 -27 21 -56 44 -64 52 -8 7 -26 21 -40 30 -14 9 -51 34 -81 57 -31 22 -64 46 -75 52 -11 7 -51 32 -88 55 -140 88 -365 203 -497 253 -25 10 -58 23 -75 30 -29 13 -68 27 -145 55 -19 6 -51 15 -70 19 -19 4 -45 13 -57 19 -12 7 -34 12 -48 12 -14 0 -35 5 -46 11 -11 6 -41 14 -67 18 -26 5 -67 13 -92 19 -164 40 -485 73 -695 71 -93 0 -174 -2 -180 -4z m435 -105 c69 -6 157 -16 195 -22 39 -6 97 -14 130 -18 33 -4 83 -12 110 -19 28 -7 77 -19 110 -27 33 -8 80 -21 105 -29 25 -7 60 -16 77 -20 18 -4 35 -11 38 -16 4 -5 19 -9 34 -9 15 0 36 -7 47 -15 10 -8 28 -15 40 -15 11 0 29 -7 40 -15 10 -8 27 -15 36 -15 9 0 29 -6 45 -14 30 -15 89 -41 113 -50 8 -3 22 -10 30 -15 8 -5 49 -26 90 -46 41 -21 84 -42 95 -49 11 -6 47 -26 80 -45 81 -46 199 -123 203 -133 2 -4 8 -8 13 -8 11 0 194 -136 243 -179 169 -152 253 -236 407 -407 69 -78 259 -343 299 -419 6 -11 19 -33 30 -50 11 -16 31 -52 45 -80 14 -27 30 -57 35 -65 5 -8 11 -22 14 -30 3 -8 10 -22 15 -30 16 -26 88 -187 115 -257 38 -102 66 -181 75 -218 4 -17 13 -40 19 -52 7 -12 12 -32 12 -44 0 -11 6 -42 14 -68 21 -68 38 -140 46 -196 4 -27 12 -77 18 -110 54 -294 54 -730 0 -1020 -6 -33 -14 -82 -18 -110 -8 -56 -25 -128 -46 -196 -8 -26 -14 -57 -14 -71 0 -13 -6 -32 -14 -43 -7 -11 -16 -33 -18 -50 -3 -16 -11 -46 -18 -65 -61 -170 -73 -198 -128 -320 -16 -36 -33 -72 -36 -80 -3 -8 -10 -23 -16 -32 -21 -37 -30 -55 -55 -103 -15 -27 -35 -63 -45 -80 -11 -16 -24 -39 -30 -50 -39 -74 -223 -332 -299 -420 -38 -43 -339 -345 -386 -386 -70 -61 -253 -199 -264 -199 -6 0 -11 -4 -11 -8 0 -5 -10 -14 -22 -21 -27 -14 -48 -27 -106 -64 -23 -15 -59 -37 -80 -48 -20 -11 -50 -29 -67 -40 -16 -10 -37 -21 -45 -25 -8 -3 -22 -9 -30 -14 -19 -12 -88 -44 -170 -82 -36 -16 -78 -36 -93 -44 -16 -8 -36 -14 -45 -14 -9 0 -26 -7 -36 -15 -11 -8 -28 -15 -38 -15 -9 0 -32 -6 -50 -14 -64 -26 -174 -61 -243 -76 -22 -5 -59 -13 -82 -19 -109 -27 -133 -32 -201 -41 -40 -5 -77 -12 -83 -16 -10 -6 -122 -15 -383 -31 -122 -7 -418 10 -546 32 -47 8 -101 16 -120 18 -33 4 -68 11 -170 37 -25 6 -63 15 -85 19 -23 4 -47 11 -55 16 -7 4 -30 12 -49 16 -35 7 -60 15 -146 47 -102 37 -122 45 -155 59 -19 8 -51 22 -70 30 -19 8 -48 21 -65 28 -16 7 -37 16 -45 19 -8 3 -24 11 -35 18 -25 14 -37 21 -100 53 -27 14 -63 34 -80 45 -16 11 -39 24 -50 30 -31 17 -55 32 -120 76 -140 94 -200 137 -210 149 -5 6 -39 34 -75 61 -84 62 -369 347 -445 444 -33 41 -67 84 -77 94 -10 11 -30 38 -45 60 -16 23 -31 43 -35 44 -5 2 -8 8 -8 14 0 6 -13 27 -30 48 -16 21 -30 40 -30 43 0 3 -17 32 -38 64 -60 90 -164 287 -217 408 -34 79 -44 103 -60 145 -9 25 -23 60 -31 78 -8 18 -14 39 -14 47 0 8 -6 29 -14 47 -8 18 -22 60 -31 93 -9 33 -23 80 -31 105 -8 25 -14 57 -14 71 0 15 -7 43 -15 62 -8 20 -15 53 -15 74 0 21 -5 54 -11 73 -5 19 -14 80 -19 135 -5 55 -14 138 -20 185 -20 167 -5 504 31 705 6 33 15 85 19 115 9 69 41 200 76 311 7 26 14 55 14 65 0 11 7 28 15 38 8 11 15 28 15 38 0 9 6 32 14 50 8 18 22 53 31 78 39 103 141 325 185 400 28 48 118 196 132 219 10 14 23 36 29 49 7 12 16 22 21 22 4 0 8 5 8 11 0 12 98 143 184 244 86 102 351 362 426 419 36 27 70 54 75 60 16 18 92 76 100 76 3 0 32 19 63 43 62 46 86 62 117 77 11 6 34 19 50 30 17 11 39 24 50 30 11 6 34 19 50 30 28 19 35 22 68 35 6 3 19 9 27 14 8 5 22 12 30 15 8 3 22 10 30 15 8 5 31 16 50 24 19 9 65 30 103 46 37 17 72 31 78 31 6 0 23 6 37 14 30 15 81 33 127 46 17 5 46 14 65 20 19 7 49 16 65 22 17 5 41 12 55 14 14 3 48 11 75 19 72 20 152 37 215 45 30 4 87 12 125 19 181 29 469 38 675 21z"/> <path d="M4559 7677 c-38 -33 -56 -71 -70 -147 -9 -53 -25 -117 -45 -180 -8 -25 -14 -55 -14 -67 0 -12 -6 -26 -12 -30 -18 -12 -38 -49 -38 -73 0 -11 -10 -30 -21 -41 -18 -18 -20 -25 -10 -40 16 -27 14 -49 -6 -56 -36 -12 -84 -55 -97 -86 -7 -18 -16 -86 -20 -153 -6 -97 -4 -130 8 -165 9 -24 16 -53 16 -65 0 -26 40 -74 62 -74 23 0 31 -16 19 -38 -7 -13 -26 -21 -53 -25 -24 -4 -52 -7 -63 -9 -17 -3 -21 5 -27 47 -3 28 -7 88 -8 135 -1 64 -4 79 -11 62 -12 -30 -33 -23 -37 11 -3 21 1 27 15 27 18 0 18 9 15 132 -5 146 -18 203 -48 203 -17 0 -20 -12 -28 -110 -6 -75 -5 -131 3 -178 6 -37 11 -120 11 -185 0 -64 5 -137 11 -161 10 -43 9 -44 -45 -116 -31 -41 -70 -102 -87 -137 -17 -35 -35 -70 -40 -78 -5 -8 -15 -26 -21 -40 -7 -14 -15 -27 -19 -30 -4 -3 -17 -27 -29 -55 -29 -62 -31 -152 -6 -210 38 -86 122 -252 150 -293 30 -46 93 -92 125 -92 23 0 32 -24 32 -82 0 -63 16 -98 45 -98 17 0 28 8 34 25 10 26 29 34 31 13 1 -20 8 -218 10 -268 2 -73 -13 -164 -27 -173 -8 -4 -14 -14 -14 -21 0 -8 -7 -19 -16 -27 -14 -11 -13 -15 8 -31 13 -11 33 -23 46 -28 17 -8 22 -17 22 -49 0 -21 -7 -55 -15 -74 -8 -20 -15 -49 -16 -64 0 -15 -11 -48 -24 -73 -13 -25 -28 -54 -33 -65 -6 -11 -28 -40 -49 -65 -37 -42 -69 -122 -57 -142 7 -11 44 -10 44 1 0 5 11 16 24 25 22 14 28 14 52 1 18 -9 43 -12 70 -8 39 5 137 -18 148 -36 2 -3 -2 -36 -9 -71 -8 -36 -14 -79 -15 -97 0 -24 -8 -38 -30 -55 -35 -26 -42 -68 -10 -68 26 0 39 -27 29 -59 -4 -14 -13 -45 -19 -69 -8 -31 -18 -46 -36 -52 -13 -5 -24 -14 -24 -20 0 -5 -20 -10 -44 -10 -30 0 -46 -5 -50 -15 -8 -21 -99 -21 -117 1 -8 10 -25 14 -48 12 -29 -2 -36 1 -39 17 -6 33 -20 40 -42 20 -28 -26 -25 -52 11 -86 l31 -29 -26 -10 c-14 -5 -26 -14 -26 -20 0 -5 -9 -10 -20 -10 -11 0 -20 7 -20 15 0 8 9 15 20 15 28 0 25 19 -4 30 -14 5 -32 20 -41 34 -9 14 -26 26 -38 28 -12 2 -24 12 -27 25 -3 12 -17 31 -32 43 -16 12 -28 26 -28 32 0 6 -6 19 -14 27 -8 9 -17 29 -20 45 -3 16 -10 34 -16 40 -19 19 -11 94 15 136 21 33 31 40 57 40 33 0 82 35 175 126 48 47 103 144 103 181 0 8 7 21 15 29 8 9 18 27 21 42 4 15 16 40 27 55 16 24 18 33 8 54 -9 19 -9 29 0 39 17 20 -4 205 -27 239 -8 11 -14 31 -14 45 -1 14 -14 41 -30 60 -24 27 -30 44 -30 80 0 45 -2 47 -120 163 -65 64 -126 117 -134 117 -7 0 -16 -7 -20 -15 -9 -23 -37 -18 -112 21 -89 46 -92 49 -96 87 -2 26 -7 32 -27 32 -19 0 -27 -7 -33 -32 -5 -18 -13 -33 -18 -33 -12 0 -40 29 -40 42 0 5 -14 28 -31 50 -28 34 -31 45 -26 85 4 39 1 49 -23 76 -27 31 -28 31 -54 14 -39 -26 -49 -13 -44 54 3 48 1 62 -14 76 -19 17 -25 53 -9 53 13 0 51 68 51 91 0 11 -11 24 -26 31 -24 11 -29 9 -73 -42 -38 -43 -50 -66 -60 -114 -15 -71 -8 -262 16 -412 14 -95 14 -145 -3 -237 -4 -26 -2 -44 10 -62 9 -13 16 -30 16 -37 0 -7 14 -26 31 -43 17 -16 35 -38 40 -48 11 -19 9 -20 -45 -32 -41 -9 -187 -157 -213 -215 -11 -25 -27 -62 -36 -83 -9 -21 -17 -49 -17 -63 0 -14 -7 -32 -15 -40 -8 -9 -15 -25 -15 -36 0 -12 -8 -30 -17 -41 -17 -18 -17 -19 0 -32 21 -15 22 -25 2 -25 -8 0 -15 -7 -15 -15 0 -17 -16 -20 -25 -6 -3 6 3 14 12 20 16 9 16 12 3 21 -8 6 -31 9 -50 8 -46 -4 -53 -37 -16 -71 33 -31 33 -38 -5 -66 -36 -26 -44 -22 -64 35 -9 27 -20 40 -34 42 -37 6 -82 -21 -102 -60 -19 -38 -19 -38 1 -78 15 -29 29 -41 54 -49 67 -18 174 30 234 105 38 47 62 45 62 -4 0 -48 29 -82 50 -57 19 23 27 18 35 -21 5 -27 2 -41 -10 -53 -14 -14 -17 -14 -25 -1 -5 8 -10 22 -10 31 0 12 -7 15 -26 11 -25 -4 -26 -3 -20 22 5 19 3 26 -9 26 -8 0 -15 -5 -15 -10 0 -6 -11 -16 -25 -22 -13 -6 -27 -19 -30 -28 -4 -12 -21 -20 -50 -25 -25 -3 -45 -10 -45 -14 0 -5 -8 -11 -17 -13 -26 -7 -47 -52 -39 -82 3 -14 21 -42 38 -62 33 -37 33 -37 112 -18 27 6 28 5 23 -22 -7 -35 22 -124 43 -135 8 -4 27 -12 43 -18 18 -7 27 -18 27 -33 0 -40 39 -105 70 -118 55 -23 127 30 144 105 25 111 27 137 10 156 -9 11 -23 19 -30 19 -7 0 -16 9 -19 20 -7 22 -20 26 -30 10 -10 -17 -25 -11 -25 10 0 13 7 20 19 20 10 0 26 10 35 22 l16 23 16 -22 c27 -38 37 -28 31 31 -3 29 -9 62 -14 72 -5 11 -19 38 -31 60 -24 47 -21 54 22 54 38 0 48 7 63 42 14 30 4 70 -19 84 -7 5 -33 9 -57 9 -42 0 -45 2 -53 31 -4 17 -15 37 -23 44 -8 7 -15 29 -15 49 0 20 -5 42 -12 49 -6 6 -9 14 -6 18 10 9 88 -45 88 -61 0 -8 18 -24 40 -35 l39 -20 34 20 c19 11 42 36 52 54 18 34 18 36 0 70 -22 41 -34 41 -53 3 -25 -51 -54 -32 -76 49 -14 50 79 224 119 224 16 0 25 -8 29 -25 7 -26 72 -95 91 -95 6 0 21 -11 34 -24 l22 -23 -23 -15 c-13 -8 -33 -18 -45 -22 -29 -9 -30 -33 -3 -41 26 -8 93 3 113 18 8 7 29 38 46 69 23 42 31 70 31 106 0 73 32 79 89 18 16 -17 35 -26 55 -26 29 0 32 -3 43 -50 9 -36 9 -59 1 -82 -12 -38 -100 -126 -135 -134 -12 -4 -23 -10 -23 -14 0 -5 -9 -12 -20 -15 -45 -14 -133 -81 -225 -171 -29 -29 -64 -59 -78 -69 -15 -9 -27 -27 -27 -39 0 -11 -3 -56 -6 -99 l-6 -78 39 7 c46 7 71 -12 55 -43 -5 -10 -7 -33 -5 -51 5 -33 5 -33 -27 -30 -41 4 -48 20 -20 48 25 25 23 30 -16 33 l-29 2 4 -115 c2 -72 8 -125 17 -142 8 -15 14 -38 14 -51 0 -14 7 -30 15 -37 8 -7 15 -21 15 -31 0 -9 7 -24 15 -33 8 -8 15 -17 15 -21 0 -10 85 -117 112 -141 44 -39 147 -114 156 -114 5 0 15 -7 22 -15 7 -8 20 -15 30 -15 10 0 23 -7 30 -15 7 -8 20 -15 30 -15 10 0 23 -7 30 -15 7 -8 22 -15 34 -15 11 0 30 -7 40 -15 11 -8 29 -15 40 -15 12 0 30 -7 40 -15 11 -8 31 -15 45 -15 14 -1 37 -7 51 -15 14 -8 39 -14 57 -15 17 0 44 -5 60 -11 15 -6 66 -15 113 -20 257 -27 303 -29 393 -18 50 6 130 15 177 19 115 12 281 50 333 76 16 8 35 14 42 14 14 0 47 13 131 51 23 11 46 19 52 19 6 0 12 3 14 8 2 4 38 25 81 47 42 22 77 43 77 47 0 5 5 8 10 8 9 0 65 35 80 50 3 3 28 23 55 45 131 104 251 240 340 387 15 25 86 168 103 208 8 19 21 48 28 63 8 16 14 40 14 53 0 14 5 35 12 47 7 12 15 45 19 72 5 28 13 77 19 110 21 112 4 366 -32 470 -5 17 -14 46 -18 65 -9 37 -31 97 -74 199 -25 58 -36 82 -57 121 -5 8 -20 38 -34 65 -14 28 -35 64 -45 80 -11 17 -25 42 -31 58 -6 15 -15 27 -20 27 -5 0 -9 7 -9 15 0 8 -9 19 -21 25 -11 6 -18 17 -16 23 2 7 -9 28 -24 48 -16 20 -29 40 -29 43 0 9 -43 70 -52 74 -5 2 -8 8 -8 13 0 9 -38 69 -51 79 -4 3 -9 15 -13 28 -4 12 -11 22 -16 22 -5 0 -11 13 -15 30 -4 16 -11 32 -16 35 -5 4 -9 42 -9 85 0 65 5 90 26 135 25 53 85 116 129 136 20 9 32 16 70 37 11 7 27 15 35 18 15 6 80 38 128 63 46 24 146 134 161 176 8 22 15 78 16 124 3 107 -17 151 -115 248 -64 65 -68 71 -55 90 9 12 13 41 12 76 -2 51 -5 58 -27 65 -16 6 -30 23 -39 48 -14 39 -75 104 -98 104 -6 0 -21 14 -33 30 -12 17 -29 30 -38 30 -9 0 -26 13 -37 30 -22 33 -66 56 -90 46 -19 -7 -19 -30 0 -46 10 -9 15 -32 15 -75 0 -44 5 -66 15 -75 9 -7 13 -20 10 -28 -3 -8 6 -25 20 -38 24 -22 26 -29 19 -72 -3 -26 -13 -59 -20 -74 -19 -37 -17 -78 5 -130 26 -62 69 -98 143 -121 107 -32 138 -97 75 -159 -34 -34 -109 -60 -209 -73 -26 -3 -50 -10 -53 -16 -4 -5 -17 -9 -30 -9 -79 0 -247 -140 -302 -251 -66 -135 -67 -139 -66 -298 1 -110 5 -156 17 -185 9 -21 16 -48 16 -60 0 -12 7 -31 15 -42 8 -10 15 -25 15 -33 0 -17 61 -142 90 -186 11 -16 24 -39 30 -50 27 -53 62 -110 75 -125 8 -9 15 -21 15 -27 0 -5 13 -28 28 -49 15 -21 38 -59 51 -84 35 -69 48 -91 60 -103 6 -6 11 -20 11 -32 0 -12 5 -26 11 -32 6 -6 15 -29 20 -50 4 -21 13 -56 18 -78 6 -22 13 -62 17 -89 4 -36 9 -45 17 -37 16 16 37 14 37 -4 0 -8 -9 -15 -20 -15 -14 0 -20 -7 -20 -22 0 -35 15 -51 39 -43 15 5 21 2 21 -9 0 -9 -8 -16 -18 -16 -40 0 -58 -53 -21 -63 13 -4 19 -12 17 -23 -5 -27 -25 -28 -34 -2 l-8 23 -7 -25 c-4 -14 -8 -45 -8 -70 -1 -25 -8 -56 -16 -70 -8 -14 -14 -33 -15 -42 0 -10 -13 -47 -30 -81 -16 -35 -30 -67 -30 -70 0 -4 -20 -36 -45 -73 -25 -36 -45 -68 -45 -71 0 -16 -163 -196 -199 -220 -14 -9 -42 -19 -61 -23 -23 -3 -36 -12 -40 -25 -6 -24 -41 -65 -54 -65 -5 0 -17 -6 -25 -14 -46 -41 -212 -113 -231 -101 -16 10 38 61 84 81 121 52 136 100 61 191 -26 32 -47 69 -51 91 -4 20 -10 42 -14 47 -5 6 -20 32 -34 59 -27 51 -33 90 -15 101 6 4 0 19 -15 40 -30 39 -33 63 -8 71 45 14 172 80 172 90 0 13 46 64 57 64 4 0 21 -14 37 -30 34 -35 54 -37 84 -10 29 27 28 58 -2 69 -12 5 -33 26 -44 45 -24 40 -55 56 -110 56 -71 0 -114 23 -169 91 -29 35 -53 71 -53 79 0 8 -7 28 -15 44 -8 15 -15 37 -15 47 0 10 -7 40 -17 66 -13 39 -16 83 -14 228 1 137 -2 192 -14 230 -17 56 -19 96 -7 111 5 5 14 23 21 40 11 28 10 33 -18 63 -17 18 -35 30 -41 26 -21 -13 -85 86 -68 103 15 15 0 32 -28 32 -15 0 -24 6 -24 15 0 11 12 15 50 15 64 0 169 28 196 52 27 24 34 59 22 106 -5 20 -14 57 -20 82 -5 25 -14 49 -19 54 -5 6 -9 17 -9 26 0 8 -9 32 -20 53 -11 20 -20 53 -20 72 0 19 -4 35 -10 35 -10 0 -50 80 -50 100 0 18 -31 73 -57 101 -13 14 -28 39 -32 55 -5 18 -14 27 -22 25 -35 -11 -92 -12 -101 -3 -6 6 -4 20 6 41 16 29 15 31 -9 47 -28 18 -32 45 -10 64 16 13 21 70 6 70 -5 0 -21 -13 -34 -30 -27 -32 -47 -39 -47 -17 0 8 13 38 30 68 16 30 30 64 30 75 0 12 7 27 15 34 20 17 21 113 1 130 -8 6 -16 26 -18 43 -2 26 -8 33 -29 35 -15 2 -35 12 -45 23 -18 20 -18 21 -1 34 18 13 23 50 8 59 -5 4 -12 29 -16 57 -4 29 -13 53 -21 56 -8 3 -14 19 -14 39 0 28 4 34 23 34 42 1 67 33 70 91 2 43 -1 54 -15 57 -11 2 -18 -6 -23 -27 -5 -24 -12 -31 -31 -31 -28 0 -29 9 -9 87 8 31 15 70 15 86 0 18 11 42 30 64 61 69 18 102 -51 40z m1291 -472 c7 -8 20 -15 30 -15 10 0 21 -8 25 -17 6 -17 7 -17 20 1 8 10 18 15 24 11 16 -9 13 -25 -5 -25 -9 0 -14 -7 -12 -17 4 -22 28 -29 28 -8 0 9 6 15 13 13 21 -7 21 -122 0 -154 -17 -26 -17 -27 5 -42 30 -19 29 -52 0 -52 -13 0 -29 -4 -37 -9 -11 -7 -11 -13 3 -32 22 -33 20 -53 -8 -69 -22 -11 -27 -10 -62 24 -37 36 -37 37 -27 82 7 29 7 58 2 78 -14 49 -11 63 22 97 33 34 34 74 1 86 -29 11 -71 46 -66 55 8 13 30 9 44 -7z m-1385 -105 c0 -27 -22 -39 -31 -16 -8 22 3 49 19 43 6 -2 12 -14 12 -27z m53 -13 c2 -12 -3 -17 -17 -17 -12 0 -21 6 -21 13 0 31 32 34 38 4z m-50 -90 c2 -11 -3 -17 -17 -17 -23 0 -35 15 -26 31 10 15 39 6 43 -14z m88 -2 c4 -9 11 -15 18 -14 27 3 36 -2 36 -21 0 -21 -24 -27 -35 -9 -4 5 -18 14 -31 19 -13 5 -24 16 -24 25 0 20 29 20 36 0z m-10 -70 c15 -16 28 -21 48 -18 14 3 26 1 26 -5 0 -5 -8 -9 -17 -8 -13 1 -19 -7 -21 -26 -4 -31 -19 -37 -29 -12 -3 9 -17 27 -30 40 -20 20 -34 24 -115 26 -58 2 -93 7 -95 15 -6 16 19 19 122 14 78 -3 93 -7 111 -26z m1502 -37 c19 -19 14 -35 -18 -58 l-30 -21 6 33 c11 62 18 70 42 46z m-1548 -15 c17 -15 20 -30 20 -98 0 -44 4 -86 9 -94 15 -23 -10 -64 -64 -108 -45 -37 -59 -43 -98 -43 -25 0 -49 5 -52 10 -3 6 14 22 39 38 49 29 59 57 24 68 -12 3 -29 16 -39 27 -14 18 -19 19 -33 8 -13 -11 -17 -11 -22 3 -3 8 1 23 10 31 21 21 21 81 1 89 -20 7 -19 50 1 70 23 24 176 23 204 -1z m113 -88 c1 -5 -6 -11 -15 -13 -11 -2 -18 3 -18 13 0 17 30 18 33 0z m1530 -150 c1 -5 -6 -11 -15 -13 -11 -2 -18 3 -18 13 0 17 30 18 33 0z m-1615 -92 c18 -43 55 -93 73 -98 27 -9 24 -47 -6 -75 -21 -20 -29 -22 -44 -13 -15 9 -27 8 -59 -9 -36 -17 -46 -18 -77 -8 -19 6 -40 20 -45 30 -10 19 -4 50 10 50 4 0 11 15 14 34 5 27 12 35 37 40 19 3 36 16 47 36 19 34 39 39 50 13z m1580 -85 c-7 -19 -38 -22 -38 -4 0 10 9 16 21 16 12 0 19 -5 17 -12z m-118 -63 c15 -18 6 -45 -14 -45 -16 0 -31 34 -21 50 9 14 21 12 35 -5z m-184 -70 c-6 -17 -63 -20 -86 -5 -13 9 -12 12 4 25 11 8 28 15 38 15 10 0 22 8 25 17 5 14 8 12 16 -10 5 -15 6 -34 3 -42z m70 54 c10 -17 -23 -46 -37 -32 -7 7 -9 19 -6 27 7 18 33 21 43 5z m59 -19 c7 -22 -1 -40 -17 -40 -6 0 -17 -8 -24 -17 -17 -24 -30 -9 -17 20 6 12 14 30 17 40 7 23 33 22 41 -3z m-1138 -12 c44 -49 56 -78 55 -131 -2 -59 -25 -87 -72 -87 -41 0 -57 24 -36 55 20 31 20 41 -1 64 -32 33 -68 84 -68 95 0 5 17 11 39 13 21 1 41 4 44 8 10 9 18 5 39 -17z m-503 -5 c5 -3 -4 -13 -19 -21 -22 -11 -25 -16 -14 -23 8 -5 22 -9 32 -9 9 0 17 -7 17 -15 0 -9 10 -15 26 -15 25 0 25 -2 20 -42 -5 -39 -4 -41 6 -16 8 20 20 28 42 30 39 4 39 21 1 28 -16 3 -29 10 -29 15 -1 16 57 18 69 3 5 -8 18 -17 28 -21 20 -7 24 -53 5 -59 -8 -3 -13 -26 -13 -64 0 -51 -3 -59 -20 -62 -11 -2 -30 -8 -42 -14 -17 -8 -31 -6 -68 12 l-47 23 6 51 c3 28 9 66 13 85 6 33 5 34 -22 27 -20 -5 -31 -2 -40 11 -17 22 -22 11 -28 -62 -2 -27 -10 -66 -17 -85 -7 -19 -15 -42 -17 -50 -4 -12 -8 -10 -23 8 -10 12 -28 22 -39 22 -23 0 -46 30 -56 72 -5 20 0 40 20 73 14 26 32 44 38 42 7 -2 13 -29 15 -63 4 -81 8 -92 29 -71 13 12 16 36 16 106 0 74 3 91 16 95 18 5 81 -3 95 -11z m1374 -41 c3 -16 -2 -22 -17 -22 -24 0 -35 15 -27 36 9 23 40 13 44 -14z m-1091 -8 c-9 -9 -28 6 -21 18 4 6 10 6 17 -1 6 -6 8 -13 4 -17z m1259 -6 c10 -15 -17 -28 -44 -21 -15 3 -30 -1 -43 -13 -17 -16 -22 -16 -29 -4 -24 37 -12 48 50 48 33 0 63 -5 66 -10z m-1151 -8 c3 -5 -6 -12 -20 -16 -34 -9 -26 -28 13 -32 37 -4 39 -10 12 -62 -11 -22 -20 -45 -20 -52 -1 -18 -47 -50 -68 -46 -13 2 -18 17 -22 68 -5 64 -5 65 -32 62 -22 -3 -28 1 -28 17 0 26 17 36 35 21 12 -10 16 -8 24 13 8 19 15 24 35 20 15 -3 26 -1 26 6 0 14 37 15 45 1z m923 -33 c2 -11 -6 -20 -22 -27 -31 -11 -33 -30 -6 -55 24 -21 26 -58 5 -75 -8 -7 -15 -16 -15 -21 0 -5 7 -9 15 -9 8 0 15 5 15 10 0 6 7 10 15 10 21 0 19 -26 -2 -35 -17 -6 -17 -7 0 -20 20 -14 20 -46 0 -52 -6 -2 -14 5 -18 16 -9 29 -33 26 -47 -4 -6 -14 -15 -25 -20 -25 -4 0 -8 -7 -8 -15 0 -8 5 -15 10 -15 6 0 13 7 16 15 4 8 16 15 29 15 13 0 25 -7 29 -15 3 -8 10 -15 16 -15 5 0 10 7 10 15 0 17 16 20 25 6 3 -6 -2 -14 -11 -19 -11 -6 -15 -17 -11 -31 7 -26 -7 -27 -33 -1 -11 11 -22 20 -25 20 -3 0 -5 -9 -5 -20 0 -11 6 -20 14 -20 18 0 48 -57 35 -66 -20 -12 -7 -41 26 -57 37 -18 51 -53 16 -42 -13 4 -20 0 -24 -16 -5 -17 -11 -20 -29 -16 -17 5 -27 1 -36 -14 -11 -17 -16 -18 -28 -8 -14 11 -13 15 8 31 18 14 20 18 6 18 -9 0 -26 16 -38 36 -18 29 -27 34 -45 30 -13 -3 -31 -3 -39 0 -17 6 -22 39 -7 48 13 8 71 -17 71 -31 0 -7 9 -13 20 -13 11 0 20 -4 20 -10 0 -5 7 -10 15 -10 8 0 15 4 15 9 0 13 -45 61 -57 61 -5 0 -25 14 -44 30 -28 25 -31 33 -19 40 11 7 20 3 32 -13 16 -21 17 -21 24 -3 5 13 0 24 -16 36 -25 19 -22 50 5 50 11 0 15 7 13 22 -2 17 -10 23 -28 23 -19 0 -26 6 -28 24 -6 37 12 44 42 16 15 -14 32 -25 39 -25 7 0 3 7 -7 15 -16 12 -17 17 -5 32 7 10 20 24 28 31 13 10 13 14 3 21 -7 4 -19 20 -27 34 -13 24 -12 28 6 38 11 6 25 24 31 40 11 33 40 37 46 6z m92 -2 c0 -18 -5 -25 -19 -25 -11 0 -23 5 -26 10 -11 18 3 40 25 40 15 0 20 -7 20 -25z m-35 -60 c0 -16 -8 -21 -37 -23 -32 -3 -38 0 -38 16 0 27 10 33 45 30 22 -2 30 -8 30 -23z m-760 -63 c-8 -9 -25 20 -18 31 3 5 10 2 15 -7 6 -10 7 -20 3 -24z m601 -8 c-5 -13 -10 -14 -18 -6 -6 6 -8 18 -4 28 5 13 10 14 18 6 6 -6 8 -18 4 -28z m161 1 c12 -28 10 -30 -18 -15 -21 12 -26 40 -6 40 6 0 17 -11 24 -25z m-940 -31 c5 -14 -13 -68 -43 -126 -8 -14 -14 -38 -14 -52 0 -28 -29 -50 -54 -40 -20 8 -20 18 0 49 15 23 15 38 0 75 -3 9 6 29 24 49 17 18 30 40 30 47 0 19 49 18 57 -2z m-637 -26 c37 -27 38 -38 5 -38 -16 0 -25 6 -25 15 0 8 -7 15 -15 15 -8 0 -15 7 -15 15 0 21 16 19 50 -7z m754 13 c3 -5 -1 -12 -10 -15 -27 -10 -44 -7 -44 9 0 16 45 21 54 6z m-793 -52 l49 -41 -31 -39 c-27 -35 -35 -39 -75 -39 -50 0 -56 -13 -19 -42 34 -26 51 -62 64 -131 11 -59 6 -84 -24 -122 -16 -20 -16 -20 -34 4 -10 13 -29 56 -41 95 -13 39 -27 76 -31 81 -5 6 -11 30 -15 53 -5 35 -1 52 31 114 34 67 61 108 73 108 2 0 26 -18 53 -41z m265 16 c16 -8 39 -15 51 -15 30 0 34 -11 13 -38 -26 -32 -59 -29 -71 8 -7 19 -18 30 -30 30 -15 0 -19 -7 -19 -37 0 -93 -34 -115 -45 -30 -4 28 -11 59 -16 68 -4 9 -5 19 -2 23 12 12 91 6 119 -9z m646 -45 c26 -70 46 -160 40 -182 -9 -36 -52 -51 -184 -62 -113 -9 -130 -8 -144 6 -15 15 -15 18 2 41 20 27 35 34 94 48 90 21 97 21 138 0 49 -25 52 -25 52 -6 0 21 -48 65 -71 65 -20 0 -69 44 -69 63 0 7 -3 22 -6 35 -6 19 -3 22 23 22 16 0 38 7 49 15 34 26 54 14 76 -45z m-192 13 c11 -10 20 -29 20 -43 0 -14 5 -31 11 -37 15 -15 -6 -53 -29 -53 -31 0 -42 22 -42 87 0 66 7 74 40 46z m-242 -29 c2 -16 9 -20 32 -16 42 6 39 -15 -11 -78 -33 -42 -43 -49 -55 -39 -8 6 -14 20 -14 30 0 25 -8 24 -31 -3 -25 -31 -24 -38 12 -108 17 -34 29 -63 27 -65 -4 -4 -97 27 -117 39 -9 6 -17 3 -23 -8 -15 -26 -38 -18 -54 19 -19 47 -18 85 6 139 13 31 25 46 38 46 10 0 24 6 30 12 10 10 17 10 33 0 11 -7 24 -10 29 -7 16 10 59 -6 63 -23 3 -15 5 -15 12 1 5 12 1 24 -10 37 -10 11 -15 26 -11 35 8 23 40 14 44 -11z m922 -3 c0 -23 -16 -36 -25 -21 -9 14 1 40 15 40 5 0 10 -9 10 -19z m-1290 -120 c0 -84 -4 -127 -14 -147 -15 -27 -9 -55 14 -69 6 -3 10 -17 10 -30 0 -12 7 -25 15 -29 8 -3 15 -15 15 -26 0 -14 7 -20 23 -21 15 0 17 -2 7 -6 -23 -9 -30 -25 -19 -44 20 -37 11 -58 -31 -70 -35 -11 -42 -10 -59 5 -18 16 -18 19 -3 49 29 59 32 67 32 80 0 18 -41 51 -64 52 -27 0 -31 22 -7 30 25 8 28 47 6 65 -9 8 -15 30 -15 58 0 25 -5 61 -12 79 -9 23 -9 36 -2 41 6 4 14 14 18 22 26 55 62 94 78 84 5 -3 8 -58 8 -123z m86 -13 c4 -14 1 -25 -10 -33 -9 -7 -16 -17 -16 -24 0 -6 -4 -11 -10 -11 -5 0 -9 20 -8 45 0 36 4 45 19 45 10 0 21 -10 25 -22z m347 -5 c8 -14 -12 -53 -28 -53 -8 0 -15 -4 -15 -10 0 -14 43 -13 57 1 17 17 33 1 33 -32 0 -28 -2 -29 -44 -29 -27 0 -51 6 -60 16 -20 20 -20 19 5 71 19 39 41 54 52 36z m897 -128 c0 -18 -5 -25 -19 -25 -11 0 -21 6 -24 13 -7 20 4 37 24 37 14 0 19 -7 19 -25z m-2262 -56 c-1 -13 -7 -23 -13 -22 -13 3 -18 30 -11 50 10 24 29 1 24 -28z m1387 2 c0 -18 -82 -64 -102 -57 -18 7 -9 45 16 64 21 17 86 12 86 -7z m1096 9 c23 0 25 -25 3 -34 -9 -3 -29 -6 -45 -6 -34 0 -35 -4 -10 -31 l19 -21 7 21 c7 22 29 28 40 11 4 -6 15 -8 26 -5 13 4 19 2 19 -8 0 -9 -14 -17 -35 -20 -19 -3 -42 -13 -51 -22 -9 -9 -26 -15 -38 -13 -16 2 -21 10 -21 33 0 26 -4 29 -30 30 -39 0 -44 38 -5 43 14 2 29 11 34 19 6 11 17 13 38 9 17 -3 39 -6 49 -6z m-1216 -20 c0 -8 -10 -16 -22 -18 -22 -3 -32 16 -16 32 12 11 38 2 38 -14z m-109 -15 c16 -8 32 -25 36 -37 l6 -23 1 23 c1 27 12 28 36 2 16 -18 17 -22 1 -54 -30 -64 -31 -92 -3 -125 14 -17 27 -36 30 -43 4 -10 7 -10 15 0 10 15 57 13 57 -3 0 -5 -10 -11 -22 -13 -25 -4 -29 -12 -13 -28 6 -6 8 -24 4 -41 l-6 -30 -46 10 c-33 7 -47 6 -50 -2 -2 -6 -10 -11 -19 -11 -10 0 -12 6 -8 19 4 13 0 23 -12 30 -14 8 -16 12 -5 22 20 21 14 29 -23 29 -29 0 -37 5 -45 26 -16 41 -13 45 33 38 35 -5 40 -4 30 7 -7 7 -13 21 -13 30 0 9 -7 22 -15 29 -9 7 -13 21 -10 31 4 13 0 18 -17 21 -37 5 -37 55 -1 84 15 13 29 23 29 24 1 0 15 -7 30 -15z m-120 -19 c29 -27 19 -42 -22 -32 -17 5 -24 13 -24 31 0 31 14 32 46 1z m514 -6 c22 -11 40 -27 40 -34 0 -7 7 -19 15 -26 8 -7 15 -23 15 -35 0 -13 7 -25 15 -29 8 -3 15 -10 15 -16 0 -5 -7 -10 -15 -10 -8 0 -15 5 -15 10 0 6 -19 10 -42 10 -72 0 -90 9 -83 37 3 14 1 40 -5 59 -19 57 -3 66 60 34z m767 -30 c5 -28 23 -43 23 -20 0 16 27 11 34 -6 10 -25 7 -34 -9 -34 -8 0 -15 -4 -15 -8 0 -18 31 -70 45 -76 19 -7 19 -25 0 -32 -17 -7 -54 32 -55 57 0 9 -9 19 -20 22 -11 3 -23 13 -26 24 -3 10 -10 26 -15 35 -12 24 -11 42 3 56 19 19 28 14 35 -18z m-897 -7 c10 -17 10 -17 20 0 6 9 15 17 20 17 16 0 11 -30 -6 -37 -12 -4 -14 -14 -9 -42 4 -20 11 -41 16 -47 15 -18 -19 -46 -50 -42 -24 3 -27 7 -34 71 -5 38 -6 75 -3 83 7 19 33 18 46 -3z m-1355 -54 c4 -17 1 -30 -9 -38 -31 -26 -48 17 -25 61 12 23 25 15 34 -23z m1269 -14 c33 -50 12 -100 -32 -76 -20 11 -38 73 -27 91 11 18 43 10 59 -15z m1250 -4 c14 -25 14 -30 1 -41 -21 -17 -9 -31 23 -28 21 2 27 -1 27 -17 0 -11 -6 -20 -12 -19 -7 1 -27 2 -44 3 -28 1 -31 4 -27 26 3 14 4 25 2 25 -1 0 -9 3 -18 6 -13 5 -15 1 -10 -25 5 -23 2 -32 -10 -37 -28 -11 -39 9 -29 57 7 37 12 44 30 41 14 -2 22 4 26 18 7 28 24 25 41 -9z m86 11 c0 -13 -12 -22 -22 -16 -10 6 -1 24 13 24 5 0 9 -4 9 -8z m-2520 -87 c5 -64 7 -70 30 -75 22 -5 26 -13 31 -60 5 -46 3 -58 -12 -72 -26 -22 -24 -28 10 -28 54 0 53 -31 -1 -44 -23 -5 -28 -3 -28 13 0 12 -9 21 -27 26 -15 3 -31 12 -35 18 -5 8 -14 7 -32 -3 -32 -17 -33 -24 -1 -38 15 -7 25 -20 25 -33 0 -17 -3 -19 -14 -10 -11 9 -18 8 -30 -4 -9 -9 -26 -15 -38 -13 -19 2 -24 10 -26 46 -3 40 -2 42 25 42 18 0 33 8 41 21 14 22 7 35 -44 84 -28 26 -58 91 -50 110 6 16 26 21 26 7 0 -5 9 -19 20 -32 11 -13 20 -29 20 -36 0 -15 79 -94 93 -94 6 0 16 -8 23 -17 7 -10 16 -14 21 -10 4 5 1 14 -9 21 -37 27 -94 180 -72 194 6 4 14 20 18 35 12 50 31 24 36 -48z m2318 52 c4 -20 -25 -34 -40 -19 -15 15 -1 44 19 40 10 -2 19 -11 21 -21z m-1410 -47 c4 -59 -8 -81 -33 -60 -12 10 -14 23 -9 59 8 54 12 63 27 58 7 -2 13 -27 15 -57z m1402 -15 c0 -8 -7 -15 -15 -15 -8 0 -15 7 -15 15 0 8 7 15 15 15 8 0 15 -7 15 -15z m-811 -68 c1 -16 -5 -30 -14 -33 -22 -9 -19 -21 15 -64 33 -41 39 -75 15 -84 -8 -3 -15 -12 -15 -19 0 -8 7 -20 15 -27 19 -16 19 -46 1 -53 -8 -3 -16 -16 -18 -28 -5 -33 -26 -35 -30 -2 -2 15 -7 28 -13 28 -17 0 -17 -41 0 -55 8 -7 15 -23 15 -35 0 -13 7 -25 15 -29 8 -3 15 -17 15 -31 0 -16 -6 -25 -15 -25 -8 0 -15 6 -15 13 0 25 -26 51 -45 43 -16 -6 -17 -8 -1 -24 9 -10 16 -26 16 -34 0 -9 7 -21 15 -28 18 -15 10 -30 -16 -30 -11 0 -24 -10 -29 -22 -5 -13 -16 -32 -25 -43 -15 -19 -16 -19 -46 -1 -26 15 -33 16 -40 5 -13 -21 -11 -27 11 -34 21 -7 28 -25 10 -25 -6 0 -19 6 -30 13 -17 10 -22 9 -30 -3 -8 -12 -13 -13 -30 -2 -25 15 -57 16 -62 0 -6 -18 -32 -4 -48 27 -13 24 -13 28 3 40 10 7 17 25 17 43 0 17 6 32 12 34 9 3 8 9 -5 22 -13 13 -15 22 -7 37 6 10 15 19 19 19 5 0 12 15 15 34 5 26 12 36 29 38 25 3 25 31 1 55 -20 21 -17 46 7 61 19 12 20 15 5 31 -20 22 -20 31 -1 31 8 0 24 -13 37 -30 21 -30 58 -41 58 -18 0 6 -11 26 -25 44 -26 34 -32 54 -15 54 6 0 10 -4 10 -10 0 -14 52 -60 62 -54 13 8 9 44 -4 44 -7 1 -24 14 -38 30 -27 33 -40 38 -40 14 0 -11 -8 -14 -32 -12 -42 4 -45 32 -5 36 23 3 28 7 24 23 -7 25 18 37 44 21 15 -9 19 -8 24 8 6 20 42 34 112 45 25 4 44 13 49 23 6 14 8 13 14 -8 5 -14 8 -38 9 -53z m811 12 c13 -24 7 -49 -13 -49 -21 0 -57 39 -51 55 9 22 51 18 64 -6z m60 -5 c0 -8 -7 -14 -15 -14 -15 0 -21 21 -9 33 10 9 24 -2 24 -19z m68 3 c4 -21 -25 -34 -40 -19 -8 8 -8 16 2 27 16 19 34 15 38 -8z m66 17 c9 -3 16 -15 16 -25 0 -23 13 -25 30 -4 15 18 30 10 30 -17 0 -16 -5 -19 -25 -16 -20 4 -25 0 -30 -23 -9 -41 2 -71 25 -64 10 3 25 -1 33 -10 9 -8 20 -15 26 -15 20 0 60 -23 55 -31 -3 -5 -16 -9 -30 -9 -14 0 -24 -6 -24 -14 0 -19 17 -29 25 -16 11 17 25 11 36 -16 8 -22 6 -30 -10 -45 -10 -10 -21 -23 -23 -30 -6 -18 -38 -3 -38 17 0 9 9 18 20 21 22 6 26 18 10 28 -6 3 -23 -8 -38 -25 -16 -17 -31 -27 -35 -24 -12 13 -7 42 8 48 9 3 15 18 15 40 0 30 -4 35 -31 41 -24 5 -35 2 -50 -14 -21 -22 -39 -20 -39 5 0 8 7 14 16 14 23 0 11 24 -15 30 -29 7 -28 24 1 30 18 5 23 13 23 40 0 19 -6 40 -14 46 -8 6 -11 18 -8 28 7 17 16 20 41 10z m-1666 -31 c-4 -34 -28 -43 -28 -10 0 25 7 37 22 37 5 0 8 -12 6 -27z m1596 -29 c38 -14 8 -48 -33 -37 -15 4 -21 1 -21 -10 0 -41 -63 -63 -73 -26 -9 34 3 49 38 49 20 0 35 6 39 15 6 16 24 19 50 9z m149 -36 c6 -19 -3 -38 -18 -38 -18 0 -28 17 -21 35 7 18 33 20 39 3z m-2373 -8 c0 -6 11 -15 25 -20 14 -5 25 -16 25 -25 0 -21 -49 -9 -72 18 -23 26 -23 37 2 37 11 0 20 -5 20 -10z m2425 -30 c0 -13 -6 -25 -12 -27 -9 -3 -13 6 -13 27 0 21 4 30 13 28 6 -3 12 -15 12 -28z m-1581 -17 c18 7 56 -41 56 -71 0 -30 -48 -65 -80 -57 -40 10 -52 34 -46 88 7 63 14 72 37 51 10 -9 25 -14 33 -11z m-857 -9 c7 -19 -4 -29 -40 -38 -29 -7 -44 10 -33 39 7 20 65 20 73 -1z m199 -42 c13 -9 24 -23 24 -29 0 -15 -38 -17 -60 -3 -10 6 -25 3 -49 -11 l-34 -20 7 23 c3 13 6 34 6 47 0 22 3 23 41 17 23 -4 52 -14 65 -24z m2042 1 c2 -14 -2 -23 -10 -23 -7 0 -19 -10 -27 -22 -13 -21 -14 -21 -27 -3 -28 38 -9 78 36 73 17 -2 26 -10 28 -25z m-1955 -33 c5 -24 12 -30 31 -30 29 0 94 -54 77 -64 -6 -4 -18 0 -27 8 -17 18 -50 21 -59 6 -4 -7 -14 -6 -28 1 -39 21 -46 45 -27 94 12 32 25 26 33 -15z m2065 7 c2 -10 -3 -17 -12 -17 -18 0 -29 16 -21 31 9 14 29 6 33 -14z m-2465 -24 c4 -3 1 -13 -5 -21 -10 -11 -9 -16 5 -23 9 -6 17 -20 17 -32 0 -13 9 -26 23 -32 21 -10 39 -65 20 -65 -20 0 -63 26 -63 38 0 6 -11 12 -25 12 -14 0 -28 7 -31 15 -4 8 -14 15 -24 15 -10 0 -23 -7 -30 -15 -16 -19 -80 -20 -106 -1 -18 14 -18 15 9 25 16 6 36 11 45 12 9 0 44 18 77 39 61 39 77 45 88 33z m152 -31 c0 -39 8 -46 35 -32 20 11 25 9 45 -16 19 -24 25 -27 39 -15 9 7 24 10 33 6 16 -6 16 -8 2 -18 -8 -7 -18 -20 -22 -29 -3 -10 -13 -18 -21 -18 -8 0 -20 8 -25 18 -10 16 -10 16 -11 0 0 -10 -5 -18 -10 -18 -6 0 -23 -14 -39 -32 -32 -36 -61 -33 -61 5 0 14 -7 30 -15 37 -18 15 -10 49 16 68 14 9 16 20 12 48 -5 29 -3 36 8 32 8 -3 14 -18 14 -36z m2269 12 c23 -9 19 -32 -6 -40 -13 -4 -34 -15 -47 -25 -31 -24 -44 -24 -31 0 5 11 10 29 10 40 0 27 37 39 74 25z m216 -19 c0 -8 -4 -15 -9 -15 -13 0 -22 16 -14 24 11 11 23 6 23 -9z m-2570 -25 c0 -11 -4 -20 -9 -20 -14 0 -23 18 -16 30 10 17 25 11 25 -10z m2546 -49 c-22 -21 -46 0 -26 24 10 12 16 13 27 3 12 -10 12 -13 -1 -27z m-113 4 c16 -2 31 -6 35 -10 10 -10 -51 -56 -66 -50 -7 3 -22 0 -32 -5 -15 -8 -21 -6 -30 10 -21 39 9 77 50 62 8 -2 28 -6 43 -7z m-2035 -47 l3 -36 25 23 c13 12 24 28 24 34 0 7 6 11 13 9 7 -3 13 -26 15 -56 3 -50 2 -52 -22 -52 -16 0 -26 -6 -26 -15 0 -8 5 -15 10 -15 12 0 13 -27 1 -34 -5 -3 -21 4 -35 15 -26 21 -28 21 -41 3 -12 -17 -16 -17 -40 -4 -21 11 -30 12 -45 2 -44 -27 -57 3 -15 36 31 24 35 58 6 42 -26 -14 -74 -13 -89 2 -17 17 4 38 39 38 17 0 34 8 43 21 15 22 36 18 36 -7 0 -23 26 -16 38 12 9 18 19 24 35 22 17 -2 23 -10 25 -40z m500 31 c-2 -6 -8 -10 -13 -10 -5 0 -11 4 -13 10 -2 6 4 11 13 11 9 0 15 -5 13 -11z m1626 -40 c-3 -5 -12 -9 -20 -9 -8 0 -14 -4 -14 -10 0 -5 11 -10 25 -10 18 0 25 5 25 19 0 18 26 48 34 40 3 -2 8 -17 11 -32 6 -23 4 -29 -14 -34 -26 -7 -27 -20 -1 -28 19 -6 29 -35 13 -35 -36 -1 -37 -50 -2 -50 11 0 22 -7 25 -15 8 -19 24 -19 38 0 8 10 15 12 26 5 13 -9 13 -12 -1 -23 -9 -7 -19 -22 -23 -35 -4 -12 -12 -22 -17 -22 -5 0 -9 -9 -9 -20 0 -11 5 -20 10 -20 6 0 10 7 10 15 0 9 9 15 25 15 31 0 33 -22 3 -35 -13 -6 -24 -20 -26 -32 -2 -13 -10 -23 -18 -23 -8 0 -14 -7 -14 -15 0 -8 7 -15 15 -15 8 0 15 7 15 15 0 10 10 15 31 15 34 0 36 -17 3 -34 -32 -18 -35 -30 -13 -48 22 -19 19 -52 -6 -62 -8 -3 -15 -15 -15 -27 0 -18 -4 -20 -26 -15 -21 6 -27 3 -31 -14 -4 -16 -11 -20 -27 -16 -11 3 -24 6 -28 6 -20 0 -5 22 22 31 17 6 30 15 30 20 0 5 11 15 25 21 27 12 34 48 10 48 -10 0 -15 10 -15 30 0 25 -4 30 -25 30 -19 0 -25 5 -25 21 0 17 5 20 24 17 16 -3 27 0 30 9 10 24 7 30 -14 36 -24 6 -27 45 -5 53 19 8 20 44 0 44 -8 0 -19 -9 -25 -20 -6 -11 -17 -20 -25 -20 -8 0 -15 9 -15 20 0 11 7 20 15 20 8 0 15 7 15 15 0 9 -9 15 -25 15 -19 0 -25 -5 -25 -23 0 -36 -20 -50 -41 -31 -23 20 -49 11 -49 -16 0 -11 -7 -23 -15 -27 -19 -7 -22 -4 -27 22 -2 15 3 21 20 23 17 3 21 8 17 22 -7 22 36 56 59 47 14 -5 76 44 76 61 0 5 -11 7 -25 4 -18 -3 -25 0 -25 11 0 8 -7 20 -15 27 -13 11 -13 15 -2 29 8 9 17 25 21 36 7 20 8 20 21 1 8 -10 12 -23 9 -27z m-2561 -37 c18 -16 25 -68 7 -57 -6 4 -24 -1 -42 -9 -31 -16 -32 -16 -59 16 l-27 33 21 23 c17 18 28 21 52 16 16 -3 38 -13 48 -22z m937 7 c0 -11 9 -28 21 -38 19 -15 20 -22 12 -101 -8 -83 -9 -85 -38 -95 -26 -9 -30 -14 -27 -42 2 -24 -1 -33 -11 -33 -22 0 -40 27 -35 54 4 18 0 26 -15 30 -15 4 -18 10 -12 28 4 13 9 37 12 53 3 17 12 39 19 50 8 11 14 27 14 37 0 10 7 18 15 18 11 0 15 -11 15 -41 0 -53 24 -48 28 6 2 27 -1 41 -12 47 -20 11 -21 48 -1 48 9 0 15 -9 15 -21z m1550 -9 c13 0 20 -43 9 -57 -11 -12 -66 -8 -82 7 -12 11 34 62 51 55 7 -3 17 -5 22 -5z m-2265 -34 c10 -7 16 -20 12 -29 -5 -12 -13 -14 -48 -6 -53 12 -72 6 -64 -21 5 -16 2 -20 -19 -20 -16 0 -27 -7 -31 -20 -5 -15 -15 -20 -41 -20 -38 0 -42 -7 -17 -25 21 -15 11 -45 -15 -45 -33 0 -46 26 -36 68 8 31 13 37 34 36 24 -1 59 30 60 52 0 13 25 23 80 34 56 11 65 11 85 -4z m2455 -47 c0 -25 -33 -22 -38 4 -2 12 3 17 17 17 15 0 21 -6 21 -21z m-2750 -6 c0 -5 -5 -15 -10 -23 -7 -11 -12 -12 -21 -3 -6 6 -8 16 -5 22 8 12 36 15 36 4z m2480 -18 c0 -8 -4 -15 -10 -15 -5 0 -10 7 -10 15 0 8 5 15 10 15 6 0 10 -7 10 -15z m-1998 -42 c-2 -14 4 -23 18 -28 24 -8 26 -30 3 -39 -20 -8 -66 23 -71 48 -5 22 17 48 37 44 10 -2 15 -12 13 -25z m138 -2 c0 -21 12 -41 43 -72 26 -26 37 -43 30 -46 -7 -3 -13 -20 -13 -39 0 -38 -24 -48 -35 -14 -8 24 -22 25 -46 4 -29 -26 -42 -7 -17 27 15 20 27 27 40 23 24 -7 23 1 -3 27 -20 20 -21 20 -34 2 -13 -17 -14 -17 -21 1 -4 11 -2 21 6 26 7 4 12 26 12 49 -1 34 3 41 19 41 14 0 19 -7 19 -29z m878 -21 c1 -46 -2 -51 -28 -65 -31 -16 -52 -3 -31 18 6 6 11 23 11 38 0 26 22 59 39 59 4 0 8 -23 9 -50z m-1315 14 c7 -8 -22 -54 -34 -54 -10 0 -12 43 -2 53 8 9 28 9 36 1z m497 -10 c0 -9 -7 -14 -17 -12 -25 5 -28 28 -4 28 12 0 21 -6 21 -16z m720 -43 c0 -23 -14 -41 -31 -41 -22 0 -26 -25 -5 -33 7 -3 31 1 52 8 22 8 47 14 56 15 19 0 52 -55 43 -70 -3 -6 5 -14 19 -20 29 -11 32 -20 14 -38 -18 -18 -28 -15 -38 11 -8 21 -9 21 -9 -6 -1 -33 -29 -48 -46 -24 -17 24 -29 21 -70 -14 -33 -29 -38 -30 -65 -19 -17 7 -30 16 -30 21 0 5 -11 11 -25 15 -18 4 -25 13 -25 30 0 19 5 24 28 25 15 1 33 1 40 0 6 -1 12 3 12 9 0 5 15 16 33 24 l32 13 -25 11 c-14 6 -33 13 -42 16 -24 7 -23 16 7 49 25 26 75 38 75 18z m-1662 -34 c3 -26 2 -27 -22 -15 -25 11 -33 28 -19 42 15 15 38 0 41 -27z m2904 -4 c11 -9 15 -20 10 -25 -13 -13 -112 2 -112 16 0 38 64 44 102 9z m-2498 11 c19 -7 21 -35 4 -52 -23 -23 -38 -13 -38 23 0 35 5 40 34 29z m391 -14 c0 -10 -12 -16 -32 -18 -32 -3 -45 13 -26 32 13 12 58 2 58 -14z m733 4 c38 -11 -17 -33 -125 -49 -36 -6 -42 -4 -48 14 -9 30 1 41 40 39 19 -1 38 1 41 5 5 5 64 0 92 -9z m-1565 -44 c18 -17 20 -24 9 -40 -7 -11 -12 -30 -12 -43 0 -29 -23 -62 -38 -53 -20 12 -7 156 15 156 2 0 14 -9 26 -20z m827 -25 c0 -10 -10 -15 -30 -15 -20 0 -30 5 -30 15 0 10 10 15 30 15 20 0 30 -5 30 -15z m2085 -11 c26 -17 34 -59 13 -66 -7 -3 -30 -3 -50 0 -33 4 -38 8 -38 29 0 24 23 52 43 53 4 0 19 -7 32 -16z m-1435 -14 c36 -36 21 -60 -36 -60 -16 0 -24 6 -24 18 -1 16 -1 16 -14 0 -7 -10 -21 -18 -30 -18 -27 0 -18 34 17 58 39 27 61 28 87 2z m-539 -10 c5 0 9 -7 9 -15 0 -7 6 -18 13 -22 28 -18 49 -83 27 -83 -5 0 -10 7 -10 15 0 23 -28 18 -52 -10 -12 -14 -28 -23 -34 -21 -7 3 -19 -3 -28 -13 -11 -12 -26 -16 -47 -13 -24 4 -30 1 -27 -9 3 -8 19 -14 39 -14 27 0 34 -4 34 -20 0 -15 -7 -20 -28 -20 -16 -1 -33 -8 -38 -17 -5 -9 -17 -14 -28 -11 -10 3 -22 0 -25 -6 -5 -7 4 -11 24 -11 27 0 31 -3 28 -22 -2 -17 -11 -24 -33 -26 -16 -2 -40 -13 -52 -24 l-21 -20 -11 20 c-6 11 -8 28 -5 37 4 9 1 20 -5 25 -10 6 -10 12 1 31 16 30 28 39 52 39 25 0 56 28 56 50 0 23 69 70 103 70 16 0 30 8 37 20 13 25 -5 28 -31 4 -10 -9 -23 -13 -28 -9 -16 9 -14 35 2 35 8 0 19 12 26 26 8 17 17 24 27 20 9 -3 20 -6 25 -6z m-131 -25 c0 -16 -25 -26 -45 -19 -21 8 -19 32 3 36 24 6 42 -2 42 -17z m522 -7 c15 -17 28 -35 28 -40 0 -4 10 -8 23 -8 21 -1 22 -1 3 -15 -27 -21 -29 -20 -76 26 -33 33 -39 44 -29 55 16 19 18 18 51 -18z m626 5 c2 -8 -6 -13 -22 -13 -17 0 -26 5 -26 16 0 19 41 16 48 -3z m-1877 -15 c2 -22 -2 -43 -11 -52 -11 -11 -31 29 -24 48 7 19 33 21 35 4z m2917 -10 c2 -10 -9 -22 -29 -32 -18 -9 -34 -15 -36 -13 -2 2 4 18 13 36 17 34 46 39 52 9z m-1743 2 c3 -6 -1 -13 -10 -16 -19 -8 -30 0 -20 15 8 14 22 14 30 1z m-487 -22 c15 -15 -3 -38 -29 -38 -22 0 -33 16 -25 35 7 18 37 20 54 3z m1248 -13 c16 -8 53 -15 82 -15 67 0 68 -17 6 -65 -49 -36 -68 -42 -94 -25 -13 9 -11 13 9 29 l24 19 -24 7 c-28 9 -79 45 -79 57 0 13 46 9 76 -7z m891 -12 c12 -18 12 -23 -3 -37 -20 -20 -39 -8 -46 29 -8 39 25 44 49 8z m-1567 -48 c0 -17 -26 -20 -35 -5 -5 8 -11 7 -20 0 -15 -12 -35 -6 -35 11 0 5 6 9 13 9 7 0 18 9 25 20 12 20 12 20 32 0 11 -11 20 -27 20 -35z m426 40 c4 -8 2 -21 -4 -28 -13 -15 22 -103 44 -111 18 -7 19 45 2 62 -9 9 -9 12 0 12 7 0 30 -18 51 -41 25 -26 42 -36 46 -29 4 6 0 17 -7 23 -8 7 -21 26 -27 44 -8 20 -23 35 -42 42 -32 11 -37 26 -12 35 28 11 82 -14 98 -45 9 -16 33 -40 55 -54 22 -14 40 -31 40 -38 0 -17 -58 -45 -109 -53 -32 -5 -41 -3 -54 15 -15 22 -15 22 -25 -8 -13 -35 -38 -40 -77 -15 -18 12 -25 25 -25 49 0 20 -6 35 -15 39 -23 8 -18 61 8 90 25 29 45 33 53 11z m-1074 -12 c10 -9 18 -22 18 -30 0 -16 -32 -17 -48 -1 -15 15 -16 48 0 48 6 0 20 -7 30 -17z m2428 3 c0 -8 -9 -18 -20 -21 -14 -4 -20 -15 -20 -36 0 -31 -1 -32 -24 -23 -23 9 -20 45 4 51 11 3 20 14 20 24 0 12 7 19 20 19 11 0 20 -6 20 -14z m-1489 -12 c11 -14 10 -18 -6 -30 -10 -8 -22 -14 -27 -14 -4 0 -8 -13 -8 -28 0 -16 -9 -37 -20 -47 -11 -10 -20 -25 -20 -34 -1 -31 -36 -61 -74 -61 -22 0 -38 -6 -44 -17 -14 -23 -42 -9 -42 22 0 14 6 25 12 25 7 0 29 19 49 42 36 39 37 44 32 95 -6 53 -5 55 18 51 19 -2 25 -11 30 -38 l5 -35 10 35 c7 23 18 37 35 41 36 10 35 10 50 -7z m-1761 -19 c0 -8 -4 -17 -10 -20 -6 -4 -10 5 -10 20 0 15 4 24 10 20 6 -3 10 -12 10 -20z m1530 5 c0 -11 -7 -20 -15 -20 -8 0 -15 9 -15 20 0 11 7 20 15 20 8 0 15 -9 15 -20z m62 -64 c-5 -39 -9 -42 -47 -24 -32 14 -31 23 3 59 22 24 29 27 38 15 5 -8 8 -31 6 -50z m-534 31 c4 -20 -25 -34 -40 -19 -15 15 -1 44 19 40 10 -2 19 -11 21 -21z m-978 -2 c0 -16 -35 -21 -44 -6 -8 12 4 21 26 21 10 0 18 -7 18 -15z m688 3 c20 -20 14 -48 -10 -48 -25 0 -58 27 -58 47 0 16 51 18 68 1z m328 -35 c-11 -11 -19 6 -11 24 8 17 8 17 12 0 3 -10 2 -21 -1 -24z m1905 27 c12 -7 19 -21 19 -41 0 -40 -27 -50 -52 -20 -27 34 -23 62 10 70 2 1 12 -4 23 -9z m157 -17 c-2 -23 -7 -28 -30 -26 -19 1 -28 -4 -31 -19 -4 -12 -12 -18 -24 -16 -25 5 -23 42 2 47 11 2 26 12 33 22 7 11 22 19 33 19 16 0 20 -6 17 -27z m-1718 0 c0 -9 8 -25 18 -36 17 -20 23 -86 10 -119 -11 -26 -85 -24 -114 3 -20 19 -21 23 -7 49 8 17 18 32 24 35 5 4 9 15 9 25 0 23 29 60 47 60 7 0 13 -8 13 -17z m-110 -10 c28 -25 25 -45 -15 -86 -19 -20 -35 -43 -35 -52 0 -19 0 -19 -38 1 -18 8 -32 20 -32 26 0 13 61 98 71 98 4 0 10 -8 13 -17 5 -12 9 -14 18 -5 9 9 9 15 0 24 -12 12 -16 28 -7 28 3 0 14 -8 25 -17z m-1292 -47 c4 -44 -13 -72 -34 -55 -17 14 -18 53 -3 80 15 30 34 18 37 -25z m640 38 c26 -7 31 -51 6 -61 -22 -8 -67 36 -53 54 13 15 15 15 47 7z m2560 -17 c3 -12 -3 -17 -22 -17 -16 0 -27 -7 -31 -21 -8 -24 -38 -22 -43 4 -2 11 6 20 21 26 14 6 28 15 32 21 10 16 39 8 43 -13z m-2248 -33 c0 -14 -21 -19 -33 -7 -9 9 13 34 24 27 5 -3 9 -12 9 -20z m1900 6 c-10 -19 -30 -28 -30 -14 0 6 30 33 38 34 1 0 -2 -9 -8 -20z m-2723 -63 c7 -4 13 -14 13 -22 0 -18 32 -27 64 -19 22 5 26 3 26 -15 0 -18 -6 -21 -40 -21 -44 0 -80 27 -80 59 0 10 -7 21 -15 25 -8 3 -15 16 -15 29 0 38 14 41 24 5 6 -18 16 -37 23 -41z m881 56 c-4 -22 -22 -20 -26 1 -2 10 3 16 13 16 10 0 15 -7 13 -17z m-443 -5 c34 -15 28 -42 -10 -46 -40 -3 -59 10 -50 37 7 24 23 26 60 9z m2375 -58 c0 -46 -22 -59 -45 -27 -19 27 -19 37 1 65 22 31 44 12 44 -38z m145 35 c0 -12 -8 -21 -20 -23 -11 -2 -27 -10 -35 -17 -8 -8 -28 -17 -45 -21 -27 -7 -29 -6 -16 9 8 10 11 27 7 42 -6 23 8 37 16 16 2 -4 13 -11 24 -15 17 -5 23 -2 27 15 7 27 42 22 42 -6z m-3029 -11 c8 -29 -7 -49 -30 -41 -16 6 -22 48 -9 60 14 15 33 6 39 -19z m685 -40 c-11 -25 -13 -26 -28 -11 -14 14 -15 21 -4 43 11 25 13 26 28 11 14 -14 15 -21 4 -43z m-61 27 c0 -24 -12 -32 -30 -21 -11 7 -11 11 -1 24 18 22 31 20 31 -3z m2496 8 c10 -17 -23 -46 -37 -32 -7 7 -9 19 -6 27 7 18 33 21 43 5z m-2196 -17 c0 -19 -44 -65 -72 -75 -9 -3 -18 -16 -20 -29 -2 -13 -11 -24 -23 -27 -11 -2 -24 -9 -28 -17 -4 -8 -14 -14 -21 -14 -8 0 -17 -8 -20 -17 -5 -12 -9 -14 -18 -5 -16 16 -65 15 -70 0 -2 -6 -12 -9 -21 -5 -14 5 -15 10 -5 26 8 13 9 29 2 52 -9 30 -13 34 -38 31 -30 -4 -48 12 -39 35 7 17 44 17 69 -2 10 -8 32 -15 47 -15 16 0 37 -5 48 -11 16 -8 26 -6 47 8 29 19 142 79 155 82 4 0 7 -7 7 -17z m837 1 c4 -10 11 -21 17 -25 6 -5 1 -8 -11 -8 -12 0 -26 -8 -32 -17 -8 -14 -14 -16 -28 -7 -28 18 -27 41 4 57 38 20 43 20 50 0z m-87 -22 c0 -10 -7 -22 -16 -25 -9 -3 -14 -12 -11 -20 4 -10 -7 -16 -41 -21 -26 -4 -52 -11 -59 -17 -20 -16 -58 -5 -58 17 0 15 9 21 36 26 21 3 51 18 69 32 38 32 80 36 80 8z m1387 8 c16 -16 5 -39 -17 -39 -23 0 -34 16 -26 35 6 18 28 19 43 4z m-3438 -19 c30 -26 21 -53 -16 -48 -28 3 -40 25 -29 54 7 19 16 17 45 -6z m802 -10 c20 -11 27 -60 9 -60 -18 0 -60 32 -60 45 0 11 10 20 28 24 2 1 12 -4 23 -9z m2587 -26 c26 -42 28 -60 6 -68 -24 -9 -36 3 -30 30 5 17 2 24 -8 24 -19 0 -29 17 -22 35 9 25 30 16 54 -21z m-2475 -16 c7 -50 -2 -63 -37 -54 -28 7 -35 33 -11 42 8 4 15 14 15 23 0 18 8 31 20 31 4 0 10 -19 13 -42z m2317 -8 c7 -16 20 -32 30 -35 11 -3 20 -17 22 -33 2 -22 9 -28 34 -30 17 -2 38 3 46 10 17 16 76 48 89 48 5 0 9 -4 9 -10 0 -15 -38 -50 -54 -50 -7 0 -19 -7 -26 -15 -7 -8 -23 -15 -36 -15 -31 0 -49 -33 -33 -61 7 -14 8 -24 1 -31 -16 -16 -33 1 -30 30 3 26 1 27 -42 27 -33 0 -45 4 -48 16 -2 11 7 18 29 23 30 6 31 7 24 43 -9 49 -20 61 -45 45 -29 -18 -37 -15 -54 19 -20 40 -14 49 33 49 33 0 40 -4 51 -30z m74 24 c9 -3 16 -10 16 -16 0 -5 7 -16 15 -24 19 -19 19 -50 1 -57 -17 -7 -40 18 -31 33 4 6 -4 19 -16 29 -12 10 -19 23 -15 29 8 14 9 14 30 6z m156 -14 c0 -11 -7 -20 -15 -20 -8 0 -15 9 -15 20 0 11 7 20 15 20 8 0 15 -9 15 -20z m-1162 -9 c26 -22 28 -43 7 -61 -8 -7 -15 -16 -15 -21 0 -13 -91 -99 -105 -99 -14 0 -45 63 -45 90 0 28 17 34 30 10 6 -11 17 -20 25 -20 18 0 18 5 5 29 -5 10 -7 35 -3 55 5 34 8 36 42 36 20 -1 46 -9 59 -19z m-1542 -15 c8 -20 -26 -68 -45 -64 -17 3 -26 39 -17 64 7 18 55 18 62 0z m222 -35 c-3 -30 -35 -41 -44 -16 -4 9 -1 28 5 42 10 21 14 23 27 12 8 -7 14 -24 12 -38z m-550 5 c3 -11 -2 -24 -9 -30 -8 -6 -14 -22 -14 -36 0 -28 -27 -39 -51 -19 -13 10 -12 14 2 30 9 10 14 25 11 33 -8 19 20 48 42 44 8 -2 17 -12 19 -22z m1632 -1 c7 -8 26 -43 42 -77 27 -58 29 -66 17 -101 -15 -47 -2 -61 43 -45 35 13 57 -4 77 -57 11 -31 10 -41 -4 -73 -10 -20 -23 -44 -30 -52 -7 -8 -26 -39 -42 -69 -24 -45 -35 -55 -73 -68 -33 -11 -49 -12 -62 -4 -10 6 -22 11 -28 11 -16 0 -12 -42 7 -62 10 -11 13 -22 7 -26 -16 -15 -89 -34 -115 -30 -23 3 -24 7 -27 82 -2 56 1 83 11 95 20 23 27 45 43 135 10 58 20 87 38 105 30 32 47 93 48 174 0 34 2 65 5 70 7 12 30 8 43 -8z m-1232 -23 c2 -14 10 -22 22 -22 10 0 21 -4 24 -9 6 -9 72 -42 109 -55 34 -11 12 -31 -38 -34 -38 -3 -52 1 -62 14 -7 10 -26 18 -41 19 -20 0 -28 6 -30 22 -2 12 -12 25 -23 28 -22 7 -24 18 -6 45 15 26 41 22 45 -8z m1042 13 c0 -8 -4 -15 -10 -15 -5 0 -10 7 -10 15 0 8 5 15 10 15 6 0 10 -7 10 -15z m1285 -46 c0 -29 -4 -34 -26 -37 -25 -3 -27 -6 -22 -43 4 -30 2 -39 -9 -39 -9 0 -21 -7 -28 -15 -10 -12 -16 -13 -26 -4 -31 25 -10 80 36 94 15 5 20 15 20 40 0 24 5 35 18 38 30 8 37 1 37 -34z m68 16 c1 -5 -6 -11 -15 -13 -11 -2 -18 3 -18 13 0 17 30 18 33 0z m-2999 -20 c19 -14 19 -15 1 -15 -10 0 -26 -7 -35 -15 -20 -19 -60 -9 -60 16 0 13 9 19 33 22 17 2 34 4 37 5 3 1 14 -5 24 -13z m484 -12 c-5 -26 -38 -29 -38 -4 0 15 6 21 21 21 14 0 19 -5 17 -17z m1626 -15 c19 -27 21 -79 4 -96 -9 -9 -8 -15 7 -25 13 -10 15 -16 6 -21 -7 -5 -18 -1 -25 10 -8 11 -21 15 -34 12 -25 -7 -62 17 -62 39 0 18 66 103 80 103 5 0 16 -10 24 -22z m-2009 -10 c48 -22 67 -97 29 -112 -10 -4 -12 -14 -8 -30 6 -27 -6 -39 -31 -30 -14 6 -16 15 -11 45 5 32 3 39 -10 39 -11 0 -14 -6 -9 -20 10 -32 -4 -60 -29 -60 -32 0 -39 11 -19 32 9 10 16 33 15 52 -1 22 4 36 13 40 8 3 15 17 15 31 0 28 7 30 45 13z m1485 -12 c0 -38 19 -41 31 -6 13 35 31 35 39 -1 6 -22 7 -23 16 -6 15 26 58 19 62 -10 2 -16 -7 -28 -37 -47 -33 -21 -53 -26 -107 -26 -74 0 -72 -4 -42 83 15 42 38 50 38 13z m1620 9 c0 -8 -6 -15 -14 -15 -17 0 -28 14 -19 24 12 12 33 6 33 -9z m-2972 -28 c2 -18 -1 -27 -11 -27 -18 0 -29 24 -20 45 8 23 28 12 31 -18z m2917 13 c9 -15 -14 -40 -31 -33 -17 6 -18 30 -1 36 19 8 25 8 32 -3z m-2580 -39 c3 -10 1 -30 -4 -45 -9 -21 -8 -26 4 -26 8 0 15 9 15 20 0 11 7 23 15 26 18 7 95 -52 95 -72 0 -8 10 -14 25 -14 16 0 25 -6 25 -15 0 -16 -30 -20 -45 -6 -6 5 -29 12 -52 16 -34 5 -43 4 -43 -8 0 -21 -25 -38 -44 -31 -40 15 -51 77 -29 157 6 23 30 22 38 -2z m2398 7 c6 -19 -3 -38 -18 -38 -18 0 -28 17 -21 35 7 18 33 20 39 3z m64 -4 c3 -8 1 -20 -6 -27 -20 -20 -12 -27 29 -27 27 0 43 5 46 15 8 20 64 20 64 1 0 -9 -12 -16 -27 -18 -25 -3 -28 -7 -28 -42 0 -22 -5 -41 -12 -43 -9 -3 -13 6 -13 25 l0 31 -67 -1 c-84 0 -108 -5 -94 -21 5 -7 9 -29 9 -49 0 -20 3 -42 7 -48 12 -19 -15 -41 -36 -29 -10 5 -19 6 -20 2 0 -4 -2 -27 -4 -50 l-3 -43 44 0 c32 0 44 -4 44 -15 0 -10 -10 -15 -32 -15 -17 0 -39 -6 -47 -14 -9 -7 -35 -16 -59 -20 -34 -5 -44 -3 -49 10 -7 19 15 36 39 30 31 -7 38 16 25 81 -11 61 -12 62 -47 65 -19 2 -34 8 -32 13 2 6 12 9 23 8 11 -2 19 3 19 12 0 20 37 38 66 32 16 -3 24 0 24 9 0 10 -13 14 -40 14 -29 0 -40 4 -40 15 0 9 9 15 25 15 14 0 29 8 34 19 9 15 18 18 55 14 58 -7 83 2 66 22 -7 8 -10 22 -6 30 7 20 35 19 43 -1z m-3097 -9 c0 -12 -28 -35 -44 -35 -8 0 -7 35 1 43 12 13 43 7 43 -8z m2858 -47 c10 -14 1 -52 -16 -62 -16 -10 -35 22 -28 49 7 27 27 33 44 13z m-613 -38 c4 -6 1 -18 -6 -26 -11 -13 -10 -18 4 -25 16 -9 16 -12 1 -34 -9 -14 -22 -25 -29 -25 -6 0 -31 -13 -53 -30 -48 -35 -62 -37 -62 -11 0 24 69 131 85 131 7 0 18 7 25 15 15 18 26 19 35 5z m-515 -7 c-1 -49 -79 -177 -97 -160 -3 4 -1 13 5 19 18 18 15 25 -18 32 -27 5 -30 9 -30 45 0 30 6 44 22 55 23 16 118 23 118 9z m1068 -40 c3 -33 -25 -63 -59 -63 -17 0 -29 -19 -29 -46 0 -22 81 -19 86 4 7 23 89 25 89 2 0 -8 -11 -16 -25 -18 -35 -5 -43 -16 -42 -57 1 -32 -1 -35 -28 -35 -23 0 -30 5 -30 19 0 11 3 21 8 24 4 2 0 2 -8 -1 -37 -12 -55 -7 -58 16 -2 12 -12 27 -23 32 -36 20 -19 90 21 90 9 0 29 16 45 35 32 42 49 41 53 -2z m262 -39 c0 -48 -3 -65 -12 -62 -17 6 -30 109 -16 125 19 23 28 2 28 -63z m67 60 c8 -22 -18 -37 -36 -20 -7 8 -10 19 -7 25 10 16 36 13 43 -5z m-2844 -13 c33 -17 33 -19 5 -81 -22 -48 -40 -61 -53 -40 -11 17 -22 11 -21 -12 1 -14 -5 -23 -14 -23 -21 0 -24 29 -5 48 8 9 15 20 15 26 0 5 9 13 20 16 11 3 20 11 20 16 0 5 -9 9 -20 9 -25 0 -26 28 -2 46 9 7 19 12 22 11 3 -2 17 -9 33 -16z m441 -17 c10 -25 7 -32 -16 -54 -26 -24 -14 -42 21 -33 17 4 22 11 18 29 -5 29 13 47 33 34 13 -8 13 -14 -3 -41 -21 -38 -15 -49 28 -49 34 0 54 -15 39 -30 -5 -4 -35 -5 -66 -3 -44 4 -59 10 -63 24 -5 15 -9 16 -25 6 -14 -8 -23 -8 -30 -1 -12 12 -3 64 11 64 5 0 9 13 9 28 0 16 3 32 7 35 11 12 31 7 37 -9z m-186 -21 c-2 -22 -8 -28 -28 -28 -20 0 -26 6 -28 28 -3 24 0 27 28 27 28 0 31 -3 28 -27z m332 12 c0 -8 -9 -15 -20 -15 -11 0 -20 7 -20 15 0 8 9 15 20 15 11 0 20 -7 20 -15z m-720 -32 c0 -7 -6 -13 -13 -13 -17 0 -37 20 -37 37 0 10 5 10 25 1 14 -6 25 -17 25 -25z m484 18 c4 -5 2 -21 -4 -36 -9 -23 -13 -25 -25 -15 -18 15 -20 46 -2 53 19 8 25 8 31 -2z m1680 -62 c-10 -11 -26 -19 -36 -19 -11 0 -22 -9 -25 -20 -5 -21 -27 -27 -37 -11 -9 14 4 40 23 46 9 3 25 19 35 37 l19 31 19 -23 c17 -21 17 -24 2 -41z m806 41 c0 -23 -25 -27 -33 -6 -7 16 1 26 20 26 7 0 13 -9 13 -20z m-2281 -13 c8 -10 7 -17 -1 -25 -15 -15 -39 3 -31 24 7 18 17 18 32 1z m1796 -47 c-5 -8 -11 -8 -17 -2 -6 6 -7 16 -3 22 5 8 11 8 17 2 6 -6 7 -16 3 -22z m-2067 3 c-4 -20 -45 -28 -67 -14 -22 14 -3 31 35 31 28 0 35 -4 32 -17z m2023 -22 c16 -16 29 -36 29 -45 0 -8 10 -16 22 -18 26 -3 37 -36 16 -49 -17 -11 -49 -11 -68 1 -12 7 -12 12 4 29 16 17 16 21 4 21 -8 0 -23 9 -33 20 -10 11 -24 20 -32 20 -19 0 -16 27 5 39 23 14 20 15 53 -18z m466 2 c5 -14 -3 -19 -50 -27 -30 -6 -39 -4 -44 10 -3 9 0 20 8 24 18 12 82 7 86 -7z m-2371 -30 c10 -10 27 -18 38 -18 14 0 22 -7 24 -22 4 -27 -23 -31 -54 -8 -10 8 -29 15 -41 15 -22 0 -33 16 -25 38 6 18 38 15 58 -5z m208 5 c11 -36 14 -76 6 -88 -8 -13 -13 -13 -30 -2 -12 7 -30 10 -41 7 -16 -5 -19 -12 -14 -35 4 -20 2 -29 -9 -33 -18 -7 -46 1 -46 13 0 5 -17 10 -37 12 -30 2 -38 7 -38 23 0 20 14 23 70 13 16 -2 21 4 25 32 4 27 10 36 27 38 17 3 26 -4 34 -24 8 -23 12 -25 19 -14 6 8 10 27 10 43 0 27 17 38 24 15z m783 -4 c3 -9 -3 -21 -17 -31 -13 -9 -30 -24 -39 -35 -9 -11 -29 -18 -49 -18 -42 0 -102 25 -102 42 0 13 59 35 130 49 59 11 70 10 77 -7z m1207 0 c7 -19 -1 -34 -19 -34 -18 0 -28 17 -21 35 7 20 32 19 40 -1z m-2584 -3 c0 -14 -18 -23 -30 -16 -6 4 -8 11 -5 16 8 12 35 12 35 0z m1890 -7 c0 -7 -7 -14 -15 -18 -8 -3 -15 -14 -15 -25 0 -19 -26 -41 -49 -41 -17 0 -13 37 4 44 26 9 16 27 -12 24 -25 -3 -28 -7 -31 -45 -3 -38 -6 -43 -28 -43 -15 0 -24 6 -24 15 0 8 4 15 9 15 5 0 12 17 16 37 4 21 9 41 11 45 8 12 134 4 134 -8z m-1595 -30 c0 -13 -8 -20 -28 -22 -31 -4 -46 20 -27 43 16 19 55 4 55 -21z m-355 8 c0 -13 -12 -22 -22 -16 -10 6 -1 24 13 24 5 0 9 -4 9 -8z m720 -38 c0 -8 -7 -14 -15 -14 -15 0 -21 21 -9 33 10 9 24 -2 24 -19z m1537 10 c4 -10 -1 -22 -12 -30 -9 -7 -15 -20 -12 -28 5 -12 1 -13 -24 -4 -31 10 -36 27 -19 59 13 23 58 25 67 3z m-1245 -24 c21 -29 58 -41 58 -20 0 6 8 10 19 10 17 0 31 -25 31 -57 0 -15 -36 -17 -45 -3 -3 6 -16 10 -27 10 -11 0 -33 13 -48 28 -15 16 -34 32 -44 35 -25 10 -19 27 9 27 16 0 32 -11 47 -30z m204 -7 c18 -20 31 -40 28 -45 -7 -11 -44 -10 -44 2 0 5 -13 22 -30 36 -16 15 -27 31 -24 35 11 19 39 8 70 -28z m-416 -20 c0 -7 -11 -19 -25 -25 -28 -12 -42 -45 -27 -60 17 -17 2 -38 -28 -38 -28 0 -28 1 -29 61 l0 61 28 -5 c31 -6 77 20 54 29 -7 3 -13 10 -13 16 0 6 9 3 20 -7 11 -10 20 -24 20 -32z m1787 17 c4 -15 14 -20 42 -20 21 0 41 -3 44 -7 10 -10 -13 -33 -34 -33 -11 0 -30 -17 -45 -40 -15 -22 -30 -37 -35 -34 -15 9 -10 46 8 66 20 22 11 33 -36 45 -46 12 -51 31 -9 36 18 2 39 5 46 5 8 1 16 -7 19 -18z m-434 3 c4 -3 1 -13 -5 -21 -10 -11 -9 -17 5 -27 9 -7 17 -17 17 -23 0 -17 -30 -23 -36 -7 -3 8 -14 17 -25 20 -18 6 -27 44 -12 58 8 9 48 9 56 0z m-1779 -9 c9 -3 16 -15 16 -25 0 -14 -7 -19 -30 -19 -31 0 -39 17 -18 38 14 14 12 14 32 6z m1066 -29 c0 -44 -64 -71 -91 -39 -11 14 -9 19 11 35 30 24 62 38 73 32 4 -2 7 -15 7 -28z m1025 5 c0 -20 -6 -26 -29 -28 -43 -5 -57 15 -27 39 31 26 56 21 56 -11z m-1807 -13 c2 -16 -1 -34 -7 -41 -8 -10 -7 -17 4 -26 12 -10 13 -16 4 -26 -14 -18 -30 -18 -54 -1 -15 12 -16 19 -8 44 7 18 7 36 2 46 -7 11 -4 19 8 26 28 17 48 8 51 -22z m678 12 c3 -6 -3 -21 -15 -33 -19 -18 -23 -19 -31 -6 -18 28 -12 50 14 50 14 0 28 -5 32 -11z m428 -10 c38 -22 39 -39 3 -39 -31 1 -61 26 -54 45 8 19 9 19 51 -6z m555 -3 c15 -28 8 -46 -19 -46 -25 0 -33 15 -26 46 8 31 29 31 45 0z m-274 -16 c0 -20 -6 -26 -28 -28 -30 -4 -61 14 -51 30 8 13 46 27 64 25 9 -1 15 -13 15 -27z m-1069 -13 c5 -15 -1 -26 -22 -41 -15 -11 -39 -31 -52 -43 -14 -13 -34 -23 -44 -23 -11 0 -26 -7 -34 -15 -28 -28 -44 -18 -44 26 0 22 -5 49 -10 59 -8 15 -6 21 9 29 24 13 42 -6 34 -37 -3 -12 -2 -30 2 -39 6 -16 8 -16 16 5 5 13 17 22 30 22 30 0 65 31 61 54 -8 39 42 42 54 3z m954 -29 c0 -12 -8 -18 -22 -18 -21 -1 -21 -2 -5 -11 20 -12 23 -49 4 -49 -20 0 -44 31 -51 67 -6 27 -4 33 21 46 25 12 30 12 41 -2 6 -8 12 -23 12 -33z m-1500 22 c13 -8 13 -11 -1 -25 -17 -17 -49 -11 -49 9 0 26 23 33 50 16z m138 1 c8 -4 12 -19 10 -32 -4 -29 -45 -34 -61 -8 -22 35 15 63 51 40z m1671 -5 c7 -8 26 -18 42 -21 16 -4 31 -11 34 -16 4 -5 17 -9 31 -9 17 0 24 5 24 20 0 26 8 25 37 -2 24 -22 31 -72 13 -83 -6 -4 -15 7 -21 24 -11 32 -29 42 -29 17 0 -22 -43 -28 -60 -8 -8 9 -25 16 -37 14 -14 -2 -23 3 -28 17 -5 16 -12 20 -29 15 -24 -6 -43 17 -30 37 8 14 40 11 53 -5z m256 -11 c0 -23 -30 -32 -51 -14 -11 9 -12 15 -2 26 17 20 53 12 53 -12z m-1627 -2 c-4 -22 -22 -20 -26 1 -2 10 3 16 13 16 10 0 15 -7 13 -17z m202 6 c0 -20 -21 -49 -35 -49 -15 0 -30 35 -20 50 8 13 55 13 55 -1z m114 -22 c16 -12 15 -14 -8 -36 -39 -36 -81 -13 -62 35 7 17 46 18 70 1z m536 -13 c14 -35 13 -44 -4 -38 -7 3 -30 -4 -50 -15 -20 -11 -36 -17 -36 -11 0 5 5 12 10 15 6 3 10 17 10 30 0 45 55 60 70 19z m94 11 c8 -22 -29 -38 -56 -24 -21 11 -21 12 -3 25 25 18 51 18 59 -1z m288 1 c10 -10 17 -11 31 -2 14 9 20 7 28 -6 6 -10 18 -18 28 -18 10 0 24 -7 31 -15 7 -8 19 -15 27 -15 10 0 13 -9 11 -27 -4 -34 -33 -43 -43 -13 -5 16 -10 18 -20 10 -23 -19 -6 -47 37 -59 30 -9 43 -9 54 0 11 9 15 8 20 -4 17 -45 -33 -79 -60 -41 -8 10 -20 15 -29 11 -11 -4 -20 1 -27 13 -6 11 -21 20 -34 20 -13 0 -27 7 -30 16 -4 10 -13 13 -26 9 -13 -4 -23 0 -32 14 -7 12 -22 21 -34 21 -12 0 -24 7 -28 15 -9 24 -26 17 -26 -10 0 -20 6 -27 29 -31 17 -4 32 -12 35 -20 3 -8 14 -14 25 -14 11 0 23 -4 26 -10 3 -5 17 -10 30 -10 14 0 29 -9 35 -20 6 -11 19 -20 30 -20 27 0 34 -17 11 -29 -27 -15 -41 -14 -41 4 0 8 -9 15 -20 15 -11 0 -29 9 -40 20 -11 11 -26 17 -33 14 -8 -3 -20 2 -27 11 -18 22 -30 18 -30 -10 0 -19 5 -25 21 -25 11 0 27 -7 35 -15 9 -8 26 -15 40 -15 31 0 32 -26 2 -34 -15 -4 -28 0 -38 12 -8 9 -29 22 -47 28 -27 10 -34 9 -47 -5 -23 -26 -20 -31 19 -31 23 0 35 -5 35 -14 0 -17 -32 -26 -53 -14 -23 12 -57 -7 -57 -32 0 -26 -26 -26 -40 0 -8 15 -6 21 10 30 27 15 28 54 0 47 -23 -6 -45 16 -36 38 8 21 28 19 60 -6 24 -19 27 -19 33 -3 7 18 -19 44 -44 44 -7 0 -13 7 -13 16 0 10 -7 14 -22 12 -16 -2 -24 -11 -26 -30 -2 -18 -11 -28 -27 -32 -20 -5 -23 -10 -16 -29 6 -16 16 -21 34 -19 19 2 27 -3 32 -19 10 -30 -7 -44 -36 -28 -13 6 -28 18 -32 25 -4 8 -19 14 -32 14 -15 0 -25 6 -25 14 0 8 -5 18 -10 21 -16 10 -40 -15 -40 -41 0 -16 -7 -25 -23 -30 -19 -4 -23 -11 -19 -30 4 -20 0 -24 -19 -24 -12 0 -31 -7 -41 -17 -10 -9 -20 -14 -23 -11 -10 10 28 71 47 76 11 3 21 17 25 35 4 17 14 32 25 35 10 2 21 15 24 28 3 12 16 30 29 38 30 20 24 60 -7 50 -23 -7 -39 11 -31 33 7 18 38 17 53 -2 7 -8 23 -15 35 -15 37 0 39 -29 5 -60 -32 -29 -40 -60 -15 -60 8 0 22 18 31 40 9 22 23 40 31 40 10 0 13 9 11 28 -2 21 -8 26 -24 24 -12 -1 -26 4 -33 12 -10 12 -9 17 8 25 26 14 26 14 47 -6 10 -10 27 -18 38 -18 15 0 22 -7 24 -27 3 -22 9 -28 27 -28 14 0 29 -9 36 -21 13 -25 33 -12 27 17 -2 13 -12 19 -28 19 -29 0 -40 32 -18 49 8 6 17 19 21 28 3 9 15 22 27 28 18 10 22 9 27 -9 3 -14 13 -21 28 -21 12 0 28 -7 35 -15 18 -21 40 -19 40 5 0 16 -7 20 -30 20 -34 0 -52 26 -29 41 20 12 36 11 51 -5z m-492 -26 c0 -14 -10 -25 -29 -33 -23 -10 -28 -16 -21 -27 13 -20 12 -30 0 -30 -16 0 -90 -78 -90 -95 0 -10 10 -15 30 -15 23 0 30 -4 30 -20 0 -16 7 -20 30 -20 23 0 30 -4 30 -20 0 -12 -12 -26 -30 -35 -17 -9 -30 -24 -30 -35 0 -19 -32 -36 -50 -25 -5 3 -10 15 -10 25 0 12 -10 21 -30 25 -16 4 -30 13 -30 21 0 8 -7 14 -15 14 -8 0 -19 10 -26 21 -9 17 -8 25 4 37 23 22 49 8 45 -25 -3 -25 0 -28 23 -25 20 2 28 -2 32 -18 8 -30 51 -24 55 8 3 19 -1 22 -27 22 -24 0 -32 5 -37 24 -3 15 -15 27 -30 30 -15 4 -24 14 -24 27 0 11 -7 22 -15 25 -8 4 -15 11 -15 18 0 23 -18 38 -37 32 -15 -5 -19 -13 -15 -32 4 -21 9 -24 28 -20 34 9 33 -30 -1 -46 -14 -6 -25 -14 -25 -17 0 -3 -3 -16 -6 -27 -4 -17 0 -23 20 -28 32 -8 34 -32 4 -42 -14 -4 -25 -1 -33 10 -17 23 -43 20 -47 -6 -2 -18 -11 -24 -35 -26 -35 -4 -42 8 -18 28 19 16 11 25 -23 25 -23 0 -27 4 -25 27 2 33 -35 47 -54 21 -18 -24 -16 -31 10 -35 14 -2 23 -11 25 -26 5 -32 -26 -41 -49 -14 -9 12 -22 22 -28 22 -14 0 -31 33 -31 59 0 18 5 21 32 19 27 -3 34 1 36 19 2 15 -3 23 -18 28 -16 5 -21 13 -18 30 7 34 -32 51 -47 21 -7 -13 -22 -22 -43 -24 -37 -4 -62 -36 -36 -46 26 -10 44 -7 44 8 0 20 38 30 55 16 20 -17 1 -53 -24 -45 -11 3 -25 -3 -36 -15 -18 -19 -18 -20 2 -20 30 0 49 -26 33 -45 -7 -8 -17 -15 -22 -15 -13 0 -67 61 -74 84 -4 11 -13 26 -20 34 -8 7 -14 24 -14 37 0 26 -22 39 -39 22 -16 -16 -14 -25 10 -32 16 -5 19 -12 15 -31 -5 -17 -2 -26 9 -30 19 -8 20 -34 1 -34 -15 0 -57 59 -76 108 -15 37 -4 54 30 45 11 -3 19 3 23 17 4 16 12 21 31 18 15 -2 31 4 38 13 7 9 29 19 48 22 19 3 29 3 23 0 -7 -2 -13 -13 -13 -24 0 -13 -7 -19 -24 -19 -14 0 -30 -10 -40 -25 -15 -23 -15 -25 5 -35 17 -10 21 -8 26 10 4 13 16 23 34 27 24 4 29 11 29 34 0 32 6 34 45 19 19 -7 25 -15 21 -27 -4 -10 1 -23 14 -35 11 -10 20 -28 20 -38 0 -27 36 -26 43 0 4 15 14 20 36 20 26 0 31 -4 31 -25 0 -16 6 -25 15 -25 8 0 15 8 15 18 0 26 76 93 97 85 10 -4 20 -10 23 -13 3 -4 15 -10 26 -14 16 -5 23 -2 27 14 7 26 34 26 42 0 11 -35 40 -23 64 26 19 37 39 56 69 63 1 1 2 -8 2 -19z m-1136 4 c20 -8 21 -33 1 -40 -23 -9 -48 15 -34 32 13 16 12 16 33 8z m823 -10 c8 -21 -16 -35 -47 -27 -32 8 -34 9 -27 28 8 21 66 20 74 -1z m108 -9 c0 -13 -8 -21 -24 -23 -28 -4 -46 11 -37 33 9 25 61 16 61 -10z m1118 11 c6 -15 -6 -29 -36 -39 -20 -7 -33 14 -23 38 7 19 52 20 59 1z m-1023 -11 c0 -9 -9 -15 -25 -15 -24 0 -32 10 -18 23 12 13 43 7 43 -8z m-830 -45 c4 -20 10 -41 14 -48 4 -7 4 -17 0 -23 -4 -8 -11 -4 -19 10 -6 12 -22 28 -36 34 -30 15 -38 53 -12 60 36 10 48 2 53 -33z m78 13 c-4 -20 -45 -30 -60 -15 -16 16 1 32 33 32 24 0 30 -4 27 -17z m450 -1 c-9 -2 -19 -14 -22 -28 -5 -19 -12 -25 -29 -22 -35 5 -34 37 2 44 17 4 31 10 31 15 0 5 8 5 18 1 15 -6 15 -7 0 -10z m56 -8 c18 -7 21 -39 5 -50 -16 -9 -43 21 -36 40 7 18 9 18 31 10z m1085 -3 c23 -15 5 -41 -28 -41 -33 0 -46 13 -37 35 6 17 43 20 65 6z m-1799 -21 c0 -11 -7 -20 -15 -20 -8 0 -15 2 -15 4 0 2 -3 11 -6 20 -4 12 0 16 15 16 14 0 21 -6 21 -20z m1086 -14 c4 -19 12 -24 32 -23 21 2 28 -3 30 -20 3 -19 -1 -23 -21 -23 -14 0 -30 7 -37 15 -7 8 -21 15 -32 15 -27 0 -35 30 -13 46 26 19 34 18 41 -10z m772 2 c-4 -27 -28 -36 -28 -10 0 20 8 32 22 32 5 0 8 -10 6 -22z m-1622 -33 c2 -10 10 -22 18 -27 19 -11 21 -48 3 -48 -16 0 -51 31 -73 65 -13 21 -14 28 -4 40 11 13 16 13 33 2 11 -7 22 -22 23 -32z m-173 -10 c1 -5 -6 -11 -15 -13 -11 -2 -18 3 -18 13 0 17 30 18 33 0z m973 -20 c4 -8 11 -15 18 -15 24 0 38 -18 31 -39 -9 -28 -33 -27 -40 2 -5 19 -12 23 -34 19 -28 -4 -48 18 -35 39 9 15 54 10 60 -6z m175 -121 c10 -13 10 -17 -2 -25 -30 -19 -57 -3 -45 26 7 20 30 19 47 -1z m65 -24 c21 0 17 -28 -6 -35 -26 -8 -40 1 -40 27 0 14 5 18 16 14 9 -3 22 -6 30 -6z m-411 -36 c0 -13 -8 -20 -27 -22 -32 -4 -39 21 -10 37 23 14 37 8 37 -15z m309 -15 c-8 -13 -54 -11 -54 2 0 7 8 18 18 25 14 11 19 11 29 -3 7 -9 10 -20 7 -24z"/> <path d="M5930 7045 c0 -14 5 -25 10 -25 6 0 10 11 10 25 0 14 -4 25 -10 25 -5 0 -10 -11 -10 -25z"/> <path d="M5870 7028 c0 -13 7 -32 15 -42 8 -11 15 -35 15 -54 0 -26 4 -33 17 -30 27 5 27 33 -2 93 -27 57 -45 71 -45 33z"/> <path d="M5874 6866 c-4 -10 -2 -22 4 -28 8 -8 13 -7 18 6 4 10 2 22 -4 28 -8 8 -13 7 -18 -6z"/> <path d="M5900 6810 c0 -5 7 -10 15 -10 8 0 15 5 15 10 0 6 -7 10 -15 10 -8 0 -15 -4 -15 -10z"/> <path d="M4358 6803 c-25 -6 -22 -25 6 -52 18 -17 30 -21 48 -15 32 10 67 37 68 52 0 14 -36 16 -45 2 -10 -15 -35 -12 -35 5 0 15 -9 17 -42 8z"/> <path d="M4482 6469 c-7 -12 -11 -24 -8 -27 6 -6 35 27 36 41 0 14 -15 7 -28 -14z"/> <path d="M4404 6185 c-4 -8 -15 -15 -25 -15 -23 0 -24 -13 -3 -31 14 -11 19 -10 35 10 21 25 25 51 9 51 -6 0 -13 -7 -16 -15z"/> <path d="M5535 5859 c-4 -6 -5 -13 -2 -16 7 -7 27 6 27 18 0 12 -17 12 -25 -2z"/> <path d="M5570 5820 c0 -5 7 -10 15 -10 8 0 15 5 15 10 0 6 -7 10 -15 10 -8 0 -15 -4 -15 -10z"/> <path d="M4342 5834 c2 -22 8 -38 13 -36 15 3 12 65 -3 70 -10 3 -13 -6 -10 -34z"/> <path d="M4415 5379 c-10 -15 3 -25 16 -12 7 7 7 13 1 17 -6 3 -14 1 -17 -5z"/> <path d="M4767 5566 c-3 -8 -2 -18 3 -21 13 -8 24 15 12 27 -6 6 -11 4 -15 -6z"/> <path d="M4740 5229 c0 -11 5 -17 10 -14 6 3 10 13 10 21 0 8 -4 14 -10 14 -5 0 -10 -9 -10 -21z"/> <path d="M4820 5224 c0 -18 41 -55 52 -47 14 8 8 33 -7 33 -8 0 -15 7 -15 15 0 8 -7 15 -15 15 -8 0 -15 -7 -15 -16z"/> <path d="M4730 5134 c0 -9 7 -14 17 -12 25 5 28 28 4 28 -12 0 -21 -6 -21 -16z"/> <path d="M4820 5136 c0 -9 7 -16 16 -16 17 0 14 22 -4 28 -7 2 -12 -3 -12 -12z"/> <path d="M4615 5090 c-7 -12 2 -30 16 -30 12 0 12 27 0 35 -5 3 -12 1 -16 -5z"/> <path d="M4695 5091 c-8 -15 3 -31 21 -31 9 0 14 7 12 17 -4 20 -24 28 -33 14z"/> <path d="M4767 5084 c-8 -8 1 -24 14 -24 5 0 9 7 9 15 0 15 -12 20 -23 9z"/> <path d="M4850 5075 c0 -8 7 -15 15 -15 8 0 15 7 15 15 0 8 -7 15 -15 15 -8 0 -15 -7 -15 -15z"/> <path d="M4643 5020 c-3 -11 -12 -20 -20 -20 -17 0 -14 -31 5 -38 7 -2 12 5 12 17 0 12 6 21 15 21 8 0 15 9 15 20 0 11 -5 20 -11 20 -6 0 -13 -9 -16 -20z"/> <path d="M4730 5021 c0 -10 9 -21 20 -24 12 -3 20 -14 20 -26 0 -12 5 -21 10 -21 15 0 12 36 -5 50 -8 7 -15 19 -15 26 0 8 -7 14 -15 14 -8 0 -15 -8 -15 -19z"/> <path d="M4690 4971 c0 -10 7 -21 15 -25 11 -4 15 1 15 19 0 16 -6 25 -15 25 -8 0 -15 -9 -15 -19z"/> <path d="M4730 4915 c0 -17 5 -25 13 -22 6 2 12 12 12 22 0 10 -6 20 -12 23 -8 2 -13 -6 -13 -23z"/> <path d="M4650 4907 c0 -8 -9 -17 -21 -20 -13 -4 -20 -12 -17 -24 5 -26 32 -22 36 5 2 12 10 22 19 22 8 0 13 5 11 12 -6 18 -28 22 -28 5z"/> <path d="M4762 4864 c4 -21 22 -23 26 -1 2 10 -3 17 -13 17 -10 0 -15 -6 -13 -16z"/> <path d="M4645 4820 c-7 -12 2 -30 16 -30 12 0 12 27 0 35 -5 3 -12 1 -16 -5z"/> <path d="M4576 4811 c-3 -5 1 -11 9 -15 9 -3 15 0 15 9 0 16 -16 20 -24 6z"/> <path d="M4614 4759 c-3 -6 -1 -16 5 -22 8 -8 11 -5 11 11 0 24 -5 28 -16 11z"/> <path d="M3872 4915 c2 -22 9 -31 24 -33 12 -2 24 4 27 12 4 9 1 16 -5 16 -6 0 -20 8 -31 17 -18 17 -19 17 -15 -12z"/> <path d="M4406 4294 c-8 -29 -3 -39 13 -29 13 8 15 55 2 55 -5 0 -12 -12 -15 -26z"/> <path d="M3742 4123 c-21 -8 -3 -23 29 -23 19 0 29 -5 29 -15 0 -8 5 -15 10 -15 6 0 13 7 16 15 4 8 12 15 20 15 8 0 14 7 14 15 0 12 -12 15 -52 14 -29 0 -59 -3 -66 -6z"/> <path d="M4944 4127 c-4 -10 -2 -23 3 -28 14 -14 24 13 13 32 -7 11 -10 10 -16 -4z"/> <path d="M5792 3762 c-9 -6 -6 -12 12 -20 20 -9 25 -8 30 4 3 9 6 18 6 20 0 7 -34 4 -48 -4z"/> <path d="M5230 3373 c1 -23 26 -51 39 -44 10 7 11 13 2 30 -11 20 -41 30 -41 14z"/> <path d="M4536 3295 c-16 -25 -16 -25 14 -25 27 0 31 3 28 22 -4 31 -23 33 -42 3z"/> <path d="M4280 3228 c0 -15 10 -29 30 -40 17 -9 30 -24 30 -33 0 -21 26 -19 34 3 3 9 9 22 12 29 3 8 -4 11 -22 10 -22 -2 -29 3 -34 23 -8 34 -50 41 -50 8z"/> <path d="M4384 3235 c3 -9 6 -19 6 -21 0 -2 12 -4 26 -4 37 0 28 34 -10 38 -23 3 -28 0 -22 -13z"/> <path d="M5555 3120 c-125 -20 -197 -96 -199 -211 -1 -80 27 -117 134 -178 91 -51 186 -71 335 -71 99 0 132 4 167 19 85 37 120 110 79 163 -24 30 -74 58 -103 58 -35 0 -78 -30 -96 -68 -15 -33 -21 -37 -60 -40 -78 -6 -168 25 -268 90 -96 62 -115 88 -94 129 19 34 93 59 178 59 41 0 89 -4 106 -9 17 -6 63 -19 101 -31 72 -22 125 -43 160 -62 11 -6 65 -15 120 -19 104 -8 152 -17 204 -40 32 -14 42 -39 16 -39 -18 0 -59 -24 -92 -54 -26 -23 -31 -77 -9 -95 10 -9 36 -10 84 -6 44 5 76 3 90 -4 21 -11 52 -63 52 -88 0 -18 -28 -71 -49 -94 -23 -25 -109 -70 -151 -80 -19 -4 -53 -12 -75 -18 -43 -11 -243 -15 -269 -5 -9 3 -16 17 -16 30 0 39 -45 102 -83 117 -53 20 -97 -32 -97 -117 0 -47 -4 -55 -38 -89 -21 -20 -42 -37 -47 -37 -4 0 -16 -6 -24 -14 -9 -8 -33 -17 -53 -21 -31 -6 -39 -4 -45 10 -19 51 -157 145 -212 145 -28 0 -52 11 -45 21 3 5 19 9 36 9 49 0 127 33 161 68 37 38 41 90 11 138 -29 46 -99 110 -146 132 -51 24 -158 52 -200 52 -27 0 -87 12 -203 41 -80 20 -95 21 -162 3 -54 -13 -100 -16 -218 -14 -294 6 -394 4 -423 -9 -108 -51 -118 -58 -183 -139 -6 -7 -15 -36 -21 -65 -15 -76 1 -125 61 -185 68 -68 126 -77 194 -30 44 31 36 60 -24 88 -74 35 -85 65 -48 135 25 47 39 59 99 87 51 23 156 28 203 9 46 -18 186 -23 277 -10 127 18 269 22 315 9 112 -32 153 -46 190 -64 44 -23 115 -89 115 -108 0 -7 -18 -31 -40 -52 -37 -35 -39 -41 -25 -56 8 -9 15 -19 15 -22 0 -3 -80 -5 -177 -6 -130 0 -193 4 -234 15 -34 9 -79 13 -110 10 -59 -5 -137 -24 -154 -36 -5 -5 -21 -11 -35 -14 -36 -9 -89 -64 -111 -115 -34 -78 -21 -138 41 -197 27 -25 40 -30 98 -33 52 -2 75 1 102 16 87 48 61 142 -40 142 -55 0 -29 40 42 66 90 32 191 22 280 -26 24 -14 42 -12 99 6 94 31 229 0 304 -71 44 -41 46 -45 43 -91 -3 -48 -4 -50 -53 -74 -39 -19 -50 -30 -50 -49 0 -42 -40 -60 -157 -73 -93 -10 -123 -9 -222 7 -95 15 -123 16 -158 6 -87 -25 -125 -30 -208 -30 -139 0 -239 24 -369 87 -46 22 -161 137 -161 159 0 10 7 27 15 37 20 27 19 43 -4 51 -26 8 -45 -2 -64 -35 -34 -57 -145 -52 -258 14 -102 58 -104 64 -41 123 57 53 66 87 34 116 -32 29 -62 21 -111 -32 -58 -62 -89 -71 -256 -71 -98 -1 -135 -4 -149 -15 -33 -25 -78 -19 -107 14 -36 41 -90 61 -166 61 -80 0 -134 23 -189 82 -82 88 -100 174 -48 230 16 16 47 38 69 49 39 18 237 49 319 49 26 0 70 15 130 45 115 56 160 72 264 90 74 14 93 14 161 1 82 -16 157 -49 175 -78 18 -29 -15 -69 -85 -105 -35 -18 -74 -33 -86 -33 -12 0 -45 -13 -71 -30 -41 -25 -61 -30 -125 -33 -42 -2 -81 1 -86 6 -5 5 -7 25 -4 43 9 56 -15 74 -101 74 -88 -1 -116 -19 -123 -83 -4 -34 -1 -47 19 -68 55 -59 159 -89 309 -89 90 0 103 3 151 29 82 44 109 58 156 77 95 39 157 139 128 209 -15 34 -79 91 -136 120 -19 10 -44 22 -55 28 -51 26 -146 40 -270 40 -151 0 -258 -21 -330 -65 -11 -7 -69 -15 -130 -19 -153 -9 -204 -22 -313 -77 -59 -30 -162 -140 -162 -173 0 -10 -4 -21 -10 -24 -19 -12 -10 -80 20 -138 32 -63 149 -183 235 -240 60 -40 163 -67 258 -67 67 0 89 -7 162 -55 17 -11 32 -22 35 -26 7 -9 128 -64 180 -83 60 -21 207 -21 234 -1 25 19 70 19 104 1 81 -42 193 -68 290 -67 47 0 57 -4 91 -35 43 -38 163 -104 190 -104 9 0 21 -4 27 -9 14 -15 120 -32 231 -38 82 -4 118 -1 187 16 75 19 94 20 157 10 39 -6 139 -9 222 -7 165 3 183 9 235 71 13 15 28 27 34 27 12 0 117 81 140 109 10 11 26 37 37 58 36 69 97 88 218 66 96 -17 211 -10 308 19 39 11 75 24 80 28 6 4 21 11 34 15 23 7 120 62 131 75 6 6 82 59 118 82 15 9 59 33 97 53 85 44 107 72 113 141 5 55 -16 113 -56 153 -29 30 -88 71 -102 71 -6 0 -29 13 -49 29 -20 16 -63 43 -96 62 -55 30 -69 33 -165 37 -58 2 -109 7 -115 11 -5 4 -39 18 -75 31 -36 13 -69 27 -75 30 -5 4 -26 11 -45 15 -19 4 -40 12 -47 17 -9 7 -175 30 -193 27 -3 -1 -27 -5 -55 -9z m-2130 -71 c-22 -11 -58 -24 -80 -29 -59 -13 -119 -36 -191 -75 -60 -33 -72 -35 -182 -41 -195 -9 -306 -49 -362 -131 -31 -45 -31 -114 -1 -176 22 -45 109 -147 125 -147 5 0 17 -6 25 -13 25 -21 99 -40 181 -46 58 -5 75 -10 78 -22 3 -15 -7 -16 -85 -12 -142 7 -182 27 -318 160 -139 134 -140 237 -4 344 83 66 149 87 320 103 94 9 149 19 180 33 80 37 216 69 309 72 l44 1 -39 -21z m2049 -181 c17 -16 34 -28 38 -28 4 0 26 -13 50 -29 68 -45 130 -61 232 -61 100 1 131 14 138 61 2 20 10 25 40 27 29 2 39 -1 48 -18 41 -77 -94 -129 -285 -108 -134 14 -242 54 -302 111 -32 30 -50 77 -38 97 7 11 9 10 79 -52z m-1066 -4 c54 -15 12 -24 -108 -24 -71 0 -130 -4 -130 -9 0 -5 -14 -14 -30 -21 -43 -18 -95 -82 -110 -135 -16 -57 0 -108 41 -132 42 -25 39 -47 -7 -40 -40 7 -68 32 -97 86 -24 44 -18 93 17 149 26 42 107 101 137 102 9 0 32 7 50 15 35 15 192 21 237 9z m522 -3 c24 -7 24 -7 -9 -14 -18 -4 -76 -7 -128 -7 -52 0 -103 -5 -114 -10 -26 -15 -139 -24 -183 -16 -64 12 -39 26 47 26 46 0 100 7 122 15 42 15 219 19 265 6z m1525 -42 c74 -39 125 -105 125 -161 0 -31 -28 -77 -58 -92 l-28 -14 4 63 c5 76 -15 113 -80 146 -36 18 -45 19 -89 8 -27 -7 -52 -10 -55 -6 -10 10 22 43 59 61 43 21 75 20 122 -5z m-1357 4 c-10 -2 -28 -2 -40 0 -13 2 -5 4 17 4 22 1 32 -1 23 -4z m166 -33 c63 -23 73 -29 121 -78 72 -74 51 -141 -55 -179 -47 -17 -55 -16 -35 3 51 52 54 89 13 147 -24 33 -110 91 -150 101 -16 3 -28 11 -28 16 0 17 73 11 134 -10z m-2004 0 c14 -8 19 -20 18 -46 -1 -27 5 -41 21 -53 24 -18 19 -31 -11 -31 -22 0 -95 35 -120 58 -50 44 29 106 92 72z m500 -19 c0 -11 -39 -25 -47 -18 -3 3 -2 10 2 16 8 13 45 15 45 2z m-75 -31 c3 -5 -7 -12 -22 -16 -15 -4 -30 -10 -33 -14 -14 -17 -80 -50 -103 -50 -32 0 -45 18 -20 26 10 4 45 19 78 35 64 30 90 35 100 19z m2138 -233 c10 -6 20 -28 23 -48 5 -32 2 -42 -30 -77 -38 -42 -113 -86 -121 -71 -3 4 1 11 9 16 31 18 76 101 76 140 0 54 11 64 43 40z m-2173 -71 c0 -16 -71 -76 -89 -76 -17 0 -13 20 7 27 9 4 28 20 42 35 27 31 40 35 40 14z m1226 -2 c41 -14 60 -14 144 -4 168 21 320 -19 416 -107 57 -52 69 -88 49 -137 -9 -20 -21 -36 -27 -34 -5 2 -17 24 -25 48 -27 82 -111 144 -231 170 -50 12 -74 11 -210 -7 -31 -4 -49 0 -70 13 -23 16 -47 19 -147 19 l-120 0 -52 -35 c-42 -27 -54 -42 -59 -69 -6 -29 -3 -38 20 -58 17 -14 40 -23 62 -23 22 0 34 -5 34 -13 0 -19 -44 -37 -91 -37 -33 0 -48 7 -75 34 -28 28 -34 41 -34 78 0 55 35 109 87 132 21 10 52 24 68 32 42 19 201 18 261 -2z m1348 -52 c3 -5 -21 -19 -52 -31 -31 -12 -65 -27 -75 -32 -39 -21 -220 -51 -283 -47 -52 3 -70 22 -30 32 13 3 42 22 63 42 36 34 40 36 83 28 56 -10 175 -8 215 5 39 12 72 13 79 3z m-2721 -39 c-18 -2 -48 -2 -65 0 -18 2 -4 4 32 4 36 0 50 -2 33 -4z m-211 -29 c16 -8 59 -14 107 -14 l80 0 55 -55 c31 -30 52 -56 48 -58 -36 -22 -189 -13 -254 15 -93 39 -173 85 -176 100 -7 35 79 42 140 12z m289 -14 c5 0 9 -7 9 -15 0 -8 5 -15 10 -15 6 0 23 -13 39 -29 16 -16 36 -31 46 -33 23 -4 32 -28 12 -28 -9 0 -22 7 -31 15 -8 8 -20 15 -26 15 -14 0 -79 59 -92 84 -9 16 -7 18 7 13 9 -4 21 -7 26 -7z m193 -129 c17 -6 17 -8 4 -14 -21 -7 -59 3 -52 14 6 11 22 11 48 0z m205 -20 c6 -10 7 -21 4 -25 -8 -8 -111 -8 -140 0 -37 10 -26 24 20 25 23 0 51 4 62 9 31 13 44 11 54 -9z"/> <path d="M210 5282 c-45 -22 -61 -39 -83 -87 -17 -39 -17 -42 0 -81 29 -63 54 -84 109 -90 95 -10 160 55 150 150 -6 53 -25 77 -85 108 -42 22 -46 22 -91 0z"/> <path d="M8700 5282 c-72 -35 -101 -94 -80 -167 17 -62 59 -90 132 -90 49 1 62 5 87 29 52 50 58 136 12 190 -18 21 -84 56 -103 55 -7 0 -29 -8 -48 -17z"/> <path d="M327 4823 c-17 -16 -5 -70 23 -103 69 -80 0 -207 -107 -198 -46 4 -52 19 -13 37 17 7 44 24 60 38 25 20 30 32 30 68 0 36 -6 50 -38 85 -38 42 -39 43 -109 44 -62 1 -75 -2 -97 -23 -50 -47 -43 -107 15 -137 28 -14 34 -14 65 1 22 10 36 25 40 43 10 40 13 42 39 30 31 -14 34 -56 5 -81 -11 -9 -23 -17 -26 -17 -3 0 -21 -7 -40 -16 -22 -11 -49 -15 -73 -11 -48 6 -61 -6 -61 -55 0 -37 9 -45 44 -39 4 1 32 -5 61 -14 72 -21 169 -20 206 2 16 10 29 21 29 25 0 4 7 8 15 8 8 0 15 -3 15 -7 0 -5 11 -13 24 -19 21 -10 25 -9 29 7 7 26 22 24 41 -6 21 -32 66 -33 101 -3 34 29 35 86 2 116 -26 24 -80 30 -97 10 -6 -7 -22 -26 -35 -43 -17 -21 -25 -25 -25 -14 0 9 -7 22 -15 29 -10 8 -13 24 -9 54 8 55 -9 113 -46 159 -32 37 -41 43 -53 30z m-169 -120 c-3 -32 -44 -46 -54 -19 -10 26 4 46 31 46 23 0 26 -4 23 -27z m412 -148 c15 -18 5 -35 -21 -35 -14 0 -19 7 -19 25 0 28 21 33 40 10z"/> <path d="M8458 4818 c-15 -12 -68 -151 -68 -178 0 -10 37 -96 69 -160 5 -8 17 -16 29 -18 30 -5 43 26 31 74 -5 21 -8 92 -7 157 1 93 -2 121 -13 128 -19 12 -22 11 -41 -3z m22 -174 c0 -40 -4 -55 -12 -52 -14 5 -23 70 -14 94 12 32 26 11 26 -42z"/> <path d="M8610 4796 c-42 -28 -69 -89 -49 -112 6 -8 11 -33 10 -57 -1 -23 -2 -52 -3 -65 0 -32 38 -70 84 -84 40 -12 110 -2 192 28 21 8 46 12 56 9 9 -3 22 1 28 8 15 18 2 98 -18 107 -160 81 -191 87 -228 47 -27 -29 -27 -38 -1 -71 26 -33 73 -35 98 -5 14 18 22 20 44 13 15 -5 28 -13 28 -19 3 -17 -65 -43 -127 -50 -79 -9 -98 5 -99 72 -1 26 -4 55 -8 63 -4 9 -1 24 7 35 13 18 27 20 158 21 l143 1 3 41 3 42 -143 0 c-134 0 -146 -1 -178 -24z m145 -156 c0 -29 -32 -41 -41 -16 -9 24 4 48 23 44 12 -2 18 -12 18 -28z"/> <path d="M271 4420 c-7 -4 -11 -22 -9 -41 3 -32 5 -34 46 -37 47 -4 78 -36 67 -71 -9 -29 -28 -34 -180 -45 -139 -11 -140 -11 -143 -36 -2 -14 4 -34 11 -44 13 -18 19 -19 66 -8 28 6 94 15 147 18 92 7 98 9 130 41 30 30 34 40 34 86 0 43 -5 58 -27 84 -30 34 -120 67 -142 53z"/> <path d="M8599 4407 c-37 -14 -59 -60 -59 -120 1 -67 39 -113 110 -130 30 -7 45 1 54 29 7 24 -6 38 -46 48 -54 13 -74 58 -41 92 15 15 32 16 133 10 63 -3 129 -9 146 -12 29 -6 32 -4 37 28 3 19 0 38 -7 44 -15 15 -292 24 -327 11z"/> <path d="M8517 4123 c-4 -3 -7 -21 -7 -39 0 -26 7 -36 35 -54 35 -21 37 -22 56 -4 19 17 23 17 87 1 37 -9 85 -18 107 -19 l40 -3 -3 -50 c-6 -87 -50 -93 -117 -17 -39 43 -43 45 -94 43 -65 -1 -97 -20 -117 -68 -19 -45 -4 -100 30 -109 74 -18 135 27 106 80 -7 14 -10 29 -6 33 10 11 38 -10 56 -42 9 -16 28 -37 43 -48 31 -24 123 -39 136 -23 5 6 11 40 15 76 3 36 10 90 15 120 5 32 5 60 0 66 -10 12 -83 22 -236 32 -60 4 -107 12 -115 20 -14 14 -22 15 -31 5z m86 -233 c3 -10 -1 -27 -7 -36 -10 -13 -17 -14 -34 -5 -25 13 -28 31 -10 49 18 18 45 14 51 -8z"/> <path d="M345 4108 c-31 -17 -55 -51 -55 -79 0 -34 -14 -39 -113 -46 -55 -4 -80 -10 -84 -20 -11 -29 18 -94 58 -130 21 -19 39 -39 39 -43 0 -5 -13 -22 -30 -38 -35 -36 -38 -69 -9 -106 15 -20 29 -26 58 -26 50 0 77 21 85 68 7 44 20 52 91 52 22 0 57 5 78 11 36 10 38 12 35 47 -3 36 -4 37 -42 34 -21 -2 -57 -10 -79 -18 -69 -24 -102 -19 -142 24 -19 20 -35 47 -35 60 0 20 5 22 48 22 70 0 184 30 204 54 34 41 15 107 -39 135 -27 14 -42 14 -68 -1z m50 -52 c25 -18 13 -46 -20 -46 -20 0 -25 5 -25 23 0 38 14 46 45 23z m-145 -361 c0 -7 -7 -18 -15 -25 -30 -25 -62 29 -33 58 9 9 16 8 30 -5 10 -9 18 -22 18 -28z"/> <path d="M573 3844 c-23 -23 -25 -30 -19 -76 7 -48 42 -127 70 -156 9 -9 19 -10 39 -3 32 12 33 21 7 51 -25 29 -36 63 -21 68 46 15 55 79 16 117 -31 32 -59 32 -92 -1z m56 -43 c16 -10 6 -31 -14 -31 -17 0 -28 17 -20 30 8 12 16 12 34 1z"/> <path d="M8475 3725 c-46 -51 -27 -123 36 -138 33 -8 89 10 89 28 0 29 28 43 72 38 88 -12 121 -49 78 -88 -14 -12 -28 -16 -52 -11 -34 6 -253 -16 -264 -26 -3 -4 2 -18 12 -33 l18 -27 105 7 c59 4 135 8 170 8 l64 2 13 55 c7 30 17 72 22 92 14 52 0 66 -78 77 -36 5 -76 14 -90 19 -14 5 -57 13 -97 17 -70 7 -73 6 -98 -20z m90 -65 c0 -20 -6 -26 -27 -28 -24 -3 -28 0 -28 21 0 30 9 39 35 35 14 -2 20 -10 20 -28z"/> <path d="M401 3639 c-27 -30 -99 -57 -198 -76 -29 -5 -33 -9 -33 -39 0 -37 26 -52 59 -35 11 6 28 11 39 11 11 0 33 7 48 15 16 8 40 15 54 15 14 0 40 9 59 21 18 11 40 18 47 15 16 -6 44 -70 44 -101 0 -25 -29 -55 -54 -55 -9 0 -26 -5 -37 -11 -18 -9 -66 -20 -156 -36 -18 -3 -37 -11 -43 -18 -13 -16 -1 -75 16 -75 21 0 121 27 143 39 11 6 28 11 39 11 11 0 44 11 73 24 56 25 90 70 88 119 -1 62 -101 207 -142 207 -10 0 -31 -14 -46 -31z"/> <path d="M8258 3473 c-31 -34 -26 -56 16 -76 57 -27 80 -20 84 26 3 31 0 38 -20 46 -56 21 -65 21 -80 4z"/> <path d="M8413 3422 c-26 -20 -38 -61 -29 -97 5 -18 20 -32 49 -45 23 -10 62 -36 87 -58 39 -35 43 -41 27 -47 -10 -4 -28 -3 -40 3 -41 20 -120 52 -128 52 -5 0 -24 -14 -44 -31 -28 -25 -35 -38 -35 -68 0 -88 129 -122 155 -41 5 15 15 20 44 20 20 0 46 -7 57 -15 10 -8 29 -15 41 -15 12 0 25 -4 28 -10 7 -12 52 -14 58 -2 3 4 8 25 11 47 l7 40 -81 60 c-80 59 -106 86 -93 99 11 11 50 7 82 -9 17 -8 45 -22 62 -30 64 -31 100 -10 85 51 -5 19 -13 24 -39 24 -17 1 -43 7 -57 15 -14 8 -40 14 -58 15 -36 0 -81 20 -101 44 -18 21 -60 20 -88 -2z m77 -67 c0 -31 -26 -43 -47 -22 -21 21 -9 47 22 47 20 0 25 -5 25 -25z m-75 -225 c0 -18 -6 -26 -23 -28 -13 -2 -25 3 -28 12 -10 26 4 48 28 44 17 -2 23 -10 23 -28z"/> <path d="M515 3289 c-44 -46 -178 -146 -200 -150 -36 -7 -32 -37 18 -134 6 -11 13 -33 17 -50 5 -24 11 -30 31 -27 13 1 38 8 54 16 17 8 48 22 70 31 22 10 53 24 68 31 16 8 36 14 45 14 21 1 55 29 71 59 26 47 -18 121 -72 121 -49 0 -81 -34 -87 -93 -5 -49 -7 -52 -38 -58 -19 -4 -39 -12 -45 -18 -21 -21 -57 -13 -67 15 -15 38 -13 42 33 71 23 15 62 45 86 66 25 21 62 47 83 59 44 25 47 40 13 62 -34 22 -46 20 -80 -15z m114 -153 c9 -11 10 -20 1 -35 -14 -27 -32 -27 -48 0 -23 36 20 67 47 35z"/> <path d="M8230 2978 c-33 -35 -20 -78 23 -78 10 0 31 -6 45 -14 45 -23 102 -46 114 -46 6 0 19 -6 27 -14 9 -7 37 -17 62 -20 55 -8 93 16 104 65 19 85 -104 135 -148 59 l-18 -29 -94 49 -95 49 -20 -21z m314 -105 c-14 -23 -26 -25 -49 -7 -20 15 -20 15 4 35 22 18 26 18 40 4 12 -11 13 -20 5 -32z"/> <path d="M627 2963 c-36 -4 -38 -6 -35 -35 4 -41 29 -56 62 -38 22 11 30 11 51 0 37 -20 43 -55 14 -86 -12 -13 -29 -24 -37 -24 -8 0 -26 -6 -40 -14 -15 -8 -58 -27 -97 -42 -86 -34 -88 -35 -79 -68 11 -46 43 -43 161 15 130 65 169 92 177 125 11 41 -4 91 -38 129 -33 38 -64 47 -139 38z"/> <path d="M8148 2796 c-14 -32 -5 -54 29 -67 44 -17 96 -40 125 -55 14 -8 33 -14 41 -14 8 0 20 -6 26 -14 17 -20 85 -30 110 -16 12 6 28 25 37 42 15 28 15 34 -2 69 -17 38 -18 39 -68 39 -40 0 -54 -4 -64 -20 -18 -29 -39 -25 -127 20 -43 22 -82 40 -87 40 -4 0 -13 -11 -20 -24z m330 -84 c2 -7 -8 -17 -22 -24 -37 -16 -54 1 -37 38 11 24 13 25 33 12 12 -8 24 -20 26 -26z"/> <path d="M789 2695 c-20 -13 -39 -31 -43 -40 -10 -26 -7 -53 6 -57 20 -7 0 -38 -34 -54 -18 -8 -40 -18 -48 -23 -8 -5 -32 -17 -53 -27 -32 -16 -37 -23 -32 -43 8 -30 48 -69 90 -87 49 -20 60 -38 41 -66 -9 -12 -16 -32 -16 -44 0 -34 37 -72 73 -76 32 -3 32 -3 29 -53 -3 -64 19 -92 74 -97 l39 -3 5 -56 c3 -39 14 -70 35 -103 32 -51 30 -50 71 -18 76 59 202 150 232 167 17 11 32 27 32 36 0 21 -26 49 -46 49 -14 0 -179 -121 -201 -148 -6 -7 -20 -12 -30 -10 -15 3 -18 13 -18 67 l0 65 65 44 c36 24 73 57 84 74 18 28 18 31 1 67 -27 61 -76 76 -133 41 -32 -19 -34 -24 -29 -63 2 -23 8 -52 12 -64 6 -19 4 -23 -13 -23 -12 0 -33 11 -48 25 -15 14 -38 25 -50 25 -23 0 -24 4 -24 60 0 49 3 62 18 66 9 3 24 9 32 14 24 14 93 47 113 53 22 8 21 36 -2 66 -19 25 -25 25 -76 -9 -16 -11 -37 -23 -45 -27 -8 -3 -30 -18 -48 -31 -29 -22 -35 -23 -65 -12 -17 8 -39 19 -48 27 -8 7 -21 13 -28 13 -7 0 -11 8 -9 17 3 15 51 49 96 68 6 3 18 7 25 10 103 45 126 106 62 170 -20 19 -41 35 -48 35 -7 0 -29 -11 -48 -25z m61 -50 c18 -21 5 -45 -25 -45 -20 0 -25 5 -25 23 0 39 26 50 50 22z m-37 -377 c8 -12 7 -21 -2 -32 -18 -22 -34 -20 -49 5 -10 16 -11 24 -1 35 15 18 38 15 52 -8z m273 -30 c7 -22 -11 -40 -36 -35 -19 3 -25 34 -10 52 15 18 37 9 46 -17z m-168 -120 c2 -19 -2 -28 -18 -33 -24 -8 -50 10 -50 35 0 24 10 31 40 28 19 -2 26 -10 28 -30z"/> <path d="M8075 2654 c-11 -25 -24 -49 -30 -52 -20 -14 -45 -71 -45 -104 1 -37 16 -58 77 -106 38 -29 43 -31 57 -16 9 9 16 32 16 55 0 39 40 119 59 119 35 0 116 -53 119 -78 4 -25 -13 -29 -34 -7 -23 23 -49 18 -85 -14 -26 -24 -30 -34 -25 -56 4 -15 18 -38 32 -52 21 -21 32 -24 60 -20 34 6 83 42 84 61 0 5 7 17 15 26 25 28 22 106 -5 135 -13 14 -31 25 -40 25 -9 0 -21 5 -27 11 -13 13 -47 33 -83 49 -28 13 -41 1 -66 -57 -7 -17 -18 -34 -24 -38 -5 -3 -10 -15 -10 -26 0 -23 -27 -36 -42 -21 -16 16 -3 53 37 105 39 51 44 81 16 97 -30 16 -35 13 -56 -36z m213 -236 c8 -8 9 -15 1 -25 -14 -17 -46 -17 -52 0 -11 32 25 51 51 25z"/> <path d="M7884 2327 c-17 -18 -36 -49 -43 -69 -15 -45 0 -88 50 -136 l33 -32 26 26 25 25 -32 27 c-17 15 -32 34 -33 42 -5 37 2 58 23 67 26 12 55 2 108 -39 20 -15 40 -28 43 -28 8 0 63 -38 84 -58 21 -20 54 -10 71 20 14 25 14 28 -9 47 -14 11 -29 20 -33 21 -5 0 -53 27 -107 60 -119 73 -157 78 -206 27z"/> <path d="M7763 2133 c-35 -17 -58 -61 -48 -93 4 -11 22 -35 41 -52 19 -17 34 -35 34 -41 0 -5 9 -20 20 -34 11 -14 20 -32 20 -39 0 -26 -29 -14 -80 31 -83 74 -102 78 -154 30 -33 -30 -35 -81 -5 -119 16 -21 29 -26 64 -26 29 0 45 5 49 15 11 29 49 15 116 -45 37 -33 72 -60 76 -60 5 0 21 17 35 38 32 45 28 58 -35 141 -52 67 -66 108 -42 117 11 4 40 -15 91 -61 74 -66 76 -67 100 -51 32 21 32 50 0 73 -14 10 -38 28 -53 41 -15 12 -45 32 -68 43 -22 12 -48 33 -57 47 -8 15 -28 35 -44 44 -26 15 -32 15 -60 1z m55 -55 c15 -15 16 -45 2 -53 -17 -10 -50 5 -50 24 0 16 18 41 30 41 3 0 11 -5 18 -12z m-138 -193 c10 -13 10 -19 -5 -35 -14 -15 -20 -17 -36 -7 -22 14 -24 28 -7 45 16 16 33 15 48 -3z"/> <path d="M1248 1948 c-42 -22 -51 -55 -22 -79 14 -11 22 -10 56 10 35 20 44 21 65 10 19 -10 23 -19 21 -48 -2 -29 -13 -43 -58 -79 -177 -143 -164 -127 -138 -163 12 -16 27 -29 32 -29 6 1 43 31 82 68 39 37 86 81 106 98 19 17 43 44 53 61 16 28 17 35 4 65 -7 18 -31 50 -53 71 -46 43 -86 47 -148 15z"/> <path d="M7421 1744 c-45 -40 -51 -51 -51 -85 0 -41 38 -115 64 -125 15 -6 56 24 56 39 0 5 -11 22 -25 39 -30 36 -32 59 -5 83 33 30 67 11 167 -91 l92 -94 30 26 c18 15 28 31 24 40 -3 8 -58 59 -122 114 -140 121 -153 124 -230 54z"/> <path d="M1479 1732 c-35 -15 -109 -95 -109 -118 0 -9 -61 -86 -80 -101 -13 -10 -10 -16 19 -47 39 -40 71 -46 118 -21 15 8 40 17 54 19 14 3 41 16 60 29 42 28 50 66 20 96 -39 39 -101 18 -101 -35 0 -41 -57 -83 -75 -54 -3 5 6 27 20 47 14 21 25 41 25 46 0 4 14 23 32 42 40 45 77 47 110 6 13 -16 33 -34 46 -40 15 -8 22 -21 22 -40 0 -22 -16 -45 -72 -101 -40 -40 -83 -79 -95 -87 -22 -15 -33 -63 -14 -63 5 0 17 -7 26 -16 15 -15 19 -13 53 27 20 24 67 76 104 116 74 79 86 105 68 158 -9 28 -21 39 -51 52 -26 10 -41 23 -45 39 -4 14 -16 31 -27 39 -22 15 -80 19 -108 7z m49 -161 c21 -13 10 -46 -16 -49 -17 -3 -22 1 -22 21 0 35 13 45 38 28z"/> <path d="M7235 1555 c-68 -33 -132 -106 -141 -161 -3 -23 -3 -51 1 -63 14 -44 64 -12 65 41 0 14 15 46 33 70 29 38 38 43 79 46 45 3 46 2 104 -63 86 -96 85 -92 28 -142 -27 -23 -53 -43 -57 -43 -18 0 -17 32 2 56 12 15 21 34 21 43 -1 32 -58 81 -94 81 -22 0 -86 -69 -86 -93 0 -17 55 -97 72 -105 4 -2 17 -19 28 -38 12 -19 29 -34 38 -34 9 1 51 32 92 71 41 39 87 77 103 85 15 8 27 21 27 29 0 19 -186 212 -222 231 -34 18 -34 18 -93 -11z m79 -207 c8 -33 -15 -53 -43 -39 -24 13 -27 31 -9 49 19 19 45 14 52 -10z"/> <path d="M1765 1462 c-28 -9 -95 -72 -95 -89 0 -13 7 -17 79 -44 18 -7 47 -23 62 -37 33 -28 30 -40 -29 -104 -27 -29 -38 -35 -48 -27 -11 9 -10 16 6 36 26 33 25 52 -5 86 -31 35 -73 36 -110 1 -24 -22 -27 -31 -22 -67 4 -34 14 -49 49 -79 76 -67 139 -63 196 12 19 25 43 58 55 74 12 16 22 32 22 36 0 4 -31 32 -69 61 -39 30 -69 59 -68 64 1 6 12 11 25 13 18 2 39 -11 81 -52 56 -55 57 -56 81 -40 14 9 25 18 25 21 0 13 -22 43 -32 43 -5 0 -29 19 -51 41 -57 56 -95 69 -152 51z m-60 -212 c9 -15 -4 -50 -19 -50 -8 0 -19 7 -26 15 -10 12 -10 18 0 30 14 17 36 20 45 5z"/> <path d="M6981 1292 c-9 -16 -18 -19 -55 -15 -39 5 -46 3 -61 -21 -26 -40 -14 -87 30 -110 l34 -19 35 26 c39 30 89 110 84 135 -5 25 -54 28 -67 4z m-36 -83 c0 -8 -10 -15 -22 -17 -25 -4 -33 22 -10 31 18 8 32 2 32 -14z"/> <path d="M2022 1260 c-93 -51 -87 -79 28 -130 78 -35 91 -91 33 -139 -57 -47 -61 -43 -38 51 6 22 2 32 -20 52 -35 33 -65 33 -99 1 -35 -33 -33 -60 9 -99 31 -29 33 -35 20 -46 -13 -11 -12 -15 7 -34 56 -52 52 -52 129 0 86 58 104 82 96 130 -7 42 -63 102 -105 113 -36 10 -35 35 1 39 22 3 39 -7 84 -52 44 -43 62 -55 78 -50 24 8 21 5 29 29 5 17 -7 30 -62 72 -74 55 -123 83 -144 82 -7 0 -28 -9 -46 -19z m-22 -230 l-12 -22 -22 21 c-21 22 -21 22 -1 37 16 12 21 12 33 0 11 -11 12 -18 2 -36z"/> <path d="M6689 1142 c-55 -26 -107 -70 -134 -113 -29 -45 -34 -106 -9 -116 26 -10 46 10 61 60 18 63 69 102 132 102 51 0 91 -29 91 -65 0 -25 -6 -25 -57 2 -41 22 -42 22 -77 3 -78 -42 -82 -166 -7 -240 24 -25 43 -35 65 -35 36 0 86 41 86 70 0 60 -60 113 -100 88 -17 -11 -22 -10 -30 2 -6 8 -9 24 -8 35 2 15 12 21 41 23 35 3 43 -2 102 -62 l63 -64 36 16 c19 9 35 23 36 31 0 7 -13 33 -30 58 -16 24 -30 49 -30 54 0 22 -75 121 -109 145 -41 28 -71 29 -122 6z m96 -312 c0 -18 -6 -26 -23 -28 -13 -2 -25 3 -28 12 -10 26 4 48 28 44 17 -2 23 -10 23 -28z"/> <path d="M7127 1111 c-4 -16 -11 -19 -43 -14 -74 9 -112 -66 -60 -121 31 -34 59 -33 99 3 40 37 82 113 74 135 -9 24 -63 21 -70 -3z m-32 -81 c8 -13 -20 -24 -41 -16 -20 8 -9 26 16 26 10 0 22 -5 25 -10z"/> <path d="M2320 1073 c-26 -10 -80 -66 -80 -84 0 -10 10 -25 23 -34 21 -15 23 -14 54 20 26 30 37 36 65 33 30 -3 33 -6 36 -40 2 -27 -4 -48 -25 -80 -39 -60 -51 -81 -59 -98 -4 -8 -16 -26 -26 -39 -26 -34 -22 -58 11 -75 36 -19 38 -17 103 103 100 183 102 195 46 251 -45 45 -99 61 -148 43z"/> <path d="M6380 970 c0 -5 -6 -10 -14 -10 -29 0 -36 -25 -16 -61 10 -19 23 -43 29 -54 6 -11 20 -33 31 -50 11 -16 24 -40 29 -52 5 -11 15 -24 20 -28 6 -3 11 -14 11 -24 0 -10 17 -30 39 -45 38 -27 39 -27 74 -10 46 22 64 62 47 104 -20 47 -87 79 -105 49 -12 -18 -38 16 -80 105 -22 47 -46 86 -52 86 -7 0 -13 -4 -13 -10z m202 -255 c-7 -37 -36 -45 -52 -15 -15 27 -4 42 28 38 21 -2 26 -8 24 -23z"/> <path d="M1691 944 c-12 -15 -21 -30 -21 -34 0 -11 48 -60 59 -60 14 0 93 -54 116 -80 34 -37 95 -63 95 -40 0 6 14 29 30 52 35 48 36 55 10 86 -15 18 -27 23 -57 20 -35 -3 -38 -6 -41 -35 -4 -39 -8 -40 -46 -7 -26 23 -27 27 -13 41 14 14 14 18 0 39 -8 13 -24 24 -34 24 -10 0 -21 5 -24 10 -12 19 -53 10 -74 -16z m249 -99 c0 -8 -7 -15 -15 -15 -8 0 -15 7 -15 15 0 8 7 15 15 15 8 0 15 -7 15 -15z"/> <path d="M2575 930 c-54 -36 -60 -95 -14 -138 l30 -28 -40 -79 c-53 -103 -53 -118 0 -132 26 -7 53 -8 73 -2 17 5 43 9 58 9 22 0 28 -5 28 -22 0 -42 11 -64 40 -81 37 -22 56 -21 91 4 24 17 29 27 29 64 0 36 -5 48 -25 61 -14 9 -25 20 -25 24 0 12 27 69 60 128 24 41 28 57 20 72 -17 32 -51 36 -71 9 -10 -13 -19 -30 -19 -37 0 -8 -6 -26 -13 -40 -45 -90 -57 -107 -78 -113 -30 -9 -104 -11 -111 -4 -6 6 25 72 42 89 5 5 10 17 10 26 0 9 5 21 12 28 6 6 17 28 24 48 18 51 2 90 -47 114 -46 24 -38 24 -74 0z m56 -61 c14 -26 -8 -53 -34 -43 -20 7 -22 35 -5 52 17 17 26 15 39 -9z m187 -336 c-2 -20 -9 -28 -23 -28 -14 0 -21 8 -23 28 -3 23 0 27 23 27 23 0 26 -4 23 -27z"/> <path d="M3130 903 c-75 -7 -100 -14 -111 -34 -15 -29 1 -43 68 -59 32 -7 70 -19 85 -27 15 -7 38 -13 50 -13 13 0 41 -9 63 -20 52 -26 63 -25 76 7 9 25 7 30 -28 60 -87 76 -126 93 -203 86z m97 -64 c25 -16 31 -25 24 -32 -8 -8 -20 -7 -44 5 -17 9 -40 19 -50 22 -10 3 -15 10 -12 16 10 16 45 12 82 -11z"/> <path d="M6183 865 c-25 -18 -23 -29 19 -91 15 -23 28 -46 28 -52 0 -5 7 -15 15 -22 8 -7 15 -20 15 -30 0 -10 7 -23 15 -30 8 -7 15 -21 15 -30 0 -21 67 -80 90 -80 8 0 32 14 53 31 47 39 48 67 3 114 -36 36 -54 42 -86 25 -16 -8 -23 -1 -54 61 -20 39 -36 77 -36 84 0 14 -29 35 -47 35 -5 0 -18 -7 -30 -15z m227 -239 c0 -14 -4 -28 -10 -31 -16 -10 -50 14 -50 35 0 16 7 20 30 20 25 0 30 -4 30 -24z"/> <path d="M6076 815 c-3 -8 -13 -15 -23 -15 -29 0 -110 -34 -137 -57 -33 -29 -39 -68 -22 -133 13 -52 15 -55 42 -52 16 2 40 15 54 31 25 27 68 51 95 51 7 0 23 -19 34 -43 25 -51 28 -97 6 -97 -8 0 -15 6 -15 13 0 24 -35 47 -71 47 -27 0 -40 -7 -57 -30 -28 -37 -28 -46 4 -87 22 -30 30 -33 75 -33 76 0 160 61 159 115 0 11 -12 43 -25 70 -14 28 -25 56 -25 63 0 7 -7 24 -16 37 -19 29 -37 27 -121 -16 -69 -35 -73 -36 -73 -3 0 20 8 28 38 41 20 8 54 18 74 21 41 5 53 24 42 66 -7 28 -29 35 -38 11z m-1 -326 c0 -8 -12 -15 -27 -17 -24 -3 -28 0 -28 21 0 13 3 27 7 30 9 10 48 -18 48 -34z"/> <path d="M2986 722 c-40 -24 -43 -39 -11 -54 21 -9 31 -9 46 0 10 7 40 12 65 12 95 0 146 -66 121 -157 -13 -50 -37 -58 -37 -12 0 85 -69 142 -144 118 -98 -33 -145 -196 -71 -245 51 -33 124 8 125 70 0 20 -10 38 -35 62 l-36 33 26 17 c23 15 27 15 49 1 37 -25 44 -121 14 -184 -9 -18 -8 -27 7 -43 23 -26 83 -28 91 -2 7 22 33 82 45 102 5 8 12 22 15 30 3 8 12 29 20 47 18 41 18 78 -2 108 -18 28 -12 42 23 56 29 11 22 29 -12 29 -13 0 -26 4 -29 9 -4 5 -19 5 -36 -2 -23 -9 -37 -8 -62 2 -52 22 -138 23 -172 3z m40 -281 c-14 -16 -23 -18 -37 -10 -23 12 -24 27 -2 51 16 18 17 18 37 -1 19 -20 19 -21 2 -40z"/> <path d="M4033 691 c-27 -22 -30 -56 -7 -69 11 -6 15 -17 12 -30 -3 -12 -1 -28 6 -36 10 -14 19 -14 71 -3 76 16 105 32 105 59 0 19 -4 20 -45 15 -43 -6 -45 -5 -45 18 0 29 -32 65 -57 65 -10 -1 -28 -9 -40 -19z"/> <path d="M5686 671 c-14 -16 -31 -21 -66 -21 -32 0 -52 -6 -62 -17 -23 -27 -48 -79 -48 -102 0 -22 54 -146 75 -171 7 -8 15 -26 18 -40 3 -14 12 -34 20 -44 14 -19 15 -19 58 1 42 20 45 24 57 79 21 95 20 158 -2 183 -25 27 -57 27 -84 -2 -30 -32 -28 -62 8 -89 23 -16 30 -30 30 -54 0 -18 -4 -35 -8 -38 -9 -5 -52 46 -52 62 0 5 -6 15 -13 21 -8 6 -19 29 -26 51 -10 33 -9 45 4 70 13 24 22 30 49 30 18 0 39 7 46 15 29 35 90 2 90 -50 0 -11 7 -33 15 -49 8 -15 15 -40 15 -54 0 -39 32 -132 45 -132 7 0 24 9 38 20 l25 20 -20 53 c-11 28 -23 66 -27 82 -4 17 -13 40 -19 52 -7 12 -12 33 -12 47 0 68 -112 123 -154 77z m32 -178 c-2 -22 -8 -27 -23 -25 -11 2 -24 8 -29 12 -13 13 12 40 36 40 15 0 19 -6 16 -27z"/> <path d="M3366 617 c-22 -16 -32 -87 -17 -115 6 -12 23 -25 37 -28 23 -6 25 -11 21 -43 -2 -20 -9 -51 -16 -68 -37 -107 -37 -103 31 -125 32 -9 41 -9 56 6 11 9 36 17 57 19 35 2 40 -1 48 -28 8 -29 53 -65 82 -65 7 0 27 13 44 29 44 41 42 83 -4 124 -31 28 -35 35 -29 66 4 20 13 48 20 62 7 15 15 46 16 69 3 40 1 44 -25 51 -36 10 -55 -18 -67 -98 -13 -86 -28 -123 -52 -123 -11 0 -32 -7 -48 -16 -42 -25 -60 -13 -53 33 3 21 12 50 19 64 7 14 16 53 19 86 7 57 6 63 -18 87 -29 29 -90 36 -121 13z m78 -60 c8 -12 7 -21 -5 -32 -14 -14 -18 -14 -39 3 -21 17 -22 19 -5 36 20 19 34 17 49 -7z m246 -292 c0 -14 -7 -28 -15 -31 -20 -8 -45 13 -45 37 0 14 7 19 30 19 25 0 30 -4 30 -25z"/> <path d="M5361 589 c-14 -5 -21 -15 -18 -23 3 -8 9 -32 13 -53 3 -21 12 -48 20 -60 16 -26 18 -43 4 -43 -13 0 -50 37 -50 50 0 6 -14 10 -31 10 -56 0 -78 -61 -37 -102 17 -17 32 -21 74 -20 l53 1 7 -35 c4 -20 3 -39 -2 -44 -5 -5 -40 -10 -79 -12 l-69 -3 -8 49 c-4 27 -12 54 -17 59 -6 6 -11 36 -11 67 0 45 -5 60 -25 83 -40 42 -110 36 -138 -13 -23 -38 -21 -60 7 -95 18 -23 32 -30 57 -30 33 0 34 -2 51 -60 9 -33 17 -80 17 -103 l1 -44 48 5 c47 5 113 18 207 41 l50 12 -3 39 c-1 22 -10 57 -19 78 -15 34 -15 38 0 55 24 27 21 59 -8 78 -20 13 -25 25 -25 58 0 60 -19 75 -69 55z m-223 -118 c23 -14 10 -46 -21 -49 -23 -3 -27 0 -27 21 0 36 19 47 48 28z m183 -41 c6 0 5 -8 -1 -20 -13 -24 -36 -26 -44 -4 -8 21 3 37 21 30 8 -3 19 -6 24 -6z"/> <path d="M3815 495 c-19 -20 -36 -41 -37 -48 -1 -7 -2 -71 -2 -144 l-1 -132 38 -7 c22 -3 42 -2 47 2 12 14 30 74 30 100 0 20 5 24 29 24 33 0 77 31 86 61 13 41 -49 98 -86 78 -8 -4 -28 -26 -44 -48 -15 -23 -32 -41 -36 -41 -25 0 4 93 37 121 23 19 107 15 138 -7 22 -16 25 -27 26 -75 0 -31 -6 -75 -14 -97 -8 -22 -16 -64 -18 -93 l-3 -54 34 -3 c18 -2 38 1 43 6 16 16 29 292 15 321 -21 43 -90 71 -173 71 -71 0 -75 -1 -109 -35z m155 -129 c0 -5 -8 -15 -17 -22 -15 -10 -21 -10 -36 3 -16 15 -16 18 -1 34 13 15 20 16 35 6 10 -6 19 -16 19 -21z"/> <path d="M4795 507 c-16 -7 -51 -26 -77 -42 -57 -36 -64 -71 -20 -103 26 -20 27 -25 32 -129 l5 -108 40 0 40 0 -1 40 c-2 69 -27 245 -36 245 -21 0 -4 21 28 35 49 20 76 19 108 -6 25 -19 26 -25 26 -113 0 -51 3 -114 6 -140 l7 -47 41 3 41 3 -3 55 c-3 65 -30 239 -41 259 -25 49 -131 75 -196 48z"/> <path d="M4196 466 c-23 -24 -36 -48 -41 -76 -8 -47 -1 -58 35 -62 22 -3 25 1 28 32 4 38 36 80 62 80 9 0 26 -10 38 -23 21 -23 22 -27 12 -143 -6 -65 -11 -128 -13 -138 -1 -14 7 -22 32 -28 21 -6 37 -6 43 0 10 10 18 266 10 315 -7 41 -64 77 -124 77 -41 0 -52 -5 -82 -34z"/> <path d="M4489 483 c-2 -10 -2 -84 1 -165 4 -129 8 -150 26 -175 16 -22 31 -29 64 -31 37 -3 47 1 67 24 28 32 31 84 6 106 -10 8 -31 22 -48 29 l-30 14 -5 105 -5 105 -36 3 c-28 2 -37 -1 -40 -15z m119 -287 c3 -25 1 -27 -24 -24 -33 4 -41 20 -18 42 22 23 38 15 42 -18z"/> </g> </svg> 