<?xml version="1.0" standalone="no"?>
<!DOCTYPE svg PUBLIC "-//W3C//DTD SVG 20010904//EN"
 "http://www.w3.org/TR/2001/REC-SVG-20010904/DTD/svg10.dtd">
<svg version="1.0" xmlns="http://www.w3.org/2000/svg"
 width="1920.000000pt" height="1080.000000pt" viewBox="0 0 1920.000000 1080.000000"
 preserveAspectRatio="xMidYMid meet">
<metadata>
Created by potrace 1.16, written by Peter Selinger 2001-2019
</metadata>
<g transform="translate(0.000000,1080.000000) scale(0.100000,-0.100000)"
fill="#ffffff" stroke="none">
<path d="M8507 6460 c-7 -16 -38 -150 -56 -235 -39 -190 -45 -236 -45 -410 0
-156 3 -190 22 -258 45 -157 95 -259 208 -417 153 -216 256 -398 284 -502 11
-42 10 -51 -4 -73 l-16 -25 -1225 0 c-1218 0 -1225 0 -1225 -20 0 -20 7 -20
1249 -20 l1249 0 54 59 c122 135 198 305 206 456 7 152 -28 247 -151 406 -167
217 -339 512 -432 739 -14 36 -32 79 -39 95 -11 25 -52 145 -69 205 -4 13 -5
13 -10 0z"/>
<path d="M10667 6460 c-3 -8 -13 -40 -23 -70 -94 -302 -302 -690 -524 -975
-104 -133 -150 -248 -150 -376 0 -62 29 -185 59 -251 27 -60 110 -184 160
-240 l43 -48 1255 0 c1189 0 1254 1 1251 18 -3 16 -71 17 -1228 19 -1138 3
-1226 4 -1237 20 -46 62 41 249 264 569 51 72 109 164 131 205 130 247 144
540 48 964 -33 145 -43 180 -49 165z"/>
<path d="M8743 4055 c-195 -36 -333 -113 -479 -268 -85 -90 -132 -161 -170
-256 -35 -87 -46 -142 -51 -268 -10 -232 67 -419 242 -596 136 -136 307 -224
486 -247 166 -21 295 -7 447 49 46 17 95 31 108 31 29 0 75 -22 93 -44 8 -9
24 -16 37 -16 l24 0 0 229 c0 221 -1 229 -20 234 -22 6 -30 -5 -50 -68 -54
-169 -166 -282 -331 -334 -55 -18 -245 -21 -317 -5 -140 29 -255 118 -324 249
-56 108 -67 148 -84 315 -14 131 -15 178 -5 305 7 83 19 179 28 215 42 174
170 330 313 383 79 29 202 41 304 28 212 -26 360 -153 422 -362 13 -41 19 -49
39 -49 l25 0 0 230 0 230 -22 0 c-12 0 -34 -11 -48 -25 -43 -41 -83 -42 -201
-2 -57 19 -128 40 -157 46 -69 14 -218 12 -309 -4z"/>
<path d="M6355 4028 c-2 -7 -9 -102 -15 -211 -5 -108 -11 -203 -13 -210 -1 -6
9 -13 23 -15 23 -3 27 4 55 84 46 136 113 208 240 257 41 16 78 19 210 21
l160 1 5 -755 5 -755 125 0 125 0 5 755 c3 415 6 756 8 758 1 1 59 2 130 2
295 0 430 -87 497 -316 13 -47 19 -54 41 -54 l25 0 -7 123 c-4 67 -9 167 -13
222 l-6 100 -798 3 c-633 2 -798 0 -802 -10z"/>
<path d="M9617 4033 c-3 -5 -4 -21 -3 -38 l1 -30 95 -5 c99 -6 122 -13 155
-50 19 -22 20 -41 25 -744 l5 -721 620 0 620 0 12 150 c6 83 12 183 12 223 1
70 0 72 -24 72 -19 0 -26 -7 -31 -27 -34 -154 -112 -255 -241 -314 l-63 -29
-246 0 c-244 0 -247 0 -293 25 -50 28 -86 72 -101 126 -11 37 -14 467 -4 493
5 14 36 16 240 16 342 0 365 -8 413 -145 22 -63 33 -81 50 -83 21 -3 21 -3 21
282 l0 286 -23 0 c-20 0 -26 -10 -46 -72 -27 -83 -60 -122 -119 -137 -26 -7
-131 -10 -289 -9 l-248 3 0 325 0 325 259 3 c143 1 282 -2 310 -7 183 -34 292
-135 337 -313 12 -44 16 -49 39 -46 14 2 24 8 23 13 -1 6 -6 102 -12 213 -6
112 -13 207 -16 212 -7 12 -1472 14 -1478 3z"/>
<path d="M11284 4026 c-3 -8 -4 -25 -2 -38 3 -22 8 -23 98 -28 100 -6 138 -21
163 -64 9 -16 13 -203 17 -736 l5 -715 385 1 c359 1 391 3 480 23 200 46 332
137 392 269 27 58 31 79 31 157 1 78 -3 97 -26 146 -38 79 -119 152 -220 199
-45 21 -98 41 -117 45 -19 4 -42 11 -50 15 -12 7 -12 10 5 16 118 41 172 71
224 123 74 73 101 131 101 216 0 99 -28 161 -105 233 -81 76 -182 118 -335
138 -155 20 -1038 20 -1046 0z m1014 -83 c72 -22 132 -82 162 -163 20 -53 22
-73 17 -159 -7 -132 -47 -210 -130 -253 -38 -20 -66 -23 -269 -31 -181 -8
-231 -7 -243 3 -13 11 -15 53 -13 314 l3 301 110 6 c152 8 300 1 363 -18z m4
-684 c123 -26 193 -95 234 -228 18 -61 18 -188 -2 -265 -53 -208 -176 -262
-559 -247 l-150 6 -3 359 c-2 256 1 363 9 372 15 18 391 20 471 3z"/>
<path d="M9347 1989 c-50 -10 -109 -42 -139 -75 -59 -66 -73 -176 -34 -260 46
-99 134 -142 272 -131 77 6 108 17 118 43 11 28 -4 35 -32 15 -44 -31 -104
-43 -158 -31 -100 23 -144 85 -144 205 0 120 44 182 144 205 55 12 86 6 142
-26 45 -25 54 -23 54 12 0 18 -8 25 -37 33 -62 16 -135 20 -186 10z"/>
<path d="M9855 1986 c-73 -18 -112 -42 -144 -87 -89 -123 -44 -302 89 -356 62
-25 162 -30 235 -12 55 14 122 70 146 123 40 89 16 209 -56 275 -63 58 -175
82 -270 57z m161 -36 c101 -39 143 -194 84 -311 -73 -142 -306 -117 -349 38
-54 193 88 339 265 273z"/>
<path d="M13257 1989 c-85 -17 -151 -70 -180 -147 -44 -112 2 -239 106 -295
36 -19 58 -22 147 -22 88 0 111 3 145 22 83 44 115 102 115 208 0 136 -58 204
-198 234 -60 12 -68 12 -135 0z m171 -47 c19 -8 46 -33 60 -55 24 -37 27 -50
27 -131 0 -78 -4 -96 -24 -129 -39 -63 -126 -95 -208 -77 -100 23 -142 85
-143 208 0 84 21 137 69 171 58 42 147 47 219 13z"/>
<path d="M5030 1963 c0 -21 4 -22 73 -20 l72 2 3 -207 2 -208 35 0 34 0 -6
173 c-3 97 -1 187 4 207 l10 35 69 0 c61 0 69 2 69 19 0 17 -12 18 -183 20
-181 1 -182 1 -182 -21z"/>
<path d="M5519 1986 c0 0 -1 -104 -2 -229 l-2 -228 35 3 34 3 1 110 0 110 134
3 c81 1 138 -1 145 -8 5 -5 9 -53 7 -115 l-3 -105 34 0 33 0 0 225 0 225 -32
0 -33 0 0 -95 0 -95 -146 0 -146 0 3 92 4 92 -32 7 c-18 3 -33 6 -34 5z"/>
<path d="M6215 1868 c-32 -68 -80 -168 -106 -224 -27 -56 -49 -104 -49 -108 0
-4 12 -6 26 -4 23 3 31 14 58 83 l31 80 83 3 c46 2 89 -1 95 -7 7 -5 26 -44
42 -85 30 -76 30 -76 68 -76 20 0 37 2 37 4 0 2 -22 50 -48 107 -27 57 -73
159 -102 227 -30 67 -59 122 -66 122 -6 0 -37 -55 -69 -122z"/>
<path d="M7359 1863 c-34 -71 -82 -171 -107 -223 -26 -52 -48 -98 -50 -102 -2
-5 9 -8 25 -8 28 0 32 5 62 85 l32 85 89 0 89 0 19 -42 c10 -24 27 -62 37 -85
17 -40 22 -43 57 -43 21 0 38 1 38 3 0 2 -25 54 -55 115 -30 62 -55 114 -55
116 0 3 -15 37 -34 78 -18 40 -41 90 -49 111 -9 20 -21 37 -27 37 -6 0 -38
-57 -71 -127z"/>
<path d="M7777 1776 c-3 -117 -8 -220 -9 -227 -2 -9 7 -15 23 -17 l26 -3 -5
164 c-3 106 -1 166 5 170 6 4 88 -72 182 -169 95 -97 174 -174 175 -173 2 2 6
106 8 232 l5 227 -23 0 -23 0 6 -165 c4 -98 2 -165 -3 -165 -5 0 -86 77 -179
170 -93 94 -172 170 -176 170 -3 0 -9 -96 -12 -214z"/>
<path d="M8364 1981 c-2 -2 -4 -105 -4 -228 l0 -223 88 -1 c184 -3 244 13 306
82 93 103 65 294 -51 350 -43 21 -62 23 -191 24 -79 0 -146 -2 -148 -4z m305
-59 c43 -32 61 -80 61 -162 0 -91 -25 -143 -85 -177 -43 -24 -137 -38 -184
-28 l-31 7 0 193 0 194 63 3 c79 4 146 -7 176 -30z"/>
<path d="M10340 1783 c0 -115 -3 -218 -7 -231 -5 -21 -3 -23 23 -20 l29 3 -4
168 c-3 166 -3 169 17 158 11 -6 92 -86 181 -178 88 -92 162 -165 164 -163 3
3 7 107 9 233 l4 227 -23 0 c-22 0 -23 0 -25 -167 l-3 -168 -170 173 c-94 94
-176 172 -183 172 -9 0 -12 -48 -12 -207z"/>
<path d="M11440 1757 l0 -228 125 3 c151 4 172 21 35 28 l-95 5 0 90 0 90 78
1 c78 2 106 12 92 34 -5 8 -33 11 -89 9 l-81 -4 -3 40 c-2 22 -1 59 3 83 l6
44 87 -3 c80 -3 87 -2 90 16 3 19 -4 20 -123 20 l-125 0 0 -228z"/>
<path d="M11840 1783 c0 -115 -3 -218 -7 -231 -5 -21 -3 -23 23 -20 l29 3 -4
168 c-2 108 1 167 7 167 6 0 87 -80 181 -177 94 -97 172 -175 174 -172 3 2 7
106 9 232 l4 227 -23 0 c-22 0 -23 0 -25 -167 l-3 -167 -170 172 c-93 95 -175
172 -182 172 -10 0 -13 -47 -13 -207z"/>
<path d="M12376 1974 c-9 -23 12 -31 79 -30 l70 1 0 -208 0 -207 32 0 33 0 2
208 3 207 70 0 c62 0 70 2 70 19 0 17 -11 18 -177 20 -120 1 -179 -3 -182 -10z"/>
<path d="M13740 1821 c0 -92 -3 -196 -6 -230 -7 -61 -7 -61 20 -61 l26 0 0
173 0 172 177 -177 c97 -98 179 -175 183 -173 3 2 7 105 7 229 1 216 0 226
-18 226 -18 0 -19 -9 -19 -165 0 -91 -3 -165 -8 -165 -4 0 -84 77 -177 170
-93 94 -173 170 -177 170 -5 0 -8 -76 -8 -169z"/>
<path d="M6620 1755 l0 -225 35 0 35 0 0 225 0 225 -35 0 -35 0 0 -225z"/>
<path d="M6860 1755 l0 -225 130 0 c117 0 130 2 130 18 0 15 -10 17 -95 14
l-95 -4 0 211 0 211 -35 0 -35 0 0 -225z"/>
<path d="M10932 1843 c33 -76 69 -158 80 -183 12 -25 29 -64 39 -88 16 -37 23
-43 44 -40 22 3 33 19 81 128 30 69 75 167 100 219 24 51 44 95 44 97 0 2 -12
4 -28 4 -24 0 -30 -7 -51 -62 -51 -135 -114 -284 -126 -296 -11 -12 -61 96
-156 336 -7 18 -16 22 -48 22 l-39 0 60 -137z"/>
<path d="M12860 1755 l0 -225 35 0 35 0 0 225 0 225 -35 0 -35 0 0 -225z"/>
<path d="M9502 1291 c-107 -37 -158 -119 -150 -240 9 -121 73 -190 197 -211
128 -21 242 17 297 100 35 53 45 159 20 224 -46 120 -214 179 -364 127z m204
-30 c130 -59 140 -296 16 -373 -55 -34 -164 -33 -215 2 -93 63 -115 221 -46
321 44 64 162 87 245 50z"/>
<path d="M10030 1212 c0 -55 -3 -161 -7 -236 l-6 -138 24 4 24 3 -4 168 c-3
137 -1 167 10 166 8 -1 86 -77 174 -169 88 -92 166 -168 173 -169 9 -1 12 36
12 152 0 85 3 188 6 230 l7 77 -27 0 -27 0 7 -165 c6 -146 5 -165 -9 -165 -8
0 -89 76 -179 170 -90 93 -166 170 -170 170 -5 0 -8 -44 -8 -98z"/>
<path d="M12942 1298 c-7 -7 -12 -16 -12 -20 0 -4 -45 -101 -100 -214 -55
-114 -100 -211 -100 -216 0 -5 12 -8 26 -6 22 3 30 14 54 76 40 104 39 103
134 100 91 -3 82 4 132 -118 21 -51 26 -55 58 -58 20 -2 36 1 36 7 0 6 -25 63
-55 126 -30 64 -55 118 -55 120 0 2 -18 43 -40 90 -22 47 -40 90 -40 94 0 18
-26 31 -38 19z"/>
<path d="M6300 1070 l0 -230 130 0 c123 0 130 1 130 20 0 19 -7 20 -95 20
l-95 0 0 90 0 89 83 3 c73 3 82 5 82 22 0 17 -7 19 -83 17 l-83 -2 3 83 3 83
90 0 c77 0 90 2 93 18 3 15 -8 17 -127 17 l-131 0 0 -230z"/>
<path d="M6746 1185 l75 -116 -75 -104 c-42 -57 -76 -108 -76 -114 0 -6 9 -11
20 -11 15 0 37 26 82 95 33 52 64 95 68 95 9 0 26 -26 70 -105 43 -80 51 -87
93 -83 l36 3 -79 123 c-63 96 -78 126 -71 140 5 9 39 55 75 102 65 85 66 85
39 88 -16 2 -31 -2 -38 -12 -5 -8 -30 -47 -54 -86 -25 -38 -47 -70 -51 -70 -3
0 -28 37 -56 83 -49 80 -52 82 -92 85 l-42 3 76 -116z"/>
<path d="M7172 1073 l3 -228 34 -3 33 -3 -3 113 -4 113 145 0 145 0 0 -110 0
-110 33 0 33 0 2 228 2 228 -35 -3 -35 -3 4 -93 3 -93 -148 3 -149 3 4 93 3
92 -36 0 -36 0 2 -227z"/>
<path d="M7766 1073 l1 -228 31 -3 32 -3 0 230 0 231 -32 0 -33 0 1 -227z"/>
<path d="M8000 1069 l0 -232 108 5 c121 5 161 20 193 71 29 46 21 113 -18 144
-15 13 -36 23 -45 23 -24 0 -23 17 2 25 31 10 60 54 60 92 0 80 -43 103 -195
103 l-105 0 0 -231z m194 190 c33 -15 48 -59 35 -98 -13 -36 -61 -61 -118 -61
l-41 0 0 85 0 85 50 0 c27 0 60 -5 74 -11z m-19 -199 c81 -19 101 -96 40 -157
-31 -31 -38 -34 -87 -31 l-53 3 -3 98 -3 97 33 0 c18 0 51 -5 73 -10z"/>
<path d="M8480 1296 c-3 -2 -5 -105 -4 -228 l0 -223 33 0 32 0 0 225 0 225
-28 3 c-16 2 -31 1 -33 -2z"/>
<path d="M8660 1280 c0 -18 7 -20 75 -20 l75 0 0 -211 0 -210 33 3 32 3 3 208
2 207 75 0 c68 0 75 2 75 20 0 19 -7 20 -185 20 -178 0 -185 -1 -185 -20z"/>
<path d="M9150 1069 l0 -230 31 3 31 3 1 228 2 227 -32 0 -33 0 0 -231z"/>
<path d="M10845 1070 l0 -230 85 0 c105 0 150 12 195 52 31 27 35 36 35 80 0
41 -5 54 -29 79 -16 16 -40 29 -53 29 -21 0 -19 4 20 36 39 33 42 39 42 84 0
83 -32 100 -188 100 l-107 0 0 -230z m210 175 c64 -63 4 -145 -105 -145 l-40
0 0 78 c0 43 3 82 7 85 3 4 31 7 60 7 44 0 58 -5 78 -25z m5 -204 c46 -33 39
-120 -13 -151 -40 -25 -122 -27 -131 -4 -9 22 -7 169 2 178 12 13 116 -3 142
-23z"/>
<path d="M11320 1132 c0 -154 2 -171 23 -212 31 -61 78 -83 176 -84 63 0 84 4
119 24 78 44 87 72 97 303 l6 137 -25 0 -24 0 -4 -167 c-3 -184 -11 -213 -68
-247 -37 -21 -133 -21 -170 0 -58 35 -65 62 -64 247 l0 167 -33 0 -33 0 0
-168z"/>
<path d="M11912 1073 l3 -228 33 -3 32 -3 0 110 c0 61 4 111 9 111 11 0 84
-79 145 -157 45 -58 52 -63 87 -63 22 0 39 3 39 6 0 3 -38 51 -85 107 -47 55
-85 103 -85 106 0 4 22 16 50 29 83 38 105 114 51 174 l-29 33 -126 3 -126 4
2 -229z m211 177 c77 -60 13 -160 -103 -160 l-40 0 0 90 0 90 59 0 c43 0 65
-5 84 -20z"/>
<path d="M12386 1073 l1 -228 126 -3 c122 -2 127 -2 127 18 0 19 -6 20 -95 20
l-95 0 0 90 0 90 86 0 c82 0 85 1 82 22 -3 20 -8 21 -86 19 l-83 -2 3 83 3 83
93 -4 c88 -3 92 -2 92 18 0 20 -5 21 -127 21 l-128 0 1 -227z"/>
<path d="M13274 1122 c2 -165 3 -180 24 -214 38 -61 139 -90 236 -68 118 26
141 72 151 298 l7 162 -26 0 -26 0 0 -160 c0 -180 -12 -225 -70 -255 -38 -20
-123 -19 -165 1 -60 28 -70 66 -68 252 l2 162 -33 0 -33 0 1 -178z"/>
<path d="M5614 1272 c-47 -38 -56 -88 -24 -140 11 -18 20 -34 20 -36 0 -2 -18
-15 -40 -30 -70 -46 -96 -111 -68 -171 32 -70 168 -82 252 -22 l29 20 19 -26
c16 -21 28 -27 59 -27 41 0 49 9 24 30 -9 7 -25 26 -36 42 l-21 29 42 54 c25
33 40 61 36 70 -10 26 -24 17 -58 -40 -18 -30 -38 -55 -45 -55 -10 0 -113 114
-113 125 0 2 18 21 40 42 53 50 62 92 27 127 -21 21 -36 26 -74 26 -30 0 -56
-7 -69 -18z m77 -278 c30 -36 55 -71 57 -79 5 -20 -50 -45 -97 -45 -51 0 -90
32 -97 81 -5 30 -1 41 26 72 18 21 38 37 44 37 7 0 37 -29 67 -66z"/>
</g>
</svg>
