<?xml version="1.0" standalone="no"?>
<!DOCTYPE svg PUBLIC "-//W3C//DTD SVG 20010904//EN"
 "http://www.w3.org/TR/2001/REC-SVG-20010904/DTD/svg10.dtd">
<svg version="1.0" xmlns="http://www.w3.org/2000/svg"
 width="398.000000pt" height="569.000000pt" viewBox="0 0 398.000000 569.000000"
 preserveAspectRatio="xMidYMid meet">
<metadata>
Created by potrace 1.16, written by Peter Selinger 2001-2019
</metadata>
<g transform="translate(0.000000,569.000000) scale(0.100000,-0.100000)"
fill="#ffffff" stroke="none">
<path d="M1962 5461 c0 -39 -26 -196 -42 -250 -5 -19 -7 -37 -5 -40 3 -2 5 2
5 9 0 7 3 11 6 8 3 -3 0 -15 -7 -26 -21 -34 2 -49 76 -51 79 -2 93 14 74 82
-6 23 -13 53 -15 67 -3 14 -8 34 -11 45 -3 11 -7 34 -8 52 -1 18 -8 40 -16 50
-9 11 -10 14 -1 9 9 -5 12 5 12 39 l0 46 -34 -3 c-33 -2 -35 -4 -34 -37z"/>
<path d="M1887 5068 c-7 -27 40 -56 78 -48 17 3 41 3 55 -1 19 -5 13 -7 -25
-9 -82 -3 -100 -18 -22 -18 38 -1 78 -4 88 -7 11 -4 19 -2 19 4 0 6 -8 11 -17
11 -13 0 -11 6 10 28 18 19 25 35 21 46 -6 15 -20 17 -105 15 -85 -2 -98 -5
-102 -21z"/>
<path d="M1955 4298 c-16 -18 -29 -36 -27 -41 2 -5 -4 -7 -13 -3 -9 3 -13 2
-10 -4 3 -6 -1 -13 -10 -16 -13 -5 -14 -9 -4 -15 20 -12 10 -16 -63 -23 -47
-4 -68 -3 -68 4 0 6 5 8 10 5 23 -14 2 45 -25 72 -7 7 -15 9 -19 6 -3 -4 -6 0
-6 7 0 9 -5 7 -14 -5 -10 -14 -11 -25 -3 -42 5 -12 13 -20 18 -18 4 3 5 -5 1
-17 -4 -17 -2 -20 11 -15 10 4 17 1 17 -6 0 -7 -11 -12 -27 -11 -16 1 -34 -3
-40 -9 -7 -5 -13 -7 -13 -3 0 3 -11 1 -25 -4 -15 -6 -26 -6 -30 0 -6 9 7 14
27 11 4 0 6 8 5 18 -1 19 -2 19 -29 -1 -16 -11 -25 -24 -22 -30 5 -7 0 -9 -14
-6 -26 7 -35 -13 -21 -48 10 -27 6 -52 -13 -92 -9 -16 -9 -25 0 -34 8 -8 14
-4 23 15 7 15 15 27 19 27 4 0 7 14 8 31 1 29 0 30 -14 13 -14 -18 -15 -18 -5
2 6 12 7 25 3 30 -4 5 3 0 15 -10 19 -16 21 -22 11 -35 -9 -12 -7 -12 7 1 18
17 18 18 -2 40 -35 40 -38 50 -12 46 13 -2 26 -6 29 -9 3 -4 37 -1 75 7 72 14
177 27 208 26 9 0 17 4 17 11 0 12 48 57 62 57 4 0 8 5 8 11 0 6 -7 8 -17 4
-14 -5 -15 -3 -6 6 14 14 33 4 33 -17 0 -8 5 -12 10 -9 16 10 12 23 -11 36
-17 9 -25 7 -45 -12 -13 -12 -21 -26 -18 -30 3 -5 -4 -9 -16 -9 -19 0 -19 2
-8 23 12 21 13 25 17 45 1 4 6 0 11 -8 6 -9 10 -10 10 -3 0 7 9 17 21 23 17
10 25 7 50 -19 16 -17 29 -36 29 -42 0 -8 6 -7 17 2 10 8 14 9 10 2 -4 -6 -2
-15 4 -18 7 -5 10 0 7 11 -2 11 -11 18 -20 18 -10 -1 -14 4 -11 12 3 8 -1 14
-8 14 -8 1 -25 14 -39 30 -13 17 -27 30 -30 30 -3 -1 -18 -15 -35 -32z"/>
<path d="M2405 4150 c-3 -5 -1 -10 4 -10 15 0 14 -20 -1 -20 -20 -1 -51 -49
-43 -68 6 -15 9 -14 26 7 10 13 19 18 19 13 0 -6 -5 -14 -10 -17 -6 -4 -8 -11
-4 -16 3 -5 10 -7 15 -4 5 3 6 -1 3 -9 -3 -8 -2 -21 2 -28 5 -7 9 -15 9 -18 1
-9 24 -45 25 -37 0 4 9 3 19 -3 15 -7 23 -6 34 5 8 8 18 11 22 7 5 -4 6 0 3 9
-4 9 -2 22 3 30 6 10 9 10 9 2 0 -7 9 -13 20 -13 11 0 20 -4 20 -10 0 -5 -4
-10 -10 -10 -6 0 -6 -10 1 -27 7 -20 6 -28 -3 -35 -7 -4 -9 -8 -4 -8 5 0 1
-10 -10 -21 -19 -22 -19 -22 3 -10 13 6 26 19 31 29 15 29 13 82 -3 105 -8 12
-15 16 -15 9 0 -7 -5 -10 -10 -7 -6 4 -1 14 13 26 15 11 25 29 25 44 l0 26
-24 -22 c-13 -12 -21 -26 -18 -30 3 -5 -2 -6 -10 -3 -9 3 -17 -2 -20 -14 -4
-11 -18 -28 -32 -37 -13 -9 -22 -20 -19 -25 3 -4 -4 -6 -14 -3 -20 5 -37 43
-19 43 5 0 6 5 3 10 -4 6 -11 7 -17 4 -6 -4 -9 -3 -5 2 3 5 2 25 -2 44 -5 24
-3 42 6 56 11 18 11 23 -1 33 -10 8 -16 9 -21 1z"/>
<path d="M1775 3849 c17 -4 65 -7 107 -8 42 0 79 -4 81 -8 3 -5 -8 -42 -25
-83 -16 -41 -38 -113 -50 -160 -22 -91 -22 -111 2 -480 5 -85 12 -211 14 -280
2 -69 6 -134 9 -145 3 -11 6 -22 6 -24 1 -2 13 5 29 14 l27 18 -19 -22 c-19
-21 -19 -21 -1 -15 12 5 16 4 11 -4 -3 -6 -2 -14 4 -17 6 -4 10 -3 9 2 -1 4
-1 13 0 18 1 9 0 1051 -1 1125 -1 19 2 44 5 55 6 19 2 20 -116 21 -67 0 -108
-3 -92 -7z"/>
<path d="M2001 3266 c-1 -538 1 -597 14 -586 11 9 19 10 26 3 8 -8 6 -11 -6
-10 -20 2 -43 -28 -31 -40 4 -4 13 -1 19 8 7 9 22 19 34 23 19 6 21 11 13 32
-7 18 -7 23 2 18 8 -5 10 11 6 60 -3 37 -2 69 4 72 5 3 8 55 7 115 -1 61 1
113 5 116 3 4 6 36 6 72 0 36 5 125 11 196 11 122 10 136 -10 228 -15 62 -27
95 -33 91 -7 -4 -8 -2 -4 5 11 17 -3 73 -16 65 -7 -4 -8 -2 -4 4 4 6 -2 29
-14 51 l-20 41 22 5 c13 2 39 6 58 9 19 2 9 3 -22 2 -33 -1 -59 2 -62 8 -2 6
-5 -258 -5 -588z"/>
<path d="M2613 3510 c-13 -5 -23 -13 -23 -18 0 -5 -13 -23 -30 -40 -33 -35
-38 -66 -14 -100 17 -25 3 -30 -20 -7 -8 9 -13 23 -10 33 2 9 -3 2 -12 -15
-22 -40 -7 -84 25 -78 17 3 18 0 10 -28 -12 -42 -11 -47 5 -47 18 0 26 12 32
48 3 21 2 24 -6 12 -8 -11 -9 -8 -4 13 4 18 2 27 -6 27 -10 0 -9 5 2 18 8 9
18 25 21 35 4 9 15 17 26 17 29 0 45 35 32 70 -5 16 -7 38 -4 49 6 23 7 23
-24 11z"/>
<path d="M1036 2944 c-3 -11 -19 -30 -36 -42 -33 -25 -49 -80 -30 -109 10 -15
11 -14 6 12 -3 17 -3 24 0 17 9 -19 24 -4 24 24 0 32 10 30 47 -8 54 -59 63
-79 63 -145 0 -78 -6 -94 -69 -176 -34 -44 -49 -72 -45 -84 4 -12 3 -14 -3 -5
-7 9 -16 5 -37 -17 l-27 -28 25 0 c25 0 35 10 19 20 -5 2 -2 2 4 1 18 -5 126
132 117 147 -4 8 -3 9 5 5 19 -12 55 81 54 140 -2 59 -21 102 -69 156 -19 21
-31 44 -28 51 2 7 1 24 -4 37 -9 24 -9 24 -16 4z"/>
<path d="M2937 2954 c-3 -6 -7 -31 -9 -56 -2 -28 -7 -44 -14 -41 -15 6 -62
-68 -76 -121 -9 -34 -9 -56 1 -100 7 -31 17 -56 23 -56 5 0 8 7 4 15 -8 22 2
18 15 -6 8 -15 8 -19 0 -15 -26 17 -7 -20 45 -86 47 -58 58 -68 66 -54 12 21
-59 109 -81 101 -11 -4 -12 -3 -1 10 7 8 9 15 4 15 -13 0 -34 50 -41 97 -8 62
14 128 58 176 38 40 54 42 60 7 3 -18 -11 -71 -21 -85 -11 -14 23 -111 38
-108 6 2 11 -2 9 -7 -1 -6 13 -20 32 -32 33 -21 34 -21 26 -3 -4 11 -8 27 -7
35 3 96 5 111 14 99 7 -10 8 -8 5 8 -3 12 -2 21 2 20 12 -4 53 31 48 41 -4 5
1 9 9 9 14 0 15 -10 9 -62 -6 -63 8 -120 28 -108 6 3 7 1 3 -6 -10 -15 13 -43
27 -34 6 4 7 1 3 -6 -5 -8 15 -37 53 -79 78 -84 91 -100 91 -109 1 -5 8 -30
17 -58 13 -43 26 -231 15 -220 -3 2 -12 -6 -22 -18 -15 -18 -20 -19 -33 -8 -9
7 -20 31 -26 54 -7 32 -9 36 -10 15 -1 -36 15 -77 34 -84 27 -11 73 16 84 48
14 39 14 51 0 42 -8 -5 -8 -1 0 14 16 30 13 92 -7 154 -28 86 -101 196 -121
184 -5 -3 -8 2 -7 12 0 10 -6 17 -16 17 -9 0 -20 4 -25 9 -4 5 -3 6 5 2 19
-11 14 9 -8 29 -41 37 -61 82 -58 129 2 25 6 46 11 46 16 0 6 28 -25 68 -33
43 -48 41 -48 -4 0 -11 -10 -29 -21 -40 -30 -26 -62 -100 -54 -124 5 -14 2
-20 -9 -20 -9 0 -16 5 -16 11 0 5 -5 7 -12 3 -6 -4 -8 -3 -5 3 3 5 2 26 -2 46
-6 23 -5 37 1 39 6 2 13 28 16 57 3 39 2 52 -6 47 -8 -5 -10 -1 -5 10 5 14 3
16 -11 11 -13 -5 -17 -3 -13 7 3 8 -1 17 -9 20 -8 3 -18 15 -23 27 -4 13 -10
18 -14 13z"/>
<path d="M840 2886 c0 -8 -11 -26 -25 -40 -27 -27 -29 -38 -15 -106 10 -55 -2
-83 -74 -160 -129 -137 -168 -218 -170 -348 -1 -64 2 -85 14 -92 8 -5 11 -10
6 -10 -20 0 25 -36 47 -38 46 -3 62 30 62 127 1 96 18 141 55 141 11 0 20 5
20 10 0 15 -22 12 -47 -5 -31 -22 -43 -69 -41 -159 2 -66 -1 -80 -16 -92 -11
-7 -24 -10 -30 -6 -6 4 -14 7 -18 7 -3 0 -10 4 -15 9 -5 6 -2 6 6 1 11 -6 13
-4 6 11 -24 59 -14 186 21 260 9 18 12 38 8 45 -4 7 -3 9 3 6 12 -7 56 50 49
62 -3 5 2 15 12 22 16 13 16 12 3 -6 -7 -11 16 10 52 47 78 79 97 125 78 188
-15 49 -7 65 20 42 41 -35 60 -79 61 -142 1 -65 10 -73 46 -41 24 20 30 37 10
25 -8 -4 -10 -3 -5 2 5 5 14 9 20 9 6 0 17 11 24 25 15 30 17 94 3 85 -5 -3
-7 0 -4 8 3 8 1 18 -5 22 -11 6 -16 -13 -12 -52 2 -26 -26 -86 -37 -79 -4 2
-9 19 -10 37 -2 18 -9 40 -17 49 -8 9 -15 20 -15 25 0 4 -11 18 -25 31 -16 15
-25 34 -25 53 0 16 -4 33 -10 36 -5 3 -10 -1 -10 -9z"/>
<path d="M1030 2373 c0 -5 11 -27 25 -51 13 -23 19 -40 13 -36 -8 5 -9 1 -5
-11 4 -9 4 -23 -1 -29 -15 -20 -35 -94 -28 -104 3 -6 2 -13 -4 -17 -23 -14 -4
-195 31 -307 12 -38 25 -68 29 -68 4 0 11 -7 14 -16 4 -9 2 -13 -5 -8 -6 4 1
-15 16 -42 33 -58 45 -73 45 -57 0 7 -4 14 -9 17 -9 6 -22 46 -15 46 3 0 9
-12 14 -26 6 -14 15 -22 21 -18 8 4 8 0 0 -15 -10 -18 -8 -27 9 -51 12 -17 26
-27 32 -24 7 5 8 2 3 -5 -8 -14 43 -74 56 -65 4 2 11 -1 15 -7 5 -8 3 -9 -7
-4 -8 5 -6 -1 5 -13 10 -12 23 -19 29 -15 5 3 7 1 4 -5 -4 -5 16 -29 44 -51
54 -43 64 -47 74 -31 3 6 11 10 18 10 6 0 3 -6 -7 -13 -15 -11 -16 -15 -4 -24
29 -25 196 -101 244 -112 49 -12 152 -9 174 4 26 16 223 38 214 24 -2 -4 8
-10 24 -14 15 -5 34 -10 42 -12 58 -16 123 -14 190 6 39 12 68 26 65 31 -3 5
0 7 8 5 17 -7 109 44 102 56 -4 5 1 6 9 3 31 -12 265 193 250 219 -4 6 -4 9 1
5 4 -4 14 -3 22 3 11 10 11 15 1 27 -11 13 -11 14 0 8 15 -9 54 33 47 52 -3 7
-1 11 4 8 11 -7 65 105 93 194 19 63 23 98 23 213 0 81 -4 141 -10 145 -21 15
-21 112 1 153 14 27 13 29 -5 29 -23 0 -50 -48 -57 -102 -4 -32 -2 -38 13 -38
14 0 15 -2 4 -9 -10 -7 -11 -16 -2 -42 14 -47 15 -221 0 -294 -6 -33 -13 -67
-14 -77 0 -9 -6 -22 -12 -30 -5 -7 -22 -40 -37 -73 -15 -32 -38 -74 -52 -93
-22 -28 -24 -35 -12 -50 11 -15 11 -16 -3 -5 -14 11 -22 5 -60 -40 -24 -28
-47 -54 -51 -55 -5 -2 -14 -9 -21 -16 -6 -6 -32 -27 -57 -45 -51 -39 -72 -58
-51 -46 9 5 12 4 7 -3 -4 -6 -12 -9 -19 -6 -8 3 -26 -7 -41 -21 -30 -27 -41
-32 -31 -12 4 6 0 4 -8 -5 -8 -10 -16 -15 -20 -12 -3 3 -13 1 -24 -5 -43 -24
-90 -41 -118 -43 -16 -1 -36 -6 -43 -11 -8 -6 -12 -5 -12 2 0 7 -4 10 -9 7 -4
-3 -23 -1 -42 4 -21 6 -35 6 -37 1 -2 -6 -12 -1 -24 11 -11 11 -28 18 -39 15
-10 -3 -22 -1 -25 5 -8 13 -135 3 -144 -12 -4 -6 -10 -11 -14 -10 -3 1 -28 -3
-55 -9 -112 -24 -262 30 -426 154 -65 49 -86 60 -97 51 -11 -9 -11 -8 0 4 10
11 6 20 -20 47 -26 27 -34 31 -47 20 -14 -11 -14 -10 -2 6 12 15 10 22 -16 55
-16 20 -40 57 -54 82 -13 25 -26 47 -29 50 -3 3 -7 14 -8 25 -2 11 -7 22 -11
25 -8 6 -40 131 -47 185 -9 73 -3 167 16 226 12 41 14 59 6 63 -8 3 -8 5 0 5
15 1 2 62 -20 96 -15 23 -46 35 -46 18z"/>
<path d="M3198 2355 c-29 -34 -30 -44 -18 -160 13 -126 18 -328 8 -312 -5 7
-8 1 -8 -15 0 -31 -37 -173 -52 -202 -7 -13 -7 -16 1 -12 6 4 11 0 11 -9 0 -9
-4 -14 -9 -10 -10 6 -41 -32 -41 -50 0 -5 5 -3 11 5 9 12 10 12 5 -3 -3 -10
-6 -21 -6 -23 0 -3 -4 -3 -8 0 -5 3 -19 -14 -32 -37 -13 -23 -37 -62 -53 -86
-17 -24 -25 -41 -19 -37 6 3 14 1 18 -5 4 -8 3 -9 -4 -5 -15 9 -55 -32 -48
-50 3 -8 2 -12 -3 -9 -10 6 -197 -173 -194 -185 1 -4 -5 -7 -15 -6 -9 0 -16
-5 -14 -12 1 -8 -2 -11 -7 -8 -5 3 -25 -6 -46 -19 -40 -28 -135 -79 -148 -80
-4 0 -11 -5 -15 -11 -4 -6 -14 -11 -22 -12 -8 -1 -55 -13 -105 -27 -114 -33
-236 -39 -309 -13 -53 18 -106 23 -106 11 0 -5 -20 -9 -45 -10 -24 -1 -62 -11
-84 -22 -23 -10 -39 -16 -36 -11 5 8 -19 14 -110 26 -27 3 -79 15 -115 27 -36
11 -71 20 -77 20 -7 0 -13 4 -13 8 0 4 -12 10 -26 13 -46 12 -176 93 -253 158
-101 85 -195 195 -260 306 -30 50 -58 89 -64 85 -6 -3 -7 -1 -3 5 4 7 -9 54
-29 106 -19 52 -37 103 -38 113 -2 10 -7 26 -12 36 -10 25 -12 268 -1 357 5
41 9 84 11 95 2 22 -24 85 -36 85 -15 0 -19 -19 -8 -43 8 -19 7 -55 -6 -153
-19 -146 -14 -243 16 -368 10 -43 19 -81 19 -83 0 -2 5 -1 12 3 7 4 8 3 4 -5
-10 -15 13 -83 25 -76 5 4 6 0 3 -8 -6 -18 35 -109 46 -102 4 3 11 -2 14 -11
4 -9 2 -13 -5 -8 -7 4 -7 -1 1 -15 10 -19 14 -20 28 -9 15 12 16 11 4 -4 -15
-19 -16 -18 51 -111 27 -38 53 -64 59 -61 7 4 8 2 4 -5 -14 -22 244 -251 282
-251 6 0 12 -4 14 -9 7 -19 149 -82 170 -75 13 4 18 2 14 -4 -7 -12 67 -35
168 -53 78 -13 189 -7 211 11 16 13 138 9 185 -5 67 -22 257 -7 335 26 17 7
33 12 38 11 4 -1 7 2 7 8 0 5 6 7 14 4 7 -3 20 1 27 8 8 7 23 15 34 16 11 2
33 11 49 19 23 12 26 17 15 25 -10 7 -9 8 7 4 30 -9 150 78 254 183 95 96 126
132 122 144 -1 4 2 7 7 7 22 0 163 253 154 278 -3 6 0 12 5 12 5 0 13 10 16
23 3 12 12 44 21 70 8 26 10 45 5 42 -6 -4 -10 -2 -10 4 0 5 5 11 10 13 25 8
41 242 18 251 -10 4 -10 6 0 6 6 1 12 13 12 27 0 14 -3 23 -7 21 -5 -3 -9 44
-11 103 -2 70 0 110 7 115 6 3 9 10 6 14 -2 5 7 6 21 3 33 -6 57 -55 57 -112
-1 -38 1 -41 8 -21 13 34 1 87 -28 122 -30 36 -56 37 -85 4z"/>
<path d="M2081 1818 c-1 -17 -21 -27 -21 -10 0 4 -38 7 -83 8 l-84 0 -15 -43
-16 -43 134 1 134 1 -18 31 c-9 18 -20 41 -23 52 -6 17 -7 17 -8 3z"/>
<path d="M208 1490 c2 -17 9 -27 15 -23 5 3 7 1 4 -4 -4 -6 0 -27 8 -47 8 -19
15 -38 15 -40 0 -10 -76 -42 -88 -38 -9 3 -8 11 3 31 11 22 11 31 2 41 -9 10
-9 11 1 6 6 -4 12 -2 12 3 0 17 -75 62 -106 64 -24 2 -32 -4 -46 -33 l-18 -34
28 -12 c35 -15 37 -12 17 23 -11 18 -12 22 -2 10 13 -15 15 -16 21 -2 3 8 0
15 -6 15 -6 0 -9 2 -6 5 3 3 18 0 34 -6 16 -7 32 -12 35 -11 15 3 -1 -45 -33
-92 l-35 -54 29 -14 c28 -13 35 -11 111 25 45 21 90 46 99 54 9 8 21 12 26 9
13 -8 42 3 42 16 0 6 -7 7 -16 4 -8 -3 -13 -2 -10 3 3 5 -3 11 -14 14 -11 3
-18 0 -17 -5 1 -6 -3 -12 -8 -14 -6 -3 -17 12 -24 31 -7 19 -15 33 -19 31 -4
-2 -8 8 -9 22 -1 23 -25 52 -43 52 -4 0 -5 -13 -2 -30z"/>
<path d="M3662 1337 c-6 -6 -14 -25 -17 -40 -4 -15 -11 -30 -16 -33 -5 -3 -9
-13 -9 -24 0 -10 -7 -20 -15 -24 -8 -3 -15 -10 -15 -16 0 -6 5 -8 12 -4 6 4 8
3 5 -4 -9 -13 2 -42 15 -42 5 0 7 3 5 8 -8 12 131 -2 144 -15 15 -15 3 -33
-22 -33 -20 0 -24 -16 -10 -39 11 -17 59 -7 67 13 3 8 -4 33 -16 56 -16 32
-26 41 -41 37 -10 -3 -17 -1 -14 3 3 5 -11 12 -32 16 -53 9 -55 11 -37 47 30
59 29 59 115 15 44 -22 82 -38 85 -36 2 3 0 16 -5 30 -11 30 -61 53 -98 44
-21 -5 -24 -4 -13 4 13 9 13 11 0 19 -8 5 -18 7 -22 5 -4 -3 -8 0 -8 6 0 7 -7
9 -16 6 -8 -3 -12 -2 -9 4 9 15 -21 12 -33 -3z"/>
<path d="M3480 1104 c0 -22 3 -24 14 -15 30 25 22 -14 -11 -57 -18 -24 -31
-48 -27 -53 3 -5 0 -8 -8 -7 -7 2 -11 -4 -9 -12 2 -8 4 -21 4 -27 0 -17 3 -17
27 9 11 12 18 28 15 36 -2 7 -1 11 4 7 5 -3 21 9 35 27 19 25 28 30 37 21 6
-6 19 -9 28 -6 9 4 13 2 9 -2 -5 -5 7 -18 25 -29 l32 -21 -40 -3 c-51 -3 -84
-20 -80 -41 2 -9 4 -35 4 -58 1 -36 5 -43 33 -57 22 -12 34 -13 38 -5 4 6 11
9 16 7 5 -1 9 9 11 23 2 25 0 26 -32 19 -19 -4 -34 -5 -33 -1 1 3 -2 17 -6 30
-11 32 6 41 82 41 62 0 62 0 62 29 0 24 -7 32 -42 50 -24 12 -39 21 -33 21 5
0 -8 12 -30 27 -22 15 -41 26 -43 25 -1 -2 -9 3 -17 10 -52 47 -65 49 -65 12z"/>
<path d="M393 1086 c10 -27 -22 -56 -61 -56 -56 0 -64 -9 -60 -71 2 -38 7 -53
16 -51 8 1 11 -2 8 -7 -8 -13 5 -20 42 -23 22 -2 28 -6 24 -18 -3 -8 -10 -18
-16 -22 -7 -6 -6 -11 4 -18 19 -12 40 -13 40 -1 0 5 7 17 16 25 10 11 11 16 3
16 -7 0 -10 3 -7 6 4 3 17 0 30 -7 12 -6 20 -8 16 -4 -5 5 2 13 15 20 12 6 21
17 19 24 -1 7 2 10 8 6 5 -3 21 5 36 18 l26 24 -25 5 c-18 3 -34 -3 -54 -20
-15 -13 -27 -27 -26 -31 3 -12 -40 -12 -84 0 -34 9 -42 16 -45 40 -6 39 4 51
42 54 18 2 36 9 41 16 5 8 9 11 9 7 0 -23 40 31 40 54 0 25 -4 28 -31 28 -22
0 -30 -4 -26 -14z"/>
<path d="M1960 922 c-8 -2 -30 -10 -48 -18 -28 -13 -31 -18 -26 -42 4 -15 11
-30 16 -33 18 -12 169 -10 184 2 22 18 18 66 -8 80 -23 12 -92 19 -118 11z"/>
<path d="M3360 857 c0 -16 18 -43 50 -77 39 -41 50 -60 50 -85 0 -29 -5 -35
-40 -49 -62 -25 -70 -22 -70 24 0 33 -3 38 -17 33 -10 -3 -27 -13 -38 -22 -18
-15 -19 -15 -6 2 15 19 16 19 -19 34 l-25 12 28 0 c23 1 27 5 27 32 0 29 -2
31 -27 24 -34 -8 -31 -3 -33 -50 -4 -55 -2 -67 10 -60 6 3 10 2 10 -4 0 -5 12
-11 28 -13 23 -3 27 -7 24 -31 -4 -34 13 -42 74 -32 65 9 89 37 99 110 7 57 6
59 -26 89 -20 19 -34 26 -37 18 -2 -7 -8 -12 -14 -12 -7 0 -6 5 1 14 9 11 8
18 -4 30 -9 9 -21 13 -27 10 -6 -4 -8 -2 -4 4 3 6 2 13 -4 17 -6 3 -10 -4 -10
-18z"/>
<path d="M564 838 c-1 -25 -13 -42 -60 -84 l-59 -52 38 1 c27 1 36 5 32 15 -3
7 0 10 6 7 5 -4 30 14 55 40 l44 47 34 -28 c19 -16 35 -32 35 -36 1 -4 -28
-40 -63 -80 -63 -71 -64 -73 -38 -76 20 -3 34 6 63 39 21 24 35 47 33 51 -3 5
-1 7 4 6 6 -2 21 10 35 26 l26 30 -64 65 c-60 61 -66 65 -86 53 -11 -8 -18 -9
-14 -3 3 6 0 11 -7 11 -8 0 -13 -13 -14 -32z"/>
<path d="M1880 665 c-10 -12 -10 -22 -2 -39 10 -22 15 -23 111 -24 91 0 102 2
116 20 9 15 11 27 5 38 -13 25 -210 29 -230 5z"/>
<path d="M810 644 c0 -2 8 -13 17 -24 14 -16 20 -17 32 -7 14 10 14 10 3 -5
-8 -9 -10 -23 -6 -29 4 -7 3 -9 -4 -5 -5 3 -13 0 -16 -6 -3 -7 -3 -3 0 10 8
35 -4 26 -22 -16 -9 -20 -28 -45 -41 -56 -24 -18 -24 -18 -30 3 -3 11 -8 19
-12 17 -3 -2 -5 17 -3 42 l3 47 -21 -30 c-22 -31 -22 -63 -1 -117 8 -23 17
-28 43 -28 35 0 65 30 52 52 -4 6 -3 8 3 5 12 -8 83 92 83 116 0 21 -21 35
-52 35 -16 0 -28 -2 -28 -4z"/>
<path d="M2903 506 c4 -9 0 -12 -11 -10 -28 7 -39 -9 -46 -68 -5 -44 -3 -58 6
-58 9 0 8 -4 -2 -11 -13 -9 -13 -12 3 -22 53 -34 52 -34 37 -53 -9 -11 -10
-15 -2 -10 6 4 12 2 12 -3 0 -16 -5 -14 -52 18 -24 16 -46 27 -50 25 -5 -3 -8
-1 -8 5 0 5 4 11 9 13 5 2 12 21 15 44 6 36 4 43 -18 57 -24 16 -26 16 -36 -4
-9 -15 -15 -18 -25 -9 -16 13 -21 6 -30 -41 -5 -26 -2 -39 10 -49 12 -10 19
-10 28 -1 9 9 9 14 -2 21 -8 4 -16 16 -17 25 -2 13 3 16 21 13 16 -3 26 1 31
11 14 33 20 -33 7 -73 -12 -34 -12 -40 4 -52 10 -7 24 -11 31 -9 7 3 11 1 8
-3 -3 -5 10 -16 29 -25 33 -16 35 -15 44 2 6 10 12 30 15 44 2 15 8 32 12 38
4 7 -9 25 -32 45 -21 18 -34 33 -27 34 7 0 10 6 7 13 -4 12 21 57 28 47 2 -3
13 -27 26 -53 14 -30 26 -45 34 -41 7 4 8 3 4 -4 -4 -6 1 -28 10 -49 l16 -38
9 31 c7 25 3 41 -24 92 -28 51 -36 60 -47 49 -12 -10 -12 -9 -2 4 9 12 9 22
-1 42 -12 27 -34 39 -24 13z"/>
<path d="M1105 460 c-20 -3 -26 -8 -17 -13 6 -5 16 -6 21 -3 4 3 7 -7 5 -22
-1 -14 2 -32 7 -38 6 -7 4 -16 -6 -24 -9 -7 -15 -8 -15 -2 0 6 6 13 13 15 6 3
7 6 2 6 -6 1 -22 -10 -36 -22 -13 -13 -30 -26 -36 -28 -9 -3 -6 -17 7 -47 28
-62 62 -91 72 -61 2 6 14 8 32 3 21 -5 26 -11 23 -25 -4 -13 0 -19 13 -19 22
0 44 25 37 44 -3 8 2 16 13 19 11 3 21 18 25 38 4 19 12 37 16 40 9 5 31 69
24 69 -28 0 -53 -25 -70 -70 -21 -55 -31 -63 -82 -74 -30 -7 -33 -5 -52 32
l-20 39 39 32 c32 26 40 38 40 65 0 41 -16 54 -55 46z"/>
<path d="M1378 346 c-17 -12 -17 -14 1 -30 10 -10 21 -14 23 -9 3 4 3 2 1 -5
-2 -8 3 -28 11 -45 14 -30 20 -62 17 -98 -2 -24 -31 -19 -43 7 -9 19 -13 21
-29 11 -25 -15 -24 -29 4 -55 l22 -21 39 27 c37 26 67 72 46 72 -6 0 -10 -5
-10 -12 0 -6 -3 -8 -6 -5 -4 4 -1 13 5 21 8 9 10 28 5 50 -5 28 -3 36 8 36 8
0 23 10 34 21 14 16 15 21 4 17 -8 -3 -33 3 -55 13 -48 22 -55 22 -77 5z"/>
<path d="M1897 340 c-8 -12 -12 -30 -9 -42 2 -11 -1 -24 -8 -28 -11 -7 -11
-13 2 -32 10 -15 12 -30 7 -43 -4 -11 -8 -44 -8 -72 -1 -45 -4 -53 -20 -53
-11 0 -29 12 -40 26 l-21 26 21 30 c26 35 19 90 -13 112 -19 14 -24 13 -54
-11 -35 -26 -40 -38 -25 -62 7 -10 13 -11 30 -2 18 10 19 15 10 32 -9 18 -8
20 8 17 10 -2 19 -14 22 -28 1 -14 8 -28 15 -32 8 -6 8 -8 -1 -8 -18 0 -53
-32 -47 -42 3 -4 -3 -5 -13 -1 -17 7 -17 5 1 -22 23 -36 75 -85 91 -85 6 0 26
13 45 30 32 28 33 33 37 114 2 50 -1 87 -7 91 -5 3 -10 1 -10 -6 0 -7 -3 -10
-6 -6 -4 3 3 21 15 40 22 36 26 48 14 46 -19 -3 -27 2 -14 10 8 5 9 11 3 15
-6 3 -17 -3 -25 -14z"/>
<path d="M2601 342 c-11 -21 -4 -62 11 -62 6 0 8 -6 5 -14 -3 -7 -1 -18 5 -24
7 -7 5 -17 -6 -33 -23 -34 -19 -48 5 -19 l21 25 -14 -24 c-10 -17 -26 -26 -49
-29 -19 -2 -41 -9 -49 -15 -13 -11 -13 -10 -1 6 13 16 13 20 1 27 -8 5 -17 7
-21 4 -4 -2 1 13 11 33 26 55 34 87 21 79 -7 -5 -9 -1 -5 8 3 9 1 16 -6 16 -6
0 -8 5 -5 10 3 6 -4 10 -17 10 -38 0 -68 -12 -61 -23 3 -6 1 -7 -6 -3 -6 4
-34 2 -62 -5 -59 -15 -83 -44 -54 -65 10 -7 22 -15 27 -16 4 -2 13 -30 18 -63
9 -55 34 -95 60 -95 14 0 17 36 4 48 -14 13 -38 90 -32 105 2 5 -5 13 -14 18
-15 8 -15 13 -5 23 6 8 15 12 18 10 12 -7 69 8 64 16 -3 5 7 5 22 1 29 -8 43
-39 23 -51 -6 -4 -12 -13 -14 -21 -1 -8 -7 -23 -13 -33 -9 -16 -7 -23 12 -38
12 -10 35 -22 50 -28 24 -9 32 -7 52 12 23 21 58 35 48 18 -3 -5 -1 -11 4 -14
5 -4 12 2 15 11 8 25 4 39 -11 35 -9 -2 -9 5 -3 28 6 22 3 46 -12 90 -11 33
-22 60 -24 60 -2 0 -8 -8 -13 -18z"/>
<path d="M2019 244 c-16 -18 -19 -25 -9 -24 25 4 54 0 48 -6 -4 -3 -3 -18 2
-32 4 -17 3 -32 -4 -39 -37 -40 -40 -49 -13 -44 5 1 6 -3 3 -8 -7 -10 45 -53
77 -64 13 -5 34 8 75 48 31 30 52 55 45 55 -7 0 -17 -8 -22 -17 -6 -10 -11
-13 -11 -7 0 6 7 17 15 24 16 13 19 56 9 109 -6 31 -7 31 -26 14 -17 -15 -19
-26 -13 -75 5 -45 3 -63 -11 -86 -15 -27 -20 -29 -43 -19 -14 6 -36 19 -48 30
-21 18 -21 21 -5 53 18 40 9 78 -24 100 -18 13 -23 11 -45 -12z"/>
</g>
</svg>
