<?xml version="1.0" standalone="no"?>
<!DOCTYPE svg PUBLIC "-//W3C//DTD SVG 20010904//EN"
 "http://www.w3.org/TR/2001/REC-SVG-20010904/DTD/svg10.dtd">
<svg version="1.0" xmlns="http://www.w3.org/2000/svg"
 width="300.000000pt" height="300.000000pt" viewBox="0 0 300.000000 300.000000"
 preserveAspectRatio="xMidYMid meet">
<metadata>
Created by potrace 1.16, written by Peter Selinger 2001-2019
</metadata>
<g transform="translate(0.000000,300.000000) scale(0.100000,-0.100000)"
fill="#ffffff" stroke="none">
<path d="M1169 2440 c-45 -13 -133 -61 -159 -85 -14 -13 -45 -35 -70 -48 -25
-13 -58 -42 -75 -65 -16 -22 -35 -41 -42 -41 -16 -1 -82 -79 -102 -121 -9 -19
-22 -39 -29 -44 -18 -11 -42 -69 -42 -101 0 -15 -4 -24 -9 -21 -13 8 -21 -19
-21 -72 0 -53 -4 -60 -42 -85 -15 -9 -34 -30 -42 -46 -19 -35 -30 -245 -15
-273 9 -16 7 -20 -10 -25 -12 -3 -21 -9 -21 -14 0 -11 46 -23 59 -14 8 4 8 -2
1 -20 -15 -39 -12 -106 6 -140 9 -16 17 -44 19 -61 4 -46 32 -99 80 -152 23
-26 46 -58 50 -72 8 -27 188 -210 206 -210 5 0 21 -13 35 -29 13 -16 46 -37
72 -47 26 -9 66 -26 90 -37 62 -28 245 -41 287 -20 55 28 57 33 26 59 -17 14
-36 22 -45 18 -20 -8 -66 21 -66 41 0 21 -28 19 -32 -2 -5 -27 -74 40 -93 91
-20 52 -17 123 5 118 35 -9 81 -5 104 7 49 27 72 130 44 198 -6 15 -10 53 -9
85 4 96 -55 202 -135 240 -47 24 -72 17 -38 -11 30 -24 44 -54 44 -93 l0 -33
-20 43 c-10 23 -23 42 -29 42 -5 0 -15 16 -21 36 -24 71 -113 143 -179 144
-22 0 -23 3 -19 52 5 43 11 57 37 78 35 30 37 35 15 44 -38 15 -108 -49 -134
-121 -9 -26 -22 -49 -29 -51 -36 -8 -56 53 -26 78 16 13 12 25 -8 25 -14 1
-11 43 4 61 7 9 18 10 33 4 40 -15 99 20 125 74 13 25 21 56 20 68 -2 13 5 38
15 57 15 28 17 47 12 105 -11 115 -10 119 19 184 29 65 104 145 163 176 18 9
30 21 27 26 -4 6 -7 10 -8 9 -1 0 -14 -4 -28 -9z m-354 -1000 c3 -5 14 -10 24
-10 27 0 64 -46 66 -82 3 -43 25 -88 42 -88 7 0 13 5 13 11 0 5 5 7 10 4 17
-10 12 -55 -6 -55 -14 0 -14 2 -3 16 12 14 11 16 -5 13 -16 -3 -20 -14 -21
-54 -2 -45 -30 -123 -41 -112 -2 2 2 17 11 33 19 38 19 127 0 165 -9 16 -13
33 -10 38 5 9 -25 32 -59 44 -14 6 -17 4 -12 -9 5 -13 2 -15 -11 -9 -10 5 -32
10 -49 12 -25 4 -35 -1 -53 -23 -13 -17 -20 -36 -17 -48 4 -17 3 -18 -10 -4
-8 8 -16 28 -17 44 -2 23 2 28 15 26 14 -2 17 3 12 26 -5 24 -1 33 21 51 29
22 89 29 100 11z m-164 -57 c0 -5 1 -27 3 -51 3 -52 28 -80 79 -89 39 -6 50
10 25 35 -9 9 -7 12 10 12 21 0 42 -26 42 -54 0 -25 -30 -46 -66 -46 -92 0
-153 84 -128 178 6 20 33 32 35 15z m361 -197 c16 -22 16 -27 3 -53 -8 -15
-15 -47 -15 -70 0 -25 -5 -43 -11 -43 -8 0 -9 -19 -5 -62 3 -35 6 -73 6 -84 0
-12 11 -37 24 -56 22 -33 42 -88 31 -88 -11 0 -55 80 -71 129 -16 50 -27 61
-39 41 -10 -16 -68 -12 -93 6 -18 12 -22 24 -20 51 4 45 26 61 65 47 22 -7 28
-16 28 -39 0 -22 -5 -30 -17 -30 -10 0 -17 5 -16 10 2 6 6 9 10 8 15 -5 8 25
-7 31 -20 7 -56 -29 -49 -49 15 -39 86 -47 108 -12 28 43 30 76 7 108 l-22 30
20 32 c11 18 23 52 27 75 8 48 12 51 36 18z"/>
<path d="M1780 2438 c0 -7 14 -19 31 -27 17 -7 57 -39 88 -70 46 -45 63 -71
84 -130 20 -54 25 -77 17 -86 -18 -22 -15 -151 4 -180 9 -13 16 -41 16 -62 0
-76 68 -141 137 -130 26 5 35 2 43 -13 13 -24 13 -63 1 -55 -17 10 -23 -15 -7
-31 19 -19 20 -35 4 -57 -17 -22 -58 -12 -58 15 0 25 -33 88 -56 110 -24 21
-64 35 -86 30 -26 -5 -22 -20 12 -37 20 -10 32 -27 39 -53 18 -63 15 -82 -14
-82 -43 0 -88 -25 -133 -74 -23 -25 -45 -59 -48 -75 -4 -17 -13 -32 -21 -35
-7 -3 -20 -20 -28 -38 l-14 -33 -1 38 c0 31 6 45 30 67 60 56 -10 46 -74 -11
-63 -55 -103 -156 -88 -225 6 -29 3 -46 -11 -74 -21 -40 -17 -119 9 -158 23
-36 79 -56 117 -42 23 8 33 7 39 -2 23 -38 -4 -129 -55 -182 -34 -36 -40 -39
-48 -23 -12 21 -29 22 -29 2 0 -20 -46 -49 -66 -41 -11 4 -22 -1 -31 -14 -8
-11 -21 -20 -30 -20 -22 0 0 -25 38 -44 46 -23 270 0 312 32 7 5 31 14 53 20
23 7 59 28 80 47 22 19 54 45 73 57 19 13 39 32 45 43 6 11 20 26 31 34 44 32
84 79 91 105 4 16 26 48 49 72 49 50 85 117 85 158 0 14 8 38 17 52 17 27 23
100 11 144 -7 23 -4 26 19 25 14 0 28 6 30 13 3 6 -2 12 -11 12 -19 0 -20 13
-5 41 7 15 7 24 -1 33 -7 10 -7 22 0 42 6 15 8 35 5 43 -4 9 -8 41 -9 72 -3
64 -24 105 -61 119 -25 10 -29 21 -40 103 -3 26 -9 47 -13 47 -4 0 -13 24 -20
53 -6 28 -20 59 -30 67 -9 8 -29 35 -44 60 -28 47 -210 230 -229 230 -6 0 -30
16 -53 35 -39 32 -121 74 -173 90 -16 4 -23 2 -23 -7z m495 -1013 c28 -27 31
-44 13 -64 -11 -11 -9 -13 10 -8 19 4 22 1 22 -22 0 -15 -7 -36 -15 -47 -14
-18 -14 -18 -15 6 0 58 -57 88 -111 60 -15 -9 -19 -7 -19 6 0 14 -5 13 -36 -5
-43 -25 -44 -26 -44 -3 2 79 139 134 195 77z m98 -71 c9 -54 -2 -89 -38 -124
-25 -24 -45 -34 -79 -37 -54 -6 -76 7 -76 46 0 32 17 51 45 51 19 -1 19 -1 1
-15 -37 -28 11 -48 57 -23 34 18 46 40 47 84 0 22 3 44 7 47 16 16 31 4 36
-29z m-338 -247 c23 -48 23 -49 4 -68 -42 -42 -8 -139 48 -139 31 0 63 26 63
51 0 24 -30 40 -53 28 -21 -12 -23 -33 -2 -25 9 3 15 0 15 -10 0 -25 -35 -12
-38 14 -7 47 43 69 80 35 22 -19 23 -52 4 -78 -15 -20 -85 -27 -117 -12 -12 6
-18 -3 -28 -41 -6 -27 -28 -72 -47 -100 -19 -29 -31 -52 -27 -52 11 0 -20 -20
-31 -20 -5 0 0 10 12 23 12 12 23 32 25 43 1 11 13 34 25 51 13 18 25 47 27
65 16 118 17 148 6 148 -6 0 -11 17 -11 38 0 21 -8 54 -18 74 -18 34 -18 36 0
47 10 6 18 19 19 29 1 9 5 1 11 -18 5 -19 20 -57 33 -83z"/>
<path d="M322 1624 c-6 -11 -11 -13 -16 -5 -10 16 -81 14 -96 -4 -6 -8 -9 -23
-5 -35 8 -25 50 -27 64 -3 5 10 13 14 17 10 12 -11 -28 -36 -58 -37 -23 0 -28
-4 -28 -25 0 -24 3 -25 56 -25 40 0 54 -3 51 -12 -2 -7 2 -21 11 -30 26 -31 8
-48 -52 -48 -57 0 -70 -7 -60 -33 4 -12 17 -14 61 -10 53 6 55 5 43 -14 -7
-11 -31 -24 -54 -29 -50 -11 -54 -33 -9 -54 32 -15 32 -16 10 -25 -32 -15 -34
-52 -3 -66 20 -10 30 -9 51 5 14 9 25 20 25 25 0 5 14 11 30 15 22 4 30 11 30
27 0 19 -4 21 -37 16 -22 -4 -42 -2 -51 5 -11 10 -7 14 25 23 31 8 39 16 41
38 3 21 -2 29 -19 35 -19 7 -20 10 -6 15 23 8 23 74 0 99 -9 10 -11 18 -5 18
6 0 14 -5 17 -10 4 -6 11 -8 16 -4 5 3 7 8 5 12 -2 4 10 7 27 7 29 0 32 3 32
30 0 25 -4 30 -28 33 -21 3 -29 -2 -36 -20 -8 -19 -10 -16 -10 23 -1 52 -23
82 -39 53z"/>
<path d="M2649 1609 c-24 -24 -20 -75 8 -96 16 -12 16 -13 0 -13 -11 0 -17 -8
-17 -25 0 -18 5 -25 20 -25 29 0 27 -38 -2 -42 -32 -4 -33 -62 -2 -66 11 -2
26 3 32 11 12 15 72 11 72 -4 0 -5 6 -9 14 -9 10 0 15 17 18 58 5 64 -4 92
-30 92 -9 0 -23 9 -30 21 -7 11 -18 19 -25 16 -15 -5 -37 17 -37 37 0 11 16
17 60 22 50 5 60 10 60 25 0 16 -8 19 -60 19 -48 0 -64 -4 -81 -21z"/>
<path d="M2626 1309 c-9 -13 -16 -37 -16 -54 0 -36 23 -74 34 -56 5 7 13 8 24
2 9 -4 34 -11 55 -15 35 -7 37 -5 37 19 0 19 -5 25 -22 25 -13 0 -36 7 -52 15
-15 8 -32 12 -37 9 -11 -7 -11 7 0 25 7 11 17 12 54 2 63 -15 77 -14 77 8 0
23 -15 29 -84 37 -48 6 -55 4 -70 -17z"/>
<path d="M2490 1195 c-6 -8 -8 -20 -4 -27 5 -7 7 -25 5 -40 -1 -17 5 -34 19
-48 25 -25 40 -18 40 18 1 15 8 38 16 52 l15 25 -6 -30 c-3 -16 -8 -37 -11
-47 -9 -30 36 -66 92 -71 46 -5 53 -3 57 14 4 13 -2 23 -16 32 -12 6 -23 20
-23 30 -2 15 4 16 32 11 29 -5 34 -3 34 13 0 16 -13 24 -61 38 -34 10 -63 25
-66 32 -7 17 -30 17 -36 1 -3 -10 -9 -10 -26 0 -27 16 -46 15 -61 -3z"/>
<path d="M358 1190 c-2 -7 -26 -19 -53 -29 -57 -18 -70 -48 -20 -44 17 2 44 3
60 4 17 1 34 7 38 13 4 6 7 1 5 -13 -2 -19 -15 -28 -56 -44 -37 -14 -52 -25
-50 -36 4 -17 18 -19 57 -6 l24 7 -23 -37 c-19 -30 -21 -41 -11 -61 13 -29 39
-31 90 -4 35 18 39 18 34 2 -2 -11 4 -21 18 -27 37 -16 32 -29 -21 -60 -27
-16 -50 -35 -50 -42 0 -24 22 -24 65 2 l45 26 0 -23 c0 -14 -11 -30 -30 -43
-41 -27 -35 -49 14 -53 36 -3 37 -4 21 -22 -13 -15 -14 -23 -5 -39 6 -12 19
-21 29 -21 20 0 51 30 51 50 0 8 11 26 25 40 23 24 24 28 10 40 -13 11 -19 10
-33 -4 -10 -9 -29 -16 -42 -16 l-24 0 28 29 c34 35 31 65 -5 69 -22 3 -25 7
-21 28 5 28 -22 74 -43 74 -11 0 -13 8 -9 28 11 54 -46 70 -65 19 -9 -23 -38
-43 -48 -33 -3 2 5 14 16 25 26 26 26 37 4 50 -15 9 -16 10 -2 11 9 0 24 9 34
21 18 18 18 23 5 61 -16 43 -55 79 -62 58z"/>
<path d="M2536 1034 c-9 -23 -10 -22 41 -47 45 -23 45 -24 20 -31 -14 -3 -37
-1 -51 5 -31 15 -59 -3 -54 -35 2 -16 10 -21 30 -21 20 1 28 -5 33 -22 6 -27
49 -41 70 -23 18 15 19 42 3 58 -9 9 -8 12 8 12 23 0 44 18 44 37 0 7 -31 28
-69 48 -58 29 -70 32 -75 19z"/>
<path d="M2445 866 c-29 -29 -42 -73 -28 -95 5 -9 31 -26 57 -39 38 -19 51
-21 62 -11 8 7 12 19 8 28 -3 9 -10 29 -15 44 l-8 29 25 -17 c26 -17 54 -14
54 4 0 13 -100 81 -118 81 -7 0 -24 -11 -37 -24z"/>
<path d="M2341 735 c-16 -14 -32 -34 -36 -44 -3 -9 -23 -27 -44 -39 -40 -23
-51 -39 -51 -73 0 -23 13 -24 45 -3 29 19 45 11 45 -20 0 -21 17 -46 31 -46
12 0 39 30 39 43 0 22 -61 79 -78 72 -12 -4 -12 -3 -3 9 14 17 51 28 51 15 0
-16 52 -59 71 -59 20 0 69 58 69 82 0 19 -74 88 -94 88 -8 0 -28 -11 -45 -25z"/>
<path d="M624 696 c-28 -20 -61 -93 -47 -107 8 -8 17 -8 30 0 11 5 30 7 42 4
l22 -6 -22 -23 c-21 -23 -19 -44 5 -44 19 0 86 85 86 109 0 27 -39 69 -70 76
-15 3 -34 0 -46 -9z"/>
<path d="M745 600 c-3 -5 -4 -14 -1 -19 3 -5 -1 -15 -10 -22 -8 -7 -22 -25
-30 -40 -12 -24 -12 -30 2 -43 26 -27 58 -12 52 25 -2 16 4 27 18 34 12 6 19
17 16 25 -5 13 -3 13 11 1 18 -14 18 -15 -24 -77 -25 -37 -27 -43 -13 -55 12
-10 20 -10 34 -1 16 10 18 9 14 -3 -10 -25 16 -47 48 -41 20 4 28 2 28 -9 0
-37 92 -49 111 -14 10 20 9 21 -23 14 -18 -4 -30 -4 -26 0 15 15 -13 47 -37
43 -16 -3 -22 -1 -18 8 2 6 -1 15 -6 19 -8 4 -4 17 10 37 19 26 20 31 7 45
-14 13 -19 11 -43 -21 -33 -43 -41 -42 -19 2 19 40 6 68 -41 88 -41 17 -52 17
-60 4z"/>
<path d="M2153 569 c-13 -4 -31 -21 -40 -37 -10 -16 -24 -27 -31 -24 -20 6
-71 -18 -92 -45 -10 -13 -21 -20 -24 -14 -7 10 -66 -8 -90 -28 -9 -7 -16 -22
-16 -32 0 -17 5 -18 39 -13 30 5 39 3 44 -10 4 -9 2 -16 -4 -16 -6 0 -9 -12
-7 -27 4 -33 37 -43 58 -18 10 13 11 24 1 56 -7 22 -19 43 -27 46 -12 4 -12 8
-4 13 17 11 50 0 50 -15 0 -21 34 -75 47 -75 20 0 24 18 10 47 -8 15 -17 43
-20 61 -10 50 20 38 50 -20 24 -46 45 -59 58 -38 3 5 -6 32 -20 60 -20 38 -22
50 -11 50 8 0 16 10 18 22 5 36 25 32 57 -12 16 -23 31 -46 33 -51 4 -12 38
-1 38 13 0 15 -59 97 -78 107 -10 5 -27 5 -39 0z"/>
<path d="M1052 431 c-8 -4 -12 -14 -11 -22 2 -8 -5 -32 -14 -53 -10 -22 -15
-46 -13 -53 10 -25 35 -13 46 23 7 19 18 38 26 41 8 3 14 11 14 19 0 16 16 19
25 5 3 -5 -4 -33 -15 -61 -11 -28 -18 -56 -15 -61 10 -15 35 -10 42 9 3 9 12
32 19 50 l13 32 36 -17 c39 -19 45 -38 15 -46 -28 -7 -27 -53 1 -62 28 -9 48
12 56 59 4 29 2 40 -13 52 -18 14 -18 15 2 5 12 -6 24 -7 28 -4 3 3 6 -1 6
-10 0 -10 8 -17 18 -17 10 0 27 -6 37 -14 19 -14 19 -15 -5 -34 -20 -17 -23
-24 -14 -39 6 -10 22 -18 35 -18 19 0 26 7 33 38 7 27 6 44 -2 58 -10 16 -9
19 3 19 22 0 57 -37 41 -43 -42 -16 -10 -96 32 -83 12 4 22 15 22 24 0 13 4
12 20 -6 41 -44 62 -17 58 74 -2 56 -6 69 -20 72 -16 3 -18 -5 -18 -54 0 -56
0 -57 -19 -40 -11 10 -21 32 -23 50 -3 29 -6 31 -45 32 -24 1 -55 6 -70 12
-16 5 -37 6 -48 2 -11 -4 -24 -5 -30 -1 -5 4 -27 13 -48 20 -33 11 -41 10 -62
-3 -22 -15 -24 -14 -30 5 -4 11 -22 27 -41 35 -38 16 -54 17 -72 5z"/>
<path d="M1745 380 c-14 -15 -22 -17 -37 -9 -11 6 -34 8 -51 5 -46 -9 -91 -56
-53 -56 9 0 12 -7 9 -20 -3 -11 -2 -36 1 -55 5 -27 12 -35 28 -35 19 0 20 4
15 43 -4 28 -2 48 6 56 9 9 9 14 -1 20 -11 7 -10 9 2 14 19 7 36 -27 36 -71 0
-36 14 -56 34 -49 13 5 15 16 10 62 -6 46 -4 55 9 55 8 0 17 7 21 15 3 8 12
15 20 15 15 0 17 -4 36 -77 11 -44 16 -49 38 -34 11 6 11 17 1 57 -18 76 -25
84 -68 84 -25 0 -44 -7 -56 -20z"/>
</g>
</svg>
