<?xml version="1.0" standalone="no"?>
<!DOCTYPE svg PUBLIC "-//W3C//DTD SVG 20010904//EN"
 "http://www.w3.org/TR/2001/REC-SVG-20010904/DTD/svg10.dtd">
<svg version="1.0" xmlns="http://www.w3.org/2000/svg"
 width="274.000000pt" height="398.000000pt" viewBox="0 0 274.000000 398.000000"
 preserveAspectRatio="xMidYMid meet">
<metadata>
Created by potrace 1.16, written by Peter Selinger 2001-2019
</metadata>
<g transform="translate(0.000000,398.000000) scale(0.100000,-0.100000)"
fill="#ffffff" stroke="none">
<path d="M1322 3947 c-31 -32 -41 -57 -23 -57 21 0 18 -32 -7 -82 -15 -31 -66
-94 -122 -153 -250 -260 -297 -325 -308 -420 -4 -41 -7 -45 -33 -45 -53 0 -59
-23 -59 -232 0 -116 -4 -188 -10 -188 -17 0 -45 -51 -32 -59 7 -4 -6 -27 -35
-61 -56 -67 -87 -133 -79 -166 6 -23 4 -24 -40 -24 -37 0 -47 4 -51 20 -4 14
-14 20 -34 20 -46 0 -59 -30 -59 -138 0 -88 -1 -93 -20 -87 -19 6 -19 4 -6
-37 11 -39 8 -68 -10 -96 -1 -2 -12 1 -23 8 -24 12 -26 4 -11 -35 8 -22 5 -31
-27 -66 -37 -41 -38 -41 -51 -20 -21 31 -32 26 -32 -15 0 -19 -4 -33 -9 -30
-5 3 -15 -8 -22 -26 -7 -17 -32 -59 -56 -94 -75 -109 -137 -293 -153 -453 -28
-271 67 -590 219 -736 33 -31 41 -46 41 -75 0 -20 -5 -41 -11 -47 -15 -15 39
-43 84 -43 29 0 39 -6 60 -38 117 -178 464 -358 734 -382 132 -12 170 -18 205
-31 19 -8 32 -7 49 1 12 7 86 18 165 26 103 10 169 22 241 45 246 79 444 204
538 340 24 34 33 39 67 39 49 0 104 26 90 43 -6 7 -12 28 -13 48 -3 32 3 44
52 97 190 204 267 663 154 917 -12 28 -32 76 -44 107 -13 32 -37 79 -54 105
-17 26 -45 73 -61 104 -17 31 -35 57 -41 57 -5 1 -12 16 -15 34 l-5 33 -16
-22 -15 -22 -39 39 c-35 36 -37 42 -27 65 17 38 15 47 -7 35 -27 -14 -28 -14
-40 20 -7 20 -7 39 -1 56 16 42 13 56 -10 44 -19 -10 -20 -8 -20 94 0 82 -3
108 -16 120 -21 22 -57 20 -72 -4 -9 -15 -23 -20 -52 -20 -39 0 -40 1 -40 36
0 47 -21 90 -77 155 -25 29 -40 55 -34 57 15 5 -16 62 -34 62 -13 0 -15 30
-15 198 0 212 -2 222 -50 222 -24 0 -27 5 -38 59 -18 84 -70 158 -229 323
-142 146 -196 214 -215 270 -9 26 -8 33 7 45 18 12 17 15 -20 53 -22 22 -42
40 -45 40 -3 0 -20 -15 -38 -33z m59 -249 c4 -15 19 -42 34 -61 27 -37 30 -51
19 -103 -4 -20 -1 -34 9 -42 12 -10 15 -7 20 18 4 16 11 30 16 30 18 0 62 -63
59 -84 -3 -23 8 -46 23 -46 5 0 9 9 9 20 0 29 14 25 49 -15 26 -30 29 -39 21
-61 -10 -26 -6 -44 10 -44 4 0 11 12 15 28 l7 27 29 -33 c21 -23 29 -43 29
-68 0 -30 2 -34 14 -25 11 9 16 5 25 -20 16 -46 14 -74 -8 -93 -19 -18 -20
-17 -24 26 -2 29 -4 20 -5 -27 0 -51 2 -64 8 -47 12 28 40 29 40 2 0 -34 -28
-90 -44 -90 -9 0 -16 6 -16 12 0 7 -16 -11 -35 -39 -19 -28 -39 -54 -45 -58
-5 -3 -10 -11 -10 -17 0 -6 16 10 36 35 37 47 74 62 74 30 0 -9 -20 -36 -45
-60 -37 -35 -47 -53 -55 -94 -6 -28 -7 -61 -5 -73 3 -11 -3 -39 -14 -61 l-19
-39 -11 39 c-14 50 -14 126 -1 194 8 42 18 61 53 94 47 47 67 97 67 173 0 68
-27 113 -84 142 -25 13 -46 30 -46 38 0 26 -55 72 -101 84 -57 16 -171 16
-229 0 -50 -13 -95 -50 -104 -84 -4 -15 -20 -28 -45 -38 -57 -23 -81 -66 -81
-148 0 -77 23 -134 69 -172 17 -15 35 -37 40 -50 17 -45 23 -157 11 -213 -12
-58 -30 -66 -30 -12 0 22 -3 28 -9 18 -6 -8 -10 17 -13 69 -3 80 -4 83 -40
114 -54 47 -75 96 -40 96 16 0 69 -56 84 -90 5 -11 7 -11 7 -1 1 7 -13 29 -30
49 -36 41 -68 107 -69 140 0 13 -11 35 -25 50 -27 29 -31 64 -14 109 l11 28
19 -24 c10 -13 19 -18 19 -12 0 5 16 27 36 47 22 22 28 32 15 25 -11 -7 -29
-23 -38 -38 l-17 -26 -8 29 c-10 38 36 111 58 93 8 -6 14 -18 14 -26 0 -8 5
-11 11 -7 6 3 8 20 5 38 -5 27 -1 37 29 66 35 34 36 34 42 12 8 -33 28 -21 31
20 2 23 13 45 32 63 28 27 28 27 40 6 6 -12 8 -26 5 -31 -3 -6 -2 -10 4 -10
20 0 34 41 22 67 -15 33 -15 32 24 93 19 30 35 63 35 73 0 27 23 16 31 -15z
m121 -327 c28 -11 68 -56 68 -78 0 -7 20 -22 44 -33 54 -23 78 -56 84 -118 7
-75 -13 -131 -66 -181 -44 -42 -45 -46 -56 -128 -9 -79 -6 -124 19 -233 3 -14
-5 -5 -17 20 -16 33 -23 69 -26 137 -6 130 8 178 66 229 46 41 46 41 50 116 4
68 2 77 -22 105 -14 17 -39 33 -55 36 -22 5 -31 13 -36 36 -3 17 -20 42 -37
57 -28 23 -37 25 -87 20 -73 -7 -78 -7 -129 0 -25 4 -55 1 -73 -6 -29 -13 -59
-54 -59 -84 0 -9 -15 -19 -39 -26 -54 -14 -76 -50 -75 -125 0 -71 21 -118 63
-140 42 -21 56 -71 56 -195 0 -87 -4 -113 -22 -152 -27 -60 -38 -63 -16 -5 19
51 22 224 4 278 -6 20 -22 41 -34 48 -12 6 -33 28 -47 48 -22 32 -25 47 -25
119 0 78 2 85 29 113 16 16 41 33 55 36 18 4 31 17 42 44 10 24 29 46 47 55
62 32 219 36 294 7z m-79 -93 c84 -25 146 -123 133 -212 -20 -129 -170 -206
-280 -143 -65 37 -99 88 -104 155 -6 89 37 161 118 196 43 19 80 20 133 4z
m-468 -520 c9 -37 0 -61 -27 -73 -44 -19 -35 -95 14 -125 27 -16 29 -20 14
-26 -47 -18 -96 46 -96 125 0 33 4 40 21 43 49 7 49 69 0 76 -18 3 -21 10 -21
54 l0 50 44 -49 c25 -26 48 -60 51 -75z m905 68 c0 -39 -3 -45 -26 -50 -21 -6
-25 -11 -22 -39 3 -27 8 -33 32 -35 28 -4 29 -4 22 -55 -8 -74 -53 -128 -92
-113 -17 7 -17 9 7 21 54 29 63 116 14 135 -19 7 -25 17 -25 40 0 17 5 41 11
53 10 19 69 86 77 87 1 0 2 -20 2 -44z m-476 -38 c8 -29 34 -82 58 -117 73
-109 180 -164 324 -165 104 -1 129 17 149 107 l6 29 24 -36 c65 -95 74 -160
29 -195 -30 -23 -50 -27 -56 -9 -2 6 -19 11 -37 11 -47 0 -82 -38 -88 -97 l-6
-47 -28 27 c-22 21 -29 37 -29 66 0 25 5 41 15 44 13 5 21 29 13 36 -2 1 -88
4 -193 7 l-189 6 -6 25 -6 25 -7 -27 -7 -28 -186 0 c-162 0 -185 -2 -191 -16
-4 -10 1 -22 10 -29 26 -19 22 -77 -8 -105 l-25 -23 0 25 c0 35 -39 89 -76
104 -25 10 -35 10 -62 -3 -29 -14 -34 -14 -56 0 -47 31 -42 100 15 187 l33 51
12 -48 c21 -81 75 -104 199 -85 88 14 150 40 200 84 46 39 109 134 125 186 6
20 13 43 15 50 7 21 13 13 29 -40z m384 -105 c18 -34 14 -62 -13 -88 -27 -28
-81 -35 -71 -10 3 9 0 15 -10 15 -28 0 -10 -33 22 -42 17 -4 37 -14 43 -22 10
-12 5 -13 -31 -9 -65 8 -88 26 -88 71 0 21 7 47 15 58 14 19 14 19 15 -1 0
-28 19 -45 50 -45 30 0 50 17 50 42 0 17 -10 22 -37 19 -17 -2 -25 33 -17 74
l6 35 28 -38 c15 -21 32 -47 38 -59z m-738 37 c0 -35 -4 -50 -12 -49 -30 4
-39 -2 -36 -22 7 -50 80 -51 93 -2 l7 28 13 -25 c18 -31 19 -71 3 -93 -12 -16
-107 -41 -117 -31 -9 9 18 26 51 33 32 7 45 30 20 39 -7 2 -10 -2 -6 -12 5
-12 0 -16 -19 -16 -36 0 -77 36 -77 68 0 26 58 132 72 132 4 0 8 -23 8 -50z
m280 -294 c-14 -7 -61 -18 -105 -25 -48 -7 -103 -23 -137 -39 l-58 -29 0 44
c0 32 -4 43 -16 43 -8 0 -12 5 -9 10 4 6 74 10 178 10 149 -1 169 -3 147 -14z
m425 4 c3 -5 1 -10 -4 -10 -6 0 -11 -20 -11 -44 l0 -44 -58 29 c-36 18 -88 33
-136 40 -77 10 -126 24 -126 34 0 10 329 5 335 -5z m-344 -26 c17 -8 68 -21
114 -29 178 -29 276 -106 315 -247 16 -60 18 -62 61 -74 107 -31 180 -143 225
-344 14 -62 32 -126 39 -141 8 -14 12 -29 9 -32 -3 -2 -13 -51 -24 -108 -39
-221 -117 -343 -242 -381 -23 -7 -38 -17 -38 -27 0 -32 -59 -137 -96 -173 -53
-50 -149 -93 -269 -119 -124 -26 -119 -26 -237 -1 -193 42 -284 97 -337 204
-17 33 -31 72 -31 85 0 14 -6 23 -15 23 -31 0 -112 49 -149 91 -51 56 -91 147
-110 250 -9 46 -21 104 -26 128 -7 30 -7 47 0 56 6 7 19 55 31 106 36 171 66
243 126 310 37 41 86 71 134 82 22 6 27 14 33 54 18 132 137 229 317 258 50 8
101 21 113 29 26 19 22 19 57 0z m-577 -165 c34 -27 34 -74 -1 -73 -12 0 -20
-3 -17 -7 2 -4 -1 -19 -7 -33 -9 -19 -20 -26 -40 -26 -64 0 -96 115 -40 145
37 20 74 18 105 -6z m1212 -1 c24 -29 17 -103 -12 -125 -28 -21 -78 -13 -82
13 -2 12 -14 26 -28 32 -32 15 -31 47 2 77 36 33 93 34 120 3z m-1556 -93 c0
-12 -7 -30 -15 -41 -20 -27 -18 -37 5 -24 17 9 20 8 20 -12 0 -13 -7 -32 -15
-42 -19 -26 -19 -42 0 -26 12 10 15 9 15 -7 0 -10 -7 -29 -16 -41 -12 -18 -24
-22 -52 -20 -35 3 -38 0 -59 -42 -27 -54 -26 -80 4 -91 17 -6 21 -5 16 7 -3 7
-11 14 -19 14 -20 0 -17 24 6 45 25 23 31 17 37 -38 7 -59 -17 -109 -62 -130
-19 -9 -35 -21 -35 -27 0 -18 -20 -11 -21 8 0 9 -3 12 -5 6 -2 -6 2 -26 10
-45 15 -33 15 -33 16 -7 0 30 41 68 72 68 11 0 17 4 14 9 -3 5 1 22 9 37 8 16
15 40 15 53 0 18 4 22 20 18 11 -3 20 -2 20 3 0 4 -9 10 -20 13 -11 3 -20 10
-20 17 0 14 57 70 71 70 15 0 10 -67 -6 -80 -8 -7 -15 -17 -15 -22 0 -6 7 -5
15 2 22 18 27 8 14 -31 -14 -41 -37 -69 -56 -69 -12 0 -11 4 1 22 9 12 16 29
15 38 0 13 -1 13 -6 0 -3 -8 -15 -27 -25 -42 l-19 -28 23 0 c13 0 35 7 51 14
26 14 27 14 16 -7 -33 -64 -119 -116 -119 -72 0 24 -19 18 -51 -17 -30 -32
-30 -33 -45 -13 -8 11 -17 30 -21 43 -3 12 -9 22 -15 22 -13 0 -70 -30 -90
-48 -26 -23 -22 1 5 25 33 31 87 55 108 50 11 -3 19 0 19 6 0 13 40 57 52 57
5 0 8 -10 6 -22 -2 -15 -9 -22 -21 -22 -9 1 -17 -2 -17 -7 0 -11 21 -12 36 -1
12 8 34 46 34 59 0 4 -4 1 -10 -7 -8 -12 -10 -12 -16 3 -3 9 -9 15 -13 13 -4
-3 -8 7 -9 20 -1 14 -10 43 -21 66 -25 54 -15 89 44 148 25 25 45 51 45 58 0
7 5 10 11 6 7 -4 9 -21 6 -40 -4 -21 -2 -32 4 -29 15 10 10 -32 -6 -45 -11 -9
-18 -10 -29 -1 -20 17 -55 -16 -61 -59 l-6 -35 15 39 c15 39 38 63 44 46 6
-16 28 -11 47 10 14 16 16 28 10 62 -10 61 -9 88 6 131 13 33 15 35 27 20 6
-9 12 -26 12 -38z m1820 32 c0 -7 7 -25 15 -41 12 -23 13 -36 5 -59 -15 -44
-12 -93 6 -111 19 -19 44 -21 44 -3 0 6 12 -1 25 -16 14 -15 25 -23 25 -18 0
6 -9 20 -21 32 -16 16 -23 18 -35 8 -11 -9 -17 -9 -29 1 -16 14 -21 55 -5 45
13 -8 13 8 0 21 -7 7 -7 20 -2 33 l8 23 19 -28 c10 -16 29 -37 42 -47 29 -23
53 -68 53 -101 0 -30 -16 -43 -24 -19 -2 10 -4 5 -4 -12 2 -73 -2 -110 -11
-96 -8 12 -11 9 -17 -13 -5 -20 -9 -24 -15 -14 -5 7 -9 8 -9 3 0 -21 32 -55
51 -55 10 0 19 4 19 10 0 5 -7 7 -15 4 -16 -6 -30 17 -23 38 8 23 58 -38 58
-72 0 -35 -10 -38 -35 -10 -10 11 -26 22 -37 26 -11 3 -28 25 -39 47 -10 23
-19 36 -19 29 0 -7 7 -26 15 -41 8 -16 11 -31 8 -35 -4 -3 3 -6 14 -6 28 0 73
-37 73 -61 0 -24 -5 -24 -30 1 -24 24 -40 26 -40 5 0 -21 -42 -19 -71 4 -13
10 -33 34 -43 52 -19 32 -19 32 0 25 10 -4 34 -10 52 -13 l33 -6 -25 38 c-32
46 -34 75 -5 75 13 0 23 10 30 30 13 36 23 38 43 8 21 -29 20 -35 -4 -41 -12
-3 -20 -13 -19 -24 1 -16 2 -17 6 0 2 9 8 15 13 12 4 -3 13 1 19 8 8 10 6 25
-6 58 -24 65 -32 71 -70 64 -29 -5 -35 -2 -53 27 -24 39 -25 52 -5 44 18 -7
18 -7 -1 39 -18 43 -14 51 16 35 22 -12 22 -12 6 11 -16 24 -21 65 -10 93 7
17 24 12 24 -7z m-182 -33 c13 -4 22 -14 22 -26 0 -10 -4 -16 -10 -13 -5 3 -7
0 -4 -9 3 -9 -4 -21 -18 -30 -39 -25 -75 -29 -109 -12 -18 9 -34 14 -37 11 -6
-6 62 -35 82 -35 9 0 34 7 57 16 37 15 42 15 57 1 13 -14 13 -17 1 -21 -36
-11 -42 -16 -16 -12 33 4 35 -7 5 -28 -41 -29 -81 -20 -139 29 -58 50 -73 79
-34 69 18 -4 33 3 62 30 40 38 45 39 81 30z m-1918 -427 c0 -17 -11 -30 -39
-45 -41 -23 -77 -58 -49 -47 11 4 19 -3 26 -24 6 -17 9 -32 6 -32 -2 -1 -10
-2 -16 -3 -23 -2 -48 -71 -57 -158 -30 -296 112 -663 293 -759 26 -13 46 -28
46 -34 0 -28 54 -121 96 -165 118 -126 372 -249 611 -297 133 -26 404 -24 540
5 249 54 484 169 601 296 39 42 92 135 92 161 0 6 20 21 46 34 63 34 133 114
184 211 23 46 37 79 31 75 -11 -6 -9 18 5 62 5 19 -15 16 -22 -2 -5 -11 -10
-13 -19 -5 -6 5 -15 7 -18 3 -4 -3 -7 1 -7 10 0 8 10 18 23 20 20 4 19 4 -4 6
-17 1 -32 -7 -41 -21 -20 -31 -41 -16 -26 20 6 15 12 40 14 55 2 16 6 33 9 38
11 17 95 6 95 -13 0 -7 -15 -8 -40 -4 -29 4 -40 3 -42 -6 -3 -29 -4 -34 -16
-55 -18 -32 -15 -41 4 -14 14 19 23 22 53 17 20 -3 45 -7 56 -8 30 -5 56 116
57 272 2 150 -18 235 -57 250 -22 8 -23 11 -12 40 6 16 16 29 22 27 16 -5 53
-107 64 -177 23 -142 6 -308 -50 -475 -54 -162 -136 -280 -231 -335 -42 -23
-54 -37 -73 -83 -47 -118 -158 -217 -340 -307 -161 -80 -279 -118 -406 -130
-57 -6 -132 -15 -166 -21 -41 -6 -85 -6 -125 0 -35 6 -110 15 -167 21 -63 6
-139 22 -195 40 -128 43 -319 140 -394 201 -74 59 -147 153 -164 211 -9 30
-20 44 -50 59 -122 62 -223 228 -280 456 -33 133 -32 340 1 443 14 41 26 84
27 95 1 11 12 47 25 79 20 55 23 58 36 41 15 -21 12 -41 -6 -37 -6 1 -11 -2
-11 -8 0 -16 27 -11 34 6 3 8 1 24 -4 34 -6 10 -10 29 -10 42 0 21 2 20 20
-10 11 -18 20 -43 20 -55z m232 -161 c-4 -46 1 -65 37 -145 22 -50 41 -103 41
-118 0 -26 1 -26 18 -10 12 13 17 34 17 73 0 47 2 52 13 37 7 -10 11 -30 8
-45 -4 -21 -2 -28 10 -28 13 0 15 -7 9 -37 -11 -61 -22 -75 -46 -60 -18 10
-23 9 -41 -13 -12 -14 -19 -18 -15 -8 3 9 9 33 13 52 11 62 -39 111 -86 86
-30 -16 -23 -56 8 -52 34 3 22 -21 -14 -30 -25 -6 -24 -7 10 -4 32 2 36 0 21
-10 -19 -14 -60 -4 -60 14 0 6 -3 14 -7 18 -12 11 -9 69 3 81 9 9 6 19 -10 39
-11 15 -21 36 -21 46 0 17 5 19 30 16 34 -5 36 -2 16 21 -12 14 -12 22 -1 54
10 31 41 77 50 77 1 0 0 -24 -3 -54z m1920 -14 c18 -40 18 -45 4 -61 -22 -25
-20 -28 14 -23 26 4 30 1 30 -19 0 -12 -9 -32 -20 -44 -19 -20 -19 -23 -5 -53
13 -26 14 -35 3 -54 -7 -13 -11 -26 -10 -30 1 -4 -7 -12 -18 -18 -20 -11 -60
1 -60 18 1 17 17 30 35 29 29 -3 33 38 4 53 -51 28 -96 -29 -80 -101 9 -40 9
-40 -10 -23 -16 15 -24 16 -39 7 -15 -10 -20 -8 -29 15 -21 53 -24 82 -9 82 9
0 14 12 14 35 0 19 4 39 10 45 6 6 9 -11 9 -45 0 -38 5 -59 18 -72 16 -16 17
-16 17 6 0 13 17 60 38 105 31 68 37 92 37 148 0 56 2 64 14 55 8 -7 23 -31
33 -55z m-2037 31 c-20 -55 -30 -133 -29 -253 1 -118 4 -145 27 -215 36 -109
90 -196 166 -267 40 -37 60 -63 54 -69 -12 -12 -97 68 -143 135 -18 27 -46 79
-62 115 -16 36 -27 56 -25 44 6 -25 -3 -29 -21 -11 -16 16 -15 48 2 48 12 0
12 7 0 47 -8 25 -14 59 -14 75 0 15 -2 28 -4 28 -20 0 -36 -16 -36 -36 0 -27
-9 -32 -59 -36 -20 -2 -36 2 -38 10 -3 7 5 12 20 12 38 0 57 10 57 31 0 16 -8
19 -45 19 -33 0 -45 4 -45 15 0 8 9 15 20 15 15 0 20 7 20 25 0 29 -8 32 -26
8 -12 -16 -13 -15 -14 10 0 20 5 27 19 27 26 0 50 -36 43 -63 -3 -13 -1 -18 4
-14 10 10 11 14 13 58 2 45 21 25 21 -22 0 -31 4 -39 19 -39 14 0 18 8 18 38
0 20 6 79 13 130 12 86 12 94 -5 106 -17 12 -17 14 6 29 31 23 53 22 44 0z
m2156 7 c21 -12 26 -36 7 -42 -9 -3 -8 -30 1 -112 20 -164 -4 -296 -79 -447
-51 -100 -171 -232 -192 -211 -11 11 -10 15 7 24 11 6 47 38 80 72 67 68 122
169 151 276 31 114 19 392 -18 438 -13 15 15 17 43 2z m-1697 -596 c7 -35 12
-41 33 -41 31 0 36 -7 28 -33 -15 -47 -123 -61 -145 -19 -19 34 -12 88 15 115
35 35 58 28 69 -22z m1261 21 c27 -26 34 -80 15 -116 -15 -28 -98 -27 -128 1
-30 28 -28 47 8 55 26 6 31 12 36 46 8 47 32 52 69 14z m-1393 -390 c94 -106
233 -179 446 -233 95 -23 126 -26 277 -27 143 0 187 4 275 23 153 35 254 75
348 138 95 65 144 117 179 192 19 40 28 51 37 42 35 -35 -130 -223 -253 -289
-60 -32 -71 -44 -51 -56 6 -4 8 -10 6 -14 -3 -4 4 -17 14 -29 21 -22 28 -82
10 -82 -5 0 -10 6 -10 14 0 8 -6 16 -14 19 -9 4 -12 14 -9 26 6 24 3 25 -31
10 -26 -12 -27 -32 -1 -22 9 3 15 -1 15 -11 0 -9 -7 -16 -15 -16 -12 0 -13 -4
-6 -19 10 -18 6 -31 -9 -31 -4 0 -13 21 -20 46 -12 43 -12 48 5 60 10 8 25 14
32 14 7 0 13 7 13 15 0 20 -29 19 -52 -2 -15 -13 -21 -14 -27 -5 -6 10 -31 7
-112 -13 -201 -48 -316 -55 -479 -30 -273 41 -442 117 -578 259 -65 67 -98
126 -87 155 5 12 13 2 31 -35 13 -29 43 -73 66 -99z"/>
<path d="M1322 3240 c-60 -14 -112 -82 -112 -147 0 -52 38 -110 86 -134 107
-51 214 17 214 136 0 103 -86 170 -188 145z m18 -55 c0 -30 3 -35 24 -35 45 0
71 -50 47 -89 -7 -10 -3 -24 11 -44 11 -15 19 -30 17 -31 -14 -12 -51 -26 -68
-26 -15 0 -21 7 -22 23 -1 22 -1 22 -7 1 -6 -18 -11 -20 -31 -13 -22 9 -22 11
-8 32 8 12 24 22 36 21 12 0 21 3 21 8 0 4 -7 8 -15 8 -8 0 -22 11 -31 25 -12
19 -24 25 -48 23 l-31 -1 33 -4 c37 -5 41 -22 12 -48 -25 -23 -39 -12 -47 38
-5 35 -4 37 23 38 l29 1 -26 7 c-22 5 -25 10 -19 26 4 12 16 27 25 35 15 13
19 12 36 -9 24 -30 16 -41 -11 -16 -11 10 -23 16 -26 12 -3 -3 4 -11 16 -17
15 -8 20 -18 17 -31 -7 -26 -3 -24 18 7 16 25 16 27 -6 50 -20 21 -21 26 -9
34 28 18 40 11 40 -25z"/>
<path d="M1333 2377 l-22 -24 27 -27 27 -26 -35 7 c-76 17 -172 9 -230 -18
-89 -42 -163 -126 -179 -203 -5 -23 -16 -32 -55 -47 -62 -23 -100 -59 -132
-125 -58 -118 -70 -239 -32 -314 l23 -45 -25 -50 c-34 -69 -35 -201 0 -289 28
-73 92 -140 149 -157 31 -9 43 -19 48 -38 18 -78 74 -141 162 -186 48 -24 147
-46 180 -39 9 1 43 8 76 14 45 9 68 9 90 0 16 -6 61 -11 100 -11 128 0 245 63
298 159 15 27 27 57 27 65 0 9 20 25 48 37 115 51 174 158 174 317 -1 56 -6
86 -25 126 -21 46 -22 56 -11 72 7 10 18 42 24 72 32 150 -70 364 -187 396
-27 7 -43 17 -43 27 0 34 -50 118 -94 158 -69 64 -125 86 -216 87 -41 0 -88
-4 -105 -8 l-30 -9 28 29 27 29 -30 22 c-16 12 -30 22 -32 22 -2 0 -13 -11
-25 -23z m8 -85 c13 -5 43 -3 73 5 66 18 146 10 213 -23 72 -34 147 -119 164
-183 11 -43 16 -50 42 -55 78 -16 143 -91 179 -209 26 -88 23 -202 -8 -243
l-20 -28 25 -45 c50 -89 38 -250 -25 -347 -29 -45 -93 -92 -136 -101 -20 -4
-28 -12 -28 -26 0 -40 -43 -109 -91 -147 -93 -74 -228 -101 -327 -66 -35 13
-45 12 -83 -1 -66 -23 -180 -13 -246 20 -93 48 -147 108 -162 181 -5 24 -15
32 -50 44 -104 35 -173 152 -175 297 -1 69 3 88 28 138 25 53 27 60 13 75 -31
34 -42 105 -29 183 25 144 96 247 188 271 37 10 44 16 44 38 0 37 53 123 97
157 45 36 97 63 138 74 33 9 143 3 176 -9z"/>
<path d="M1133 2264 c-78 -28 -173 -134 -173 -193 0 -35 -12 -51 -36 -51 -14
0 -42 -9 -64 -20 -123 -63 -189 -323 -105 -414 l24 -26 -24 -36 c-47 -70 -57
-162 -30 -269 24 -92 88 -158 167 -174 27 -6 32 -13 43 -54 17 -68 60 -116
140 -157 60 -31 77 -35 139 -34 42 0 87 7 109 17 34 15 40 15 75 0 23 -10 65
-17 112 -17 150 -1 256 82 295 229 1 6 23 16 49 23 99 26 159 129 160 272 1
77 -12 123 -47 172 l-20 27 26 31 c101 120 -23 430 -173 430 -27 0 -30 3 -30
30 0 104 -119 214 -244 227 -31 3 -75 -1 -112 -10 -53 -14 -66 -14 -100 -2
-50 18 -128 17 -181 -1z m342 -18 c42 -18 46 -39 8 -34 -26 3 -28 0 -26 -27 2
-25 1 -26 -6 -10 -5 13 -7 -10 -4 -60 4 -87 -3 -149 -17 -140 -4 3 -6 -5 -2
-17 4 -16 2 -19 -9 -13 -8 5 -11 5 -7 1 3 -4 -6 -20 -21 -34 -25 -25 -25 -25
-1 -7 l25 20 -24 -27 c-29 -33 -54 -42 -79 -29 -13 7 -22 7 -30 -1 -9 -9 -15
-9 -24 0 -9 9 -8 12 8 12 11 0 33 13 49 30 15 16 32 27 36 24 4 -2 11 1 15 7
4 8 3 9 -4 5 -15 -9 -15 -3 -1 28 7 14 15 24 18 22 3 -2 6 20 6 49 0 30 -4 51
-9 47 -5 -3 -6 2 -3 12 5 11 3 15 -5 10 -8 -5 -9 -2 -5 10 4 10 1 19 -8 22
-19 8 -19 33 1 64 l16 25 -21 -24 c-26 -28 -27 -56 -3 -71 15 -10 15 -10 -3
-8 -48 7 -20 88 38 113 41 18 50 18 92 1z m-230 -88 c0 -21 11 -32 33 -33 63
-5 68 -6 47 -15 -18 -8 -17 -9 6 -9 27 -1 39 -17 39 -52 0 -13 -7 -19 -22 -19
-19 0 -20 2 -8 11 12 8 10 9 -10 5 -28 -6 -72 3 -66 13 6 8 -126 7 -140 -2
-14 -8 -6 -58 11 -73 16 -12 8 -27 -22 -43 -30 -15 -68 -14 -103 4 -32 16 -40
35 -15 35 17 0 30 23 39 70 3 20 13 46 22 58 21 31 90 65 116 56 14 -4 18 -3
13 6 -5 8 3 10 26 8 24 -2 34 -8 34 -20z m392 -14 c77 -44 110 -115 74 -160
-25 -32 -27 -81 -5 -113 13 -18 24 -22 50 -19 24 3 34 0 34 -9 0 -16 -48 -113
-56 -113 -3 0 -2 5 1 10 10 16 -1 11 -16 -7 -10 -11 -10 -14 -1 -9 19 12 14
-5 -10 -31 -23 -24 -44 -32 -32 -10 5 8 2 8 -9 -2 -18 -15 -23 -26 -7 -16 6 3
10 4 10 1 0 -15 -65 -36 -110 -36 -43 0 -55 5 -86 33 -29 26 -37 42 -41 81 -6
45 -5 48 15 42 11 -4 23 -2 27 3 4 7 -1 8 -12 4 -14 -5 -16 -4 -7 8 15 19 26
51 15 45 -12 -8 -33 19 -23 29 4 5 1 5 -5 1 -7 -4 -13 -2 -13 4 0 6 -4 8 -10
5 -13 -8 -13 1 2 24 12 19 13 19 50 0 21 -11 36 -23 34 -28 -3 -5 3 -16 14
-26 19 -17 19 -19 3 -39 l-18 -21 23 19 22 19 -22 24 c-12 13 -17 23 -10 23
11 0 52 -47 52 -60 0 -4 -8 -10 -18 -13 -25 -6 -33 -40 -17 -71 7 -13 10 -27
7 -31 -4 -3 0 -4 8 -1 8 2 30 7 48 10 24 4 31 3 26 -7 -4 -7 -3 -8 2 -4 5 5 9
14 9 20 0 7 6 12 14 12 8 0 16 7 18 15 4 12 3 12 -5 1 -7 -9 -10 -1 -10 28 -1
23 3 39 9 36 17 -11 9 2 -13 21 -12 10 -18 13 -14 7 4 -7 3 -13 -2 -13 -20 0
-33 30 -35 79 -1 38 2 55 17 68 10 10 16 12 12 6 -10 -19 -1 -16 15 4 10 11
10 14 2 9 -9 -5 -13 -1 -13 12 0 11 -8 29 -17 41 -22 26 -80 45 -89 29 -5 -7
-2 -8 7 -4 8 4 3 -2 -10 -14 -32 -28 -45 -21 -49 24 -3 33 1 43 30 67 38 33
68 32 135 -7z m-323 -219 c-6 -15 -24 -22 -74 -27 -14 -2 -23 -7 -22 -12 2 -5
-2 -13 -10 -17 -19 -12 -30 -11 -22 3 4 7 3 8 -5 4 -6 -4 -9 -11 -6 -16 3 -4
-2 -13 -10 -20 -20 -17 -19 -69 2 -92 10 -11 12 -18 4 -18 -7 0 -18 15 -26 33
-8 17 -14 25 -15 17 -1 -38 26 -55 82 -54 30 0 59 4 65 7 6 4 13 1 16 -5 2 -7
4 0 4 15 0 27 0 27 -14 7 -8 -11 -19 -20 -25 -20 -6 0 -5 7 4 18 9 9 13 23 11
30 -4 9 1 13 13 10 15 -2 19 -12 19 -43 0 -26 -4 -39 -12 -38 -7 2 -10 -3 -7
-11 15 -39 -106 -62 -164 -32 -54 28 -102 103 -102 160 0 19 6 25 33 28 17 3
41 9 51 13 15 6 17 5 11 -5 -5 -9 -4 -11 4 -6 6 4 9 11 6 16 -6 9 59 47 105
61 14 4 39 8 57 8 25 1 31 -2 27 -14z m-376 -172 c15 -28 15 -36 0 -27 -8 4
-10 3 -5 -2 5 -5 12 -9 16 -9 5 0 20 -14 35 -32 15 -18 37 -35 49 -39 32 -10
37 -22 37 -91 0 -69 -23 -138 -51 -153 -24 -14 -33 -12 -21 3 8 9 2 12 -28 12
-21 0 -38 -4 -37 -10 1 -5 -2 -9 -8 -8 -5 1 -10 -18 -10 -42 0 -24 2 -41 4
-39 7 7 41 -28 36 -36 -3 -5 3 -7 12 -5 63 13 93 13 86 2 -4 -7 0 -6 10 2 20
16 23 25 5 15 -10 -5 -10 -3 0 7 7 8 18 14 25 14 7 0 11 9 9 19 -2 10 0 16 5
13 9 -6 16 43 17 131 1 34 4 62 7 62 11 0 47 -45 54 -68 4 -13 4 -70 0 -128
-7 -91 -10 -104 -25 -104 -10 0 -28 -12 -40 -27 -17 -22 -21 -37 -17 -70 3
-30 1 -41 -7 -36 -6 4 -5 -1 3 -10 15 -18 26 -23 16 -7 -4 6 5 7 23 4 21 -4
36 1 59 20 17 14 33 23 36 20 3 -3 8 0 13 7 5 8 3 10 -6 4 -10 -6 -12 -4 -6
11 29 73 37 364 11 401 -13 19 -13 21 8 26 12 2 31 8 41 12 15 7 17 5 11 -6
-5 -8 -5 -11 1 -6 5 5 9 12 9 16 0 3 10 20 23 36 l23 29 -1 -239 c-1 -132 1
-247 4 -255 6 -15 0 -19 -69 -48 -5 -2 4 8 20 23 l30 27 -32 -22 c-18 -11 -32
-26 -30 -32 1 -6 -4 -13 -12 -16 -8 -3 -11 0 -7 7 11 17 0 13 -15 -6 -12 -15
-12 -16 1 -8 13 8 13 7 1 -9 -8 -9 -20 -15 -26 -12 -7 2 -32 -16 -56 -41 -24
-25 -38 -42 -30 -38 11 6 13 4 7 -11 -5 -10 -9 -25 -9 -31 -1 -35 -79 5 -123
63 -25 32 -29 46 -29 101 l0 63 -38 0 c-39 0 -97 31 -97 52 0 6 10 3 23 -8
l22 -19 -19 22 c-10 12 -23 21 -29 20 -18 -3 -36 63 -36 131 -1 61 27 142 48
142 13 0 32 -26 24 -34 -4 -3 7 -1 24 5 17 5 38 18 46 27 21 24 39 94 27 106
-6 6 -10 7 -10 3 0 -4 -14 0 -30 8 -40 21 -56 11 -35 -21 15 -23 15 -24 -14
-24 -17 0 -42 10 -58 24 -24 20 -27 31 -27 77 0 62 20 109 72 170 l37 43 6
-64 c3 -36 11 -75 17 -87z m952 107 c22 -43 46 -180 36 -205 -3 -9 -10 -13
-16 -10 -5 3 -7 0 -4 -8 7 -19 -60 -72 -77 -61 -8 4 -9 3 -5 -4 11 -18 -66
-50 -161 -67 -114 -20 -122 -23 -120 -43 1 -16 14 -18 126 -17 98 0 133 4 157
17 17 10 34 15 36 12 3 -2 11 2 18 11 7 9 8 15 2 15 -6 0 -13 -6 -15 -12 -3
-7 -6 0 -6 15 -1 38 19 31 41 -14 23 -43 24 -147 2 -218 -19 -65 -96 -151
-136 -151 -23 0 -27 -5 -33 -40 -4 -21 -4 -48 0 -59 5 -16 -3 -27 -36 -51 -47
-34 -61 -37 -79 -16 -14 18 -76 15 -93 -4 -9 -10 -9 -11 2 -5 11 6 13 4 8 -9
-4 -10 -7 -22 -7 -27 0 -5 -4 -9 -10 -9 -5 0 -6 8 -3 17 6 15 5 16 -9 3 -9 -8
-14 -18 -11 -23 6 -10 -59 -8 -77 3 -13 8 -13 11 1 22 16 13 34 62 19 53 -9
-5 -28 15 -28 30 0 5 -6 11 -14 13 -9 2 -8 0 2 -7 11 -8 7 -10 -20 -5 -19 3
-41 8 -48 10 -7 2 -11 0 -8 -5 3 -5 -3 -11 -14 -14 -11 -3 -20 -13 -19 -24 0
-17 1 -17 8 1 7 19 8 19 13 -2 4 -14 14 -22 27 -22 29 0 26 -28 -4 -42 -29
-13 -100 0 -100 19 0 6 -3 15 -8 19 -4 4 5 21 20 38 l28 31 -32 -29 c-25 -23
-30 -32 -22 -43 9 -9 8 -13 0 -13 -29 0 -22 32 15 65 38 33 62 45 49 25 -10
-16 1 -11 16 7 12 14 12 16 0 8 -10 -5 -12 -4 -7 4 23 37 113 50 132 19 4 -7
2 -8 -4 -4 -25 15 -10 -3 16 -20 26 -17 27 -17 12 1 -11 14 -6 12 18 -5 32
-24 44 -38 20 -24 -7 4 -9 3 -5 -1 12 -14 37 -15 34 -2 -1 8 16 13 46 15 53 4
60 18 25 53 -19 18 -19 21 -5 16 11 -4 16 -3 12 3 -4 6 -25 7 -48 4 -28 -4
-37 -2 -28 4 9 7 1 9 -27 8 -55 -1 -72 15 -62 60 11 46 11 46 47 32 26 -10 35
-9 59 6 26 18 27 18 20 0 -5 -14 -4 -16 4 -8 8 8 8 19 0 38 -8 21 -15 26 -30
21 -18 -6 -20 -2 -20 38 0 62 14 71 86 58 32 -6 62 -15 67 -20 5 -5 8 -39 5
-76 l-4 -67 25 5 c15 2 35 8 45 12 14 6 17 5 11 -4 -11 -20 28 3 46 26 13 17
13 17 -7 1 -32 -28 -38 -21 -10 12 34 41 45 99 22 116 -11 7 -13 13 -6 16 7 2
-8 4 -32 4 -23 1 -108 4 -188 8 l-145 7 -7 32 c-8 33 -1 106 13 144 7 20 10
20 46 8 47 -16 160 -26 141 -13 -8 6 -1 8 20 4 18 -3 31 -2 28 3 -6 10 42 33
54 26 4 -3 19 4 31 16 l24 20 -30 -18 c-23 -14 -18 -4 26 43 61 67 94 147 87
209 -5 46 7 44 32 -5z"/>
</g>
</svg>
