 <svg  version="1.0" xmlns="http://www.w3.org/2000/svg"  width="300.000000pt" height="117.000000pt" viewBox="0 0 300.000000 117.000000"  preserveAspectRatio="xMidYMid meet">  <g transform="translate(0.000000,117.000000) scale(0.050000,-0.050000)" fill="#ffffff" stroke="none"> <path d="M1877 2052 c-73 -26 -167 -53 -209 -61 -41 -8 -102 -34 -136 -59 -34 -25 -111 -69 -172 -98 -135 -65 -540 -467 -540 -537 0 -11 -39 -67 -86 -125 -47 -58 -97 -141 -111 -184 l-27 -80 -133 8 c-351 21 -303 129 122 275 200 69 266 109 178 109 -67 0 -348 -100 -488 -174 -374 -196 -318 -354 141 -397 122 -12 143 -20 135 -47 -6 -18 18 -77 54 -132 127 -194 399 -280 639 -202 47 15 111 33 142 40 76 18 334 174 357 217 63 118 42 6 -23 -120 -44 -85 -80 -171 -80 -190 0 -39 30 -47 51 -14 7 12 34 30 60 39 26 10 62 47 80 82 18 35 49 81 68 102 19 20 61 89 92 152 63 125 201 325 243 350 14 9 26 25 26 37 0 11 27 47 60 80 171 171 1 297 -445 329 -259 18 -256 -18 4 -44 603 -62 192 -300 -773 -448 -249 -38 -337 -67 -315 -102 7 -12 -3 -32 -22 -46 -22 -16 -30 -39 -23 -59 11 -27 -1 -33 -67 -33 -70 0 -78 4 -62 35 9 19 14 45 10 57 -5 12 12 31 37 43 25 12 35 23 21 24 -71 4 -12 41 66 41 69 0 93 8 101 35 10 34 23 60 106 205 124 219 579 608 832 713 104 44 429 132 462 126 135 -26 143 50 7 79 -149 32 -234 27 -382 -26z m3 -1120 c0 -4 -92 -70 -205 -147 -443 -300 -711 -354 -856 -170 -79 101 -59 118 156 130 223 13 531 72 735 142 155 52 170 57 170 45z"/> <path d="M2840 1760 c28 -22 59 -39 69 -40 10 0 9 -10 -3 -22 -13 -13 -18 -35 -12 -50 6 -16 0 -28 -13 -28 -13 0 -18 -9 -11 -20 7 -11 4 -20 -7 -20 -11 0 -24 11 -30 25 -8 20 -14 20 -28 -1 -15 -21 -24 -20 -44 5 -14 17 -38 31 -52 31 -14 0 -30 16 -34 35 -6 26 -13 19 -25 -23 -52 -190 139 -351 311 -262 195 101 124 411 -94 410 l-77 -1 50 -39z m136 -280 c1 -51 -6 -60 -47 -60 -60 0 -64 31 -8 60 22 12 35 31 28 41 -6 10 -3 19 7 19 10 0 19 -27 20 -60z"/> <path d="M1286 1380 c-68 -5 -136 -22 -150 -37 -22 -23 -5 -25 108 -14 272 28 309 73 42 51z"/> <path d="M3270 1192 c-373 -118 -465 -392 -132 -392 189 0 282 -30 282 -89 0 -167 -521 -327 -659 -202 -51 46 -81 24 -81 -57 0 -362 897 -80 967 304 21 110 -204 238 -307 174 -30 -18 -180 9 -180 33 0 34 174 98 310 114 249 30 250 144 1 142 -66 -1 -157 -13 -201 -27z"/> <path d="M2683 1182 c-77 -11 -90 -20 -112 -82 -14 -38 -68 -178 -120 -310 -257 -657 -153 -732 151 -108 77 158 168 330 201 382 33 52 54 104 47 115 -13 22 -27 22 -167 3z"/> <path d="M4330 1179 c-575 -19 -630 -32 -630 -141 0 -65 1 -66 177 -37 162 26 161 61 14 -332 -126 -339 -137 -409 -61 -409 31 0 72 71 248 430 153 311 181 337 374 347 l149 7 -53 -147 c-28 -81 -87 -221 -130 -312 -154 -325 -39 -363 420 -138 496 244 506 766 15 750 -57 -2 -292 -10 -523 -18z m692 -150 c10 -6 18 -56 18 -111 0 -127 -117 -254 -328 -354 -167 -80 -166 -80 -101 78 86 207 106 264 119 332 9 44 26 67 56 73 51 11 208 -1 236 -18z"/> <path d="M5585 1163 c-31 -19 -225 -323 -225 -351 0 -11 -49 -106 -110 -211 -134 -236 -157 -321 -87 -321 79 0 131 53 219 222 l83 160 93 -6 92 -6 10 -160 c12 -186 19 -201 99 -217 80 -16 127 3 110 45 -8 17 -20 185 -28 372 -15 365 -27 411 -121 460 -65 34 -98 37 -135 13z m84 -348 c-9 -40 -22 -54 -43 -46 -16 6 -42 11 -58 11 -34 0 15 137 58 163 33 21 59 -56 43 -128z"/> </g> </svg> 