<?xml version="1.0" standalone="no"?>
<!DOCTYPE svg PUBLIC "-//W3C//DTD SVG 20010904//EN"
 "http://www.w3.org/TR/2001/REC-SVG-20010904/DTD/svg10.dtd">
<svg version="1.0" xmlns="http://www.w3.org/2000/svg"
 width="1459.000000pt" height="1460.000000pt" viewBox="0 0 1459.000000 1460.000000"
 preserveAspectRatio="xMidYMid meet">
<metadata>
Created by potrace 1.16, written by Peter Selinger 2001-2019
</metadata>
<g transform="translate(0.000000,1460.000000) scale(0.100000,-0.100000)"
fill="#ffffff" stroke="none">
<path d="M7120 12158 c-431 -17 -760 -71 -1215 -198 -129 -35 -430 -147 -598
-222 -220 -98 -551 -282 -742 -413 -96 -66 -237 -166 -245 -175 -3 -3 -25 -21
-50 -40 -267 -204 -600 -535 -801 -795 -29 -38 -56 -72 -60 -75 -20 -16 -245
-343 -294 -427 -5 -10 -22 -36 -36 -58 -14 -22 -29 -47 -32 -55 -4 -8 -19 -35
-33 -60 -47 -81 -161 -313 -213 -435 -29 -66 -56 -128 -62 -137 -5 -10 -9 -23
-9 -30 -1 -7 -9 -31 -20 -53 -11 -22 -19 -45 -20 -52 0 -7 -7 -29 -16 -50 -29
-67 -32 -76 -64 -188 -118 -413 -173 -699 -200 -1045 -19 -239 -10 -790 15
-950 3 -19 12 -84 20 -145 20 -149 32 -222 44 -270 5 -22 19 -85 31 -140 12
-55 26 -107 30 -115 4 -9 11 -36 15 -60 4 -25 13 -61 20 -80 7 -19 22 -69 35
-110 12 -41 28 -89 36 -107 8 -17 14 -40 14 -52 0 -12 5 -21 10 -21 6 0 10 -6
10 -14 0 -16 58 -170 93 -248 13 -29 37 -82 53 -118 164 -370 429 -789 708
-1120 218 -259 484 -515 751 -723 30 -24 234 -174 251 -185 251 -164 572 -343
759 -422 28 -12 59 -25 70 -30 142 -63 363 -143 525 -190 41 -12 86 -25 100
-30 14 -5 41 -12 60 -15 19 -3 44 -10 55 -15 11 -4 47 -14 80 -20 33 -7 101
-21 150 -31 131 -28 270 -48 438 -64 81 -8 152 -17 157 -20 13 -8 707 -8 720
0 5 3 60 10 122 15 269 24 610 88 863 164 28 8 68 20 90 26 22 6 58 17 80 25
117 40 252 88 270 95 11 5 43 18 70 30 28 12 59 25 70 30 11 5 43 19 70 31
338 146 744 393 1065 648 259 206 554 500 770 770 19 24 45 56 58 72 18 22 84
113 152 209 163 231 361 590 474 860 32 74 61 144 66 155 4 11 18 49 30 85 12
36 26 74 31 85 4 11 17 49 29 85 11 36 25 79 30 97 18 54 65 232 86 323 29
130 46 217 59 305 8 49 16 99 19 110 3 11 15 126 26 255 18 193 21 280 17 490
-4 213 -24 497 -42 600 -3 14 -9 61 -15 105 -6 44 -13 87 -16 95 -3 8 -12 47
-19 85 -25 128 -36 176 -57 253 -11 42 -26 100 -33 127 -28 109 -128 398 -182
525 -8 19 -18 44 -23 55 -47 112 -172 368 -230 470 -22 39 -51 90 -65 115 -14
25 -33 57 -43 71 -9 15 -30 48 -47 75 -16 27 -32 51 -35 54 -3 3 -29 41 -59
85 -189 279 -436 563 -722 830 -113 106 -333 286 -439 361 -145 101 -301 203
-355 233 -33 19 -62 36 -65 40 -18 22 -430 226 -575 285 -77 31 -148 61 -157
66 -10 6 -23 10 -30 10 -7 0 -25 6 -40 14 -15 8 -42 17 -60 21 -18 4 -37 11
-43 15 -5 4 -28 12 -50 18 -22 5 -74 20 -115 32 -259 76 -470 121 -715 155
-55 8 -115 16 -133 19 -49 8 -344 26 -452 29 -52 1 -174 -1 -270 -5z m191
-421 c7 -18 26 -59 41 -92 53 -110 77 -268 58 -377 -7 -40 -13 -105 -14 -144
-1 -68 1 -73 42 -132 63 -90 82 -137 82 -209 0 -69 12 -85 42 -56 15 15 20 37
23 95 2 48 10 89 21 110 l18 33 12 -75 c7 -42 20 -92 30 -112 82 -161 94 -187
103 -229 7 -33 7 -33 96 -51 122 -23 269 -57 330 -75 298 -88 547 -196 791
-343 l116 -70 62 44 c71 51 112 89 137 130 l17 28 8 -68 c4 -38 2 -116 -3
-174 -10 -100 -10 -106 10 -127 11 -13 25 -23 32 -23 18 0 81 82 133 176 106
189 162 232 322 245 267 22 425 75 552 186 35 30 74 60 88 66 14 7 27 14 30
18 3 3 16 10 29 14 l24 7 -22 -30 c-11 -17 -21 -35 -21 -40 0 -6 -6 -17 -12
-24 -7 -7 -24 -47 -38 -88 -50 -153 -143 -279 -274 -368 -91 -62 -125 -105
-136 -173 -14 -87 -31 -149 -41 -149 -5 0 -9 -7 -9 -15 0 -9 -19 -36 -42 -61
-24 -26 -38 -48 -32 -54 17 -16 64 2 93 36 33 36 95 74 124 74 15 0 12 -7 -16
-42 -39 -48 -77 -116 -77 -136 0 -25 -34 -117 -66 -181 l-32 -63 51 -72 c221
-310 409 -723 503 -1104 25 -104 30 -113 53 -117 14 -3 45 -10 69 -15 56 -13
148 -13 174 1 11 6 22 8 25 6 7 -8 -127 -146 -190 -194 -54 -42 -58 -48 -55
-82 l3 -36 75 3 c41 1 84 7 95 12 11 4 38 13 60 19 22 5 65 17 95 26 106 30
227 -9 329 -106 89 -84 238 -175 352 -213 24 -8 89 -19 144 -25 55 -6 120 -17
145 -24 l45 -15 -45 -11 c-65 -18 -150 -50 -185 -70 -71 -41 -145 -56 -280
-56 -77 0 -155 6 -191 14 -54 13 -64 13 -107 -4 -26 -10 -59 -28 -75 -41 -54
-47 -133 -78 -199 -79 -76 -1 -97 -16 -63 -45 18 -16 37 -20 95 -20 39 0 75
-3 79 -7 4 -5 11 -8 14 -8 4 -1 20 -8 36 -16 28 -16 28 -16 -51 -21 -44 -3
-91 -12 -104 -19 -13 -8 -44 -25 -69 -40 -40 -23 -76 -39 -186 -79 -29 -10
-32 -16 -38 -68 -21 -182 -119 -519 -221 -755 -71 -166 -216 -436 -261 -488
-12 -13 -7 -24 35 -80 56 -74 95 -117 131 -142 24 -17 20 -18 -153 -14 l-178
4 -20 -28 -19 -27 42 -35 c63 -50 124 -89 206 -132 110 -57 166 -141 177 -266
11 -127 27 -252 34 -268 5 -9 19 -47 31 -86 26 -77 70 -152 143 -241 43 -52
87 -123 87 -139 0 -3 -17 6 -38 19 -21 13 -63 34 -92 47 -30 12 -59 26 -65 29
-5 4 -26 10 -46 14 -44 8 -157 82 -222 145 -26 25 -69 77 -95 115 -54 81 -111
126 -157 126 -17 0 -35 3 -39 7 -4 4 -15 8 -24 8 -51 2 -117 31 -161 71 -57
51 -71 54 -71 16 0 -20 12 -40 41 -67 40 -39 79 -105 79 -133 0 -8 -23 4 -57
30 -68 52 -84 59 -183 89 -41 12 -82 26 -90 30 -8 4 -34 17 -58 28 l-42 21
-78 -56 c-82 -59 -257 -165 -382 -231 -225 -118 -530 -228 -802 -287 -23 -5
-28 -13 -35 -54 -4 -26 -8 -90 -8 -144 l0 -96 -45 36 c-61 49 -132 127 -170
188 -12 20 -20 23 -50 18 -19 -4 -38 -9 -41 -13 -10 -10 19 -181 43 -251 29
-84 31 -195 4 -264 -15 -38 -100 -156 -136 -186 -19 -17 -72 -94 -102 -150
-53 -100 -75 -166 -87 -270 -15 -126 -30 -200 -42 -200 -5 0 -9 8 -9 18 -1 27
-37 130 -72 201 -55 114 -84 313 -57 395 8 23 14 75 14 116 0 72 -2 78 -42
136 -67 98 -83 140 -83 212 0 60 -1 63 -22 60 -32 -4 -48 -43 -48 -116 0 -43
-6 -75 -20 -102 -11 -22 -22 -40 -25 -40 -2 0 -3 19 -3 43 2 70 -12 140 -36
177 -32 49 -76 144 -76 163 0 9 -4 18 -9 21 -4 3 -11 18 -14 34 -6 27 -10 30
-79 41 -187 30 -524 122 -642 176 -17 7 -60 26 -96 41 -136 56 -443 219 -492
262 -16 13 -24 9 -87 -37 -73 -54 -140 -122 -142 -144 -1 -6 -5 -1 -9 13 -11
36 -11 183 0 260 9 63 9 66 -16 88 -14 12 -29 22 -33 22 -8 0 -101 -116 -101
-125 0 -3 -10 -19 -22 -35 -16 -22 -24 -27 -31 -18 -5 8 -6 5 -2 -9 8 -29 -33
-109 -77 -149 -70 -64 -115 -79 -280 -94 -215 -19 -341 -62 -462 -157 -78 -63
-129 -99 -165 -118 l-30 -15 48 93 c26 51 51 110 55 131 17 88 151 261 256
329 104 66 136 117 154 244 8 57 49 131 92 167 32 26 34 30 20 44 -20 20 -69
0 -98 -40 -20 -29 -107 -78 -137 -78 -7 0 4 19 26 43 44 48 87 133 96 188 3
20 23 73 45 119 l40 82 -58 82 c-218 306 -393 687 -490 1071 -19 72 -34 131
-34 132 -2 3 -60 14 -127 23 -63 9 -90 8 -148 -6 -22 -5 -20 0 21 48 51 60
187 178 205 178 13 0 7 68 -8 84 -11 12 -178 -18 -269 -48 -115 -39 -187 -33
-285 21 -16 9 -39 26 -50 36 -144 138 -349 252 -471 262 -68 6 -142 18 -219
37 l-40 10 78 24 c43 13 106 36 140 52 102 48 114 52 219 64 76 8 119 8 177
-1 42 -6 105 -11 141 -11 59 0 70 3 115 36 86 62 163 94 228 94 49 0 57 3 57
19 0 24 -19 31 -82 31 -62 0 -116 15 -149 42 l-24 20 30 -5 c51 -9 153 22 234
69 41 24 82 44 91 44 8 0 28 7 44 15 15 8 37 15 47 15 14 0 19 7 19 28 0 15 9
72 20 128 71 368 225 766 414 1072 31 50 56 93 56 97 0 12 -86 128 -121 164
-19 18 -44 37 -58 42 -13 5 -21 12 -18 15 11 11 262 6 304 -6 40 -12 42 -12
71 21 l30 33 -27 20 c-14 11 -28 23 -31 26 -15 16 -106 73 -175 110 -151 80
-191 142 -206 322 -12 148 -42 296 -69 346 -5 10 -19 38 -31 64 -12 26 -34 60
-48 75 -57 63 -153 203 -139 203 2 0 47 -22 101 -50 54 -27 106 -50 117 -50
54 0 240 -131 295 -208 110 -155 148 -185 246 -195 32 -4 67 -11 76 -15 10 -5
35 -17 56 -27 21 -11 52 -34 68 -53 27 -31 32 -33 46 -19 19 19 7 45 -52 107
-24 26 -48 65 -57 91 l-14 46 53 -43 c61 -50 123 -84 151 -84 24 0 133 -41
188 -70 l41 -22 94 64 c330 227 679 385 1060 482 73 18 134 37 136 42 15 52
30 211 21 241 -5 19 -7 37 -5 39 9 9 167 -148 199 -197 31 -49 42 -54 86 -43
38 11 29 101 -30 298 -38 127 -11 241 81 341 70 77 191 249 191 273 0 4 6 18
13 32 21 40 45 149 52 229 3 40 13 96 22 125 l17 51 12 -53 c7 -29 18 -68 25
-85z"/>
<path d="M6810 9531 c-8 -5 -40 -14 -70 -21 -198 -45 -498 -173 -674 -287
l-69 -45 30 -26 c78 -69 168 -252 189 -382 8 -48 48 -95 154 -177 175 -137
371 -390 483 -625 18 -37 37 -67 43 -68 7 0 39 14 72 30 34 17 67 30 74 30 8
0 18 4 24 9 5 5 23 11 39 13 37 4 37 3 -10 178 -61 225 -90 441 -81 607 3 62
10 121 16 132 5 11 10 43 10 71 0 43 -6 60 -38 108 -21 31 -49 80 -61 107 -12
28 -27 58 -32 67 -5 10 -6 24 -3 33 3 8 2 15 -4 15 -11 0 -27 114 -24 171 2
29 -3 40 -22 53 -29 18 -26 18 -46 7z"/>
<path d="M7746 9528 c-2 -7 -7 -47 -10 -88 -9 -105 -65 -258 -133 -362 -24
-36 -25 -42 -18 -135 18 -239 9 -432 -31 -623 -23 -115 -72 -287 -85 -304 -12
-14 2 -36 21 -36 11 0 22 -4 25 -10 3 -5 13 -10 21 -10 8 0 49 -16 90 -37 44
-21 79 -32 84 -27 4 5 23 36 41 69 99 185 236 380 349 499 64 68 170 156 187
156 5 0 26 17 46 38 29 30 40 51 47 93 14 76 32 135 63 202 29 64 104 166 138
188 32 22 14 48 -71 99 -207 122 -411 209 -630 266 -52 13 -103 27 -113 30 -9
3 -19 0 -21 -8z"/>
<path d="M6900 9456 c0 -18 3 -48 6 -65 l7 -31 388 0 c440 0 409 -6 409 84 l0
46 -405 0 -405 0 0 -34z"/>
<path d="M6925 9330 c-9 -14 23 -106 52 -152 12 -21 23 -41 23 -46 0 -4 13
-22 29 -39 l28 -31 235 0 c162 0 242 3 259 11 27 14 129 205 129 243 l0 24
-374 0 c-245 0 -377 -4 -381 -10z"/>
<path d="M5728 8843 c-153 -153 -278 -284 -277 -293 0 -8 19 -30 41 -49 l39
-35 281 281 280 281 -33 45 c-19 26 -38 46 -44 47 -5 0 -134 -125 -287 -277z"/>
<path d="M8553 9070 c-18 -20 -33 -41 -33 -46 0 -12 542 -554 553 -554 17 0
87 55 87 69 0 16 -550 571 -565 570 -5 0 -25 -18 -42 -39z"/>
<path d="M7067 9033 c-12 -12 -7 -70 7 -82 9 -8 82 -11 242 -9 l229 3 3 48 3
47 -239 0 c-131 0 -242 -3 -245 -7z"/>
<path d="M5827 8722 l-268 -268 38 -21 c57 -32 142 -62 195 -69 l46 -6 183
181 182 181 -16 58 c-31 116 -40 147 -46 152 -4 3 -12 17 -18 33 -7 15 -16 27
-20 27 -5 0 -129 -121 -276 -268z"/>
<path d="M8462 8923 c-16 -38 -36 -91 -42 -118 l-13 -50 197 -197 c190 -190
198 -197 229 -191 31 6 197 70 206 79 5 5 -530 544 -540 544 -3 0 -20 -30 -37
-67z"/>
<path d="M7052 8878 c-18 -71 -22 -157 -12 -273 16 -181 54 -369 117 -567 3
-10 13 -20 22 -22 28 -8 245 -11 258 -3 6 4 15 22 18 40 4 17 11 37 15 42 4 6
19 64 34 130 15 66 31 136 36 155 18 69 32 342 24 440 l-9 95 -246 3 -246 2
-11 -42z"/>
<path d="M8400 8696 c0 -10 -13 -29 -30 -43 -16 -13 -30 -30 -30 -36 0 -12
321 -337 333 -337 5 0 20 14 34 30 13 17 31 30 39 30 8 0 14 4 14 8 0 7 -315
327 -355 361 -3 2 -5 -3 -5 -13z"/>
<path d="M6181 8662 c-12 -15 -86 -91 -164 -169 l-141 -142 24 -26 c13 -14 29
-25 36 -25 8 0 248 234 333 325 5 6 -29 44 -49 55 -11 6 -22 0 -39 -18z"/>
<path d="M6131 8437 l-172 -172 18 -34 c40 -77 218 -241 383 -352 95 -65 289
-179 304 -179 1 0 18 15 37 33 19 17 62 58 97 89 34 31 62 62 62 67 0 20 -91
181 -163 288 -101 152 -273 346 -363 410 l-31 22 -172 -172z"/>
<path d="M8266 8569 c-97 -61 -222 -199 -349 -387 -75 -109 -167 -271 -167
-292 0 -6 33 -45 73 -86 39 -42 76 -82 80 -90 13 -23 52 -16 121 21 121 65
190 110 329 213 77 57 297 276 297 295 0 6 -77 88 -170 183 l-171 171 -43 -28z"/>
<path d="M5368 8538 c-21 -17 -117 -183 -168 -291 -73 -155 -143 -360 -175
-514 l-7 -33 51 0 c99 0 192 -33 421 -151 30 -15 46 -16 115 -9 105 12 362 12
450 0 112 -15 346 -65 374 -79 11 -6 28 -11 38 -11 10 0 31 -7 47 -15 15 -8
33 -15 40 -15 6 0 20 28 30 63 11 34 32 86 48 116 34 66 34 69 3 81 -13 5 -41
20 -62 33 -21 13 -78 48 -128 77 -214 128 -409 296 -491 421 -62 95 -87 113
-178 129 -42 7 -79 17 -82 21 -3 5 -13 9 -22 9 -41 0 -197 96 -251 154 -28 30
-31 31 -53 14z"/>
<path d="M9198 8527 c-87 -84 -246 -166 -352 -183 -69 -10 -107 -36 -162 -107
-164 -213 -405 -405 -694 -552 -30 -15 -57 -29 -59 -31 -1 -1 11 -33 28 -69
18 -37 39 -91 48 -121 10 -30 21 -54 25 -54 4 0 34 9 65 19 32 11 101 29 153
41 52 12 111 25 130 30 138 35 510 56 536 31 5 -6 40 -13 77 -17 65 -7 70 -5
110 23 123 88 237 132 370 140 70 4 100 10 104 20 5 14 2 27 -44 198 -45 167
-134 372 -235 543 -60 101 -74 114 -100 89z"/>
<path d="M5060 7658 c-6 -131 3 -795 10 -802 6 -6 24 -6 47 0 l38 9 3 394 c2
309 -1 396 -10 403 -21 13 -88 10 -88 -4z"/>
<path d="M5190 7261 c0 -262 3 -391 10 -391 28 0 142 46 202 82 l67 40 3 261
c3 249 2 262 -17 279 -11 10 -30 21 -42 24 -13 4 -23 10 -23 15 0 5 -4 9 -10
9 -5 0 -37 13 -70 29 -33 16 -74 32 -90 36 l-30 7 0 -391z"/>
<path d="M9410 7255 c0 -446 -7 -409 80 -410 l45 0 0 400 0 400 -62 3 -63 3 0
-396z"/>
<path d="M9345 7631 c-3 -6 -14 -11 -23 -11 -22 0 -143 -62 -188 -96 l-34 -26
0 -248 0 -248 48 -29 c57 -36 171 -90 206 -99 l26 -6 -2 383 c-2 279 -6 383
-15 386 -6 2 -14 -1 -18 -6z"/>
<path d="M5685 7523 c-32 -2 -65 -9 -72 -15 -10 -8 -13 -66 -13 -244 l0 -234
28 -12 c38 -16 322 -22 412 -9 172 25 459 91 482 110 4 4 10 67 14 141 l6 135
-33 12 c-19 6 -68 21 -109 32 -41 12 -88 26 -105 31 -16 5 -48 12 -70 15 -22
4 -73 13 -112 21 -76 15 -325 25 -428 17z"/>
<path d="M8650 7517 c-3 -2 -32 -7 -65 -10 -114 -12 -189 -27 -375 -75 -52
-13 -105 -26 -117 -29 -29 -7 -31 -15 -35 -162 l-3 -125 60 -21 c33 -12 103
-32 155 -44 52 -12 111 -27 130 -32 116 -30 421 -46 510 -26 l55 12 3 236 c3
257 3 256 -55 265 -44 8 -257 17 -263 11z"/>
<path d="M5510 7269 l0 -239 35 0 35 0 -2 237 -3 237 -32 2 -33 2 0 -239z"/>
<path d="M8995 7478 c-3 -7 -4 -117 -3 -243 3 -213 4 -230 21 -233 10 -2 30
-1 43 2 l24 6 -2 238 -3 237 -38 3 c-24 2 -39 -1 -42 -10z"/>
<path d="M6485 7080 c-33 -9 -67 -19 -75 -22 -62 -23 -270 -65 -390 -78 -52
-6 -117 -13 -145 -16 -28 -4 -95 1 -151 10 -130 20 -217 21 -234 1 -16 -19
-110 -77 -110 -67 0 4 -4 2 -8 -4 -19 -27 -193 -74 -275 -74 -62 0 -65 -1 -70
-26 -5 -27 22 -139 68 -283 34 -107 119 -297 180 -403 26 -46 57 -100 69 -120
12 -21 26 -38 31 -38 6 1 29 20 53 44 39 38 100 74 202 120 51 23 162 56 187
56 13 0 37 19 65 52 177 211 271 300 433 413 96 66 232 147 302 180 24 11 43
25 43 32 0 6 -11 33 -25 60 -13 26 -35 77 -49 113 -13 35 -28 65 -32 66 -5 0
-36 -7 -69 -16z"/>
<path d="M8017 7093 c-4 -3 -7 -17 -7 -29 0 -13 -4 -26 -10 -29 -5 -3 -10 -13
-10 -21 0 -9 -16 -48 -35 -87 l-35 -72 22 -17 c13 -10 27 -18 31 -18 14 0 194
-107 292 -174 161 -108 302 -235 362 -326 52 -77 113 -140 138 -140 31 0 155
-35 210 -60 62 -26 137 -77 189 -125 30 -27 46 -35 63 -30 13 3 23 9 23 14 0
5 21 45 47 88 65 109 146 280 188 396 41 115 97 326 91 343 -3 7 -41 13 -98
16 -51 3 -102 10 -113 15 -11 6 -47 21 -80 34 -33 12 -94 42 -135 67 -70 41
-78 43 -130 38 -136 -15 -388 -18 -470 -6 -163 23 -303 50 -314 61 -6 5 -17 9
-26 9 -23 0 -153 41 -164 51 -12 11 -20 11 -29 2z"/>
<path d="M6605 6786 c-126 -66 -322 -191 -355 -226 -3 -3 -36 -31 -75 -62 -72
-58 -186 -177 -214 -222 l-16 -27 166 -164 c111 -111 172 -165 187 -165 23 0
134 89 198 160 84 93 272 360 296 421 4 9 18 36 32 58 14 22 26 46 26 53 -1 7
-32 46 -71 87 -39 40 -77 84 -86 97 -18 29 -13 29 -88 -10z"/>
<path d="M7877 6753 c-25 -27 -67 -64 -91 -83 -47 -36 -53 -48 -37 -78 166
-303 339 -531 495 -651 l54 -42 171 170 c94 93 171 174 171 179 0 18 -98 138
-156 191 -137 125 -490 361 -541 361 -10 0 -40 -21 -66 -47z"/>
<path d="M6876 6591 c-14 -22 -26 -43 -26 -47 0 -17 -141 -238 -219 -344 -76
-103 -212 -242 -280 -286 -31 -20 -72 -54 -92 -75 -30 -33 -37 -49 -42 -97 -4
-32 -13 -73 -20 -92 -8 -19 -18 -44 -22 -55 -5 -11 -9 -22 -10 -25 -16 -47
-73 -130 -129 -188 l-41 -44 32 -26 c44 -38 281 -164 388 -207 118 -47 182
-69 302 -101 140 -38 138 -38 140 16 6 113 53 253 126 380 l32 55 0 295 c0
310 2 327 55 540 29 114 41 154 50 164 5 5 6 14 4 21 -3 7 -1 16 5 20 20 12
13 45 -10 45 -21 0 -186 65 -206 82 -8 7 -19 -2 -37 -31z"/>
<path d="M7650 6610 c-31 -22 -154 -70 -182 -70 -15 0 -18 -4 -13 -17 16 -39
75 -270 105 -413 22 -104 32 -315 20 -421 -25 -214 -26 -194 17 -257 82 -120
120 -230 130 -374 5 -71 7 -77 30 -83 14 -3 30 -2 36 3 7 5 30 13 52 16 62 11
215 60 333 107 89 35 284 135 349 179 24 17 48 30 54 30 18 0 8 22 -30 68 -76
92 -155 262 -177 385 -5 32 -18 47 -78 95 -164 132 -243 214 -367 382 -91 123
-219 345 -219 379 0 17 -33 12 -60 -9z"/>
<path d="M7166 6495 c-8 -9 -21 -35 -27 -58 -6 -23 -15 -51 -19 -62 -5 -11
-16 -51 -25 -90 -48 -203 -73 -452 -59 -601 l9 -99 241 -3 c205 -2 243 0 254
13 17 21 25 289 11 385 -31 218 -98 496 -122 511 -7 4 -61 7 -121 8 -60 0
-113 3 -118 6 -5 3 -15 -2 -24 -10z"/>
<path d="M5895 6200 l-29 -30 155 -156 c85 -86 160 -162 167 -170 12 -12 18
-11 42 8 16 13 29 28 29 34 1 10 -278 298 -320 331 -13 11 -20 8 -44 -17z"/>
<path d="M8495 6054 c-88 -89 -161 -167 -162 -171 -5 -14 36 -53 55 -53 17 0
332 313 332 329 0 9 -54 62 -61 60 -2 -1 -76 -75 -164 -165z"/>
<path d="M5825 6155 c-5 -2 -37 -10 -70 -20 -33 -9 -69 -20 -80 -25 -11 -5
-42 -18 -69 -30 l-50 -21 265 -267 c145 -147 269 -268 276 -270 20 -6 81 139
98 232 l6 39 -183 182 c-101 101 -187 182 -193 180z"/>
<path d="M8581 5966 l-184 -185 22 -78 c24 -82 66 -183 77 -183 13 0 534 524
531 534 -8 24 -187 96 -239 96 -17 0 -74 -51 -207 -184z"/>
<path d="M5476 6005 l-50 -35 285 -285 c156 -157 290 -284 298 -283 7 2 27 22
43 45 l30 41 -275 276 c-151 152 -277 276 -279 276 -2 0 -25 -16 -52 -35z"/>
<path d="M8791 5756 c-216 -216 -272 -277 -267 -292 8 -23 52 -74 63 -74 10 0
579 568 573 573 -3 1 -22 17 -43 35 -21 18 -41 32 -45 32 -4 0 -130 -123 -281
-274z"/>
<path d="M7050 5541 c0 -10 3 -32 6 -50 l6 -31 232 3 231 2 6 43 c3 23 3 44 1
47 -3 3 -113 5 -244 5 -226 0 -238 -1 -238 -19z"/>
<path d="M7073 5442 c-32 -3 -52 -29 -114 -144 -19 -37 -46 -117 -41 -122 3
-4 176 -6 385 -6 l380 0 -7 33 c-8 38 -92 211 -110 226 -13 11 -412 21 -493
13z"/>
<path d="M6912 5141 c-11 -7 -33 -102 -26 -113 3 -4 187 -8 410 -8 l404 0 0
54 c0 34 -5 58 -14 65 -11 9 -113 12 -389 10 -207 -1 -380 -5 -385 -8z"/>
</g>
</svg>
