<?xml version="1.0" standalone="no"?>
<!DOCTYPE svg PUBLIC "-//W3C//DTD SVG 20010904//EN"
 "http://www.w3.org/TR/2001/REC-SVG-20010904/DTD/svg10.dtd">
<svg version="1.0" xmlns="http://www.w3.org/2000/svg"
 width="1040.000000pt" height="1040.000000pt" viewBox="0 0 1040.000000 1040.000000"
 preserveAspectRatio="xMidYMid meet">
<metadata>
Created by potrace 1.16, written by Peter Selinger 2001-2019
</metadata>
<g transform="translate(0.000000,1040.000000) scale(0.100000,-0.100000)"
fill="#ffffff" stroke="none">
<path d="M5100 9520 c-31 -31 -26 -82 10 -124 72 -81 244 -85 322 -6 42 42 49
77 20 103 -38 35 -92 18 -92 -28 0 -40 -26 -65 -78 -72 -40 -5 -107 11 -118
28 -3 5 6 19 20 30 14 11 26 29 26 39 0 47 -73 67 -110 30z"/>
<path d="M4914 9246 c-55 -18 -98 -51 -121 -93 -16 -30 -16 -35 -3 -43 37 -21
55 -41 42 -47 -32 -13 -40 -58 -43 -258 l-4 -200 51 -3 51 -3 7 62 c3 34 6
107 7 163 1 146 11 205 38 226 l23 17 -37 30 -37 31 32 35 c37 43 85 56 131
36 55 -22 60 -50 49 -285 -5 -115 -10 -235 -10 -266 l0 -58 54 0 54 0 6 73 c3
39 8 162 12 272 6 199 6 200 -18 235 -50 74 -183 109 -284 76z"/>
<path d="M5530 9182 c-62 -31 -66 -103 -6 -110 36 -4 56 14 56 50 0 23 4 29
18 26 9 -2 18 -13 20 -24 2 -11 -26 -137 -62 -280 -35 -142 -66 -268 -68 -278
-2 -16 7 -22 47 -32 65 -18 61 -19 75 16 26 64 180 173 206 147 3 -3 -2 -40
-12 -82 -18 -75 -18 -78 1 -113 53 -99 177 -86 226 22 35 77 15 172 -43 205
-15 9 -28 22 -28 29 0 7 16 78 35 158 19 80 35 151 35 158 0 10 -98 42 -105
34 -2 -2 -20 -77 -42 -168 l-39 -165 -48 -7 c-27 -4 -71 -18 -99 -32 -28 -14
-52 -24 -54 -23 -1 1 18 81 42 177 25 96 45 187 45 202 0 36 -44 85 -88 98
-51 14 -72 13 -112 -8z"/>
<path d="M3283 9170 c-24 -11 -43 -23 -43 -28 0 -5 68 -157 151 -338 94 -203
151 -342 152 -363 1 -26 -6 -40 -31 -62 -51 -46 -111 -50 -150 -11 -9 9 -57
107 -106 217 -49 110 -98 210 -109 222 -28 32 -74 38 -125 18 -61 -25 -94 -68
-90 -118 4 -49 25 -65 65 -51 21 7 29 17 31 40 2 19 -3 36 -12 44 -22 17 -20
30 4 30 26 0 35 -15 131 -230 45 -102 88 -195 96 -207 54 -83 242 -65 339 32
45 46 70 109 59 148 -7 21 -136 310 -220 492 -21 44 -48 104 -61 133 -12 28
-27 52 -31 51 -4 0 -27 -9 -50 -19z"/>
<path d="M4478 9177 c-11 -9 -14 -18 -7 -28 16 -25 10 -59 -16 -84 -19 -20
-34 -25 -74 -25 -58 0 -70 11 -41 40 26 26 25 45 -1 71 -39 39 -109 -1 -109
-61 0 -69 86 -118 185 -105 76 9 126 41 154 99 22 45 23 51 10 75 -17 30 -73
40 -101 18z"/>
<path d="M4007 9153 c-12 -13 -35 -17 -95 -17 -68 -1 -84 -5 -120 -29 -47 -31
-85 -84 -101 -143 -20 -72 -25 -69 114 -69 162 0 161 1 209 -185 20 -74 36
-138 36 -142 0 -15 -33 -38 -56 -38 -20 0 -23 4 -19 23 14 56 -75 86 -95 31
-7 -18 -6 -33 5 -54 41 -80 222 -48 261 45 12 30 10 44 -17 146 -16 63 -32
127 -36 142 -16 74 -106 113 -244 105 -87 -5 -93 -1 -55 46 25 32 32 33 149
24 43 -3 52 0 73 25 17 19 24 40 24 68 0 43 -7 48 -33 22z"/>
<path d="M6572 9145 c-39 -17 -92 -53 -92 -63 0 -4 30 -16 66 -26 103 -30 262
-146 301 -220 9 -16 14 -11 40 40 17 33 47 86 67 119 l36 60 -23 17 c-35 27
-80 44 -84 31 -2 -5 -10 -18 -17 -29 -13 -17 -15 -16 -47 16 -65 65 -170 88
-247 55z"/>
<path d="M6288 8944 c-52 -28 -45 -104 10 -104 38 0 52 12 56 46 3 24 8 28 27
26 31 -3 49 -20 49 -47 0 -36 -30 -64 -90 -83 l-55 -17 -67 -145 c-71 -152
-81 -197 -54 -248 43 -82 183 -141 268 -113 53 18 71 43 153 220 73 159 92
229 65 246 -20 12 -9 22 31 28 109 14 99 115 -13 133 -36 6 -37 5 -40 -27 -2
-29 -10 -37 -45 -54 -33 -16 -40 -24 -33 -35 20 -32 7 -77 -67 -238 -42 -92
-83 -177 -91 -190 -37 -57 -142 -22 -142 48 0 26 108 276 134 309 5 7 34 23
62 36 64 28 89 62 80 108 -16 86 -157 145 -238 101z"/>
<path d="M4533 8824 c-27 -13 -31 -19 -23 -34 29 -53 -15 -110 -84 -110 -23 0
-48 5 -56 10 -13 8 -13 11 1 22 27 21 29 45 8 72 -26 33 -53 33 -84 1 -54 -53
-15 -133 75 -155 88 -21 203 18 235 80 23 44 19 96 -7 114 -27 19 -25 19 -65
0z"/>
<path d="M7203 8737 c-24 -11 -43 -24 -43 -28 0 -4 14 -12 31 -18 48 -17 154
-96 201 -151 24 -27 55 -73 69 -101 l27 -52 17 26 c45 69 41 171 -9 245 -63
93 -195 129 -293 79z"/>
<path d="M2675 8618 c-22 -16 -41 -33 -43 -37 -2 -5 8 -21 21 -37 12 -16 67
-92 122 -169 54 -77 102 -145 106 -150 5 -7 -19 -11 -74 -10 -45 0 -88 -2 -96
-5 -9 -3 -42 34 -92 104 -43 60 -87 115 -96 122 -61 46 -181 -22 -199 -113 -5
-26 -1 -37 19 -57 26 -26 45 -26 75 -3 20 16 14 54 -13 75 -20 16 -22 22 -11
31 23 20 42 3 125 -114 l81 -114 -20 -33 c-23 -39 -26 -107 -6 -146 29 -55 72
-85 129 -90 65 -5 110 15 132 59 20 38 14 58 -42 137 -24 34 -41 67 -37 73 18
30 173 -17 226 -68 l26 -25 46 35 46 35 -181 253 c-100 140 -186 259 -193 265
-8 9 -21 4 -51 -18z"/>
<path d="M6953 8580 c-12 -5 -29 -20 -38 -34 -19 -28 -10 -54 27 -80 25 -18
68 -21 68 -6 0 19 40 50 65 50 63 0 122 -63 109 -115 -3 -14 -27 -55 -53 -90
-25 -35 -84 -119 -131 -185 -46 -66 -93 -123 -103 -126 -30 -10 -67 5 -79 32
-10 21 -9 27 11 40 16 12 21 24 19 46 -6 62 -78 65 -98 4 -13 -39 4 -93 43
-134 56 -60 160 -81 209 -42 37 28 259 348 270 387 29 107 -98 241 -247 257
-28 3 -60 2 -72 -4z"/>
<path d="M7505 8111 c-16 -10 -111 -97 -210 -194 l-180 -175 40 -41 41 -41 84
28 c47 16 119 37 160 47 97 23 128 39 136 71 14 55 -37 100 -85 75 -11 -6 -24
-26 -29 -43 -7 -28 -14 -33 -72 -49 -36 -10 -67 -16 -69 -14 -7 7 260 260 285
270 30 11 44 -4 44 -51 0 -35 13 -44 61 -44 25 0 29 -4 29 -29 0 -25 -30 -58
-200 -222 l-201 -193 40 -40 40 -39 98 91 c178 165 290 285 302 323 20 61 -20
169 -62 169 -33 0 -45 12 -49 45 -7 62 -136 98 -203 56z"/>
<path d="M2042 8094 c-69 -34 -128 -103 -148 -172 -26 -89 -17 -106 158 -279
84 -83 171 -167 194 -186 l41 -36 38 39 39 40 -46 48 c-55 57 -78 99 -78 145
0 29 4 36 25 41 50 13 58 86 10 108 -57 26 -100 -19 -100 -104 0 -26 -3 -48
-6 -48 -3 0 -49 44 -102 99 -90 91 -97 101 -97 138 0 63 71 123 128 108 13 -3
111 -90 219 -194 l195 -188 39 41 39 41 -177 173 c-98 95 -191 182 -208 192
-42 28 -101 25 -163 -6z"/>
<path d="M8248 8053 c-25 -6 -22 -16 10 -34 38 -22 66 -81 57 -125 -5 -31 -4
-34 18 -34 30 0 77 -42 77 -70 0 -22 -2 -22 -75 -24 -49 -1 -58 -7 -375 -235
-179 -128 -331 -239 -338 -245 -42 -40 -27 -129 32 -183 37 -35 79 -43 117
-23 22 12 26 59 7 78 -19 19 -65 14 -82 -9 -15 -21 -36 -18 -36 5 0 7 10 22
23 33 27 25 626 456 655 472 11 6 42 11 67 11 62 0 82 13 95 59 16 62 -24 141
-85 167 -27 11 -33 20 -38 55 -9 67 -73 118 -129 102z"/>
<path d="M4665 8000 c-913 -73 -1743 -603 -2200 -1404 -560 -980 -467 -2206
233 -3096 95 -120 328 -354 452 -452 250 -200 549 -363 860 -470 512 -175
1122 -188 1644 -33 364 107 701 284 995 523 342 277 633 667 803 1074 161 386
228 756 215 1191 -17 591 -224 1147 -605 1627 -98 123 -321 346 -444 443 -399
316 -870 515 -1373 582 -142 19 -439 27 -580 15z m1727 -827 c20 -21 61 -88
92 -150 48 -97 53 -112 38 -117 -24 -7 -194 -36 -212 -36 -9 0 -24 15 -35 33
-10 17 -54 78 -97 135 -43 56 -78 106 -78 110 1 25 26 37 102 47 141 21 149
20 190 -22z m702 -356 c60 -82 166 -246 166 -258 0 -4 -10 -9 -22 -11 -13 -3
-76 -19 -141 -37 -65 -17 -126 -31 -135 -31 -12 0 -28 20 -48 61 -16 34 -54
105 -85 158 -31 53 -56 97 -54 99 10 11 251 108 256 103 4 -3 32 -41 63 -84z
m-459 -2 c83 -40 94 -53 188 -233 33 -62 56 -117 51 -121 -10 -9 -267 -61
-299 -61 -16 0 -35 30 -91 143 -40 78 -88 169 -107 202 -20 32 -34 61 -32 63
4 4 172 38 203 41 8 0 46 -15 87 -34z m-293 -133 c70 -124 131 -243 142 -278
8 -25 5 -26 -268 -65 -124 -17 -150 -19 -157 -8 -5 8 -9 48 -9 89 0 74 1 76
70 202 39 70 70 132 70 137 0 19 32 41 58 41 24 0 35 -13 94 -118z m1001 -279
c54 -116 101 -232 96 -237 -13 -12 -333 -96 -339 -89 -4 4 -13 26 -20 48 -6
22 -32 95 -57 163 -25 68 -43 125 -41 128 3 3 66 21 139 40 73 19 136 37 138
40 2 2 12 4 21 4 12 0 31 -31 63 -97z m-1550 -25 c40 -21 97 -44 127 -51 l55
-14 -45 -7 c-61 -10 -334 -34 -339 -30 -1 1 9 38 23 82 23 68 31 81 64 100
l37 21 3 -32 c3 -29 10 -36 75 -69z m1147 -35 c35 -90 100 -286 96 -290 -10
-10 -330 -75 -333 -67 -2 5 -27 79 -57 164 -29 85 -56 162 -60 171 -6 13 16
20 141 46 201 42 186 44 213 -24z m-404 -60 c23 -56 90 -253 98 -289 l7 -31
-178 -31 c-98 -17 -203 -34 -233 -38 l-55 -6 -23 106 c-12 58 -33 142 -46 186
-13 44 -20 80 -17 81 3 0 87 13 186 28 248 39 241 39 261 -6z m-483 -130 c46
-170 66 -274 54 -278 -7 -2 -79 -11 -162 -20 -82 -8 -166 -18 -186 -21 l-37
-5 -7 78 c-5 61 -17 103 -55 191 -27 61 -48 113 -47 113 4 4 326 36 367 38
l46 1 27 -97z m1444 -151 c29 -99 83 -335 83 -366 0 -8 -40 -25 -102 -44 -169
-51 -259 -74 -265 -68 -3 3 -14 60 -24 126 -10 67 -30 173 -45 236 -14 64 -23
118 -20 122 3 3 74 25 158 49 83 24 154 46 157 48 16 17 30 -7 58 -103z m-417
-104 c26 -113 73 -388 67 -394 -5 -5 -340 -84 -343 -81 -1 1 -12 70 -23 152
-12 83 -32 192 -43 242 -12 51 -19 95 -17 98 7 6 288 72 316 74 19 1 24 -9 43
-91z m-405 -69 c19 -86 51 -272 60 -356 6 -54 5 -62 -12 -67 -17 -5 -349 -66
-440 -81 -24 -4 -43 -3 -43 2 0 49 -24 302 -36 386 -8 60 -14 110 -12 112 5 4
410 72 440 74 25 1 27 -3 43 -70z m-537 -81 c16 -99 29 -224 37 -340 l7 -96
-29 -6 c-34 -7 -440 -56 -466 -56 -18 0 -19 10 -15 188 3 160 7 197 27 260 13
39 26 72 29 73 29 3 388 47 393 48 3 0 11 -32 17 -71z m-2851 30 c6 -7 13 -32
17 -56 3 -24 24 -79 46 -122 37 -74 40 -85 40 -165 0 -77 -2 -86 -17 -82 -10
3 -107 24 -215 48 -109 23 -203 46 -210 50 -8 5 0 20 28 51 22 24 53 61 69 83
33 46 204 204 221 205 6 0 16 -6 21 -12z m2233 -73 c23 -25 24 -26 11 -133 -6
-59 -21 -140 -32 -181 -14 -50 -19 -87 -15 -116 l7 -42 -128 -7 c-211 -10
-243 -10 -252 0 -15 16 -41 168 -41 242 l0 70 37 22 38 22 43 -48 43 -48 64
32 c68 33 80 48 109 139 13 39 24 54 44 62 40 14 46 13 72 -14z m2074 -167 c4
-13 10 -107 13 -209 l6 -186 -64 -21 c-35 -12 -113 -35 -174 -52 -60 -17 -117
-33 -126 -35 -14 -5 -17 18 -22 187 -4 106 -9 202 -13 213 -5 19 7 24 138 59
79 22 159 45 178 52 49 18 57 17 64 -8z m-3255 -62 c6 -7 18 -49 27 -92 9 -47
25 -95 40 -117 14 -22 24 -40 22 -41 -3 -3 -165 8 -300 19 l-88 7 0 49 c0 36
9 67 31 112 17 34 37 65 43 69 6 4 57 8 112 8 74 0 105 -4 113 -14z m2822
-117 c4 -41 7 -135 8 -210 l1 -135 -157 -37 c-87 -20 -166 -38 -175 -39 -16
-3 -18 14 -23 210 -3 162 -1 214 8 217 42 12 314 72 322 70 6 -1 13 -35 16
-76z m-4026 -13 c116 -26 220 -49 231 -51 20 -4 22 -14 29 -102 3 -54 10 -116
15 -138 4 -22 11 -79 15 -127 l7 -86 -209 43 c-114 24 -235 50 -268 58 l-60
14 2 187 c1 187 7 261 21 252 4 -2 102 -25 217 -50z m3618 -103 c10 -149 9
-278 -2 -306 -8 -21 -21 -26 -108 -41 -247 -45 -418 -74 -424 -71 -3 2 -2 28
2 57 4 29 11 126 15 215 l7 162 71 11 c109 18 326 58 371 69 22 5 45 9 51 10
7 1 13 -38 17 -106z m-3921 -125 c-2 -73 -6 -135 -8 -137 -7 -8 -219 54 -218
64 0 6 20 20 43 32 77 39 92 54 118 114 20 46 30 59 47 59 21 0 22 -2 18 -132z
m3344 -30 c-7 -163 -17 -263 -28 -273 -5 -5 -287 -43 -442 -59 l-59 -7 7 48
c4 27 9 125 13 220 l6 172 66 6 c36 4 145 17 241 30 96 12 181 23 189 24 12 1
13 -25 7 -161z m-1841 81 c118 -8 153 -14 162 -27 24 -31 55 -127 50 -157 -3
-16 -13 -82 -22 -145 -10 -63 -19 -117 -21 -118 -3 -4 -437 28 -442 33 -7 6
-22 237 -22 334 l0 104 73 -7 c39 -3 140 -11 222 -17z m1272 -161 c-4 -95 -9
-194 -13 -220 l-7 -48 -53 0 c-61 0 -56 -8 -74 117 -5 39 -10 117 -10 172 0
108 -8 122 -39 71 -10 -17 -49 -59 -87 -93 -109 -98 -244 -245 -244 -266 0
-14 -10 -20 -46 -25 -84 -11 -141 -7 -148 10 -3 9 -6 82 -6 164 l0 148 34 -34
c20 -20 44 -34 59 -34 13 0 38 -3 56 -6 30 -6 31 -5 69 74 22 44 42 90 45 101
5 19 13 21 94 22 48 1 129 4 178 8 50 5 114 9 144 9 l54 2 -6 -172z m-787 -35
l0 -178 -51 51 c-70 70 -77 109 -41 222 26 81 27 82 59 82 l33 0 0 -177z
m2785 55 c-19 -182 -29 -254 -45 -331 -10 -48 -19 -90 -22 -92 -7 -7 -348 -99
-352 -94 -2 2 2 41 10 87 7 46 18 148 25 227 l12 144 51 15 c28 7 105 30 171
49 160 46 156 47 150 -5z m-3969 -32 c71 -24 167 -62 212 -85 45 -23 85 -41
90 -41 5 0 16 16 26 36 9 20 18 35 20 33 2 -2 6 -43 9 -92 l5 -87 -52 6 c-64
8 -368 51 -418 60 -34 6 -38 10 -39 38 0 17 -4 66 -8 109 -6 68 -5 77 9 73 8
-3 74 -26 146 -50z m-850 -72 l51 -15 7 -77 c8 -93 32 -236 52 -316 8 -32 13
-61 10 -64 -6 -6 -287 67 -298 77 -5 4 0 42 9 85 16 73 16 85 -1 199 -9 67
-20 132 -23 144 l-5 22 74 -20 c40 -11 96 -27 124 -35z m4379 -61 c-10 -136
-45 -367 -56 -374 -6 -3 -79 -21 -162 -39 -84 -18 -167 -36 -184 -40 -21 -5
-33 -5 -33 2 0 25 33 135 51 171 15 29 17 42 9 52 -8 9 -8 31 -1 77 6 34 13
84 16 110 5 38 11 49 28 53 12 3 83 19 157 36 74 17 137 32 139 35 2 2 13 4
23 4 18 0 19 -6 13 -87z m-4071 -13 c99 -21 212 -44 251 -51 40 -6 77 -14 83
-18 6 -4 23 -65 37 -136 14 -72 36 -173 50 -225 13 -52 23 -96 21 -97 -4 -4
-347 60 -465 86 -46 10 -87 24 -92 32 -28 45 -93 449 -73 449 5 0 90 -18 188
-40z m3651 -27 c-2 -16 -7 -48 -10 -73 l-6 -45 -59 -2 c-33 -1 -64 -4 -70 -8
-5 -3 -10 -39 -10 -80 l0 -73 -66 -26 c-62 -25 -70 -26 -120 -15 -73 16 -164
68 -192 110 -20 29 -23 41 -17 89 4 30 8 56 9 57 0 1 82 15 181 32 99 17 209
37 245 45 36 8 77 14 92 15 25 1 27 -2 23 -26z m-3120 -73 c69 -11 364 -50
376 -50 3 0 9 -33 13 -72 5 -56 34 -271 49 -363 1 -6 -18 -9 -48 -7 -58 4
-406 50 -410 54 -7 8 -68 269 -84 357 l-19 102 27 -5 c14 -3 58 -11 96 -16z
m2515 -20 c0 -21 -15 -27 -25 -10 -16 26 -23 2 -27 -92 -4 -83 -10 -114 -30
-159 -31 -68 -43 -77 -69 -53 -37 33 -84 22 -216 -50 -67 -36 -124 -66 -126
-66 -2 0 0 26 3 58 8 61 20 91 77 180 37 58 38 74 9 144 -6 14 1 17 46 23 29
3 116 14 193 24 77 10 146 19 153 20 6 0 12 -8 12 -19z m-1855 -55 c105 -8
200 -15 212 -15 27 0 35 -26 63 -193 18 -110 21 -119 52 -145 18 -15 52 -44
76 -64 l43 -38 -108 0 c-110 0 -375 15 -450 25 -23 3 -44 12 -47 21 -7 18 -43
264 -52 357 -5 54 -4 67 7 67 8 0 100 -7 204 -15z m1291 -57 c-5 -56 -13 -83
-37 -120 -17 -26 -33 -48 -36 -48 -23 0 -83 26 -80 34 2 6 14 52 27 103 l24
92 50 4 c28 2 53 4 55 5 2 1 1 -30 -3 -70z m-477 17 c2 -10 25 -52 52 -91 38
-57 50 -85 55 -127 l6 -54 -34 -7 c-19 -3 -70 0 -113 9 -56 10 -89 12 -119 5
-22 -5 -47 -10 -53 -10 -20 0 -17 159 2 187 9 12 17 39 18 60 2 37 3 38 47 44
25 4 65 6 90 5 36 -1 46 -5 49 -21z m2391 -217 c-37 -119 -77 -222 -127 -330
l-36 -77 -126 -30 c-143 -34 -201 -45 -201 -39 0 2 15 40 34 84 39 94 99 274
116 356 l13 57 81 21 c45 12 124 33 176 48 52 15 96 24 98 20 2 -4 -11 -54
-28 -110z m-4755 13 c202 -53 202 -53 210 -93 11 -48 86 -239 133 -338 22 -47
40 -86 39 -87 -2 -1 -49 9 -106 23 -77 18 -115 33 -150 58 -68 49 -126 76
-165 76 -33 0 -36 3 -56 56 -28 76 -86 270 -95 318 -7 35 -6 39 11 34 10 -3
91 -24 179 -47z m4340 -98 c-30 -112 -77 -243 -119 -337 -34 -73 -34 -74 -82
-84 -88 -19 -366 -63 -370 -59 -2 2 27 68 65 147 38 79 84 187 102 240 l33 97
151 32 c83 17 164 36 180 40 66 20 66 20 40 -76z m-3867 -12 c108 -22 232 -45
274 -51 l76 -12 37 -107 c20 -58 59 -159 86 -225 28 -65 49 -119 47 -121 -4
-3 -379 58 -466 75 l-63 13 -48 96 c-66 132 -160 371 -146 371 3 0 95 -18 203
-39z m3406 -67 c-38 -102 -73 -184 -108 -249 l-31 -60 -3 58 -3 57 -108 0
c-119 0 -128 -4 -166 -80 -10 -19 -19 -36 -20 -38 -2 -2 -42 9 -90 23 -54 17
-85 31 -82 38 2 7 22 62 43 123 l38 111 216 32 c118 18 231 36 250 41 19 4 47
8 62 9 l27 1 -25 -66z m-2567 -60 c30 -4 32 -7 48 -82 9 -42 32 -138 50 -212
19 -74 32 -136 29 -139 -9 -9 -359 31 -370 42 -22 24 -174 403 -174 435 0 6
303 -26 417 -44z m1781 -30 c2 -35 -4 -47 -59 -111 -34 -40 -69 -73 -78 -73
-9 0 -25 -7 -35 -15 -17 -13 -136 -23 -136 -12 0 2 11 55 25 117 14 62 25 115
25 117 0 1 26 3 58 4 31 1 84 4 117 9 33 4 65 6 70 5 6 -1 11 -19 13 -41z
m-1453 6 c88 -6 224 -10 302 -10 l143 0 0 -216 0 -217 -192 7 c-106 3 -236 9
-289 13 l-96 6 -11 41 c-10 42 -79 333 -88 374 -4 21 -2 22 33 17 21 -3 110
-10 198 -15z m1114 -77 c-26 -118 -28 -124 -43 -121 -8 2 -35 -16 -62 -40 -27
-24 -78 -62 -114 -85 -42 -27 -70 -53 -79 -73 -17 -39 -40 -44 -198 -44 l-113
0 0 205 0 205 38 -16 c48 -22 91 -19 199 12 78 23 171 34 359 43 l32 1 -19
-87z m1780 -195 c-26 -52 -165 -265 -178 -273 -14 -8 -292 -66 -302 -63 -5 2
17 41 47 88 31 47 72 115 92 152 33 60 41 69 72 74 19 3 87 19 150 34 152 37
144 37 119 -12z m-4212 -33 c100 -22 106 -27 150 -102 23 -37 66 -103 97 -146
31 -43 56 -81 56 -84 0 -3 -21 -2 -47 2 -47 6 -362 71 -395 81 -29 8 -30 36
-4 63 32 33 56 101 56 157 0 24 4 44 9 44 6 0 40 -7 78 -15z m3823 -19 c0 -25
-186 -306 -204 -306 -6 0 -69 -9 -141 -20 -202 -30 -205 -29 -105 34 136 86
126 71 91 146 -17 36 -31 70 -31 76 0 6 73 24 178 41 186 32 212 36 212 29z
m-3385 -66 c99 -15 201 -31 226 -35 42 -5 48 -9 65 -47 10 -22 42 -84 71 -136
29 -53 53 -97 53 -99 0 -13 -447 39 -460 54 -36 40 -200 284 -200 298 0 4 15
5 33 1 17 -4 113 -20 212 -36z m561 -71 l143 -13 41 -129 c23 -71 39 -132 36
-134 -5 -6 -286 14 -291 19 -9 11 -145 266 -145 273 0 4 17 5 37 2 20 -4 101
-12 179 -18z m572 -35 l192 -7 0 -128 0 -129 -232 7 c-128 3 -235 7 -236 9 -7
5 -82 238 -82 253 0 11 15 13 83 8 45 -4 169 -10 275 -13z m526 -21 c-4 -16
-17 -55 -29 -88 -20 -54 -21 -64 -9 -99 8 -22 12 -42 9 -45 -3 -3 -59 -7 -125
-9 l-120 -4 0 130 0 131 123 4 c67 1 130 4 140 5 14 2 16 -3 11 -25z m1874
-112 c-6 -17 -146 -175 -220 -248 l-73 -73 -95 -10 c-52 -5 -115 -10 -140 -10
l-45 0 96 98 c53 53 112 117 133 142 l37 45 147 31 c81 17 151 32 155 33 5 0
7 -3 5 -8z m-3858 -40 c80 -16 168 -32 197 -36 49 -6 56 -11 109 -73 32 -37
87 -97 123 -134 l65 -68 -42 0 c-23 0 -110 5 -194 11 l-153 11 -43 35 c-47 39
-237 246 -254 277 -9 17 -7 18 18 13 16 -4 94 -20 174 -36z m3450 -40 c0 -5
-58 -68 -130 -140 l-129 -131 -51 0 c-27 0 -50 4 -50 9 0 5 7 28 15 51 8 23
15 73 15 110 l0 67 143 20 c171 24 187 26 187 14z m-2842 -51 c96 -11 176 -21
177 -22 0 -2 25 -41 55 -88 29 -47 60 -95 67 -106 l14 -22 -168 5 -168 4 -117
122 c-65 67 -118 126 -118 131 0 5 19 6 41 2 23 -4 120 -15 217 -26z m424 -36
l106 -7 32 -86 c18 -47 35 -92 38 -99 3 -10 -19 -12 -104 -10 l-109 3 -58 85
c-85 125 -84 120 -44 120 19 0 81 -3 139 -6z m581 -23 l37 -1 0 -96 0 -96
-182 7 c-101 4 -186 10 -190 14 -9 8 -68 159 -68 174 0 9 42 11 182 6 101 -4
200 -7 221 -8z m378 -21 c10 -27 16 -30 51 -30 44 0 44 -1 8 -86 -17 -38 -22
-42 -65 -48 -26 -3 -99 -6 -161 -6 l-114 0 0 95 0 94 83 4 c207 8 187 10 198
-23z m640 -26 c27 -9 62 -32 84 -54 38 -39 38 -40 20 -60 -17 -19 -30 -20
-182 -20 -89 0 -163 3 -163 6 0 15 62 93 87 109 51 34 78 45 92 40 8 -3 36
-13 62 -21z m-368 -46 c40 -23 74 -43 76 -45 2 -2 -4 -12 -14 -23 -16 -18 -31
-20 -123 -20 -79 0 -103 3 -99 13 2 6 13 36 23 65 24 66 40 67 137 10z m1192
-134 c-132 -111 -330 -243 -381 -255 -22 -5 -73 -8 -114 -8 l-75 0 38 20 c22
12 37 27 37 38 0 12 29 41 78 76 42 32 98 76 124 97 46 38 50 40 150 47 57 5
119 9 138 9 l35 1 -30 -25z m-2828 -64 c40 -38 100 -90 133 -116 l60 -49 -111
-3 c-125 -3 -125 -3 -234 98 -33 30 -92 72 -130 92 -113 60 -114 59 55 52
l155 -7 72 -67z m260 53 l82 -6 86 -113 85 -114 -103 0 -103 0 -94 76 c-52 43
-116 97 -142 120 l-47 44 77 0 c42 0 114 -3 159 -7z m1705 -55 c-31 -27 -101
-86 -156 -129 l-98 -79 -95 0 c-92 0 -95 1 -82 19 8 11 52 69 98 130 l83 110
147 3 c80 2 149 2 153 0 5 -2 -18 -26 -50 -54z m191 41 c3 -12 -9 -63 -28
-117 -21 -59 -31 -98 -25 -102 6 -4 0 -12 -12 -19 -16 -8 -65 -11 -150 -9
l-127 3 82 67 c45 36 115 96 155 132 40 36 79 66 86 66 8 0 16 -10 19 -21z
m-1500 -91 c67 -150 65 -138 24 -138 -63 0 -91 11 -117 45 -14 18 -53 69 -88
114 l-63 81 99 0 99 0 46 -102z m367 -23 l0 -126 -117 7 c-65 3 -121 9 -124
13 -10 9 -99 209 -99 221 0 6 59 10 170 10 l170 0 0 -125z m350 116 c0 -5 -24
-63 -53 -128 -50 -108 -56 -118 -80 -117 -15 0 -56 1 -92 2 l-65 2 0 120 0
119 78 4 c168 7 212 7 212 -2z m260 2 c0 -7 -31 -49 -124 -165 l-69 -88 -55 0
c-39 0 -53 3 -49 13 2 6 28 65 57 130 l53 117 94 0 c51 0 93 -3 93 -7z m-1370
-282 c19 -4 70 -32 112 -62 114 -80 105 -87 -49 -38 -114 36 -233 88 -233 100
0 11 123 11 170 0z m2060 -27 c0 -3 -28 -18 -62 -34 -46 -20 -68 -26 -85 -19
-16 6 -46 1 -100 -17 -80 -26 -205 -56 -210 -50 -2 2 45 27 104 57 103 51 112
54 208 59 55 4 110 7 123 8 12 1 22 -1 22 -4z m-404 -19 c-10 -7 -65 -35 -123
-60 -98 -43 -108 -45 -142 -34 -20 6 -39 14 -43 18 -4 3 20 25 54 49 l62 42
106 0 c92 -1 103 -2 86 -15z"/>
<path d="M1614 7596 c-71 -44 -124 -140 -124 -225 0 -42 4 -53 24 -66 31 -20
59 -8 81 35 20 39 19 45 -10 58 -33 15 -34 61 -1 99 40 47 84 39 186 -34 47
-33 147 -103 223 -156 l137 -96 30 41 c17 22 30 45 30 49 0 4 -98 76 -217 160
-200 140 -222 153 -268 156 -40 3 -58 -1 -91 -21z"/>
<path d="M8222 7258 c-15 -15 -15 -43 -2 -69 15 -27 64 -25 84 3 14 19 16 19
22 5 3 -9 4 -24 0 -32 -3 -8 -122 -73 -266 -145 -143 -71 -260 -135 -260 -140
0 -12 38 -90 44 -90 2 0 33 11 69 25 181 68 527 91 527 35 0 -7 -315 -170
-498 -257 -2 0 8 -24 22 -52 l26 -51 270 135 c157 78 273 143 280 154 16 31
12 76 -10 104 -34 43 -109 62 -242 62 l-116 0 102 53 c106 54 126 74 126 128
0 71 -65 144 -129 144 -20 0 -42 -5 -49 -12z"/>
<path d="M1309 7135 c-11 -25 -18 -49 -15 -53 2 -4 95 -50 205 -102 l200 -94
-56 -22 c-31 -13 -68 -34 -82 -48 -15 -14 -31 -26 -35 -26 -5 0 -66 27 -136
60 -141 67 -159 69 -209 19 -53 -52 -58 -151 -11 -194 40 -37 100 7 80 59 -9
24 -25 31 -58 27 -8 -2 -12 5 -10 16 6 32 43 25 167 -33 l121 -57 0 -39 c0
-84 63 -152 151 -164 79 -9 159 57 159 131 0 41 -27 65 -115 105 -67 30 -69
32 -50 47 53 41 152 61 221 45 l41 -9 21 50 c12 28 21 52 19 53 -6 7 -572 274
-579 274 -5 0 -18 -20 -29 -45z"/>
<path d="M974 6522 c-16 -11 -34 -48 -34 -71 0 -14 6 -21 20 -21 36 0 44 -39
21 -98 -44 -111 -16 -263 53 -287 25 -8 31 -6 53 19 28 33 30 101 3 101 -67 1
-99 69 -65 135 26 51 65 61 150 38 49 -13 53 -19 28 -39 -50 -42 -68 -161 -34
-228 27 -52 56 -69 180 -103 122 -34 158 -37 194 -13 53 35 75 150 36 199 -36
46 -99 31 -99 -25 0 -34 23 -53 55 -47 20 4 25 1 25 -14 0 -32 -26 -32 -153 2
-147 39 -155 43 -173 85 -18 43 -1 99 38 128 l27 20 155 -41 c85 -23 161 -42
168 -42 13 0 46 97 37 104 -2 1 -118 33 -257 70 -241 65 -274 70 -324 51 -13
-5 -19 0 -24 22 -12 51 -49 76 -80 55z"/>
<path d="M8502 6495 c-79 -25 -112 -47 -112 -76 0 -18 -2 -18 -39 2 l-40 20
-73 -20 c-124 -35 -162 -80 -162 -190 0 -103 62 -215 132 -242 45 -17 97 -8
331 58 130 36 238 67 240 69 9 8 -24 104 -37 104 -8 0 -127 -32 -264 -71 -226
-64 -253 -69 -280 -58 -38 15 -68 63 -68 107 0 47 41 85 115 107 82 25 114 23
159 -8 50 -34 57 -34 43 3 -16 41 8 62 99 89 85 25 120 26 128 5 9 -23 9 -23
-25 -22 -53 2 -76 -45 -39 -82 25 -25 41 -25 73 0 51 40 42 137 -18 197 -40
40 -61 41 -163 8z"/>
<path d="M1128 5518 c-155 -222 -191 -285 -202 -360 -8 -56 9 -275 30 -372 26
-123 27 -131 10 -145 -18 -15 -35 0 -131 122 -33 42 -63 76 -67 77 -24 1 13
-209 54 -309 31 -73 58 -119 134 -226 74 -104 130 -225 104 -225 -5 0 -33 15
-62 34 -53 33 -133 76 -143 76 -11 0 -4 -32 31 -147 62 -205 84 -249 189 -369
150 -172 199 -253 150 -246 -11 1 -65 25 -120 51 -55 27 -102 47 -104 45 -10
-10 51 -222 82 -288 48 -102 74 -123 218 -180 196 -77 329 -150 329 -181 0
-31 -129 -44 -257 -26 -29 4 -53 5 -53 1 0 -11 110 -181 155 -240 70 -91 144
-152 216 -179 100 -37 282 -127 317 -156 18 -15 32 -33 32 -40 0 -17 -79 -50
-157 -66 -35 -7 -63 -15 -63 -19 1 -14 218 -154 316 -204 66 -33 121 -52 214
-71 135 -29 160 -38 160 -59 0 -15 -116 -56 -160 -56 -17 0 -30 -4 -30 -9 0
-13 125 -103 201 -145 83 -46 148 -57 317 -56 159 1 232 -7 232 -26 0 -14
-100 -65 -167 -85 -24 -7 -43 -16 -43 -20 0 -24 215 -109 350 -140 100 -22
299 -25 560 -8 92 6 177 9 188 7 17 -2 0 -19 -76 -75 -53 -40 -117 -91 -142
-112 l-45 -40 100 0 c108 -1 264 18 369 45 37 9 69 15 71 12 3 -3 -6 -38 -20
-78 -14 -40 -25 -75 -25 -77 0 -2 30 -3 68 -3 l67 0 24 57 c45 103 179 260
354 415 77 68 77 68 51 78 -14 6 -29 8 -33 5 -5 -2 -77 -6 -162 -9 -150 -4
-157 -5 -246 -41 -50 -20 -130 -59 -177 -86 -48 -27 -91 -49 -98 -49 -6 0 -73
60 -147 133 -246 241 -402 350 -595 417 l-55 19 -3 -107 -3 -107 -57 86 c-115
172 -265 323 -396 396 -35 19 -65 34 -67 31 -2 -2 -7 -57 -11 -121 -4 -65 -10
-114 -14 -110 -4 4 -20 40 -35 78 -62 157 -179 370 -261 475 -82 105 -113 136
-122 122 -4 -6 -14 -59 -21 -117 -7 -58 -16 -107 -20 -109 -4 -3 -33 72 -65
167 -73 217 -124 319 -281 556 l-30 44 -16 -99 c-25 -150 -44 -186 -74 -140
-23 34 -42 156 -49 319 -4 75 -14 163 -22 195 -18 71 -80 202 -125 262 l-33
45 -17 -69 c-28 -109 -49 -158 -67 -154 -29 6 -33 58 -21 271 14 223 6 343
-27 460 l-17 58 -44 -83 c-24 -46 -53 -92 -64 -103 -19 -19 -19 -19 -19 25 0
25 16 108 35 185 40 157 51 273 40 418 l-7 97 -74 -75 c-70 -71 -104 -91 -104
-62 0 7 16 91 36 187 l36 175 -6 255 c-4 140 -10 258 -15 263 -4 4 -37 -34
-73 -85z"/>
<path d="M8520 5458 c0 -13 -7 -99 -15 -193 -21 -239 -19 -330 10 -496 26
-154 30 -199 16 -199 -4 0 -42 36 -84 79 -90 94 -84 101 -93 -119 -6 -148 -5
-162 25 -303 17 -81 31 -168 31 -193 0 -42 -2 -45 -17 -33 -9 8 -36 54 -59
104 l-43 90 -15 -35 c-40 -96 -50 -188 -51 -455 0 -193 -4 -266 -13 -283 -11
-18 -16 -21 -27 -12 -16 14 -39 81 -56 165 l-11 60 -30 -35 c-96 -114 -168
-301 -168 -439 0 -64 -27 -237 -46 -293 -35 -107 -68 -70 -86 96 l-12 105 -79
-112 c-151 -214 -191 -292 -287 -554 -19 -51 -35 -91 -37 -90 -1 2 -9 56 -17
121 -8 65 -16 120 -19 122 -2 3 -37 -30 -77 -73 -96 -103 -215 -284 -303 -463
l-72 -145 -3 123 c-1 67 -5 122 -8 122 -3 0 -36 -16 -73 -35 -138 -73 -311
-236 -422 -400 l-39 -58 0 102 c0 100 0 101 -24 101 -14 0 -27 -4 -30 -9 -3
-4 -20 -11 -38 -14 -34 -5 -189 -74 -198 -87 -3 -4 -23 -17 -45 -28 -52 -26
-212 -149 -290 -223 -65 -62 -192 -169 -199 -169 -3 0 -31 17 -63 39 -206 137
-439 209 -589 184 -36 -6 -68 -14 -70 -16 -3 -3 48 -58 113 -124 65 -65 147
-156 182 -203 59 -78 121 -189 121 -216 0 -7 10 -14 23 -18 32 -8 117 -7 117
2 0 4 -9 39 -20 77 -11 38 -20 73 -20 76 0 3 36 -4 80 -17 113 -33 238 -54
360 -60 l105 -5 -50 46 c-27 25 -89 78 -137 117 -48 39 -86 74 -83 76 2 3 131
-8 287 -24 255 -25 292 -26 388 -16 131 15 266 51 371 99 75 34 80 38 58 47
-66 27 -166 75 -184 89 -11 8 -16 19 -12 24 5 4 111 8 236 8 l228 0 94 47 c52
26 121 66 153 89 l60 43 -65 16 c-81 21 -111 34 -128 54 -18 21 0 27 170 59
167 30 256 70 462 205 l69 45 -96 31 c-53 18 -104 39 -113 49 -16 15 -15 18 3
38 24 26 170 97 289 139 50 18 104 39 120 47 67 34 226 215 304 344 l21 37
-103 -5 c-132 -7 -210 9 -205 41 4 28 160 106 332 165 71 24 141 55 156 68 38
31 103 160 133 263 27 93 37 130 32 130 -1 0 -40 -18 -86 -39 -94 -44 -156
-63 -164 -51 -9 15 73 124 176 234 82 88 109 125 139 190 39 84 110 285 110
312 0 11 -28 1 -107 -40 -58 -31 -108 -56 -110 -56 -2 0 -3 7 -3 15 0 28 49
113 116 202 37 48 81 111 99 138 63 98 119 276 113 359 l-3 41 -89 -103 c-117
-137 -150 -133 -107 12 29 99 51 254 51 365 l0 94 -54 103 c-51 96 -191 314
-201 314 -3 0 -5 -10 -5 -22z"/>
<path d="M7910 5162 c0 -27 3 -30 46 -36 26 -3 71 -6 101 -6 30 0 52 -3 49 -7
-2 -5 -50 -30 -105 -58 -100 -49 -101 -50 -101 -86 l0 -36 113 -6 c61 -4 131
-7 155 -7 40 0 42 1 42 30 l0 30 -62 1 c-35 0 -83 4 -106 7 l-44 7 111 55
c107 52 111 55 111 86 l0 32 -62 6 c-35 3 -105 8 -155 11 l-93 6 0 -29z"/>
<path d="M1751 5073 l3 -48 -127 -9 -127 -9 0 -34 0 -35 65 6 c36 3 94 9 129
12 l64 5 6 -45 c6 -41 10 -46 32 -46 l25 0 -7 118 c-3 64 -8 120 -11 125 -2 4
-16 7 -29 7 -24 0 -25 -3 -23 -47z"/>
<path d="M7919 4827 c-45 -30 -74 -111 -59 -166 19 -70 82 -111 173 -111 105
0 155 62 149 182 -6 92 -175 154 -263 95z m169 -63 c53 -34 53 -98 0 -137 -35
-26 -105 -17 -148 19 -26 22 -30 33 -30 73 0 46 1 48 38 58 44 13 108 7 140
-13z"/>
<path d="M1795 4815 c-5 -2 -70 -13 -143 -26 l-133 -22 7 -31 c3 -17 7 -32 8
-33 1 -1 31 4 68 11 l67 13 5 -26 c19 -97 19 -101 -2 -101 -12 0 -43 -5 -70
-10 -46 -10 -48 -12 -44 -40 2 -17 9 -30 16 -30 6 0 74 11 150 25 77 14 142
25 144 25 2 0 2 12 0 28 -3 27 -4 27 -64 24 l-61 -3 -7 38 c-12 79 -11 82 44
89 57 8 63 13 54 49 -6 23 -15 28 -39 20z"/>
<path d="M7816 4496 c-3 -11 -6 -26 -6 -32 0 -7 59 -26 133 -44 72 -17 139
-34 148 -36 12 -3 20 5 27 25 12 35 33 26 -180 79 l-116 29 -6 -21z"/>
<path d="M1740 4456 c-103 -30 -145 -46 -144 -57 1 -8 14 -58 29 -111 24 -86
30 -98 50 -98 12 0 24 2 27 5 3 3 -5 42 -18 87 -13 45 -23 82 -21 84 1 1 19 6
39 12 l37 10 16 -56 c9 -32 18 -64 21 -73 3 -11 12 -15 29 -11 30 5 30 9 6 90
l-19 63 24 10 c14 5 29 9 33 9 4 0 17 -35 30 -78 21 -74 24 -79 47 -74 13 2
24 9 24 16 0 15 -55 204 -61 209 -2 3 -69 -14 -149 -37z"/>
<path d="M7756 4284 c-20 -64 -35 -118 -34 -119 2 -1 13 -5 25 -9 18 -6 23 0
38 38 l17 44 116 -39 c64 -21 119 -39 123 -39 4 0 10 12 13 27 9 33 6 35 -119
75 -55 18 -103 35 -108 38 -4 4 -1 25 7 47 13 37 13 42 -1 47 -33 13 -41 2
-77 -110z"/>
<path d="M1967 4129 c-13 -8 -15 -14 -7 -29 34 -64 34 -65 -38 -96 -180 -76
-173 -71 -160 -99 6 -14 17 -25 23 -25 7 0 59 20 116 45 57 25 107 45 110 45
4 0 14 -18 23 -41 14 -35 19 -39 39 -33 12 3 24 8 26 10 7 6 -94 234 -104 234
-5 -1 -18 -5 -28 -11z"/>
<path d="M7673 4041 c-13 -16 -23 -32 -23 -34 0 -3 55 -55 122 -118 l122 -113
13 32 c12 31 12 34 -12 55 l-26 22 22 53 c21 50 23 52 59 52 33 0 39 4 48 29
10 29 10 29 -36 35 -26 3 -96 8 -157 12 l-110 6 -22 -31z"/>
<path d="M1983 3787 c-73 -39 -133 -74 -133 -77 0 -3 9 -16 19 -29 l18 -23 55
31 c30 17 57 31 60 31 7 0 58 -88 58 -99 0 -3 -27 -21 -60 -39 l-60 -33 17
-30 17 -29 51 29 c27 15 89 50 137 77 89 50 89 49 60 92 -7 10 -19 7 -55 -13
-26 -15 -51 -24 -57 -20 -11 7 -50 79 -50 92 0 4 20 19 45 32 25 13 45 28 45
33 0 14 -20 48 -28 48 -4 0 -67 -33 -139 -73z"/>
<path d="M7562 3825 c-14 -30 -18 -26 149 -112 l116 -59 15 27 16 27 -82 45
c-102 56 -183 97 -194 97 -5 0 -14 -11 -20 -25z"/>
<path d="M7470 3661 c-59 -62 -63 -122 -13 -189 35 -46 91 -72 158 -72 49 0
60 4 85 28 33 33 55 99 46 135 -3 13 -15 35 -25 48 -20 24 -20 24 -35 4 -9
-11 -13 -29 -10 -40 17 -58 16 -67 -6 -91 -30 -30 -70 -31 -122 -2 -38 22 -68
61 -68 91 0 28 41 67 70 67 18 0 33 8 43 24 20 30 14 36 -41 36 -39 0 -50 -5
-82 -39z"/>
<path d="M2240 3483 c-47 -14 -115 -33 -152 -44 l-68 -20 17 -25 c14 -22 22
-25 52 -20 33 5 38 2 64 -34 32 -45 33 -57 10 -82 -16 -18 -16 -21 -1 -46 9
-14 20 -28 25 -29 4 -1 34 35 65 80 31 45 73 105 93 134 l37 52 -22 30 c-12
17 -24 31 -28 30 -4 -1 -45 -12 -92 -26z"/>
<path d="M7304 3400 c-27 -11 -72 -65 -80 -96 -8 -31 0 -84 18 -121 18 -38 87
-83 135 -90 99 -13 185 89 159 191 -21 85 -149 150 -232 116z m112 -71 c44
-27 64 -56 64 -92 0 -40 -14 -62 -49 -77 -26 -10 -36 -9 -75 9 -76 38 -102
107 -56 156 29 31 71 32 116 4z"/>
<path d="M2358 3222 c-64 -54 -117 -99 -117 -102 0 -3 8 -15 19 -28 l19 -23
118 97 c65 53 119 100 121 103 1 4 -8 17 -20 28 l-23 21 -117 -96z"/>
<path d="M7052 3124 c-90 -71 -80 -170 19 -181 38 -4 53 0 96 26 75 47 99 41
88 -22 -5 -27 -14 -36 -41 -46 -19 -7 -42 -10 -52 -7 -24 8 -61 -29 -45 -45 6
-6 28 -13 49 -16 32 -4 46 1 80 25 42 30 74 83 74 121 0 31 -40 67 -83 75 -32
6 -46 2 -98 -29 -65 -40 -89 -40 -89 -1 0 34 37 66 75 66 19 0 39 8 49 19 17
19 17 20 -3 30 -34 19 -84 13 -119 -15z"/>
<path d="M2559 3000 c-57 -61 -105 -114 -106 -118 -2 -4 32 -39 76 -79 78 -71
79 -72 97 -52 17 19 16 21 -36 74 l-54 55 60 63 c32 34 72 76 87 93 l27 30
-24 23 -23 22 -104 -111z"/>
<path d="M6853 2919 c-52 -26 -93 -72 -93 -105 0 -28 17 -65 34 -76 24 -16 98
-7 146 17 27 14 56 22 64 19 26 -10 18 -50 -15 -78 -33 -28 -46 -31 -69 -16
-10 6 -20 4 -32 -7 -26 -23 -22 -39 11 -53 44 -18 87 -4 137 44 38 37 44 48
44 85 0 31 -6 48 -25 66 -32 33 -66 32 -143 -5 -67 -32 -92 -31 -92 5 0 28 34
59 68 61 15 1 32 3 38 3 21 2 26 35 8 48 -24 17 -32 17 -81 -8z"/>
<path d="M2774 2812 c-112 -133 -110 -129 -88 -153 9 -10 20 -19 24 -19 9 0
200 227 200 238 0 6 -11 17 -23 25 -23 15 -25 13 -113 -91z"/>
<path d="M2881 2702 l-91 -127 22 -17 c13 -10 25 -18 28 -18 3 0 21 23 40 50
19 27 38 50 41 50 3 0 29 -18 59 -40 49 -37 54 -38 66 -22 19 25 19 26 -36 68
-27 21 -50 41 -50 45 0 4 8 17 19 30 l19 23 57 -43 c45 -34 62 -42 74 -34 27
17 23 37 -11 59 -18 12 -58 40 -89 62 l-56 41 -92 -127z"/>
<path d="M6567 2707 l-29 -22 38 -147 c21 -81 41 -152 44 -159 5 -8 15 -6 33
6 22 14 24 20 16 48 -8 28 -6 34 17 54 55 44 70 48 99 25 26 -21 28 -21 51 -4
13 9 24 20 24 24 0 5 -255 198 -262 198 -2 0 -16 -10 -31 -23z"/>
<path d="M3120 2532 c-41 -70 -76 -129 -77 -132 -2 -3 43 -32 99 -64 96 -57
101 -59 114 -41 8 10 14 22 14 25 0 3 -29 23 -65 44 -75 43 -80 49 -66 73 27
46 25 46 94 4 63 -38 67 -39 77 -21 16 30 13 34 -50 71 -33 18 -60 39 -60 44
1 12 25 45 33 45 4 0 36 -18 71 -39 65 -40 69 -40 90 -4 4 8 -26 31 -88 68
-52 30 -98 55 -103 55 -4 0 -42 -58 -83 -128z"/>
<path d="M6177 2483 c-53 -26 -97 -50 -97 -54 0 -3 29 -68 64 -142 l65 -136
102 47 c57 26 104 52 106 58 2 5 -3 18 -10 28 -13 17 -17 16 -86 -19 -40 -20
-74 -35 -76 -33 -7 9 -36 70 -33 72 2 1 31 15 66 31 64 29 66 32 56 59 -8 22
-20 20 -91 -13 l-61 -29 -12 29 c-7 16 -11 31 -9 32 2 1 34 17 72 35 37 17 67
36 67 41 0 16 -12 41 -19 41 -4 0 -51 -21 -104 -47z"/>
<path d="M3557 2297 l-108 -122 31 -14 c30 -14 32 -14 53 11 l22 26 53 -20
c50 -20 52 -22 52 -58 0 -33 4 -39 30 -48 28 -10 30 -9 34 21 3 18 8 93 11
168 l6 137 -25 6 c-13 3 -30 8 -38 11 -8 2 -57 -46 -121 -118z"/>
<path d="M5868 2359 c-69 -36 -90 -123 -50 -210 27 -61 62 -90 115 -96 59 -7
123 25 143 72 17 40 18 85 3 85 -19 0 -49 -21 -49 -34 0 -25 -41 -66 -66 -66
-40 0 -64 18 -85 63 -24 54 -24 88 2 121 24 30 72 35 99 11 13 -12 23 -13 44
-5 34 12 30 28 -14 58 -41 27 -92 28 -142 1z"/>
<path d="M3885 2296 c-55 -55 -41 -110 41 -158 71 -41 85 -61 62 -85 -26 -26
-87 -7 -108 32 -8 17 -15 31 -15 32 0 1 -13 5 -29 9 -29 7 -29 7 -23 -31 11
-67 66 -105 152 -105 35 0 52 6 70 24 57 57 40 106 -59 165 -42 25 -56 39 -56
56 0 49 81 37 107 -15 7 -14 24 -28 38 -31 23 -7 25 -4 25 22 0 42 -25 75 -71
93 -58 24 -105 21 -134 -8z"/>
<path d="M5675 2293 c-11 -3 -23 -8 -27 -11 -4 -4 4 -52 17 -106 l23 -99 -88
88 c-82 82 -89 87 -119 80 -23 -5 -31 -11 -27 -23 2 -10 19 -79 37 -154 33
-136 33 -137 59 -131 14 3 27 7 29 9 2 2 -8 49 -22 106 -14 56 -24 104 -23
106 2 2 41 -38 87 -88 77 -84 86 -91 113 -86 16 4 31 8 33 10 4 3 -67 307 -70
305 -1 -1 -11 -3 -22 -6z"/>
<path d="M4221 2242 c-52 -16 -83 -99 -51 -137 8 -9 44 -32 82 -51 67 -34 79
-49 56 -72 -27 -27 -118 -2 -118 32 0 14 -21 26 -46 26 -9 0 -14 -11 -14 -29
0 -88 182 -133 235 -58 21 29 19 90 -2 110 -10 8 -45 28 -78 44 -49 23 -60 33
-60 53 0 21 5 26 32 28 40 4 73 -13 73 -37 0 -13 10 -20 32 -25 17 -3 33 -4
36 -1 12 12 -26 81 -53 96 -36 21 -91 30 -124 21z"/>
<path d="M5223 2198 c-8 -11 -73 -287 -73 -311 0 -9 33 -9 54 -1 9 3 16 16 16
29 0 30 16 41 72 48 45 6 48 5 63 -23 12 -23 23 -30 44 -30 15 0 30 3 34 6 3
3 -26 71 -66 150 -69 140 -73 144 -103 144 -17 0 -36 -6 -41 -12z"/>
<path d="M4475 2128 c-17 -188 -7 -228 62 -247 82 -23 145 -3 168 52 7 18 16
80 20 138 l7 106 -27 7 c-15 4 -30 5 -33 2 -2 -3 -9 -52 -14 -108 -11 -132
-18 -148 -62 -148 -59 0 -69 19 -61 124 3 50 8 103 11 119 5 25 3 27 -29 27
l-35 0 -7 -72z"/>
<path d="M4804 2158 c3 -13 6 -83 6 -156 l0 -133 32 3 32 3 -3 58 -2 57 56 0
c61 0 60 1 70 -72 6 -46 7 -48 39 -48 l33 0 -5 53 c-2 28 -11 63 -19 75 -13
21 -13 26 1 41 9 10 16 35 16 59 0 32 -6 45 -26 61 -23 18 -41 21 -132 21
-103 0 -104 0 -98 -22z"/>
</g>
</svg>
