 <svg  version="1.0" xmlns="http://www.w3.org/2000/svg"  width="450.000000pt" height="300.000000pt" viewBox="0 0 450.000000 300.000000"  preserveAspectRatio="xMidYMid meet">  <g transform="translate(0.000000,300.000000) scale(0.100000,-0.100000)" fill="#ffffff" stroke="none"> <path d="M694 2594 c-21 -27 -42 -50 -46 -52 -40 -18 50 -22 486 -22 389 0 495 3 499 13 4 10 -90 12 -464 13 -258 0 -471 3 -474 6 -3 3 7 20 23 38 l29 32 254 -5 c140 -3 299 -7 353 -10 109 -6 227 -26 237 -40 4 -5 9 -5 13 1 4 6 30 3 73 -9 105 -29 174 -55 165 -63 -4 -4 -2 -6 3 -4 12 4 95 -32 112 -48 7 -7 28 -22 48 -34 19 -12 35 -27 35 -32 0 -6 3 -9 6 -6 7 8 44 -28 44 -44 0 -6 3 -9 6 -5 8 7 34 -17 34 -32 0 -6 4 -11 9 -11 15 0 63 -78 55 -91 -4 -7 -3 -10 3 -6 11 7 60 -90 50 -100 -4 -3 -1 -13 5 -20 20 -24 19 -291 -1 -279 -3 2 -7 -6 -8 -17 -3 -41 -26 -127 -33 -127 -4 0 -11 -11 -14 -25 -4 -14 -11 -25 -16 -25 -6 0 -10 -5 -10 -11 0 -5 5 -7 12 -3 7 4 2 -6 -10 -23 -12 -17 -22 -36 -22 -42 0 -6 -3 -11 -8 -11 -4 0 -13 -12 -19 -27 -24 -53 -53 -94 -63 -88 -6 3 -11 1 -11 -4 -1 -6 -2 -15 -3 -21 0 -5 -10 -20 -21 -32 -10 -13 -19 -24 -18 -25 1 -1 -15 -20 -35 -42 -40 -45 -56 -46 -39 -2 6 17 15 27 21 24 5 -3 6 -2 3 4 -3 5 3 39 14 74 25 77 26 82 39 186 21 158 -28 311 -134 418 -31 32 -56 54 -56 51 0 -3 -8 2 -18 12 -27 24 -56 47 -62 48 -3 0 -21 6 -40 14 -19 7 -39 14 -45 15 -5 0 -26 6 -45 12 -19 6 -53 14 -75 18 -22 4 -46 12 -54 18 -12 9 -13 9 -7 0 7 -14 -15 -19 -27 -6 -18 18 -395 4 -562 -21 -154 -22 -169 -25 -245 -41 -40 -8 -77 -12 -82 -9 -7 4 -8 2 -4 -4 5 -8 -4 -12 -26 -12 -18 -1 -51 -7 -72 -15 -22 -8 -43 -12 -47 -9 -4 2 -10 0 -13 -5 -5 -8 -96 -26 -123 -24 -7 0 -13 -4 -13 -10 0 -6 -2 -8 -5 -5 -10 10 7 38 19 31 6 -3 8 -3 4 2 -4 4 1 20 11 34 26 36 114 129 105 111 -6 -12 -5 -13 7 -3 11 9 115 12 404 12 307 0 390 3 396 13 17 26 9 48 -23 62 -25 11 -28 15 -13 16 33 2 169 12 180 13 6 0 11 15 11 33 0 18 -4 30 -9 27 -4 -2 -13 0 -20 5 -7 5 -172 9 -404 8 -231 -1 -388 3 -383 8 5 5 216 9 479 9 268 0 471 4 471 9 0 5 4 7 9 4 9 -6 7 37 -4 53 -4 8 -148 11 -446 11 -291 0 -438 3 -434 10 4 6 185 10 509 10 536 0 535 0 523 47 -4 16 -6 15 -12 -4 l-7 -23 -507 0 -507 0 -27 -28 c-15 -15 -27 -30 -27 -33 0 -2 209 -3 465 -1 412 2 465 1 465 -13 0 -13 -56 -15 -477 -16 l-478 0 -28 -35 -29 -34 431 0 c376 0 431 -2 431 -15 0 -13 -56 -15 -442 -16 l-443 0 -28 -35 -29 -34 396 0 c345 0 396 -2 396 -15 0 -13 -52 -15 -407 -16 l-408 0 -97 -122 c-53 -67 -96 -123 -94 -124 1 -1 47 11 102 26 209 61 513 119 732 142 145 15 463 6 556 -15 140 -32 280 -122 345 -224 53 -84 73 -154 73 -267 -1 -154 -50 -316 -146 -480 l-47 -80 86 85 c291 286 445 638 396 905 -35 191 -218 389 -447 485 -178 74 -371 100 -790 107 l-311 5 -39 -48z m246 -321 c-8 -3 -18 -10 -21 -16 -4 -5 -15 -7 -25 -2 -24 9 -335 12 -340 3 -3 -4 -15 -3 -28 2 -12 4 -29 4 -36 0 -8 -5 -19 -6 -24 -2 -6 3 0 9 14 13 31 8 481 10 460 2z m132 1 c71 -7 88 -20 21 -17 -57 3 -125 12 -131 18 -7 7 28 6 110 -1z m839 -1081 c-12 -20 -14 -14 -5 12 4 9 9 14 11 11 3 -2 0 -13 -6 -23z"/> <path d="M1010 1981 c-224 -241 -343 -455 -377 -681 -31 -202 24 -359 176 -510 219 -217 449 -277 1126 -296 l240 -6 53 66 53 67 -500 -3 c-473 -3 -501 -2 -501 15 0 16 29 17 513 17 l512 -1 24 31 24 30 -462 0 c-403 0 -461 2 -461 15 0 13 59 15 474 15 l475 0 25 32 25 33 -429 3 c-373 2 -430 4 -430 17 0 8 -4 15 -10 15 -14 0 -12 -12 6 -35 14 -19 25 -20 415 -18 335 1 399 0 389 -12 -9 -11 -97 -13 -473 -13 -254 0 -467 -1 -474 -1 -6 -1 -10 -14 -9 -31 1 -16 0 -31 -3 -33 -3 -2 0 -2 7 -1 6 2 12 0 12 -4 0 -4 196 -6 435 -6 249 1 435 -2 435 -7 0 -9 -230 -12 -748 -10 -134 1 -247 3 -252 6 -4 2 -15 -4 -25 -15 -20 -22 -13 -56 13 -64 9 -3 223 -4 474 -3 503 2 485 4 425 -56 l-28 -28 -252 6 c-266 6 -350 11 -407 25 -19 5 -51 8 -70 7 -20 0 -40 2 -45 5 -6 3 -38 9 -73 13 -40 4 -65 12 -69 21 -4 11 -9 12 -19 3 -11 -9 -14 -8 -14 1 0 7 -7 10 -16 6 -8 -3 -28 1 -45 9 -16 9 -29 12 -29 9 0 -4 -8 0 -18 9 -10 10 -21 14 -24 11 -4 -3 -17 2 -30 10 -14 9 -28 13 -33 9 -4 -5 -5 0 -2 10 4 10 3 16 -1 13 -22 -13 -140 68 -209 145 -124 137 -170 271 -152 442 13 127 40 227 61 227 6 0 7 7 4 15 -5 15 6 44 31 75 6 8 12 17 13 20 7 37 15 50 26 46 7 -3 11 0 8 7 -6 17 100 173 116 169 6 -1 9 2 5 8 -4 6 10 27 29 48 20 20 36 39 36 43 0 4 9 9 20 12 20 5 20 5 0 -20 -11 -14 -20 -32 -20 -40 0 -8 -5 -11 -12 -7 -6 4 -8 3 -5 -3 3 -5 -1 -29 -10 -54 -33 -95 -44 -148 -49 -244 -7 -110 11 -213 46 -269 10 -17 20 -35 22 -41 9 -32 112 -129 178 -169 58 -35 126 -62 148 -58 6 2 12 -2 12 -7 0 -6 7 -7 17 -4 11 4 14 3 9 -5 -5 -8 -2 -10 8 -6 9 3 46 1 83 -6 118 -20 296 -20 493 0 102 11 204 24 226 29 23 6 65 13 95 16 30 2 115 21 189 40 74 20 144 37 155 38 11 1 25 5 30 8 6 4 23 9 39 13 28 7 28 6 -21 -56 -28 -35 -57 -61 -64 -60 -8 2 -11 0 -7 -4 4 -4 0 -20 -9 -35 -20 -34 27 -31 -469 -29 -313 1 -353 0 -368 -15 -19 -19 -19 -25 -3 -46 11 -15 53 -17 372 -18 201 0 363 -5 368 -10 5 -5 -141 -9 -369 -9 -525 -1 -526 -1 -519 -12 4 -6 165 -10 449 -10 l443 0 26 30 c15 16 27 32 27 34 0 2 -178 4 -395 3 -372 -2 -395 -1 -395 16 0 16 24 17 408 16 l407 -1 104 128 c57 70 96 124 85 120 -44 -18 -373 -97 -501 -121 -310 -56 -608 -73 -803 -46 -233 33 -400 150 -472 329 -19 49 -22 74 -22 182 1 106 5 138 27 213 28 89 94 232 141 300 45 65 10 40 -84 -62z"/> <path d="M1343 2025 c-211 -57 -353 -239 -353 -454 0 -275 225 -486 498 -469 97 7 176 36 255 96 187 143 237 398 119 609 -96 173 -326 270 -519 218z m301 -43 c175 -82 275 -250 264 -443 -13 -217 -172 -388 -393 -420 -289 -41 -553 227 -506 515 29 172 140 308 300 364 56 19 81 22 167 19 88 -3 109 -8 168 -35z"/> <path d="M1357 2000 c-126 -32 -244 -129 -300 -247 -30 -64 -32 -74 -32 -183 0 -109 2 -119 32 -183 77 -162 227 -257 408 -257 178 1 339 114 406 289 32 80 31 223 0 303 -45 116 -144 215 -259 259 -64 25 -193 34 -255 19z m244 -35 c66 -22 160 -93 200 -151 152 -221 73 -512 -171 -627 -116 -55 -272 -47 -386 19 -60 35 -141 125 -172 191 -24 52 -27 69 -27 173 0 109 2 118 32 181 59 119 178 208 312 233 71 13 131 8 212 -19z"/> <path d="M1382 1969 c-199 -38 -345 -227 -329 -427 14 -188 152 -340 339 -375 168 -31 356 68 433 228 37 78 47 214 21 297 -36 112 -134 217 -243 258 -60 23 -159 31 -221 19z m74 -11 c4 -7 3 -8 -4 -4 -7 4 -12 2 -12 -3 0 -6 9 -11 19 -11 24 0 34 -14 27 -38 -12 -37 -69 -14 -60 24 4 14 2 24 -5 24 -15 0 -14 -41 2 -60 7 -8 24 -16 38 -16 22 -1 28 4 37 32 7 25 7 36 -2 44 -7 5 -16 7 -19 3 -4 -3 -7 -1 -7 6 0 13 22 9 105 -16 287 -88 370 -465 147 -664 -26 -23 -72 -54 -102 -68 -49 -23 -67 -26 -165 -26 -104 0 -113 2 -171 32 -77 40 -145 107 -178 176 -28 58 -39 124 -19 120 9 -2 11 6 6 27 -3 19 -1 30 5 30 7 0 9 7 5 17 -4 11 -3 14 6 9 7 -5 10 -14 7 -22 -3 -8 -1 -14 5 -14 6 0 9 -16 8 -37 -2 -21 1 -39 7 -41 10 -2 15 57 5 73 -11 20 -9 35 5 35 8 0 11 -6 7 -17 -4 -10 -2 -14 4 -10 6 4 13 16 16 27 4 18 2 20 -16 14 -36 -10 -42 -10 -42 5 0 8 7 16 15 18 13 4 13 3 0 -7 -13 -10 -13 -11 0 -7 8 2 14 10 12 16 -1 6 7 11 19 11 20 0 56 27 47 36 -9 8 -38 -8 -32 -18 4 -6 -1 -8 -14 -4 -11 4 -23 2 -27 -4 -3 -5 -10 -10 -16 -10 -5 0 -4 9 3 20 7 11 18 18 24 16 17 -7 60 42 56 64 -4 26 16 35 38 15 17 -15 20 -15 50 3 l32 20 -59 7 c-40 4 -60 11 -60 20 0 7 6 11 12 8 7 -2 15 3 18 11 4 9 15 16 25 16 10 0 23 5 30 12 8 8 15 8 26 -1 11 -9 24 -10 55 -1 48 13 53 27 11 28 -17 0 -28 -3 -25 -9 4 -5 -2 -6 -11 -2 -12 4 -15 3 -10 -5 4 -7 2 -12 -3 -12 -6 0 -11 7 -11 15 0 8 5 15 12 15 6 0 9 3 6 6 -3 3 -26 0 -49 -8 -45 -13 -167 -120 -161 -141 2 -5 -3 -14 -10 -18 -10 -6 -10 -11 -1 -20 10 -10 9 -15 -5 -25 -9 -7 -18 -25 -19 -41 -2 -36 -14 -107 -19 -112 -26 -28 -7 138 25 212 25 58 100 139 161 175 25 15 74 35 110 44 80 21 77 21 86 6z m-264 -190 c-6 -6 -8 -17 -5 -24 8 -21 -45 -63 -60 -47 -8 7 16 32 26 26 4 -2 7 0 7 6 0 5 -6 11 -12 14 -7 2 -2 2 11 0 21 -4 23 -2 12 11 -11 13 -11 16 3 16 11 0 14 5 10 12 -5 7 -3 8 5 3 9 -5 9 -11 3 -17z m73 2 c3 -5 -1 -10 -9 -10 -9 0 -16 5 -16 10 0 6 4 10 9 10 6 0 13 -4 16 -10z"/> <path d="M1440 1921 c0 -6 5 -13 12 -17 7 -5 8 -3 3 6 -6 10 -4 12 8 7 10 -3 17 -2 17 3 0 6 -9 10 -20 10 -11 0 -20 -4 -20 -9z"/> <path d="M1579 1876 c9 -11 9 -16 0 -22 -8 -4 -9 -3 -5 4 8 13 6 14 -41 18 -44 3 -42 -13 3 -25 38 -10 64 -6 64 12 0 5 8 3 18 -6 10 -10 25 -17 33 -17 8 0 22 -9 32 -20 10 -12 23 -18 29 -14 6 4 8 3 5 -3 -4 -6 -35 -14 -68 -18 l-62 -7 32 -20 c29 -19 33 -19 50 -4 25 23 41 20 41 -7 0 -37 29 -70 57 -64 15 3 22 0 20 -7 -3 -6 3 -20 12 -30 11 -14 12 -17 2 -11 -10 6 -12 4 -6 -5 12 -19 24 -81 15 -75 -5 3 -11 1 -14 -4 -3 -5 3 -11 14 -14 24 -6 27 -37 4 -37 -8 0 -12 -4 -9 -10 3 -5 1 -10 -5 -10 -6 0 -9 -4 -6 -8 2 -4 1 -14 -4 -22 -8 -13 -11 -13 -22 -1 -10 10 -10 12 0 7 7 -5 12 0 13 11 4 52 2 77 -8 80 -6 2 -10 -12 -8 -36 2 -32 -1 -38 -13 -33 -10 3 -11 7 -5 9 13 5 6 33 -8 33 -12 0 -11 -37 1 -45 6 -3 10 -17 10 -29 0 -19 5 -23 28 -20 15 2 19 1 10 -2 -10 -3 -18 -14 -18 -25 0 -10 -5 -19 -11 -19 -6 0 -9 -6 -6 -13 3 -8 -1 -14 -8 -14 -7 0 -10 8 -7 19 2 10 8 18 13 18 5 0 -1 16 -13 36 -21 35 -22 36 -30 14 -4 -12 -6 -26 -3 -30 3 -5 -6 -25 -19 -45 -14 -20 -28 -46 -32 -57 -6 -19 -7 -20 -16 -4 -7 12 -5 24 6 41 18 27 21 65 6 65 -6 0 -9 3 -9 8 4 23 -3 42 -15 42 -8 0 -18 5 -21 10 -10 16 15 80 30 80 7 0 18 13 23 29 11 30 -2 52 -37 63 -12 3 -10 9 7 26 30 30 28 49 -7 54 -17 2 -28 1 -25 -4 3 -4 12 -8 20 -8 21 0 17 -21 -6 -27 -11 -3 -20 -13 -20 -22 0 -9 9 -22 20 -29 12 -7 20 -23 20 -38 0 -16 4 -23 12 -18 7 4 8 3 4 -4 -11 -18 -13 -16 -52 42 -20 30 -42 57 -50 60 -11 4 -11 11 -4 31 11 29 6 42 -44 115 -17 25 -32 47 -33 49 -4 7 -53 -55 -75 -97 -22 -41 -22 -43 -5 -73 9 -17 17 -45 17 -64 0 -40 15 -54 58 -50 41 3 42 -15 2 -48 -20 -18 -28 -31 -23 -43 4 -12 2 -15 -8 -12 -8 3 -14 11 -15 19 0 8 -2 25 -4 39 -2 24 -3 23 -9 -5 -4 -19 -13 -31 -26 -34 -19 -3 -19 -2 -3 15 9 11 18 33 20 49 2 24 -1 30 -15 29 -14 -2 -15 1 -6 13 10 11 10 13 -1 11 -25 -5 -23 31 2 41 17 7 19 10 6 10 -10 1 -18 5 -18 10 0 5 -9 13 -21 16 -12 4 -18 12 -15 21 3 8 1 14 -4 14 -16 0 -11 -37 6 -44 8 -3 12 -10 9 -16 -4 -6 1 -7 11 -3 12 4 15 3 10 -5 -4 -7 -23 -12 -41 -12 -46 0 -60 -26 -45 -78 7 -20 16 -50 21 -66 8 -29 -4 -52 -22 -40 -4 2 -12 -17 -18 -43 -9 -42 -8 -51 10 -76 12 -16 18 -32 14 -35 -10 -10 -65 -10 -66 -1 -1 5 -2 13 -3 18 -2 14 -16 26 -16 13 0 -6 -7 -12 -17 -14 -14 -3 -14 -5 2 -18 11 -9 16 -10 11 -2 -4 6 -2 12 3 12 6 0 11 -7 11 -15 0 -8 5 -15 10 -15 6 0 10 -7 10 -15 0 -11 7 -14 26 -11 16 3 27 0 31 -10 7 -18 27 -18 43 1 17 21 40 19 40 -4 0 -16 10 -20 64 -26 36 -4 69 -4 75 -1 5 4 12 2 16 -4 8 -12 55 -13 55 -1 0 5 -8 12 -17 16 -16 6 -15 8 7 25 18 13 28 16 37 8 10 -8 13 -6 13 6 0 18 -22 21 -51 6 -12 -7 -19 -7 -19 -1 0 15 34 31 64 31 26 0 32 -13 20 -44 -7 -18 -34 -22 -34 -4 0 6 -3 8 -7 4 -8 -8 23 -36 39 -36 4 0 8 9 8 20 0 17 5 19 30 15 21 -4 30 -1 30 8 0 7 8 22 18 33 10 11 17 24 15 30 -2 6 7 10 19 10 13 -1 22 4 20 12 -1 6 2 12 8 12 5 0 10 6 10 14 0 7 7 19 15 26 9 7 14 18 12 24 -3 6 4 26 15 44 16 26 18 38 9 62 -5 17 -8 37 -5 44 3 8 1 17 -4 20 -6 3 -8 15 -5 25 3 11 -2 29 -10 41 -8 12 -13 30 -10 41 8 30 -109 144 -168 164 -59 19 -65 19 -50 1z m-116 -32 c-7 -3 -9 -12 -6 -21 4 -11 2 -14 -5 -9 -7 4 -12 1 -12 -7 0 -8 -6 -20 -14 -26 -15 -12 -16 -68 -2 -90 6 -10 5 -12 -5 -9 -8 3 -21 16 -29 31 -14 24 -12 29 24 81 21 31 44 56 50 55 7 0 7 -2 -1 -5z m41 -54 c27 -41 34 -84 15 -96 -19 -11 -29 10 -20 42 7 23 4 35 -10 53 -17 21 -25 41 -15 41 2 0 15 -18 30 -40z m-36 3 c-1 -5 3 -18 10 -30 9 -17 10 -28 2 -43 -13 -25 -17 -25 -17 -2 0 9 5 20 11 24 6 5 1 8 -12 8 -19 0 -22 -4 -16 -27 6 -27 6 -27 -9 -8 -16 20 -13 38 12 67 17 19 22 22 19 11z m292 -38 c0 4 7 2 15 -5 8 -7 15 -18 15 -24 0 -6 -5 -4 -10 4 -8 13 -11 13 -22 1 -7 -8 -8 -11 -3 -9 11 7 37 -17 28 -25 -13 -14 -63 22 -63 45 0 10 2 10 9 -1 6 -9 11 -10 15 -3 4 6 -3 16 -14 22 -11 6 -18 16 -14 21 3 6 14 1 25 -12 10 -12 19 -19 19 -14z m-90 15 c0 -5 -7 -10 -16 -10 -8 0 -12 5 -9 10 3 6 10 10 16 10 5 0 9 -4 9 -10z m-186 -86 c9 -3 16 -10 16 -16 0 -5 -4 -6 -10 -3 -5 3 -10 2 -10 -4 0 -7 -8 -7 -24 -1 -21 7 -23 6 -19 -11 5 -19 43 -27 43 -9 0 6 5 10 10 10 6 0 10 -6 10 -14 0 -8 4 -18 10 -21 6 -4 7 6 3 26 -5 26 -3 30 12 28 10 -2 23 -12 29 -22 15 -25 -30 -62 -53 -44 -8 7 -12 8 -9 2 4 -6 -10 -10 -35 -9 -39 1 -41 2 -41 35 -1 47 27 69 68 53z m-154 -48 c0 -2 -7 -9 -15 -16 -12 -10 -15 -10 -15 4 0 9 7 16 15 16 8 0 15 -2 15 -4z m-41 -13 c-1 -5 -1 -17 0 -28 2 -19 2 -19 20 2 16 19 21 20 31 8 9 -11 7 -17 -9 -27 -27 -17 -27 -31 0 -23 17 6 20 3 17 -16 -4 -27 -28 -38 -29 -12 0 10 -3 13 -6 6 -9 -23 -23 -14 -23 15 0 15 -5 33 -11 39 -7 7 -9 19 -6 27 6 16 18 22 16 9z m362 -10 c13 -16 12 -17 -3 -4 -17 13 -22 21 -14 21 2 0 10 -8 17 -17z m-51 -23 c12 -22 3 -90 -11 -90 -5 0 -9 6 -9 13 0 7 -5 5 -10 -5 -14 -23 -47 -12 -59 21 -8 22 -10 23 -10 5 -1 -11 -10 -29 -21 -39 -26 -23 -26 -35 0 -28 11 3 18 9 15 13 -2 4 13 7 35 6 46 -2 118 -52 100 -70 -5 -5 -10 -16 -10 -24 0 -12 3 -12 15 -2 12 10 15 9 15 -5 0 -12 -6 -16 -20 -12 -10 3 -25 -1 -31 -9 -9 -11 -15 -11 -25 -3 -16 13 -19 43 -4 34 6 -3 10 -2 10 4 0 5 6 16 13 23 10 11 10 16 -5 30 -10 10 -20 13 -23 8 -4 -6 -1 -10 6 -10 8 0 9 -3 0 -13 -6 -8 -8 -17 -4 -20 3 -4 -5 -7 -18 -7 -14 0 -19 -3 -13 -8 7 -4 8 -15 4 -27 -7 -19 -8 -18 -18 7 -11 27 -32 47 -32 29 0 -5 5 -13 10 -16 6 -3 10 -13 10 -22 0 -11 -5 -9 -19 8 -20 25 -31 23 -35 -5 -3 -19 -19 -23 -24 -7 -2 6 1 11 7 11 18 0 13 58 -6 69 -10 5 -15 13 -11 17 4 4 14 1 22 -5 12 -10 14 -9 9 8 -5 19 9 43 63 106 21 25 21 25 39 5 22 -25 11 -39 -16 -21 -12 7 -24 10 -27 7 -8 -9 30 -35 50 -36 21 0 28 32 9 46 -8 6 -11 16 -7 22 11 18 24 14 36 -8z m-219 -27 c-6 -11 -11 -13 -11 -5 0 7 -4 11 -9 7 -5 -3 -12 -1 -15 4 -4 5 4 11 16 13 30 5 32 3 19 -19z m26 -98 c-2 -14 3 -27 15 -34 23 -14 24 -34 1 -29 -10 2 -18 10 -18 17 0 8 -6 16 -13 19 -10 3 -10 -2 -1 -22 7 -14 16 -26 21 -26 4 0 8 -4 8 -10 0 -5 -7 -7 -15 -4 -26 10 -16 -10 13 -27 31 -17 63 -6 55 19 -3 6 0 12 6 12 6 0 10 -3 10 -7 -4 -27 1 -35 16 -23 9 7 18 10 22 6 10 -10 -9 -24 -37 -28 -14 -2 -30 -7 -37 -11 -6 -4 -14 -3 -18 3 -4 6 -12 7 -18 4 -7 -4 -9 -4 -5 1 4 4 -3 16 -16 26 -18 14 -41 19 -86 19 -51 0 -60 2 -51 13 6 8 8 16 5 20 -3 3 5 3 18 1 23 -5 23 -5 -2 10 -27 17 -24 18 35 17 22 0 33 2 25 6 -8 3 -21 11 -29 17 -11 8 -13 8 -7 -1 4 -7 3 -13 -3 -13 -5 0 -12 4 -16 9 -9 16 35 24 52 9 12 -9 15 -9 9 -1 -5 9 -2 11 10 6 12 -4 15 -2 12 8 -3 8 -15 13 -30 11 -15 -2 -28 3 -31 11 -4 11 5 11 50 3 49 -9 54 -12 50 -31z m333 -67 c0 -6 -7 -5 -15 2 -8 7 -15 17 -15 22 0 6 7 5 15 -2 8 -7 15 -17 15 -22z m-27 -59 c-10 -19 -26 -35 -36 -37 -16 -3 -16 0 -5 20 7 12 19 28 26 36 6 7 12 19 12 25 0 7 3 8 10 1 7 -7 4 -21 -7 -45z m-156 16 c-4 -8 -1 -17 5 -21 7 -4 8 -3 4 4 -4 7 -2 12 3 12 6 0 11 -6 11 -12 1 -8 6 -6 14 5 7 9 22 17 32 17 17 0 17 -1 1 -17 -10 -11 -31 -17 -57 -16 -34 1 -39 -2 -29 -13 9 -11 8 -15 -3 -19 -16 -7 -20 -35 -5 -35 6 0 7 -3 4 -7 -4 -3 -2 -12 4 -20 21 -24 -10 -15 -59 19 -40 27 -55 32 -119 34 -40 1 -73 -2 -73 -7 0 -5 8 -9 17 -9 13 0 14 -3 5 -12 -9 -9 -15 -8 -27 8 -8 10 -13 24 -11 29 4 15 145 18 162 4 11 -9 18 -9 26 -1 16 16 41 15 35 0 -2 -7 -11 -12 -21 -10 -9 2 -16 -2 -16 -7 0 -11 49 -12 51 -1 4 26 9 41 24 64 19 28 30 35 22 11z m-181 -10 c17 -14 14 -15 -40 -13 -37 2 -61 8 -64 16 -6 18 79 16 104 -3z m-116 -63 c0 -5 -7 -9 -15 -9 -8 0 -12 4 -9 9 3 4 9 8 15 8 5 0 9 -4 9 -8z m180 -12 c0 -5 -7 -10 -15 -10 -8 0 -15 5 -15 10 0 6 7 10 15 10 8 0 15 -4 15 -10z m33 -30 c4 -4 -5 -6 -20 -4 -15 1 -38 2 -50 3 -13 1 -23 4 -23 9 0 9 82 3 93 -8z"/> <path d="M1510 1459 c0 -6 -9 -9 -19 -6 -12 3 -22 -1 -26 -10 -4 -12 0 -14 15 -10 11 3 23 1 26 -4 3 -5 11 -9 17 -8 9 0 9 2 0 6 -19 7 -16 24 3 21 10 -2 19 3 21 10 3 7 -4 12 -16 12 -12 0 -21 -5 -21 -11z"/> <path d="M1591 1394 c-12 -27 -11 -28 4 -12 10 9 16 21 13 28 -2 7 -10 -1 -17 -16z"/> <path d="M1370 1455 c-14 -16 -3 -20 19 -6 8 5 9 11 3 15 -5 3 -15 -1 -22 -9z"/> <path d="M1338 1423 c-16 -2 -28 -8 -28 -12 0 -11 49 -1 56 10 3 5 4 8 2 8 -2 -1 -15 -4 -30 -6z"/> <path d="M1295 1389 c-21 -5 -11 -7 33 -6 34 0 62 4 62 7 0 9 -54 8 -95 -1z"/> <path d="M1706 1673 c-10 -11 25 -35 45 -30 14 4 19 1 17 -10 -2 -9 4 -18 12 -20 9 -3 11 -1 5 4 -5 4 -10 15 -10 23 0 10 -8 14 -23 13 -13 -2 -21 1 -18 6 7 10 -19 23 -28 14z"/> <path d="M1737 1590 c5 -18 15 -24 36 -21 4 0 7 -4 7 -10 0 -5 5 -7 10 -4 20 12 9 33 -21 44 -18 6 -33 11 -35 11 -1 0 0 -9 3 -20z m43 -4 c0 -11 -19 -15 -25 -6 -3 5 1 10 9 10 9 0 16 -2 16 -4z"/> <path d="M1100 1550 c0 -5 5 -10 11 -10 5 0 7 5 4 10 -3 6 -8 10 -11 10 -2 0 -4 -4 -4 -10z"/> <path d="M1795 1520 c3 -5 11 -10 16 -10 6 0 7 5 4 10 -3 6 -11 10 -16 10 -6 0 -7 -4 -4 -10z"/> <path d="M1160 1505 c-9 -11 -10 -16 -2 -11 6 4 12 3 12 -2 0 -6 -7 -12 -15 -16 -8 -3 -15 -12 -15 -21 0 -18 -16 -20 -26 -3 -4 7 -3 8 4 4 8 -5 10 -2 6 8 -3 9 -10 16 -16 16 -5 0 -7 4 -4 8 3 5 -1 9 -8 9 -11 0 -11 -5 0 -25 7 -13 10 -31 7 -38 -3 -8 2 -17 11 -20 9 -3 16 -15 16 -26 0 -12 4 -17 12 -12 8 5 9 2 5 -10 -9 -22 18 -32 39 -15 14 11 18 10 30 -5 7 -10 15 -24 17 -30 2 -6 8 -8 12 -4 9 9 -26 68 -41 68 -7 0 -15 -6 -17 -12 -4 -9 -6 -10 -6 -1 -1 6 6 19 15 27 9 10 13 24 9 36 -8 25 -21 26 -28 1 -3 -15 -1 -18 12 -14 13 5 14 3 4 -7 -16 -18 -53 -20 -53 -4 0 7 -8 15 -17 18 -10 3 -5 4 10 2 22 -3 27 0 25 14 -2 9 3 24 10 33 8 9 12 24 10 33 -3 16 -4 16 -18 -1z m13 -135 c3 -12 0 -20 -7 -20 -6 0 -12 9 -12 20 0 11 3 20 7 20 4 0 9 -9 12 -20z"/> <path d="M2855 1928 c-10 -22 -17 -23 -152 -28 -161 -6 -178 -13 -190 -83 l-6 -37 66 0 c60 0 66 2 69 23 3 21 8 22 102 25 111 3 116 1 116 -61 0 -35 -1 -37 -21 -27 -13 7 -69 10 -156 8 -169 -4 -173 -7 -173 -133 0 -112 12 -128 106 -133 59 -3 73 -1 97 18 16 13 27 31 27 46 0 33 -45 78 -71 71 -17 -5 -20 -1 -17 26 l3 32 88 3 c57 2 94 -1 103 -9 10 -8 14 -36 14 -100 l0 -89 68 0 67 0 -5 186 c-5 179 -6 187 -28 204 -23 19 -23 19 -3 30 11 6 25 19 31 30 10 19 7 20 -57 20 -61 0 -69 -2 -78 -22z m84 -16 c-9 -14 -7 -26 10 -57 19 -36 21 -56 21 -197 l0 -158 -42 1 -43 2 40 7 40 7 -42 2 -43 1 0 67 c0 55 -4 71 -22 90 -19 21 -30 23 -113 23 -102 0 -115 -7 -115 -57 0 -20 -8 -41 -20 -53 -24 -24 -26 -53 -4 -74 14 -14 14 -16 0 -16 -18 0 -65 21 -67 29 -1 3 -3 43 -5 89 -2 74 -1 83 18 93 24 13 287 18 291 5 2 -5 11 -1 20 8 24 25 22 88 -3 111 -23 21 -32 23 -105 26 -62 3 -93 -7 -126 -37 -17 -16 -34 -23 -50 -20 -13 3 -27 5 -31 5 -5 1 -8 11 -8 23 0 12 3 19 6 16 3 -4 14 2 25 13 17 17 34 19 148 19 105 0 133 3 145 16 9 8 14 20 11 25 -4 5 12 9 34 9 37 0 40 -2 30 -18z m-261 -356 c5 -26 -12 -40 -42 -32 -25 6 -35 33 -19 50 14 14 58 1 61 -18z m22 -33 c-11 -17 -11 -17 -6 0 3 10 7 28 7 40 2 22 2 22 6 0 2 -12 -1 -30 -7 -40z"/> <path d="M3201 1900 c-18 -4 -45 -17 -60 -27 -33 -24 -71 -98 -71 -138 l0 -30 162 0 163 0 3 -77 c3 -74 2 -78 -21 -83 -12 -3 -50 -5 -82 -3 l-60 3 -3 68 -3 67 -69 0 -70 0 0 -66 c0 -120 22 -134 220 -134 158 0 203 11 220 55 12 30 13 185 2 201 -19 28 -56 35 -190 33 -75 0 -136 2 -134 5 1 3 2 11 2 16 0 6 9 19 20 30 24 24 84 26 156 6 51 -15 90 -20 137 -18 27 2 28 4 21 40 -9 48 -13 55 -27 44 -26 -20 -69 -21 -158 -2 -102 21 -108 22 -158 10z m93 -16 c20 -8 21 -21 1 -21 -8 0 -12 4 -9 9 3 4 -5 8 -18 8 -17 0 -19 -3 -9 -9 11 -7 8 -10 -10 -16 -47 -15 -77 -82 -46 -102 6 -4 75 -8 152 -9 78 0 145 -3 150 -6 6 -3 9 -50 7 -108 l-3 -102 -34 -14 c-50 -20 -86 -19 -78 4 3 9 12 24 20 33 7 9 10 19 6 23 -4 4 -1 11 7 16 10 7 11 10 3 10 -7 0 -13 7 -13 16 0 8 5 12 11 8 7 -4 7 1 -1 16 -6 12 -9 28 -6 36 3 8 -3 23 -14 34 -18 18 -34 20 -170 20 -82 0 -150 4 -150 9 0 20 24 77 40 92 42 42 125 68 164 53z m121 -28 c11 -2 26 -4 33 -5 7 0 10 -7 7 -13 -4 -7 -1 -6 7 3 15 18 62 33 52 17 -4 -6 0 -14 7 -19 11 -7 9 -9 -6 -10 -11 0 -29 -2 -39 -4 -11 -2 -25 -1 -30 3 -6 3 -15 7 -21 7 -5 1 -17 4 -25 7 -8 3 -31 11 -50 17 l-35 11 40 -6 c22 -3 49 -7 60 -8z m-217 -213 c4 -10 8 -34 7 -53 0 -22 7 -42 19 -52 19 -18 18 -18 -7 -18 -15 0 -27 -4 -27 -9 0 -16 -51 2 -62 23 -6 11 -13 45 -14 74 l-2 52 38 0 c28 0 42 -5 48 -17z m145 -140 c-24 -2 -62 -2 -85 0 -24 2 -5 4 42 4 47 0 66 -2 43 -4z"/> <path d="M3670 1887 c-43 -22 -50 -50 -50 -218 0 -187 2 -192 96 -187 l58 3 29 80 c16 44 30 85 32 92 3 9 10 9 30 -1 32 -17 61 -10 80 17 21 31 18 60 -8 85 -56 52 -111 13 -151 -108 -31 -94 -33 -118 -5 -70 11 19 17 26 14 15 -23 -67 -28 -75 -48 -75 -18 0 -19 -2 -7 -10 11 -7 6 -10 -20 -10 -20 0 -42 6 -49 13 -11 10 -12 9 -6 -3 8 -13 7 -13 -9 -1 -15 13 -17 32 -14 172 3 136 6 161 21 176 16 16 40 18 202 20 171 2 185 1 209 -18 l26 -20 0 -170 0 -169 -47 1 c-36 0 -43 3 -28 9 17 7 17 9 3 9 -16 1 -18 15 -18 149 0 186 0 186 -129 188 -47 1 -95 -3 -106 -9 -11 -6 -23 -11 -26 -10 -9 3 -11 -16 -15 -134 -1 -62 -6 -118 -10 -124 -4 -8 -3 -9 4 -5 7 4 12 2 12 -5 0 -7 3 -9 7 -5 4 4 10 64 13 134 l5 127 104 3 c77 2 107 -1 113 -10 4 -7 8 -86 8 -175 l0 -163 68 0 67 0 -2 167 c-2 207 -4 218 -42 238 -39 20 -372 22 -411 2z m247 -163 c3 -8 -2 -23 -11 -32 -15 -15 -17 -15 -32 0 -21 21 -11 48 16 48 11 0 23 -7 27 -16z m-67 -29 c0 -2 -7 -8 -15 -15 -12 -10 -15 -10 -15 2 0 8 7 15 15 15 8 0 15 -1 15 -2z"/> <path d="M4190 1540 l0 -60 68 0 67 0 0 60 0 60 -67 0 -68 0 0 -60z m110 10 c0 -24 -4 -30 -22 -31 -22 -1 -22 -1 2 -9 20 -6 14 -8 -25 -8 -37 -1 -45 2 -30 8 17 7 17 9 3 9 -13 1 -18 9 -18 31 0 29 2 30 45 30 43 0 45 -1 45 -30z"/> </g> </svg> 