 <svg  version="1.0" xmlns="http://www.w3.org/2000/svg"  width="900.000000pt" height="492.000000pt" viewBox="0 0 900.000000 492.000000"  preserveAspectRatio="xMidYMid meet">  <g transform="translate(0.000000,492.000000) scale(0.100000,-0.100000)" fill="#ffffff" stroke="none"> <path d="M2245 3485 c-16 -8 -46 -14 -65 -15 -32 0 -141 -38 -157 -54 -3 -3 -14 -6 -24 -6 -10 0 -34 -9 -53 -21 -41 -24 -43 -32 -20 -139 8 -41 19 -113 25 -160 16 -150 26 -217 34 -230 5 -8 12 -30 16 -49 27 -135 151 -371 194 -371 8 0 21 24 31 58 9 31 23 69 30 84 8 14 14 39 14 55 1 15 7 39 15 53 8 14 14 39 15 56 0 16 5 35 11 41 6 6 15 40 19 75 5 35 15 99 24 143 25 119 35 210 36 308 0 55 6 101 15 124 9 20 13 43 11 50 -7 18 -131 16 -171 -2z m84 -84 c20 -13 -3 -221 -32 -276 -13 -26 -25 -83 -34 -164 -11 -93 -21 -136 -39 -170 -13 -25 -24 -60 -24 -78 0 -34 -18 -83 -30 -83 -14 0 -30 27 -44 71 -8 24 -24 69 -36 99 -27 69 -48 165 -57 255 -4 45 -13 79 -25 94 -10 13 -18 33 -18 45 0 12 -5 27 -10 32 -15 15 -1 70 22 91 32 28 223 90 288 92 14 0 31 -3 39 -8z"/> <path d="M2456 3492 c-2 -4 0 -37 5 -72 5 -36 14 -119 19 -185 6 -66 15 -136 20 -156 6 -20 10 -57 10 -83 0 -26 7 -63 15 -83 8 -19 15 -52 15 -72 0 -20 7 -49 15 -65 8 -15 15 -38 15 -50 0 -22 23 -98 46 -154 8 -18 14 -41 14 -52 0 -27 20 -68 36 -74 12 -5 84 71 84 88 0 3 11 24 25 46 14 21 34 67 46 101 12 33 28 73 35 88 8 14 14 44 14 67 0 22 5 45 11 51 15 15 29 117 36 263 4 101 9 129 24 149 10 13 19 34 19 47 0 23 -25 38 -130 79 -25 10 -59 24 -77 31 -17 8 -47 14 -67 14 -20 0 -53 7 -73 15 -37 16 -148 21 -157 7z m170 -87 c10 -8 36 -15 56 -15 23 0 51 -10 74 -25 20 -14 50 -25 65 -25 45 0 52 -26 45 -159 -4 -64 -13 -132 -20 -151 -8 -19 -19 -62 -26 -95 -19 -93 -31 -128 -51 -150 -10 -12 -21 -36 -25 -55 -17 -99 -55 -123 -74 -47 -6 23 -17 62 -25 87 -42 138 -54 201 -102 560 -3 26 1 42 17 63 24 31 38 33 66 12z"/> <path d="M1814 3314 c-79 -60 -137 -116 -231 -222 -18 -20 -33 -41 -33 -46 0 -4 -13 -25 -28 -45 -36 -47 -92 -156 -92 -180 0 -10 -7 -24 -15 -31 -8 -7 -15 -24 -15 -39 -1 -14 -7 -37 -15 -51 -8 -14 -15 -45 -15 -70 0 -25 -7 -63 -15 -85 -14 -39 -22 -255 -10 -267 8 -7 85 32 85 43 0 5 5 9 10 9 34 0 174 134 233 221 59 89 147 301 147 355 0 12 7 38 15 57 8 20 15 62 15 94 0 32 7 107 15 168 8 60 11 113 6 118 -4 4 -30 -9 -57 -29z m-39 -231 c-1 -58 -9 -107 -22 -143 -11 -30 -28 -80 -37 -110 -19 -59 -70 -167 -114 -241 -34 -57 -87 -111 -131 -134 l-34 -17 6 31 c4 18 2 40 -5 50 -9 14 -9 33 -1 73 18 87 33 140 47 167 7 14 33 64 56 111 57 114 78 147 121 189 19 20 48 53 63 74 45 59 54 50 51 -50z"/> <path d="M2996 3238 c3 -57 10 -119 15 -138 5 -19 9 -57 9 -85 1 -27 7 -68 15 -90 8 -22 15 -49 15 -60 0 -11 7 -33 15 -49 8 -15 15 -34 15 -42 0 -24 93 -198 136 -254 59 -77 138 -150 212 -198 91 -58 96 -53 88 77 -11 183 -21 260 -33 273 -7 6 -13 24 -13 40 0 25 -20 81 -41 118 -5 8 -12 22 -15 30 -6 15 -36 77 -63 128 -8 15 -27 42 -43 60 -15 18 -28 36 -28 41 0 27 -249 251 -278 251 -9 0 -10 -28 -6 -102z m166 -130 c60 -70 93 -115 123 -168 14 -25 29 -52 34 -60 27 -44 52 -106 70 -176 24 -90 43 -245 32 -257 -4 -4 -19 2 -33 13 -15 11 -31 20 -36 20 -11 0 -70 78 -120 160 -63 103 -129 300 -142 429 -5 46 -7 88 -4 92 9 14 31 -2 76 -53z"/> <path d="M3769 3258 c-2 -7 -3 -169 -1 -360 l3 -348 57 0 c75 0 86 15 70 93 -6 29 -9 61 -5 70 6 17 57 24 57 8 0 -4 30 -40 68 -78 71 -75 95 -87 194 -98 92 -10 88 -1 -62 130 -36 32 -82 69 -102 84 -53 37 -49 57 25 118 34 29 85 73 112 97 28 25 53 46 56 46 7 0 31 51 26 56 -1 2 -41 -3 -87 -12 l-85 -14 -89 -90 c-49 -50 -95 -90 -103 -90 -15 0 -16 33 -4 175 8 88 -4 155 -26 155 -5 0 -24 16 -43 35 -37 36 -56 43 -61 23z"/> <path d="M7474 3260 c-13 -13 -2 -99 14 -109 6 -3 34 -6 64 -6 l53 0 0 60 0 60 -60 3 c-34 2 -65 -2 -71 -8z"/> <path d="M4562 3060 c-19 -10 -40 -26 -47 -37 -14 -17 -15 -17 -37 10 -21 25 -29 28 -73 25 l-50 -3 -5 -235 c-3 -129 -1 -243 3 -252 6 -14 20 -18 56 -18 73 0 76 7 76 180 0 143 1 148 25 173 14 15 30 27 37 27 6 0 24 7 40 14 15 8 36 17 46 20 13 4 17 17 17 61 0 54 -1 55 -27 54 -16 -1 -43 -9 -61 -19z"/> <path d="M5548 3058 c-21 -11 -38 -24 -38 -29 0 -15 -19 -10 -41 12 -16 16 -30 19 -70 17 l-50 -3 -1 -243 c0 -160 4 -247 11 -256 10 -12 42 -12 99 0 22 4 22 6 22 172 l0 168 31 32 c27 28 38 32 83 32 47 0 55 -3 75 -30 21 -29 22 -40 21 -188 -1 -86 -1 -165 -1 -175 1 -16 9 -18 59 -15 l57 3 3 202 c2 201 2 203 -23 242 -46 74 -159 102 -237 59z"/> <path d="M6074 3065 c-10 -8 -27 -15 -36 -15 -27 0 -105 -85 -112 -122 -3 -18 -8 -50 -12 -71 -3 -21 0 -65 7 -99 18 -81 83 -151 151 -163 82 -15 175 -4 185 21 6 16 39 19 48 5 11 -19 -8 -91 -31 -116 -21 -22 -31 -25 -97 -25 -70 0 -75 2 -101 30 -25 29 -31 31 -89 28 -58 -3 -62 -4 -60 -26 3 -28 95 -122 120 -122 10 -1 29 -7 43 -15 34 -19 104 -19 165 1 99 32 145 68 160 121 5 15 11 143 14 283 7 295 8 292 -74 280 -25 -4 -51 -15 -58 -24 -12 -17 -16 -16 -59 13 -36 24 -57 31 -95 31 -28 0 -58 -6 -69 -15z m184 -125 c14 -11 33 -42 42 -70 14 -41 14 -52 4 -72 -7 -13 -13 -31 -14 -40 0 -9 -15 -28 -33 -42 -26 -20 -46 -26 -85 -26 -45 0 -56 4 -86 33 -26 25 -35 43 -37 73 -5 77 0 100 32 132 28 29 37 32 91 32 45 0 66 -5 86 -20z"/> <path d="M6680 3065 c-14 -8 -33 -14 -43 -15 -43 0 -107 -86 -107 -141 0 -26 47 -99 64 -99 7 0 19 -7 26 -15 7 -8 27 -15 45 -15 18 0 49 -7 68 -15 20 -8 54 -15 75 -15 47 0 77 -27 67 -59 -8 -26 -74 -61 -113 -61 -30 0 -103 29 -135 54 -22 17 -44 11 -80 -21 -45 -38 -29 -55 93 -103 55 -21 196 -25 225 -6 13 9 31 16 40 16 21 0 75 40 75 56 0 6 7 17 15 24 10 8 15 30 15 65 0 46 -4 55 -37 88 -26 26 -45 37 -67 37 -17 1 -42 7 -56 15 -14 8 -49 14 -78 15 -63 0 -102 22 -102 56 0 29 51 64 91 64 37 0 112 -35 127 -60 14 -23 32 -18 76 23 33 31 25 58 -22 78 -20 8 -54 23 -75 32 -47 21 -152 22 -187 2z"/> <path d="M7300 3057 c-19 -12 -43 -31 -52 -42 -18 -22 -18 -22 -33 31 -3 11 -92 25 -107 17 -5 -2 -8 -119 -8 -259 l0 -254 54 0 c30 0 58 5 62 11 4 7 6 75 5 153 l-2 141 33 36 c29 32 67 53 131 73 13 4 17 17 17 61 l0 55 -32 -1 c-18 0 -49 -10 -68 -22z"/> <path d="M4734 3061 c-2 -2 -4 -91 -4 -197 0 -164 3 -197 18 -225 22 -41 48 -69 65 -69 7 0 22 -7 33 -15 29 -22 119 -19 171 6 24 11 43 25 43 30 0 20 28 8 34 -14 5 -21 12 -24 56 -25 27 0 52 3 55 9 7 11 8 489 1 496 -2 3 -28 5 -58 6 l-53 2 -5 -167 -5 -167 -32 -35 c-30 -34 -34 -36 -96 -36 -64 0 -66 1 -87 35 -20 33 -22 46 -19 195 2 87 0 162 -4 166 -8 8 -106 12 -113 5z"/> <path d="M7486 3051 c-3 -5 -7 -118 -8 -250 -3 -269 -3 -266 62 -255 67 12 64 -2 65 263 0 192 -3 242 -13 246 -23 8 -100 6 -106 -4z"/> <path d="M1882 2609 c-6 -13 -15 -49 -22 -79 -35 -155 -237 -391 -394 -460 -71 -32 -72 -25 14 -185 16 -31 97 -154 124 -187 19 -25 26 -23 92 28 82 64 140 118 205 194 56 67 159 214 159 229 0 5 7 14 15 21 24 20 18 53 -15 82 -17 15 -49 64 -72 109 -40 81 -49 105 -72 206 -14 63 -22 73 -34 42z m58 -318 c0 -8 11 -34 26 -58 25 -43 25 -43 6 -71 -11 -15 -22 -37 -26 -48 -4 -12 -15 -29 -26 -39 -11 -10 -20 -26 -20 -36 0 -10 -11 -26 -24 -34 -13 -9 -26 -25 -29 -35 -3 -11 -16 -24 -30 -29 -14 -6 -33 -23 -43 -40 -26 -45 -109 -104 -134 -96 -11 3 -20 11 -20 16 0 5 -11 19 -25 30 -13 12 -27 35 -30 51 -4 16 -13 41 -21 56 -19 38 -18 43 19 74 17 15 58 50 90 77 55 46 84 78 196 210 l43 52 24 -32 c13 -18 24 -39 24 -48z"/> <path d="M2950 2581 c-11 -22 -20 -56 -20 -75 0 -20 -13 -59 -30 -91 -16 -30 -30 -60 -30 -66 0 -6 -19 -36 -43 -67 -63 -83 -62 -81 -38 -113 11 -15 21 -31 21 -35 0 -3 14 -23 30 -44 17 -21 30 -41 30 -45 0 -16 123 -166 182 -220 120 -112 174 -150 195 -137 18 13 103 134 103 148 0 8 7 17 15 20 8 4 15 14 15 24 0 10 7 23 15 30 8 7 15 19 15 27 0 7 10 27 21 43 23 30 20 80 -4 80 -18 0 -82 34 -125 66 -69 53 -222 216 -222 237 0 3 -13 26 -30 50 -16 25 -30 54 -30 65 0 12 -4 24 -10 27 -5 3 -12 28 -16 56 -4 27 -10 52 -15 55 -4 2 -17 -13 -29 -35z m67 -258 c27 -43 132 -163 167 -192 17 -14 39 -36 49 -48 10 -13 24 -23 30 -23 6 0 24 -12 39 -27 33 -31 37 -76 11 -113 -10 -14 -25 -38 -33 -53 -8 -16 -29 -37 -46 -48 l-31 -19 -38 28 c-54 38 -154 141 -172 177 -9 17 -24 36 -33 42 -10 7 -32 38 -50 69 -27 48 -30 62 -25 97 4 22 18 51 32 65 13 13 28 35 33 48 13 32 45 31 67 -3z"/> <path d="M2426 2598 c-14 -43 -36 -163 -36 -197 0 -22 -6 -58 -14 -78 -7 -21 -21 -63 -31 -93 -9 -30 -23 -69 -31 -87 -8 -17 -14 -36 -14 -41 0 -6 -7 -23 -15 -39 -8 -15 -28 -59 -45 -98 -17 -38 -35 -77 -40 -85 -5 -8 -20 -35 -33 -60 -12 -25 -35 -64 -50 -87 -15 -24 -27 -47 -27 -52 0 -5 -3 -11 -7 -13 -5 -2 -21 -23 -38 -47 -16 -25 -54 -68 -83 -97 -61 -60 -65 -85 -14 -95 19 -4 39 -12 45 -18 6 -6 19 -11 28 -11 9 0 30 -7 45 -15 16 -8 39 -15 52 -15 13 0 35 -6 50 -14 60 -31 449 -29 540 3 74 26 98 33 122 38 14 3 32 11 40 18 8 7 26 15 39 17 13 1 29 11 35 21 9 14 4 24 -31 60 -61 60 -141 166 -167 218 -3 8 -15 28 -25 44 -27 42 -104 199 -130 265 -12 30 -29 68 -37 83 -8 16 -14 35 -14 42 0 8 -6 29 -14 47 -34 80 -76 265 -76 336 0 48 -15 79 -24 50z m65 -528 c12 -38 28 -75 35 -81 8 -6 14 -18 14 -25 0 -28 149 -303 176 -325 8 -6 14 -16 14 -23 0 -6 16 -34 36 -63 20 -29 34 -59 31 -67 -5 -12 -45 -27 -152 -56 -22 -6 -101 -14 -175 -17 -144 -6 -210 3 -397 53 -20 5 -15 49 7 69 11 10 20 24 20 31 0 7 11 25 23 41 21 25 40 55 101 156 50 84 136 261 136 279 0 11 7 32 15 46 8 15 22 45 30 67 l16 40 24 -27 c13 -15 33 -59 46 -98z"/> <path d="M5437 2313 c-8 -10 -17 -29 -19 -43 -3 -24 -7 -25 -72 -28 -69 -3 -116 -22 -116 -47 0 -19 13 -20 136 -17 l111 3 6 61 c3 33 3 67 0 74 -7 19 -27 17 -46 -3z"/> <path d="M5075 2114 c-22 -11 -35 -13 -53 -5 -34 16 -64 13 -115 -9 -75 -33 -87 -65 -87 -230 0 -87 4 -141 11 -145 5 -4 22 -4 36 0 25 6 26 7 21 76 -5 61 -3 71 14 80 10 6 26 8 36 5 18 -5 62 25 62 43 0 7 -22 11 -55 11 -39 0 -57 4 -61 14 -7 19 31 92 51 100 32 12 83 6 106 -13 23 -19 24 -23 23 -164 l-1 -145 23 -6 c14 -4 34 -1 45 5 20 10 21 16 14 132 -4 67 -11 132 -16 145 -13 35 -11 63 8 84 9 10 14 20 12 22 -15 13 -48 13 -74 0z"/> <path d="M3854 2099 c-70 -32 -82 -65 -85 -224 -2 -146 2 -162 45 -151 l26 6 0 134 0 134 29 31 c33 35 76 41 116 15 25 -16 25 -18 25 -164 0 -142 1 -148 21 -153 12 -3 31 -2 44 3 22 8 22 11 18 132 -5 121 -15 179 -37 207 -17 21 -94 51 -129 50 -18 0 -51 -9 -73 -20z"/> <path d="M4296 2111 c-3 -4 -20 -11 -37 -15 -41 -8 -68 -43 -69 -87 0 -40 36 -80 105 -114 57 -28 75 -46 75 -72 0 -44 -90 -54 -146 -18 -12 8 -24 11 -28 8 -11 -11 -6 -60 7 -71 37 -30 165 -25 206 9 16 13 25 33 28 64 5 41 3 47 -35 85 -23 22 -46 40 -53 40 -22 0 -78 41 -84 61 -4 13 0 28 12 41 15 17 26 19 67 14 26 -3 54 -10 61 -16 10 -9 16 -6 25 10 17 31 9 42 -41 56 -51 16 -86 18 -93 5z"/> <path d="M5328 2101 c-65 -22 -88 -46 -88 -91 0 -29 7 -45 32 -69 17 -17 36 -31 40 -31 5 0 31 -15 59 -32 35 -24 49 -39 49 -56 0 -43 -90 -53 -148 -16 -19 13 -23 13 -28 0 -3 -8 -4 -27 -2 -42 4 -36 47 -48 135 -40 78 7 104 29 111 96 4 45 3 48 -39 82 -24 20 -54 39 -66 42 -12 4 -36 20 -54 37 l-32 30 24 25 c21 23 29 25 73 20 26 -3 54 -10 61 -16 20 -17 43 27 23 45 -26 25 -100 33 -150 16z"/> <path d="M4652 2091 c-10 -6 -13 -35 -10 -122 2 -92 0 -114 -11 -114 -8 0 -19 19 -26 47 -14 58 -30 78 -62 78 -33 0 -40 -26 -14 -60 11 -16 21 -34 21 -39 0 -5 6 -22 14 -38 8 -15 22 -47 32 -71 l17 -43 50 3 51 3 2 152 c1 84 5 161 9 172 9 30 -41 53 -73 32z"/> <path d="M4366 1665 c-3 -9 -6 -38 -6 -65 0 -57 18 -69 50 -35 16 17 21 32 18 66 -3 39 -6 44 -29 47 -17 2 -29 -3 -33 -13z"/> </g> </svg> 