<?xml version="1.0" standalone="no"?>
<!DOCTYPE svg PUBLIC "-//W3C//DTD SVG 20010904//EN"
 "http://www.w3.org/TR/2001/REC-SVG-20010904/DTD/svg10.dtd">
<svg version="1.0" xmlns="http://www.w3.org/2000/svg"
 width="800.000000pt" height="806.000000pt" viewBox="0 0 800.000000 806.000000"
 preserveAspectRatio="xMidYMid meet">
<metadata>
Created by potrace 1.16, written by Peter Selinger 2001-2019
</metadata>
<g transform="translate(0.000000,806.000000) scale(0.100000,-0.100000)"
fill="#ffffff" stroke="none">
<path d="M3805 8040 c-307 -18 -627 -69 -825 -131 -36 -11 -79 -21 -95 -23
-17 -2 -30 -5 -30 -6 0 -1 -13 -3 -30 -5 -28 -4 -136 -44 -177 -66 -10 -5 -24
-9 -32 -9 -8 0 -21 -6 -29 -14 -7 -8 -29 -19 -48 -24 -59 -18 -112 -39 -164
-65 -27 -14 -62 -29 -77 -32 -16 -4 -28 -11 -28 -16 0 -5 -9 -9 -20 -9 -11 0
-29 -9 -39 -19 -11 -11 -22 -17 -25 -14 -8 9 -109 -47 -124 -69 -7 -10 -21
-18 -30 -19 -9 0 -30 -9 -47 -19 -16 -11 -58 -33 -92 -50 -34 -18 -70 -40 -81
-50 -10 -10 -33 -25 -50 -34 -18 -9 -32 -20 -32 -25 0 -5 -13 -14 -29 -20 -15
-7 -43 -28 -61 -46 -18 -19 -37 -32 -42 -29 -4 3 -8 0 -8 -6 0 -6 -4 -9 -9 -5
-5 3 -12 -3 -16 -14 -3 -10 -13 -22 -23 -25 -39 -15 -70 -38 -129 -98 -68 -69
-89 -88 -98 -88 -15 0 -105 -91 -105 -107 0 -7 -6 -13 -13 -13 -8 0 -30 -17
-49 -37 -19 -21 -52 -51 -72 -68 -20 -16 -47 -46 -60 -65 -13 -19 -43 -56 -67
-81 -91 -95 -118 -127 -138 -167 -11 -22 -39 -62 -62 -88 -23 -26 -53 -66 -68
-88 -14 -23 -29 -42 -33 -44 -5 -2 -8 -10 -8 -18 0 -8 -3 -14 -8 -14 -7 0 -16
-15 -46 -75 -8 -16 -23 -41 -33 -55 -11 -14 -29 -45 -41 -70 -25 -51 -41 -78
-60 -98 -6 -7 -12 -18 -12 -24 0 -5 -8 -22 -19 -36 -10 -15 -25 -47 -34 -72
-8 -25 -22 -59 -30 -75 -38 -73 -77 -161 -77 -172 0 -7 -9 -27 -19 -45 -11
-18 -25 -53 -31 -78 -7 -25 -21 -65 -32 -89 -11 -24 -22 -60 -25 -80 -3 -20
-14 -63 -24 -95 -11 -33 -19 -68 -19 -79 0 -10 -6 -33 -14 -50 -8 -18 -17 -48
-20 -67 -3 -19 -15 -78 -26 -130 -11 -52 -27 -140 -35 -195 -8 -55 -20 -134
-26 -175 -7 -50 -10 -215 -6 -495 4 -358 7 -438 25 -545 25 -154 74 -385 100
-465 11 -33 25 -85 31 -115 7 -30 26 -97 42 -149 27 -84 43 -125 94 -236 23
-51 81 -187 106 -248 12 -31 30 -65 39 -75 9 -9 23 -30 32 -47 61 -116 112
-202 177 -300 25 -38 51 -74 58 -80 17 -15 82 -103 103 -140 33 -59 45 -75 55
-76 5 0 44 -43 85 -95 83 -105 294 -320 392 -401 35 -28 82 -69 105 -90 61
-57 103 -91 103 -86 0 6 48 -29 81 -58 14 -13 33 -28 41 -34 238 -158 352
-224 558 -326 91 -44 183 -88 205 -97 22 -8 49 -21 60 -28 11 -7 56 -25 100
-39 44 -15 92 -33 106 -41 15 -7 40 -16 55 -18 16 -3 77 -21 136 -40 59 -19
126 -37 150 -41 24 -4 51 -12 61 -17 10 -5 86 -23 170 -41 l152 -31 549 -4
c576 -3 626 -1 825 45 36 8 84 18 106 23 22 4 58 13 80 20 22 6 110 31 195 56
145 41 279 88 339 118 14 7 42 20 61 29 19 8 76 35 125 58 50 23 92 43 95 44
32 8 59 21 80 35 30 22 201 120 208 120 2 0 26 16 52 35 26 19 50 35 54 35 12
0 144 90 176 120 36 34 114 90 125 90 4 0 29 21 57 48 79 73 80 73 153 137 38
33 103 94 144 135 103 105 341 373 341 384 0 6 120 168 130 176 8 6 79 115
100 152 8 15 43 74 78 131 34 57 62 108 62 114 0 6 4 13 10 15 5 2 25 39 43
83 19 44 46 105 60 135 46 98 125 294 140 350 9 30 22 80 31 110 8 30 25 93
39 140 13 47 27 99 31 115 3 17 15 71 26 120 56 246 60 299 60 783 0 264 -4
483 -10 525 -40 268 -62 377 -124 614 -46 169 -100 342 -127 398 -6 12 -11 27
-13 35 -5 23 -16 52 -32 83 -8 15 -12 27 -8 27 4 0 0 8 -8 18 -8 9 -21 33 -28
52 -8 19 -19 43 -26 54 -7 10 -10 25 -7 32 3 8 0 14 -7 14 -6 0 -8 5 -5 10 3
6 1 10 -5 10 -6 0 -8 5 -5 10 3 6 2 10 -2 10 -9 0 -12 6 -53 86 -13 27 -36 67
-51 89 -14 22 -35 56 -45 75 -10 19 -27 46 -36 59 -10 13 -15 27 -12 32 3 5 1
9 -4 9 -5 0 -23 21 -40 48 -75 117 -218 305 -292 385 -27 29 -59 66 -72 82
-21 28 -54 61 -177 178 -28 26 -55 56 -61 67 -6 11 -16 20 -23 20 -7 0 -25 13
-42 30 -59 59 -132 120 -144 120 -6 0 -11 4 -11 9 0 9 -73 61 -102 73 -10 4
-18 12 -18 18 0 5 -5 10 -11 10 -6 0 -34 20 -62 44 -29 24 -67 51 -86 61 -19
9 -39 21 -45 26 -47 40 -123 89 -137 89 -10 0 -19 4 -21 9 -4 12 -178 111
-194 111 -8 0 -14 4 -14 9 0 5 -10 13 -22 17 -13 4 -25 9 -28 13 -7 9 -93 51
-104 51 -5 0 -30 9 -55 21 -25 12 -68 32 -96 44 -129 60 -389 150 -405 140 -5
-3 -10 -1 -10 5 0 6 -4 9 -9 5 -6 -3 -36 3 -68 14 -123 40 -406 100 -508 108
-33 2 -89 8 -125 13 -185 24 -403 31 -605 20z m580 -149 c44 -6 107 -12 140
-15 229 -21 512 -92 855 -216 295 -107 755 -368 954 -542 24 -21 46 -38 50
-38 15 0 195 -158 324 -285 232 -227 506 -583 651 -845 118 -215 277 -578 295
-672 2 -12 11 -39 19 -58 21 -49 75 -228 81 -270 4 -29 20 -102 27 -120 1 -3
3 -9 5 -15 9 -25 34 -238 29 -245 -3 -5 1 -12 9 -17 9 -5 16 -34 20 -78 4 -38
11 -117 17 -175 10 -109 14 -523 5 -538 -2 -4 -7 -59 -11 -121 -5 -104 -29
-273 -56 -396 -69 -319 -130 -527 -196 -675 -12 -25 -35 -79 -52 -120 -62
-147 -76 -176 -115 -240 -21 -36 -51 -87 -66 -115 -62 -113 -100 -175 -141
-235 -24 -34 -48 -70 -54 -79 -34 -57 -198 -266 -241 -306 -5 -5 -22 -26 -36
-45 -35 -48 -282 -296 -397 -400 -131 -118 -429 -340 -456 -340 -4 0 -21 -10
-38 -22 -68 -50 -358 -208 -381 -208 -4 0 -31 -11 -59 -24 -110 -52 -253 -108
-287 -113 -19 -3 -59 -14 -89 -24 -107 -39 -372 -103 -511 -124 -304 -45 -366
-50 -660 -49 -211 0 -444 13 -530 28 -14 3 -94 16 -177 31 -84 14 -181 32
-215 41 -115 28 -273 76 -283 85 -5 5 -16 9 -24 9 -52 0 -551 219 -551 241 0
5 -7 9 -16 9 -8 0 -36 12 -62 27 -26 14 -65 35 -87 47 -22 12 -48 28 -58 37
-9 9 -30 22 -45 30 -15 7 -43 26 -62 41 -19 16 -40 28 -47 28 -7 0 -13 5 -13
10 0 6 -5 10 -11 10 -6 0 -26 12 -44 28 -19 15 -55 43 -82 62 -45 32 -69 52
-122 101 -12 10 -26 19 -31 19 -5 0 -10 4 -10 10 0 5 -13 16 -28 24 -58 30
-407 388 -528 542 -65 84 -126 162 -134 174 -8 13 -30 43 -48 67 -17 24 -32
47 -32 52 0 4 -11 20 -25 35 -14 15 -25 31 -25 37 0 5 -9 18 -20 29 -11 11
-20 27 -20 35 0 8 -10 26 -21 39 -26 30 -22 23 -136 249 -88 173 -106 214
-139 317 -8 25 -23 63 -33 85 -24 53 -114 334 -124 390 -2 11 -7 27 -10 35 -3
8 -8 31 -11 50 -3 19 -12 73 -21 120 -8 47 -17 99 -19 115 -68 513 -63 868 20
1385 27 165 72 323 170 595 61 168 57 159 150 345 139 280 169 327 369 599
189 257 446 525 680 710 44 34 89 70 101 79 51 42 281 199 340 233 237 138
533 276 684 321 19 5 40 14 45 18 10 8 233 81 288 94 41 10 36 -25 -10 -60
-67 -50 -93 -83 -93 -120 0 -45 17 -80 46 -93 28 -13 32 -31 6 -31 -26 0 -102
-51 -134 -89 -15 -17 -32 -50 -39 -73 -10 -38 -6 -59 48 -246 32 -113 64 -211
71 -219 11 -10 20 -10 50 3 54 22 57 28 39 76 -19 52 -31 148 -22 177 5 18 12
20 49 15 50 -7 97 13 122 51 9 14 20 25 24 25 10 0 44 -96 66 -183 l17 -69 36
7 c70 13 80 25 62 81 -5 16 -33 103 -62 194 -55 176 -73 206 -141 241 -21 10
-51 19 -68 19 -36 0 -37 3 -5 44 28 37 30 53 14 90 -10 22 -8 29 25 67 38 45
46 76 21 85 -24 10 -17 31 13 38 87 19 135 28 202 37 41 5 95 12 120 15 197
26 327 32 565 29 143 -3 296 -9 340 -14z m-1259 -512 c13 -12 24 -31 24 -41 0
-22 -8 -22 -34 -3 -44 33 -134 7 -172 -50 -23 -35 -34 -31 -34 10 0 39 47 101
83 109 47 10 108 -2 133 -25z"/>
<path d="M4034 7624 c-43 -18 -90 -75 -98 -119 -9 -46 -3 -52 54 -57 43 -3 44
-2 51 30 10 47 20 55 81 60 43 3 58 0 78 -16 23 -19 25 -26 25 -114 0 -51 -2
-154 -5 -228 l-5 -135 48 -9 c28 -5 52 -5 57 0 5 5 12 113 16 239 8 255 6 267
-56 319 -55 45 -173 60 -246 30z"/>
<path d="M3540 7611 c-54 -17 -89 -42 -118 -86 -45 -67 -55 -165 -18 -165 9 0
15 -28 19 -97 3 -54 11 -133 18 -175 l13 -78 47 0 c56 0 74 16 65 62 -13 71
-18 124 -20 205 -1 84 -1 84 32 112 25 20 33 34 30 52 -2 20 -9 24 -38 25 -54
2 -54 3 -35 24 10 11 35 25 56 31 32 10 43 9 76 -8 48 -24 70 -68 77 -153 3
-36 8 -76 11 -90 3 -14 8 -65 11 -115 4 -49 11 -96 17 -102 15 -19 96 -17 104
3 3 9 1 55 -5 103 -6 47 -18 139 -26 203 -16 121 -23 143 -66 191 -41 47 -91
67 -162 66 -35 0 -74 -4 -88 -8z"/>
<path d="M4554 7572 c-49 -24 -81 -55 -101 -100 -17 -42 -6 -59 46 -68 84 -14
146 -38 174 -66 25 -25 28 -33 22 -66 -11 -58 -22 -73 -53 -69 -39 6 -81 -19
-98 -58 -18 -44 -18 -59 2 -100 31 -66 136 -85 189 -35 31 29 69 187 70 286 0
85 -6 93 -112 145 -84 41 -87 57 -5 27 157 -55 179 -53 184 17 l3 39 -46 7
c-25 4 -64 16 -87 28 -61 31 -138 36 -188 13z"/>
<path d="M5088 7441 c-20 -4 -48 -15 -62 -24 -30 -20 -60 -73 -52 -92 7 -19
89 -41 94 -26 30 91 212 46 212 -52 0 -68 -15 -82 -53 -46 -33 31 -66 46 -129
58 -111 20 -160 -12 -207 -137 -35 -96 -38 -122 -14 -162 36 -62 138 -79 185
-32 42 42 29 145 -22 172 -25 13 -25 32 -2 53 61 55 163 -25 162 -125 -1 -54
-54 -204 -71 -198 -39 12 -81 2 -110 -26 -26 -25 -29 -34 -24 -64 3 -19 15
-47 26 -62 23 -32 24 -42 6 -57 -11 -8 -43 -1 -133 29 -175 59 -169 57 -304
84 -182 36 -273 46 -475 53 -288 9 -497 -14 -786 -87 -250 -64 -424 -132 -628
-248 -388 -221 -663 -468 -927 -837 -64 -90 -144 -219 -144 -233 0 -5 -4 -12
-8 -14 -17 -6 -130 -246 -159 -338 -105 -330 -121 -391 -158 -590 -37 -202
-44 -507 -15 -715 5 -38 11 -88 14 -110 15 -110 60 -293 129 -520 48 -159 276
-608 327 -645 4 -3 24 -32 45 -65 57 -90 230 -289 336 -387 52 -48 154 -132
227 -187 73 -55 138 -105 145 -111 23 -20 132 -82 272 -154 189 -98 434 -188
625 -231 41 -9 93 -20 115 -25 148 -33 243 -42 465 -45 245 -3 334 3 510 35
139 26 146 27 167 38 10 5 37 13 61 17 23 4 104 27 180 52 75 24 144 46 152
48 48 11 282 133 431 225 40 24 152 102 184 127 6 5 41 33 80 63 261 206 482
466 677 795 91 155 145 279 230 530 54 162 100 389 118 585 20 230 7 591 -29
765 -6 28 -13 61 -15 75 -6 36 -15 75 -37 155 -33 118 -42 150 -50 160 -4 6
-10 26 -14 45 -4 19 -22 67 -40 105 -112 237 -147 307 -181 362 -22 34 -63
100 -91 147 -29 46 -59 90 -66 98 -7 7 -35 42 -62 78 -45 59 -334 356 -396
406 -161 131 -335 242 -537 343 -86 43 -122 67 -122 79 0 9 14 44 30 77 34 67
37 92 15 121 -22 29 -20 47 4 34 11 -5 28 -10 39 -10 18 0 22 6 47 75 4 11 21
56 37 100 75 203 87 243 81 278 -5 31 -2 37 23 53 85 52 94 84 34 108 -49 20
-69 20 -94 1 -26 -20 -55 -19 -108 4 -55 23 -112 31 -160 22z m-774 -795 c154
-18 256 -36 366 -65 141 -37 275 -80 325 -104 17 -8 64 -30 105 -48 148 -66
259 -129 387 -218 71 -50 138 -99 149 -109 10 -9 53 -45 95 -79 72 -59 286
-279 319 -328 8 -13 56 -79 106 -147 83 -113 112 -160 180 -288 41 -77 124
-260 124 -274 0 -6 4 -16 8 -21 16 -18 89 -250 107 -340 2 -11 9 -40 15 -65
16 -66 42 -246 45 -315 1 -33 8 -80 15 -105 21 -78 -6 -434 -51 -650 -39 -192
-141 -491 -222 -650 -38 -74 -79 -151 -91 -170 -12 -19 -40 -64 -61 -100 -76
-127 -210 -296 -349 -438 -134 -137 -370 -325 -486 -388 -30 -16 -57 -32 -60
-35 -3 -4 -68 -38 -145 -77 -122 -61 -313 -133 -455 -171 -25 -7 -58 -16 -75
-21 -54 -16 -228 -49 -320 -61 -125 -17 -487 -17 -610 -1 -131 18 -267 46
-373 78 -143 42 -275 85 -307 99 -17 8 -50 22 -75 33 -92 40 -186 86 -212 104
-14 10 -52 31 -82 48 -62 32 -196 123 -233 158 -13 12 -47 39 -76 61 -56 41
-177 148 -216 190 -13 14 -47 51 -75 81 -28 30 -76 87 -106 125 -30 39 -57 72
-60 75 -3 3 -36 52 -72 110 -37 58 -74 115 -82 126 -20 28 -106 196 -130 254
-11 25 -29 68 -41 95 -26 59 -55 143 -84 240 -39 135 -107 462 -98 471 3 3 -1
26 -7 52 -14 50 -15 434 -2 527 16 122 47 285 65 345 11 36 32 110 47 165 15
55 39 127 54 160 75 165 109 231 124 244 9 7 16 18 16 22 0 12 150 258 199
327 54 74 93 122 202 241 234 257 456 428 734 566 158 78 355 159 450 183 162
43 309 69 510 92 76 8 425 6 509 -4z"/>
<path d="M4052 6303 c-38 -6 -85 -19 -103 -29 -96 -49 -245 -194 -331 -321
-66 -99 -172 -272 -195 -318 -118 -241 -198 -387 -220 -405 -14 -11 -44 -25
-66 -31 -81 -22 -221 43 -377 173 -111 93 -176 122 -250 114 -30 -4 -74 -16
-98 -27 -54 -27 -140 -105 -189 -172 -20 -29 -40 -54 -43 -57 -4 -3 -24 -34
-45 -70 -21 -36 -53 -78 -72 -93 -25 -22 -33 -36 -33 -63 0 -19 -11 -58 -25
-87 -28 -57 -65 -164 -84 -242 -7 -27 -16 -66 -21 -85 -20 -79 -42 -282 -42
-382 1 -59 -3 -110 -9 -113 -15 -10 -11 -166 5 -184 8 -9 21 -68 30 -131 10
-63 19 -126 22 -140 2 -14 7 -45 11 -70 3 -25 17 -59 30 -76 24 -33 29 -59 14
-83 -6 -10 -5 -26 3 -45 7 -17 16 -49 20 -71 9 -48 34 -126 46 -140 4 -5 16
-37 25 -70 23 -79 80 -174 113 -186 43 -16 71 -3 92 44 22 47 24 92 10 152 -6
22 -16 69 -24 105 -8 36 -30 99 -50 141 -20 41 -41 100 -46 130 -11 53 -10 54
18 79 44 37 63 104 57 198 -3 42 -7 84 -10 92 -11 36 23 51 70 30 52 -23 105
-7 105 30 0 25 50 63 75 56 11 -2 38 -9 59 -15 47 -12 81 2 118 48 l23 30 55
-15 c87 -23 104 -19 144 28 20 23 36 46 36 51 0 6 17 7 43 2 23 -3 57 -9 75
-12 68 -11 132 41 132 106 0 21 6 46 14 56 13 19 15 18 43 -11 15 -17 41 -55
56 -85 15 -30 39 -73 53 -97 28 -48 29 -48 -64 -56 -58 -5 -161 -45 -203 -78
-12 -10 -17 -38 -21 -108 -5 -86 -3 -101 20 -160 55 -138 91 -165 186 -135 67
21 78 47 46 107 -12 23 -18 44 -13 48 4 3 28 13 51 20 47 15 80 5 74 -21 -8
-34 -4 -72 11 -86 14 -14 19 -14 54 8 20 13 44 25 53 26 17 2 50 -25 50 -43 0
-21 68 -73 105 -80 31 -5 41 -2 64 20 20 19 37 26 68 26 60 0 91 15 138 65 46
50 77 57 141 30 l35 -14 -5 -68 c-9 -119 -52 -244 -115 -338 -80 -119 -226
-197 -356 -190 -38 2 -90 10 -114 19 -55 20 -72 20 -110 -1 -36 -21 -49 -47
-57 -117 -6 -51 -5 -55 28 -90 46 -48 176 -92 303 -101 50 -4 92 -9 94 -11 7
-7 -119 -126 -209 -197 -47 -37 -104 -83 -128 -104 -39 -33 -50 -37 -123 -43
-98 -9 -245 -3 -279 11 -23 10 -38 18 -128 66 -32 17 -34 17 -77 -6 -64 -34
-98 -89 -103 -165 -4 -62 -4 -63 34 -93 45 -36 181 -104 239 -121 96 -27 203
-33 313 -17 106 16 284 96 356 160 21 19 60 41 87 49 63 19 213 92 262 127 46
33 57 30 57 -14 0 -37 27 -59 125 -103 44 -19 78 -27 127 -28 39 0 68 -5 68
-11 0 -14 -56 -100 -100 -155 -54 -68 -191 -200 -206 -200 -8 0 -14 -4 -14 -8
0 -5 -27 -21 -60 -36 -51 -24 -75 -28 -158 -30 -63 -2 -105 -7 -120 -17 -30
-19 -64 -90 -64 -135 0 -50 28 -104 55 -105 42 -3 82 -8 147 -17 61 -9 118 -8
200 3 55 7 160 51 160 67 0 4 7 8 15 8 8 0 15 6 15 13 1 6 28 32 61 57 33 25
77 66 97 93 20 26 40 47 44 47 5 0 11 8 15 18 3 9 21 38 40 65 18 26 33 52 33
57 0 6 4 10 9 10 5 0 13 10 16 23 4 12 31 72 60 132 47 99 94 210 109 258 4
14 15 17 55 16 61 -3 63 -9 45 -135 -11 -71 -23 -109 -63 -189 -60 -119 -85
-190 -77 -219 3 -11 23 -38 44 -59 32 -31 47 -39 78 -39 60 -1 95 12 126 48
39 44 116 94 145 94 34 0 61 16 113 66 25 23 70 52 100 64 41 16 71 39 122 93
38 40 71 82 74 94 3 13 9 21 13 19 3 -2 5 17 3 42 -9 106 -7 124 17 143 13 11
37 19 55 19 75 0 119 79 133 240 11 130 -10 282 -56 411 -17 48 -32 95 -34
105 -2 11 -9 32 -15 47 -7 16 -12 35 -12 43 0 8 -4 14 -10 14 -5 0 -10 7 -10
16 0 8 -11 40 -25 70 -14 30 -25 59 -25 64 0 6 -8 10 -18 10 -12 0 -25 14 -37
40 -24 54 -36 63 -68 51 -25 -10 -27 -7 -67 73 -22 46 -40 88 -40 95 0 6 -4
11 -9 11 -5 0 -13 10 -17 23 -11 34 -110 182 -154 228 -81 85 -110 119 -143
167 -67 99 -61 126 22 85 66 -33 111 -34 150 -5 37 27 57 28 71 2 16 -29 89
-80 115 -80 12 0 36 13 53 30 l31 29 56 -94 c45 -77 63 -99 97 -116 56 -29
106 -29 128 -1 17 20 19 20 31 5 12 -14 12 -16 -1 -8 -8 4 -5 -3 8 -17 12 -14
25 -42 29 -62 3 -20 10 -36 14 -36 5 0 9 -10 9 -21 0 -24 59 -83 105 -105 30
-14 114 -89 116 -102 0 -4 3 -23 6 -42 3 -19 6 -46 7 -60 0 -14 4 -27 8 -30 4
-3 9 -28 11 -56 4 -36 16 -65 45 -109 78 -117 112 -104 132 51 18 133 2 420
-30 573 -22 101 -52 220 -77 301 -14 47 -30 101 -35 120 -11 37 -43 115 -59
140 -5 8 -14 26 -20 40 -17 41 -71 145 -78 150 -4 3 -19 25 -33 50 -14 25 -40
63 -57 85 -17 22 -41 53 -54 70 -63 83 -201 247 -248 295 -120 121 -299 247
-428 301 -70 29 -82 31 -156 25 -139 -10 -215 -62 -287 -193 -36 -67 -96 -146
-132 -174 -38 -30 -149 -78 -214 -92 -49 -11 -125 -9 -136 4 -104 129 -121
174 -120 319 1 76 7 122 22 168 24 75 79 161 107 166 11 2 67 12 125 21 108
17 197 38 239 59 35 16 94 73 89 86 -4 13 -33 30 -97 56 -61 25 -32 33 96 26
76 -3 107 -1 118 8 32 27 35 45 14 88 -30 59 -111 104 -199 109 -50 2 -83 12
-145 42 -44 22 -101 45 -125 52 -71 19 -191 25 -268 12z m276 -74 c18 -10 39
-19 46 -19 19 0 48 -36 44 -55 -1 -10 -29 -31 -61 -47 -32 -17 -62 -38 -67
-47 -16 -30 0 -100 27 -119 14 -9 42 -32 62 -50 34 -30 35 -33 18 -46 -11 -8
-49 -17 -85 -21 -37 -3 -84 -13 -105 -22 -39 -17 -87 -65 -87 -87 0 -16 -70
-66 -91 -66 -9 0 -24 9 -34 20 -13 15 -22 17 -36 10 -80 -43 -137 44 -67 102
24 20 30 30 22 38 -8 8 -21 6 -48 -6 -33 -16 -38 -17 -52 -2 -23 23 -6 71 29
81 15 4 39 10 55 15 33 9 38 46 7 48 -11 1 -26 2 -32 3 -8 1 -13 15 -13 34 -1
77 -36 67 -47 -13 -9 -61 -27 -73 -68 -46 -20 14 -23 21 -18 49 3 17 22 51 41
75 31 38 39 42 77 42 66 0 75 6 75 55 0 47 17 68 65 80 120 28 289 26 343 -6z
m281 -95 c44 -13 52 -18 49 -37 -2 -16 -12 -23 -40 -28 -20 -3 -43 -11 -50
-17 -7 -6 -36 -16 -63 -23 -78 -19 -87 -26 -80 -60 5 -24 3 -29 -12 -29 -23 0
-93 56 -93 75 0 17 57 65 77 65 9 0 31 16 50 35 39 41 76 45 162 19z m-999
-386 c30 -21 31 -22 78 -5 61 22 83 21 110 -3 31 -29 28 -46 -15 -91 -38 -40
-73 -51 -73 -24 0 8 -5 24 -12 34 -11 18 -13 17 -61 -7 l-50 -26 -33 39 c-37
42 -42 66 -18 89 21 22 39 20 74 -6z m394 -143 c34 -15 37 -18 34 -53 -3 -35
-5 -37 -42 -40 -25 -2 -53 -14 -76 -32 -57 -45 -88 -57 -106 -39 -29 29 -28
81 1 126 25 38 31 41 72 41 25 0 47 3 51 6 9 10 27 7 66 -9z m-241 -132 c4
-48 1 -61 -14 -76 -11 -10 -19 -22 -19 -28 0 -5 -16 -17 -35 -25 -43 -18 -44
-29 -8 -93 1 -2 24 17 50 43 59 57 94 62 119 15 20 -40 12 -70 -31 -114 -31
-30 -42 -35 -82 -35 -38 0 -54 -6 -89 -35 -27 -23 -53 -35 -72 -35 -30 0 -42
-14 -42 -51 0 -30 -71 -69 -127 -69 -43 0 -51 -4 -76 -35 -20 -26 -36 -35 -57
-35 -62 0 -71 76 -15 128 33 30 32 42 -6 42 -17 0 -39 4 -49 10 -26 14 -46 4
-60 -31 -24 -56 -49 -80 -78 -73 -63 15 -213 112 -390 250 -33 26 -171 58
-217 51 -47 -8 -95 -32 -138 -70 -20 -18 -66 -57 -101 -87 -36 -30 -65 -62
-66 -71 0 -20 -17 -34 -47 -42 -30 -7 -29 -1 7 33 22 20 30 37 30 61 0 28 11
43 73 100 181 168 222 191 328 185 76 -3 127 -27 189 -87 24 -24 72 -57 107
-75 34 -17 69 -37 77 -43 23 -20 116 -41 176 -40 66 0 110 21 142 69 16 24 31
35 48 35 24 0 25 -4 32 -69 4 -42 3 -77 -3 -89 -8 -14 -7 -23 5 -36 9 -10 16
-23 16 -29 0 -19 17 -14 34 9 27 40 84 71 123 67 l37 -3 1 67 c2 64 5 73 50
134 15 21 -1 27 -40 14 -43 -14 -65 -1 -65 39 0 31 5 38 47 73 37 30 66 31 71
2 7 -41 11 -47 27 -34 8 7 15 20 15 30 0 29 70 110 95 110 20 0 23 -6 28 -57z
m254 -25 c20 -16 15 -44 -12 -76 -14 -17 -25 -35 -25 -41 0 -13 -33 -31 -58
-31 -14 0 -25 12 -35 37 -18 47 -13 66 30 104 36 31 69 33 100 7z m1140 -6
c23 -12 45 -27 48 -33 4 -6 26 -19 49 -28 59 -26 152 -105 164 -141 7 -17 23
-35 39 -42 15 -7 47 -31 71 -55 24 -23 52 -45 62 -48 11 -4 20 -15 20 -25 0
-10 5 -22 10 -25 6 -3 10 -10 10 -16 0 -20 -25 -7 -69 39 -25 26 -83 74 -128
106 -46 33 -83 63 -83 67 0 4 -19 14 -42 24 -23 9 -54 27 -70 40 -51 43 -150
57 -248 34 -25 -6 -57 -12 -71 -14 -44 -5 -102 -49 -144 -109 -22 -31 -56 -67
-75 -80 -19 -13 -69 -54 -110 -91 -78 -71 -121 -94 -207 -116 -44 -11 -62 -10
-120 3 -77 18 -117 15 -153 -12 -38 -29 -15 -45 40 -29 40 12 44 12 54 -6 33
-56 74 -70 117 -37 13 10 46 23 72 30 27 7 65 24 85 37 20 14 42 25 48 25 5 0
20 11 32 25 12 14 32 25 44 25 24 0 58 26 58 45 0 12 53 55 69 55 6 0 18 -11
26 -24 11 -17 29 -25 62 -30 64 -8 93 -37 93 -91 0 -34 -5 -45 -30 -63 -34
-25 -86 -28 -114 -7 -36 27 -55 19 -67 -30 -14 -57 -40 -75 -102 -75 -41 0
-56 5 -84 30 l-34 30 -39 -20 c-52 -26 -52 -42 -1 -34 31 5 46 2 70 -15 37
-27 139 -47 154 -32 27 27 81 -2 128 -70 10 -13 20 -21 24 -17 10 10 -14 76
-33 90 -63 48 -48 73 48 83 79 8 100 24 109 83 l6 37 59 0 c61 0 86 17 86 57
0 22 -5 22 -40 1 -24 -14 -33 -14 -59 -4 -37 16 -51 54 -48 137 2 63 -13 97
-38 88 -9 -4 -11 -17 -8 -43 7 -54 -9 -78 -57 -86 -44 -7 -80 12 -80 42 0 17
60 93 73 93 6 0 26 12 45 27 25 19 49 27 86 29 28 1 78 5 111 9 51 6 68 4 107
-15 26 -12 51 -27 57 -33 9 -11 14 -52 12 -89 -1 -13 -45 -48 -83 -66 -4 -2
-21 11 -37 29 -19 20 -35 30 -45 26 -21 -8 -20 -25 3 -63 15 -24 28 -33 61
-38 55 -9 90 -33 107 -74 9 -21 20 -32 30 -30 26 5 25 22 -2 62 -28 41 -31 79
-10 116 8 14 14 35 15 47 0 34 15 36 72 7 94 -48 177 -123 178 -160 0 -12 6
-27 14 -33 8 -7 18 -25 21 -41 3 -16 13 -31 21 -34 8 -3 14 -14 14 -25 0 -14
9 -21 35 -25 36 -7 95 -50 95 -69 0 -6 18 -37 40 -68 22 -32 40 -66 40 -77 0
-11 10 -26 22 -34 12 -8 29 -37 39 -64 32 -93 44 -119 67 -144 12 -14 22 -28
22 -31 0 -3 9 -16 20 -29 11 -13 20 -31 20 -41 0 -10 4 -20 9 -23 5 -3 12 -27
16 -52 9 -64 24 -93 51 -100 12 -3 26 -13 30 -22 6 -16 21 -128 28 -212 1 -19
5 -42 8 -50 24 -60 26 -81 13 -113 -8 -20 -10 -39 -5 -47 5 -8 9 -65 8 -127 0
-100 -2 -115 -18 -123 -12 -7 -21 -7 -25 0 -7 11 -24 102 -32 170 -3 25 -10
53 -15 63 -5 10 -13 48 -18 85 -12 94 -26 152 -39 165 -6 6 -11 21 -11 33 0
13 -4 26 -10 29 -5 3 -10 17 -10 30 0 12 -7 25 -15 29 -12 4 -15 -5 -15 -53 0
-66 -27 -161 -45 -161 -21 0 -65 52 -65 77 0 13 -11 41 -25 63 -14 22 -28 57
-31 77 -3 21 -12 46 -19 56 -7 10 -11 26 -8 36 2 10 -7 35 -21 56 -14 21 -26
49 -26 62 0 32 -17 63 -34 63 -23 0 -27 -30 -10 -65 11 -24 13 -44 8 -67 -4
-18 -6 -46 -5 -61 2 -40 -16 -67 -45 -67 -33 0 -83 55 -123 134 -31 61 -78
144 -116 204 -19 31 -45 43 -45 21 0 -5 11 -27 25 -47 47 -69 30 -142 -33
-142 -35 0 -152 134 -152 174 0 15 -56 95 -79 113 -18 14 -41 17 -41 5 0 -4
20 -34 45 -67 49 -66 57 -107 29 -150 -39 -59 -122 -18 -261 129 -40 42 -77
76 -83 76 -15 0 -12 20 4 26 17 7 106 -33 106 -47 0 -13 46 -59 60 -59 15 0 4
37 -22 73 -20 29 -20 29 0 50 11 12 22 31 24 41 6 33 32 41 71 23 19 -9 39
-17 45 -17 5 0 25 -24 43 -52 45 -71 86 -101 96 -71 2 6 -12 28 -32 49 -37 38
-42 66 -13 72 10 2 28 -14 47 -42 49 -70 121 -119 121 -82 0 15 -100 136 -140
169 -20 17 -23 17 -47 2 -22 -15 -31 -15 -71 -4 -26 7 -56 22 -67 34 -11 12
-41 33 -68 49 -60 34 -70 19 -32 -51 l26 -48 -32 -28 c-21 -19 -36 -26 -47
-21 -10 4 -30 9 -45 12 -15 2 -52 26 -81 53 -79 72 -101 64 -46 -16 19 -28 30
-56 30 -78 0 -28 -6 -37 -35 -53 l-35 -18 -56 29 c-53 28 -73 49 -61 61 3 3
19 -2 37 -11 34 -17 60 -14 60 8 0 7 -21 30 -46 51 l-47 39 -16 -22 c-15 -19
-21 -21 -45 -11 -23 8 -32 7 -46 -5 -19 -17 -72 -20 -101 -5 -17 10 -18 19
-14 100 6 105 1 110 -63 52 l-42 -38 30 -22 c32 -24 38 -48 17 -76 -11 -14
-17 -15 -42 -6 -17 6 -40 20 -52 32 -27 26 -57 20 -62 -12 -1 -14 -13 -35 -26
-48 l-23 -23 -51 26 c-44 22 -51 29 -51 55 0 36 38 117 59 125 8 3 28 -4 43
-15 50 -37 118 -4 118 57 0 26 -16 29 -44 8 -26 -19 -80 -19 -96 0 -17 20 -39
19 -47 -2 -20 -58 -83 -81 -116 -42 -21 24 -14 59 12 59 29 0 109 57 126 89
10 20 23 31 38 31 32 1 72 34 64 54 -5 13 -15 15 -47 10 -26 -4 -45 -2 -55 6
-19 16 -19 46 0 53 8 4 21 22 29 42 10 23 22 35 35 35 21 0 71 -57 71 -81 0
-62 145 -48 312 31 73 35 181 125 203 169 9 19 39 65 67 103 39 52 59 70 87
78 20 5 43 15 51 20 9 6 62 9 130 7 93 -3 123 -8 157 -25z m-1727 -22 c16 -39
7 -110 -16 -127 -22 -16 -66 -17 -82 -1 -20 20 -13 59 19 110 36 56 61 62 79
18z m623 -182 c16 -52 16 -53 -5 -68 -11 -8 -35 -30 -53 -47 -39 -41 -59 -41
-96 -2 -29 31 -36 62 -20 87 11 17 121 80 141 81 11 1 22 -17 33 -51z m-1423
-41 c31 -15 71 -40 90 -58 19 -17 47 -38 63 -47 15 -9 27 -20 27 -24 0 -4 6
-8 13 -8 6 0 22 -10 34 -23 24 -25 119 -74 227 -116 25 -10 28 -15 22 -44 -3
-18 -9 -83 -12 -146 -7 -111 -8 -116 -46 -172 -48 -73 -82 -83 -153 -48 l-47
24 -22 -26 c-11 -15 -29 -36 -38 -47 -22 -27 -63 -38 -97 -26 -24 9 -26 15
-29 69 -4 85 6 94 98 97 71 3 75 2 78 -19 5 -32 40 -31 48 1 9 37 -12 69 -39
59 -26 -9 -100 -8 -142 2 -26 6 -33 2 -51 -22 -11 -15 -27 -59 -34 -98 -16
-88 -46 -125 -101 -125 -44 0 -48 4 -56 68 -4 38 -2 51 12 62 15 12 19 11 34
-9 l18 -24 17 24 c9 13 16 31 16 39 0 9 17 36 37 59 20 24 44 66 53 95 17 49
19 51 49 48 18 -2 43 4 56 12 33 22 74 20 110 -4 43 -28 79 -26 94 6 22 49
-14 90 -39 44 -15 -28 -36 -25 -62 10 -26 35 -46 38 -78 10 -27 -24 -87 -27
-116 -6 -15 12 -19 26 -18 70 2 60 -14 75 -38 35 -30 -47 -129 -80 -165 -54
-18 13 -19 27 -10 125 2 30 -26 35 -31 5 -9 -46 -87 -105 -141 -105 -36 0 -38
3 -46 66 l-7 51 64 64 c35 35 71 69 79 74 8 6 22 16 32 24 59 47 159 50 247 8z
m1216 -105 c15 -19 10 -62 -9 -74 -7 -4 -29 -8 -50 -8 -22 0 -40 -5 -43 -14
-7 -17 34 -86 52 -86 17 0 36 -34 28 -53 -7 -20 -66 -50 -88 -46 -31 6 -43 35
-23 57 32 36 22 50 -35 48 -48 -1 -53 1 -75 33 -40 58 -5 111 72 111 35 0 45
4 50 21 13 40 93 48 121 11z m116 -103 c44 -59 -9 -135 -78 -112 -52 17 -56
100 -6 128 36 20 61 15 84 -16z m-1784 -41 c7 -7 12 -27 12 -45 0 -27 4 -33
20 -33 44 0 35 -41 -26 -117 -33 -40 -35 -41 -70 -30 -59 18 -67 77 -19 142
12 17 30 45 39 63 18 35 26 38 44 20z m1042 -53 c19 -24 41 -44 48 -45 7 0 31
9 54 20 36 17 43 18 68 5 59 -30 43 -108 -25 -121 -44 -8 -63 -1 -75 30 -14
37 -24 37 -53 0 -30 -37 -65 -45 -90 -20 -20 20 -21 134 -1 163 18 29 31 23
74 -32z m-850 -21 c0 -8 -4 -14 -10 -14 -5 0 -10 -7 -10 -15 0 -19 9 -19 30 0
15 14 18 14 30 0 25 -30 -44 -179 -102 -220 -36 -25 -71 -19 -92 15 -21 36
-15 77 20 130 13 19 28 49 34 65 7 21 22 36 48 47 40 17 52 15 52 -8z m250
-49 c34 -54 21 -91 -63 -180 -38 -41 -74 -75 -80 -75 -22 0 -66 43 -72 70 -6
28 9 93 27 115 4 5 8 17 8 28 0 43 16 54 65 47 39 -6 47 -4 56 12 15 27 35 22
59 -17z m678 -123 c17 -22 16 -23 -20 -78 -45 -67 -74 -70 -111 -14 -35 54
-35 78 1 85 15 4 38 13 52 20 28 16 59 11 78 -13z m-1214 -23 c18 -14 36 -19
53 -16 52 10 78 -56 48 -120 -18 -37 -61 -82 -80 -84 -5 0 -23 -3 -38 -5 -21
-4 -33 2 -50 20 -18 20 -22 37 -23 107 -2 115 27 147 90 98z m1564 -49 c17
-11 32 -27 32 -36 0 -29 -40 -74 -66 -74 -27 0 -114 46 -114 60 0 11 44 56 62
63 26 11 54 6 86 -13z m-271 -32 c24 -27 43 -62 43 -80 0 -18 -73 -58 -108
-58 -21 0 -32 7 -40 25 -17 37 -15 45 13 67 14 11 25 27 25 37 0 38 36 42 67
9z m-984 -23 c27 -24 35 -59 19 -93 -5 -9 -15 -30 -23 -46 -8 -16 -27 -37 -44
-47 -31 -18 -92 -24 -111 -11 -6 4 -14 42 -17 84 -6 84 -9 78 54 92 15 3 29
15 32 26 7 28 55 26 90 -5z m2144 -90 c70 -68 93 -110 100 -185 4 -36 0 -51
-17 -73 -25 -32 -46 -34 -80 -7 -14 11 -28 20 -32 20 -17 0 -7 -44 16 -71 28
-33 25 -63 -9 -85 -17 -11 -29 -12 -49 -4 -38 14 -52 51 -38 99 7 21 12 54 12
72 0 27 9 42 40 72 45 42 46 45 25 73 -15 19 -16 18 -38 -8 -12 -16 -28 -28
-35 -28 -17 0 -111 53 -115 65 -3 6 -2 25 1 43 6 42 57 72 139 81 7 0 43 -28
80 -64z m-1294 2 c29 -57 29 -87 -1 -98 -13 -5 -32 -7 -41 -4 -9 2 -21 1 -28
-3 -14 -9 -42 -81 -53 -137 -17 -87 -28 -103 -75 -110 -69 -11 -105 20 -112
95 -1 19 -5 60 -8 90 -4 36 -1 64 7 80 19 34 46 38 57 7 16 -42 29 -40 41 5
27 110 63 138 86 68 8 -23 18 -35 30 -35 12 0 18 6 15 15 -12 48 -12 63 -1 70
24 15 63 -5 83 -43z m734 29 c15 -18 31 -24 77 -28 42 -3 63 -10 72 -23 31
-43 3 -95 -50 -95 -42 0 -72 23 -80 61 l-6 31 -36 -31 c-36 -32 -60 -34 -91
-9 -22 18 -15 67 13 93 35 32 77 32 101 1z m-434 -22 c18 -10 41 -28 52 -40
11 -13 30 -24 42 -24 11 0 49 -9 84 -20 35 -11 68 -19 74 -16 6 2 34 -7 61
-20 27 -13 55 -24 61 -24 19 0 27 -48 14 -76 -6 -14 -11 -33 -11 -43 0 -38
-56 -41 -99 -5 -24 19 -31 34 -31 60 0 46 -27 45 -58 -1 -25 -39 -46 -43 -98
-19 -34 16 -36 16 -60 -7 -15 -13 -30 -34 -34 -45 -9 -22 -48 -35 -81 -27 -11
3 -24 21 -31 44 -6 22 -12 39 -13 39 -1 0 -16 -5 -32 -11 -40 -13 -138 13
-154 42 -13 26 -2 59 20 59 10 0 31 10 46 21 49 40 136 18 145 -36 5 -28 8
-30 53 -31 40 -1 51 2 64 22 24 38 12 53 -41 47 -55 -7 -73 5 -82 53 -12 65
41 93 109 58z m-1574 -18 c5 -13 22 -32 37 -43 l28 -21 -13 -68 c-7 -38 -17
-91 -23 -118 -14 -65 -3 -341 17 -426 9 -36 20 -90 25 -120 5 -30 14 -75 19
-99 5 -27 5 -54 0 -69 -7 -19 -3 -35 20 -76 18 -32 31 -72 35 -110 3 -32 11
-65 17 -72 6 -8 8 -21 5 -30 -4 -11 4 -32 20 -55 20 -29 24 -45 19 -68 -8 -36
-31 -41 -41 -8 -3 12 -21 47 -39 78 -18 31 -35 71 -38 90 -9 57 -28 123 -38
134 -5 5 -9 28 -9 50 0 23 -7 57 -16 74 -11 21 -15 47 -11 71 4 32 1 43 -19
61 -14 13 -23 28 -21 33 2 6 -2 27 -8 47 -7 20 -16 65 -19 100 -7 67 -15 108
-25 124 -3 6 -4 96 -3 200 2 173 9 234 38 333 6 21 34 13 43 -12z m922 -13
c19 -12 27 -23 23 -33 -3 -8 -8 -28 -11 -45 -2 -16 -14 -54 -26 -84 -15 -40
-18 -58 -10 -71 12 -17 1 -81 -20 -128 -15 -33 -81 -51 -116 -31 -34 20 -45
68 -43 198 2 113 6 121 55 121 36 0 87 35 87 59 0 35 18 39 61 14z m1964 -70
c86 -77 91 -91 55 -141 -39 -54 -80 -62 -133 -25 -22 15 -42 34 -45 43 -3 8
-21 34 -39 58 -39 47 -38 72 0 65 21 -4 29 1 41 26 24 45 48 39 121 -26z
m-2681 11 c13 -13 15 -30 9 -102 -5 -48 -7 -139 -5 -202 1 -63 2 -135 3 -160
1 -76 -8 -234 -15 -262 -12 -42 -56 -49 -56 -10 0 10 -10 36 -21 57 -66 124
-77 601 -16 683 13 17 83 15 101 -4z m261 -35 c4 -11 21 -27 39 -34 49 -21 67
-46 60 -83 -5 -25 -3 -32 9 -32 16 0 32 34 23 49 -3 5 3 33 13 62 16 49 21 54
47 54 27 0 29 -3 32 -40 2 -22 -2 -58 -9 -80 -6 -22 -16 -69 -20 -105 -17
-139 -26 -154 -85 -152 -35 1 -74 32 -112 90 -18 28 -31 292 -14 292 6 0 14
-9 17 -21z m1806 11 c33 -18 21 -124 -18 -154 -24 -18 -26 -18 -63 -1 -56 25
-65 57 -31 117 23 42 30 48 59 48 18 0 42 -5 53 -10z m-1860 -150 c-8 -41 -4
-98 13 -175 6 -24 0 -40 -26 -80 -18 -27 -40 -51 -49 -53 -27 -5 -83 42 -96
80 -16 48 -22 323 -7 338 8 8 24 5 58 -10 57 -24 75 -25 81 -5 15 48 18 48 26
0 5 -28 5 -70 0 -95z m1993 107 c18 -24 26 -46 26 -76 0 -35 -4 -43 -26 -51
-35 -14 -41 -13 -64 10 -15 15 -20 33 -20 78 0 32 3 62 7 65 17 18 54 5 77
-26z m331 -127 c17 -11 36 -20 44 -20 8 0 22 -7 31 -15 9 -9 40 -21 67 -28 95
-25 186 -112 258 -248 5 -10 22 -23 36 -28 19 -7 29 -19 34 -43 4 -18 19 -49
34 -68 33 -42 56 -85 65 -122 3 -16 11 -28 16 -28 5 0 12 -20 16 -45 3 -25 15
-56 25 -69 21 -26 25 -71 8 -82 -6 -3 -8 -17 -5 -30 6 -24 0 -33 -59 -83 -24
-20 -31 -21 -51 -11 -28 16 -54 92 -60 174 -2 40 -8 63 -19 68 -8 5 -15 14
-15 20 0 6 -13 32 -29 57 -16 25 -31 58 -35 73 -3 15 -20 51 -37 79 -38 65
-48 109 -25 109 9 0 21 -10 26 -22 20 -44 51 -89 77 -112 14 -12 40 -52 57
-87 18 -36 37 -64 46 -64 8 0 13 7 11 15 -2 8 -6 28 -9 43 -2 16 -15 40 -28
54 -13 14 -24 30 -24 35 0 5 -11 21 -25 36 -14 15 -25 31 -25 35 0 18 -116
176 -137 188 -13 7 -23 15 -23 19 0 18 -72 81 -85 76 -19 -7 -19 -40 -1 -55
21 -17 52 -81 60 -121 4 -19 11 -44 15 -55 22 -53 43 -146 38 -167 -4 -14 -1
-33 8 -44 8 -13 14 -47 14 -92 0 -39 4 -80 10 -90 5 -9 12 -110 16 -222 3
-113 8 -230 10 -260 3 -38 -1 -62 -12 -79 -10 -15 -13 -35 -9 -60 8 -49 8 -51
2 -90 -9 -60 -58 -165 -90 -194 -17 -15 -40 -36 -51 -47 -30 -29 -112 -31
-139 -4 -14 14 -14 17 0 39 11 17 13 29 5 42 -7 15 0 39 34 107 24 49 41 95
38 103 -3 7 1 21 10 31 8 9 18 36 22 59 4 23 20 59 36 79 16 20 29 39 29 42 0
2 -9 19 -19 36 -36 58 -27 163 15 191 28 18 34 65 8 65 -24 0 -45 26 -51 63
-4 26 2 43 26 79 38 56 39 75 6 88 -30 11 -45 47 -43 100 1 21 -5 46 -12 56
-8 9 -17 45 -21 80 -5 46 -14 75 -34 104 -19 27 -28 53 -29 86 -1 32 -7 49
-19 55 -9 6 -17 19 -17 29 0 25 -35 27 -48 4 -13 -24 -89 -10 -98 18 -7 24 25
98 44 98 7 0 20 16 28 35 17 41 19 41 59 15z m-1395 -5 c9 -11 29 -15 63 -13
45 1 53 -2 79 -31 15 -17 28 -37 28 -44 0 -7 -15 -34 -32 -61 -33 -49 -58 -69
-58 -46 0 7 -17 33 -38 59 -45 54 -82 116 -82 137 0 18 24 18 40 -1z m871 -64
c27 -26 30 -63 9 -90 -18 -25 -19 -25 -95 -13 -52 8 -82 9 -95 2 -26 -14 -93
-13 -108 2 -16 16 -15 78 1 82 6 2 29 9 50 15 33 11 40 10 68 -10 l31 -22 25
32 c22 28 29 31 61 25 21 -3 44 -14 53 -23z m341 -141 c24 -26 31 -28 80 -24
77 7 95 0 108 -43 7 -21 22 -58 33 -83 43 -95 95 -373 75 -398 -6 -7 -8 -28
-3 -50 11 -58 13 -186 3 -199 -6 -7 -6 -45 1 -99 6 -48 9 -90 6 -94 -2 -4 -7
-31 -9 -61 -7 -79 -49 -202 -84 -246 -16 -21 -36 -54 -45 -74 -16 -39 -16
-111 0 -131 26 -32 17 -118 -15 -150 -7 -7 -12 -26 -12 -43 0 -17 -9 -47 -20
-68 -11 -20 -20 -42 -20 -48 0 -6 -16 -29 -35 -50 -21 -23 -35 -49 -35 -64 0
-26 -25 -95 -38 -105 -4 -3 -23 -25 -42 -50 -19 -25 -42 -51 -52 -58 -10 -7
-18 -20 -18 -28 0 -16 -122 -144 -138 -144 -6 0 -34 -19 -64 -43 -29 -24 -66
-48 -83 -54 -48 -18 -233 -24 -274 -8 -20 7 -52 17 -71 22 -33 9 -35 12 -34
47 1 20 6 42 13 49 11 11 200 40 261 40 19 0 47 -4 63 -8 22 -6 27 -4 27 12 0
10 -5 24 -12 31 -15 15 1 33 59 68 37 21 52 25 88 20 53 -8 63 4 36 43 -12 16
-21 31 -21 34 0 3 31 37 68 76 55 58 73 71 99 71 44 0 60 23 32 48 -21 20 -21
21 -4 74 10 29 29 69 42 88 12 19 23 45 23 58 0 22 50 132 74 161 6 8 16 41
23 74 7 33 19 67 26 76 8 9 17 36 21 61 4 25 11 68 17 95 15 73 15 98 2 102
-6 2 -14 -6 -18 -19 -3 -13 -12 -36 -20 -53 -7 -16 -24 -74 -36 -129 -22 -96
-36 -133 -72 -186 -9 -14 -18 -41 -20 -60 -9 -82 -16 -93 -83 -132 -71 -42
-120 -48 -181 -23 -19 8 -48 15 -64 15 -18 0 -32 7 -39 21 -17 30 11 69 49 69
37 0 87 18 135 48 27 17 53 24 83 24 48 -1 55 11 23 46 -30 32 -25 49 29 104
43 44 48 54 40 75 -13 35 -11 77 5 108 8 15 12 39 10 55 -4 23 1 31 31 48 41
25 43 37 12 75 -28 36 -57 28 -57 -14 0 -16 -6 -32 -14 -35 -9 -3 -15 -32 -20
-85 -4 -44 -13 -94 -21 -112 -7 -17 -16 -39 -19 -47 -3 -8 -19 -37 -35 -65
-16 -27 -30 -60 -30 -73 -1 -12 -9 -26 -18 -29 -10 -4 -36 -21 -57 -40 -33
-27 -48 -33 -87 -33 -67 0 -80 20 -41 64 31 36 48 73 38 83 -9 9 -35 -17 -82
-83 -33 -46 -62 -73 -116 -105 -92 -56 -155 -79 -183 -69 -12 4 -28 5 -36 0
-19 -10 -107 -6 -118 5 -17 18 -22 79 -8 105 11 21 20 25 61 26 65 2 157 34
180 62 10 13 36 35 58 48 22 14 47 38 56 53 9 17 32 33 56 42 40 14 41 16 38
55 -2 30 3 48 20 69 23 29 68 119 68 136 0 24 -31 5 -45 -28 -9 -21 -21 -45
-26 -53 -5 -8 -16 -30 -24 -47 -17 -37 -181 -203 -200 -203 -8 0 -26 -11 -42
-24 -38 -32 -118 -65 -133 -56 -14 9 54 110 74 110 17 0 136 127 136 145 0 7
42 59 85 106 22 23 19 49 -5 49 -11 0 -20 -4 -20 -9 0 -5 -28 -38 -62 -74 -56
-58 -71 -68 -128 -84 -36 -10 -96 -18 -135 -18 -65 0 -75 3 -142 44 -63 38
-74 49 -79 79 -8 40 16 68 45 53 9 -5 18 -9 21 -9 3 0 19 -6 35 -12 19 -8 58
-10 110 -6 65 5 84 3 103 -10 34 -23 52 -12 45 29 -4 30 -2 35 23 45 16 6 48
13 72 16 68 10 81 22 69 64 -11 33 -9 36 26 64 22 18 52 59 73 102 20 39 41
74 47 78 6 3 11 28 13 55 4 88 29 214 44 223 42 22 79 -35 61 -97 -4 -15 -6
-33 -4 -38 2 -6 -6 -38 -18 -70 -29 -81 -35 -135 -17 -135 22 0 38 21 38 51 0
32 32 75 49 65 7 -5 10 -27 9 -56 -3 -56 10 -66 31 -24 9 19 14 61 13 126 0
111 10 134 57 123 39 -10 43 -19 33 -61 -6 -22 -13 -104 -16 -184 -4 -118 -9
-154 -26 -193 -14 -32 -20 -63 -18 -95 l3 -47 16 30 c24 44 63 211 54 232 -5
10 -7 23 -6 28 7 28 13 73 13 95 -1 23 22 107 37 139 16 32 40 37 63 13 25
-25 27 -70 14 -280 -7 -97 -6 -103 11 -100 10 2 26 19 35 38 16 31 16 36 2 58
-14 21 -14 35 -5 100 8 54 8 78 0 88 -7 8 -9 37 -5 76 3 35 6 70 7 78 4 60
-21 128 -63 175 -31 35 -68 83 -68 89 0 3 5 6 10 6 23 0 70 54 70 80 0 40 -11
43 -31 10 -22 -35 -48 -38 -74 -10 -14 15 -29 20 -57 18 -20 -1 -40 1 -44 4
-9 10 26 77 50 94 32 23 95 11 128 -26z m-223 -14 c41 -44 16 -85 -62 -101
-16 -3 -27 -11 -24 -18 5 -15 79 -28 92 -16 36 35 128 -20 159 -95 8 -19 33
-55 56 -80 31 -33 40 -50 35 -65 -7 -24 -61 -37 -103 -26 -15 4 -54 9 -87 12
-33 3 -65 9 -71 14 -6 5 -45 18 -85 29 -204 56 -255 62 -284 30 -10 -11 -23
-20 -29 -20 -6 0 -17 -9 -24 -20 -13 -21 -56 -27 -67 -9 -4 5 0 18 8 27 8 9
17 36 21 59 5 37 3 44 -15 54 -32 17 -88 4 -119 -28 l-28 -28 21 -38 c16 -29
18 -40 9 -49 -10 -10 -20 -9 -49 7 -34 19 -54 54 -70 123 -9 38 -31 38 -67 -2
-19 -20 -39 -36 -46 -36 -6 0 -31 14 -56 30 -35 25 -48 29 -63 20 -11 -5 -41
-10 -68 -10 -57 0 -113 -15 -124 -32 -5 -7 -5 -32 -2 -56 6 -41 5 -44 -17 -40
-13 1 -26 10 -30 18 -4 8 -15 32 -25 53 -16 33 -17 40 -4 48 7 5 21 9 30 9 9
0 22 7 30 16 7 8 25 22 41 30 17 9 28 23 28 35 0 18 -4 20 -27 15 -98 -25
-106 -16 -39 39 70 57 78 58 296 29 74 -10 130 -39 123 -64 -3 -11 -3 -26 1
-35 8 -21 48 -4 83 35 47 52 148 69 234 39 30 -10 63 -18 73 -19 17 0 16 3 -8
29 -36 37 -29 56 19 59 21 2 49 9 64 16 30 16 78 10 103 -11 16 -14 16 -18 -2
-54 -26 -50 -43 -59 -92 -46 -21 5 -42 6 -46 2 -10 -10 36 -45 59 -45 10 0 52
-15 92 -34 40 -18 84 -37 97 -41 14 -4 40 -16 57 -27 35 -21 74 -21 81 0 2 7
-5 16 -17 19 -12 3 -21 9 -21 13 0 5 -14 11 -31 15 -45 10 -136 52 -145 67
-16 25 -13 45 6 63 11 10 20 31 20 47 0 47 16 68 54 68 21 0 40 -8 55 -24z
m778 -434 c16 -10 43 -90 43 -129 0 -17 5 -35 10 -38 6 -3 10 -19 10 -35 0
-37 50 -117 88 -140 16 -10 33 -31 39 -46 35 -94 53 -146 68 -199 9 -33 23
-76 30 -96 8 -20 11 -39 8 -42 -10 -11 -3 -132 10 -167 7 -19 27 -56 44 -82
30 -48 49 -120 37 -140 -4 -6 -8 -54 -9 -106 -2 -80 -6 -98 -21 -111 -11 -9
-33 -37 -49 -63 -25 -41 -35 -48 -61 -48 -17 0 -37 7 -44 15 -26 31 -50 12
-50 -39 0 -29 -103 -121 -146 -130 -41 -9 -62 13 -45 50 6 14 11 40 11 57 0
18 9 51 20 72 11 22 21 56 21 75 1 70 8 316 10 345 1 17 -4 57 -11 90 -7 33
-12 98 -12 145 0 47 -5 95 -11 107 -6 13 -8 25 -5 28 12 12 39 -9 44 -34 3
-14 9 -35 14 -46 16 -39 41 -166 39 -198 -1 -18 4 -45 10 -62 7 -16 11 -46 8
-65 -4 -33 18 -90 34 -90 15 0 18 66 5 119 -8 31 -17 85 -21 121 -8 87 -26
171 -42 195 -7 11 -13 30 -13 44 0 13 -7 32 -15 41 -9 10 -20 46 -27 81 -6 35
-15 70 -20 76 -6 7 -11 95 -13 196 -2 127 -7 190 -15 204 -7 11 -10 28 -7 37
7 17 16 20 34 8z m367 -117 c6 -11 27 -47 46 -80 46 -77 60 -110 60 -140 0
-13 8 -32 19 -42 17 -17 37 -68 32 -86 -1 -5 7 -34 18 -65 11 -32 24 -97 31
-147 6 -49 16 -106 22 -126 6 -20 8 -41 4 -47 -3 -5 -8 -27 -12 -48 -3 -22
-12 -57 -19 -78 -8 -22 -12 -43 -9 -47 7 -13 -39 -39 -68 -39 -47 0 -58 31
-61 171 -2 68 -9 144 -16 169 -26 94 -31 118 -31 146 0 16 -6 39 -14 50 -8 11
-17 38 -21 60 -3 21 -13 58 -22 82 -8 24 -13 46 -9 49 3 3 -4 19 -16 35 -19
27 -19 31 -5 46 15 14 18 14 36 -2 11 -10 27 -41 36 -70 23 -73 56 -136 71
-136 10 0 10 7 2 33 -5 17 -12 43 -15 57 -3 14 -11 32 -18 40 -7 8 -20 38 -30
65 -9 28 -22 59 -29 70 -7 11 -16 39 -20 63 -6 37 -4 43 10 40 9 -2 22 -12 28
-23z m-96 -232 c5 -10 15 -43 22 -73 6 -30 18 -68 25 -85 22 -51 24 -61 60
-309 9 -60 14 -115 11 -122 -17 -45 -59 36 -50 96 4 26 1 45 -10 62 -9 14 -15
42 -14 65 0 22 -3 46 -8 54 -8 13 -23 75 -42 175 -5 22 -16 51 -25 64 -17 25
-23 71 -10 83 12 13 32 7 41 -10z m-287 -589 c3 -32 2 -115 -2 -183 -5 -81 -4
-131 2 -143 8 -14 6 -32 -5 -66 -44 -135 -66 -217 -66 -247 0 -47 -13 -76 -53
-118 -31 -33 -40 -37 -86 -37 -98 0 -115 55 -53 167 22 37 42 83 46 102 3 19
12 42 20 50 16 18 44 197 44 280 0 34 5 57 14 62 19 13 48 -27 48 -67 0 -19 5
-34 10 -34 20 0 21 27 0 74 -25 59 -26 92 -1 105 12 7 20 25 24 57 5 44 21 67
42 61 6 -2 13 -30 16 -63z m-1460 -235 c26 -16 52 -35 57 -42 13 -16 -3 -57
-23 -57 -8 0 -34 -17 -58 -38 -42 -38 -88 -60 -207 -101 -111 -39 -324 -38
-390 1 -8 5 -35 14 -60 21 -40 11 -48 19 -73 66 -22 42 -27 62 -22 89 l6 34
55 -4 c31 -3 62 -12 72 -22 11 -9 28 -19 38 -21 11 -2 37 -9 59 -14 22 -5 51
-12 65 -15 14 -2 33 -7 43 -11 11 -5 25 -1 36 9 28 26 127 48 166 37 36 -10
75 8 75 33 0 12 84 65 104 66 5 0 31 -14 57 -31z"/>
<path d="M5360 4881 c0 -6 17 -34 39 -62 24 -32 37 -58 34 -70 -8 -31 -66 -60
-114 -57 -36 2 -49 9 -83 46 -23 24 -57 52 -76 63 -20 11 -40 30 -45 42 -6 12
-17 22 -25 22 -30 0 -19 -32 30 -85 82 -89 94 -100 112 -100 10 0 25 -12 35
-27 53 -83 144 -193 160 -193 28 0 11 38 -47 100 -42 45 -56 68 -49 76 14 17
70 23 97 11 22 -10 83 -95 185 -256 26 -42 53 -76 60 -76 20 0 19 34 -2 64
-11 15 -25 41 -31 56 -12 31 -33 61 -108 147 -47 55 -75 111 -65 131 6 10 49
9 75 -4 25 -12 96 -114 116 -169 7 -19 17 -39 22 -44 6 -6 10 -17 10 -26 0 -9
9 -25 20 -35 11 -10 20 -25 20 -33 0 -23 70 -162 81 -162 19 0 8 61 -21 110
-16 28 -30 55 -30 60 0 4 -5 10 -11 12 -5 2 -20 33 -33 68 -21 61 -72 154
-103 192 -11 13 -12 21 -3 37 6 12 14 21 18 21 18 0 54 -34 71 -68 23 -45 56
-77 65 -63 10 16 -44 121 -68 132 -12 6 -29 23 -38 40 -17 29 -18 29 -41 14
-14 -9 -47 -18 -75 -22 l-50 -6 -49 53 c-50 54 -83 78 -83 61z"/>
<path d="M5766 4562 c-3 -4 2 -19 9 -33 8 -13 17 -31 20 -39 3 -8 13 -28 21
-43 7 -16 14 -41 14 -55 0 -15 9 -40 20 -57 11 -16 20 -41 20 -54 0 -13 9 -38
19 -55 11 -17 22 -52 26 -78 7 -47 29 -65 41 -34 6 16 -52 226 -67 241 -5 5
-9 18 -9 28 0 11 -13 42 -30 68 -16 27 -27 55 -24 63 3 8 -4 24 -15 35 -22 22
-37 26 -45 13z"/>
<path d="M4662 3746 c3 -25 17 -69 31 -97 21 -43 23 -56 15 -92 -5 -23 -7 -82
-3 -132 3 -49 6 -97 5 -105 -2 -60 -9 -110 -18 -126 -14 -26 -1 -89 18 -89 9
0 17 15 22 40 6 34 20 247 21 310 0 47 -27 189 -48 257 -27 86 -51 105 -43 34z"/>
<path d="M5176 3122 c-5 -9 12 -89 26 -116 5 -10 11 -35 13 -55 6 -59 24 -143
34 -155 5 -6 11 -24 14 -41 26 -136 28 -149 16 -177 -7 -17 -8 -33 -3 -41 11
-15 11 -201 0 -246 -8 -29 -7 -33 10 -29 14 2 21 16 26 53 14 88 17 258 7 325
-5 36 -11 77 -13 92 -2 14 -8 32 -12 40 -5 7 -11 36 -15 63 -11 87 -28 156
-44 178 -8 12 -15 36 -15 54 0 37 -31 76 -44 55z"/>
<path d="M2457 7286 c-45 -43 -52 -68 -36 -123 16 -59 45 -78 118 -75 l56 2
35 -73 c19 -39 40 -79 46 -87 24 -30 26 -65 5 -84 -30 -27 -50 -13 -113 77
-59 84 -183 227 -198 227 -12 0 -70 -62 -70 -76 0 -7 33 -45 73 -86 90 -91
161 -183 182 -236 9 -23 25 -44 34 -47 20 -6 261 105 261 120 0 6 -20 51 -44
100 -23 50 -55 117 -70 150 -92 206 -125 245 -204 245 -32 0 -47 -7 -75 -34z"/>
<path d="M5571 7206 c-19 -7 -48 -29 -64 -49 -36 -43 -32 -51 49 -97 71 -40
134 -97 134 -122 0 -10 -9 -37 -21 -59 -20 -40 -22 -41 -57 -34 -52 11 -78 8
-108 -12 -68 -44 -55 -161 22 -198 65 -31 126 -11 160 52 60 109 88 160 101
178 16 23 17 83 3 121 -10 25 -25 41 -100 103 -19 15 -21 20 -9 21 9 0 24 -9
34 -21 29 -31 135 -99 156 -99 10 0 25 10 33 22 18 25 21 68 6 68 -12 0 -115
74 -125 90 -3 6 -24 19 -45 30 -45 23 -116 25 -169 6z"/>
<path d="M2060 7043 c-19 -3 -39 -9 -44 -14 -6 -5 -17 -9 -27 -9 -26 0 -105
-76 -128 -123 -25 -51 -27 -104 -7 -152 15 -34 38 -46 51 -25 13 21 20 9 20
-33 0 -34 9 -57 39 -103 53 -81 147 -204 156 -204 4 0 20 10 36 23 15 12 91
65 168 118 78 53 142 103 144 112 3 17 -17 50 -97 162 -28 39 -55 79 -61 90
-5 11 -29 44 -52 74 -33 42 -54 58 -93 72 -27 10 -54 17 -60 17 -5 -1 -26 -3
-45 -5z m103 -155 c20 -22 43 -51 50 -64 6 -12 33 -53 60 -91 26 -38 47 -74
47 -79 0 -16 -159 -117 -175 -111 -32 13 -35 42 -10 90 59 109 1 189 -124 172
-39 -5 -49 -3 -54 9 -14 36 35 99 89 116 45 14 76 3 117 -42z"/>
<path d="M5980 6959 c-38 -15 -70 -50 -70 -75 0 -20 50 -74 69 -74 4 0 16 9
26 20 30 33 81 27 121 -16 37 -38 40 -53 22 -87 -12 -24 -150 -206 -210 -278
-21 -25 -38 -50 -38 -56 0 -17 70 -74 88 -71 14 3 39 32 113 138 18 25 51 68
74 95 79 94 98 130 98 188 1 40 -5 62 -25 93 -64 100 -186 156 -268 123z"/>
<path d="M938 5243 c-25 -30 -138 -339 -172 -473 -27 -105 -29 -139 -12 -165
19 -29 61 -33 75 -7 5 9 12 40 16 67 6 45 61 271 116 482 26 102 17 142 -23
96z"/>
<path d="M7100 5079 c0 -26 26 -142 51 -228 11 -35 19 -76 19 -92 0 -16 4 -29
9 -29 9 0 34 -96 51 -201 13 -75 17 -84 46 -93 14 -4 26 0 38 13 16 18 16 26
-4 145 -18 109 -67 279 -90 311 -4 6 -13 28 -20 50 -26 82 -61 145 -81 145
-13 0 -19 -7 -19 -21z"/>
<path d="M406 4492 c-41 -7 -56 -31 -32 -51 12 -10 196 -42 245 -43 24 0 51
25 51 48 0 25 -32 45 -69 43 -20 0 -63 1 -96 4 -33 3 -78 2 -99 -1z"/>
<path d="M887 4442 c-20 -22 -22 -46 -4 -59 20 -17 228 -25 256 -11 63 33 28
55 -117 74 -59 8 -110 14 -113 14 -3 0 -13 -8 -22 -18z"/>
<path d="M7473 4343 c-60 -5 -82 -27 -63 -64 10 -18 17 -20 68 -14 83 10 195
34 206 45 5 5 6 16 3 24 -6 16 -70 19 -214 9z"/>
<path d="M7076 4299 c-93 -10 -142 -24 -150 -45 -10 -26 40 -35 157 -28 101 6
110 9 119 30 13 27 -4 55 -31 53 -9 -1 -51 -5 -95 -10z"/>
<path d="M701 4253 c-14 -47 -14 -97 -1 -198 5 -44 12 -100 14 -125 3 -25 10
-70 16 -100 6 -30 15 -77 19 -105 20 -125 46 -180 74 -157 14 12 13 143 -2
212 -4 19 -9 71 -10 115 -1 43 -4 82 -6 85 -2 4 -5 67 -5 141 -2 148 -10 169
-61 169 -24 0 -30 -6 -38 -37z"/>
<path d="M7296 4134 c-3 -9 -6 -61 -6 -117 0 -56 -5 -151 -10 -212 -5 -60 -12
-165 -15 -232 -6 -119 -6 -123 14 -123 16 0 24 11 35 53 9 28 17 70 20 92 2
22 13 114 24 205 20 164 24 314 9 338 -12 18 -64 15 -71 -4z"/>
<path d="M1512 2030 c-43 -10 -105 -60 -112 -89 -3 -13 -15 -28 -26 -34 -36
-20 -214 -189 -214 -203 0 -25 22 -62 46 -74 13 -7 21 -16 19 -21 -12 -19 38
6 58 30 12 14 58 58 102 96 44 39 82 72 85 75 7 8 40 6 67 -4 46 -15 92 44 63
79 -10 12 -9 15 3 15 27 0 57 -41 57 -76 0 -34 -18 -84 -30 -84 -4 0 -26 -18
-49 -40 -23 -22 -44 -40 -46 -40 -2 0 -19 -15 -38 -32 -19 -18 -60 -56 -91
-85 -31 -28 -56 -58 -56 -66 0 -8 18 -31 40 -51 33 -30 44 -35 60 -26 10 6 23
16 27 23 4 7 55 55 113 107 164 148 200 198 200 280 0 135 -148 253 -278 220z"/>
<path d="M6283 1898 c-17 -13 -40 -42 -52 -65 -11 -24 -30 -44 -43 -48 -43
-13 -78 -65 -78 -112 0 -15 8 -44 18 -64 17 -37 308 -349 324 -349 5 0 23 14
40 30 30 31 30 31 24 118 -3 48 -10 125 -16 171 -5 47 -7 87 -4 90 2 3 43 -34
91 -82 47 -48 91 -87 97 -87 18 0 66 53 66 72 0 20 -289 306 -333 330 -45 24
-96 22 -134 -4z"/>
<path d="M5731 1699 c-47 -9 -104 -47 -122 -81 -27 -51 11 -208 50 -208 15 0
78 52 241 198 l45 40 -21 29 c-19 25 -27 28 -85 30 -35 0 -84 -3 -108 -8z"/>
<path d="M1852 1631 c-22 -16 -43 -35 -47 -41 -5 -8 22 -40 69 -85 88 -84 96
-112 47 -167 -28 -31 -30 -32 -68 -20 -84 25 -153 -22 -153 -105 0 -34 6 -46
35 -72 22 -19 47 -31 64 -31 37 0 87 35 129 90 19 25 42 55 53 67 35 42 69
102 69 123 0 37 -39 111 -75 141 -11 10 -17 20 -13 24 14 14 46 -7 77 -51 56
-77 108 -93 132 -40 9 19 2 31 -63 98 -79 83 -106 98 -172 98 -32 0 -54 -8
-84 -29z"/>
<path d="M5922 1552 l-32 -27 37 -55 c20 -30 53 -76 73 -101 39 -49 97 -155
90 -162 -3 -3 -30 -8 -61 -11 l-56 -7 -31 43 c-17 24 -35 48 -39 53 -100 127
-127 143 -189 116 -43 -20 -64 -54 -64 -105 0 -26 8 -41 37 -66 34 -30 41 -32
88 -27 49 5 54 3 74 -23 24 -34 26 -55 6 -90 -17 -29 -19 -88 -5 -124 13 -35
51 -57 101 -58 37 0 48 5 77 37 33 36 34 40 29 96 -4 50 -3 59 11 60 32 2 65
-3 102 -16 33 -12 41 -11 68 5 59 36 57 51 -30 165 -5 6 -42 60 -83 120 -132
194 -140 205 -155 205 -8 0 -30 -13 -48 -28z"/>
<path d="M2251 1366 c-12 -13 -25 -42 -28 -65 -5 -34 -1 -47 21 -75 32 -42 32
-54 4 -96 -22 -30 -27 -32 -85 -34 -53 -1 -66 -5 -89 -28 -33 -33 -50 -114
-28 -139 8 -8 14 -20 14 -25 0 -16 68 -36 100 -29 17 4 44 18 60 32 48 40 64
22 85 -100 5 -30 14 -43 46 -63 23 -14 42 -24 44 -22 2 2 20 34 41 72 39 67
48 83 114 201 19 33 42 76 52 95 10 19 30 54 44 77 l25 43 -33 20 c-18 11 -39
19 -47 18 -8 -2 -34 -39 -58 -83 -23 -44 -56 -105 -73 -135 -40 -75 -63 -102
-80 -95 -8 3 -28 29 -44 59 l-29 54 53 93 c43 77 53 104 56 151 3 52 0 59 -23
78 -38 30 -112 28 -142 -4z"/>
<path d="M5353 1205 c-85 -43 -136 -135 -112 -203 13 -38 32 -46 69 -27 27 14
29 20 28 60 -2 34 3 50 18 65 27 27 88 37 108 18 20 -21 146 -263 167 -323 19
-55 35 -63 80 -45 47 20 42 40 -78 275 -6 11 -27 55 -47 97 -33 66 -43 79 -77
92 -56 22 -97 20 -156 -9z"/>
<path d="M5055 1141 c-17 -10 -32 -30 -37 -49 -7 -26 -14 -32 -46 -38 -54 -9
-140 -63 -163 -103 -15 -25 -19 -48 -17 -85 l3 -51 43 3 c23 1 42 1 42 -1 0
-1 -9 -20 -20 -42 -25 -50 -25 -70 2 -169 33 -126 91 -171 167 -131 16 8 36
30 45 48 31 66 -7 134 -80 146 -66 11 -71 50 -12 94 19 14 34 17 57 12 51 -11
86 -56 121 -154 l32 -89 42 12 c37 11 41 15 40 42 -1 16 -9 49 -19 74 -9 25
-32 98 -51 164 -19 68 -47 139 -64 167 l-31 48 16 47 c9 26 14 53 11 61 -7 18
-45 15 -81 -6z m-25 -188 c59 -41 68 -83 18 -84 -56 -1 -85 -7 -118 -24 -38
-19 -41 -17 -42 26 -1 36 38 79 72 79 10 0 22 5 25 10 9 14 17 13 45 -7z"/>
<path d="M2816 1116 c-44 -14 -92 -62 -102 -103 -6 -21 -2 -31 17 -46 18 -15
21 -21 10 -25 -25 -8 -91 -84 -91 -104 0 -11 -6 -29 -12 -41 -21 -37 -36 -110
-31 -145 6 -33 44 -70 87 -86 51 -18 131 34 142 94 8 36 -13 101 -38 118 -21
15 -20 34 3 38 7 1 22 5 31 9 12 5 27 -2 48 -23 39 -39 40 -95 5 -189 -14 -37
-24 -77 -21 -89 6 -24 82 -52 98 -36 12 12 61 134 99 245 16 50 35 97 41 104
6 7 13 42 16 79 3 48 9 67 21 72 20 7 33 20 56 55 18 28 18 29 -2 48 -11 11
-38 24 -59 29 -35 8 -42 6 -66 -17 -24 -23 -31 -25 -50 -15 -42 22 -110 42
-137 41 -14 -1 -43 -7 -65 -13z m153 -122 c26 -22 31 -33 31 -70 0 -56 -17
-64 -62 -31 -18 13 -50 30 -71 37 -46 14 -55 32 -33 65 24 36 92 35 135 -1z"/>
<path d="M3310 974 c-46 -20 -88 -61 -106 -103 -17 -41 -18 -77 -1 -79 40 -4
157 -34 184 -48 29 -15 31 -19 27 -62 -4 -46 -15 -66 -37 -68 -7 0 -21 -2 -33
-2 -46 -4 -84 -59 -84 -123 0 -35 6 -47 36 -75 35 -34 47 -38 94 -34 61 5 93
42 115 130 22 93 25 108 32 178 5 55 3 67 -16 92 -27 38 -27 40 10 36 33 -4
69 21 69 48 0 8 3 21 6 29 7 18 -24 50 -42 43 -8 -3 -45 8 -83 24 -78 33 -119
37 -171 14z"/>
<path d="M4561 830 c1 -55 0 -103 -4 -106 -11 -11 -33 14 -51 58 -29 70 -44
93 -61 96 -26 6 -45 -18 -46 -57 -1 -53 -22 -116 -39 -116 -9 0 -21 24 -33 70
-21 83 -40 105 -96 112 -52 7 -77 -16 -87 -77 -6 -36 -3 -45 21 -70 15 -15 42
-31 61 -34 38 -8 48 -32 58 -141 19 -223 18 -218 68 -208 25 5 27 11 47 116
34 175 45 212 65 212 22 0 77 -105 110 -210 17 -54 41 -95 56 -95 5 0 20 10
34 23 23 20 25 26 17 67 -5 25 -14 92 -20 150 -14 123 -30 256 -37 288 -3 17
-11 22 -35 22 l-30 0 2 -100z"/>
<path d="M3748 875 c-56 -38 -103 -144 -65 -146 6 0 50 -4 96 -8 74 -7 88 -12
108 -35 16 -19 23 -40 23 -70 0 -45 -16 -68 -57 -80 -37 -12 -73 -63 -73 -105
0 -54 37 -86 97 -85 68 1 93 31 98 120 3 38 7 101 10 139 4 59 2 75 -15 103
-22 36 -87 71 -131 72 -37 0 -57 25 -31 39 14 8 36 6 78 -5 116 -30 132 -27
140 28 l6 35 -63 7 c-185 19 -181 19 -221 -9z"/>
</g>
</svg>
