 <svg  version="1.0" xmlns="http://www.w3.org/2000/svg"  width="450.000000pt" height="543.000000pt" viewBox="0 0 450.000000 543.000000"  preserveAspectRatio="xMidYMid meet">  <g transform="translate(0.000000,543.000000) scale(0.050000,-0.050000)" fill="#ffffff" stroke="none"> <path d="M4442 10415 c-57 -113 -148 -286 -203 -385 -54 -99 -111 -200 -124 -225 -14 -25 -93 -164 -176 -310 -83 -146 -163 -294 -178 -330 -14 -36 -34 -65 -44 -65 -9 0 -42 -52 -72 -115 -30 -63 -66 -127 -80 -141 -14 -15 -25 -40 -25 -56 0 -16 -13 -34 -30 -41 -16 -6 -30 -28 -30 -49 0 -21 -18 -54 -40 -73 -22 -18 -40 -54 -40 -79 0 -26 -9 -46 -20 -46 -12 0 -30 -22 -40 -50 -10 -27 -27 -50 -37 -50 -9 0 -47 -61 -85 -135 -37 -74 -73 -139 -80 -145 -7 -5 -39 -59 -70 -118 -81 -151 -97 -177 -135 -218 -18 -21 -33 -57 -33 -81 0 -23 -9 -43 -20 -43 -11 0 -20 -18 -20 -40 0 -22 10 -40 21 -40 12 0 16 9 9 20 -7 11 -5 20 5 20 9 0 29 32 43 71 14 40 47 81 74 93 32 15 48 39 48 73 0 27 6 44 13 37 19 -19 87 66 87 108 0 20 9 41 20 48 11 7 20 35 20 63 0 37 8 48 30 40 17 -7 30 -2 30 9 0 11 8 15 18 9 10 -6 14 7 8 29 -6 22 -1 40 12 40 12 0 22 14 22 30 0 17 9 30 21 30 12 0 31 29 43 64 20 56 24 59 38 25 13 -34 15 -34 17 -4 0 19 11 35 23 35 12 0 17 13 11 30 -15 38 96 263 115 233 31 -50 56 -22 43 49 -9 49 -7 68 8 59 11 -7 21 1 21 19 0 18 9 27 19 20 31 -18 95 59 88 106 -4 23 7 55 22 70 16 16 24 35 17 42 -7 6 -2 12 12 12 13 0 19 9 12 21 -8 11 10 39 38 61 29 23 52 58 52 79 0 22 9 39 20 39 11 0 20 19 20 42 0 29 9 39 29 31 19 -7 25 -1 18 18 -6 16 -3 29 8 29 10 0 19 11 19 25 3 82 36 120 91 103 25 -8 35 0 35 29 0 23 8 46 18 52 9 5 22 29 28 51 6 22 2 35 -9 28 -24 -15 -5 92 22 119 15 15 21 7 21 -23 0 -46 59 -64 62 -19 0 14 4 39 8 55 3 17 11 56 17 89 12 59 92 151 132 151 14 0 12 14 -3 40 -19 30 -19 45 -2 62 18 18 22 12 14 -24 l-9 -48 25 50 c25 49 73 98 98 99 19 1 123 -161 111 -173 -15 -15 52 -86 81 -86 24 0 34 -30 31 -95 0 -13 6 -20 14 -15 8 5 25 -13 38 -41 12 -27 32 -49 44 -49 12 0 16 -9 9 -20 -7 -11 -2 -20 11 -20 14 0 20 -19 15 -47 -6 -28 0 -46 16 -46 13 0 20 12 14 26 -6 15 -1 27 10 27 32 0 43 -102 12 -114 -36 -13 -36 -46 0 -46 15 0 38 -13 52 -30 20 -24 20 -30 -1 -30 -14 0 1 -25 35 -55 33 -30 58 -69 56 -86 -3 -17 25 -52 62 -78 38 -25 68 -58 68 -71 0 -14 14 -31 30 -37 18 -7 30 -37 30 -73 0 -36 12 -66 30 -73 16 -6 25 -19 19 -28 -6 -10 8 -36 31 -59 23 -23 35 -52 28 -64 -9 -13 -5 -17 9 -8 39 24 68 -8 39 -44 -17 -20 -17 -27 -2 -18 14 9 28 -2 36 -26 7 -22 26 -40 43 -40 17 0 27 -15 24 -35 -7 -37 71 -130 91 -110 7 6 12 -3 12 -20 0 -17 9 -35 21 -39 11 -3 22 -26 24 -50 2 -24 10 -39 19 -33 9 5 16 -4 16 -21 0 -16 13 -37 28 -46 16 -9 32 -29 35 -46 7 -28 15 -41 72 -108 14 -17 25 -48 25 -69 0 -22 -11 -45 -25 -51 -14 -6 -5 -7 20 0 55 13 88 -17 142 -133 23 -49 42 -73 42 -54 1 19 11 35 22 35 12 0 16 -8 10 -18 -6 -10 0 -23 14 -29 20 -8 19 -14 -2 -29 -21 -15 -20 -21 7 -31 18 -7 28 -20 22 -30 -6 -9 12 -36 39 -60 56 -49 67 -17 18 53 -17 24 -26 44 -20 44 18 0 -54 108 -84 126 -14 9 -21 24 -16 32 5 9 -9 35 -31 59 -49 53 -178 293 -178 332 0 16 -18 34 -40 41 -22 7 -40 29 -40 49 0 20 -14 48 -31 62 -17 14 -77 110 -132 212 -55 103 -108 187 -116 187 -9 0 -36 43 -60 95 -39 85 -106 195 -160 258 -11 13 -48 76 -82 140 -73 137 -58 112 -238 419 -77 133 -141 248 -141 257 0 8 -20 43 -45 78 -56 78 -142 234 -197 358 -57 127 -59 126 -176 -110z"/> <path d="M6240 7623 c0 -8 17 -24 37 -36 43 -28 91 -8 56 23 -26 23 -93 32 -93 13z"/> <path d="M2753 7498 c-40 -45 -73 -94 -73 -110 0 -15 -9 -28 -20 -28 -10 0 -25 -25 -33 -55 -19 -77 -70 -156 -133 -206 -30 -23 -54 -61 -54 -85 -1 -24 -18 -66 -40 -94 -22 -27 -39 -63 -38 -80 1 -20 4 -22 11 -5 6 14 28 25 50 25 22 0 34 8 28 18 -6 9 3 29 19 42 17 14 30 41 30 61 0 20 9 42 20 49 11 7 20 29 20 49 0 20 14 42 30 48 17 7 30 26 30 42 0 17 11 31 25 31 24 0 225 357 209 372 -4 5 -40 -29 -81 -74z"/> <path d="M6360 7522 c0 -23 58 -70 71 -58 18 18 -15 76 -43 76 -15 0 -28 -8 -28 -18z"/> <path d="M6473 7426 c-18 -18 52 -126 81 -126 14 0 26 8 26 17 0 26 -94 122 -107 109z"/> <path d="M6580 7171 c0 -17 0 -35 0 -41 0 -5 6 -9 13 -8 7 1 21 -13 31 -30 29 -52 52 -36 46 33 -5 70 -90 113 -90 46z"/> <path d="M4329 7014 c-34 -13 -83 -38 -110 -56 -27 -17 -76 -38 -109 -46 -33 -8 -96 -49 -140 -91 -53 -50 -107 -81 -159 -90 -123 -22 -180 -61 -248 -167 -63 -97 -129 -144 -205 -144 -22 0 -67 -14 -101 -31 -33 -18 -89 -32 -124 -33 -196 -4 -133 -156 65 -156 41 0 123 -14 182 -32 69 -20 159 -29 249 -25 l141 7 6 -68 c7 -63 5 -65 -26 -35 -40 41 -62 41 -170 3 -51 -18 -146 -29 -237 -27 -200 4 -348 -55 -396 -156 -41 -86 -112 -117 -317 -135 -183 -16 -206 -29 -388 -205 -90 -87 -158 -135 -212 -149 -239 -65 -176 -188 100 -196 100 -3 175 -15 200 -33 22 -16 60 -43 85 -61 68 -49 220 -73 294 -45 51 18 75 16 127 -11 64 -33 213 -27 236 11 22 36 81 13 173 -69 52 -46 123 -106 157 -133 67 -51 137 -181 138 -255 0 -24 18 -56 40 -72 22 -15 33 -34 25 -42 -14 -14 30 -51 62 -52 9 0 10 36 3 80 -7 44 -6 80 3 80 41 0 150 -85 167 -130 16 -43 41 -56 91 -48 6 0 33 -13 60 -31 27 -17 49 -26 49 -19 0 7 12 3 26 -9 30 -25 174 -8 174 21 0 10 8 13 19 7 27 -17 38 11 44 105 5 84 57 140 57 61 0 -32 9 -39 40 -31 27 7 47 -3 61 -28 19 -36 25 -36 80 -8 32 17 59 22 59 11 0 -11 14 -15 30 -8 17 6 30 28 30 49 0 21 10 38 21 38 12 0 17 7 12 16 -6 8 7 15 28 15 45 0 49 -13 15 -47 -19 -19 -18 -24 1 -24 14 0 19 -10 11 -23 -9 -15 -5 -18 9 -9 13 8 19 23 13 32 -6 9 0 24 13 32 16 10 19 -1 10 -38 -11 -42 -5 -54 32 -66 25 -7 56 -30 71 -50 16 -23 38 -32 60 -23 32 12 32 11 0 -21 -18 -19 -43 -34 -55 -34 -11 0 -22 -9 -23 -20 -5 -39 -9 -50 -23 -72 -8 -12 -15 -97 -17 -187 -2 -91 -10 -154 -18 -141 -10 16 -19 17 -28 3 -7 -11 2 -29 21 -39 30 -17 29 -21 -9 -42 -25 -13 -38 -35 -31 -52 13 -35 53 -30 69 9 7 18 16 21 24 7 7 -11 -5 -41 -26 -66 -22 -26 -40 -49 -40 -53 0 -16 77 -83 86 -74 5 5 15 -15 23 -45 16 -66 -10 -93 -122 -125 -63 -18 -86 -36 -96 -75 -10 -42 -18 -47 -42 -27 -21 17 -36 18 -55 3 -15 -13 -37 -15 -54 -4 -15 9 -35 13 -44 8 -9 -6 -16 0 -16 13 0 18 -7 18 -28 1 -21 -18 -34 -17 -55 4 -15 15 -40 23 -55 18 -18 -6 -22 -1 -12 17 12 18 7 22 -15 14 -24 -10 -30 -3 -24 28 5 29 1 35 -17 23 -31 -24 -174 -34 -174 -13 0 19 -182 20 -212 2 -11 -7 -98 -14 -195 -17 -97 -4 -180 -13 -185 -21 -5 -8 -22 -10 -38 -4 -16 6 -59 -8 -96 -31 -51 -31 -73 -35 -91 -17 -13 13 -64 21 -115 17 -58 -3 -88 2 -80 15 12 19 -36 43 -108 56 -48 8 -93 78 -107 166 -14 85 -40 104 -62 46 -13 -33 -15 -33 -34 1 -14 26 -13 45 5 67 34 41 -7 66 -106 67 -40 0 -79 8 -85 18 -12 20 -98 38 -247 51 -58 5 -101 2 -96 -7 6 -8 -21 -30 -59 -48 -124 -60 -84 -92 101 -81 254 14 367 -67 658 -468 131 -182 171 -195 362 -112 504 217 1361 75 1424 -236 19 -99 49 -96 73 6 11 45 -2 68 -79 146 -51 51 -90 96 -85 100 4 4 94 44 199 89 251 107 383 111 601 21 150 -62 175 -67 487 -96 200 -19 276 -45 430 -151 129 -89 142 -89 312 -3 130 65 193 66 152 2 -73 -114 -137 -202 -149 -208 -39 -17 -7 -61 75 -103 102 -53 108 -73 45 -170 -74 -114 -177 -64 -109 54 76 132 -27 182 -120 58 -29 -40 -104 -124 -165 -188 -122 -128 -143 -231 -59 -290 55 -38 47 -66 -40 -138 -101 -84 -177 -20 -91 76 84 92 -45 149 -140 61 -156 -145 -571 -347 -861 -420 -1583 -397 -3045 655 -3202 2302 -7 74 -12 140 -10 147 1 8 426 12 945 10 l943 -3 117 -119 c81 -82 117 -135 117 -170 0 -28 12 -56 27 -62 40 -15 43 -235 5 -274 -17 -16 -25 -35 -18 -42 28 -27 86 -9 125 41 22 29 41 42 41 30 0 -13 8 -23 18 -23 30 0 36 91 8 118 -16 14 -22 42 -15 64 7 23 2 38 -12 38 -14 0 -19 17 -12 43 6 24 2 60 -8 80 -16 28 -14 34 9 25 22 -8 28 2 24 40 -6 54 -32 98 -32 54 0 -15 -10 -18 -25 -8 -14 8 -31 16 -37 16 -36 1 -175 165 -155 185 29 29 -94 67 -183 55 -45 -6 -117 8 -200 39 -202 74 -313 92 -540 86 l-210 -5 -238 128 -238 129 -204 -22 c-257 -26 -333 -12 -525 99 -169 98 -344 165 -368 141 -46 -46 -82 -679 -55 -985 82 -955 612 -1850 1428 -2414 125 -86 508 -284 610 -316 28 -8 59 -22 70 -30 34 -26 369 -114 580 -153 1184 -219 2581 344 3210 1293 17 25 41 57 55 71 14 14 25 31 25 37 0 5 23 44 52 86 360 527 554 1420 470 2166 -44 393 -45 395 -148 235 -113 -175 -129 -184 -339 -181 -121 2 -201 -6 -236 -25 -30 -15 -116 -40 -193 -56 -95 -20 -188 -59 -297 -125 l-159 -96 -310 -11 c-288 -11 -316 -15 -400 -64 -78 -46 -117 -54 -294 -60 -243 -8 -256 0 -132 79 145 94 216 178 295 354 145 322 152 329 360 401 83 29 101 30 108 7 33 -99 215 -199 253 -138 7 11 30 20 52 20 22 0 77 18 123 40 45 22 103 40 127 40 68 0 136 31 199 89 51 48 67 52 160 40 254 -32 232 191 -34 342 -110 63 -177 120 -267 229 -138 168 -222 220 -351 220 -68 0 -116 15 -181 58 -208 136 -584 97 -824 -86 -40 -31 -97 -52 -153 -56 -137 -10 -124 -50 23 -66 132 -14 300 32 380 104 42 38 136 20 136 -26 0 -17 11 -28 25 -23 14 5 37 -6 51 -23 23 -28 26 -25 18 22 -4 30 -1 50 8 45 8 -5 20 -2 26 8 16 26 159 6 183 -26 11 -15 38 -30 60 -34 21 -4 50 -20 64 -37 20 -25 27 -25 42 -3 11 16 23 19 30 8 7 -11 36 -15 65 -10 59 12 199 -117 180 -166 -6 -18 11 -29 52 -33 53 -5 76 -25 109 -93 2 -3 20 -9 40 -12 20 -3 36 -20 34 -38 -1 -18 4 -29 12 -24 39 25 79 -68 57 -133 -30 -89 -190 -154 -229 -92 -5 9 -18 11 -29 5 -10 -6 -26 8 -35 33 -14 38 -18 39 -29 11 -7 -18 -5 -33 5 -33 9 0 12 -19 6 -42 -13 -50 -96 -85 -169 -70 -30 6 -60 2 -66 -9 -20 -31 -39 -22 -60 26 -11 25 -35 44 -53 43 -33 -3 -34 67 -2 121 7 11 -11 -1 -40 -29 -30 -28 -44 -55 -32 -62 28 -17 -32 -38 -112 -38 -36 0 -77 -13 -91 -30 -14 -16 -35 -30 -46 -30 -12 0 -51 -28 -87 -63 -78 -76 -79 -73 -97 167 -12 150 -19 176 -53 187 -59 19 -61 13 -77 -275 -23 -420 -79 -510 -423 -670 -177 -83 -178 51 -2 403 78 157 88 191 79 271 -14 118 -54 204 -88 191 -42 -16 -30 17 16 46 31 19 49 20 64 5 55 -55 321 0 348 72 6 16 -18 57 -54 92 -36 35 -79 84 -94 108 -20 30 -59 48 -118 57 -49 8 -93 21 -98 30 -6 9 -68 22 -139 30 -181 19 -194 33 -156 164 27 95 36 105 87 105 l56 0 -29 -84 c-26 -74 -26 -87 0 -113 34 -35 32 -39 72 142 25 112 73 154 109 95 35 -57 391 39 489 132 61 58 -93 248 -200 248 -39 0 -129 92 -176 181 -45 82 -147 139 -253 140 -90 1 -114 13 -276 136 -125 97 -233 120 -345 77z m151 -192 c0 -10 20 -14 45 -8 37 8 40 6 15 -14 -25 -20 -22 -22 15 -14 25 6 45 1 45 -9 0 -11 20 -14 45 -6 45 14 45 14 6 -29 l-39 -44 55 21 c33 12 50 13 43 2 -6 -11 6 -31 27 -44 22 -13 35 -35 30 -49 -6 -13 0 -30 12 -37 12 -8 21 -7 19 3 -11 61 60 97 91 47 7 -11 24 -15 39 -9 17 7 32 -9 40 -43 9 -35 23 -49 43 -41 42 16 88 -7 77 -37 -6 -14 7 -30 28 -36 53 -14 78 -164 34 -207 -16 -17 -30 -24 -30 -15 0 8 -11 4 -24 -9 -37 -37 -53 -29 -60 29 -3 30 -19 58 -34 63 -20 7 -25 -5 -18 -43 6 -29 2 -53 -8 -53 -10 0 -32 -14 -49 -30 -30 -30 -77 -22 -57 9 15 26 -94 57 -140 41 -22 -8 -47 -11 -55 -6 -8 4 -15 -6 -15 -23 0 -35 -42 -41 -72 -11 -26 26 -113 44 -98 20 22 -35 -30 -40 -66 -6 -53 51 -124 90 -124 68 0 -31 -66 -45 -83 -18 -11 18 -16 18 -17 3 0 -32 -100 -19 -122 15 -14 22 -17 22 -18 2 0 -15 -9 -21 -20 -14 -11 7 -20 3 -20 -8 0 -12 -37 -16 -91 -11 -51 5 -87 2 -81 -8 18 -30 -62 -87 -111 -80 -32 5 -45 18 -41 42 3 19 -5 35 -18 35 -36 0 -97 80 -85 112 6 15 19 23 29 17 23 -15 84 45 70 68 -19 31 57 81 136 91 41 5 86 23 99 41 13 17 47 33 77 35 29 3 49 11 45 18 -9 15 50 47 76 41 8 -2 15 5 15 15 0 18 95 61 169 75 22 5 44 15 50 25 23 35 121 54 121 24z m-17 -682 c89 -81 129 -90 209 -48 80 44 135 16 95 -48 -12 -19 -28 -64 -36 -100 -8 -35 -21 -64 -29 -64 -20 0 -241 160 -307 222 -108 103 -42 139 68 38z m-522 7 c59 -23 117 -29 215 -22 131 11 134 10 199 -59 90 -95 73 -106 -167 -106 -243 0 -273 11 -328 124 -55 115 -53 117 81 63z m-136 -214 c14 9 17 1 7 -24 -8 -21 -8 -31 0 -23 8 8 29 1 46 -14 18 -16 59 -33 92 -37 l60 -9 -67 -3 c-42 -2 -63 -12 -58 -27 6 -18 76 -25 239 -26 172 -1 229 5 222 22 -5 14 12 31 37 39 28 9 48 6 53 -9 6 -18 15 -18 36 0 23 19 27 18 18 -5 -7 -18 3 -29 27 -31 42 -3 228 -86 244 -109 9 -13 105 -11 169 3 43 10 70 -2 90 -40 26 -49 6 -141 -29 -128 -15 6 -31 -9 -38 -35 -15 -58 -30 -42 -37 38 -2 34 -10 59 -17 55 -6 -5 -41 10 -77 32 -36 22 -59 29 -51 16 10 -16 7 -19 -10 -9 -45 28 -184 26 -195 -2 -6 -15 -18 -22 -27 -17 -9 6 -21 -6 -28 -27 -6 -20 -34 -48 -61 -63 -27 -14 -43 -35 -36 -46 7 -12 0 -16 -16 -10 -23 9 -28 -3 -22 -56 5 -38 17 -68 27 -68 49 0 157 62 186 106 76 116 179 81 252 -82 73 -165 52 -262 -90 -414 -88 -95 -131 -167 -199 -335 -37 -92 -63 -95 -80 -12 -37 188 -274 544 -314 473 -11 -19 -32 -29 -49 -23 -43 17 -37 -59 14 -159 24 -46 50 -147 59 -224 9 -77 18 -157 22 -177 11 -68 -50 -84 -111 -28 -30 28 -81 62 -114 75 -32 14 -59 33 -59 42 0 10 -16 18 -36 18 -54 0 -197 152 -213 226 -7 35 -22 113 -32 172 -12 72 -35 127 -69 162 -117 122 40 127 271 8 150 -78 233 -84 349 -28 44 21 94 39 111 39 168 4 74 191 -121 241 -49 13 -108 31 -130 41 -22 9 -60 22 -85 29 -25 7 -50 34 -57 62 -25 98 -108 131 -326 130 l-198 -2 -74 68 c-129 118 -151 134 -184 128 -17 -3 -36 4 -40 17 -12 33 210 25 223 -8 5 -14 24 -25 40 -25 17 0 29 11 26 25 -3 15 19 26 55 28 33 2 65 5 70 7 43 14 103 23 175 25 47 1 86 11 87 23 0 12 6 11 11 -3 6 -14 20 -19 32 -12z m-549 -265 c12 -75 25 -98 41 -73 11 18 28 17 71 -6 31 -16 82 -29 112 -29 31 0 61 -13 67 -30 15 -39 65 -39 81 1 14 37 71 31 108 -11 19 -21 23 -22 13 -2 -11 19 4 17 48 -9 35 -21 68 -54 74 -73 7 -20 23 -36 37 -36 37 0 118 -94 103 -119 -21 -34 -71 -25 -168 32 -104 61 -235 74 -346 36 -40 -14 -79 -20 -86 -14 -24 25 -94 26 -79 2 10 -16 4 -20 -19 -11 -19 7 -33 3 -33 -10 0 -12 -6 -17 -13 -10 -7 7 -30 -10 -51 -37 -53 -66 -76 -62 -76 16 -1 44 -6 56 -18 38 -13 -21 -20 -22 -32 -3 -8 14 -3 33 12 44 23 16 23 18 -2 11 -54 -15 -85 -101 -46 -130 31 -23 31 -25 0 -25 -19 0 -34 -9 -34 -20 0 -11 -18 -20 -40 -20 -22 0 -40 11 -40 25 0 15 -6 17 -15 5 -21 -28 -113 -39 -96 -12 7 12 -1 22 -18 22 -17 0 -31 -11 -31 -24 0 -13 -14 -6 -30 15 -29 37 -31 37 -52 3 -18 -30 -26 -32 -53 -10 -27 22 -30 21 -16 -1 21 -36 -104 -11 -151 29 -17 16 -41 28 -52 28 -43 0 -76 61 -45 81 23 15 21 19 -11 19 -37 1 -37 3 -5 22 20 11 31 29 24 39 -6 11 2 19 18 19 17 0 36 17 42 38 8 23 31 37 64 37 28 0 59 12 69 28 14 21 17 20 18 -8 0 -50 24 -43 78 22 47 57 113 65 145 17 7 -11 19 0 26 23 8 24 30 43 50 43 20 0 42 14 48 30 17 44 71 37 116 -15 22 -25 36 -32 32 -17 -4 15 12 48 34 74 47 52 115 28 127 -44z m224 -521 c0 -23 14 -75 31 -115 16 -41 25 -82 18 -93 -17 -28 -63 -23 -75 7 -5 14 -65 55 -132 91 -122 66 -131 76 -111 128 20 52 269 36 269 -18z m-1787 -545 c19 -27 55 -42 112 -46 54 -4 83 -15 80 -31 -6 -28 81 -55 125 -38 58 22 91 -6 53 -45 -18 -20 -41 -31 -50 -26 -10 5 -11 -10 -4 -32 17 -54 -56 -104 -173 -117 -117 -14 -122 -27 -11 -27 107 0 141 -31 65 -60 -57 -22 -372 -27 -446 -7 -64 17 -44 55 38 69 37 7 57 14 44 15 -58 7 -88 64 -56 109 19 28 26 65 18 106 -9 50 -3 69 32 94 l43 30 -42 14 c-68 21 -27 48 62 40 53 -5 91 -22 110 -48z m5941 -51 c-3 -90 -11 -111 -44 -120 -35 -10 -32 -15 25 -44 68 -34 85 -81 35 -100 -60 -23 -401 -18 -476 7 -42 14 -87 23 -100 21 -13 -3 -24 17 -24 43 -1 29 -17 54 -40 64 -22 8 -29 16 -15 17 14 0 23 12 20 25 -3 13 22 31 55 41 33 10 88 27 121 37 97 28 209 22 222 -12 13 -34 67 -41 67 -9 0 12 -9 16 -20 9 -11 -7 -20 -4 -20 7 0 10 14 24 30 30 17 7 30 1 30 -15 0 -17 17 -23 50 -17 56 11 66 40 19 58 -23 9 -25 18 -7 39 50 60 75 31 72 -81z m-5283 -78 c36 14 36 -12 1 -58 -39 -51 -52 -43 -50 30 0 36 6 54 11 41 5 -13 23 -19 38 -13z m293 -45 c77 -40 64 -50 -79 -62 -126 -11 -182 20 -157 86 15 39 138 27 236 -24z m2310 -208 c-29 -100 -97 -142 -79 -49 6 29 23 57 38 63 15 6 27 26 27 45 0 38 26 73 35 47 3 -9 -6 -57 -21 -106z m2757 -1 c31 -51 -386 -86 -510 -42 -80 28 -93 5 -108 -187 -33 -430 -203 -905 -313 -876 -57 15 -65 37 -27 69 27 22 35 22 42 1 7 -20 15 -20 37 -2 46 38 33 72 -64 173 -272 281 -313 339 -285 398 38 78 160 152 357 218 157 51 166 57 115 74 -56 19 -296 -20 -395 -64 -92 -42 -140 -74 -127 -88 8 -7 -8 -14 -35 -15 -33 -2 -37 -5 -13 -12 25 -6 30 -18 18 -42 -9 -19 -18 -74 -21 -124 -3 -49 -10 -96 -15 -105 -5 -8 27 -39 71 -70 55 -38 77 -66 70 -89 -6 -21 6 -44 31 -60 23 -14 41 -39 41 -56 -1 -20 -14 -14 -40 20 -22 28 -39 40 -40 28 0 -36 -279 -55 -318 -21 -34 29 -90 22 -71 -9 6 -10 -3 -18 -20 -18 -17 0 -32 16 -33 35 0 19 -5 25 -10 12 -6 -14 -33 -17 -74 -9 -35 8 -140 12 -234 9 -131 -4 -181 3 -220 28 -27 19 -62 35 -77 38 -152 24 -421 189 -474 289 -46 89 9 314 105 433 l36 45 920 2 c506 2 974 10 1040 18 196 23 626 23 641 -1z m-5931 -167 c42 -6 49 -16 45 -64 -14 -145 -33 -163 -133 -118 -26 11 -58 6 -97 -17 -84 -48 -121 -3 -67 83 8 13 5 24 -7 24 -11 0 -21 10 -21 21 0 12 11 16 25 9 14 -7 8 1 -14 19 -38 31 -24 41 44 32 14 -1 25 7 25 18 0 13 29 17 75 11 41 -6 98 -14 125 -18z m5707 3 c-5 -8 0 -15 12 -15 11 0 21 8 21 18 0 26 56 15 85 -17 17 -19 18 -23 1 -14 -40 23 -52 -28 -13 -60 36 -29 36 -30 -3 -16 -22 7 -58 19 -79 25 -39 11 -39 11 0 26 34 13 32 15 -14 17 -34 1 -63 -16 -84 -47 -32 -49 -98 -52 -126 -6 -8 12 -3 14 15 4 23 -13 23 -11 3 11 -42 46 -28 76 40 83 100 11 152 7 142 -9z m53 -255 c12 -22 34 -40 50 -40 47 0 73 -70 49 -134 -31 -85 -71 -107 -144 -81 -51 18 -65 15 -87 -14 -37 -51 -97 -31 -104 34 -6 51 -1 55 65 55 62 0 71 6 71 48 0 47 -47 82 -82 61 -10 -6 -18 8 -18 32 0 38 8 42 61 32 43 -9 64 -4 72 17 16 41 42 37 67 -10z m-5749 -121 c64 -126 4 -194 -180 -204 -97 -5 -171 90 -137 177 11 31 156 76 185 59 10 -7 24 -3 31 9 24 38 69 20 101 -41z m5498 -217 c6 -10 63 -34 126 -53 164 -50 234 -132 86 -99 -82 18 -99 -42 -30 -106 72 -67 39 -88 -81 -51 -159 48 -160 49 -161 179 -1 143 21 192 60 130z m-5549 -83 c0 -11 -18 -40 -41 -65 -27 -29 -33 -46 -17 -51 14 -5 49 21 78 57 65 80 127 73 116 -13 -5 -45 -23 -58 -125 -90 -186 -59 -248 -3 -129 114 68 67 118 87 118 48z m4670 -139 c15 25 90 27 90 2 0 -10 18 -14 40 -8 22 6 55 4 75 -5 19 -9 42 -16 50 -17 32 -4 13 -42 -20 -42 -19 1 -47 -11 -61 -25 -33 -30 -64 -33 -64 -4 0 12 -9 16 -20 9 -23 -14 -92 20 -149 75 l-41 40 44 -23 c29 -14 48 -15 56 -2z m-4472 -115 c103 -84 80 -173 -61 -240 -70 -33 -135 -52 -145 -43 -23 20 22 78 60 78 36 0 36 30 -1 66 -17 17 -50 25 -80 19 -102 -19 -62 61 54 108 132 54 123 53 173 12z m260 -57 c51 -65 42 -84 -36 -72 -71 10 -111 51 -95 94 18 47 86 35 131 -22z m5057 -19 c33 -23 54 -26 83 -10 80 43 147 -31 81 -90 -38 -35 -189 7 -274 76 -69 56 33 78 110 24z m-236 -88 c35 -22 -43 -201 -88 -201 -80 0 -83 135 -4 190 49 35 53 35 92 11z m214 -95 c163 -96 154 -144 -18 -97 -74 21 -72 -17 6 -83 92 -77 45 -123 -59 -57 -56 35 -83 42 -110 27 -46 -26 -103 25 -85 75 10 24 27 30 64 20 46 -11 49 -8 30 27 -35 65 -26 84 34 70 l55 -12 -45 33 c-40 29 -46 71 -11 71 7 0 70 -33 139 -74z m-5104 -77 c52 -80 32 -129 -89 -213 -124 -86 -131 -88 -148 -45 -8 22 18 49 88 93 91 57 137 136 79 136 -29 0 -146 -62 -162 -85 -14 -22 -97 -1 -97 25 0 9 41 38 91 63 51 25 96 53 102 61 21 35 104 14 136 -35z m135 -224 c89 -102 87 -122 -26 -222 -115 -103 -145 -113 -154 -53 -4 29 21 56 86 97 96 60 107 99 33 109 -25 4 -43 21 -43 42 0 69 55 83 104 27z m4773 -30 c58 -37 102 -80 103 -100 0 -52 -44 -43 -120 25 -97 87 -136 80 -80 -15 24 -41 57 -82 72 -91 36 -21 36 -74 1 -74 -15 0 -52 19 -81 42 -34 27 -70 38 -97 31 -56 -15 -94 18 -80 70 8 31 23 39 64 33 47 -7 53 -2 45 38 -23 120 30 132 173 41z m-4536 -246 c48 -51 41 -116 -10 -97 -20 8 -31 1 -31 -18 0 -64 -140 -160 -180 -124 -52 47 -29 110 41 110 71 0 86 23 49 72 -87 115 29 165 131 57z m4209 -9 c20 -22 57 -40 83 -40 53 0 134 -70 121 -106 -4 -13 -41 -23 -81 -22 -73 3 -74 2 -61 -65 16 -83 -23 -90 -92 -17 -30 32 -65 48 -96 45 -55 -6 -97 43 -78 92 19 48 80 40 134 -17 59 -63 80 -63 80 -1 0 29 -17 58 -40 71 -22 12 -40 39 -40 61 0 50 24 50 70 -1z m-4068 -140 c40 0 13 -93 -43 -148 -61 -61 -76 -119 -35 -144 14 -9 55 22 105 79 79 91 131 118 131 68 0 -28 -174 -235 -198 -235 -91 0 -165 153 -102 210 24 22 40 62 40 100 0 73 16 96 56 81 15 -6 36 -11 46 -11z m3894 -172 c82 -104 92 -148 36 -148 -14 0 -42 18 -62 40 -71 78 -107 52 -59 -43 62 -118 -2 -159 -72 -46 -26 42 -57 69 -76 65 -47 -7 -83 20 -83 63 0 43 67 66 98 35 16 -16 22 -7 22 32 0 54 27 72 50 34 24 -38 52 -21 31 19 -58 107 16 75 115 -51z m-3476 11 c55 -103 -12 -131 -130 -54 -77 50 -88 83 -37 112 44 24 142 -9 167 -58z m-70 -127 c64 -52 55 -97 -11 -56 -41 26 -53 6 -18 -29 15 -15 9 -42 -21 -92 -54 -91 -96 -108 -147 -57 -48 48 -17 102 59 102 59 0 62 41 8 90 -99 90 22 128 130 42z m3239 -124 c68 -102 81 -168 33 -168 -10 0 -46 45 -80 100 -68 110 -114 127 -134 49 -14 -56 -43 -56 -77 -1 -17 28 -10 44 39 83 94 76 134 64 219 -63z m-3056 -50 c-14 -69 -2 -73 45 -15 43 53 136 20 111 -40 -8 -18 -25 -60 -37 -93 -39 -102 -72 -150 -103 -150 -36 0 -36 35 1 100 48 84 39 105 -31 69 -34 -17 -66 -44 -72 -60 -16 -41 -67 -36 -67 7 0 19 14 55 31 79 19 27 25 63 17 94 -17 71 23 117 76 89 31 -17 38 -35 29 -80z m2729 -34 c11 -34 42 -64 78 -78 67 -25 83 -102 31 -145 -22 -19 -37 -15 -70 18 -51 51 -61 51 -61 3 0 -115 -45 -129 -96 -31 -20 39 -58 82 -85 96 -66 33 -65 101 2 109 41 5 57 -8 87 -70 33 -70 38 -73 63 -38 23 32 23 46 -2 94 -37 72 -37 98 2 98 17 0 40 -25 51 -56z m-2308 -117 c12 -31 -69 -261 -98 -280 -51 -31 -60 34 -19 131 54 125 54 146 -2 141 -75 -6 -95 0 -95 28 0 77 183 60 214 -20z m1606 56 c0 -46 -53 -94 -123 -110 -75 -18 -117 3 -117 59 0 54 72 68 116 24 19 -19 31 -15 55 20 38 54 69 57 69 7z m420 -154 c47 -141 43 -213 -11 -168 -25 20 -35 18 -57 -11 -31 -44 -92 -28 -92 24 -1 25 -13 16 -43 -30 -58 -91 -97 -75 -142 62 -40 120 -28 174 38 174 15 0 45 11 66 24 50 31 111 -19 128 -105 7 -34 25 -59 43 -59 37 0 37 4 0 93 -38 90 -38 127 -2 127 18 0 46 -52 72 -131z m-1736 25 c23 -36 19 -54 -12 -54 -19 0 -27 -22 -26 -68 2 -64 -50 -172 -83 -172 -79 0 -97 106 -22 126 59 16 47 75 -21 100 -65 24 -75 51 -35 92 30 30 176 13 199 -24z m294 -62 c33 -39 7 -286 -31 -301 -41 -15 -53 35 -32 133 20 96 14 136 -22 136 -26 0 -63 -78 -83 -175 -13 -64 -59 -89 -75 -41 -7 21 17 187 36 251 11 35 178 32 207 -3z m998 -103 c13 -73 20 -140 13 -150 -23 -38 -69 -18 -81 36 -26 109 -57 119 -68 23 -14 -126 -87 -130 -96 -4 -5 63 -16 87 -46 97 -56 17 -43 97 17 105 32 5 51 -7 64 -40 l18 -46 2 45 c1 54 50 60 79 10 19 -31 21 -30 21 10 2 99 53 41 77 -86z m-720 80 c68 -48 62 -309 -8 -309 -30 0 -33 19 -28 163 3 104 -21 133 -69 85 -41 -41 -95 -23 -77 26 26 72 106 87 182 35z m323 12 c24 -15 24 -23 2 -50 -21 -25 -22 -38 -4 -56 67 -67 -1 -235 -78 -194 -48 25 -49 55 -4 104 38 43 -9 104 -64 83 -13 -6 -35 3 -47 18 -55 66 112 148 195 95z"/> <path d="M3828 6312 c-9 -24 -29 -31 -68 -25 -47 7 -54 3 -45 -30 11 -41 115 -47 115 -7 0 11 8 32 17 46 9 15 12 32 5 38 -6 7 -17 -3 -24 -22z"/> <path d="M7533 3667 c-24 -25 -13 -67 17 -67 17 0 30 18 30 40 0 40 -21 52 -47 27z"/> <path d="M1692 3628 c-10 -25 -28 -29 -82 -19 -74 13 -106 -36 -40 -62 68 -26 170 12 170 64 0 55 -29 66 -48 17z"/> <path d="M7303 3355 c-28 -28 -30 -88 -3 -105 11 -7 20 4 20 25 0 20 10 47 22 59 13 13 14 26 3 33 -10 6 -29 1 -42 -12z"/> <path d="M1861 3076 c0 -29 47 -96 66 -96 31 0 9 81 -27 100 -30 16 -40 15 -39 -4z"/> <path d="M6660 7020 c0 -11 18 -31 40 -45 22 -13 40 -40 40 -60 0 -19 9 -35 20 -35 30 0 24 52 -10 80 -16 14 -30 37 -30 52 0 16 -13 28 -30 28 -16 0 -30 -9 -30 -20z"/> <path d="M6790 6860 c-7 -11 -2 -31 10 -45 12 -14 34 -43 50 -65 27 -39 28 -39 25 5 -2 25 -11 45 -19 45 -9 0 -16 18 -16 40 0 42 -29 54 -50 20z"/> <path d="M2238 6671 c-2 -6 -4 -19 -5 -29 -2 -10 -25 -36 -53 -58 -27 -22 -45 -45 -40 -50 6 -5 40 20 77 56 44 41 60 70 45 78 -12 8 -23 9 -24 3z"/> <path d="M7272 5989 c-7 -19 -22 -25 -37 -17 -14 8 -9 -3 11 -26 34 -39 34 -41 -9 -70 -40 -26 -41 -30 -10 -42 21 -8 30 -6 23 6 -7 11 2 20 20 20 18 0 27 8 21 19 -6 10 -1 25 11 32 12 8 30 2 40 -13 14 -23 17 -23 18 -1 0 50 -74 128 -88 92z"/> <path d="M7320 5801 c0 -13 9 -18 20 -11 22 13 26 -9 21 -96 -3 -31 7 -70 21 -86 14 -17 16 -29 6 -27 -54 11 -49 -6 10 -32 37 -16 62 -35 56 -42 -7 -7 -26 -2 -41 11 -22 18 -31 16 -40 -7 -6 -17 -5 -30 3 -28 53 8 85 -10 95 -52 7 -27 23 -44 38 -39 13 5 25 -2 27 -16 1 -14 6 -60 11 -101 7 -60 2 -75 -24 -76 -26 -2 -24 -5 7 -19 28 -12 31 -18 10 -20 -18 -2 -13 -10 15 -21 25 -10 45 -27 45 -39 0 -29 87 -60 102 -36 7 10 1 65 -13 122 -44 183 -79 264 -144 333 -26 26 -42 60 -36 75 5 14 0 26 -12 26 -12 0 -16 13 -11 28 6 15 -9 49 -32 74 -24 26 -42 54 -39 63 3 8 -3 15 -13 15 -10 0 -33 5 -50 12 -18 7 -32 2 -32 -11z"/> <path d="M1710 5781 c6 -11 -7 -29 -29 -40 -25 -14 -35 -33 -27 -55 8 -20 5 -28 -8 -20 -32 20 -179 -286 -196 -404 -7 -56 -22 -107 -31 -113 -10 -6 -12 -37 -6 -70 10 -49 5 -59 -25 -59 -30 -1 -32 -4 -10 -18 49 -31 89 -11 91 46 1 30 12 61 24 68 12 8 28 35 36 60 12 38 20 42 44 22 24 -20 37 -16 73 22 24 26 28 36 9 21 -31 -23 -35 -21 -35 16 0 29 -9 38 -30 30 -16 -6 -25 -19 -19 -29 6 -10 2 -18 -10 -18 -11 0 -21 8 -21 18 0 10 -5 33 -12 50 -8 21 -1 32 18 32 16 0 29 11 29 25 -4 91 3 101 40 61 19 -21 30 -28 24 -17 -29 54 25 191 76 191 76 2 108 127 42 166 -33 18 -54 25 -47 15z"/> <path d="M5496 5771 c7 -12 13 -34 13 -51 1 -16 16 -32 34 -36 24 -4 32 8 30 51 -2 45 -12 57 -46 57 -26 0 -39 -9 -31 -21z"/> <path d="M5726 5426 c-13 -5 -19 -22 -13 -37 6 -16 2 -29 -9 -29 -11 0 -25 11 -30 25 -5 14 -16 18 -25 10 -33 -31 69 -173 125 -174 37 -1 83 55 76 94 -4 19 -8 49 -9 65 -2 19 -13 11 -30 -20 -28 -51 -38 -43 -55 42 -3 17 -17 28 -30 24z"/> <path d="M7276 4977 c7 -45 14 -53 35 -36 30 24 19 71 -19 85 -17 7 -22 -8 -16 -49z"/> <path d="M572 4348 c-31 -82 44 -132 106 -70 27 27 73 42 144 46 61 3 108 16 113 31 14 41 -347 35 -363 -7z"/> <path d="M4278 4348 c-33 -40 9 -89 46 -52 19 19 18 24 -5 25 -18 1 -15 7 10 17 33 13 34 17 6 27 -18 7 -43 -1 -57 -17z"/> <path d="M8182 4276 c-107 -57 -146 -109 -102 -136 21 -13 45 -3 86 36 89 85 307 80 438 -11 55 -38 99 -57 106 -45 7 11 3 20 -9 20 -11 0 -21 13 -21 29 0 123 -335 195 -498 107z"/> <path d="M797 4139 c-20 -30 -49 -42 -110 -43 -167 -2 -168 -62 0 -93 133 -25 133 -36 4 -74 -110 -32 -157 -102 -66 -97 19 1 94 3 165 5 149 3 200 63 55 64 l-75 0 79 36 c84 37 79 52 -26 83 -46 14 -47 17 -9 18 66 3 110 56 85 103 -27 51 -67 49 -102 -2z"/> <path d="M960 4001 c0 -115 9 -133 66 -123 9 2 54 6 100 10 46 5 91 9 99 10 8 1 15 16 15 32 0 35 -71 41 -91 8 -8 -13 -26 6 -43 45 -51 117 -59 127 -103 133 -40 6 -43 -2 -43 -115z"/> <path d="M8366 4010 c-24 -17 -73 -28 -110 -25 -100 8 -89 -52 12 -65 119 -15 174 -105 61 -100 -149 7 -186 -14 -156 -90 15 -40 105 -38 121 2 10 26 30 30 107 20 119 -16 149 16 72 77 -57 46 -73 103 -23 84 48 -19 90 8 90 57 0 72 -97 94 -174 40z"/> <path d="M860 3725 c0 -9 -34 -17 -75 -18 -149 -5 -187 -35 -173 -132 20 -135 54 -147 273 -92 85 21 111 158 44 226 -34 33 -69 41 -69 16z m36 -119 c6 -56 1 -61 -70 -73 -118 -20 -141 -16 -151 25 -16 60 25 88 70 48 44 -40 107 -13 102 43 -2 18 7 30 20 25 13 -4 26 -34 29 -68z"/> <path d="M8119 3619 c-29 -19 -11 -43 51 -66 11 -4 4 -26 -17 -48 -70 -79 6 -215 79 -142 28 28 39 29 85 5 109 -57 172 -10 159 118 -6 62 -11 65 -126 84 -66 11 -138 31 -161 44 -26 15 -52 17 -70 5z m295 -126 c6 -6 6 -25 -1 -42 -18 -47 -77 -37 -133 23 l-50 52 87 -11 c47 -6 91 -17 97 -22z"/> <path d="M2930 3600 c-8 -13 14 -17 61 -12 98 13 113 32 24 32 -40 0 -78 -9 -85 -20z"/> <path d="M894 3348 c-7 -7 -55 -21 -107 -31 -108 -20 -146 -46 -114 -78 15 -15 46 -16 99 -3 197 50 211 49 204 -11 -5 -49 -17 -57 -110 -75 -118 -23 -167 -57 -132 -92 48 -48 326 76 326 145 0 105 -110 200 -166 145z"/> <path d="M8081 3221 c-50 -50 -56 -171 -9 -189 50 -19 68 5 44 59 -37 81 2 101 121 62 124 -41 183 -42 183 -4 0 17 -44 41 -115 61 -63 18 -130 37 -149 42 -19 6 -52 -8 -75 -31z"/> <path d="M1009 3018 c-8 -12 11 -42 42 -67 71 -57 58 -75 -90 -122 -120 -39 -166 -81 -112 -101 43 -17 270 73 293 116 47 88 -82 257 -133 174z"/> <path d="M7958 2908 c-23 -28 -19 -39 28 -76 78 -63 75 -118 -5 -68 -30 18 -45 18 -69 -3 -77 -63 1 -151 86 -98 34 22 53 18 124 -20 95 -50 166 -27 88 28 -176 126 -188 235 -16 144 84 -44 167 -27 115 23 -68 66 -314 115 -351 70z"/> <path d="M1126 2698 c-16 -16 -14 -36 5 -72 41 -81 -6 -143 -65 -84 -35 35 -110 -15 -102 -68 15 -111 235 -27 238 91 l1 65 20 -55 c22 -61 77 -75 77 -20 0 103 -117 200 -174 143z"/> <path d="M3918 2668 c-22 -27 -21 -35 9 -51 32 -18 32 -22 -4 -53 -44 -39 -86 -152 -71 -192 14 -36 174 -97 232 -88 50 7 152 267 128 328 -28 73 -245 115 -294 56z m198 -124 c13 -123 -74 -217 -154 -166 -35 22 -11 62 38 62 61 0 73 81 19 125 -37 30 -41 41 -20 55 49 30 111 -10 117 -76z"/> <path d="M5040 2660 c-22 -22 -40 -62 -40 -89 0 -74 -39 -82 -53 -11 -15 75 -51 94 -118 63 -73 -33 -67 -119 10 -146 43 -15 62 -37 71 -84 25 -124 32 -136 77 -129 36 5 42 17 37 79 -8 83 29 237 55 237 20 0 31 -30 51 -140 22 -117 32 -140 60 -140 49 0 51 34 11 202 -48 201 -83 236 -161 158z"/> <path d="M4304 2596 c-39 -39 -28 -93 27 -129 48 -31 50 -40 38 -140 -13 -106 -13 -107 39 -107 56 0 58 2 92 136 29 113 65 99 87 -34 15 -97 20 -104 67 -98 71 8 95 376 25 376 -32 0 -39 -14 -39 -80 0 -104 -29 -103 -52 3 -22 100 -62 122 -79 43 -27 -119 -33 -132 -49 -106 -8 13 -11 41 -5 62 20 78 -92 133 -151 74z"/> <path d="M7813 2587 c-28 -28 -10 -49 77 -91 102 -50 106 -57 51 -91 -32 -20 -50 -18 -97 9 -72 41 -124 23 -124 -44 0 -57 50 -88 85 -53 34 34 49 28 63 -26 15 -60 70 -93 129 -78 55 15 55 68 1 114 -51 43 -37 61 48 62 90 1 96 57 10 92 -36 15 -100 47 -141 73 -83 51 -83 51 -102 33z"/> <path d="M5294 2452 c-17 -43 31 -96 72 -81 55 21 44 109 -14 109 -26 0 -53 -13 -58 -28z"/> <path d="M1283 2413 c-13 -15 -18 -42 -12 -58 8 -21 -16 -43 -80 -74 -84 -41 -110 -76 -78 -107 6 -7 36 0 65 14 72 37 187 55 219 34 31 -19 29 -21 -107 -93 -87 -46 -119 -109 -55 -109 22 0 55 18 75 40 20 22 46 40 58 40 12 0 47 23 77 51 71 66 47 129 -49 129 -62 0 -62 0 -25 41 29 32 32 49 16 75 -28 45 -75 53 -104 17z"/> <path d="M1571 2336 c-29 -42 -15 -75 33 -76 29 0 74 63 63 91 -16 42 -60 36 -96 -15z"/> <path d="M3707 2285 c-7 -19 -34 -91 -61 -160 -57 -146 -55 -152 61 -184 220 -62 332 197 139 319 -109 70 -123 72 -139 25z m145 -135 c16 -63 -38 -150 -92 -150 -46 0 -51 38 -16 134 29 80 89 89 108 16z"/> <path d="M5342 2282 c-24 -16 -19 -352 7 -377 20 -20 71 27 71 66 0 56 61 81 116 47 40 -25 113 -11 101 19 -14 36 -228 263 -247 263 -11 0 -33 -9 -48 -18z m114 -169 c4 -19 -6 -33 -25 -33 -18 0 -31 17 -31 42 0 48 47 42 56 -9z"/> <path d="M7592 2191 c-92 -121 -36 -261 58 -143 54 68 119 65 120 -6 0 -63 56 -99 98 -63 53 43 36 93 -50 150 l-83 55 -57 -43 c-59 -43 -83 -27 -28 19 17 14 30 37 30 51 0 55 -37 46 -88 -20z"/> <path d="M4989 2181 c-121 -31 -174 -113 -63 -97 46 6 63 -27 84 -167 6 -42 25 -79 44 -86 59 -22 71 19 40 142 -32 124 -29 147 17 147 30 0 41 72 14 85 -8 4 -69 -7 -136 -24z"/> <path d="M4194 2166 c-142 -235 -178 -346 -114 -346 22 0 40 13 40 30 0 20 20 30 60 30 33 0 60 -7 60 -16 0 -38 53 -85 83 -74 28 11 29 26 5 136 -15 68 -27 149 -27 179 -1 30 -9 55 -19 55 -10 0 -32 5 -48 11 -17 7 -34 4 -40 -5z m42 -169 c-8 -55 -56 -74 -56 -22 0 42 16 65 45 65 10 0 15 -20 11 -43z"/> <path d="M4544 2109 c-87 -62 -51 -151 75 -183 37 -10 72 -28 75 -39 11 -32 -51 -50 -94 -27 -54 29 -100 25 -100 -9 0 -68 157 -95 236 -40 83 58 53 155 -56 183 -39 11 -70 31 -70 47 0 16 14 26 30 21 103 -26 120 -26 120 5 0 69 -138 96 -216 42z"/> <path d="M1520 2062 c0 -10 -45 -47 -100 -82 -115 -74 -120 -96 -45 -191 70 -88 88 -87 218 12 123 93 132 133 50 219 -55 57 -123 80 -123 42z m100 -122 c0 -57 -134 -153 -177 -127 -63 40 -54 93 13 78 68 -15 106 25 88 94 -9 35 -5 37 33 17 24 -13 43 -41 43 -62z"/> <path d="M7383 1914 c-57 -62 -59 -154 -2 -154 31 0 40 11 35 43 -13 93 57 92 152 -1 58 -57 100 -83 121 -75 47 18 37 61 -24 98 -30 18 -81 56 -113 84 -72 63 -113 64 -169 5z"/> <path d="M1782 1733 c-12 -16 -17 -43 -10 -61 8 -20 -5 -47 -35 -71 -67 -56 -83 -50 -48 18 37 71 40 127 6 116 -76 -24 -118 -221 -55 -255 47 -25 260 156 260 221 0 56 -80 77 -118 32z"/> <path d="M6847 1668 c-8 -21 -27 -50 -42 -65 -38 -38 -23 -111 24 -120 54 -10 91 49 77 124 -15 83 -41 110 -59 61z"/> <path d="M7141 1647 c-60 -77 -52 -106 64 -221 79 -79 112 -100 135 -86 24 15 17 32 -45 95 -41 42 -75 88 -75 101 0 13 -13 24 -30 24 -45 0 -36 30 19 59 45 25 54 21 133 -66 46 -51 96 -93 111 -93 54 0 25 66 -68 151 -113 104 -182 115 -244 36z"/> <path d="M1976 1572 c-177 -182 -215 -258 -143 -286 49 -19 98 23 92 78 -4 33 17 69 65 116 38 37 70 74 70 82 0 28 -60 35 -84 10z"/> <path d="M2486 1525 c-28 -80 -47 -86 -117 -33 l-66 51 -42 -42 c-50 -50 -47 -58 59 -131 l81 -56 49 46 c28 26 50 58 50 71 0 13 14 35 30 49 17 14 30 37 30 52 0 40 -59 34 -74 -7z"/> <path d="M2121 1412 c-13 -17 -18 -49 -11 -72 9 -30 -4 -61 -48 -111 -34 -39 -62 -79 -62 -90 0 -29 76 -23 94 9 19 33 146 112 181 112 42 0 29 -30 -55 -125 -84 -95 -99 -135 -52 -135 27 0 59 35 162 179 47 64 48 71 16 105 -31 35 -51 35 -143 0 -23 -8 -23 -3 0 33 44 71 -30 157 -82 95z"/> <path d="M6862 1382 c-69 -65 -77 -104 -30 -143 17 -15 59 -66 92 -115 73 -105 156 -84 87 22 -32 49 -32 53 11 96 l44 44 39 -53 c38 -53 95 -72 95 -32 0 12 -42 71 -94 130 -109 126 -153 136 -244 51z m138 -17 c0 -9 -18 -27 -40 -40 -22 -14 -40 -41 -40 -59 0 -32 -2 -32 -34 -1 -31 32 -31 36 3 74 36 40 111 57 111 26z"/> <path d="M6601 1181 c-24 -45 26 -110 71 -93 25 10 118 -85 100 -103 -4 -4 -36 6 -69 24 -88 45 -140 43 -97 -4 58 -64 174 -115 209 -93 54 34 50 56 -36 185 -86 129 -141 155 -178 84z"/> <path d="M2460 1140 c-22 -22 -40 -52 -40 -67 0 -15 -18 -43 -41 -64 -72 -65 16 -229 124 -229 24 0 197 264 185 283 -23 38 -61 10 -118 -87 -67 -116 -86 -128 -137 -91 -48 35 -23 95 40 95 41 0 45 6 29 37 -18 32 -14 36 29 28 64 -13 86 43 38 96 -44 49 -59 49 -109 -1z"/> <path d="M6341 1028 c-97 -41 -147 -148 -71 -148 17 0 30 -16 30 -35 0 -56 76 -165 115 -164 134 6 190 108 124 227 -87 158 -97 164 -198 120z m132 -137 c49 -86 36 -131 -37 -131 -33 0 -37 9 -27 57 14 60 -29 118 -68 94 -12 -8 -21 0 -21 16 0 33 34 52 79 46 17 -2 50 -39 74 -82z"/> <path d="M6022 1012 c-76 -91 -30 -347 84 -468 66 -71 171 -115 200 -85 26 26 11 41 -101 103 -108 60 -168 234 -135 391 15 69 -12 102 -48 59z"/> <path d="M2762 982 c-16 -11 -22 -32 -15 -52 11 -29 19 -30 44 -9 25 21 36 20 60 -3 48 -49 -4 -158 -75 -158 -49 0 -56 -8 -56 -60 0 -53 7 -60 60 -60 77 0 197 211 159 281 -32 61 -126 93 -177 61z"/> <path d="M3608 873 c-18 -48 -1 -103 32 -103 20 0 30 20 30 58 0 64 -43 94 -62 45z"/> <path d="M4540 832 c0 -34 11 -52 31 -52 21 0 30 15 25 43 -9 64 -56 71 -56 9z"/> <path d="M3073 834 c-20 -14 -34 -34 -31 -45 3 -10 -17 -63 -43 -116 l-49 -97 48 -38 c135 -110 282 -2 282 207 0 66 -150 131 -207 89z m126 -83 c35 -42 -45 -221 -90 -203 -18 7 -41 12 -51 12 -40 0 -15 62 32 80 51 19 67 67 30 90 -33 20 -23 50 18 50 20 0 48 -13 61 -29z"/> <path d="M5085 779 c-72 -34 -85 -49 -85 -100 0 -59 1 -59 85 -46 131 20 148 34 139 116 -10 82 -22 84 -139 30z"/> <path d="M4464 736 c-46 -46 -27 -93 47 -114 88 -24 182 5 200 62 20 61 -18 84 -61 36 -46 -51 -74 -51 -105 0 -29 46 -47 50 -81 16z"/> <path d="M3404 696 c-13 -13 -24 -50 -24 -81 0 -31 -13 -82 -29 -114 -34 -64 -10 -100 95 -140 85 -32 122 1 160 137 57 204 15 268 -46 70 -46 -149 -70 -173 -136 -131 -35 23 -8 83 38 83 41 0 54 59 13 61 -14 1 -5 10 20 20 25 10 45 35 45 56 0 59 -90 85 -136 39z"/> <path d="M5589 629 c21 -137 -53 -213 -77 -81 -16 86 -62 128 -109 99 -54 -34 -51 -85 5 -106 32 -12 55 -40 63 -75 30 -142 109 -190 109 -66 0 64 54 88 68 31 9 -37 26 -51 61 -51 91 0 92 135 2 176 -33 15 -53 45 -62 93 -22 115 -77 96 -60 -20z"/> <path d="M3745 627 c-30 -12 -33 -60 -6 -76 11 -7 38 -1 60 13 69 43 93 -3 65 -125 -34 -144 -31 -183 11 -175 37 7 85 221 69 309 -10 56 -120 86 -199 54z"/> <path d="M5233 470 l13 -150 -54 0 c-74 0 -91 55 -30 102 26 20 37 37 24 38 -17 0 -21 19 -14 57 13 61 -21 84 -99 67 -33 -7 -35 -21 -22 -131 19 -169 35 -193 125 -192 125 1 155 39 127 160 -12 56 -23 124 -23 151 0 29 -12 48 -30 48 -25 0 -27 -25 -17 -150z"/> <path d="M4121 541 c-18 -33 -15 -47 18 -75 49 -41 56 -146 11 -146 -16 0 -30 13 -30 29 0 61 -41 138 -62 117 -53 -53 61 -260 128 -235 34 13 63 173 51 280 -9 74 -82 94 -116 30z"/> <path d="M4793 567 c-27 -27 -12 -92 29 -124 29 -24 39 -52 35 -94 l-7 -59 -44 75 c-81 136 -118 83 -40 -55 77 -137 142 -116 150 49 8 171 -54 276 -123 208z"/> <path d="M4385 535 c-30 -36 -20 -263 12 -302 101 -121 228 -12 219 188 -8 164 -43 160 -56 -6 -9 -119 -13 -125 -65 -131 -63 -8 -81 62 -23 84 26 10 28 18 8 42 -20 24 -18 32 8 42 17 7 32 28 32 48 0 57 -97 82 -135 35z"/> </g> </svg> 