<?xml version="1.0" standalone="no"?>
<!DOCTYPE svg PUBLIC "-//W3C//DTD SVG 20010904//EN"
 "http://www.w3.org/TR/2001/REC-SVG-20010904/DTD/svg10.dtd">
<svg version="1.0" xmlns="http://www.w3.org/2000/svg"
 width="330.000000pt" height="206.000000pt" viewBox="0 0 330.000000 206.000000"
 preserveAspectRatio="xMidYMid meet">
<metadata>
Created by potrace 1.16, written by Peter Selinger 2001-2019
</metadata>
<g transform="translate(0.000000,206.000000) scale(0.100000,-0.100000)"
fill="#ffffff" stroke="none">
<path d="M905 1481 c-73 -18 -105 -54 -105 -117 0 -35 6 -47 33 -71 18 -16 61
-39 95 -51 59 -22 102 -59 102 -89 0 -8 -7 -27 -15 -43 -32 -63 -137 -58 -166
8 -9 22 -22 32 -42 35 -28 4 -29 3 -24 -31 12 -73 64 -112 152 -112 53 0 119
30 136 61 55 103 21 172 -110 223 -39 15 -77 37 -85 48 -43 61 63 118 127 68
24 -19 77 -28 77 -12 0 4 -7 18 -16 30 -29 42 -103 66 -159 53z"/>
<path d="M1228 1250 l-3 -230 133 0 132 0 0 25 c0 24 -1 24 -102 27 l-103 3 0
70 0 70 95 5 c92 5 95 6 95 29 0 24 -2 24 -92 22 -90 -2 -92 -2 -99 22 -3 14
-4 47 -2 74 l3 48 103 3 102 3 0 29 0 30 -130 0 -129 0 -3 -230z"/>
<path d="M1960 1335 c0 -109 -3 -145 -12 -145 -7 0 -77 64 -155 142 l-143 143
0 -228 0 -227 30 0 29 0 3 145 3 144 150 -143 150 -143 3 216 c1 118 0 221 -2
228 -3 7 -17 13 -31 13 l-25 0 0 -145z"/>
<path d="M2208 1261 c-124 -265 -116 -241 -81 -241 24 0 32 7 51 45 l22 45
108 0 108 0 22 -45 c19 -39 26 -45 52 -45 l30 0 -14 33 c-31 71 -188 402 -195
409 -3 4 -50 -87 -103 -201z m144 -10 c20 -44 33 -82 30 -85 -9 -10 -152 -7
-152 3 0 15 72 161 79 161 4 0 23 -36 43 -79z"/>
<path d="M75 222 c-3 -3 -5 -46 -5 -95 l0 -90 52 5 c63 7 98 40 98 94 0 41
-36 84 -72 85 -13 0 -33 2 -46 3 -12 2 -24 0 -27 -2z"/>
<path d="M370 222 c-6 -2 -10 -42 -10 -93 l0 -89 65 0 c37 0 65 4 65 10 0 6
-20 10 -45 10 -44 0 -45 1 -45 33 0 32 0 32 45 29 43 -4 45 -3 45 22 0 24 -4
26 -39 26 -22 0 -42 -5 -44 -12 -3 -7 -6 -1 -6 15 -1 26 1 27 45 27 65 0 52
22 -14 24 -29 0 -57 0 -62 -2z"/>
<path d="M1562 217 c-13 -6 -32 -28 -43 -48 -23 -46 -15 -75 31 -111 27 -21
38 -24 73 -17 41 7 77 38 77 65 0 8 5 14 10 14 6 0 10 7 10 16 0 8 -4 13 -9
10 -5 -3 -11 7 -14 22 -10 49 -81 75 -135 49z m102 -37 c44 -43 9 -123 -53
-123 -59 0 -96 63 -66 110 30 45 80 50 119 13z"/>
</g>
</svg>
