<?xml version="1.0" standalone="no"?>
<!DOCTYPE svg PUBLIC "-//W3C//DTD SVG 20010904//EN"
 "http://www.w3.org/TR/2001/REC-SVG-20010904/DTD/svg10.dtd">
<svg version="1.0" xmlns="http://www.w3.org/2000/svg"
 width="974.000000pt" height="1212.000000pt" viewBox="0 0 974.000000 1212.000000"
 preserveAspectRatio="xMidYMid meet">
<metadata>
Created by potrace 1.16, written by Peter Selinger 2001-2019
</metadata>
<g transform="translate(0.000000,1212.000000) scale(0.100000,-0.100000)"
fill="#ffffff" stroke="none">
<path d="M4795 12017 c-27 -56 -99 -175 -160 -265 -178 -264 -179 -266 -183
-343 -3 -48 0 -77 12 -99 15 -31 14 -34 -5 -62 -20 -28 -22 -28 -40 -12 -21
19 -38 68 -36 103 3 44 -24 34 -87 -31 -44 -45 -76 -91 -107 -152 -40 -82 -43
-93 -42 -162 2 -102 27 -149 129 -249 47 -45 85 -92 89 -107 5 -18 14 -28 25
-28 23 0 255 241 268 279 8 24 6 37 -10 67 -35 66 -23 87 165 298 l44 50 99
-103 c135 -140 152 -175 114 -224 -33 -42 -25 -68 45 -150 71 -84 213 -209
229 -204 5 2 14 18 19 36 5 23 34 58 87 108 86 82 114 132 125 223 7 62 -5
129 -37 198 -21 45 -155 192 -176 192 -5 0 -12 -18 -16 -41 -7 -47 -32 -89
-52 -89 -7 0 -21 12 -30 26 -16 24 -16 27 -1 54 10 16 20 49 23 73 5 38 1 57
-24 111 -36 76 -56 106 -208 316 -61 85 -129 185 -149 223 -20 37 -42 67 -48
66 -7 0 -34 -46 -62 -102z m75 45 c0 -12 109 -173 234 -347 60 -82 119 -172
132 -200 30 -62 31 -128 4 -173 -11 -18 -20 -37 -20 -43 0 -19 52 -79 69 -79
24 0 58 39 74 84 l13 38 66 -70 c79 -84 108 -150 108 -246 0 -98 -20 -140
-110 -231 -43 -44 -85 -95 -93 -112 l-13 -32 -72 63 c-67 59 -192 199 -192
214 0 4 9 18 20 32 44 57 10 146 -88 228 -28 24 -67 65 -87 93 -21 28 -45 49
-55 49 -10 0 -36 -21 -56 -47 -21 -27 -67 -78 -101 -115 -91 -96 -114 -165
-76 -229 16 -27 16 -29 -8 -63 -13 -19 -69 -80 -123 -137 l-99 -102 -18 35
c-10 20 -48 62 -84 94 -90 78 -117 127 -123 218 -4 68 -2 77 34 151 22 45 63
104 94 138 l55 60 7 -38 c11 -51 44 -95 72 -95 16 0 32 13 51 40 l27 39 -21
34 c-46 74 -22 154 94 317 95 134 178 265 225 359 36 71 60 100 60 73z"/>
<path d="M3955 10968 c-113 -120 -177 -206 -223 -297 -65 -131 -56 -262 26
-352 38 -43 37 -63 -3 -81 -19 -9 -34 -8 -65 2 -22 7 -43 10 -46 7 -13 -13 17
-123 49 -176 101 -171 261 -259 451 -249 129 7 203 49 226 128 9 31 7 36 -34
74 -24 23 -56 65 -70 94 -24 47 -30 53 -49 46 -12 -4 -45 -8 -73 -8 -41 -1
-58 4 -88 28 -46 35 -70 87 -61 132 8 47 21 50 62 14 33 -29 41 -32 86 -27 95
9 146 102 126 228 -12 76 -43 137 -108 214 -94 112 -106 139 -105 233 0 45 -2
82 -7 82 -4 0 -46 -41 -94 -92z m69 13 c-12 -57 21 -130 102 -231 42 -52 85
-115 96 -140 50 -113 27 -245 -48 -276 -46 -19 -74 -13 -112 26 -39 38 -57 38
-78 -2 -21 -41 -14 -115 15 -157 41 -58 139 -89 208 -67 19 6 25 2 37 -28 8
-20 36 -59 63 -87 l47 -51 -19 -36 c-13 -24 -37 -45 -70 -62 -44 -22 -61 -25
-150 -25 -140 1 -212 31 -311 129 -71 72 -134 175 -134 222 0 20 4 22 35 17
44 -7 89 11 103 42 10 21 6 31 -29 75 -122 154 -86 293 144 565 54 63 100 115
102 115 3 0 2 -13 -1 -29z"/>
<path d="M5666 10992 c8 -85 -10 -129 -90 -222 -31 -36 -72 -97 -92 -136 -82
-163 -28 -334 105 -334 31 0 49 7 75 31 41 35 51 33 60 -15 9 -48 -13 -97 -60
-132 -31 -24 -47 -29 -88 -28 -28 1 -63 4 -77 8 -24 7 -27 4 -43 -39 -10 -26
-40 -68 -68 -96 -48 -48 -49 -51 -38 -83 25 -75 101 -117 226 -124 190 -10
350 78 451 249 32 53 62 163 49 176 -3 3 -24 0 -46 -7 -31 -10 -46 -11 -65 -2
-40 18 -41 38 -3 81 53 58 72 116 66 206 -6 90 -40 165 -127 282 -62 84 -217
253 -232 253 -5 0 -6 -30 -3 -68z m176 -152 c86 -104 153 -224 164 -296 10
-71 -10 -140 -61 -207 -38 -51 -42 -62 -33 -82 14 -31 59 -49 103 -42 31 5 35
3 35 -17 0 -40 -58 -141 -119 -208 -95 -103 -227 -156 -361 -145 -107 9 -181
48 -195 104 -5 20 3 34 40 74 25 27 53 65 61 85 12 30 18 34 37 28 76 -24 176
13 214 81 26 46 29 91 9 140 -19 44 -38 44 -87 0 -44 -39 -55 -41 -104 -21
-52 22 -79 82 -73 166 7 88 30 137 120 249 81 101 117 182 104 238 -6 27 -5
27 30 -12 20 -22 72 -83 116 -135z"/>
<path d="M4840 10919 c0 -6 -45 -55 -100 -109 -111 -108 -146 -168 -136 -225
4 -18 13 -38 21 -45 41 -34 -10 -41 -61 -9 -19 11 -34 25 -34 30 0 18 -28 9
-55 -18 -15 -16 -42 -57 -59 -93 -29 -61 -31 -73 -31 -176 0 -105 1 -113 30
-159 45 -73 74 -90 150 -90 l64 0 -20 -22 c-22 -22 -18 -43 7 -43 30 0 133
-60 185 -108 l54 -49 58 53 c33 29 89 68 125 86 37 18 70 37 74 42 4 6 -4 20
-18 33 -13 12 -24 25 -24 28 0 3 24 2 54 -1 97 -12 154 25 199 126 15 32 21
68 21 125 1 69 -3 88 -28 139 -52 107 -111 153 -135 107 -12 -21 -57 -39 -84
-33 -15 3 -16 5 -2 25 17 25 20 103 4 143 -12 33 -227 254 -246 254 -7 0 -13
-5 -13 -11z m121 -124 c134 -136 150 -171 112 -251 -17 -35 -17 -36 2 -51 28
-20 85 -10 112 21 l21 25 33 -36 c53 -61 84 -138 82 -210 -4 -150 -113 -264
-213 -223 -53 22 -78 -9 -45 -57 14 -20 12 -22 -41 -49 -30 -15 -80 -51 -111
-79 l-56 -51 -31 29 c-43 41 -140 103 -172 111 -20 5 -24 10 -15 19 15 15 14
54 -1 60 -7 2 -26 0 -41 -4 -65 -18 -128 17 -170 96 -31 58 -30 198 1 275 26
67 77 131 90 113 4 -7 29 -22 55 -33 36 -16 51 -18 67 -10 23 13 25 37 5 64
-21 28 -18 75 8 118 12 20 63 79 112 131 50 52 90 95 91 96 1 0 48 -46 105
-104z"/>
<path d="M4781 10477 c-35 -35 -72 -79 -82 -98 -25 -47 -25 -129 0 -161 23
-28 149 -105 165 -100 32 10 150 101 163 126 20 38 20 104 0 142 -20 38 -145
154 -167 154 -9 0 -44 -29 -79 -63z m144 -14 c114 -96 126 -187 33 -252 -24
-16 -55 -39 -69 -50 l-26 -20 -56 30 c-137 74 -142 162 -15 282 34 31 65 57
69 57 4 0 32 -21 64 -47z"/>
<path d="M3423 10448 c-146 -116 -309 -271 -334 -320 -29 -57 -41 -124 -29
-166 9 -33 8 -39 -11 -54 -30 -25 -56 -22 -86 8 -21 22 -24 31 -19 64 3 22 2
41 -4 45 -21 13 -151 -129 -192 -210 -26 -50 -58 -208 -58 -284 0 -84 28 -161
67 -186 19 -13 38 -15 82 -10 49 6 60 3 84 -15 37 -29 36 -51 -3 -44 -45 10
-79 -3 -100 -39 -24 -38 -25 -90 -5 -172 18 -75 18 -129 1 -177 -8 -23 -10
-38 -4 -38 6 0 62 29 127 65 185 104 231 170 217 313 -20 205 -20 248 3 296
29 59 73 86 139 86 41 0 57 -5 79 -26 15 -14 24 -27 18 -30 -45 -19 -79 -50
-95 -87 -26 -56 -25 -91 4 -154 34 -73 87 -106 176 -111 89 -5 128 9 194 68
74 68 108 147 114 260 3 70 0 95 -18 143 -23 62 -92 157 -114 157 -8 0 -19
-13 -24 -29 -15 -42 -54 -65 -99 -58 -20 4 -43 13 -51 21 -12 12 -9 16 23 32
80 38 94 148 40 319 -28 87 -42 225 -31 298 4 25 18 62 32 82 13 20 24 38 24
40 0 19 -46 -8 -147 -87z m66 -52 c-13 -82 -1 -181 36 -301 32 -104 34 -210 5
-248 -11 -14 -36 -31 -55 -37 -45 -15 -46 -43 -2 -70 60 -37 146 -21 174 33
l15 30 24 -29 c13 -16 36 -54 51 -84 25 -49 28 -66 27 -150 0 -113 -21 -170
-87 -238 -58 -60 -108 -84 -176 -85 -72 0 -132 30 -167 83 -55 83 -36 173 44
218 50 28 53 51 12 86 -38 32 -85 41 -137 27 -55 -15 -87 -42 -114 -98 -26
-53 -29 -134 -10 -237 32 -171 -11 -266 -154 -338 -32 -17 -76 -41 -95 -53
l-37 -23 1 71 c0 40 -6 104 -13 142 -16 78 -11 115 20 146 18 18 28 20 70 14
45 -6 49 -5 49 14 0 65 -49 97 -134 87 -51 -7 -54 -6 -79 24 -53 62 -60 152
-23 302 26 108 61 174 137 259 l48 54 1 -32 c0 -44 43 -93 81 -93 17 0 44 7
60 16 30 15 30 15 24 79 -11 103 11 151 120 259 50 48 113 105 141 126 28 21
72 57 99 80 26 22 49 39 51 38 2 -2 -1 -35 -7 -72z"/>
<path d="M6150 10535 c0 -2 11 -20 24 -40 14 -20 28 -57 32 -82 11 -73 -4
-211 -31 -298 -54 -170 -39 -287 40 -321 30 -12 34 -18 25 -29 -18 -21 -76
-29 -110 -15 -19 8 -34 24 -42 46 -15 43 -28 43 -67 -1 -88 -101 -114 -240
-71 -376 27 -83 94 -165 163 -198 62 -30 159 -29 218 2 53 28 99 98 106 159 6
59 -29 126 -79 153 -42 22 -43 30 -6 58 32 24 107 25 146 2 15 -9 39 -33 52
-53 22 -31 25 -46 24 -126 0 -50 -4 -134 -8 -187 -8 -88 -7 -101 12 -141 12
-24 36 -58 54 -75 32 -31 256 -163 276 -163 6 0 4 15 -4 38 -17 48 -17 102 1
177 36 148 -5 231 -105 211 -37 -7 -40 11 -6 43 22 20 31 22 88 17 74 -8 96 5
128 76 45 98 8 333 -70 454 -42 63 -140 164 -160 164 -8 0 -9 -14 -5 -43 6
-36 3 -46 -19 -70 -29 -31 -55 -34 -85 -9 -17 14 -19 23 -12 54 22 93 -20 177
-146 298 -158 152 -363 307 -363 275z m195 -161 c33 -25 102 -87 154 -136 120
-116 147 -168 137 -268 l-7 -69 30 -15 c45 -24 79 -20 112 13 20 21 29 39 29
62 l0 34 49 -55 c104 -115 153 -241 155 -395 1 -96 -6 -123 -40 -165 -26 -30
-29 -31 -80 -24 -85 10 -134 -22 -134 -87 0 -19 4 -20 49 -14 42 6 52 4 70
-14 30 -30 35 -65 20 -144 -8 -40 -14 -104 -13 -144 l1 -71 -36 23 c-20 12
-61 35 -91 50 -66 32 -125 86 -151 137 -22 43 -24 100 -5 238 13 103 7 162
-22 220 -48 92 -184 116 -255 46 -29 -29 -21 -54 24 -76 108 -56 94 -221 -23
-281 -120 -61 -269 5 -337 150 -23 49 -26 69 -26 156 0 90 3 105 27 150 15 28
38 63 51 80 l24 29 16 -30 c17 -34 54 -54 96 -54 69 0 127 44 100 76 -6 8 -18
14 -26 14 -8 0 -28 13 -44 29 -27 27 -29 35 -29 100 0 49 9 104 31 178 32 113
42 236 25 317 l-8 40 34 -27 c18 -15 60 -48 93 -73z"/>
<path d="M5150 9841 c-51 -10 -78 -28 -95 -61 -33 -64 -11 -130 51 -156 43
-18 43 -31 -1 -50 -70 -29 -149 -11 -204 47 -21 21 -42 39 -45 39 -4 0 -20
-15 -36 -34 -42 -48 -121 -79 -183 -73 -27 2 -56 11 -64 20 -14 14 -13 16 20
22 47 9 68 34 74 87 4 34 0 51 -19 78 -35 52 -80 72 -158 68 -57 -3 -76 -10
-158 -57 -51 -30 -117 -60 -145 -68 -76 -20 -177 -9 -255 29 -35 16 -66 27
-69 24 -10 -10 66 -95 145 -162 82 -70 203 -145 285 -176 62 -24 146 -20 186
10 34 25 49 18 57 -25 5 -27 2 -41 -15 -63 -11 -16 -21 -32 -21 -34 0 -3 51
-31 114 -61 62 -31 133 -73 157 -94 27 -23 58 -40 81 -44 33 -5 41 -1 82 38
54 50 184 130 239 147 32 10 37 15 32 32 -13 38 -17 86 -11 111 l7 26 43 -26
c61 -36 140 -35 221 4 123 58 385 281 385 327 0 20 -14 17 -36 -7 -38 -42 -74
-54 -169 -53 -99 1 -204 31 -301 84 -39 22 -155 65 -158 59 -1 -1 -17 -4 -36
-8z m167 -63 c148 -77 312 -113 412 -90 l43 10 -33 -35 c-51 -53 -227 -183
-284 -209 -67 -32 -152 -32 -207 -2 -52 30 -72 18 -76 -45 -2 -26 2 -55 8 -66
9 -19 5 -23 -54 -50 -75 -34 -169 -96 -210 -140 -41 -43 -72 -40 -124 8 -23
22 -90 63 -150 92 -59 29 -108 53 -110 54 -1 1 5 19 13 40 19 44 12 89 -17
110 -19 13 -25 12 -65 -12 -36 -21 -53 -25 -97 -21 -92 8 -251 101 -381 222
-63 59 -66 64 -35 52 54 -22 168 -30 232 -17 32 7 96 35 154 68 112 64 172 77
237 50 48 -20 80 -71 73 -115 -7 -45 -21 -60 -65 -68 -63 -12 -63 -43 0 -68
78 -31 173 -10 240 54 36 34 40 36 49 19 15 -28 91 -68 141 -75 56 -8 124 10
143 37 19 28 11 46 -25 54 -35 8 -69 49 -69 84 2 104 119 131 257 59z"/>
<path d="M2505 9764 c-179 -102 -349 -249 -391 -339 -26 -55 -31 -128 -12
-171 11 -23 10 -28 -7 -40 -10 -8 -29 -14 -42 -14 -30 0 -73 45 -73 76 0 66
-102 -26 -163 -146 -46 -93 -61 -169 -54 -285 8 -136 43 -215 102 -227 11 -3
42 4 68 14 60 23 90 23 110 0 28 -31 21 -42 -29 -42 -37 0 -51 -5 -75 -29 -40
-41 -38 -83 8 -185 28 -60 37 -93 36 -128 0 -27 2 -48 5 -48 15 0 219 209 234
240 24 48 22 130 -3 226 -41 153 -43 177 -20 228 15 35 29 50 55 61 42 18 70
19 97 4 19 -10 19 -11 -5 -39 -32 -39 -40 -79 -25 -129 27 -91 126 -147 212
-121 95 28 177 157 177 278 0 92 -44 232 -73 232 -5 0 -22 -11 -39 -25 -37
-31 -106 -35 -131 -7 -23 25 -21 32 8 32 30 0 65 34 92 88 19 39 20 75 12 332
-4 104 -2 119 19 158 12 23 22 45 22 47 0 15 -45 -1 -115 -41z m54 -44 c-7
-28 -8 -86 -4 -150 14 -193 11 -251 -13 -296 -28 -55 -48 -74 -77 -74 -52 0
-44 -63 11 -86 40 -17 104 -5 137 24 18 16 20 15 33 -3 25 -34 38 -97 39 -185
0 -109 -26 -173 -92 -224 -58 -45 -100 -54 -159 -31 -84 32 -125 134 -79 200
11 15 25 34 30 42 15 21 -29 53 -74 53 -55 0 -103 -30 -129 -81 -28 -53 -25
-101 13 -228 27 -92 32 -188 12 -232 -7 -14 -57 -68 -111 -120 -55 -52 -96
-88 -92 -81 9 15 -14 87 -49 156 -49 97 -25 156 66 166 49 5 54 7 57 31 6 54
-79 88 -138 54 -35 -20 -84 -19 -103 3 -44 48 -66 194 -48 312 8 50 24 98 51
150 43 81 120 169 120 136 0 -10 13 -31 29 -47 34 -34 83 -39 120 -13 19 14
22 22 16 48 -16 80 -17 109 -1 150 19 51 141 179 234 246 57 41 204 130 209
126 1 -1 -3 -22 -8 -46z"/>
<path d="M7100 9805 c0 -2 10 -24 22 -47 20 -39 22 -54 19 -158 -9 -272 -8
-291 19 -344 27 -53 53 -76 87 -76 28 0 29 -11 5 -33 -29 -26 -95 -22 -130 8
-17 14 -34 25 -40 25 -15 0 -49 -77 -63 -139 -27 -125 8 -250 90 -324 80 -72
174 -72 244 2 63 65 70 158 16 207 -19 17 -19 19 -3 31 23 17 56 16 100 -2 26
-11 40 -26 55 -61 23 -51 21 -75 -20 -228 -25 -96 -27 -178 -3 -226 15 -31
219 -240 234 -240 3 0 5 21 5 48 -1 35 8 68 37 131 31 68 37 91 33 125 -8 56
-43 86 -103 86 -48 0 -57 15 -26 43 23 21 52 21 99 2 111 -46 169 22 180 210
3 50 0 117 -6 149 -15 79 -75 198 -132 258 -51 54 -79 62 -79 23 0 -32 -42
-75 -73 -75 -13 0 -32 6 -42 14 -17 12 -18 17 -7 40 19 43 14 116 -12 171 -27
57 -145 176 -247 248 -120 85 -259 156 -259 132z m244 -154 c99 -70 220 -191
247 -248 21 -43 22 -74 4 -159 -6 -26 -3 -34 16 -48 37 -26 86 -21 120 13 16
16 29 37 29 47 0 14 10 9 41 -21 53 -52 117 -182 130 -265 18 -111 -6 -265
-48 -312 -19 -22 -68 -23 -103 -3 -59 34 -144 0 -138 -54 3 -24 8 -26 57 -31
71 -8 96 -35 87 -98 -3 -24 -16 -62 -30 -85 -13 -23 -29 -63 -36 -89 l-12 -48
-92 86 c-50 47 -96 98 -103 112 -20 44 -15 141 11 229 38 128 41 180 14 232
-26 51 -74 81 -129 81 -45 0 -89 -32 -74 -53 6 -8 19 -27 30 -42 63 -91 -43
-233 -158 -211 -53 10 -121 69 -149 129 -38 85 -29 260 16 322 14 19 15 19 34
1 53 -47 164 -36 178 18 8 32 -1 46 -31 46 -28 0 -56 27 -82 79 -14 29 -17 55
-15 131 7 192 7 296 0 327 l-7 33 57 -32 c31 -17 92 -56 136 -87z"/>
<path d="M1449 8863 c-105 -103 -197 -200 -205 -215 -24 -47 -28 -112 -10
-159 19 -46 10 -69 -28 -69 -32 0 -46 19 -46 61 0 21 -5 41 -11 44 -28 18
-124 -117 -161 -223 -30 -90 -30 -257 1 -346 58 -166 155 -241 221 -171 32 34
78 33 116 -2 l29 -28 -54 -5 c-67 -7 -91 -33 -91 -95 0 -35 7 -52 39 -92 21
-26 53 -61 70 -78 20 -19 34 -43 37 -67 4 -21 9 -38 13 -37 13 1 150 246 156
280 12 63 -12 141 -72 241 -48 78 -57 102 -61 150 -5 72 12 102 68 119 22 7
43 9 46 6 4 -3 2 -26 -5 -51 -20 -79 5 -133 75 -162 107 -45 226 17 281 146
47 110 28 276 -41 355 l-33 39 -35 -37 c-42 -44 -89 -50 -132 -16 -27 21 -26
45 1 35 37 -15 93 54 93 114 0 20 -18 90 -40 155 -43 129 -50 200 -25 249 18
33 19 46 5 46 -6 0 -96 -84 -201 -187z m154 80 c-3 -28 8 -78 42 -183 49 -153
53 -194 19 -231 -9 -11 -29 -19 -44 -19 -15 0 -33 -7 -40 -15 -11 -13 -10 -21
7 -43 41 -55 119 -58 173 -7 l27 26 22 -27 c12 -15 29 -52 38 -83 70 -235 -99
-462 -277 -371 -46 23 -68 78 -50 125 18 46 13 74 -14 81 -31 7 -88 -11 -110
-35 -50 -56 -38 -141 39 -268 97 -161 97 -211 0 -370 -40 -66 -65 -99 -65 -86
0 12 -23 47 -53 80 -72 79 -87 102 -87 138 0 53 24 75 81 75 34 0 51 5 55 14
14 36 -47 86 -105 86 -17 0 -42 -11 -59 -25 -42 -35 -74 -32 -111 10 -69 79
-101 179 -101 317 0 119 27 207 92 299 l42 61 14 -40 c16 -49 52 -69 94 -51
33 14 46 50 29 85 -17 38 -13 111 9 153 10 21 90 107 177 190 86 83 158 151
159 151 1 0 0 -17 -3 -37z"/>
<path d="M8060 9038 c1 -7 7 -24 15 -38 26 -45 18 -117 -26 -245 -50 -149 -50
-202 0 -247 21 -19 39 -27 51 -23 30 9 32 -12 4 -34 -43 -33 -90 -28 -131 15
-33 35 -34 36 -54 18 -36 -33 -60 -82 -74 -157 -46 -241 130 -444 310 -357 61
29 82 83 63 157 -6 24 -8 47 -4 50 3 3 24 1 46 -6 56 -17 73 -47 68 -119 -4
-48 -13 -72 -61 -150 -60 -100 -84 -178 -72 -241 6 -34 143 -279 156 -280 4
-1 9 16 13 37 4 28 19 52 53 87 76 77 93 104 93 151 0 61 -25 87 -91 94 l-54
5 27 28 c36 36 85 37 118 2 66 -70 163 5 220 170 30 88 29 271 -4 359 -38 106
-128 228 -155 212 -6 -4 -11 -24 -11 -45 0 -42 -14 -61 -46 -61 -37 0 -46 22
-28 71 17 49 13 112 -10 157 -16 31 -391 402 -406 402 -6 0 -10 -6 -10 -12z
m258 -253 c62 -60 122 -127 133 -147 21 -41 25 -114 8 -152 -16 -34 -4 -70 27
-85 42 -19 80 1 96 51 l14 40 42 -61 c65 -92 92 -180 92 -299 0 -138 -32 -238
-101 -317 -37 -42 -69 -45 -111 -10 -17 14 -42 25 -59 25 -58 0 -119 -50 -105
-86 4 -9 21 -14 55 -14 57 0 81 -22 81 -75 0 -36 -16 -61 -87 -137 -32 -34
-53 -66 -53 -79 0 -36 -131 186 -137 231 -8 54 13 126 53 190 82 131 102 205
76 272 -21 52 -112 86 -144 54 -14 -14 -15 -21 -3 -60 20 -66 5 -110 -45 -136
-71 -36 -161 -19 -217 42 -28 30 -69 122 -78 174 -8 55 19 179 50 226 l26 39
35 -30 c44 -39 95 -44 141 -14 54 35 50 83 -7 83 -15 0 -35 8 -44 19 -33 37
-30 79 15 216 26 81 43 150 43 182 l1 52 45 -42 c25 -23 96 -91 158 -152z"/>
<path d="M4610 8793 c-209 -15 -503 -67 -720 -127 -586 -161 -1173 -528 -1599
-1000 -512 -568 -810 -1217 -907 -1981 -25 -195 -25 -624 -1 -820 135 -1061
690 -1963 1572 -2550 800 -533 1771 -713 2725 -505 281 62 525 148 795 280
365 179 645 380 941 675 535 534 877 1198 999 1936 64 393 59 847 -16 1237
-80 421 -250 853 -479 1220 -583 932 -1590 1533 -2735 1631 -109 10 -466 12
-575 4z m1252 -362 c308 -53 600 -199 822 -411 257 -245 376 -503 376 -810 0
-340 -143 -665 -409 -930 -270 -269 -748 -511 -1197 -607 -119 -25 -147 -27
-354 -27 -196 -1 -238 2 -326 21 -153 34 -246 67 -394 141 -74 37 -139 69
-144 71 -21 9 3 -90 29 -125 l28 -37 -124 6 c-252 11 -459 107 -654 302 -151
152 -240 301 -265 448 -11 59 -15 67 -34 67 -48 0 -185 42 -261 79 -188 93
-276 227 -292 440 -22 323 159 712 451 970 133 117 377 255 558 315 166 56
259 69 433 63 186 -6 279 -29 519 -126 94 -38 196 -74 227 -81 83 -18 217 -9
263 18 20 12 36 18 36 13 0 -20 -43 -130 -80 -204 -127 -254 -357 -493 -532
-553 -37 -13 -82 -19 -149 -19 -87 0 -101 3 -162 33 -117 58 -173 146 -184
291 l-6 73 -76 -7 c-190 -18 -335 -79 -446 -189 -194 -191 -234 -491 -78 -583
42 -24 58 -28 128 -28 68 0 88 5 132 28 29 15 54 27 57 27 2 0 -14 -35 -35
-77 -22 -43 -46 -105 -54 -138 -30 -117 -14 -269 37 -368 l22 -42 8 45 c28
154 54 219 116 283 46 48 129 99 218 134 l69 28 355 0 c345 0 357 1 424 23
168 57 224 133 226 307 l2 90 22 -50 c39 -85 51 -152 50 -280 -1 -97 -5 -133
-23 -185 -39 -112 -131 -234 -224 -294 -36 -25 -26 -36 34 -36 61 0 99 19 135
65 15 20 29 33 31 31 9 -8 -37 -139 -70 -201 -46 -86 -146 -188 -221 -225
-122 -60 -258 -60 -375 0 -70 37 -93 55 -125 104 -47 70 -25 186 43 237 34 25
30 39 -20 65 -115 59 -249 -53 -249 -207 0 -112 215 -277 445 -341 68 -19 105
-22 255 -22 402 0 758 99 1050 292 98 65 323 280 374 356 56 86 71 145 71 284
l0 123 40 -1 c22 -1 54 -1 72 -1 62 2 133 91 133 168 l0 37 -37 -36 c-70 -68
-134 -81 -247 -52 -131 34 -230 104 -274 195 -14 29 -31 104 -47 210 -50 327
-54 348 -101 467 -70 177 -134 273 -220 331 l-47 31 65 0 c36 0 117 -9 180
-19z m1783 -1541 c275 -413 454 -851 536 -1315 21 -114 24 -163 24 -400 0
-237 -3 -285 -23 -394 -195 -1076 -572 -1690 -1362 -2216 -156 -104 -391 -241
-530 -309 l-75 -37 50 43 c137 118 186 195 244 384 59 191 74 289 76 509 2
229 11 267 89 373 84 114 177 166 296 167 65 0 84 -4 140 -32 36 -18 73 -38
82 -45 38 -27 210 83 329 210 176 188 264 435 276 777 8 252 -19 486 -92 781
-38 153 -145 494 -155 494 -10 0 -110 -188 -177 -335 -203 -440 -313 -841
-313 -1146 l0 -114 -108 -2 c-122 -1 -225 -21 -350 -65 -215 -75 -336 -160
-577 -402 -427 -428 -595 -692 -595 -933 0 -245 144 -443 306 -418 59 9 109
54 119 109 4 20 6 39 4 41 -2 2 -23 -1 -45 -7 -54 -15 -94 1 -129 52 -105 151
-60 372 121 598 137 172 330 297 560 365 l51 15 -44 -73 c-24 -41 -58 -111
-74 -157 -35 -94 -35 -137 -4 -383 20 -158 16 -388 -9 -480 -49 -179 -175
-322 -363 -412 -327 -157 -698 9 -896 402 -69 138 -77 177 -89 430 -11 250 -6
519 13 603 7 34 22 67 42 89 49 55 216 200 657 567 223 185 424 360 448 389
56 69 82 140 82 225 0 56 -5 76 -30 118 -55 97 -153 154 -265 154 -71 0 -115
-7 -115 -19 0 -3 21 -16 48 -28 149 -68 208 -200 148 -328 -79 -170 -367 -389
-868 -659 l-86 -46 53 56 c66 68 98 131 99 193 0 25 -3 123 -8 216 -12 258 11
398 95 572 128 267 419 435 754 437 176 1 269 -36 380 -148 45 -45 84 -97 107
-141 45 -86 86 -224 94 -316 4 -38 10 -69 13 -69 4 0 15 42 25 93 71 352 224
748 413 1068 278 469 428 810 458 1044 l7 50 30 -35 c16 -19 67 -91 113 -160z
m-5725 -306 c-14 -82 -12 -147 5 -229 39 -181 155 -303 343 -359 30 -8 138
-27 240 -41 611 -84 881 -165 1150 -345 170 -113 322 -277 429 -462 l46 -78
57 54 c68 65 203 155 294 195 173 78 340 111 556 110 l145 0 -62 -23 c-196
-73 -309 -202 -363 -416 -12 -47 -42 -137 -67 -200 -54 -138 -70 -210 -78
-355 -11 -217 -47 -1801 -41 -1855 14 -140 123 -361 239 -487 l40 -43 -45 0
c-70 0 -224 29 -328 62 -186 60 -355 154 -510 284 -119 100 -192 197 -246 329
-27 65 -29 79 -29 205 0 127 2 139 28 195 41 88 73 124 135 153 56 25 69 25
157 -3 20 -6 20 -3 17 137 -9 396 -18 532 -37 568 -79 153 -291 312 -485 366
-93 26 -278 24 -382 -4 -302 -82 -514 -267 -574 -505 -43 -165 40 -398 197
-554 63 -64 144 -113 186 -113 34 0 77 25 97 55 12 18 76 170 76 181 0 1 -24
-5 -52 -13 -94 -24 -176 3 -246 83 -74 83 -104 205 -77 309 45 171 192 298
395 341 151 32 367 7 495 -59 39 -20 40 -20 15 -29 -32 -12 -68 -45 -86 -80
-20 -38 -17 -91 10 -210 37 -157 39 -209 17 -318 -57 -273 -246 -480 -495
-545 -391 -100 -856 154 -1014 555 -47 119 -52 169 -52 610 0 448 -1 453 -57
585 -95 227 -297 431 -480 485 -24 7 -43 16 -43 20 0 14 295 21 420 10 216
-18 329 -45 466 -111 153 -74 275 -203 305 -319 10 -39 17 -50 29 -46 8 2 55
21 103 41 167 69 396 115 572 115 91 0 246 -22 320 -44 28 -9 52 -16 54 -16 2
0 1 36 -1 80 -15 250 -247 433 -662 522 -78 17 -137 22 -261 22 -143 1 -164
-1 -200 -20 -22 -11 -68 -35 -102 -53 -98 -50 -171 -72 -263 -78 -156 -10
-276 34 -372 135 -112 117 -138 207 -145 502 -6 244 7 336 66 485 29 72 150
289 158 282 1 -2 -2 -30 -7 -63z"/>
<path d="M772 8033 c-114 -176 -179 -294 -197 -356 -22 -77 -13 -143 27 -198
29 -40 30 -43 12 -56 -40 -29 -124 3 -124 48 0 10 -6 19 -14 19 -23 0 -54 -61
-77 -146 -34 -133 -11 -304 58 -423 80 -139 182 -186 256 -121 47 41 85 47
120 20 34 -27 34 -40 2 -40 -60 0 -93 -76 -61 -139 15 -28 80 -91 95 -91 15 0
82 -74 87 -97 10 -39 22 -26 44 50 12 39 30 99 41 131 41 127 18 192 -117 329
-99 100 -122 144 -110 211 7 38 42 70 89 81 27 7 27 7 27 -44 0 -29 6 -67 14
-85 18 -44 75 -86 124 -93 113 -15 202 85 202 229 0 85 -59 228 -127 308 -38
44 -58 50 -68 20 -10 -31 -54 -60 -91 -60 -41 0 -42 8 -9 56 38 55 34 114 -11
200 -105 198 -98 181 -99 270 0 56 -4 84 -11 84 -7 0 -43 -48 -82 -107z m69
-23 c8 -53 30 -102 100 -230 36 -65 40 -81 37 -122 -3 -31 -14 -57 -31 -78
-22 -25 -25 -35 -17 -51 21 -39 140 -15 155 31 9 27 19 25 48 -10 66 -77 117
-204 117 -287 0 -98 -43 -180 -108 -204 -96 -37 -194 39 -191 147 1 28 -1 56
-5 62 -11 18 -42 15 -86 -8 -64 -33 -83 -89 -59 -175 9 -30 35 -63 106 -134
100 -99 132 -151 133 -214 0 -28 -54 -241 -65 -255 -1 -1 -22 17 -47 40 -24
24 -61 54 -80 68 -66 46 -87 111 -48 150 11 11 31 20 44 20 31 0 41 26 21 57
-35 54 -110 55 -160 3 -53 -55 -124 -32 -197 65 -100 133 -128 346 -67 509 21
57 22 58 38 39 35 -44 107 -57 149 -27 29 20 28 40 -8 93 -25 36 -30 54 -30
100 1 68 15 109 70 203 74 127 164 267 169 263 2 -3 8 -27 12 -55z"/>
<path d="M8858 8091 c7 -76 -14 -148 -75 -255 -46 -81 -58 -110 -61 -155 -3
-48 0 -62 22 -94 33 -48 33 -57 -4 -57 -43 0 -78 19 -92 52 -7 15 -18 28 -25
28 -17 0 -77 -74 -112 -139 -81 -153 -80 -304 3 -388 48 -48 97 -62 157 -44
81 24 123 87 118 173 -3 41 -2 43 24 41 43 -3 85 -39 93 -79 12 -67 -10 -109
-120 -223 -132 -137 -149 -188 -107 -317 11 -32 29 -92 41 -131 19 -68 40 -95
40 -55 1 24 36 62 103 111 66 48 97 92 97 137 0 39 -40 84 -75 84 -32 0 -32
13 2 40 35 28 73 21 121 -21 31 -27 41 -31 79 -26 156 17 287 316 239 544 -16
77 -54 164 -74 171 -6 2 -16 -8 -21 -21 -19 -50 -85 -73 -126 -43 -19 13 -18
15 7 49 57 73 58 168 3 277 -65 128 -232 390 -250 390 -8 0 -11 -14 -7 -49z
m154 -210 c95 -158 118 -212 118 -285 0 -42 -6 -62 -30 -97 -36 -53 -37 -73
-8 -93 42 -30 114 -17 149 27 16 19 17 18 39 -39 60 -159 31 -379 -68 -509
-74 -97 -138 -118 -198 -65 -59 52 -117 51 -156 0 -23 -32 -15 -60 18 -60 13
0 33 -9 44 -20 39 -39 18 -104 -48 -150 -20 -14 -57 -45 -82 -70 l-45 -45 -33
115 c-18 63 -32 131 -32 150 1 61 35 116 133 212 70 70 96 103 105 134 16 55
15 89 -3 124 -16 31 -80 70 -114 70 -28 0 -35 -16 -32 -74 5 -162 -205 -216
-274 -70 -26 56 -31 149 -11 220 19 64 81 178 115 208 21 19 22 19 36 0 8 -10
15 -22 15 -25 1 -20 89 -37 124 -23 23 9 20 44 -6 72 -18 19 -23 35 -23 80 0
51 6 68 57 157 51 90 65 126 83 219 l6 30 20 -30 c11 -16 56 -89 101 -163z"/>
<path d="M266 6998 c-67 -188 -138 -437 -143 -503 -7 -97 20 -149 96 -186 l54
-26 -22 -22 c-14 -14 -34 -21 -62 -21 -32 0 -46 6 -69 32 -41 45 -53 29 -58
-79 -4 -100 14 -196 52 -271 64 -126 207 -251 296 -260 71 -7 98 3 117 43 19
41 35 48 68 33 28 -13 32 -26 10 -35 -19 -7 -45 -54 -45 -81 0 -36 41 -72 141
-123 66 -34 104 -60 111 -75 6 -13 14 -24 18 -24 8 0 20 152 20 244 -1 110
-44 170 -192 261 -140 86 -183 172 -122 244 35 42 64 42 64 -1 0 -39 29 -90
64 -113 28 -18 98 -22 136 -7 14 6 37 23 52 38 90 95 80 257 -25 393 -39 50
-128 121 -153 121 -6 0 -14 -18 -18 -40 -7 -42 -29 -63 -78 -75 -43 -11 -52 3
-23 37 30 36 33 92 8 146 -10 20 -57 78 -106 129 -94 99 -132 165 -143 246 -4
26 -10 47 -14 47 -5 0 -20 -33 -34 -72z m91 -147 c15 -20 57 -64 94 -99 107
-102 134 -181 82 -242 -20 -25 -24 -36 -16 -49 27 -42 124 -12 151 48 9 20 18
38 19 40 6 10 84 -52 118 -94 100 -122 119 -255 50 -355 -71 -103 -218 -77
-234 41 -7 52 -28 67 -68 50 -60 -25 -81 -108 -44 -179 25 -49 49 -70 151
-132 156 -95 170 -120 170 -303 0 -70 -3 -127 -7 -127 -3 0 -14 7 -23 15 -9 8
-52 32 -97 54 -123 60 -150 108 -92 162 37 34 33 62 -12 78 -40 14 -69 1 -88
-40 -15 -32 -20 -34 -70 -37 -47 -3 -60 1 -108 33 -59 39 -127 106 -168 165
-56 81 -97 256 -81 344 l7 36 27 -19 c46 -33 113 -31 147 4 36 35 31 53 -18
74 -73 32 -115 105 -104 185 6 38 132 460 144 480 3 4 14 -15 24 -44 10 -29
31 -69 46 -89z"/>
<path d="M9406 7023 c-11 -81 -49 -147 -143 -246 -49 -51 -96 -109 -106 -129
-26 -54 -22 -110 9 -147 22 -26 23 -32 10 -37 -46 -17 -116 35 -116 86 0 17
-5 30 -13 30 -27 0 -117 -72 -160 -129 -103 -137 -108 -298 -12 -391 30 -29
43 -34 95 -38 45 -3 66 0 85 12 36 23 65 75 65 114 0 43 29 43 64 1 61 -72 18
-158 -122 -245 -102 -62 -157 -115 -178 -171 -14 -37 -16 -66 -10 -185 6 -130
12 -171 23 -142 11 30 38 51 129 98 137 71 166 128 99 190 -31 29 -31 34 0 46
33 13 51 4 65 -31 16 -38 37 -49 97 -49 65 0 140 44 221 129 109 113 159 251
150 411 -6 101 -18 116 -58 72 -23 -26 -37 -32 -69 -32 -28 0 -48 7 -62 21
l-22 22 54 26 c76 37 103 89 96 186 -7 91 -155 575 -177 575 -4 0 -10 -21 -14
-47z m99 -263 c36 -118 69 -234 72 -256 11 -80 -31 -153 -104 -185 -46 -20
-52 -32 -28 -66 31 -44 121 -48 166 -7 17 15 18 14 25 -21 9 -51 -3 -157 -27
-229 -35 -105 -114 -207 -215 -277 -42 -29 -57 -34 -108 -34 -59 0 -60 1 -79
37 -22 41 -45 51 -87 36 -44 -15 -47 -43 -11 -77 17 -16 31 -38 31 -49 0 -35
-42 -74 -116 -108 -40 -19 -86 -45 -103 -60 l-31 -26 0 133 c0 190 13 213 170
309 47 28 96 61 108 73 70 65 81 168 23 219 -51 46 -91 33 -91 -29 0 -24 -10
-44 -34 -70 -30 -33 -39 -37 -82 -37 -61 0 -96 22 -132 83 -23 39 -27 57 -26
116 1 84 30 155 93 227 37 42 108 96 114 87 2 -2 10 -20 19 -40 27 -60 124
-90 151 -48 8 13 4 24 -16 49 -57 67 -33 128 102 261 74 73 131 163 131 206 0
42 23 -17 85 -217z"/>
<path d="M15 5823 c-13 -32 -18 -524 -6 -569 15 -55 81 -129 129 -145 55 -17
58 -25 23 -59 -33 -33 -44 -35 -123 -15 -27 7 -28 6 -28 -28 0 -94 74 -241
170 -338 86 -87 151 -122 260 -141 81 -14 78 -16 133 72 22 34 53 48 83 36 12
-5 11 -11 -3 -40 -13 -28 -14 -41 -5 -60 16 -36 85 -67 171 -78 49 -5 86 -16
104 -29 16 -12 30 -19 33 -17 8 9 -48 245 -69 287 -28 57 -83 96 -171 121
-124 36 -154 50 -190 90 -39 44 -51 77 -42 115 10 41 32 40 67 0 43 -48 78
-65 137 -65 60 0 126 43 148 95 44 107 -20 263 -144 353 -61 44 -129 74 -161
70 -23 -3 -26 -7 -23 -40 3 -31 -2 -43 -26 -68 -34 -34 -80 -42 -66 -12 4 9 9
34 12 55 8 70 -28 106 -218 217 -76 44 -170 146 -170 185 0 29 -15 33 -25 8z
m93 -150 c18 -18 63 -49 100 -69 107 -58 172 -105 188 -135 17 -34 18 -73 2
-98 -6 -10 -8 -26 -4 -36 5 -14 14 -16 43 -12 49 8 83 44 90 95 3 23 11 42 18
42 30 0 144 -68 186 -111 64 -65 93 -128 97 -212 l4 -67 -45 -45 c-44 -44 -64
-52 -127 -46 -37 4 -79 32 -102 69 -51 83 -130 -17 -83 -107 30 -59 90 -97
194 -126 172 -47 201 -77 240 -254 26 -116 27 -119 7 -106 -12 7 -50 16 -86
20 -128 14 -188 60 -157 121 21 40 7 64 -37 64 -42 0 -81 -31 -96 -75 -14 -43
-41 -52 -112 -34 -78 18 -117 36 -177 82 -98 76 -194 232 -215 350 -7 36 -6
38 13 28 48 -26 117 -7 145 40 22 38 13 65 -24 73 -44 8 -77 33 -112 83 -27
40 -31 54 -35 141 -3 54 -2 169 2 257 l7 159 21 -29 c12 -17 36 -45 55 -62z"/>
<path d="M9680 5816 c0 -52 -107 -158 -215 -213 -152 -77 -201 -153 -161 -245
14 -30 -32 -22 -66 12 -24 24 -29 37 -26 67 3 44 -8 50 -68 33 -58 -17 -153
-84 -198 -140 -68 -85 -94 -199 -62 -275 22 -52 88 -95 148 -95 60 0 97 18
136 66 34 41 57 41 68 -1 9 -38 -3 -71 -42 -115 -36 -40 -66 -54 -190 -90 -88
-25 -143 -64 -171 -121 -21 -42 -77 -278 -69 -287 3 -2 17 6 33 17 19 15 53
24 104 30 135 15 200 71 164 140 -14 27 -14 32 -1 37 30 12 61 -2 83 -36 55
-87 53 -86 127 -73 104 18 189 63 265 141 92 94 171 252 171 345 0 27 -2 29
-27 22 -80 -19 -91 -18 -123 14 -35 35 -33 47 11 56 37 8 90 53 121 103 22 36
23 43 23 297 0 143 -4 277 -8 298 -9 41 -27 50 -27 13z m18 -411 c-3 -132 -5
-143 -31 -187 -31 -53 -71 -85 -117 -95 -39 -7 -46 -24 -30 -64 21 -50 100
-76 151 -48 19 10 20 8 13 -28 -11 -65 -64 -181 -111 -243 -77 -103 -165 -162
-281 -190 -72 -17 -96 -9 -115 39 -19 47 -50 71 -94 71 -43 0 -56 -24 -36 -64
31 -61 -29 -107 -157 -121 -36 -4 -74 -13 -86 -20 l-21 -13 18 76 c9 42 20 93
23 113 8 45 56 113 97 138 17 11 77 32 132 47 89 24 106 33 148 73 54 52 70
101 49 151 -17 42 -58 52 -79 19 -64 -98 -168 -111 -243 -30 -35 37 -38 45
-38 101 0 117 88 241 212 300 81 38 88 38 88 -5 0 -52 44 -97 96 -99 42 -1 43
-1 28 72 -13 64 33 120 146 177 94 47 159 95 193 142 l32 45 8 -108 c4 -60 7
-172 5 -249z"/>
<path d="M74 4530 c8 -85 68 -349 96 -424 31 -80 85 -137 165 -172 36 -16 65
-32 65 -35 0 -4 -14 -19 -32 -34 -27 -23 -37 -26 -75 -20 -41 6 -43 5 -43 -20
0 -62 79 -177 177 -255 128 -103 275 -153 382 -130 68 15 97 44 106 104 8 51
41 86 81 86 27 0 31 -12 9 -30 -21 -17 -19 -83 3 -110 25 -31 75 -38 162 -22
56 10 84 11 109 3 19 -6 37 -8 40 -5 3 3 -20 56 -51 119 -80 160 -125 190
-313 204 -114 9 -174 30 -210 73 -27 32 -34 93 -14 129 10 19 11 19 44 -10 88
-77 223 -29 256 92 15 58 4 113 -36 174 -27 40 -47 58 -98 83 -70 34 -213 64
-265 55 -32 -6 -33 -6 -26 -53 5 -39 2 -52 -16 -74 -33 -43 -55 -37 -56 16 -2
80 -61 131 -199 171 -106 30 -179 66 -224 108 l-43 42 6 -65z m219 -95 c180
-59 217 -85 217 -156 0 -55 8 -69 41 -69 44 0 83 57 76 111 -7 52 1 54 108 38
162 -24 270 -105 282 -213 14 -117 -88 -210 -190 -177 -20 7 -38 18 -41 26 -2
7 -14 19 -25 25 -56 29 -85 -92 -38 -160 36 -54 101 -80 225 -90 184 -14 226
-40 298 -182 24 -48 44 -89 44 -92 0 -2 -22 -4 -49 -4 -27 0 -72 -5 -100 -12
-44 -10 -55 -10 -88 7 -31 15 -39 24 -41 51 -2 22 3 41 14 53 30 33 -1 67 -50
55 -43 -11 -67 -39 -79 -96 -10 -45 -18 -57 -46 -73 -72 -43 -228 -13 -348 65
-101 65 -202 182 -227 263 -5 19 -3 21 29 17 66 -8 145 67 109 103 -9 8 -23
15 -32 15 -29 0 -117 57 -145 93 -39 52 -62 117 -101 294 -46 206 -47 200 7
169 24 -14 91 -41 150 -61z"/>
<path d="M9610 4555 c-39 -41 -104 -73 -222 -109 -145 -45 -200 -92 -202 -173
-1 -52 -23 -58 -56 -15 -18 22 -21 35 -16 73 6 45 6 47 -23 52 -51 10 -199
-19 -268 -53 -179 -88 -189 -323 -18 -380 49 -16 98 -5 140 31 33 29 34 29 44
10 20 -36 13 -97 -14 -129 -36 -43 -96 -64 -210 -73 -188 -14 -233 -44 -313
-204 -31 -63 -54 -117 -51 -120 3 -3 20 0 38 6 24 9 47 9 88 0 94 -19 146 -15
177 14 30 28 35 79 11 111 -21 27 -19 34 10 34 35 0 71 -38 79 -86 12 -62 30
-82 93 -100 53 -15 62 -15 137 1 45 9 108 30 141 46 67 33 167 113 215 174 39
48 80 131 80 163 0 22 -3 23 -43 17 -38 -6 -48 -3 -75 20 -18 15 -32 30 -32
34 0 4 24 17 54 30 73 30 130 81 160 144 38 78 121 437 114 493 l-3 25 -35
-36z m5 -77 c-13 -83 -74 -333 -90 -372 -9 -22 -28 -55 -43 -74 -27 -35 -115
-92 -144 -92 -9 0 -23 -7 -32 -15 -36 -36 43 -111 109 -103 31 4 34 2 29 -17
-34 -116 -201 -272 -344 -321 -144 -50 -256 -29 -274 51 -14 67 -24 85 -60
101 -61 29 -117 -8 -70 -46 10 -9 14 -26 12 -49 -3 -30 -9 -39 -41 -54 -33
-17 -44 -17 -88 -7 -28 7 -73 12 -100 12 -27 0 -49 2 -49 4 0 18 89 176 113
202 39 41 135 72 221 72 112 0 211 41 241 100 15 30 20 96 9 124 -14 37 -41
38 -80 4 -31 -27 -46 -33 -84 -33 -117 0 -187 130 -129 240 46 87 112 128 246
151 121 21 128 19 125 -34 -5 -57 34 -112 79 -112 16 0 30 3 30 8 1 4 3 26 4
50 6 83 40 108 223 168 59 19 126 46 147 59 22 13 42 25 43 25 2 0 1 -19 -3
-42z"/>
<path d="M410 3423 c0 -10 48 -115 107 -233 90 -182 115 -223 159 -267 65 -63
105 -77 196 -70 64 5 68 5 68 -15 0 -55 -78 -120 -122 -103 -27 11 -30 -14 -8
-50 35 -57 119 -123 215 -170 124 -61 197 -78 310 -73 106 4 149 24 180 80 19
35 19 38 2 73 -22 46 -22 68 2 89 31 28 56 17 56 -24 0 -50 12 -75 41 -88 41
-19 92 -14 162 17 37 16 84 32 105 36 20 4 37 10 37 13 0 3 -21 28 -47 56 -27
29 -65 71 -85 94 -65 74 -164 97 -302 68 -93 -19 -172 -20 -206 -3 -30 15 -60
71 -60 111 0 26 2 28 28 21 115 -30 188 -11 224 58 66 129 -35 276 -212 308
-78 14 -212 8 -234 -11 -14 -11 -13 -15 4 -37 23 -29 25 -51 8 -88 -13 -29
-28 -33 -28 -7 0 9 -9 32 -20 50 -32 53 -83 69 -240 75 -156 7 -220 23 -285
72 -52 40 -55 41 -55 18z m210 -102 c36 -6 109 -11 163 -11 77 0 106 -4 136
-19 46 -24 57 -37 68 -81 13 -51 48 -54 68 -6 19 45 19 76 0 103 -15 21 -14
22 21 29 20 4 75 4 123 2 145 -9 226 -58 266 -162 15 -40 16 -52 6 -88 -7 -23
-27 -55 -44 -71 -29 -26 -35 -28 -91 -24 -34 3 -75 8 -93 12 -26 6 -32 4 -38
-15 -9 -28 2 -86 22 -117 35 -53 127 -68 248 -38 78 19 149 19 213 0 44 -14
60 -26 126 -103 l75 -87 -32 -7 c-18 -4 -57 -18 -87 -32 -106 -49 -190 -25
-175 51 11 61 -36 84 -89 42 -31 -24 -34 -67 -9 -110 16 -27 16 -32 3 -57 -8
-15 -35 -37 -60 -50 -40 -21 -55 -23 -145 -19 -82 3 -115 10 -183 37 -97 37
-219 115 -262 168 l-30 37 27 6 c68 14 117 72 111 131 l-3 33 -76 -3 c-158 -7
-212 51 -377 401 l-50 105 52 -24 c28 -12 80 -28 116 -33z"/>
<path d="M9252 3404 c-61 -48 -126 -64 -282 -71 -157 -6 -208 -22 -240 -75
-11 -18 -20 -41 -20 -50 0 -26 -15 -22 -28 7 -17 38 -15 66 8 90 18 19 19 24
6 34 -23 19 -164 26 -240 11 -95 -18 -164 -62 -199 -128 -34 -64 -37 -123 -9
-179 36 -69 109 -88 225 -58 25 7 27 5 27 -21 0 -40 -30 -96 -60 -111 -34 -17
-107 -16 -209 3 -102 20 -181 13 -239 -19 -32 -18 -192 -185 -192 -200 0 -3
17 -8 38 -12 20 -4 67 -20 104 -36 71 -31 121 -36 163 -17 26 12 33 27 37 88
3 41 29 51 59 24 24 -21 24 -43 2 -89 -17 -35 -17 -38 2 -73 31 -56 74 -76
180 -80 113 -5 186 12 310 73 96 47 180 113 215 170 22 36 19 61 -8 50 -44
-17 -122 48 -122 103 0 20 4 20 68 15 91 -7 131 7 196 70 44 44 69 85 159 268
99 199 119 250 100 248 -5 0 -27 -16 -51 -35z m-82 -224 c-138 -274 -182 -315
-328 -308 l-77 3 -3 -32 c-6 -60 41 -118 108 -132 l30 -6 -30 -37 c-43 -52
-164 -130 -262 -169 -76 -30 -93 -33 -193 -34 -122 0 -165 15 -195 68 -13 24
-13 29 3 56 24 41 21 78 -8 106 -47 48 -103 24 -91 -40 14 -75 -69 -98 -174
-49 -30 14 -69 28 -87 32 l-32 7 76 88 c66 76 82 89 126 102 63 19 134 19 212
0 136 -33 223 -13 255 57 35 76 23 126 -26 113 -16 -4 -57 -9 -91 -12 -59 -4
-65 -3 -92 24 -16 17 -35 48 -42 71 -23 79 37 181 133 222 57 25 196 38 262
26 35 -7 36 -8 21 -29 -19 -28 -19 -70 1 -108 21 -41 56 -37 65 8 15 75 72
103 206 103 124 0 214 15 278 45 28 13 51 24 53 24 1 1 -43 -89 -98 -199z"/>
<path d="M1855 2494 c-83 -21 -154 -46 -165 -59 -10 -12 -7 -20 14 -46 17 -20
26 -42 26 -65 l0 -35 -33 25 c-83 63 -149 70 -312 30 -117 -28 -222 -29 -282
-4 -18 8 -35 11 -39 7 -8 -8 78 -114 221 -271 96 -104 119 -124 170 -146 62
-26 175 -34 223 -17 20 8 22 6 22 -32 0 -49 -39 -101 -76 -101 -39 0 -28 -26
30 -70 165 -125 423 -143 618 -44 46 23 88 72 88 102 0 8 -10 28 -22 45 -31
44 -30 103 1 128 33 27 45 20 47 -26 1 -28 8 -44 28 -62 48 -41 132 -25 221
43 17 13 50 31 75 42 l44 18 -25 18 c-83 59 -189 124 -218 134 -19 7 -62 12
-96 12 -49 0 -72 -6 -116 -29 -158 -85 -185 -93 -242 -72 -31 12 -66 48 -78
80 -16 41 -7 49 48 38 100 -21 183 53 183 162 0 64 -34 116 -103 158 -54 32
-67 36 -145 39 -48 2 -96 1 -107 -2z m240 -50 c68 -42 95 -84 95 -148 0 -101
-68 -158 -163 -139 -59 12 -82 -3 -72 -46 14 -61 72 -111 138 -118 48 -6 115
19 189 69 21 14 60 31 88 38 75 18 132 2 242 -71 112 -73 105 -67 82 -75 -10
-4 -40 -22 -65 -40 -88 -62 -127 -74 -185 -58 -27 7 -46 47 -38 79 14 56 -73
48 -100 -10 -21 -44 -20 -54 9 -110 15 -27 23 -55 20 -66 -10 -32 -71 -70
-152 -96 -92 -29 -235 -35 -323 -14 -65 16 -178 71 -202 98 -17 18 -16 20 11
36 35 21 64 88 56 128 -9 39 -18 43 -76 28 -38 -10 -62 -10 -103 -2 -107 23
-137 45 -284 209 -75 85 -138 158 -140 162 -1 5 24 5 55 1 62 -7 124 1 242 32
127 33 199 23 267 -34 18 -15 37 -27 43 -27 32 0 28 94 -5 131 -20 23 -18 26
30 44 75 29 107 34 201 32 81 -2 95 -5 140 -33z"/>
<path d="M7685 2491 c-16 -4 -53 -22 -80 -39 -91 -56 -119 -147 -74 -240 30
-61 91 -90 162 -75 57 12 67 1 44 -44 -44 -84 -125 -105 -217 -55 -30 16 -77
41 -104 56 -40 21 -62 26 -115 25 -36 0 -80 -6 -97 -12 -36 -14 -233 -139
-234 -149 0 -3 15 -12 34 -18 19 -6 52 -24 74 -40 102 -74 178 -89 228 -47 20
17 27 33 28 62 1 45 14 53 47 26 31 -25 32 -84 1 -128 -12 -17 -22 -37 -22
-45 0 -30 42 -79 87 -102 162 -81 373 -84 534 -7 108 53 171 121 110 121 -9 0
-29 13 -44 28 -21 22 -27 38 -27 71 0 37 2 42 18 36 45 -20 132 -17 199 6 59
20 79 34 144 100 85 86 279 309 279 321 0 13 -33 9 -60 -7 -39 -22 -152 -18
-268 10 -159 38 -227 32 -308 -30 -18 -14 -35 -21 -38 -16 -9 14 12 73 35 97
18 19 20 26 9 39 -33 40 -263 78 -345 56z m268 -40 c31 -13 57 -25 57 -28 0
-4 -6 -14 -14 -22 -22 -25 -37 -91 -25 -112 13 -25 25 -24 63 8 68 57 140 67
267 34 118 -31 180 -39 241 -32 44 5 55 4 50 -6 -4 -7 -66 -79 -137 -159 -115
-131 -137 -151 -195 -178 -65 -30 -117 -36 -224 -24 -24 2 -31 -2 -39 -25 -13
-40 15 -111 54 -134 27 -16 28 -18 11 -36 -24 -28 -138 -82 -202 -97 -163 -40
-412 12 -467 97 -15 22 -14 27 11 78 32 61 29 99 -7 132 -29 27 -48 32 -70 21
-14 -7 -17 -16 -12 -38 9 -41 -30 -80 -80 -80 -40 0 -74 15 -144 64 -25 18
-55 36 -65 40 -23 8 -30 1 80 75 147 97 227 102 353 20 105 -68 188 -75 252
-22 29 24 59 77 59 102 0 5 -6 16 -14 24 -11 11 -24 12 -63 4 -94 -19 -163 38
-163 136 0 78 26 114 115 162 47 25 56 27 150 22 70 -3 117 -11 158 -26z"/>
<path d="M2726 1835 c-71 -25 -116 -52 -176 -104 l-35 -30 27 -23 c30 -26 42
-59 33 -89 -6 -19 -8 -19 -24 -5 -30 27 -88 46 -123 40 -18 -4 -81 -30 -139
-60 -126 -63 -217 -83 -301 -65 -99 22 -82 3 128 -139 193 -130 271 -170 353
-177 76 -7 120 2 165 32 20 14 38 25 40 25 2 0 7 -12 10 -26 11 -41 -4 -92
-36 -123 l-30 -29 26 -16 c14 -9 36 -22 49 -30 76 -46 262 -61 368 -30 152 45
261 142 261 232 0 30 -7 42 -36 67 -41 34 -45 61 -15 99 27 34 32 33 47 -8 17
-45 65 -69 112 -56 48 14 89 45 139 106 24 29 64 63 88 76 23 13 43 25 43 28
0 3 -62 25 -138 50 -207 67 -268 57 -409 -71 -114 -103 -190 -125 -252 -73
-41 35 -42 64 0 64 103 0 185 130 145 233 -44 115 -170 155 -320 102z m224
-19 c79 -40 108 -120 74 -206 -20 -50 -65 -83 -124 -90 -40 -4 -45 -8 -48 -33
-3 -21 5 -36 31 -62 31 -31 41 -35 89 -35 64 0 109 25 203 112 68 63 124 94
185 104 33 5 66 -1 171 -36 102 -34 126 -46 112 -53 -10 -5 -52 -44 -94 -87
-54 -56 -86 -81 -114 -89 -51 -14 -87 3 -99 46 -6 18 -16 35 -24 38 -20 8 -50
-12 -67 -45 -24 -47 -19 -75 20 -104 56 -43 45 -109 -30 -175 -135 -118 -369
-146 -533 -62 l-42 22 21 28 c25 34 35 105 20 144 -12 31 -50 37 -72 10 -43
-52 -166 -53 -277 -3 -47 22 -362 225 -362 234 0 1 18 0 41 -2 72 -7 159 17
267 74 122 64 175 71 231 30 18 -14 39 -22 46 -20 33 13 23 112 -13 134 -15 9
-13 14 18 40 114 99 272 136 370 86z"/>
<path d="M6785 1845 c-84 -32 -132 -111 -120 -197 11 -79 83 -148 155 -148 40
0 40 -29 -1 -64 -62 -52 -138 -30 -252 73 -141 128 -202 139 -409 71 -76 -25
-138 -47 -138 -50 0 -3 20 -15 43 -28 24 -13 64 -47 88 -76 50 -61 91 -92 139
-106 47 -13 95 11 112 56 15 41 20 42 47 8 30 -38 27 -69 -10 -94 -60 -44 -57
-105 10 -182 76 -86 210 -138 356 -138 100 0 167 16 239 56 59 33 62 40 31 60
-29 19 -49 82 -40 125 7 32 17 36 35 15 45 -55 195 -59 304 -8 110 52 424 268
409 282 -4 5 -29 4 -55 -1 -80 -17 -172 3 -296 65 -59 29 -122 56 -140 59 -35
7 -93 -11 -123 -39 -16 -14 -18 -14 -24 5 -9 30 3 63 33 88 l26 22 -40 37
c-21 20 -76 54 -122 77 -96 46 -188 58 -257 32z m245 -47 c41 -20 91 -51 110
-67 31 -27 33 -32 18 -41 -36 -22 -46 -121 -13 -134 7 -2 28 6 46 20 56 41
104 34 244 -37 119 -60 122 -61 207 -63 48 0 84 -4 80 -7 -29 -28 -309 -208
-357 -230 -108 -49 -231 -47 -274 4 -22 27 -60 21 -72 -10 -15 -39 -5 -110 20
-144 l21 -28 -42 -22 c-200 -102 -515 -30 -589 135 -21 47 -17 61 27 103 19
18 34 41 34 53 0 29 -26 77 -49 90 -28 14 -46 4 -57 -33 -12 -43 -48 -60 -99
-46 -28 8 -60 33 -114 89 -42 43 -84 82 -94 87 -14 7 10 19 112 53 105 35 138
41 171 36 60 -9 110 -38 182 -103 100 -90 143 -113 206 -113 48 0 58 4 89 35
26 26 34 41 31 62 -3 25 -8 29 -48 33 -57 7 -96 33 -121 81 -26 52 -24 103 6
154 55 94 185 111 325 43z"/>
<path d="M3825 1454 c-27 -9 -72 -31 -100 -50 -54 -35 -175 -155 -175 -172 0
-6 16 -16 35 -22 39 -13 75 -53 75 -83 0 -15 -4 -18 -22 -13 -49 15 -107 18
-141 7 -19 -7 -77 -48 -129 -93 -119 -104 -150 -123 -221 -142 -33 -8 -62 -18
-65 -21 -14 -14 36 -36 231 -100 194 -65 203 -67 281 -63 88 5 124 19 192 74
36 29 44 32 54 19 18 -22 7 -102 -19 -129 -11 -12 -21 -25 -21 -29 0 -13 79
-27 161 -27 191 0 386 107 459 253 38 76 39 121 4 150 -54 45 -64 58 -64 78 0
50 42 80 55 39 9 -30 39 -41 87 -34 62 10 91 34 133 116 21 40 48 87 61 105
41 54 38 55 -128 51 -142 -3 -156 -5 -203 -30 -60 -32 -97 -70 -158 -163 -68
-104 -135 -140 -211 -115 -37 12 -80 56 -70 71 3 5 15 9 26 9 65 0 148 90 148
160 0 116 -143 196 -275 154z m178 -31 c68 -40 95 -119 62 -183 -18 -35 -81
-80 -112 -80 -12 0 -29 -7 -37 -16 -14 -14 -14 -18 -1 -45 19 -36 49 -55 97
-64 76 -14 161 40 218 140 38 67 113 137 170 159 35 13 71 16 166 14 l121 -3
-52 -94 c-56 -104 -82 -130 -139 -137 -32 -4 -41 0 -65 27 -33 35 -60 34 -81
-5 -22 -42 -5 -92 40 -121 49 -31 51 -56 11 -140 -48 -102 -151 -177 -310
-225 -58 -18 -89 -22 -157 -18 -46 2 -86 7 -89 10 -3 3 1 18 10 34 29 57 13
154 -26 154 -5 0 -32 -18 -61 -40 -118 -89 -191 -90 -443 -5 -213 72 -210 70
-155 85 61 16 95 38 206 135 122 108 141 114 261 89 28 -5 33 -3 38 19 10 38
-20 86 -66 106 l-39 18 78 75 c71 69 129 109 192 129 38 13 127 3 163 -18z"/>
<path d="M5764 1461 c-123 -31 -181 -157 -114 -250 23 -34 86 -71 119 -71 11
0 22 -4 25 -9 10 -15 -33 -59 -70 -71 -75 -25 -153 17 -211 114 -52 85 -98
133 -157 164 -48 25 -62 27 -203 30 -167 4 -170 3 -129 -51 13 -18 40 -65 61
-105 21 -40 50 -81 64 -91 54 -38 143 -32 156 11 13 39 55 7 55 -42 0 -12 -12
-31 -26 -43 -57 -48 -64 -58 -64 -90 0 -50 54 -148 109 -200 95 -89 246 -147
380 -147 82 0 161 14 161 27 0 4 -10 17 -21 29 -26 28 -37 107 -19 129 11 13
17 11 46 -15 61 -53 112 -73 200 -78 78 -4 87 -2 281 63 195 64 245 86 231
100 -3 3 -32 13 -65 22 -74 19 -103 37 -214 133 -110 96 -146 114 -208 107
-25 -3 -56 -9 -68 -12 -19 -6 -23 -3 -23 12 0 30 36 70 75 83 19 6 35 17 35
23 0 6 -36 47 -79 89 -115 113 -233 163 -327 139z m177 -47 c30 -15 89 -61
131 -102 l78 -75 -39 -18 c-46 -20 -76 -68 -66 -106 5 -22 10 -24 38 -19 119
25 141 18 258 -86 108 -95 137 -115 200 -137 l52 -17 -121 -43 c-191 -66 -282
-91 -333 -91 -64 0 -145 31 -193 75 -45 39 -70 44 -86 16 -16 -30 -12 -113 6
-139 9 -13 13 -26 10 -29 -3 -4 -44 -9 -90 -11 -190 -10 -399 99 -467 243 -39
81 -38 110 4 135 57 34 74 98 37 138 -28 29 -41 28 -72 -8 -23 -26 -32 -30
-64 -26 -57 7 -83 33 -139 137 l-52 94 121 3 c182 4 242 -28 341 -182 72 -112
150 -152 237 -125 28 9 50 25 65 47 26 39 21 60 -16 67 -109 22 -170 120 -127
203 47 91 171 115 287 56z"/>
<path d="M4780 1321 c-22 -23 -53 -77 -79 -137 -111 -259 -181 -379 -287 -493
-75 -82 -136 -121 -186 -121 -65 0 -48 -21 76 -93 135 -78 231 -86 291 -23 35
37 49 36 71 -6 20 -39 11 -73 -26 -95 -36 -21 -38 -45 -6 -66 34 -23 150 -171
183 -234 15 -29 33 -53 40 -53 7 0 24 24 38 53 34 67 129 183 182 222 49 35
52 49 19 71 -14 8 -30 31 -36 50 -10 29 -9 39 4 59 18 28 31 31 43 12 26 -45
132 -67 223 -48 65 14 141 52 197 98 59 48 57 63 -10 63 -60 0 -109 22 -181
80 -71 57 -140 159 -232 348 -105 212 -136 265 -183 315 -49 52 -90 52 -141
-2z m100 14 c43 -22 82 -86 197 -319 57 -115 124 -237 149 -272 71 -100 178
-176 264 -190 l41 -7 -47 -33 c-71 -51 -143 -74 -227 -74 -72 0 -84 4 -154 56
-21 15 -24 14 -49 -11 -23 -23 -26 -32 -21 -72 3 -30 13 -54 31 -72 l26 -27
-30 -18 c-35 -20 -153 -162 -182 -219 l-20 -40 -25 44 c-31 53 -119 164 -162
205 -36 34 -38 41 -13 49 46 14 55 98 16 144 -31 37 -58 39 -79 7 -48 -72
-163 -61 -307 30 l-43 27 28 8 c114 31 300 276 408 540 60 148 88 198 130 233
36 31 32 30 69 11z"/>
<path d="M4821 948 c-10 -24 -44 -88 -75 -143 -58 -103 -70 -153 -43 -188 6
-9 43 -36 81 -61 78 -51 73 -52 168 21 88 67 88 81 -4 262 -46 91 -80 147 -91
149 -12 3 -23 -9 -36 -40z m103 -108 c47 -92 66 -141 66 -168 0 -35 -5 -42
-66 -86 -74 -55 -70 -55 -160 13 -31 23 -50 46 -53 61 -2 17 22 74 70 167 41
79 75 143 76 143 1 0 31 -59 67 -130z"/>
</g>
</svg>
