 <svg  version="1.0" xmlns="http://www.w3.org/2000/svg"  width="900.000000pt" height="900.000000pt" viewBox="0 0 900.000000 900.000000"  preserveAspectRatio="xMidYMid meet">  <g transform="translate(0.000000,900.000000) scale(0.100000,-0.100000)" fill="#ffffff" stroke="none"> <path d="M440 8558 c0 -10 817 -13 4050 -13 3233 0 4050 3 4050 13 0 9 -817 12 -4050 12 -3233 0 -4050 -3 -4050 -12z"/> <path d="M524 8469 c-5 -8 -6 -7931 -1 -7936 7 -7 7931 -3 7936 4 4 5 4 1791 1 3971 l-5 3962 -3963 3 c-2180 1 -3966 -1 -3968 -4z m7761 -105 c43 -6 99 -60 90 -88 -15 -47 -17 -77 -5 -91 7 -8 10 -26 6 -40 -4 -14 -6 -1697 -6 -3741 l0 -3716 -42 -39 c-40 -37 -46 -39 -85 -33 -24 3 -49 2 -56 -2 -7 -5 -250 -6 -552 -1 -773 11 -5592 14 -6205 3 -376 -7 -521 -6 -537 2 -11 6 -24 8 -28 4 -3 -4 -45 -7 -93 -7 -78 0 -88 2 -113 25 -14 14 -31 35 -38 46 -7 16 -11 1073 -11 3815 0 3772 1 3793 20 3825 11 17 31 35 43 38 13 3 1699 5 3747 5 2047 0 3725 2 3727 5 5 5 77 0 138 -10z"/> <path d="M4346 8078 c-66 -5 -126 -13 -133 -19 -6 -6 -16 -8 -21 -5 -6 3 -31 -4 -57 -15 -27 -12 -72 -22 -101 -23 -34 -1 -59 -8 -71 -19 -11 -9 -37 -19 -59 -22 -107 -14 -124 -18 -124 -30 0 -22 -25 -35 -71 -37 -30 -1 -49 -8 -64 -23 -11 -12 -38 -32 -61 -43 -22 -11 -46 -28 -53 -36 -8 -9 -19 -16 -25 -16 -25 0 -163 -110 -306 -243 -63 -59 -203 -231 -252 -310 -39 -63 -124 -237 -133 -272 -3 -16 -13 -37 -21 -46 -8 -8 -16 -38 -20 -65 -9 -78 -13 -94 -28 -94 -9 0 -16 -16 -19 -47 -16 -150 -28 -231 -39 -258 -7 -18 -13 -104 -14 -215 -3 -152 -1 -187 11 -196 10 -7 19 -52 29 -138 9 -91 18 -132 31 -146 9 -10 19 -38 22 -62 8 -74 104 -318 125 -318 4 0 8 -7 8 -15 0 -9 9 -28 19 -43 11 -15 31 -45 45 -67 98 -149 203 -269 324 -370 46 -39 90 -76 99 -84 8 -8 28 -22 43 -30 16 -9 59 -37 97 -63 37 -25 93 -58 123 -72 126 -58 169 -76 182 -76 7 0 35 -11 62 -25 27 -14 59 -25 71 -25 46 0 85 -13 85 -28 0 -11 8 -13 36 -9 20 4 63 -1 97 -10 130 -33 712 -14 735 24 4 6 47 17 95 24 64 9 90 17 97 29 5 10 26 20 49 23 22 3 86 27 143 55 57 27 113 53 126 56 12 4 22 13 22 21 0 7 20 21 45 31 25 9 45 20 45 25 0 4 21 21 48 37 65 40 298 275 369 371 92 127 153 226 153 250 0 13 9 35 19 50 11 15 23 40 27 57 3 16 19 50 35 75 16 25 29 57 29 70 1 13 8 42 16 64 9 22 29 101 45 175 26 125 28 152 29 352 0 120 -4 237 -10 260 -5 24 -19 92 -30 152 -11 60 -26 114 -34 120 -7 6 -16 33 -20 60 -3 27 -13 54 -21 60 -18 14 -35 59 -35 96 0 16 -5 32 -10 35 -6 4 -27 41 -47 83 -20 42 -53 100 -75 129 -21 29 -38 57 -38 63 0 28 -277 322 -321 341 -16 6 -31 19 -34 28 -10 29 -212 161 -247 161 -10 0 -18 6 -18 13 0 18 -53 47 -87 47 -15 0 -48 14 -73 30 -26 17 -58 30 -77 30 -33 0 -93 27 -106 48 -5 8 -33 12 -76 12 -48 0 -70 4 -74 13 -8 21 -128 38 -352 51 -33 2 -114 0 -179 -6z m259 -88 c33 -6 98 -15 145 -20 84 -9 147 -22 205 -42 17 -6 44 -13 60 -16 17 -2 39 -11 50 -18 11 -8 27 -14 36 -14 10 0 30 -7 46 -14 15 -8 73 -37 128 -63 164 -80 290 -171 437 -315 82 -80 230 -262 251 -308 4 -8 16 -28 26 -45 20 -30 81 -154 105 -210 7 -16 20 -46 28 -65 9 -19 19 -46 21 -60 3 -14 9 -38 15 -55 31 -94 42 -136 42 -166 0 -19 7 -59 15 -89 21 -77 21 -384 0 -463 -8 -32 -15 -74 -15 -94 0 -32 -10 -73 -42 -168 -6 -16 -12 -41 -15 -55 -2 -14 -12 -41 -21 -60 -8 -19 -21 -48 -28 -65 -24 -56 -85 -180 -105 -210 -10 -16 -22 -37 -26 -45 -29 -64 -225 -291 -328 -381 -50 -44 -195 -153 -215 -162 -8 -4 -28 -16 -45 -26 -28 -18 -91 -51 -125 -65 -8 -3 -22 -10 -30 -14 -44 -25 -83 -42 -95 -42 -7 0 -26 -6 -42 -14 -43 -21 -93 -37 -145 -46 -26 -5 -56 -13 -67 -19 -11 -6 -37 -11 -58 -11 -21 0 -65 -7 -98 -15 -82 -19 -358 -19 -440 0 -33 8 -77 15 -98 15 -21 0 -47 5 -58 11 -11 6 -41 14 -67 19 -80 14 -186 54 -332 125 -304 149 -566 398 -736 700 -7 11 -28 54 -48 95 -21 41 -43 88 -51 103 -8 16 -15 36 -15 46 0 9 -7 26 -15 37 -8 10 -15 29 -15 41 0 12 -6 37 -14 55 -16 38 -35 123 -42 188 -3 25 -12 93 -19 152 -15 108 -14 136 15 393 9 79 22 142 42 200 5 17 12 41 15 55 3 14 11 39 19 57 8 17 14 36 14 41 0 6 6 23 14 39 7 15 21 46 31 68 9 22 21 47 26 55 4 8 18 33 30 55 11 22 34 59 50 83 16 24 29 45 29 48 0 17 138 184 219 265 84 84 248 219 266 219 4 0 21 11 38 24 18 13 55 36 82 50 28 15 57 31 65 35 8 4 33 16 55 25 22 10 53 24 68 32 16 8 36 14 46 14 9 0 25 6 36 14 11 7 34 16 50 18 17 3 44 10 60 16 57 20 120 33 205 43 47 5 108 13 135 18 71 12 160 13 230 1z"/> <path d="M4255 7805 c-27 -8 -66 -14 -85 -15 -19 0 -46 -7 -60 -15 -14 -8 -38 -15 -55 -15 -16 0 -39 -7 -49 -15 -11 -8 -28 -15 -39 -15 -10 0 -31 -6 -45 -13 -15 -8 -45 -22 -67 -32 -22 -9 -47 -21 -55 -26 -8 -4 -35 -18 -60 -31 -25 -12 -61 -35 -81 -50 -20 -15 -40 -28 -44 -28 -27 0 -345 -294 -345 -320 0 -5 -14 -24 -31 -42 -17 -18 -35 -42 -40 -53 -5 -11 -18 -33 -29 -50 -11 -16 -24 -39 -30 -50 -6 -11 -22 -40 -35 -64 -14 -24 -25 -50 -25 -56 0 -7 -7 -18 -15 -25 -8 -7 -15 -21 -15 -30 0 -10 -6 -31 -14 -47 -18 -36 -36 -89 -46 -133 -4 -19 -12 -55 -18 -80 -45 -190 -57 -438 -27 -553 8 -32 15 -74 15 -93 0 -19 7 -51 15 -71 8 -19 15 -47 15 -62 0 -14 7 -35 15 -45 8 -11 15 -32 15 -47 0 -14 7 -32 15 -39 8 -7 15 -20 15 -30 0 -14 37 -90 117 -242 8 -16 19 -28 24 -28 5 0 9 -5 9 -11 0 -21 96 -136 205 -245 95 -95 165 -151 283 -226 50 -31 164 -88 177 -88 7 0 18 -7 25 -15 7 -8 20 -15 30 -15 10 0 31 -7 46 -15 16 -8 38 -15 49 -15 11 -1 31 -7 45 -15 14 -8 37 -14 51 -15 15 0 42 -6 60 -14 94 -38 539 -41 644 -4 17 6 50 14 75 18 49 8 99 24 143 46 16 8 35 14 44 14 13 0 48 15 93 41 8 5 22 12 30 15 8 3 22 10 30 15 8 5 27 14 43 20 15 6 27 15 27 20 0 5 6 9 14 9 25 0 215 149 300 234 102 103 151 163 228 284 27 43 118 227 118 239 0 6 6 24 14 40 19 39 37 91 46 138 5 22 13 58 19 80 36 142 50 359 30 470 -6 33 -14 92 -18 130 -4 39 -13 80 -19 92 -7 12 -12 32 -12 45 0 13 -7 36 -15 52 -8 15 -15 37 -15 48 0 11 -6 32 -13 46 -8 15 -21 43 -29 62 -39 91 -100 205 -123 230 -8 9 -15 20 -15 24 0 15 -136 182 -199 244 -59 58 -236 199 -271 215 -8 4 -28 16 -45 26 -43 28 -109 61 -122 61 -6 0 -16 7 -23 15 -7 8 -22 15 -34 15 -11 0 -30 7 -40 15 -11 8 -29 15 -40 15 -12 0 -30 7 -40 15 -11 8 -32 15 -47 15 -15 0 -40 7 -55 15 -16 8 -45 15 -64 15 -19 0 -57 7 -84 15 -66 20 -418 20 -491 0z m380 -155 c55 -6 118 -16 140 -21 22 -6 58 -14 80 -19 66 -13 163 -50 260 -98 138 -68 226 -129 338 -233 83 -77 207 -226 207 -248 0 -5 6 -14 13 -18 7 -4 24 -28 36 -53 12 -25 34 -67 48 -95 13 -27 31 -63 39 -78 8 -16 14 -35 14 -44 0 -8 6 -27 14 -41 17 -34 35 -101 46 -172 4 -30 13 -76 20 -101 22 -86 2 -407 -32 -504 -6 -16 -12 -43 -15 -60 -2 -16 -8 -39 -12 -50 -5 -11 -13 -31 -18 -44 -9 -23 -13 -24 -112 -25 -57 0 -108 2 -114 6 -7 4 -1 19 16 41 25 34 26 36 9 55 -9 11 -46 41 -82 67 -84 62 -125 107 -154 170 -27 55 -125 155 -241 245 -38 30 -72 57 -75 60 -5 7 -95 69 -122 85 -9 6 -55 34 -102 63 -47 28 -92 52 -100 52 -8 0 -17 4 -21 10 -6 9 -114 63 -195 95 -63 26 -71 39 -64 100 6 45 3 54 -21 83 -35 41 -105 72 -166 72 -64 0 -81 -23 -73 -95 7 -57 -9 -82 -47 -72 -34 9 -73 -11 -88 -44 -13 -29 -15 -31 -60 -25 -166 21 -197 18 -242 -24 -9 -8 -43 -37 -76 -65 -97 -81 -153 -169 -153 -237 1 -51 19 -75 106 -141 65 -49 194 -182 194 -200 0 -6 6 -18 14 -26 17 -20 76 -130 76 -143 0 -5 9 -29 21 -54 36 -81 61 -76 -365 -75 -405 1 -391 -1 -401 51 -3 14 -10 39 -16 55 -6 17 -15 53 -19 80 -4 28 -13 64 -20 80 -7 19 -12 102 -12 232 0 198 9 275 44 378 6 17 13 44 16 60 2 17 11 39 18 50 8 11 14 26 14 35 0 20 92 203 108 213 6 4 12 12 12 18 0 20 141 197 212 265 70 67 176 153 208 167 8 4 29 16 45 26 65 42 238 121 263 121 10 0 26 6 37 14 11 7 38 16 60 18 22 3 54 10 70 16 70 26 280 36 420 22z m-275 -882 c34 -76 88 -134 163 -176 30 -17 58 -36 62 -42 3 -5 16 -10 29 -10 22 0 46 -17 46 -32 0 -14 -30 -8 -83 16 -54 26 -164 60 -251 77 -28 6 -59 17 -70 25 -11 8 -33 14 -47 14 -38 0 -59 10 -59 26 0 8 4 14 8 14 4 0 41 34 82 75 41 41 79 75 83 75 5 0 21 -28 37 -62z m-542 -216 c1 -26 10 -72 19 -102 17 -60 41 -172 50 -235 3 -22 10 -46 16 -53 6 -8 7 -16 1 -22 -9 -9 -55 31 -201 171 -70 67 -75 85 -43 147 25 47 121 139 150 141 3 1 6 -20 8 -47z m232 28 c10 -6 45 -14 77 -20 77 -12 165 -33 179 -42 6 -4 28 -11 50 -17 64 -15 95 -27 279 -106 148 -64 280 -130 388 -196 26 -16 50 -29 53 -29 3 0 23 -13 44 -30 21 -16 43 -30 49 -30 5 0 53 -44 106 -97 53 -54 126 -121 163 -148 65 -49 87 -84 64 -107 -6 -6 -927 -12 -1433 -8 -4 0 -9 24 -12 53 -15 130 -26 205 -35 247 -24 98 -34 147 -42 204 -4 32 -13 63 -19 69 -6 6 -11 20 -11 32 0 25 -38 136 -51 150 -5 5 -9 26 -9 47 l0 38 71 0 c39 0 79 -5 89 -10z m19 -885 c31 -14 63 -29 71 -34 24 -12 629 -14 644 -2 8 7 31 7 71 1 39 -6 63 -6 71 1 14 11 182 10 190 -2 2 -4 29 -5 59 -2 37 4 60 2 70 -7 12 -10 16 -9 21 4 5 12 15 15 43 10 40 -6 178 19 194 35 18 18 76 12 107 -10 26 -20 38 -21 105 -16 68 5 78 3 95 -16 11 -11 20 -25 20 -30 0 -28 -36 -116 -56 -135 -13 -13 -24 -27 -24 -31 0 -14 -114 -159 -143 -181 -15 -12 -34 -34 -41 -48 -8 -15 -33 -40 -56 -57 -23 -16 -51 -40 -63 -52 -11 -13 -26 -23 -34 -23 -7 0 -22 -13 -34 -30 -12 -16 -46 -41 -76 -56 -29 -15 -53 -31 -53 -35 0 -4 -10 -11 -22 -15 -13 -3 -30 -13 -39 -20 -9 -8 -39 -23 -68 -33 -29 -10 -57 -23 -64 -30 -6 -6 -20 -11 -30 -11 -11 0 -34 -8 -51 -19 -17 -10 -72 -24 -124 -31 -66 -9 -92 -17 -88 -26 8 -20 -52 -25 -267 -23 -229 2 -277 6 -277 24 0 12 -16 17 -90 30 -67 11 -111 23 -122 33 -7 6 -39 20 -70 32 -31 12 -78 32 -103 46 -25 13 -54 24 -64 24 -10 0 -21 9 -24 20 -3 11 -16 24 -29 30 -34 15 -58 31 -101 68 -20 17 -41 32 -46 32 -14 0 -181 158 -181 172 0 3 -22 35 -50 69 -27 34 -50 68 -50 75 0 7 -7 17 -16 22 -27 15 -94 144 -94 183 0 49 36 62 92 33 24 -13 36 -14 49 -5 12 7 110 10 299 10 257 -1 283 1 308 18 59 40 69 40 141 8z"/> <path d="M4460 7226 c-53 -17 -86 -45 -114 -100 -27 -52 -32 -76 -16 -76 5 0 35 11 66 25 65 29 74 30 129 11 130 -44 146 -48 207 -43 70 5 117 20 188 63 77 46 89 98 17 75 -71 -22 -117 -23 -170 -5 -28 10 -57 22 -64 27 -22 16 -117 37 -163 36 -25 -1 -61 -6 -80 -13z"/> <path d="M1008 4709 c-32 -21 -55 -47 -74 -84 l-29 -54 21 -36 c35 -61 125 -156 165 -174 45 -20 89 -71 89 -101 0 -13 7 -28 17 -35 11 -8 14 -18 8 -31 -4 -10 -8 -212 -9 -449 -1 -236 -5 -435 -9 -441 -4 -7 0 -34 8 -60 8 -27 15 -61 15 -76 0 -16 12 -41 29 -60 28 -32 33 -33 115 -37 90 -3 100 0 168 65 15 14 18 14 34 -11 26 -40 65 -55 145 -55 67 0 73 2 104 33 58 58 66 107 64 388 l-1 246 26 51 c16 31 38 58 56 67 16 8 33 22 38 31 7 13 29 18 96 21 l87 4 59 -61 60 -60 0 -283 c0 -319 7 -366 61 -411 27 -23 40 -26 104 -26 108 0 144 25 160 113 6 29 10 33 31 29 13 -2 24 -8 24 -13 0 -5 11 -9 23 -9 13 0 32 -9 43 -21 10 -12 32 -28 49 -36 16 -9 39 -23 50 -33 12 -10 52 -21 104 -29 46 -6 90 -16 98 -23 20 -16 240 -19 278 -3 17 7 55 16 85 20 83 9 140 26 140 40 0 14 22 25 48 25 9 0 43 25 74 55 34 33 66 55 79 55 14 0 41 -19 70 -50 75 -77 144 -120 193 -120 23 0 50 -6 61 -14 28 -19 182 -27 196 -10 6 7 25 15 42 19 91 18 160 80 170 153 4 32 2 42 -9 42 -8 0 -14 4 -14 9 0 5 -19 28 -43 50 -31 30 -50 41 -74 41 -18 0 -44 5 -58 12 -22 10 -32 9 -62 -7 l-36 -20 -15 23 c-8 12 -20 22 -26 22 -7 0 -22 14 -35 31 -31 41 -19 69 61 138 60 51 64 53 106 47 25 -3 62 -6 83 -6 28 0 39 -4 39 -15 0 -8 16 -19 39 -25 39 -10 59 -29 105 -101 22 -33 22 -38 8 -52 -17 -18 -19 -74 -3 -90 16 -16 13 -47 -4 -53 -22 -9 -20 -71 4 -83 10 -6 24 -24 31 -41 20 -48 66 -70 146 -70 63 0 74 3 123 36 53 36 54 36 70 17 39 -49 59 -54 245 -57 112 -2 181 -7 189 -15 8 -6 36 -14 63 -17 27 -4 55 -11 62 -17 7 -5 27 -17 45 -27 19 -10 36 -29 41 -46 16 -52 44 -99 65 -109 23 -11 34 -36 33 -77 0 -20 6 -29 29 -38 43 -18 54 -44 26 -63 -20 -15 -14 -16 91 -16 106 -1 113 0 107 18 -8 28 3 49 34 59 27 9 29 14 32 79 6 118 0 222 -15 251 -8 15 -28 40 -45 56 -35 34 -41 66 -12 66 12 0 21 8 23 22 6 43 27 31 34 -20 7 -58 9 -62 51 -84 22 -13 54 -18 110 -18 70 0 81 3 106 25 59 56 61 65 68 375 3 157 9 296 14 310 11 34 31 56 85 93 39 26 55 31 120 33 87 3 104 -5 151 -71 l33 -46 -3 -266 c-2 -233 -1 -265 12 -255 12 11 15 2 21 -60 7 -64 11 -75 42 -106 34 -34 35 -34 113 -31 73 4 83 7 111 34 17 17 37 41 44 55 10 20 18 24 46 22 19 -1 37 -7 40 -12 10 -16 121 -81 164 -96 21 -8 51 -14 66 -14 15 0 34 -7 41 -16 11 -14 31 -15 134 -10 137 6 149 8 188 24 16 7 42 12 58 12 80 0 222 101 272 194 32 59 33 66 36 187 2 104 0 128 -13 138 -9 8 -16 21 -16 30 0 9 -18 35 -41 56 -37 36 -75 93 -67 99 2 2 24 13 50 25 61 29 75 65 56 148 -11 50 -21 66 -74 118 -86 85 -142 125 -174 125 -16 0 -30 5 -32 12 -6 16 -134 33 -253 32 -82 0 -117 -6 -187 -28 -47 -15 -94 -36 -104 -47 -9 -10 -25 -19 -35 -19 -10 0 -24 -9 -32 -20 -8 -11 -33 -41 -56 -65 -56 -60 -84 -60 -140 -3 -22 24 -41 46 -41 49 0 4 -20 20 -45 36 -25 15 -45 31 -45 34 0 10 -76 39 -140 55 -95 23 -336 12 -365 -17 -13 -13 -90 -11 -158 5 -65 16 -113 8 -142 -24 -25 -28 -97 -28 -124 1 -25 27 -81 39 -128 28 -47 -10 -98 -63 -112 -116 -6 -21 -11 -164 -12 -321 -1 -196 -5 -287 -13 -295 -6 -7 -26 -31 -44 -54 -40 -52 -78 -65 -169 -59 -87 6 -128 29 -175 99 l-36 52 -2 260 c0 143 -6 280 -11 305 -11 50 -34 90 -51 90 -6 0 -20 8 -30 17 -14 12 -37 17 -78 18 -53 0 -61 -3 -107 -42 l-49 -41 -59 59 c-91 91 -151 109 -230 69 -33 -17 -59 -20 -165 -20 -135 0 -316 -22 -333 -39 -6 -6 -21 -11 -34 -11 -12 0 -30 -8 -40 -19 -10 -10 -32 -26 -49 -34 -39 -20 -132 -112 -159 -157 -25 -43 -41 -48 -49 -15 -4 14 -11 25 -16 25 -6 0 -10 12 -10 26 0 54 -25 109 -70 156 -41 42 -51 48 -89 48 -44 0 -105 -26 -133 -56 -9 -11 -26 -47 -37 -82 -20 -58 -21 -82 -19 -300 2 -280 -4 -336 -40 -369 -14 -12 -31 -23 -39 -23 -8 0 -32 -9 -55 -20 -31 -15 -45 -17 -55 -8 -8 6 -34 9 -68 5 -37 -4 -57 -2 -64 7 -6 7 -29 21 -51 31 -34 16 -40 22 -40 50 0 23 8 37 30 53 16 12 34 22 41 22 6 0 25 10 41 22 25 17 34 19 49 10 11 -7 20 -8 24 -2 3 5 25 18 48 29 77 36 88 52 90 128 2 76 -16 113 -74 147 l-30 18 49 48 c42 42 50 55 56 100 6 42 3 60 -14 92 -37 72 -71 92 -183 109 -54 9 -88 8 -146 -2 -75 -12 -181 -53 -181 -69 0 -4 -13 -13 -30 -20 -16 -7 -30 -16 -30 -21 0 -5 -16 -25 -35 -46 -19 -21 -41 -47 -48 -57 -19 -26 -62 -14 -81 22 -17 31 -68 81 -111 108 -16 10 -36 24 -43 31 -7 7 -20 13 -28 13 -8 0 -25 7 -37 15 -60 39 -324 45 -404 9 -54 -25 -109 -26 -174 -4 -41 14 -64 17 -85 10 -93 -29 -109 -30 -121 -13 -18 23 -16 63 2 63 17 0 45 49 45 79 0 11 7 24 15 28 11 6 16 29 18 78 2 64 -1 74 -28 110 -37 51 -79 93 -130 130 -47 35 -96 38 -192 11 l-62 -18 -55 26 c-71 34 -100 33 -158 -5z m147 -94 c64 -60 95 -78 95 -57 0 5 27 28 60 52 33 24 60 47 60 52 0 22 29 -1 120 -94 55 -56 100 -103 100 -104 0 -1 -21 -24 -47 -52 -104 -109 -104 -113 -102 -748 l1 -529 -83 0 -84 0 0 555 0 555 24 48 c13 27 41 66 63 87 44 42 48 77 11 91 -18 6 -31 -2 -78 -47 -61 -58 -75 -63 -96 -38 -20 25 -166 134 -178 134 -6 0 -11 4 -11 9 0 5 -9 13 -20 16 -11 3 -20 15 -20 25 0 19 87 110 105 110 6 0 42 -29 80 -65z m3544 -409 c7 -8 32 -24 57 -35 49 -23 55 -42 22 -69 -11 -9 -34 -29 -51 -43 l-30 -25 47 -48 c25 -26 46 -53 47 -59 0 -7 1 -187 2 -402 l1 -390 -75 -3 c-53 -2 -79 1 -85 10 -5 8 -7 92 -4 198 6 167 4 188 -12 217 -10 17 -24 34 -31 37 -6 3 -25 15 -42 26 -16 11 -37 22 -45 26 -8 3 -28 13 -45 22 -23 12 -58 16 -160 16 -117 -1 -134 -3 -175 -25 -25 -13 -66 -44 -91 -70 -39 -40 -47 -56 -53 -99 -10 -73 2 -120 38 -158 35 -38 105 -72 146 -72 27 0 136 36 153 50 5 4 31 -15 59 -43 45 -45 49 -52 39 -73 -6 -13 -16 -24 -23 -24 -7 0 -25 -6 -39 -14 -14 -7 -62 -19 -107 -26 -159 -26 -301 23 -375 129 -51 73 -67 117 -67 184 0 113 56 217 155 292 106 80 236 109 417 95 91 -8 131 -20 196 -62 66 -43 72 -39 72 40 0 66 -2 70 -37 105 -20 20 -42 37 -48 37 -7 0 -18 7 -25 15 -7 8 -23 15 -35 15 -12 0 -39 7 -58 15 -48 20 -117 19 -202 -4 -92 -25 -126 -43 -168 -90 -35 -39 -37 -39 -126 -46 -89 -7 -91 -7 -91 14 0 20 94 151 109 151 3 0 17 10 31 23 34 30 136 79 185 88 22 3 72 12 112 19 62 11 82 11 140 -3 145 -34 136 -35 180 21 39 52 70 65 92 38z m-2493 -61 c72 -14 123 -32 164 -56 8 -5 22 -12 30 -16 29 -13 97 -91 118 -134 20 -42 21 -63 23 -424 l3 -380 -79 -3 c-44 -1 -85 1 -91 5 -8 6 -9 33 -3 93 13 138 11 547 -3 608 -11 45 -21 62 -59 96 -51 45 -131 76 -196 76 -86 0 -209 -50 -279 -113 l-46 -42 -2 -360 -1 -360 -88 -3 -87 -3 2 503 3 503 79 -2 c44 -1 83 -6 88 -11 4 -4 4 -22 -2 -40 -13 -47 10 -52 59 -13 21 17 45 31 53 31 8 0 19 5 25 11 12 12 144 46 184 48 15 1 62 -6 105 -14z m4429 -3 c44 -10 90 -23 102 -30 12 -7 28 -12 36 -12 24 0 134 -108 155 -153 30 -63 31 -82 33 -462 l2 -350 -78 -3 c-43 -2 -82 1 -87 6 -5 5 -8 143 -7 313 3 381 3 367 -20 421 -36 85 -152 145 -259 135 -69 -7 -147 -28 -164 -45 -7 -7 -19 -12 -27 -12 -15 -1 -91 -64 -91 -76 0 -3 -7 -12 -15 -21 -14 -13 -16 -61 -15 -357 1 -187 1 -347 0 -354 0 -10 -21 -12 -87 -10 l-88 3 0 497 c0 323 4 499 10 501 6 2 44 3 85 2 l75 -1 1 -44 c1 -46 18 -64 38 -39 36 45 201 105 291 107 17 1 66 -7 110 -16z m-3470 -5 l70 -12 3 -73 c3 -84 -2 -89 -69 -71 -120 31 -231 18 -275 -34 -29 -35 -30 -51 -4 -85 38 -47 92 -63 215 -62 60 1 116 1 123 1 10 -1 12 -21 10 -78 l-3 -78 -88 4 c-64 2 -99 -1 -125 -12 -20 -8 -44 -18 -52 -22 -57 -23 -89 -58 -111 -117 -30 -84 46 -182 161 -209 19 -4 53 -12 75 -18 56 -15 153 -13 200 4 22 8 51 15 65 15 14 0 34 7 44 15 11 8 28 15 38 15 38 0 40 28 37 429 l-4 386 90 0 90 0 -1 -27 c0 -16 -1 -210 -2 -432 l-2 -403 -42 -29 c-24 -16 -45 -31 -48 -34 -13 -13 -73 -40 -89 -40 -9 0 -25 -6 -36 -14 -11 -7 -40 -16 -65 -19 -25 -3 -74 -11 -108 -17 -35 -6 -80 -9 -100 -6 -106 12 -200 30 -224 42 -14 8 -35 14 -46 14 -11 0 -25 7 -32 15 -7 8 -18 15 -24 15 -18 0 -93 75 -123 123 -23 36 -26 53 -27 127 -1 75 2 90 26 125 30 47 92 105 113 105 21 0 37 34 23 48 -7 7 -19 12 -26 12 -8 0 -34 16 -57 35 -55 44 -74 108 -53 176 16 54 32 76 83 115 54 41 89 56 160 70 80 15 126 15 210 1z m4463 1 c53 -6 106 -17 117 -25 11 -7 29 -13 41 -13 12 0 27 -7 34 -15 7 -8 18 -15 26 -15 20 0 107 -90 138 -143 40 -69 33 -77 -68 -77 -76 0 -85 2 -99 23 -8 12 -25 33 -38 47 -101 106 -377 104 -481 -3 -37 -37 -36 -108 0 -121 10 -3 24 -10 32 -15 31 -18 119 -35 225 -41 120 -8 215 -25 257 -46 14 -8 31 -14 37 -14 19 0 105 -67 131 -102 23 -30 25 -42 25 -128 0 -86 -3 -99 -27 -135 -60 -91 -153 -154 -272 -182 -192 -45 -372 -14 -514 89 -31 23 -87 97 -97 128 -4 14 -11 30 -15 35 -5 6 -9 26 -10 45 -4 75 -9 71 88 68 l87 -3 3 -53 c3 -48 7 -56 53 -102 27 -28 58 -50 68 -50 10 0 35 -7 54 -15 23 -9 68 -15 122 -15 54 0 99 6 122 15 19 8 44 15 54 15 10 0 43 25 74 55 61 62 70 97 36 148 -19 30 -79 67 -108 67 -10 0 -36 7 -58 15 -22 8 -71 14 -109 15 -37 0 -107 7 -155 16 -143 27 -218 61 -267 120 -32 38 -34 46 -34 112 0 48 6 81 18 103 19 37 111 129 127 129 6 0 16 5 23 12 18 18 81 39 162 53 99 17 88 17 198 3z m-2498 -7 c3 0 4 -151 2 -333 -4 -366 -2 -377 56 -434 56 -55 185 -104 272 -104 31 0 79 8 108 18 51 18 122 70 122 90 0 5 7 15 15 22 12 10 15 69 17 379 l3 366 85 0 85 0 3 -355 c2 -315 0 -360 -15 -405 -37 -105 -79 -154 -176 -202 -124 -61 -240 -76 -357 -44 -81 22 -115 37 -161 73 -55 42 -69 38 -66 -19 l2 -48 -79 0 -79 0 -2 495 c-1 272 0 498 1 501 3 5 146 5 164 0z m2510 -302 c0 -14 -7 -19 -30 -19 -35 0 -36 3 -12 35 19 26 42 17 42 -16z m-3819 -1 c31 -34 36 -52 18 -63 -5 -4 -14 -18 -19 -31 -12 -30 -33 -31 -60 -2 -24 26 -26 70 -4 103 21 32 29 31 65 -7z m3534 -298 c-3 -5 -13 -10 -21 -10 -8 0 -12 5 -9 10 3 6 13 10 21 10 8 0 12 -4 9 -10z m217 -39 c97 -8 128 -20 128 -49 0 -20 -39 -62 -58 -62 -8 0 -29 -7 -48 -16 -28 -14 -39 -14 -63 -4 -17 6 -35 9 -41 5 -6 -4 -21 0 -33 8 -12 7 -33 17 -47 20 -38 10 -76 88 -53 111 4 4 33 5 63 1 30 -3 99 -10 152 -14z m-1670 -583 c2 -79 1 -151 -1 -160 -3 -15 -15 -18 -80 -18 -104 0 -107 3 -94 87 13 84 6 95 -56 91 l-46 -3 -3 59 c-2 32 -1 65 2 72 4 11 36 14 140 14 l135 0 3 -142z"/> <path d="M3352 4039 c1 -13 8 -23 13 -21 15 3 12 35 -3 40 -9 3 -13 -3 -10 -19z"/> <path d="M3347 3750 c-22 -26 -22 -40 2 -40 16 0 30 24 31 53 0 13 -15 7 -33 -13z"/> <path d="M1170 2501 c-39 -5 -42 -7 -20 -13 14 -4 37 -8 52 -8 66 0 25 -35 -55 -46 -66 -9 -114 -33 -127 -64 -6 -16 -25 -40 -41 -54 -16 -14 -29 -32 -29 -40 0 -8 -4 -16 -8 -18 -5 -1 -21 -34 -37 -73 -25 -65 -27 -76 -21 -160 4 -56 14 -103 25 -125 10 -19 26 -50 35 -68 22 -41 103 -122 142 -142 16 -8 40 -23 54 -32 14 -10 57 -22 95 -27 39 -5 88 -14 110 -21 31 -9 54 -9 95 -1 30 7 93 16 138 21 92 11 102 14 102 35 0 8 17 19 38 24 25 7 58 32 102 76 35 36 71 65 80 65 8 0 33 -21 55 -46 51 -60 112 -104 142 -104 16 0 23 -6 23 -19 0 -16 42 -71 55 -71 3 0 5 7 5 15 0 18 -10 17 165 19 121 1 142 -1 158 -16 23 -24 32 -23 51 6 8 14 25 27 36 31 11 3 20 12 20 19 0 11 92 56 114 56 4 0 16 -11 27 -24 10 -13 31 -29 47 -35 27 -11 29 -15 21 -44 -18 -72 -21 -77 -45 -77 -14 0 -42 -11 -64 -25 -49 -31 -61 -31 -90 0 -13 14 -34 25 -47 25 -14 0 -33 5 -43 10 -20 11 -70 -5 -70 -22 0 -5 -16 -24 -35 -44 -19 -19 -35 -39 -35 -44 0 -6 -4 -10 -9 -10 -17 0 -116 72 -148 107 -30 33 -34 35 -64 24 -18 -6 -54 -11 -81 -11 -29 0 -62 -7 -79 -17 l-30 -18 -48 51 c-53 58 -92 72 -146 54 -28 -9 -41 -23 -62 -63 -26 -51 -26 -55 -26 -259 1 -192 2 -211 24 -262 17 -43 29 -58 52 -66 54 -19 101 -12 145 20 23 17 45 30 48 30 4 0 22 -14 42 -31 32 -28 40 -31 88 -27 61 5 90 25 99 70 4 16 13 32 21 35 25 9 89 -20 135 -63 79 -72 156 -79 272 -24 l58 27 35 -23 c19 -13 41 -24 49 -24 8 0 16 -4 20 -10 3 -5 12 -7 20 -4 7 3 24 0 37 -7 27 -14 233 -14 288 1 19 5 57 25 84 45 60 42 91 44 142 6 22 -15 53 -31 69 -34 17 -3 53 -11 80 -17 125 -27 290 0 377 62 44 31 67 29 105 -10 26 -26 39 -32 75 -32 66 0 84 8 104 48 15 27 29 39 54 45 19 4 45 11 57 14 18 4 42 -10 105 -62 66 -54 86 -65 102 -58 12 4 75 8 141 8 112 1 124 2 180 30 51 25 72 30 135 30 62 0 85 -5 132 -29 51 -25 64 -27 125 -22 85 7 94 7 170 0 60 -5 64 -4 93 24 20 21 30 40 30 61 0 39 15 47 48 25 15 -10 44 -27 65 -37 20 -11 37 -23 37 -27 0 -19 66 -54 114 -62 82 -13 169 26 188 84 6 17 101 -18 128 -47 13 -13 37 -29 54 -34 56 -17 186 -21 284 -9 91 11 99 13 139 50 24 21 47 38 53 38 6 0 28 -14 48 -31 65 -55 100 -63 290 -66 143 -3 176 -1 194 12 13 8 35 15 51 15 40 0 87 51 87 94 -1 54 -44 105 -101 119 -25 6 -26 10 -22 51 3 26 1 46 -6 50 -20 12 -12 36 12 36 15 0 35 17 65 58 23 31 42 64 42 73 0 32 -44 83 -78 90 -18 4 -41 13 -50 22 -13 11 -55 16 -179 19 -218 7 -233 20 -137 111 51 48 55 56 45 75 -10 18 -7 26 17 53 16 18 38 34 48 35 63 9 163 38 198 57 34 18 42 29 47 61 3 21 15 46 26 55 11 9 23 28 27 42 6 27 34 46 46 32 20 -21 29 -88 27 -185 -1 -74 2 -111 11 -120 6 -6 12 -23 12 -35 0 -41 29 -82 73 -105 41 -22 51 -23 297 -22 234 1 259 2 300 21 69 31 84 53 82 121 -1 48 -5 61 -27 79 -25 22 -83 43 -117 43 -25 0 -22 17 3 23 22 6 22 6 -5 37 -31 38 -32 50 -6 80 11 13 20 33 20 46 0 18 12 28 54 47 61 28 70 41 80 111 7 42 5 51 -16 73 -13 14 -41 35 -63 46 -38 21 -53 22 -300 22 l-260 0 -53 -29 c-52 -29 -54 -29 -82 -12 -67 39 -117 46 -348 46 l-224 0 -68 -40 c-38 -22 -71 -40 -74 -40 -3 0 -27 14 -53 31 -63 40 -115 35 -178 -16 -52 -43 -54 -53 -56 -247 -1 -133 -3 -151 -21 -174 -16 -19 -26 -24 -42 -18 -11 4 -99 9 -194 13 -169 6 -174 7 -193 31 -37 46 -42 74 -46 240 -2 91 -5 177 -6 191 -4 53 -71 99 -142 99 -37 0 -108 -30 -122 -52 -9 -15 -8 -10 -15 -313 -6 -296 4 -365 59 -412 39 -33 94 -50 183 -55 64 -4 65 -29 3 -93 -27 -28 -56 -61 -64 -75 l-16 -25 -39 20 c-21 11 -52 32 -69 46 -58 52 -111 72 -170 66 -55 -6 -67 -11 -123 -59 -26 -21 -33 -37 -41 -89 -16 -100 -30 -102 -87 -11 -20 31 -70 90 -112 130 -84 82 -84 90 -1 103 63 10 111 42 135 89 16 30 19 67 22 259 2 123 1 239 -3 257 -7 39 -46 89 -85 109 -22 11 -40 13 -76 6 -63 -12 -110 -60 -119 -123 -4 -24 -15 -54 -25 -68 l-18 -24 -33 28 c-18 15 -50 49 -72 76 -21 26 -61 62 -88 80 -27 17 -49 35 -49 39 0 5 -29 11 -65 15 -58 6 -70 4 -113 -20 -63 -34 -87 -59 -89 -92 0 -15 -8 -52 -17 -82 -12 -40 -14 -66 -8 -97 7 -32 6 -43 -4 -47 -8 -3 -14 -15 -14 -26 0 -11 -6 -20 -14 -20 -18 0 -96 115 -96 141 0 10 -13 33 -28 51 -15 18 -40 52 -54 74 -15 23 -46 57 -70 76 -38 30 -50 35 -102 36 -41 0 -72 -6 -100 -20 -45 -22 -116 -86 -116 -103 0 -6 -20 -42 -45 -80 -25 -39 -45 -73 -45 -77 0 -4 -20 -41 -45 -81 -25 -41 -45 -78 -45 -82 0 -4 -14 -25 -31 -46 l-31 -40 -37 22 c-20 12 -55 24 -79 28 l-44 6 -4 60 c-3 40 1 70 11 91 8 18 12 39 9 47 -4 12 5 19 35 27 32 8 46 20 66 54 36 62 33 101 -11 142 -19 19 -43 34 -53 34 -9 0 -26 7 -37 15 -15 12 -62 14 -246 15 -244 0 -264 -3 -331 -57 -16 -13 -39 -26 -51 -29 -25 -6 -145 43 -173 71 -12 13 -26 15 -56 11 -33 -6 -39 -4 -44 14 -5 18 -13 20 -93 20 -75 0 -89 -3 -106 -21 -12 -13 -25 -18 -41 -15 -27 7 -157 -59 -225 -115 -26 -22 -52 -39 -59 -39 -13 0 -59 46 -59 59 0 5 -11 16 -25 25 -13 9 -36 36 -50 60 -26 44 -51 60 -115 70 -62 10 -131 32 -124 39 4 4 28 7 53 7 70 0 82 16 19 23 -64 8 -395 6 -458 -2z m374 -98 c145 -47 234 -116 276 -213 6 -14 15 -34 21 -46 14 -27 6 -167 -12 -218 -13 -38 -117 -155 -149 -169 -8 -4 -22 -11 -30 -15 -76 -44 -91 -47 -244 -47 -150 0 -151 1 -215 33 -86 44 -133 83 -174 145 -58 89 -65 227 -17 332 18 39 138 155 160 155 10 0 23 7 30 15 7 8 24 15 39 15 14 1 40 7 56 15 44 20 195 19 259 -2z m4177 -15 c2 -7 2 -134 -1 -282 -3 -173 -1 -273 5 -280 7 -8 83 -9 250 -6 132 3 248 1 258 -3 12 -6 17 -19 17 -50 0 -23 -4 -48 -8 -55 -7 -9 -79 -12 -326 -10 l-317 3 0 340 c0 187 0 343 0 348 1 13 119 8 122 -5z m-3166 -119 c160 -85 187 -137 78 -155 -36 -5 -46 -3 -80 24 -21 17 -58 38 -83 46 -50 17 -166 21 -202 7 -13 -5 -34 -12 -48 -15 -58 -12 -130 -106 -130 -170 0 -173 261 -266 443 -159 20 12 37 27 37 33 0 18 61 11 96 -11 41 -25 43 -40 8 -65 -14 -10 -31 -24 -38 -30 -6 -5 -18 -13 -26 -17 -8 -4 -22 -11 -30 -16 -62 -37 -107 -46 -230 -45 -120 1 -128 2 -189 33 -73 36 -156 113 -166 154 -4 15 -11 30 -16 33 -18 11 -10 149 11 197 22 49 131 157 159 157 9 0 26 6 37 14 28 20 73 25 199 21 101 -4 115 -7 170 -36z m2526 31 l39 0 0 -300 0 -300 -89 0 -90 0 -44 58 c-25 31 -53 67 -63 78 -11 12 -42 50 -71 85 -28 35 -70 87 -92 114 -23 28 -55 71 -72 98 -31 48 -44 57 -51 35 -2 -7 -1 -110 2 -228 3 -118 4 -221 2 -227 -3 -9 -25 -13 -63 -13 -40 0 -59 4 -59 13 -1 25 -1 562 0 575 0 8 24 12 85 12 92 0 97 -2 145 -70 25 -36 42 -57 95 -119 17 -20 46 -56 65 -81 19 -25 44 -55 56 -68 13 -13 40 -50 61 -83 65 -100 67 -93 60 180 -7 246 -5 257 31 245 8 -2 31 -4 53 -4z m1418 1 c11 -7 13 -64 12 -297 0 -159 0 -293 -1 -297 0 -4 -28 -7 -61 -5 l-62 3 0 295 0 295 44 6 c24 3 46 7 49 7 3 1 11 -2 19 -7z m-3081 -62 c2 -40 -1 -58 -10 -60 -7 -2 -114 -2 -238 1 -124 3 -231 3 -238 1 -9 -2 -12 -20 -10 -60 l3 -56 170 0 170 0 3 -45 c1 -25 -1 -50 -5 -56 -6 -9 -51 -10 -163 -5 -95 5 -160 4 -167 -2 -8 -6 -13 -34 -13 -74 l0 -64 258 2 257 2 3 -62 3 -61 -317 2 -317 3 -1 298 -1 297 305 -2 305 -3 3 -56z m633 -14 c20 -38 49 -92 64 -120 14 -27 41 -77 60 -110 19 -33 37 -67 40 -75 4 -8 11 -22 16 -30 5 -8 14 -24 19 -35 6 -11 19 -33 30 -50 39 -59 53 -97 38 -107 -7 -4 -22 -6 -33 -3 -11 2 -36 5 -55 5 -33 0 -37 4 -60 56 -13 30 -30 60 -37 65 -10 9 -382 15 -387 7 -1 -2 -10 -15 -19 -30 -9 -15 -17 -33 -17 -40 -1 -34 -36 -56 -96 -59 -54 -4 -59 -2 -62 17 -2 12 12 43 30 70 38 56 67 106 105 184 15 30 30 57 34 60 3 3 12 17 20 32 8 15 39 75 69 133 l54 106 75 -3 74 -3 38 -70z m3229 15 l0 -60 -252 -2 -253 -3 -1 -40 c-2 -82 -13 -78 180 -74 l171 4 3 -49 c2 -27 0 -52 -5 -57 -4 -4 -76 -4 -159 -1 -83 4 -159 5 -169 4 -16 -4 -17 -14 -11 -133 l7 -130 -67 3 -67 3 2 285 c0 157 1 291 1 298 0 9 69 12 310 12 l310 0 0 -60z m743 8 c3 -29 1 -57 -3 -61 -4 -5 -123 -8 -264 -8 l-257 2 3 -58 3 -58 173 2 c94 1 172 -1 173 -5 6 -41 4 -85 -5 -96 -9 -11 -41 -12 -166 -7 -85 4 -161 5 -167 3 -9 -3 -13 -27 -13 -74 l0 -69 254 2 c140 1 259 -1 264 -5 9 -5 10 -41 3 -104 -1 -10 -68 -12 -318 -10 l-318 3 2 295 c1 162 2 296 3 298 0 1 141 2 314 2 l313 0 6 -52z m-5588 -152 c59 -22 122 -52 138 -65 15 -12 19 -12 36 3 12 11 31 16 53 14 38 -4 48 -30 27 -79 -12 -29 -13 -30 -69 -23 -63 7 -153 -10 -182 -34 -9 -7 -43 -16 -75 -19 l-59 -5 -53 49 c-46 43 -51 53 -46 76 4 15 17 33 29 39 11 6 27 19 34 29 17 25 117 34 167 15z m2276 -256 c10 -6 25 -23 33 -38 15 -30 40 -55 131 -132 78 -67 84 -78 55 -102 -12 -10 -31 -18 -42 -18 -30 0 -116 -77 -134 -119 -15 -37 -51 -81 -66 -81 -14 0 -47 39 -53 63 -7 27 -97 127 -114 127 -6 0 -17 14 -26 30 -18 34 -22 36 -53 15 -25 -18 -84 -12 -102 10 -8 10 -20 11 -46 3 -41 -11 -52 -5 -35 16 7 8 10 19 7 24 -3 5 23 17 56 27 62 18 62 18 99 -3 41 -24 89 -28 121 -11 37 20 77 74 89 122 7 26 16 47 21 47 4 0 8 7 8 15 0 17 23 20 51 5z m-607 -139 c85 -46 100 -57 83 -64 -8 -3 -17 -19 -20 -36 -6 -28 -10 -31 -43 -31 -33 0 -93 -24 -150 -60 -19 -11 -25 -10 -52 8 -21 15 -45 22 -79 22 -67 0 -95 -17 -111 -68 -8 -23 -20 -42 -28 -42 -10 0 -14 -16 -15 -65 -3 -126 -3 -126 -34 -151 -37 -29 -39 -29 -82 -3 -41 26 -64 76 -56 124 6 36 -10 109 -33 156 -7 15 -29 36 -48 47 -30 18 -39 19 -70 8 -19 -7 -43 -19 -53 -28 -46 -40 -60 -41 -118 -6 -44 27 -53 37 -48 53 3 11 10 22 14 23 5 2 9 10 9 18 0 13 63 20 145 17 30 -2 114 24 152 47 l34 20 28 -21 c22 -16 45 -21 97 -23 64 -1 73 2 126 37 67 45 117 57 218 53 61 -3 86 -10 134 -35z m2272 -32 c47 -25 67 -30 102 -26 24 3 51 12 60 20 30 28 65 30 95 7 15 -12 43 -24 62 -27 45 -7 50 -16 29 -50 -26 -42 -106 -123 -122 -123 -7 0 -31 18 -52 40 -21 22 -43 40 -48 40 -5 0 -15 6 -21 14 -34 41 -131 56 -131 20 0 -9 -11 -14 -32 -14 -30 0 -31 1 -12 16 18 14 15 15 -35 9 -47 -5 -53 -4 -47 11 4 10 -1 22 -11 30 -17 12 -16 13 5 14 13 0 40 11 60 25 20 14 37 25 38 25 1 0 28 -14 60 -31z m-243 -47 c23 -2 26 -5 18 -19 -5 -10 -12 -26 -15 -36 -3 -10 -12 -17 -20 -15 -8 2 -30 -13 -48 -33 -26 -29 -43 -37 -83 -43 -41 -5 -52 -3 -62 11 -7 10 -22 27 -33 39 -12 12 -25 37 -30 57 -7 34 -6 36 19 39 26 3 202 3 254 0z m-4253 -57 c5 -163 -1 -550 -8 -557 -5 -5 -27 -8 -48 -6 l-39 3 -3 275 c-1 151 0 280 3 287 7 19 95 17 95 -2z m703 -77 c14 -11 15 -23 8 -78 -4 -36 -7 -140 -5 -232 l2 -168 -72 0 -73 0 -49 62 c-27 34 -73 91 -102 127 -28 36 -67 88 -86 114 -19 27 -44 56 -56 64 l-23 16 7 -99 c3 -54 9 -140 12 -190 l6 -92 -31 -7 c-17 -4 -44 -4 -61 0 l-30 7 0 239 0 239 74 0 74 0 54 -66 c29 -37 64 -81 78 -99 14 -17 33 -39 42 -49 9 -9 38 -48 64 -87 26 -38 52 -68 58 -66 8 3 10 58 7 179 -2 97 0 181 3 187 10 15 78 14 99 -1z m845 3 c11 -6 14 -45 13 -172 -1 -90 2 -169 6 -175 26 -36 58 -44 168 -44 166 1 175 14 165 230 -8 160 -5 170 51 170 60 0 59 3 59 -182 0 -215 -8 -235 -120 -290 -39 -19 -61 -23 -160 -23 -100 0 -121 4 -162 23 -26 13 -60 38 -76 57 l-29 33 -5 183 c-3 125 -1 186 6 191 15 10 68 10 84 -1z m2446 -233 c-1 -130 -4 -240 -7 -245 -3 -4 -34 -6 -70 -3 -65 5 -65 5 -108 60 -23 30 -45 57 -49 60 -3 3 -30 37 -60 75 -30 39 -60 76 -67 83 -7 8 -27 33 -44 58 -16 24 -35 44 -40 44 -7 0 -8 -63 -3 -189 6 -180 6 -189 -12 -194 -19 -6 -72 -2 -80 5 -2 3 -6 392 -4 466 0 8 21 12 73 11 l72 0 55 -71 c30 -38 86 -109 123 -157 37 -47 77 -101 88 -118 37 -58 42 -33 37 163 -3 101 -3 186 0 189 4 3 27 5 52 3 l45 -3 -1 -237z m561 222 c6 -4 21 -11 34 -15 29 -9 121 -74 121 -85 0 -16 -52 -50 -76 -50 -12 0 -30 8 -40 18 -44 45 -67 52 -162 52 -100 0 -135 -11 -182 -58 -21 -21 -25 -33 -25 -87 0 -70 11 -89 77 -131 73 -47 270 -25 292 32 9 23 49 16 85 -14 l34 -28 -49 -35 c-88 -63 -126 -74 -244 -73 -76 1 -113 6 -135 18 -16 9 -34 16 -38 16 -5 0 -28 19 -53 42 -109 102 -110 234 -2 334 51 46 87 65 148 75 51 8 200 1 215 -11z m760 -35 l0 -50 -198 4 -198 4 3 -49 3 -49 135 0 135 0 0 -45 0 -45 -137 4 -138 3 0 -62 0 -63 208 4 207 4 3 -47 c3 -42 1 -47 -20 -50 -13 -2 -130 -2 -260 0 l-237 3 0 239 0 240 227 3 c125 1 236 3 247 2 17 0 20 -7 20 -50z m-4050 22 c68 -26 79 -46 44 -83 -28 -29 -34 -30 -84 -3 -34 19 -57 22 -152 22 -120 1 -147 -8 -141 -47 4 -30 57 -45 156 -45 109 -1 204 -26 240 -64 23 -24 27 -37 27 -87 0 -69 -21 -98 -95 -133 -39 -19 -63 -21 -172 -21 -74 0 -137 5 -150 12 -13 6 -47 21 -75 33 -57 23 -62 35 -36 80 17 29 55 40 68 19 4 -6 24 -19 45 -30 32 -17 59 -20 153 -20 101 0 117 2 141 21 35 28 30 57 -14 80 -27 15 -56 19 -135 19 -180 0 -261 41 -259 131 2 49 27 86 80 115 34 19 56 22 169 23 114 1 138 -2 190 -22z m1335 7 c45 -23 67 -47 86 -94 15 -36 14 -43 0 -88 -13 -39 -25 -53 -56 -71 -22 -12 -42 -26 -45 -31 -3 -5 21 -42 55 -81 81 -97 79 -116 -8 -104 -46 6 -49 8 -102 88 -30 45 -59 85 -65 90 -5 4 -57 6 -115 5 l-105 -3 4 -84 c4 -92 -1 -101 -55 -101 -57 0 -65 15 -53 100 6 41 9 144 7 227 -3 84 -2 155 0 158 3 3 98 5 212 5 172 0 212 -3 240 -16z m576 -89 c28 -55 62 -120 75 -145 12 -25 44 -82 71 -128 28 -46 47 -89 44 -97 -9 -24 -81 -19 -106 7 -11 12 -20 27 -20 34 0 6 -8 22 -19 35 -18 23 -22 24 -161 24 -137 -1 -143 -2 -161 -24 -11 -13 -19 -29 -19 -35 0 -26 -44 -53 -85 -52 -53 1 -56 25 -13 91 18 28 44 71 58 95 43 80 89 164 112 210 48 92 47 91 112 88 l59 -3 53 -100z m1377 -103 c41 -36 -3 -79 -89 -88 -55 -6 -62 -4 -92 21 -18 15 -32 32 -32 39 0 19 31 43 60 49 43 7 134 -5 153 -21z m167 -22 c0 -15 -7 -20 -25 -20 -24 0 -34 18 -18 33 15 15 43 7 43 -13z"/> <path d="M1274 2285 c-10 -8 -25 -15 -33 -15 -21 0 -97 -66 -121 -105 -30 -49 -31 -180 -1 -228 71 -115 239 -166 407 -122 74 19 172 94 174 131 0 7 7 25 15 40 8 16 15 45 15 64 0 19 -7 48 -15 64 -8 15 -15 34 -15 41 0 23 -85 97 -139 121 -46 20 -69 24 -160 24 -79 0 -112 -4 -127 -15z m247 -103 c56 -29 98 -85 99 -132 0 -32 -32 -84 -65 -106 -14 -9 -25 -22 -25 -29 0 -8 -13 -14 -32 -14 -18 -1 -61 -3 -96 -7 -58 -5 -67 -3 -103 22 -49 34 -109 99 -109 119 0 8 12 40 26 71 22 49 32 59 77 79 76 35 158 34 228 -3z"/> <path d="M3907 2137 c-10 -23 -23 -49 -28 -57 -5 -8 -13 -24 -18 -35 -5 -11 -20 -37 -34 -57 -14 -20 -23 -39 -19 -42 3 -3 63 -6 134 -6 98 0 128 3 128 13 0 7 -5 18 -11 24 -14 14 -26 35 -74 131 -20 39 -42 72 -48 72 -7 0 -20 -20 -30 -43z"/> <path d="M4127 1393 c-12 -11 -8 -101 5 -109 7 -4 80 -7 163 -5 125 2 152 5 163 19 19 24 15 50 -13 77 -23 24 -29 25 -168 25 -79 0 -147 -3 -150 -7z"/> <path d="M4900 1333 c-13 -26 -29 -55 -36 -63 -16 -19 -29 -70 -18 -70 59 -3 186 -2 190 2 6 6 -10 44 -36 83 -11 17 -22 37 -26 45 -24 63 -46 64 -74 3z"/> <path d="M5624 2489 c35 -5 65 -5 75 1 11 6 -7 9 -59 8 l-75 0 59 -9z"/> <path d="M440 456 c0 -18 45 -20 175 -6 l70 7 -70 2 c-38 0 -94 4 -122 7 -45 6 -53 4 -53 -10z"/> <path d="M8395 461 l-70 -6 70 -7 c110 -12 145 -10 145 7 0 16 -13 17 -145 6z"/> <path d="M783 453 c9 -2 25 -2 35 0 9 3 1 5 -18 5 -19 0 -27 -2 -17 -5z"/> <path d="M988 453 c23 -2 59 -2 80 0 20 2 1 4 -43 4 -44 0 -61 -2 -37 -4z"/> <path d="M1203 453 c42 -2 112 -2 155 0 42 1 7 3 -78 3 -85 0 -120 -2 -77 -3z"/> <path d="M2973 453 c9 -2 25 -2 35 0 9 3 1 5 -18 5 -19 0 -27 -2 -17 -5z"/> <path d="M3123 453 c9 -2 25 -2 35 0 9 3 1 5 -18 5 -19 0 -27 -2 -17 -5z"/> <path d="M3273 453 c9 -2 25 -2 35 0 9 3 1 5 -18 5 -19 0 -27 -2 -17 -5z"/> <path d="M3423 453 c9 -2 25 -2 35 0 9 3 1 5 -18 5 -19 0 -27 -2 -17 -5z"/> <path d="M3573 453 c9 -2 25 -2 35 0 9 3 1 5 -18 5 -19 0 -27 -2 -17 -5z"/> <path d="M3723 453 c9 -2 25 -2 35 0 9 3 1 5 -18 5 -19 0 -27 -2 -17 -5z"/> <path d="M3888 453 c12 -2 32 -2 45 0 12 2 2 4 -23 4 -25 0 -35 -2 -22 -4z"/> <path d="M4053 453 c9 -2 25 -2 35 0 9 3 1 5 -18 5 -19 0 -27 -2 -17 -5z"/> <path d="M4213 453 c15 -2 37 -2 50 0 12 2 0 4 -28 4 -27 0 -38 -2 -22 -4z"/> <path d="M4363 453 c15 -2 37 -2 50 0 12 2 0 4 -28 4 -27 0 -38 -2 -22 -4z"/> <path d="M4513 453 c15 -2 37 -2 50 0 12 2 0 4 -28 4 -27 0 -38 -2 -22 -4z"/> <path d="M4653 453 c9 -2 25 -2 35 0 9 3 1 5 -18 5 -19 0 -27 -2 -17 -5z"/> <path d="M4773 453 c9 -2 25 -2 35 0 9 3 1 5 -18 5 -19 0 -27 -2 -17 -5z"/> <path d="M4923 453 c9 -2 25 -2 35 0 9 3 1 5 -18 5 -19 0 -27 -2 -17 -5z"/> <path d="M5088 453 c12 -2 32 -2 45 0 12 2 2 4 -23 4 -25 0 -35 -2 -22 -4z"/> <path d="M5253 453 c9 -2 25 -2 35 0 9 3 1 5 -18 5 -19 0 -27 -2 -17 -5z"/> <path d="M5403 453 c9 -2 25 -2 35 0 9 3 1 5 -18 5 -19 0 -27 -2 -17 -5z"/> <path d="M5523 453 c9 -2 25 -2 35 0 9 3 1 5 -18 5 -19 0 -27 -2 -17 -5z"/> <path d="M5703 453 c31 -2 83 -2 115 0 31 2 5 3 -58 3 -63 0 -89 -1 -57 -3z"/> <path d="M5988 453 c50 -2 134 -2 185 0 50 1 9 3 -93 3 -102 0 -143 -2 -92 -3z"/> <path d="M6328 453 c23 -2 59 -2 80 0 20 2 1 4 -43 4 -44 0 -61 -2 -37 -4z"/> <path d="M6538 453 c23 -2 59 -2 80 0 20 2 1 4 -43 4 -44 0 -61 -2 -37 -4z"/> <path d="M6802 453 c70 -2 187 -2 260 0 73 1 16 3 -127 3 -143 0 -203 -2 -133 -3z"/> <path d="M7263 453 c9 -2 25 -2 35 0 9 3 1 5 -18 5 -19 0 -27 -2 -17 -5z"/> <path d="M7388 453 c12 -2 32 -2 45 0 12 2 2 4 -23 4 -25 0 -35 -2 -22 -4z"/> <path d="M7563 453 c9 -2 25 -2 35 0 9 3 1 5 -18 5 -19 0 -27 -2 -17 -5z"/> <path d="M8018 453 c12 -2 30 -2 40 0 9 3 -1 5 -23 4 -22 0 -30 -2 -17 -4z"/> <path d="M8173 453 c15 -2 37 -2 50 0 12 2 0 4 -28 4 -27 0 -38 -2 -22 -4z"/> </g> </svg> 