 <svg  version="1.0" xmlns="http://www.w3.org/2000/svg"  width="900.000000pt" height="270.000000pt" viewBox="0 0 900.000000 270.000000"  preserveAspectRatio="xMidYMid meet">  <g transform="translate(0.000000,270.000000) scale(0.100000,-0.100000)" fill="#ffffff" stroke="none"> <path d="M550 2686 c0 -16 -55 -76 -94 -101 -29 -19 -34 -43 -11 -51 16 -6 21 -54 6 -54 -5 0 -11 -11 -15 -23 -3 -13 -48 -68 -99 -123 -52 -54 -113 -121 -136 -149 -24 -27 -53 -62 -66 -77 -12 -15 -25 -33 -29 -40 -3 -7 -15 -26 -26 -43 -11 -16 -22 -37 -26 -45 -3 -8 -11 -24 -17 -35 -27 -48 -37 -202 -20 -305 8 -49 15 -68 45 -120 4 -8 11 -22 15 -30 27 -60 205 -244 265 -274 7 -3 27 -15 43 -26 17 -11 40 -24 52 -29 11 -5 24 -15 28 -20 3 -6 15 -11 25 -11 10 0 25 -7 34 -15 8 -8 23 -15 33 -15 10 0 27 -6 38 -14 11 -7 41 -16 67 -20 26 -4 50 -11 53 -17 4 -5 24 -9 46 -9 28 0 39 4 39 15 0 8 -7 15 -16 15 -8 0 -32 9 -52 20 -20 11 -80 40 -132 65 -52 25 -108 55 -125 65 -16 11 -37 23 -45 27 -74 34 -259 214 -286 280 -8 17 -18 34 -24 38 -5 3 -10 17 -10 29 0 13 -7 29 -15 36 -22 18 -22 252 0 270 8 7 15 23 15 35 0 12 6 28 14 34 8 7 17 23 20 36 4 14 11 25 16 25 6 0 10 5 10 11 0 13 58 90 108 144 21 22 62 69 92 105 30 35 65 76 78 90 12 13 22 30 22 37 0 6 8 19 18 29 11 12 17 33 17 67 0 31 5 52 13 55 6 2 12 10 12 18 0 8 10 28 22 44 l22 30 20 -22 c34 -36 47 -87 35 -128 -24 -76 -47 -109 -155 -220 -120 -123 -154 -162 -154 -179 0 -5 -6 -14 -12 -18 -7 -4 -22 -26 -33 -47 -27 -54 -29 -224 -2 -253 9 -11 17 -27 17 -35 0 -9 33 -52 74 -95 136 -144 302 -193 521 -154 39 7 82 19 97 27 14 8 33 14 41 14 14 0 52 16 97 42 8 4 22 11 30 14 8 3 42 19 75 34 95 45 132 60 147 60 7 0 22 7 32 15 28 21 204 21 232 0 10 -8 25 -15 32 -15 8 0 28 -6 45 -14 18 -7 51 -19 73 -25 58 -16 73 -36 37 -49 -15 -6 -38 -19 -51 -30 -20 -16 -21 -20 -9 -30 15 -13 47 -6 47 9 0 5 8 9 18 9 9 0 34 9 55 20 27 15 56 20 108 20 68 0 96 -9 178 -55 35 -19 121 -103 132 -128 5 -12 21 -42 34 -66 20 -35 25 -58 25 -112 0 -37 -5 -71 -10 -74 -6 -4 -17 -22 -25 -41 -8 -20 -73 -94 -146 -167 -72 -72 -143 -150 -157 -172 -13 -22 -40 -57 -60 -77 -34 -36 -39 -38 -98 -38 l-62 0 -58 -61 -59 -60 -63 6 c-52 6 -69 3 -103 -14 -27 -14 -58 -21 -98 -21 -52 0 -61 3 -91 33 -18 17 -38 48 -44 67 -16 50 -40 46 -44 -7 -3 -40 1 -47 47 -96 65 -69 141 -98 189 -73 17 9 38 16 47 16 9 0 24 7 33 16 13 13 29 15 83 10 61 -5 68 -4 93 19 14 13 26 28 26 33 0 11 51 58 70 64 8 3 28 1 44 -3 49 -14 103 9 162 69 30 29 54 60 54 67 0 8 6 18 13 22 7 4 34 35 59 68 25 33 93 107 150 165 133 135 138 143 138 228 0 55 -5 78 -25 113 -13 24 -29 53 -34 64 -11 25 -85 109 -130 150 -19 16 -40 35 -47 42 -6 7 -31 22 -55 33 -24 12 -52 26 -61 31 -10 5 -60 9 -112 9 -71 0 -97 4 -106 15 -7 8 -20 15 -29 15 -9 0 -28 6 -42 14 -14 7 -37 16 -52 20 -15 3 -27 11 -27 16 0 6 -10 10 -22 10 -13 0 -36 7 -52 15 -63 33 -274 13 -341 -32 -11 -7 -29 -13 -40 -13 -12 0 -25 -4 -31 -9 -5 -5 -34 -19 -64 -31 -67 -27 -116 -49 -152 -67 -14 -7 -37 -13 -50 -13 -13 0 -29 -5 -35 -11 -11 -11 -136 -32 -193 -32 -130 0 -239 48 -337 148 -35 35 -63 70 -63 78 0 8 -7 20 -15 27 -11 9 -15 34 -15 97 0 119 19 149 208 339 61 61 116 121 122 135 6 13 17 35 25 49 9 15 15 52 15 91 0 66 -18 108 -57 132 -7 4 -13 15 -13 22 0 10 -11 15 -35 15 -24 0 -35 -5 -35 -14z"/> <path d="M1500 2194 c-36 -7 -82 -13 -102 -14 -20 0 -39 -4 -42 -9 -3 -4 -24 -11 -46 -15 -41 -6 -47 -9 -108 -39 -19 -9 -38 -17 -44 -17 -17 0 -158 -89 -227 -143 -64 -50 -161 -145 -161 -158 0 -4 -16 -24 -36 -44 -23 -24 -34 -44 -32 -58 5 -36 34 -31 59 10 32 51 151 175 202 210 23 15 44 30 47 33 15 17 167 100 184 100 6 1 29 9 51 20 22 11 51 19 65 20 15 0 32 6 38 13 9 8 70 13 211 15 163 3 205 1 236 -12 20 -9 50 -16 65 -16 15 0 33 -7 40 -15 7 -8 25 -15 40 -15 15 0 33 -7 40 -15 7 -8 20 -15 30 -15 10 0 23 -7 30 -15 7 -8 18 -15 25 -15 7 0 18 -7 25 -15 7 -8 21 -15 31 -15 10 0 22 -6 26 -13 4 -7 35 -34 69 -59 33 -26 74 -62 90 -80 102 -119 119 -142 143 -195 5 -11 15 -24 20 -28 6 -3 11 -14 11 -24 0 -10 7 -24 15 -31 8 -7 15 -23 15 -35 0 -12 7 -28 15 -35 8 -7 15 -27 15 -44 0 -17 7 -40 15 -50 8 -11 15 -41 15 -67 0 -25 7 -66 15 -89 8 -23 15 -71 15 -105 0 -34 -7 -82 -15 -105 -8 -23 -15 -66 -15 -94 0 -29 -7 -59 -15 -70 -8 -11 -15 -31 -15 -45 0 -14 -7 -35 -15 -45 -8 -11 -15 -30 -15 -43 0 -13 -7 -26 -15 -29 -8 -4 -15 -17 -15 -30 0 -14 -7 -27 -15 -30 -8 -4 -15 -12 -15 -19 0 -20 -116 -174 -164 -218 -64 -59 -148 -123 -194 -147 -23 -12 -42 -26 -42 -31 0 -5 -11 -9 -24 -9 -13 0 -29 -7 -36 -15 -7 -8 -23 -15 -35 -15 -12 0 -28 -7 -35 -15 -7 -8 -28 -15 -47 -15 -18 0 -44 -6 -56 -14 -59 -37 -438 -37 -492 0 -11 8 -31 14 -45 14 -15 0 -35 7 -46 15 -10 8 -29 15 -40 15 -12 0 -27 7 -34 15 -7 8 -20 15 -30 15 -10 0 -23 7 -30 15 -7 8 -16 15 -21 15 -5 0 -39 21 -76 46 -122 82 -289 273 -318 363 -3 12 -11 21 -16 21 -5 0 -9 8 -9 18 0 10 -7 27 -15 38 -8 10 -15 31 -15 45 0 34 -26 57 -43 40 -15 -15 -9 -81 9 -102 8 -8 14 -21 14 -28 0 -7 8 -27 17 -44 36 -66 87 -152 93 -157 3 -3 27 -32 52 -65 67 -87 172 -180 273 -242 47 -29 162 -83 177 -83 8 0 21 -7 28 -15 7 -8 29 -15 49 -15 20 0 43 -6 49 -12 13 -13 171 -29 277 -29 111 0 275 17 287 29 6 6 29 12 49 12 20 0 42 7 49 15 7 8 25 15 40 15 15 0 33 7 40 15 7 8 21 15 31 15 10 0 21 5 24 11 4 5 17 14 28 20 33 14 61 33 70 47 4 6 14 12 21 12 14 0 132 104 181 159 16 19 38 42 48 50 9 9 17 19 17 24 0 5 13 26 28 46 16 20 32 43 35 51 4 8 18 35 32 59 14 24 25 50 25 56 0 7 7 18 15 25 8 7 15 25 15 39 0 15 7 36 15 47 8 10 15 35 15 55 0 19 7 44 15 55 21 28 21 427 0 464 -8 14 -15 41 -15 60 0 19 -7 44 -15 54 -8 11 -15 32 -15 47 0 15 -7 29 -15 33 -8 3 -15 16 -15 29 0 14 -7 30 -15 37 -8 7 -15 20 -15 30 0 10 -7 23 -15 30 -8 7 -15 17 -15 22 0 6 -13 27 -30 48 -16 21 -30 41 -30 45 0 16 -187 198 -227 222 -24 14 -43 29 -43 34 0 5 -4 9 -10 9 -5 0 -32 14 -60 30 -28 17 -57 30 -64 30 -8 0 -19 7 -26 15 -7 8 -23 15 -35 15 -12 0 -28 7 -35 15 -7 8 -27 15 -44 15 -17 1 -42 7 -56 15 -14 8 -43 15 -65 15 -22 0 -67 7 -100 15 -73 17 -158 17 -245 -1z"/> <path d="M3116 1884 c-30 -34 -42 -55 -35 -60 6 -3 63 -3 125 0 129 8 139 2 84 -54 -28 -28 -30 -36 -30 -101 0 -39 -7 -85 -15 -106 -9 -20 -15 -66 -15 -108 0 -42 -6 -88 -15 -108 -8 -21 -15 -67 -15 -105 0 -39 -7 -85 -15 -105 -8 -20 -15 -66 -15 -102 0 -36 -7 -82 -15 -102 -29 -70 -26 -73 75 -73 71 0 90 3 90 14 0 8 7 22 16 30 22 23 14 51 -16 51 -22 0 -25 5 -28 44 -2 24 4 61 12 82 9 22 16 69 16 108 0 38 7 84 15 104 9 21 15 67 15 107 0 40 6 86 15 107 8 19 15 65 15 102 0 109 47 211 97 211 17 0 27 10 38 37 31 74 32 74 -171 76 l-182 3 -46 -52z"/> <path d="M6741 1776 c-14 -17 -31 -87 -31 -128 l0 -38 209 0 208 0 7 41 c4 22 4 45 0 50 -4 6 -54 7 -139 3 l-134 -7 -3 44 -3 44 -53 1 c-29 0 -56 -4 -61 -10z"/> <path d="M8065 1782 c-3 -3 -5 -27 -5 -54 0 -27 -7 -62 -15 -77 -8 -16 -11 -31 -8 -35 4 -3 100 -6 214 -6 196 0 209 1 219 19 5 11 10 33 10 50 l0 31 -142 -3 -143 -2 -3 38 c-2 20 -6 37 -10 38 -38 4 -113 5 -117 1z"/> <path d="M5245 1730 c-4 -6 -9 -29 -11 -51 -3 -22 -9 -52 -15 -65 -5 -14 -9 -57 -9 -95 0 -39 -7 -85 -15 -106 -8 -19 -15 -66 -15 -103 0 -37 -7 -87 -15 -110 -8 -23 -15 -67 -15 -96 0 -101 -57 -154 -163 -154 -48 1 -68 5 -87 21 -23 20 -24 25 -22 126 1 65 8 118 17 140 8 20 15 67 15 107 1 43 6 81 15 96 8 14 14 41 15 62 l0 36 -62 -3 c-80 -4 -88 -14 -88 -122 0 -52 -6 -97 -15 -120 -8 -20 -15 -66 -15 -105 0 -38 -7 -84 -15 -105 -19 -46 -19 -62 3 -110 40 -90 89 -113 243 -113 91 0 119 3 129 15 7 8 20 15 29 15 22 1 51 27 89 79 24 33 32 55 32 86 0 23 7 62 15 85 8 23 15 74 15 112 0 38 7 84 15 105 8 20 15 66 15 105 0 38 6 84 14 102 8 18 15 64 17 102 l4 69 -57 3 c-33 2 -59 -2 -63 -8z"/> <path d="M3470 1537 c0 -6 7 -21 15 -31 19 -26 19 -111 0 -166 -8 -23 -15 -71 -15 -105 0 -34 -7 -82 -15 -105 -8 -23 -15 -75 -15 -114 -1 -43 -6 -81 -15 -96 -30 -53 -22 -61 58 -58 l72 3 6 95 c3 52 11 108 17 123 7 16 12 59 12 96 0 46 6 83 20 112 18 43 71 109 86 109 4 0 15 7 24 15 10 9 40 18 67 21 43 6 53 3 76 -18 23 -22 27 -33 27 -80 0 -31 -7 -72 -15 -91 -8 -21 -15 -67 -15 -105 0 -38 -6 -85 -14 -103 -7 -19 -16 -67 -19 -106 l-6 -73 65 0 64 0 0 33 c0 19 7 56 15 83 8 27 15 79 15 115 0 37 7 83 15 102 10 25 15 74 16 157 1 113 -1 124 -22 146 -12 13 -30 24 -38 24 -9 0 -25 7 -35 15 -12 9 -41 15 -71 15 -30 0 -59 -6 -71 -15 -10 -8 -26 -15 -34 -15 -9 0 -33 -18 -54 -40 -50 -54 -66 -52 -66 5 0 51 1 51 -87 59 -47 4 -63 2 -63 -7z"/> <path d="M5641 1535 c-18 -8 -42 -15 -53 -15 -22 0 -96 -54 -123 -89 -13 -16 -18 -43 -19 -91 -1 -58 2 -72 21 -92 36 -38 130 -78 203 -86 26 -2 58 -15 77 -29 29 -22 33 -31 33 -73 0 -44 -3 -51 -39 -79 -34 -27 -47 -31 -102 -31 -57 0 -64 2 -91 32 -30 33 -31 38 -28 80 1 25 -1 26 -57 30 -76 6 -87 -6 -79 -87 5 -45 12 -65 33 -87 15 -15 32 -28 39 -28 6 0 17 -7 24 -15 10 -12 40 -15 150 -15 110 0 140 3 150 15 7 8 20 15 28 15 22 0 92 80 92 105 0 11 7 29 15 39 20 27 19 81 -2 119 -20 35 -52 66 -69 67 -6 0 -17 7 -24 15 -7 9 -30 15 -54 15 -22 1 -52 7 -66 15 -14 8 -39 14 -56 15 -38 0 -74 36 -74 73 0 60 95 110 166 87 53 -17 74 -38 74 -72 l0 -29 72 3 c63 3 73 6 77 23 8 43 -75 155 -115 155 -12 0 -38 7 -57 15 -45 19 -102 19 -146 0z"/> <path d="M6680 1534 c-25 -7 -57 -14 -71 -14 -15 0 -32 -7 -39 -15 -7 -8 -18 -15 -24 -15 -6 0 -24 -14 -41 -30 -82 -83 -86 -95 -44 -134 l30 -29 -25 -21 c-37 -31 -56 -86 -56 -164 0 -38 -6 -87 -14 -109 -8 -22 -16 -62 -17 -89 l-4 -49 65 0 65 0 8 40 c5 22 12 83 16 135 4 52 13 108 19 123 7 16 12 44 12 63 0 26 8 42 33 64 l32 31 -22 16 c-30 20 -29 38 2 65 39 33 111 49 160 35 45 -13 54 -20 74 -59 11 -22 12 -35 3 -67 -7 -21 -12 -65 -12 -98 0 -34 -7 -77 -15 -96 -8 -20 -15 -67 -15 -104 -1 -40 -7 -78 -15 -93 -30 -52 -22 -60 60 -60 l75 0 0 84 c0 52 6 97 15 119 8 21 15 67 15 105 0 39 7 85 15 105 21 52 19 119 -6 161 -24 41 -80 86 -107 86 -10 0 -32 4 -48 9 -57 18 -80 19 -124 5z"/> <path d="M4298 1526 c-51 -8 -75 -18 -102 -43 -20 -17 -36 -36 -36 -41 0 -5 -7 -15 -15 -22 -9 -8 -15 -30 -15 -59 0 -52 6 -63 37 -80 13 -6 27 -20 33 -31 9 -17 7 -22 -17 -31 -47 -17 -83 -59 -83 -95 0 -18 -5 -45 -11 -61 -13 -34 5 -108 34 -140 44 -50 89 -63 211 -63 89 0 116 3 126 15 7 8 21 15 32 15 25 0 118 93 118 118 0 11 7 36 15 55 8 21 15 67 15 106 0 38 5 82 12 98 6 15 15 64 18 108 4 44 13 95 21 112 19 46 6 54 -71 45 l-65 -7 -5 -90 c-3 -49 -11 -103 -18 -118 -7 -16 -12 -60 -12 -98 0 -39 -7 -85 -15 -106 -8 -19 -15 -48 -15 -64 0 -30 -17 -52 -62 -81 -41 -27 -140 -24 -178 4 -28 20 -30 26 -30 89 0 62 2 69 32 98 30 29 37 31 104 31 l73 0 10 38 c20 71 17 75 -41 70 -89 -9 -147 18 -148 68 0 40 39 63 115 66 66 3 70 4 68 26 -3 27 -42 82 -57 81 -6 -1 -41 -6 -78 -13z"/> <path d="M7172 1531 c-30 -4 -57 -13 -62 -21 -6 -8 -10 -52 -10 -96 0 -46 -6 -100 -15 -124 -8 -23 -15 -71 -15 -105 0 -34 -7 -82 -15 -105 -8 -23 -15 -64 -15 -90 0 -42 5 -52 40 -87 35 -36 46 -41 102 -46 35 -3 83 -3 108 0 45 6 110 38 110 54 0 23 29 6 32 -18 3 -27 5 -28 74 -31 l70 -3 2 119 c1 76 7 133 17 161 8 24 15 72 15 106 0 34 6 80 14 102 7 21 15 70 17 108 l4 70 -62 3 -63 3 0 -34 c0 -19 -7 -54 -15 -77 -8 -23 -15 -73 -15 -110 0 -37 -7 -87 -15 -110 -8 -23 -15 -68 -15 -98 0 -55 -1 -58 -51 -104 -51 -47 -53 -48 -118 -48 -102 1 -107 7 -103 142 2 67 9 126 18 146 8 19 14 66 14 104 0 43 6 80 16 99 16 32 16 91 -1 94 -5 1 -34 -1 -63 -4z"/> <path d="M7995 1531 c-11 -5 -34 -10 -51 -10 -19 -1 -34 -7 -38 -16 -3 -8 -13 -15 -23 -15 -22 0 -123 -106 -123 -129 0 -9 14 -25 30 -36 16 -11 30 -24 30 -30 0 -5 -14 -19 -30 -30 -24 -16 -30 -27 -30 -57 0 -20 -5 -49 -12 -65 -6 -15 -14 -64 -17 -108 l-6 -80 -42 -3 c-24 -2 -43 -6 -43 -9 0 -4 8 -24 18 -45 l17 -38 85 2 85 3 5 95 c3 52 11 108 18 123 7 16 12 57 12 91 0 56 3 66 30 92 32 32 39 61 15 70 -26 10 -16 42 21 71 32 24 45 27 110 27 67 0 75 -2 98 -27 31 -33 35 -102 11 -160 -8 -21 -15 -67 -15 -106 0 -39 -6 -88 -14 -108 -18 -47 -29 -173 -16 -174 6 -1 34 -1 63 -2 l52 -1 7 55 c4 30 11 67 17 82 6 16 11 57 11 91 0 35 7 83 15 106 9 27 15 79 15 142 0 86 -3 103 -22 128 -12 17 -27 30 -34 30 -6 0 -17 6 -23 14 -18 22 -192 42 -226 27z"/> <path d="M8585 1521 c-94 -14 -165 -88 -165 -172 0 -40 4 -51 31 -73 17 -14 35 -26 40 -26 23 0 5 -27 -29 -43 -63 -29 -75 -55 -76 -167 -1 -91 1 -99 24 -123 14 -15 29 -27 34 -27 5 0 18 -7 28 -17 27 -24 269 -25 296 0 10 9 23 17 29 17 20 0 103 91 103 113 1 12 7 33 15 47 9 15 14 54 15 100 0 41 7 97 15 124 8 27 15 83 15 124 0 65 2 74 20 79 11 3 20 13 20 23 0 14 -12 18 -60 23 -99 9 -100 8 -100 -88 0 -48 -6 -100 -15 -125 -8 -23 -15 -71 -15 -105 0 -34 -7 -82 -15 -105 -8 -23 -15 -53 -15 -65 0 -15 -14 -34 -39 -54 -36 -28 -45 -31 -113 -31 -99 0 -118 18 -118 110 0 61 2 65 38 97 34 30 42 33 104 33 37 0 69 4 72 8 3 5 8 28 12 52 l7 43 -62 -6 c-55 -6 -66 -4 -101 18 -48 30 -51 57 -13 97 24 25 34 28 89 28 35 0 66 5 69 11 4 5 -5 28 -19 50 -28 42 -34 43 -121 30z"/> <path d="M6070 1461 c-15 -12 -19 -31 -20 -76 -1 -33 -1 -65 -1 -70 1 -6 44 -10 114 -9 l113 0 36 40 c20 21 34 42 32 46 -3 5 -39 8 -79 8 l-74 0 2 38 2 37 -53 1 c-36 1 -60 -4 -72 -15z"/> <path d="M1285 1380 c-14 -16 -16 -25 -8 -43 14 -31 79 -51 119 -37 16 5 42 9 58 7 38 -3 42 12 13 54 -22 33 -25 34 -93 37 -60 2 -73 0 -89 -18z"/> <path d="M6014 1073 c-3 -16 -10 -41 -15 -57 -5 -16 -9 -44 -9 -62 l0 -34 118 1 117 1 34 40 c43 49 32 59 -56 51 l-63 -6 0 47 0 46 -60 0 c-57 0 -60 -1 -66 -27z"/> <path d="M466 1032 c-8 -13 68 -59 127 -78 29 -10 61 -21 73 -26 20 -9 284 -4 401 7 48 5 67 3 85 -9 28 -20 64 -21 71 -2 7 17 -11 36 -34 36 -10 0 -19 5 -21 11 -7 21 -117 30 -208 18 -103 -13 -311 -9 -331 7 -8 7 -33 15 -56 19 -24 4 -45 11 -49 16 -7 11 -51 12 -58 1z"/> <path d="M3402 544 c-18 -12 -22 -25 -22 -72 -1 -31 -7 -68 -15 -82 -8 -14 -14 -43 -15 -65 0 -22 -7 -53 -15 -69 -24 -45 -19 -56 20 -56 41 0 55 23 55 92 0 50 32 98 66 98 22 0 24 -3 24 -52 -1 -29 -7 -64 -15 -78 -25 -43 -19 -62 17 -58 41 4 56 44 57 156 l1 82 -44 0 c-25 0 -48 -5 -51 -10 -15 -24 -25 6 -23 62 3 66 -5 77 -40 52z"/> <path d="M3931 539 c-20 -19 -21 -23 -8 -42 20 -30 45 -33 68 -8 24 25 24 34 1 54 -24 22 -34 21 -61 -4z"/> <path d="M6912 537 c-20 -21 -20 -23 -3 -46 14 -18 24 -22 43 -18 34 9 42 43 17 68 -24 24 -31 24 -57 -4z"/> <path d="M3109 526 c-5 -6 -9 -20 -9 -32 0 -20 6 -23 43 -26 32 -2 41 -7 38 -18 -2 -8 -7 -40 -11 -71 -4 -30 -12 -64 -17 -75 -28 -53 -22 -114 11 -114 36 1 49 36 65 177 10 87 21 103 72 103 33 0 40 4 45 25 4 14 5 28 3 30 -9 8 -231 9 -240 1z"/> <path d="M4150 520 c-15 -15 -20 -33 -20 -70 0 -27 -6 -69 -14 -92 -8 -24 -17 -69 -21 -101 l-6 -57 35 0 36 0 0 50 c0 28 7 67 15 87 8 19 15 51 15 70 0 19 7 50 16 69 9 19 14 41 10 49 -8 21 -42 19 -66 -5z"/> <path d="M6327 533 c-4 -3 -7 -91 -7 -195 0 -159 2 -190 15 -194 8 -4 22 -1 30 6 23 19 22 375 -1 384 -20 8 -29 8 -37 -1z"/> <path d="M6748 530 c-128 -11 -158 -119 -52 -186 35 -22 44 -34 44 -56 0 -22 -5 -28 -22 -29 -130 -4 -123 -2 -126 -31 l-3 -28 84 0 c75 0 86 2 106 24 43 45 36 136 -11 156 -40 16 -58 36 -58 64 0 25 2 26 60 26 60 0 60 0 60 29 0 35 -8 38 -82 31z"/> <path d="M7940 515 c-14 -8 -32 -14 -41 -15 -21 0 -52 -35 -47 -52 3 -7 17 -12 33 -13 29 0 29 -1 27 -45 -2 -25 -13 -73 -24 -107 -22 -67 -16 -93 22 -93 33 0 40 20 59 170 4 36 13 75 20 88 16 29 10 76 -9 79 -8 1 -26 -4 -40 -12z"/> <path d="M8155 514 c-46 -24 -67 -59 -68 -114 -1 -64 14 -80 74 -80 29 0 49 -5 49 -11 0 -20 -45 -48 -76 -49 -50 0 -85 -52 -44 -65 47 -15 151 34 175 82 6 11 16 27 22 34 11 14 18 84 15 146 -2 24 -10 36 -38 52 -41 24 -67 26 -109 5z m83 -90 c4 -53 -25 -83 -63 -66 -51 23 -21 116 34 110 23 -3 26 -8 29 -44z"/> <path d="M8396 509 c-37 -29 -19 -51 34 -43 31 5 40 3 48 -12 14 -28 5 -42 -44 -63 -24 -11 -44 -22 -44 -25 0 -2 20 -14 46 -26 35 -17 44 -27 42 -43 -4 -31 -45 -48 -97 -41 -31 5 -46 3 -52 -7 -26 -42 10 -63 91 -54 77 9 120 46 120 104 0 31 -5 43 -22 52 l-22 12 21 16 c24 20 43 53 43 76 0 9 -14 30 -31 46 -39 36 -93 39 -133 8z"/> <path d="M8675 502 c-33 -23 -41 -34 -43 -66 -2 -25 2 -44 14 -57 16 -17 15 -19 -10 -30 -28 -13 -39 -38 -38 -83 1 -54 43 -74 137 -67 69 4 108 85 67 140 l-21 28 30 29 c43 41 40 77 -11 109 -50 32 -75 31 -125 -3z m99 -54 c9 -14 5 -23 -16 -45 -27 -26 -28 -26 -48 -8 -20 18 -27 55 -13 69 13 13 66 1 77 -16z m-42 -115 c27 -24 23 -67 -8 -83 -49 -27 -87 35 -47 79 23 24 32 25 55 4z"/> <path d="M4570 443 c-34 -13 -50 -37 -50 -73 0 -32 6 -41 35 -61 50 -34 42 -55 -18 -52 -46 3 -47 2 -47 -27 0 -30 0 -30 59 -30 54 0 62 3 85 31 14 17 26 37 26 44 0 20 -49 75 -67 75 -9 0 -13 8 -11 23 2 18 9 22 43 23 36 0 40 3 40 25 0 21 -5 24 -40 26 -22 1 -47 -1 -55 -4z"/> <path d="M4744 442 c-6 -4 -14 -25 -16 -47 -3 -22 -11 -61 -19 -88 -12 -42 -11 -51 3 -75 21 -35 84 -44 106 -15 13 17 14 17 26 1 7 -10 25 -18 40 -18 25 0 26 2 26 58 1 31 7 68 15 82 17 29 20 96 5 105 -27 17 -45 -7 -63 -82 -22 -91 -30 -103 -67 -103 -33 0 -41 15 -27 50 36 91 20 164 -29 132z"/> <path d="M5091 428 c-18 -19 -21 -19 -27 -5 -4 11 -17 17 -35 17 -28 0 -29 -1 -29 -50 0 -28 -7 -67 -15 -87 -8 -19 -15 -51 -15 -69 0 -31 3 -34 29 -34 26 0 29 3 35 48 9 64 35 112 70 132 40 22 56 48 36 60 -21 14 -27 13 -49 -12z"/> <path d="M5790 443 c-59 -23 -100 -83 -100 -147 0 -40 5 -53 26 -73 22 -20 35 -23 78 -21 47 3 51 5 51 28 0 21 -5 25 -35 28 -45 5 -60 18 -60 52 0 33 49 80 85 80 27 0 49 24 41 45 -5 15 -55 20 -86 8z"/> <path d="M5991 443 c-13 -3 -39 -21 -57 -41 -31 -34 -34 -43 -34 -98 0 -51 4 -64 24 -83 20 -19 33 -22 87 -19 62 3 64 4 67 32 l4 28 -49 -6 c-26 -4 -54 -2 -62 3 -24 15 -5 38 37 43 69 10 97 28 100 69 5 55 -46 86 -117 72z m54 -68 c0 -16 -8 -21 -42 -23 -48 -3 -55 8 -20 33 29 21 62 16 62 -10z"/> <path d="M7390 443 c-53 -6 -107 -57 -122 -116 -11 -43 -10 -52 7 -85 16 -30 27 -38 60 -44 22 -4 53 -5 68 -2 24 5 28 10 25 32 -3 24 -7 27 -34 24 -35 -3 -64 18 -64 48 0 35 23 70 49 76 65 14 76 21 76 45 0 25 -8 28 -65 22z"/> <path d="M3683 427 c-7 -7 -24 -23 -38 -37 -25 -24 -31 -55 -27 -129 1 -18 7 -40 13 -47 16 -19 64 -17 96 3 24 16 26 16 38 -1 8 -10 22 -16 32 -14 15 3 19 17 26 83 5 44 15 94 22 111 8 18 11 35 8 38 -12 11 -158 6 -170 -7z m87 -74 c-1 -57 -26 -93 -64 -93 -24 0 -26 3 -26 44 0 37 5 48 31 70 46 39 59 34 59 -21z"/> <path d="M3916 428 c-11 -35 -18 -68 -26 -123 -5 -33 -12 -70 -16 -82 -6 -21 -3 -23 29 -23 40 0 47 11 47 76 0 25 7 61 15 81 8 19 15 46 15 59 0 20 -5 24 -30 24 -17 0 -32 -6 -34 -12z"/> <path d="M4257 433 c-4 -3 -7 -28 -7 -55 0 -27 -7 -65 -15 -85 -8 -19 -15 -48 -15 -64 0 -25 4 -29 30 -29 24 0 31 5 36 28 22 104 29 129 43 145 18 21 50 19 64 -5 8 -12 6 -27 -6 -55 -9 -21 -18 -54 -19 -73 -3 -33 -1 -35 30 -38 30 -3 32 -1 32 28 0 17 7 47 15 67 18 43 20 114 3 131 -16 16 -105 16 -111 0 -4 -10 -7 -10 -18 0 -14 13 -51 16 -62 5z"/> <path d="M5208 417 c-16 -13 -28 -28 -28 -34 0 -6 -7 -16 -15 -23 -23 -19 -20 -122 3 -143 25 -22 81 -22 98 1 13 16 15 16 28 0 7 -10 25 -18 40 -18 26 0 26 1 26 73 1 43 6 82 15 97 8 14 14 35 15 48 0 21 -4 22 -77 22 -66 -1 -82 -4 -105 -23z m94 -72 c-3 -57 -23 -85 -64 -85 -26 0 -28 3 -28 38 0 29 7 46 32 71 44 45 64 38 60 -24z"/> <path d="M5450 405 c0 -20 -6 -48 -14 -63 -8 -15 -15 -52 -17 -82 l-4 -55 33 -3 32 -3 0 51 c0 82 59 172 90 135 10 -12 4 -98 -11 -165 -3 -11 5 -15 31 -15 l35 0 6 70 c3 39 9 80 12 91 4 12 3 33 -2 48 -9 23 -16 26 -56 26 -25 0 -45 -4 -45 -10 0 -5 -7 -10 -15 -10 -8 0 -15 5 -15 10 0 6 -13 10 -30 10 -28 0 -30 -3 -30 -35z"/> <path d="M6890 407 c0 -18 -6 -53 -14 -78 -25 -79 -27 -118 -6 -129 33 -17 50 -2 50 45 0 23 7 59 15 78 8 20 15 55 15 77 0 38 -2 40 -30 40 -27 0 -30 -3 -30 -33z"/> <path d="M7017 433 c-4 -3 -7 -30 -7 -60 0 -29 -7 -70 -15 -90 -19 -45 -19 -82 -1 -89 21 -8 56 14 56 36 0 34 30 134 42 142 7 4 24 7 38 6 31 -4 37 -34 17 -80 -32 -71 -23 -118 20 -104 13 4 23 27 36 79 31 130 21 167 -43 167 -22 0 -50 -6 -61 -12 -17 -10 -23 -10 -26 0 -5 13 -45 17 -56 5z"/> <path d="M7529 417 c-28 -23 -69 -96 -69 -122 0 -9 10 -33 22 -54 21 -36 26 -39 78 -45 66 -8 87 -2 96 26 8 27 -12 38 -47 26 -20 -7 -35 -5 -58 7 -38 19 -32 35 12 35 18 0 51 9 74 20 50 22 62 53 39 99 -15 29 -20 31 -69 31 -39 -1 -59 -6 -78 -23z m79 -29 c20 -20 13 -36 -19 -43 -44 -10 -62 10 -30 36 27 22 33 23 49 7z"/> </g> </svg> 